<?xml version="1.0" encoding="UTF-8"?>
<!--Generator: Apple Native CoreSVG 175.5-->
<!DOCTYPE svg
PUBLIC "-//W3C//DTD SVG 1.1//EN"
       "http://www.w3.org/Graphics/SVG/1.1/DTD/svg11.dtd">
<svg version="1.1" xmlns="http://www.w3.org/2000/svg" xmlns:xlink="http://www.w3.org/1999/xlink" width="3300" height="2200">
 <!--glyph: "uni100B80.medium", point size: 100.0, font version: "18.0d9e1", template writer version: "84"-->
 <g id="Notes">
  <rect height="2200" id="artboard" style="fill:white;opacity:1" width="3300" x="0" y="0"/>
  <line style="fill:none;stroke:black;opacity:1;stroke-width:0.5;" x1="263" x2="3036" y1="292" y2="292"/>
  <text style="stroke:none;fill:black;font-family:sans-serif;font-size:13;font-weight:bold;" transform="matrix(1 0 0 1 263 322)">Weight/Scale Variations</text>
  <text style="stroke:none;fill:black;font-family:sans-serif;font-size:13;text-anchor:middle;" transform="matrix(1 0 0 1 559.711 322)">Ultralight</text>
  <text style="stroke:none;fill:black;font-family:sans-serif;font-size:13;text-anchor:middle;" transform="matrix(1 0 0 1 856.422 322)">Thin</text>
  <text style="stroke:none;fill:black;font-family:sans-serif;font-size:13;text-anchor:middle;" transform="matrix(1 0 0 1 1153.13 322)">Light</text>
  <text style="stroke:none;fill:black;font-family:sans-serif;font-size:13;text-anchor:middle;" transform="matrix(1 0 0 1 1449.84 322)">Regular</text>
  <text style="stroke:none;fill:black;font-family:sans-serif;font-size:13;text-anchor:middle;" transform="matrix(1 0 0 1 1746.56 322)">Medium</text>
  <text style="stroke:none;fill:black;font-family:sans-serif;font-size:13;text-anchor:middle;" transform="matrix(1 0 0 1 2043.27 322)">Semibold</text>
  <text style="stroke:none;fill:black;font-family:sans-serif;font-size:13;text-anchor:middle;" transform="matrix(1 0 0 1 2339.98 322)">Bold</text>
  <text style="stroke:none;fill:black;font-family:sans-serif;font-size:13;text-anchor:middle;" transform="matrix(1 0 0 1 2636.69 322)">Heavy</text>
  <text style="stroke:none;fill:black;font-family:sans-serif;font-size:13;text-anchor:middle;" transform="matrix(1 0 0 1 2933.4 322)">Black</text>
  <line style="fill:none;stroke:black;opacity:1;stroke-width:0.5;" x1="263" x2="3036" y1="1903" y2="1903"/>
  <g transform="matrix(1 0 0 1 263 1933)">
   <path d="M9.24805 0.830078Q10.8691 0.830078 12.2949 0.214844Q13.7207-0.400391 14.8096-1.49414Q15.8984-2.58789 16.5186-4.01367Q17.1387-5.43945 17.1387-7.05078Q17.1387-8.66211 16.5186-10.0879Q15.8984-11.5137 14.8047-12.6074Q13.7109-13.7012 12.2852-14.3164Q10.8594-14.9316 9.23828-14.9316Q7.62695-14.9316 6.20117-14.3164Q4.77539-13.7012 3.69141-12.6074Q2.60742-11.5137 1.9873-10.0879Q1.36719-8.66211 1.36719-7.05078Q1.36719-5.43945 1.9873-4.01367Q2.60742-2.58789 3.69629-1.49414Q4.78516-0.400391 6.21094 0.214844Q7.63672 0.830078 9.24805 0.830078ZM9.24805-0.654297Q7.91992-0.654297 6.7627-1.14746Q5.60547-1.64062 4.73145-2.51953Q3.85742-3.39844 3.36426-4.56055Q2.87109-5.72266 2.87109-7.05078Q2.87109-8.37891 3.35938-9.54102Q3.84766-10.7031 4.72168-11.582Q5.5957-12.4609 6.75293-12.9541Q7.91016-13.4473 9.23828-13.4473Q10.5762-13.4473 11.7383-12.9541Q12.9004-12.4609 13.7793-11.582Q14.6582-10.7031 15.1514-9.54102Q15.6445-8.37891 15.6445-7.05078Q15.6445-5.72266 15.1514-4.56055Q14.6582-3.39844 13.7793-2.51953Q12.9004-1.64062 11.7432-1.14746Q10.5859-0.654297 9.24805-0.654297ZM5.6543-7.05078Q5.6543-6.72852 5.85938-6.52832Q6.06445-6.32812 6.40625-6.32812L8.51562-6.32812L8.51562-4.20898Q8.51562-3.88672 8.71094-3.67676Q8.90625-3.4668 9.23828-3.4668Q9.56055-3.4668 9.77051-3.67676Q9.98047-3.88672 9.98047-4.20898L9.98047-6.32812L12.0898-6.32812Q12.4219-6.32812 12.627-6.52832Q12.832-6.72852 12.832-7.05078Q12.832-7.38281 12.627-7.58789Q12.4219-7.79297 12.0898-7.79297L9.98047-7.79297L9.98047-9.90234Q9.98047-10.2344 9.77051-10.4443Q9.56055-10.6543 9.23828-10.6543Q8.90625-10.6543 8.71094-10.4443Q8.51562-10.2344 8.51562-9.90234L8.51562-7.79297L6.40625-7.79297Q6.06445-7.79297 5.85938-7.58789Q5.6543-7.38281 5.6543-7.05078Z"/>
  </g>
  <g transform="matrix(1 0 0 1 281.867 1933)">
   <path d="M11.709 2.91016Q13.75 2.91016 15.5518 2.12891Q17.3535 1.34766 18.7305-0.0292969Q20.1074-1.40625 20.8887-3.20801Q21.6699-5.00977 21.6699-7.05078Q21.6699-9.0918 20.8887-10.8936Q20.1074-12.6953 18.7305-14.0723Q17.3535-15.4492 15.5469-16.2305Q13.7402-17.0117 11.6992-17.0117Q9.6582-17.0117 7.85645-16.2305Q6.05469-15.4492 4.68262-14.0723Q3.31055-12.6953 2.5293-10.8936Q1.74805-9.0918 1.74805-7.05078Q1.74805-5.00977 2.5293-3.20801Q3.31055-1.40625 4.6875-0.0292969Q6.06445 1.34766 7.86621 2.12891Q9.66797 2.91016 11.709 2.91016ZM11.709 1.25Q9.98047 1.25 8.47656 0.605469Q6.97266-0.0390625 5.83496-1.17676Q4.69727-2.31445 4.05762-3.81836Q3.41797-5.32227 3.41797-7.05078Q3.41797-8.7793 4.05762-10.2832Q4.69727-11.7871 5.83008-12.9297Q6.96289-14.0723 8.4668-14.7119Q9.9707-15.3516 11.6992-15.3516Q13.4277-15.3516 14.9365-14.7119Q16.4453-14.0723 17.583-12.9297Q18.7207-11.7871 19.3652-10.2832Q20.0098-8.7793 20.0098-7.05078Q20.0098-5.32227 19.3701-3.81836Q18.7305-2.31445 17.5879-1.17676Q16.4453-0.0390625 14.9414 0.605469Q13.4375 1.25 11.709 1.25ZM7.17773-7.05078Q7.17773-6.69922 7.41211-6.47461Q7.64648-6.25 8.01758-6.25L10.8887-6.25L10.8887-3.36914Q10.8887-2.99805 11.1133-2.76855Q11.3379-2.53906 11.6895-2.53906Q12.0605-2.53906 12.29-2.76855Q12.5195-2.99805 12.5195-3.36914L12.5195-6.25L15.4004-6.25Q15.7715-6.25 16.001-6.47461Q16.2305-6.69922 16.2305-7.05078Q16.2305-7.42188 16.001-7.65137Q15.7715-7.88086 15.4004-7.88086L12.5195-7.88086L12.5195-10.752Q12.5195-11.1328 12.29-11.3623Q12.0605-11.5918 11.6895-11.5918Q11.3379-11.5918 11.1133-11.3574Q10.8887-11.123 10.8887-10.752L10.8887-7.88086L8.01758-7.88086Q7.63672-7.88086 7.40723-7.65137Q7.17773-7.42188 7.17773-7.05078Z"/>
  </g>
  <g transform="matrix(1 0 0 1 305.646 1933)">
   <path d="M14.9707 5.66406Q17.0605 5.66406 18.96 5.01465Q20.8594 4.36523 22.4512 3.19336Q24.043 2.02148 25.2197 0.429688Q26.3965-1.16211 27.0459-3.06641Q27.6953-4.9707 27.6953-7.05078Q27.6953-9.14062 27.0459-11.04Q26.3965-12.9395 25.2197-14.5312Q24.043-16.123 22.4512-17.2998Q20.8594-18.4766 18.9551-19.126Q17.0508-19.7754 14.9609-19.7754Q12.8711-19.7754 10.9717-19.126Q9.07227-18.4766 7.48535-17.2998Q5.89844-16.123 4.72168-14.5312Q3.54492-12.9395 2.90039-11.04Q2.25586-9.14062 2.25586-7.05078Q2.25586-4.9707 2.90527-3.06641Q3.55469-1.16211 4.72656 0.429688Q5.89844 2.02148 7.49023 3.19336Q9.08203 4.36523 10.9814 5.01465Q12.8809 5.66406 14.9707 5.66406ZM14.9707 3.84766Q13.1641 3.84766 11.5283 3.2959Q9.89258 2.74414 8.53516 1.74805Q7.17773 0.751953 6.17676-0.610352Q5.17578-1.97266 4.62891-3.6084Q4.08203-5.24414 4.08203-7.05078Q4.08203-8.86719 4.62891-10.5029Q5.17578-12.1387 6.17188-13.501Q7.16797-14.8633 8.52539-15.8594Q9.88281-16.8555 11.5186-17.4023Q13.1543-17.9492 14.9609-17.9492Q16.7773-17.9492 18.4131-17.4023Q20.0488-16.8555 21.4111-15.8594Q22.7734-14.8633 23.7744-13.501Q24.7754-12.1387 25.3223-10.5029Q25.8691-8.86719 25.8691-7.05078Q25.8691-5.24414 25.3223-3.6084Q24.7754-1.97266 23.7793-0.610352Q22.7832 0.751953 21.4209 1.74805Q20.0586 2.74414 18.4229 3.2959Q16.7871 3.84766 14.9707 3.84766ZM9.19922-7.05078Q9.19922-6.66992 9.45801-6.4209Q9.7168-6.17188 10.1172-6.17188L14.0625-6.17188L14.0625-2.2168Q14.0625-1.81641 14.3115-1.55762Q14.5605-1.29883 14.9512-1.29883Q15.3516-1.29883 15.6104-1.55273Q15.8691-1.80664 15.8691-2.2168L15.8691-6.17188L19.8242-6.17188Q20.2246-6.17188 20.4785-6.4209Q20.7324-6.66992 20.7324-7.05078Q20.7324-7.46094 20.4785-7.71484Q20.2246-7.96875 19.8242-7.96875L15.8691-7.96875L15.8691-11.9141Q15.8691-12.3242 15.6104-12.583Q15.3516-12.8418 14.9512-12.8418Q14.5605-12.8418 14.3115-12.583Q14.0625-12.3242 14.0625-11.9141L14.0625-7.96875L10.1172-7.96875Q9.70703-7.96875 9.45312-7.71484Q9.19922-7.46094 9.19922-7.05078Z"/>
  </g>
  <text style="stroke:none;fill:black;font-family:sans-serif;font-size:13;font-weight:bold;" transform="matrix(1 0 0 1 263 1953)">Design Variations</text>
  <text style="stroke:none;fill:black;font-family:sans-serif;font-size:13;" transform="matrix(1 0 0 1 263 1971)">Symbols are supported in up to nine weights and three scales.</text>
  <text style="stroke:none;fill:black;font-family:sans-serif;font-size:13;" transform="matrix(1 0 0 1 263 1989)">For optimal layout with text and other symbols, vertically align</text>
  <text style="stroke:none;fill:black;font-family:sans-serif;font-size:13;" transform="matrix(1 0 0 1 263 2007)">symbols with the adjacent text.</text>
  <line style="fill:none;stroke:#00AEEF;stroke-width:0.5;opacity:1.0;" x1="776" x2="776" y1="1919" y2="1933"/>
  <g transform="matrix(1 0 0 1 776 1933)">
   <path d="M3.31055 0.15625Q3.70117 0.15625 3.91602-0.00976562Q4.13086-0.175781 4.26758-0.585938L5.52734-4.0332L11.2891-4.0332L12.5488-0.585938Q12.6855-0.175781 12.9004-0.00976562Q13.1152 0.15625 13.4961 0.15625Q13.8867 0.15625 14.1162-0.0585938Q14.3457-0.273438 14.3457-0.644531Q14.3457-0.869141 14.2383-1.17188L9.6582-13.3691Q9.48242-13.8184 9.17969-14.043Q8.87695-14.2676 8.4082-14.2676Q7.5-14.2676 7.17773-13.3789L2.59766-1.16211Q2.49023-0.859375 2.49023-0.634766Q2.49023-0.263672 2.70996-0.0537109Q2.92969 0.15625 3.31055 0.15625ZM6.00586-5.51758L8.37891-12.0898L8.42773-12.0898L10.8008-5.51758Z"/>
  </g>
  <line style="fill:none;stroke:#00AEEF;stroke-width:0.5;opacity:1.0;" x1="793.197" x2="793.197" y1="1919" y2="1933"/>
  <text style="stroke:none;fill:black;font-family:sans-serif;font-size:13;font-weight:bold;" transform="matrix(1 0 0 1 776 1953)">Margins</text>
  <text style="stroke:none;fill:black;font-family:sans-serif;font-size:13;" transform="matrix(1 0 0 1 776 1971)">Leading and trailing margins on the left and right side of each symbol</text>
  <text style="stroke:none;fill:black;font-family:sans-serif;font-size:13;" transform="matrix(1 0 0 1 776 1989)">can be adjusted by modifying the x-location of the margin guidelines.</text>
  <text style="stroke:none;fill:black;font-family:sans-serif;font-size:13;" transform="matrix(1 0 0 1 776 2007)">Modifications are automatically applied proportionally to all</text>
  <text style="stroke:none;fill:black;font-family:sans-serif;font-size:13;" transform="matrix(1 0 0 1 776 2025)">scales and weights.</text>
  <g transform="matrix(1 0 0 1 1289 1933)">
   <path d="M2.8418 1.86523L4.54102 3.57422Q5.18555 4.22852 5.90332 4.17969Q6.62109 4.13086 7.31445 3.35938L18.0078-8.42773L17.041-9.4043L6.42578 2.27539Q6.16211 2.57812 5.89355 2.61719Q5.625 2.65625 5.27344 2.30469L4.10156 1.14258Q3.75 0.791016 3.79395 0.522461Q3.83789 0.253906 4.14062-0.0195312L15.6152-10.8203L14.6387-11.7871L3.04688-0.898438Q2.30469-0.214844 2.25098 0.498047Q2.19727 1.21094 2.8418 1.86523ZM9.25781-16.3281Q8.94531-16.0254 8.90625-15.6348Q8.86719-15.2441 9.04297-14.9512Q9.21875-14.6777 9.55566-14.541Q9.89258-14.4043 10.3809-14.5215Q11.4746-14.7754 12.5977-14.7314Q13.7207-14.6875 14.7949-13.9844L14.209-12.5293Q13.9551-11.9043 14.0674-11.4404Q14.1797-10.9766 14.5801-10.5664L16.875-8.25195Q17.2363-7.88086 17.5781-7.82227Q17.9199-7.76367 18.3398-7.8418L19.4043-8.03711L20.0684-7.36328L20.0293-6.80664Q20-6.43555 20.1221-6.12305Q20.2441-5.81055 20.6055-5.44922L21.3672-4.70703Q21.7285-4.3457 22.1533-4.33105Q22.5781-4.31641 22.9297-4.66797L25.8398-7.58789Q26.1914-7.93945 26.1816-8.35449Q26.1719-8.76953 25.8105-9.13086L25.0391-9.89258Q24.6875-10.2539 24.3799-10.3857Q24.0723-10.5176 23.7109-10.4883L23.1348-10.4395L22.4902-11.0742L22.7344-12.1973Q22.832-12.6172 22.6953-12.9834Q22.5586-13.3496 22.1191-13.7891L19.9219-15.9766Q18.6719-17.2168 17.2607-17.8369Q15.8496-18.457 14.4189-18.4814Q12.9883-18.5059 11.665-17.959Q10.3418-17.4121 9.25781-16.3281ZM10.752-15.957Q11.6602-16.6211 12.7002-16.9043Q13.7402-17.1875 14.8047-17.085Q15.8691-16.9824 16.8701-16.5137Q17.8711-16.0449 18.7012-15.2051L21.1328-12.793Q21.3086-12.6172 21.3525-12.4512Q21.3965-12.2852 21.3379-12.0312L21.0156-10.5469L22.5195-9.0625L23.5059-9.12109Q23.6914-9.13086 23.7891-9.09668Q23.8867-9.0625 24.0332-8.91602L24.6094-8.33984L22.168-5.89844L21.5918-6.47461Q21.4453-6.62109 21.4062-6.71875Q21.3672-6.81641 21.377-7.01172L21.4453-7.98828L19.9512-9.47266L18.4277-9.21875Q18.1836-9.16992 18.042-9.2041Q17.9004-9.23828 17.7148-9.41406L15.7129-11.416Q15.5176-11.5918 15.4932-11.7529Q15.4688-11.9141 15.5859-12.1875L16.4648-14.2773Q15.293-15.3711 13.8281-15.791Q12.3633-16.2109 10.8398-15.7617Q10.7227-15.7324 10.6885-15.8057Q10.6543-15.8789 10.752-15.957Z"/>
  </g>
  <text style="stroke:none;fill:black;font-family:sans-serif;font-size:13;font-weight:bold;" transform="matrix(1 0 0 1 1289 1953)">Exporting</text>
  <text style="stroke:none;fill:black;font-family:sans-serif;font-size:13;" transform="matrix(1 0 0 1 1289 1971)">Symbols should be outlined when exporting to ensure the</text>
  <text style="stroke:none;fill:black;font-family:sans-serif;font-size:13;" transform="matrix(1 0 0 1 1289 1989)">design is preserved when submitting to Xcode.</text>
  <text id="template-version" style="stroke:none;fill:black;font-family:sans-serif;font-size:13;text-anchor:end;" transform="matrix(1 0 0 1 3036 1933)">Template v.2.0</text>
  <text style="stroke:none;fill:black;font-family:sans-serif;font-size:13;text-anchor:end;" transform="matrix(1 0 0 1 3036 1951)">Requires Xcode 12 or greater</text>
  <text id="descriptive-name" style="stroke:none;fill:black;font-family:sans-serif;font-size:13;text-anchor:end;" transform="matrix(1 0 0 1 3036 1969)">Generated from banknote.fill</text>
  <text style="stroke:none;fill:black;font-family:sans-serif;font-size:13;text-anchor:end;" transform="matrix(1 0 0 1 3036 1987)">Typeset at 100 points</text>
  <text style="stroke:none;fill:black;font-family:sans-serif;font-size:13;" transform="matrix(1 0 0 1 263 726)">Small</text>
  <text style="stroke:none;fill:black;font-family:sans-serif;font-size:13;" transform="matrix(1 0 0 1 263 1156)">Medium</text>
  <text style="stroke:none;fill:black;font-family:sans-serif;font-size:13;" transform="matrix(1 0 0 1 263 1586)">Large</text>
 </g>
 <g id="Guides">
  <g id="H-reference" style="fill:#27AAE1;stroke:none;" transform="matrix(1 0 0 1 339 696)">
   <path d="M0.993347 0L3.6377 0L29.3282-67.1326L30.0301-67.1326L30.0301-70.459L28.1227-70.459ZM11.6882-24.4797L46.9818-24.4797L46.2311-26.7288L12.4382-26.7288ZM55.1193 0L57.7637 0L30.6381-70.459L29.4327-70.459L29.4327-67.1326Z"/>
  </g>
  <line id="Baseline-S" style="fill:none;stroke:#27AAE1;opacity:1;stroke-width:0.5;" x1="263" x2="3036" y1="696" y2="696"/>
  <line id="Capline-S" style="fill:none;stroke:#27AAE1;opacity:1;stroke-width:0.5;" x1="263" x2="3036" y1="625.541" y2="625.541"/>
  <g id="H-reference" style="fill:#27AAE1;stroke:none;" transform="matrix(1 0 0 1 339 1126)">
   <path d="M0.993347 0L3.6377 0L29.3282-67.1326L30.0301-67.1326L30.0301-70.459L28.1227-70.459ZM11.6882-24.4797L46.9818-24.4797L46.2311-26.7288L12.4382-26.7288ZM55.1193 0L57.7637 0L30.6381-70.459L29.4327-70.459L29.4327-67.1326Z"/>
  </g>
  <line id="Baseline-M" style="fill:none;stroke:#27AAE1;opacity:1;stroke-width:0.5;" x1="263" x2="3036" y1="1126" y2="1126"/>
  <line id="Capline-M" style="fill:none;stroke:#27AAE1;opacity:1;stroke-width:0.5;" x1="263" x2="3036" y1="1055.54" y2="1055.54"/>
  <g id="H-reference" style="fill:#27AAE1;stroke:none;" transform="matrix(1 0 0 1 339 1556)">
   <path d="M0.993347 0L3.6377 0L29.3282-67.1326L30.0301-67.1326L30.0301-70.459L28.1227-70.459ZM11.6882-24.4797L46.9818-24.4797L46.2311-26.7288L12.4382-26.7288ZM55.1193 0L57.7637 0L30.6381-70.459L29.4327-70.459L29.4327-67.1326Z"/>
  </g>
  <line id="Baseline-L" style="fill:none;stroke:#27AAE1;opacity:1;stroke-width:0.5;" x1="263" x2="3036" y1="1556" y2="1556"/>
  <line id="Capline-L" style="fill:none;stroke:#27AAE1;opacity:1;stroke-width:0.5;" x1="263" x2="3036" y1="1485.54" y2="1485.54"/>
  <line id="left-margin" style="fill:none;stroke:#00AEEF;stroke-width:0.5;opacity:1.0;" x1="1372.94" x2="1372.94" y1="1030.79" y2="1150.12"/>
  <line id="right-margin" style="fill:none;stroke:#00AEEF;stroke-width:0.5;opacity:1.0;" x1="1526.75" x2="1526.75" y1="1030.79" y2="1150.12"/>
 </g>
 <g id="Symbols">
  <g id="Black-L" transform="matrix(1 0 0 1 2834.05 1556)">
   <path d="M16.084 12.3047Q16.084 15.3054 17.94 17.1719Q19.7961 19.0383 22.7968 19.0383L175.901 19.0383Q178.96 19.0383 180.787 17.1719Q182.614 15.3054 182.614 12.3047L182.614-82.7249Q182.614-85.784 180.787-87.6109Q178.96-89.4377 175.901-89.4377L22.7968-89.4377Q19.7961-89.4377 17.94-87.6109Q16.084-85.784 16.084-82.7249ZM34.493-1.90564L34.493-68.5146Q34.493-71.0287 36.8903-71.0287L161.808-71.0287Q164.205-71.0287 164.205-68.5146L164.205-1.90564Q164.205 0.608509 161.808 0.608509L36.8903 0.608509Q34.493 0.608509 34.493-1.90564ZM42.8003-8.80717Q42.8003-7.73641 43.8711-7.73641L83.9324-7.73641Q80.5267-12.3825 78.6374-19.3681Q76.748-26.3536 76.748-35.2905Q76.748-44.147 78.6368-51.1215Q80.5255-58.0961 83.8508-62.6838L43.8711-62.6838Q42.8003-62.6838 42.8003-61.5922ZM86.2593-35.2905Q86.2593-23.0792 89.9351-16.4146Q93.6108-9.75009 99.0923-9.75009Q104.888-9.75009 108.703-16.4146Q112.518-23.0792 112.518-35.2905Q112.518-47.4811 108.703-54.0866Q104.888-60.6921 99.0923-60.6921Q93.6108-60.6921 89.9351-54.0866Q86.2593-47.4811 86.2593-35.2905ZM114.647-7.73641L154.827-7.73641Q155.898-7.73641 155.898-8.80717L155.898-61.5922Q155.898-62.6838 154.827-62.6838L114.728-62.6838Q118.211-58.0961 120.12-51.1215Q122.029-44.147 122.029-35.2905Q122.029-26.3536 120.081-19.3681Q118.132-12.3825 114.647-7.73641Z"/>
  </g>
  <g id="Heavy-L" transform="matrix(1 0 0 1 2537.52 1556)">
   <path d="M16.084 12.1109Q16.084 14.9213 17.8085 16.6609Q19.533 18.4004 22.3434 18.4004L175.985 18.4004Q178.84 18.4004 180.542 16.6609Q182.244 14.9213 182.244 12.1109L182.244-82.5499Q182.244-85.4049 180.542-87.1071Q178.84-88.8092 175.985-88.8092L22.3434-88.8092Q19.533-88.8092 17.8085-87.1071Q16.084-85.4049 16.084-82.5499ZM32.8211-1.14767L32.8211-69.2913Q32.8211-72.0721 35.5127-72.0721L162.816-72.0721Q165.507-72.0721 165.507-69.2913L165.507-1.14767Q165.507 1.63319 162.816 1.63319L35.5127 1.63319Q32.8211 1.63319 32.8211-1.14767ZM40.6506-7.36143Q40.6506-6.21084 41.8013-6.21084L84.0926-6.21084Q80.2865-10.9378 78.1699-18.3482Q76.0533-25.7586 76.0533-35.2998Q76.0533-44.7607 78.1671-52.1532Q80.2808-59.5457 84.0066-64.2281L41.8013-64.2281Q40.6506-64.2281 40.6506-63.0473ZM84.9836-35.2998Q84.9836-22.4738 88.9299-15.2471Q92.8762-8.02042 98.918-8.02042Q105.248-8.02042 109.334-15.2471Q113.42-22.4738 113.42-35.2998Q113.42-48.0959 109.334-55.2751Q105.248-62.4543 98.918-62.4543Q92.8762-62.4543 88.9299-55.2751Q84.9836-48.0959 84.9836-35.2998ZM114.112-6.21084L156.527-6.21084Q157.678-6.21084 157.678-7.36143L157.678-63.0473Q157.678-64.2281 156.527-64.2281L114.192-64.2281Q118.068-59.5457 120.209-52.1532Q122.35-44.7607 122.35-35.2998Q122.35-25.7586 120.171-18.3482Q117.993-10.9378 114.112-6.21084Z"/>
  </g>
  <g id="Bold-L" transform="matrix(1 0 0 1 2241.32 1556)">
   <path d="M16.084 11.7684Q16.084 14.3257 17.6359 15.8966Q19.1878 17.4674 21.7451 17.4674L175.578 17.4674Q178.165 17.4674 179.702 15.8966Q181.239 14.3257 181.239 11.7684L181.239-82.2229Q181.239-84.8095 179.702-86.3468Q178.165-87.8841 175.578-87.8841L21.7451-87.8841Q19.1878-87.8841 17.6359-86.3468Q16.084-84.8095 16.084-82.2229ZM30.8732-0.366682L30.8732-70.0879Q30.8732-73.0948 33.8218-73.0948L163.502-73.0948Q166.45-73.0948 166.45-70.0879L166.45-0.366682Q166.45 2.64025 163.502 2.64025L33.8218 2.64025Q30.8732 2.64025 30.8732-0.366682ZM38.0291-5.72007Q38.0291-4.50698 39.2425-4.50698L84.1432-4.50698Q79.8304-9.28162 77.4221-17.1699Q75.0139-25.0582 75.0139-35.3076Q75.0139-45.4768 77.4155-53.3394Q79.8171-61.2021 84.0497-65.9476L39.2425-65.9476Q38.0291-65.9476 38.0291-64.6964ZM83.1177-35.3076Q83.1177-21.7805 87.4094-13.9143Q91.701-6.04807 98.4419-6.04807Q105.425-6.04807 109.849-13.9143Q114.273-21.7805 114.273-35.3076Q114.273-48.797 109.849-56.6274Q105.425-64.4577 98.4419-64.4577Q91.701-64.4577 87.4094-56.6274Q83.1177-48.797 83.1177-35.3076ZM113.064-4.50698L158.081-4.50698Q159.294-4.50698 159.294-5.72007L159.294-64.6964Q159.294-65.9476 158.081-65.9476L113.144-65.9476Q117.511-61.2021 119.944-53.3394Q122.377-45.4768 122.377-35.3076Q122.377-25.0582 119.91-17.1699Q117.444-9.28162 113.064-4.50698Z"/>
  </g>
  <g id="Semibold-L" transform="matrix(1 0 0 1 1944.95 1556)">
   <path d="M16.084 11.5322Q16.084 13.9151 17.5169 15.3696Q18.9498 16.8242 21.3327 16.8242L175.298 16.8242Q177.699 16.8242 179.123 15.3696Q180.547 13.9151 180.547 11.5322L180.547-81.9975Q180.547-84.399 179.123-85.8226Q177.699-87.2462 175.298-87.2462L21.3327-87.2462Q18.9498-87.2462 17.5169-85.8226Q16.084-84.399 16.084-81.9975ZM29.5304 0.171726L29.5304-70.637Q29.5304-73.7998 32.656-73.7998L163.975-73.7998Q167.1-73.7998 167.1-70.637L167.1 0.171726Q167.1 3.33452 163.975 3.33452L32.656 3.33452Q29.5304 3.33452 29.5304 0.171726ZM36.2219-4.58852Q36.2219-3.33234 37.4784-3.33234L84.1782-3.33234Q79.516-8.13983 76.9066-16.3576Q74.2973-24.5754 74.2973-35.3129Q74.2973-45.9704 76.8973-54.1572Q79.4974-62.344 84.0795-67.133L37.4784-67.133Q36.2219-67.133 36.2219-65.8333ZM81.8313-35.3129Q81.8313-21.3025 86.3611-12.9954Q90.8909-4.68835 98.1138-4.68835Q105.547-4.68835 110.204-12.9954Q114.861-21.3025 114.861-35.3129Q114.861-49.2804 110.204-57.5596Q105.547-65.8388 98.1138-65.8388Q90.8909-65.8388 86.3611-57.5596Q81.8313-49.2804 81.8313-35.3129ZM112.341-3.33234L159.152-3.33234Q160.409-3.33234 160.409-4.58852L160.409-65.8333Q160.409-67.133 159.152-67.133L112.421-67.133Q117.127-62.344 119.761-54.1572Q122.395-45.9704 122.395-35.3129Q122.395-24.5754 119.73-16.3576Q117.065-8.13983 112.341-3.33234Z"/>
  </g>
  <g id="Medium-L" transform="matrix(1 0 0 1 1648.5 1556)">
   <path d="M16.084 11.3532Q16.084 13.6038 17.4267 14.9701Q18.7693 16.3364 21.02 16.3364L175.085 16.3364Q177.346 16.3364 178.684 14.9701Q180.021 13.6038 180.021 11.3532L180.021-81.8267Q180.021-84.0878 178.684-85.4252Q177.346-86.7626 175.085-86.7626L21.02-86.7626Q18.7693-86.7626 17.4267-85.4252Q16.084-84.0878 16.084-81.8267ZM28.5122 0.579969L28.5122-71.0534Q28.5122-74.3344 31.7722-74.3344L164.333-74.3344Q167.593-74.3344 167.593-71.0534L167.593 0.579969Q167.593 3.86094 164.333 3.86094L31.7722 3.86094Q28.5122 3.86094 28.5122 0.579969ZM34.8516-3.73053Q34.8516-2.44168 36.1408-2.44168L84.2047-2.44168Q79.2776-7.27408 76.5157-15.7417Q73.7539-24.2092 73.7539-35.317Q73.7539-46.3447 76.5044-54.7773Q79.255-63.2099 84.102-68.0318L36.1408-68.0318Q34.8516-68.0318 34.8516-66.6953ZM80.8559-35.317Q80.8559-20.9401 85.5663-12.2987Q90.2766-3.65735 97.8649-3.65735Q105.64-3.65735 110.474-12.2987Q115.308-20.9401 115.308-35.317Q115.308-49.6469 110.474-58.2665Q105.64-66.886 97.8649-66.886Q90.2766-66.886 85.5663-58.2665Q80.8559-49.6469 80.8559-35.317ZM111.793-2.44168L159.965-2.44168Q161.254-2.44168 161.254-3.73053L161.254-66.6953Q161.254-68.0318 159.965-68.0318L111.873-68.0318Q116.836-63.2099 119.623-54.7773Q122.41-46.3447 122.41-35.317Q122.41-24.2092 119.594-15.7417Q116.778-7.27408 111.793-2.44168Z"/>
  </g>
  <g id="Regular-L" transform="matrix(1 0 0 1 1352.13 1556)">
   <path d="M16.084 11.1196Q16.084 13.1977 17.309 14.449Q18.534 15.7003 20.6121 15.7003L174.808 15.7003Q176.886 15.7003 178.111 14.449Q179.336 13.1977 179.336 11.1196L179.336-81.6038Q179.336-83.6818 178.111-84.9068Q176.886-86.1318 174.808-86.1318L20.6121-86.1318Q18.534-86.1318 17.309-84.9068Q16.084-83.6818 16.084-81.6038ZM27.1841 1.11246L27.1841-71.5966Q27.1841-75.0317 30.6192-75.0317L164.801-75.0317Q168.236-75.0317 168.236-71.5966L168.236 1.11246Q168.236 4.54758 164.801 4.54758L30.6192 4.54758Q27.1841 4.54758 27.1841 1.11246ZM33.0642-2.61141Q33.0642-1.27996 34.3961-1.27996L84.2392-1.27996Q78.9666-6.14484 76.0059-14.9383Q73.0452-23.7317 73.0452-35.3222Q73.0452-46.8328 75.992-55.5861Q78.9388-64.3393 84.1314-69.2042L34.3961-69.2042Q33.0642-69.2042 33.0642-67.8197ZM79.5836-35.3222Q79.5836-20.4674 84.5295-11.39Q89.4754-2.31257 97.5403-2.31257Q105.761-2.31257 110.825-11.39Q115.889-20.4674 115.889-35.3222Q115.889-50.125 110.825-59.1885Q105.761-68.252 97.5403-68.252Q89.4754-68.252 84.5295-59.1885Q79.5836-50.125 79.5836-35.3222ZM111.078-1.27996L161.024-1.27996Q162.356-1.27996 162.356-2.61141L162.356-67.8197Q162.356-69.2042 161.024-69.2042L111.158-69.2042Q116.456-64.3393 119.442-55.5861Q122.428-46.8328 122.428-35.3222Q122.428-23.7317 119.416-14.9383Q116.404-6.14484 111.078-1.27996Z"/>
  </g>
  <g id="Light-L" transform="matrix(1 0 0 1 1057.53 1556)">
   <path d="M16.084 10.2228Q16.084 12.0145 17.1277 13.0748Q18.1713 14.1351 19.963 14.1351L171.239 14.1351Q173.031 14.1351 174.075 13.0748Q175.118 12.0145 175.118 10.2228L175.118-80.6687Q175.118-82.4604 174.075-83.5041Q173.031-84.5478 171.239-84.5478L19.963-84.5478Q18.1713-84.5478 17.1277-83.5041Q16.084-82.4604 16.084-80.6687ZM26.6307 0.635324L26.6307-71.0813Q26.6307-74.0011 29.5505-74.0011L161.652-74.0011Q164.572-74.0011 164.572-71.0813L164.572 0.635324Q164.572 3.55515 161.652 3.55515L29.5505 3.55515Q26.6307 3.55515 26.6307 0.635324ZM31.5183-2.43954Q31.5183-1.29919 32.6594-1.29919L83.3231-1.29919Q77.6308-5.8585 74.4028-14.671Q71.1748-23.4835 71.1748-35.303Q71.1748-47.0429 74.3792-55.8152Q77.5837-64.5875 83.1964-69.1468L32.6594-69.1468Q31.5183-69.1468 31.5183-67.9723ZM76.4537-35.303Q76.4537-20.3529 81.7049-11.1992Q86.956-2.04546 95.5362-2.04546Q104.158-2.04546 109.47-11.1992Q114.783-20.3529 114.783-35.303Q114.783-50.2206 109.47-59.3507Q104.158-68.4809 95.5362-68.4809Q86.956-68.4809 81.7049-59.3507Q76.4537-50.2206 76.4537-35.303ZM107.872-1.29919L158.543-1.29919Q159.684-1.29919 159.684-2.43954L159.684-67.9723Q159.684-69.1468 158.543-69.1468L107.952-69.1468Q113.632-64.5875 116.847-55.8152Q120.062-47.0429 120.062-35.303Q120.062-23.4835 116.83-14.671Q113.598-5.8585 107.872-1.29919Z"/>
  </g>
  <g id="Thin-L" transform="matrix(1 0 0 1 763.61 1556)">
   <path d="M16.084 9.03658Q16.084 10.4496 16.8878 11.2574Q17.6917 12.0651 19.1047 12.0651L166.519 12.0651Q167.932 12.0651 168.736 11.2574Q169.54 10.4496 169.54 9.03658L169.54-79.4321Q169.54-80.8451 168.736-81.6489Q167.932-82.4528 166.519-82.4528L19.1047-82.4528Q17.6917-82.4528 16.8878-81.6489Q16.084-80.8451 16.084-79.4321ZM25.8987 0.00427353L25.8987-70.3998Q25.8987-72.6381 28.137-72.6381L157.487-72.6381Q159.725-72.6381 159.725-70.3998L159.725 0.00427353Q159.725 2.24258 157.487 2.24258L28.137 2.24258Q25.8987 2.24258 25.8987 0.00427353ZM29.4738-2.21223Q29.4738-1.32464 30.3626-1.32464L82.1115-1.32464Q75.864-5.47978 72.2825-14.3175Q68.7011-23.1552 68.7011-35.2776Q68.7011-47.3207 72.2463-56.1182Q75.7915-64.9157 81.9597-69.0708L30.3626-69.0708Q29.4738-69.0708 29.4738-68.1742ZM72.3141-35.2776Q72.3141-20.2015 77.969-10.9469Q83.6239-1.69219 92.8856-1.69219Q102.037-1.69219 107.678-10.9469Q113.319-20.2015 113.319-35.2776Q113.319-50.347 107.678-59.5653Q102.037-68.7837 92.8856-68.7837Q83.6239-68.7837 77.969-59.5653Q72.3141-50.347 72.3141-35.2776ZM103.631-1.32464L155.261-1.32464Q156.15-1.32464 156.15-2.21223L156.15-68.1742Q156.15-69.0708 155.261-69.0708L103.712-69.0708Q109.896-64.9157 113.414-56.1182Q116.932-47.3207 116.932-35.2776Q116.932-23.1552 113.41-14.3175Q109.888-5.47978 103.631-1.32464Z"/>
  </g>
  <g id="Ultralight-L" transform="matrix(1 0 0 1 468.328 1556)">
   <path d="M16.084 8.42902Q16.084 9.64805 16.765 10.3265Q17.446 11.0049 18.665 11.0049L164.101 11.0049Q165.32 11.0049 166.001 10.3265Q166.682 9.64805 166.682 8.42902L166.682-78.7987Q166.682-80.0177 166.001-80.6987Q165.32-81.3797 164.101-81.3797L18.665-81.3797Q17.446-81.3797 16.765-80.6987Q16.084-80.0177 16.084-78.7987ZM25.5238-0.318947L25.5238-70.0507Q25.5238-71.9399 27.413-71.9399L155.353-71.9399Q157.243-71.9399 157.243-70.0507L157.243-0.318947Q157.243 1.57029 155.353 1.57029L27.413 1.57029Q25.5238 1.57029 25.5238-0.318947ZM28.4266-2.0958Q28.4266-1.33767 29.1861-1.33767L81.4909-1.33767Q74.9591-5.28581 71.1966-14.1365Q67.434-22.9871 67.434-35.2645Q67.434-47.4629 71.1538-56.2734Q74.8735-65.0838 81.3263-69.032L29.1861-69.032Q28.4266-69.032 28.4266-68.2776ZM70.1939-35.2645Q70.1939-20.124 76.0555-10.8176Q81.9172-1.51125 91.528-1.51125Q100.951-1.51125 106.76-10.8176Q112.569-20.124 112.569-35.2645Q112.569-50.4117 106.76-59.6752Q100.951-68.9388 91.528-68.9388Q81.9172-68.9388 76.0555-59.6752Q70.1939-50.4117 70.1939-35.2645ZM101.459-1.33767L153.58-1.33767Q154.34-1.33767 154.34-2.0958L154.34-68.2776Q154.34-69.032 153.58-69.032L101.54-69.032Q107.982-65.0838 111.655-56.2734Q115.329-47.4629 115.329-35.2645Q115.329-22.9871 111.658-14.1365Q107.987-5.28581 101.459-1.33767Z"/>
  </g>
  <g id="Black-M" transform="matrix(1 0 0 1 2856.56 1126)">
   <path d="M12.4609 1.64224Q12.4609 4.0918 13.9874 5.621Q15.5138 7.1502 17.9634 7.1502L135.722 7.1502Q138.229 7.1502 139.727 5.621Q141.225 4.0918 141.225 1.64224L141.225-72.0499Q141.225-74.5566 139.727-76.0545Q138.229-77.5524 135.722-77.5524L17.9634-77.5524Q15.5138-77.5524 13.9874-76.0545Q12.4609-74.5566 12.4609-72.0499ZM28.085-10.1282L28.085-60.2795Q28.085-61.9283 29.6196-61.9283L124.066-61.9283Q125.601-61.9283 125.601-60.2795L125.601-10.1282Q125.601-8.47939 124.066-8.47939L29.6196-8.47939Q28.085-8.47939 28.085-10.1282ZM34.7972-15.9782Q34.7972-15.2432 35.5323-15.2432L64.7642-15.2432Q62.4128-18.7318 61.1082-23.7812Q59.8036-28.8307 59.8036-35.2661Q59.8036-41.6392 61.1084-46.6861Q62.4131-51.733 64.7021-55.1645L35.5323-55.1645Q34.7972-55.1645 34.7972-54.4239ZM67.501-35.2661Q67.501-26.3209 70.1576-21.6304Q72.8143-16.9399 76.6493-16.9399Q80.7352-16.9399 83.4913-21.6304Q86.2475-26.3209 86.2475-35.2661Q86.2475-44.2058 83.4913-48.8394Q80.7352-53.473 76.6493-53.473Q72.8143-53.473 70.1576-48.8394Q67.501-44.2058 67.501-35.2661ZM88.8476-15.2432L118.154-15.2432Q118.889-15.2432 118.889-15.9782L118.889-54.4239Q118.889-55.1645 118.154-55.1645L88.9099-55.1645Q91.3241-51.733 92.6345-46.6861Q93.9449-41.6392 93.9449-35.2661Q93.9449-28.8307 92.6032-23.7812Q91.2615-18.7318 88.8476-15.2432Z"/>
  </g>
  <g id="Heavy-M" transform="matrix(1 0 0 1 2559.83 1126)">
   <path d="M12.4609 1.53556Q12.4609 3.82549 13.8755 5.24826Q15.2901 6.67103 17.58 6.67103L136.134 6.67103Q138.467 6.67103 139.86 5.24826Q141.253 3.82549 141.253 1.53556L141.253-71.9651Q141.253-74.2986 139.86-75.6914Q138.467-77.0841 136.134-77.0841L17.58-77.0841Q15.2901-77.0841 13.8755-75.6914Q12.4609-74.2986 12.4609-71.9651ZM26.5017-9.34319L26.5017-61.0863Q26.5017-63.0434 28.3715-63.0434L125.342-63.0434Q127.212-63.0434 127.212-61.0863L127.212-9.34319Q127.212-7.38614 125.342-7.38614L28.3715-7.38614Q26.5017-7.38614 26.5017-9.34319ZM32.8384-14.5808Q32.8384-13.7501 33.6692-13.7501L65.0053-13.7501Q62.3013-17.3459 60.7991-22.8089Q59.297-28.272 59.297-35.277Q59.297-42.2198 60.798-47.6735Q62.299-53.1272 64.9407-56.6794L33.6692-56.6794Q32.8384-56.6794 32.8384-55.8323ZM66.5427-35.277Q66.5427-25.7397 69.4356-20.5066Q72.3285-15.2736 76.6637-15.2736Q81.2345-15.2736 84.2328-20.5066Q87.2311-25.7397 87.2311-35.277Q87.2311-44.7981 84.2328-49.9863Q81.2345-55.1745 76.6637-55.1745Q72.3285-55.1745 69.4356-49.9863Q66.5427-44.7981 66.5427-35.277ZM88.6201-13.7501L120.045-13.7501Q120.875-13.7501 120.875-14.5808L120.875-55.8323Q120.875-56.6794 120.045-56.6794L88.6824-56.6794Q91.4442-53.1272 92.9605-47.6735Q94.4767-42.2198 94.4767-35.277Q94.4767-28.272 92.9305-22.8089Q91.3842-17.3459 88.6201-13.7501Z"/>
  </g>
  <g id="Bold-M" transform="matrix(1 0 0 1 2263.11 1126)">
   <path d="M12.4609 1.41623Q12.4609 3.52758 13.7504 4.83129Q15.0398 6.135 17.1511 6.135L136.594 6.135Q138.734 6.135 140.009 4.83129Q141.284 3.52758 141.284 1.41623L141.284-71.8702Q141.284-74.0101 140.009-75.2852Q138.734-76.5603 136.594-76.5603L17.1511-76.5603Q15.0398-76.5603 13.7504-75.2852Q12.4609-74.0101 12.4609-71.8702ZM24.7305-8.46507L24.7305-61.9889Q24.7305-64.2907 26.9753-64.2907L126.769-64.2907Q129.014-64.2907 129.014-61.9889L129.014-8.46507Q129.014-6.16319 126.769-6.16319L26.9753-6.16319Q24.7305-6.16319 24.7305-8.46507ZM30.6472-13.0175Q30.6472-12.0798 31.585-12.0798L65.2749-12.0798Q62.1764-15.7957 60.4534-21.7213Q58.7303-27.6469 58.7303-35.2892Q58.7303-42.8693 60.4508-48.7781Q62.1713-54.6868 65.2076-58.3741L31.585-58.3741Q30.6472-58.3741 30.6472-57.4077ZM65.4707-35.2892Q65.4707-25.0894 68.6279-19.2496Q71.7851-13.4097 76.6799-13.4097Q81.7932-13.4097 85.0623-19.2496Q88.3313-25.0894 88.3313-35.2892Q88.3313-45.4605 85.0623-51.2692Q81.7932-57.078 76.6799-57.078Q71.7851-57.078 68.6279-51.2692Q65.4707-45.4605 65.4707-35.2892ZM88.3657-12.0798L122.16-12.0798Q123.098-12.0798 123.098-13.0175L123.098-57.4077Q123.098-58.3741 122.16-58.3741L88.428-58.3741Q91.5786-54.6868 93.3252-48.7781Q95.0717-42.8693 95.0717-35.2892Q95.0717-27.6469 93.2966-21.7213Q91.5215-15.7957 88.3657-12.0798Z"/>
  </g>
  <g id="Semibold-M" transform="matrix(1 0 0 1 1966.38 1126)">
   <path d="M12.4609 1.33396Q12.4609 3.3222 13.6641 4.54383Q14.8672 5.76547 16.8555 5.76547L136.911 5.76547Q138.917 5.76547 140.111 4.54383Q141.305 3.3222 141.305 1.33396L141.305-71.8047Q141.305-73.8111 140.111-75.0052Q138.917-76.1993 136.911-76.1993L16.8555-76.1993Q14.8672-76.1993 13.6641-75.0052Q12.4609-73.8111 12.4609-71.8047ZM23.5095-7.8597L23.5095-62.6111Q23.5095-65.1507 26.0128-65.1507L127.753-65.1507Q130.257-65.1507 130.257-62.6111L130.257-7.8597Q130.257-5.32009 127.753-5.32009L26.0128-5.32009Q23.5095-5.32009 23.5095-7.8597ZM29.1366-11.9398Q29.1366-10.9283 30.1482-10.9283L65.4609-10.9283Q62.0904-14.7269 60.215-20.9715Q58.3396-27.216 58.3396-35.2976Q58.3396-43.3171 60.2114-49.5395Q62.0832-55.762 65.3915-59.5425L30.1482-59.5425Q29.1366-59.5425 29.1366-58.4938ZM64.7316-35.2976Q64.7316-24.6411 68.0711-18.383Q71.4105-12.1248 76.6911-12.1248Q82.1783-12.1248 85.6341-18.383Q89.0899-24.6411 89.0899-35.2976Q89.0899-45.9172 85.6341-52.1537Q82.1783-58.3902 76.6911-58.3902Q71.4105-58.3902 68.0711-52.1537Q64.7316-45.9172 64.7316-35.2976ZM88.1904-10.9283L123.618-10.9283Q124.63-10.9283 124.63-11.9398L124.63-58.4938Q124.63-59.5425 123.618-59.5425L88.2527-59.5425Q91.6713-55.762 93.5766-49.5395Q95.4819-43.3171 95.4819-35.2976Q95.4819-27.216 93.549-20.9715Q91.6161-14.7269 88.1904-10.9283Z"/>
  </g>
  <g id="Medium-M" transform="matrix(1 0 0 1 1669.66 1126)">
   <path d="M12.4609 1.27158Q12.4609 3.16647 13.5987 4.32587Q14.7364 5.48527 16.6313 5.48527L137.151 5.48527Q139.056 5.48527 140.189 4.32587Q141.322 3.16647 141.322 1.27158L141.322-71.7551Q141.322-73.6603 140.189-74.7929Q139.056-75.9255 137.151-75.9255L16.6313-75.9255Q14.7364-75.9255 13.5987-74.7929Q12.4609-73.6603 12.4609-71.7551ZM22.5837-7.40068L22.5837-63.0829Q22.5837-65.8027 25.283-65.8027L128.5-65.8027Q131.199-65.8027 131.199-63.0829L131.199-7.40068Q131.199-4.68082 128.5-4.68082L25.283-4.68082Q22.5837-4.68082 22.5837-7.40068ZM27.9912-11.1227Q27.9912-10.0552 29.0588-10.0552L65.6018-10.0552Q62.0251-13.9166 60.0343-20.4029Q58.0434-26.8893 58.0434-35.304Q58.0434-43.6566 60.0299-50.1169Q62.0164-56.5773 65.531-60.4283L29.0588-60.4283Q27.9912-60.4283 27.9912-59.3173ZM64.1713-35.304Q64.1713-24.3013 67.6489-17.7258Q71.1265-11.1504 76.6996-11.1504Q82.4703-11.1504 86.0676-17.7258Q89.665-24.3013 89.665-35.304Q89.665-46.2635 86.0676-52.8243Q82.4703-59.3851 76.6996-59.3851Q71.1265-59.3851 67.6489-52.8243Q64.1713-46.2635 64.1713-35.304ZM88.0574-10.0552L124.724-10.0552Q125.791-10.0552 125.791-11.1227L125.791-59.3173Q125.791-60.4283 124.724-60.4283L88.1197-60.4283Q91.7415-56.5773 93.7672-50.1169Q95.7929-43.6566 95.7929-35.304Q95.7929-26.8893 93.7404-20.4029Q91.6879-13.9166 88.0574-10.0552Z"/>
  </g>
  <g id="Regular-M" transform="matrix(1 0 0 1 1372.94 1126)">
   <path d="M12.4609 1.19021Q12.4609 2.96335 13.5133 4.04158Q14.5657 5.1198 16.3389 5.1198L137.465 5.1198Q139.238 5.1198 140.29 4.04158Q141.343 2.96335 141.343 1.19021L141.343-71.6904Q141.343-73.4635 140.29-74.5159Q139.238-75.5683 137.465-75.5683L16.3389-75.5683Q14.5657-75.5683 13.5133-74.5159Q12.4609-73.4635 12.4609-71.6904ZM21.3761-6.80196L21.3761-63.6982Q21.3761-66.6532 24.331-66.6532L129.473-66.6532Q132.428-66.6532 132.428-63.6982L132.428-6.80196Q132.428-3.84699 129.473-3.84699L24.331-3.84699Q21.3761-3.84699 21.3761-6.80196ZM26.4971-10.0568Q26.4971-8.9164 27.6378-8.9164L65.7857-8.9164Q61.94-12.8596 59.7985-19.6613Q57.657-26.4631 57.657-35.3123Q57.657-44.0994 59.7932-50.87Q61.9294-57.6406 65.713-61.5838L27.6378-61.5838Q26.4971-61.5838 26.4971-60.3915ZM63.4404-35.3123Q63.4404-23.8579 67.0982-16.8687Q70.756-9.87958 76.7106-9.87958Q82.8511-9.87958 86.6332-16.8687Q90.4152-23.8579 90.4152-35.3123Q90.4152-46.7152 86.6332-53.6991Q82.8511-60.6829 76.7106-60.6829Q70.756-60.6829 67.0982-53.6991Q63.4404-46.7152 63.4404-35.3123ZM87.8839-8.9164L126.166-8.9164Q127.307-8.9164 127.307-10.0568L127.307-60.3915Q127.307-61.5838 126.166-61.5838L87.9462-61.5838Q91.8332-57.6406 94.0159-50.87Q96.1986-44.0994 96.1986-35.3123Q96.1986-26.4631 93.99-19.6613Q91.7815-12.8596 87.8839-8.9164Z"/>
  </g>
  <g id="Light-M" transform="matrix(1 0 0 1 1078.12 1126)">
   <path d="M12.4609 0.386117Q12.4609 1.90254 13.3508 2.80956Q14.2406 3.71659 15.757 3.71659L134.265 3.71659Q135.782 3.71659 136.671 2.80956Q137.561 1.90254 137.561 0.386117L137.561-70.8521Q137.561-72.3685 136.671-73.2583Q135.782-74.1482 134.265-74.1482L15.757-74.1482Q14.2406-74.1482 13.3508-73.2583Q12.4609-72.3685 12.4609-70.8521ZM20.8799-7.22974L20.8799-63.2362Q20.8799-65.7292 23.3728-65.7292L126.649-65.7292Q129.142-65.7292 129.142-63.2362L129.142-7.22974Q129.142-4.73676 126.649-4.73676L23.3728-4.73676Q20.8799-4.73676 20.8799-7.22974ZM25.1112-9.90275Q25.1112-8.93365 26.0807-8.93365L64.9644-8.93365Q60.7423-12.6028 58.3612-19.4217Q55.9801-26.2406 55.9801-35.2951Q55.9801-44.2877 58.3473-51.0754Q60.7145-57.8631 64.8747-61.5323L26.0807-61.5323Q25.1112-61.5323 25.1112-60.5284ZM60.6342-35.2951Q60.6342-23.7553 64.5657-16.6977Q68.4973-9.64011 74.9138-9.64011Q81.4137-9.64011 85.4183-16.6977Q89.4228-23.7553 89.4228-35.2951Q89.4228-46.8009 85.4183-53.8445Q81.4137-60.8882 74.9138-60.8882Q68.4973-60.8882 64.5657-53.8445Q60.6342-46.8009 60.6342-35.2951ZM85.0094-8.93365L123.941-8.93365Q124.911-8.93365 124.911-9.90275L124.911-60.5284Q124.911-61.5323 123.941-61.5323L85.0717-61.5323Q89.3007-57.8631 91.6888-51.0754Q94.0769-44.2877 94.0769-35.2951Q94.0769-26.2406 91.6716-19.4217Q89.2663-12.6028 85.0094-8.93365Z"/>
  </g>
  <g id="Thin-M" transform="matrix(1 0 0 1 783.912 1126)">
   <path d="M12.4609-0.677363Q12.4609 0.499519 13.1357 1.18013Q13.8105 1.86073 14.9874 1.86073L130.033 1.86073Q131.21 1.86073 131.885 1.18013Q132.56 0.499519 132.56-0.677363L132.56-69.7434Q132.56-70.9203 131.885-71.5951Q131.21-72.2699 130.033-72.2699L14.9874-72.2699Q13.8105-72.2699 13.1357-71.5951Q12.4609-70.9203 12.4609-69.7434ZM20.2236-7.79551L20.2236-62.6252Q20.2236-64.5072 22.1056-64.5072L122.915-64.5072Q124.797-64.5072 124.797-62.6252L124.797-7.79551Q124.797-5.91354 122.915-5.91354L22.1056-5.91354Q20.2236-5.91354 20.2236-7.79551ZM23.2781-9.69895Q23.2781-8.95646 24.0215-8.95646L63.8781-8.95646Q59.1583-12.2633 56.4603-19.1048Q53.7623-25.9463 53.7623-35.2723Q53.7623-44.5368 56.435-51.3471Q59.1076-58.1574 63.7659-61.4643L24.0215-61.4643Q23.2781-61.4643 23.2781-60.7093ZM56.9229-35.2723Q56.9229-23.6195 61.2164-16.4715Q65.5099-9.32338 72.5375-9.32338Q79.5126-9.32338 83.8115-16.4715Q88.1103-23.6195 88.1103-35.2723Q88.1103-46.9142 83.8115-54.0369Q79.5126-61.1597 72.5375-61.1597Q65.5099-61.1597 61.2164-54.0369Q56.9229-46.9142 56.9229-35.2723ZM81.2075-8.95646L120.999-8.95646Q121.743-8.95646 121.743-9.69895L121.743-60.7093Q121.743-61.4643 120.999-61.4643L81.2698-61.4643Q85.9513-58.1574 88.6111-51.3471Q91.2709-44.5368 91.2709-35.2723Q91.2709-25.9463 88.6053-19.1048Q85.9397-12.2633 81.2075-8.95646Z"/>
  </g>
  <g id="Ultralight-M" transform="matrix(1 0 0 1 488.482 1126)">
   <path d="M12.4609-1.22207Q12.4609-0.219099 13.0256 0.345535Q13.5903 0.910168 14.5933 0.910168L127.866 0.910168Q128.869 0.910168 129.433 0.345535Q129.998-0.219099 129.998-1.22207L129.998-69.1755Q129.998-70.1785 129.433-70.7431Q128.869-71.3078 127.866-71.3078L14.5933-71.3078Q13.5903-71.3078 13.0256-70.7431Q12.4609-70.1785 12.4609-69.1755ZM19.8875-8.08529L19.8875-62.3123Q19.8875-63.8813 21.4565-63.8813L121.003-63.8813Q122.572-63.8813 122.572-62.3123L122.572-8.08529Q122.572-6.51628 121.003-6.51628L21.4565-6.51628Q19.8875-6.51628 19.8875-8.08529ZM22.3393-9.59456Q22.3393-8.96815 22.9667-8.96815L63.3217-8.96815Q58.347-12.0894 55.4867-18.9425Q52.6263-25.7955 52.6263-35.2606Q52.6263-44.6643 55.4555-51.4862Q58.2846-58.3082 63.198-61.4294L22.9667-61.4294Q22.3393-61.4294 22.3393-60.802ZM55.022-35.2606Q55.022-23.55 59.5008-16.3556Q63.9797-9.16116 71.3203-9.16116Q78.5389-9.16116 82.9885-16.3556Q87.438-23.55 87.438-35.2606Q87.438-46.9722 82.9885-54.1355Q78.5389-61.2987 71.3203-61.2987Q63.9797-61.2987 59.5008-54.1355Q55.022-46.9722 55.022-35.2606ZM79.2603-8.96815L119.492-8.96815Q120.12-8.96815 120.12-9.59456L120.12-60.802Q120.12-61.4294 119.492-61.4294L79.3226-61.4294Q84.2358-58.3082 87.0347-51.4862Q89.8337-44.6643 89.8337-35.2606Q89.8337-25.7955 87.0348-18.9425Q84.2359-12.0894 79.2603-8.96815Z"/>
  </g>
  <g id="Black-S" transform="matrix(1 0 0 1 2873.29 696)">
   <path d="M9.76562-6.34766Q9.76562-4.39453 10.9863-3.17383Q12.207-1.95312 14.1602-1.95312L106.055-1.95312Q108.057-1.95312 109.253-3.17383Q110.449-4.39453 110.449-6.34766L110.449-64.0625Q110.449-66.0645 109.253-67.2607Q108.057-68.457 106.055-68.457L14.1602-68.457Q12.207-68.457 10.9863-67.2607Q9.76562-66.0645 9.76562-64.0625ZM22.4609-15.8203L22.4609-54.5898Q22.4609-55.7617 23.5352-55.7617L96.6797-55.7617Q97.7539-55.7617 97.7539-54.5898L97.7539-15.8203Q97.7539-14.6484 96.6797-14.6484L23.5352-14.6484Q22.4609-14.6484 22.4609-15.8203ZM27.7832-20.5566Q27.7832-20.0195 28.3203-20.0195L50.6348-20.0195Q48.877-22.7051 47.9004-26.5381Q46.9238-30.3711 46.9238-35.2539Q46.9238-40.0879 47.9004-43.9209Q48.877-47.7539 50.5859-50.3906L28.3203-50.3906Q27.7832-50.3906 27.7832-49.8535ZM53.0273-35.2539Q53.0273-28.418 55.0537-24.9023Q57.0801-21.3867 59.9609-21.3867Q63.0371-21.3867 65.1367-24.9023Q67.2363-28.418 67.2363-35.2539Q67.2363-42.0898 65.1367-45.5566Q63.0371-49.0234 59.9609-49.0234Q57.0801-49.0234 55.0537-45.5566Q53.0273-42.0898 53.0273-35.2539ZM69.5312-20.0195L91.8945-20.0195Q92.4316-20.0195 92.4316-20.5566L92.4316-49.8535Q92.4316-50.3906 91.8945-50.3906L69.5801-50.3906Q71.3867-47.7539 72.3633-43.9209Q73.3398-40.0879 73.3398-35.2539Q73.3398-30.3711 72.3389-26.5381Q71.3379-22.7051 69.5312-20.0195Z"/>
  </g>
  <g id="Heavy-S" transform="matrix(1 0 0 1 2576.33 696)">
   <path d="M9.76562-6.33613Q9.76562-4.48673 10.9114-3.33517Q12.0572-2.18361 13.9066-2.18361L106.815-2.18361Q108.702-2.18361 109.829-3.33517Q110.956-4.48673 110.956-6.33613L110.956-64.0971Q110.956-65.9838 109.829-67.1109Q108.702-68.2381 106.815-68.2381L13.9066-68.2381Q12.0572-68.2381 10.9114-67.1109Q9.76562-65.9838 9.76562-64.0971ZM21.1702-15.0943L21.1702-55.3389Q21.1702-56.8335 22.5902-56.8335L98.1318-56.8335Q99.5517-56.8335 99.5517-55.3389L99.5517-15.0943Q99.5517-13.5997 98.1318-13.5997L22.5902-13.5997Q21.1702-13.5997 21.1702-15.0943ZM26.285-19.3811Q26.285-18.7403 26.9259-18.7403L50.9459-18.7403Q48.9346-21.5526 47.8197-25.7371Q46.7049-29.9216 46.7049-35.2654Q46.7049-40.5604 47.8197-44.7391Q48.9346-48.9179 50.8971-51.6929L26.9259-51.6929Q26.285-51.6929 26.285-51.0405ZM52.5664-35.2654Q52.5664-27.9339 54.7598-23.9631Q56.9533-19.9923 60.203-19.9923Q63.6479-19.9923 65.9261-23.9631Q68.2044-27.9339 68.2044-35.2654Q68.2044-42.5854 65.9261-46.5189Q63.6479-50.4525 60.203-50.4525Q56.9533-50.4525 54.7598-46.5189Q52.5664-42.5854 52.5664-35.2654ZM69.7041-18.7403L93.7961-18.7403Q94.4369-18.7403 94.4369-19.3811L94.4369-51.0405Q94.4369-51.6929 93.7961-51.6929L69.7529-51.6929Q71.8131-48.9179 72.9395-44.7391Q74.0659-40.5604 74.0659-35.2654Q74.0659-29.9216 72.9151-25.7371Q71.7643-21.5526 69.7041-18.7403Z"/>
  </g>
  <g id="Bold-S" transform="matrix(1 0 0 1 2279.33 696)">
   <path d="M9.76562-6.32324Q9.76562-4.58984 10.8276-3.51562Q11.8896-2.44141 13.623-2.44141L107.666-2.44141Q109.424-2.44141 110.474-3.51562Q111.523-4.58984 111.523-6.32324L111.523-64.1357Q111.523-65.8936 110.474-66.9434Q109.424-67.9932 107.666-67.9932L13.623-67.9932Q11.8896-67.9932 10.8276-66.9434Q9.76562-65.8936 9.76562-64.1357ZM19.7266-14.2822L19.7266-56.1768Q19.7266-58.0322 21.5332-58.0322L99.7559-58.0322Q101.562-58.0322 101.562-56.1768L101.562-14.2822Q101.562-12.4268 99.7559-12.4268L21.5332-12.4268Q19.7266-12.4268 19.7266-14.2822ZM24.6094-18.0664Q24.6094-17.3096 25.3662-17.3096L51.2939-17.3096Q48.999-20.2637 47.7295-24.8413Q46.46-29.4189 46.46-35.2783Q46.46-41.0889 47.7295-45.6543Q48.999-50.2197 51.2451-53.1494L25.3662-53.1494Q24.6094-53.1494 24.6094-52.3682ZM52.0508-35.2783Q52.0508-27.3926 54.4312-22.9126Q56.8115-18.4326 60.4736-18.4326Q64.3311-18.4326 66.8091-22.9126Q69.2871-27.3926 69.2871-35.2783Q69.2871-43.1396 66.8091-47.5952Q64.3311-52.0508 60.4736-52.0508Q56.8115-52.0508 54.4312-47.5952Q52.0508-43.1396 52.0508-35.2783ZM69.8975-17.3096L95.9229-17.3096Q96.6797-17.3096 96.6797-18.0664L96.6797-52.3682Q96.6797-53.1494 95.9229-53.1494L69.9463-53.1494Q72.29-50.2197 73.584-45.6543Q74.8779-41.0889 74.8779-35.2783Q74.8779-29.4189 73.5596-24.8413Q72.2412-20.2637 69.8975-17.3096Z"/>
  </g>
  <g id="Semibold-S" transform="matrix(1 0 0 1 1982.43 696)">
   <path d="M9.76562-6.31436Q9.76562-4.66094 10.7699-3.64004Q11.7741-2.61914 13.4275-2.61914L108.253-2.61914Q109.921-2.61914 110.918-3.64004Q111.914-4.66094 111.914-6.31436L111.914-64.1624Q111.914-65.8313 110.918-66.8278Q109.921-67.8243 108.253-67.8243L13.4275-67.8243Q11.7741-67.8243 10.7699-66.8278Q9.76562-65.8313 9.76562-64.1624ZM18.7312-13.7224L18.7312-56.7544Q18.7312-58.8587 20.8045-58.8587L100.876-58.8587Q102.949-58.8587 102.949-56.7544L102.949-13.7224Q102.949-11.6181 100.876-11.6181L20.8045-11.6181Q18.7312-11.6181 18.7312-13.7224ZM23.4541-17.16Q23.4541-16.3231 24.2909-16.3231L51.5339-16.3231Q49.0435-19.375 47.6673-24.2237Q46.2911-29.0724 46.2911-35.2872Q46.2911-41.4532 47.6673-46.2853Q49.0435-51.1173 51.4851-54.1536L24.2909-54.1536Q23.4541-54.1536 23.4541-53.2835ZM51.6953-35.2872Q51.6953-27.0193 54.2045-22.1883Q56.7138-17.3573 60.6603-17.3573Q64.8021-17.3573 67.4178-22.1883Q70.0336-27.0193 70.0336-35.2872Q70.0336-43.5218 67.4178-48.3373Q64.8021-53.1527 60.6603-53.1527Q56.7138-53.1527 54.2045-48.3373Q51.6953-43.5218 51.6953-35.2872ZM70.0308-16.3231L97.3892-16.3231Q98.226-16.3231 98.226-17.16L98.226-53.2835Q98.226-54.1536 97.3892-54.1536L70.0796-54.1536Q72.6188-51.1173 74.0283-46.2853Q75.4378-41.4532 75.4378-35.2872Q75.4378-29.0724 74.0039-24.2237Q72.57-19.375 70.0308-16.3231Z"/>
  </g>
  <g id="Medium-S" transform="matrix(1 0 0 1 1685.57 696)">
   <path d="M9.76562-6.30762Q9.76562-4.71484 10.7261-3.73438Q11.6865-2.75391 13.2793-2.75391L108.697-2.75391Q110.299-2.75391 111.255-3.73438Q112.211-4.71484 112.211-6.30762L112.211-64.1826Q112.211-65.7842 111.255-66.7402Q110.299-67.6963 108.697-67.6963L13.2793-67.6963Q11.6865-67.6963 10.7261-66.7402Q9.76562-65.7842 9.76562-64.1826ZM17.9766-13.2979L17.9766-57.1924Q17.9766-59.4854 20.252-59.4854L101.725-59.4854Q104-59.4854 104-57.1924L104-13.2979Q104-11.0049 101.725-11.0049L20.252-11.0049Q17.9766-11.0049 17.9766-13.2979ZM22.5781-16.4727Q22.5781-15.5752 23.4756-15.5752L51.7158-15.5752Q49.0771-18.7012 47.6201-23.7554Q46.1631-28.8096 46.1631-35.2939Q46.1631-41.7295 47.6201-46.7637Q49.0771-51.7979 51.667-54.915L23.4756-54.915Q22.5781-54.915 22.5781-53.9775ZM51.4258-35.2939Q51.4258-26.7363 54.0327-21.6392Q56.6396-16.542 60.8018-16.542Q65.1592-16.542 67.8794-21.6392Q70.5996-26.7363 70.5996-35.2939Q70.5996-43.8115 67.8794-48.8999Q65.1592-53.9883 60.8018-53.9883Q56.6396-53.9883 54.0327-48.8999Q51.4258-43.8115 51.4258-35.2939ZM70.1318-15.5752L98.501-15.5752Q99.3984-15.5752 99.3984-16.4727L99.3984-53.9775Q99.3984-54.915 98.501-54.915L70.1807-54.915Q72.8682-51.7979 74.3652-46.7637Q75.8623-41.7295 75.8623-35.2939Q75.8623-28.8096 74.3408-23.7554Q72.8193-18.7012 70.1318-15.5752Z"/>
  </g>
  <g id="Regular-S" transform="matrix(1 0 0 1 1388.66 696)">
   <path d="M9.76562-6.29883Q9.76562-4.78516 10.6689-3.85742Q11.5723-2.92969 13.0859-2.92969L109.277-2.92969Q110.791-2.92969 111.694-3.85742Q112.598-4.78516 112.598-6.29883L112.598-64.209Q112.598-65.7227 111.694-66.626Q110.791-67.5293 109.277-67.5293L13.0859-67.5293Q11.5723-67.5293 10.6689-66.626Q9.76562-65.7227 9.76562-64.209ZM16.9922-12.7441L16.9922-57.7637Q16.9922-60.3027 19.5312-60.3027L102.832-60.3027Q105.371-60.3027 105.371-57.7637L105.371-12.7441Q105.371-10.2051 102.832-10.2051L19.5312-10.2051Q16.9922-10.2051 16.9922-12.7441ZM21.4355-15.5762Q21.4355-14.5996 22.4121-14.5996L51.9531-14.5996Q49.1211-17.8223 47.5586-23.1445Q45.9961-28.4668 45.9961-35.3027Q45.9961-42.0898 47.5586-47.3877Q49.1211-52.6855 51.9043-55.9082L22.4121-55.9082Q21.4355-55.9082 21.4355-54.8828ZM51.0742-35.3027Q51.0742-26.3672 53.8086-20.9229Q56.543-15.4785 60.9863-15.4785Q65.625-15.4785 68.4814-20.9229Q71.3379-26.3672 71.3379-35.3027Q71.3379-44.1895 68.4814-49.6338Q65.625-55.0781 60.9863-55.0781Q56.543-55.0781 53.8086-49.6338Q51.0742-44.1895 51.0742-35.3027ZM70.2637-14.5996L99.9512-14.5996Q100.928-14.5996 100.928-15.5762L100.928-54.8828Q100.928-55.9082 99.9512-55.9082L70.3125-55.9082Q73.1934-52.6855 74.8047-47.3877Q76.416-42.0898 76.416-35.3027Q76.416-28.4668 74.7803-23.1445Q73.1445-17.8223 70.2637-14.5996Z"/>
  </g>
  <g id="Light-S" transform="matrix(1 0 0 1 1093.62 696)">
   <path d="M9.76562-7.01014Q9.76562-5.72357 10.5251-4.94728Q11.2846-4.17099 12.5712-4.17099L106.447-4.17099Q107.733-4.17099 108.493-4.94728Q109.252-5.72357 109.252-7.01014L109.252-63.4674Q109.252-64.754 108.493-65.5135Q107.733-66.273 106.447-66.273L12.5712-66.273Q11.2846-66.273 10.5251-65.5135Q9.76562-64.754 9.76562-63.4674ZM16.5532-13.1226L16.5532-57.355Q16.5532-59.4854 18.6836-59.4854L100.334-59.4854Q102.465-59.4854 102.465-57.355L102.465-13.1226Q102.465-10.9922 100.334-10.9922L18.6836-10.9922Q16.5532-10.9922 16.5532-13.1226ZM20.2095-15.4399Q20.2095-14.6149 21.0347-14.6149L51.2266-14.6149Q48.0616-17.5952 46.2872-22.9326Q44.5127-28.27 44.5127-35.2875Q44.5127-42.2564 46.2795-47.5694Q48.0464-52.8824 51.1627-55.8627L21.0347-55.8627Q20.2095-55.8627 20.2095-55.0039ZM48.5919-35.2875Q48.5919-26.2764 51.5683-20.7715Q54.5448-15.2667 59.3969-15.2667Q64.3534-15.2667 67.4067-20.7715Q70.46-26.2764 70.46-35.2875Q70.46-44.2652 67.4067-49.7625Q64.3534-55.2597 59.3969-55.2597Q54.5448-55.2597 51.5683-49.7625Q48.5919-44.2652 48.5919-35.2875ZM67.7208-14.6149L97.9833-14.6149Q98.8085-14.6149 98.8085-15.4399L98.8085-55.0039Q98.8085-55.8627 97.9833-55.8627L67.7696-55.8627Q70.9531-52.8824 72.7461-47.5694Q74.5392-42.2564 74.5392-35.2875Q74.5392-28.27 72.7294-22.9326Q70.9195-17.5952 67.7208-14.6149Z"/>
  </g>
  <g id="Thin-S" transform="matrix(1 0 0 1 799.125 696)">
   <path d="M9.76562-7.95091Q9.76562-6.9647 10.3349-6.38871Q10.9042-5.81271 11.8904-5.81271L102.703-5.81271Q103.689-5.81271 104.259-6.38871Q104.828-6.9647 104.828-7.95091L104.828-62.4866Q104.828-63.4728 104.259-64.0421Q103.689-64.6114 102.703-64.6114L11.8904-64.6114Q10.9042-64.6114 10.3349-64.0421Q9.76562-63.4728 9.76562-62.4866ZM15.9727-13.623L15.9727-56.8145Q15.9727-58.4043 17.5626-58.4043L97.0311-58.4043Q98.621-58.4043 98.621-56.8145L98.621-13.623Q98.621-12.0332 97.0311-12.0332L17.5626-12.0332Q15.9727-12.0332 15.9727-13.623ZM18.588-15.2596Q18.588-14.635 19.2131-14.635L50.2656-14.635Q46.6604-17.2948 44.6056-22.6522Q42.5508-28.0096 42.5508-35.2673Q42.5508-42.4767 44.5879-47.8097Q46.625-53.1427 50.1819-55.8025L19.2131-55.8025Q18.588-55.8025 18.588-55.164ZM45.3088-35.2673Q45.3088-26.1563 48.6054-20.5714Q51.9021-14.9865 57.2947-14.9865Q62.6717-14.9865 65.9853-20.5714Q69.2989-26.1563 69.2989-35.2673Q69.2989-44.3655 65.9853-49.9327Q62.6717-55.4999 57.2947-55.4999Q51.9021-55.4999 48.6054-49.9327Q45.3088-44.3655 45.3088-35.2673ZM64.3576-14.635L95.3806-14.635Q96.0057-14.635 96.0057-15.2596L96.0057-55.164Q96.0057-55.8025 95.3806-55.8025L64.4065-55.8025Q67.9902-53.1427 70.0236-47.8097Q72.0569-42.4767 72.0569-35.2673Q72.0569-28.0096 70.0169-22.6522Q67.9768-17.2948 64.3576-14.635Z"/>
  </g>
  <g id="Ultralight-S" transform="matrix(1 0 0 1 503.547 696)">
   <path d="M9.76562-8.43277Q9.76562-7.6004 10.2375-7.127Q10.7094-6.65359 11.5417-6.65359L100.786-6.65359Q101.618-6.65359 102.09-7.127Q102.562-7.6004 102.562-8.43277L102.562-61.9843Q102.562-62.8166 102.09-63.2885Q101.618-63.7604 100.786-63.7604L11.5417-63.7604Q10.7094-63.7604 10.2375-63.2885Q9.76562-62.8166 9.76562-61.9843ZM15.6754-13.8794L15.6754-56.5376Q15.6754-57.8506 16.9884-57.8506L95.3392-57.8506Q96.6522-57.8506 96.6522-56.5376L96.6522-13.8794Q96.6522-12.5664 95.3392-12.5664L16.9884-12.5664Q15.6754-12.5664 15.6754-13.8794ZM17.7574-15.1672Q17.7574-14.6454 18.28-14.6454L49.7734-14.6454Q45.9427-17.141 43.7443-22.5086Q41.5459-27.8763 41.5459-35.257Q41.5459-42.5896 43.7214-47.9328Q45.8969-53.2761 49.6796-55.7716L18.28-55.7716Q17.7574-55.7716 17.7574-55.246ZM43.6272-35.257Q43.6272-26.0948 47.0879-20.4689Q50.5486-14.843 56.218-14.843Q61.8103-14.843 65.2573-20.4689Q68.7042-26.0948 68.7042-35.257Q68.7042-44.4168 65.2573-50.0198Q61.8103-55.6229 56.218-55.6229Q50.5486-55.6229 47.0879-50.0198Q43.6272-44.4168 43.6272-35.257ZM62.635-14.6454L94.0475-14.6454Q94.5702-14.6454 94.5702-15.1672L94.5702-55.246Q94.5702-55.7716 94.0475-55.7716L62.6839-55.7716Q66.4726-53.2761 68.6291-47.9328Q70.7855-42.5896 70.7855-35.257Q70.7855-27.8763 68.6275-22.5086Q66.4696-17.141 62.635-14.6454Z"/>
  </g>
 </g>
</svg>
