<?xml version="1.0" encoding="UTF-8"?>
<!--Generator: Apple Native CoreSVG 175.5-->
<!DOCTYPE svg
PUBLIC "-//W3C//DTD SVG 1.1//EN"
       "http://www.w3.org/Graphics/SVG/1.1/DTD/svg11.dtd">
<svg version="1.1" xmlns="http://www.w3.org/2000/svg" xmlns:xlink="http://www.w3.org/1999/xlink" width="3300" height="2200">
 <!--glyph: "uni100B7F.medium", point size: 100.0, font version: "18.0d9e1", template writer version: "84"-->
 <g id="Notes">
  <rect height="2200" id="artboard" style="fill:white;opacity:1" width="3300" x="0" y="0"/>
  <line style="fill:none;stroke:black;opacity:1;stroke-width:0.5;" x1="263" x2="3036" y1="292" y2="292"/>
  <text style="stroke:none;fill:black;font-family:sans-serif;font-size:13;font-weight:bold;" transform="matrix(1 0 0 1 263 322)">Weight/Scale Variations</text>
  <text style="stroke:none;fill:black;font-family:sans-serif;font-size:13;text-anchor:middle;" transform="matrix(1 0 0 1 559.711 322)">Ultralight</text>
  <text style="stroke:none;fill:black;font-family:sans-serif;font-size:13;text-anchor:middle;" transform="matrix(1 0 0 1 856.422 322)">Thin</text>
  <text style="stroke:none;fill:black;font-family:sans-serif;font-size:13;text-anchor:middle;" transform="matrix(1 0 0 1 1153.13 322)">Light</text>
  <text style="stroke:none;fill:black;font-family:sans-serif;font-size:13;text-anchor:middle;" transform="matrix(1 0 0 1 1449.84 322)">Regular</text>
  <text style="stroke:none;fill:black;font-family:sans-serif;font-size:13;text-anchor:middle;" transform="matrix(1 0 0 1 1746.56 322)">Medium</text>
  <text style="stroke:none;fill:black;font-family:sans-serif;font-size:13;text-anchor:middle;" transform="matrix(1 0 0 1 2043.27 322)">Semibold</text>
  <text style="stroke:none;fill:black;font-family:sans-serif;font-size:13;text-anchor:middle;" transform="matrix(1 0 0 1 2339.98 322)">Bold</text>
  <text style="stroke:none;fill:black;font-family:sans-serif;font-size:13;text-anchor:middle;" transform="matrix(1 0 0 1 2636.69 322)">Heavy</text>
  <text style="stroke:none;fill:black;font-family:sans-serif;font-size:13;text-anchor:middle;" transform="matrix(1 0 0 1 2933.4 322)">Black</text>
  <line style="fill:none;stroke:black;opacity:1;stroke-width:0.5;" x1="263" x2="3036" y1="1903" y2="1903"/>
  <g transform="matrix(1 0 0 1 263 1933)">
   <path d="M9.24805 0.830078Q10.8691 0.830078 12.2949 0.214844Q13.7207-0.400391 14.8096-1.49414Q15.8984-2.58789 16.5186-4.01367Q17.1387-5.43945 17.1387-7.05078Q17.1387-8.66211 16.5186-10.0879Q15.8984-11.5137 14.8047-12.6074Q13.7109-13.7012 12.2852-14.3164Q10.8594-14.9316 9.23828-14.9316Q7.62695-14.9316 6.20117-14.3164Q4.77539-13.7012 3.69141-12.6074Q2.60742-11.5137 1.9873-10.0879Q1.36719-8.66211 1.36719-7.05078Q1.36719-5.43945 1.9873-4.01367Q2.60742-2.58789 3.69629-1.49414Q4.78516-0.400391 6.21094 0.214844Q7.63672 0.830078 9.24805 0.830078ZM9.24805-0.654297Q7.91992-0.654297 6.7627-1.14746Q5.60547-1.64062 4.73145-2.51953Q3.85742-3.39844 3.36426-4.56055Q2.87109-5.72266 2.87109-7.05078Q2.87109-8.37891 3.35938-9.54102Q3.84766-10.7031 4.72168-11.582Q5.5957-12.4609 6.75293-12.9541Q7.91016-13.4473 9.23828-13.4473Q10.5762-13.4473 11.7383-12.9541Q12.9004-12.4609 13.7793-11.582Q14.6582-10.7031 15.1514-9.54102Q15.6445-8.37891 15.6445-7.05078Q15.6445-5.72266 15.1514-4.56055Q14.6582-3.39844 13.7793-2.51953Q12.9004-1.64062 11.7432-1.14746Q10.5859-0.654297 9.24805-0.654297ZM5.6543-7.05078Q5.6543-6.72852 5.85938-6.52832Q6.06445-6.32812 6.40625-6.32812L8.51562-6.32812L8.51562-4.20898Q8.51562-3.88672 8.71094-3.67676Q8.90625-3.4668 9.23828-3.4668Q9.56055-3.4668 9.77051-3.67676Q9.98047-3.88672 9.98047-4.20898L9.98047-6.32812L12.0898-6.32812Q12.4219-6.32812 12.627-6.52832Q12.832-6.72852 12.832-7.05078Q12.832-7.38281 12.627-7.58789Q12.4219-7.79297 12.0898-7.79297L9.98047-7.79297L9.98047-9.90234Q9.98047-10.2344 9.77051-10.4443Q9.56055-10.6543 9.23828-10.6543Q8.90625-10.6543 8.71094-10.4443Q8.51562-10.2344 8.51562-9.90234L8.51562-7.79297L6.40625-7.79297Q6.06445-7.79297 5.85938-7.58789Q5.6543-7.38281 5.6543-7.05078Z"/>
  </g>
  <g transform="matrix(1 0 0 1 281.867 1933)">
   <path d="M11.709 2.91016Q13.75 2.91016 15.5518 2.12891Q17.3535 1.34766 18.7305-0.0292969Q20.1074-1.40625 20.8887-3.20801Q21.6699-5.00977 21.6699-7.05078Q21.6699-9.0918 20.8887-10.8936Q20.1074-12.6953 18.7305-14.0723Q17.3535-15.4492 15.5469-16.2305Q13.7402-17.0117 11.6992-17.0117Q9.6582-17.0117 7.85645-16.2305Q6.05469-15.4492 4.68262-14.0723Q3.31055-12.6953 2.5293-10.8936Q1.74805-9.0918 1.74805-7.05078Q1.74805-5.00977 2.5293-3.20801Q3.31055-1.40625 4.6875-0.0292969Q6.06445 1.34766 7.86621 2.12891Q9.66797 2.91016 11.709 2.91016ZM11.709 1.25Q9.98047 1.25 8.47656 0.605469Q6.97266-0.0390625 5.83496-1.17676Q4.69727-2.31445 4.05762-3.81836Q3.41797-5.32227 3.41797-7.05078Q3.41797-8.7793 4.05762-10.2832Q4.69727-11.7871 5.83008-12.9297Q6.96289-14.0723 8.4668-14.7119Q9.9707-15.3516 11.6992-15.3516Q13.4277-15.3516 14.9365-14.7119Q16.4453-14.0723 17.583-12.9297Q18.7207-11.7871 19.3652-10.2832Q20.0098-8.7793 20.0098-7.05078Q20.0098-5.32227 19.3701-3.81836Q18.7305-2.31445 17.5879-1.17676Q16.4453-0.0390625 14.9414 0.605469Q13.4375 1.25 11.709 1.25ZM7.17773-7.05078Q7.17773-6.69922 7.41211-6.47461Q7.64648-6.25 8.01758-6.25L10.8887-6.25L10.8887-3.36914Q10.8887-2.99805 11.1133-2.76855Q11.3379-2.53906 11.6895-2.53906Q12.0605-2.53906 12.29-2.76855Q12.5195-2.99805 12.5195-3.36914L12.5195-6.25L15.4004-6.25Q15.7715-6.25 16.001-6.47461Q16.2305-6.69922 16.2305-7.05078Q16.2305-7.42188 16.001-7.65137Q15.7715-7.88086 15.4004-7.88086L12.5195-7.88086L12.5195-10.752Q12.5195-11.1328 12.29-11.3623Q12.0605-11.5918 11.6895-11.5918Q11.3379-11.5918 11.1133-11.3574Q10.8887-11.123 10.8887-10.752L10.8887-7.88086L8.01758-7.88086Q7.63672-7.88086 7.40723-7.65137Q7.17773-7.42188 7.17773-7.05078Z"/>
  </g>
  <g transform="matrix(1 0 0 1 305.646 1933)">
   <path d="M14.9707 5.66406Q17.0605 5.66406 18.96 5.01465Q20.8594 4.36523 22.4512 3.19336Q24.043 2.02148 25.2197 0.429688Q26.3965-1.16211 27.0459-3.06641Q27.6953-4.9707 27.6953-7.05078Q27.6953-9.14062 27.0459-11.04Q26.3965-12.9395 25.2197-14.5312Q24.043-16.123 22.4512-17.2998Q20.8594-18.4766 18.9551-19.126Q17.0508-19.7754 14.9609-19.7754Q12.8711-19.7754 10.9717-19.126Q9.07227-18.4766 7.48535-17.2998Q5.89844-16.123 4.72168-14.5312Q3.54492-12.9395 2.90039-11.04Q2.25586-9.14062 2.25586-7.05078Q2.25586-4.9707 2.90527-3.06641Q3.55469-1.16211 4.72656 0.429688Q5.89844 2.02148 7.49023 3.19336Q9.08203 4.36523 10.9814 5.01465Q12.8809 5.66406 14.9707 5.66406ZM14.9707 3.84766Q13.1641 3.84766 11.5283 3.2959Q9.89258 2.74414 8.53516 1.74805Q7.17773 0.751953 6.17676-0.610352Q5.17578-1.97266 4.62891-3.6084Q4.08203-5.24414 4.08203-7.05078Q4.08203-8.86719 4.62891-10.5029Q5.17578-12.1387 6.17188-13.501Q7.16797-14.8633 8.52539-15.8594Q9.88281-16.8555 11.5186-17.4023Q13.1543-17.9492 14.9609-17.9492Q16.7773-17.9492 18.4131-17.4023Q20.0488-16.8555 21.4111-15.8594Q22.7734-14.8633 23.7744-13.501Q24.7754-12.1387 25.3223-10.5029Q25.8691-8.86719 25.8691-7.05078Q25.8691-5.24414 25.3223-3.6084Q24.7754-1.97266 23.7793-0.610352Q22.7832 0.751953 21.4209 1.74805Q20.0586 2.74414 18.4229 3.2959Q16.7871 3.84766 14.9707 3.84766ZM9.19922-7.05078Q9.19922-6.66992 9.45801-6.4209Q9.7168-6.17188 10.1172-6.17188L14.0625-6.17188L14.0625-2.2168Q14.0625-1.81641 14.3115-1.55762Q14.5605-1.29883 14.9512-1.29883Q15.3516-1.29883 15.6104-1.55273Q15.8691-1.80664 15.8691-2.2168L15.8691-6.17188L19.8242-6.17188Q20.2246-6.17188 20.4785-6.4209Q20.7324-6.66992 20.7324-7.05078Q20.7324-7.46094 20.4785-7.71484Q20.2246-7.96875 19.8242-7.96875L15.8691-7.96875L15.8691-11.9141Q15.8691-12.3242 15.6104-12.583Q15.3516-12.8418 14.9512-12.8418Q14.5605-12.8418 14.3115-12.583Q14.0625-12.3242 14.0625-11.9141L14.0625-7.96875L10.1172-7.96875Q9.70703-7.96875 9.45312-7.71484Q9.19922-7.46094 9.19922-7.05078Z"/>
  </g>
  <text style="stroke:none;fill:black;font-family:sans-serif;font-size:13;font-weight:bold;" transform="matrix(1 0 0 1 263 1953)">Design Variations</text>
  <text style="stroke:none;fill:black;font-family:sans-serif;font-size:13;" transform="matrix(1 0 0 1 263 1971)">Symbols are supported in up to nine weights and three scales.</text>
  <text style="stroke:none;fill:black;font-family:sans-serif;font-size:13;" transform="matrix(1 0 0 1 263 1989)">For optimal layout with text and other symbols, vertically align</text>
  <text style="stroke:none;fill:black;font-family:sans-serif;font-size:13;" transform="matrix(1 0 0 1 263 2007)">symbols with the adjacent text.</text>
  <line style="fill:none;stroke:#00AEEF;stroke-width:0.5;opacity:1.0;" x1="776" x2="776" y1="1919" y2="1933"/>
  <g transform="matrix(1 0 0 1 776 1933)">
   <path d="M3.31055 0.15625Q3.70117 0.15625 3.91602-0.00976562Q4.13086-0.175781 4.26758-0.585938L5.52734-4.0332L11.2891-4.0332L12.5488-0.585938Q12.6855-0.175781 12.9004-0.00976562Q13.1152 0.15625 13.4961 0.15625Q13.8867 0.15625 14.1162-0.0585938Q14.3457-0.273438 14.3457-0.644531Q14.3457-0.869141 14.2383-1.17188L9.6582-13.3691Q9.48242-13.8184 9.17969-14.043Q8.87695-14.2676 8.4082-14.2676Q7.5-14.2676 7.17773-13.3789L2.59766-1.16211Q2.49023-0.859375 2.49023-0.634766Q2.49023-0.263672 2.70996-0.0537109Q2.92969 0.15625 3.31055 0.15625ZM6.00586-5.51758L8.37891-12.0898L8.42773-12.0898L10.8008-5.51758Z"/>
  </g>
  <line style="fill:none;stroke:#00AEEF;stroke-width:0.5;opacity:1.0;" x1="793.197" x2="793.197" y1="1919" y2="1933"/>
  <text style="stroke:none;fill:black;font-family:sans-serif;font-size:13;font-weight:bold;" transform="matrix(1 0 0 1 776 1953)">Margins</text>
  <text style="stroke:none;fill:black;font-family:sans-serif;font-size:13;" transform="matrix(1 0 0 1 776 1971)">Leading and trailing margins on the left and right side of each symbol</text>
  <text style="stroke:none;fill:black;font-family:sans-serif;font-size:13;" transform="matrix(1 0 0 1 776 1989)">can be adjusted by modifying the x-location of the margin guidelines.</text>
  <text style="stroke:none;fill:black;font-family:sans-serif;font-size:13;" transform="matrix(1 0 0 1 776 2007)">Modifications are automatically applied proportionally to all</text>
  <text style="stroke:none;fill:black;font-family:sans-serif;font-size:13;" transform="matrix(1 0 0 1 776 2025)">scales and weights.</text>
  <g transform="matrix(1 0 0 1 1289 1933)">
   <path d="M2.8418 1.86523L4.54102 3.57422Q5.18555 4.22852 5.90332 4.17969Q6.62109 4.13086 7.31445 3.35938L18.0078-8.42773L17.041-9.4043L6.42578 2.27539Q6.16211 2.57812 5.89355 2.61719Q5.625 2.65625 5.27344 2.30469L4.10156 1.14258Q3.75 0.791016 3.79395 0.522461Q3.83789 0.253906 4.14062-0.0195312L15.6152-10.8203L14.6387-11.7871L3.04688-0.898438Q2.30469-0.214844 2.25098 0.498047Q2.19727 1.21094 2.8418 1.86523ZM9.25781-16.3281Q8.94531-16.0254 8.90625-15.6348Q8.86719-15.2441 9.04297-14.9512Q9.21875-14.6777 9.55566-14.541Q9.89258-14.4043 10.3809-14.5215Q11.4746-14.7754 12.5977-14.7314Q13.7207-14.6875 14.7949-13.9844L14.209-12.5293Q13.9551-11.9043 14.0674-11.4404Q14.1797-10.9766 14.5801-10.5664L16.875-8.25195Q17.2363-7.88086 17.5781-7.82227Q17.9199-7.76367 18.3398-7.8418L19.4043-8.03711L20.0684-7.36328L20.0293-6.80664Q20-6.43555 20.1221-6.12305Q20.2441-5.81055 20.6055-5.44922L21.3672-4.70703Q21.7285-4.3457 22.1533-4.33105Q22.5781-4.31641 22.9297-4.66797L25.8398-7.58789Q26.1914-7.93945 26.1816-8.35449Q26.1719-8.76953 25.8105-9.13086L25.0391-9.89258Q24.6875-10.2539 24.3799-10.3857Q24.0723-10.5176 23.7109-10.4883L23.1348-10.4395L22.4902-11.0742L22.7344-12.1973Q22.832-12.6172 22.6953-12.9834Q22.5586-13.3496 22.1191-13.7891L19.9219-15.9766Q18.6719-17.2168 17.2607-17.8369Q15.8496-18.457 14.4189-18.4814Q12.9883-18.5059 11.665-17.959Q10.3418-17.4121 9.25781-16.3281ZM10.752-15.957Q11.6602-16.6211 12.7002-16.9043Q13.7402-17.1875 14.8047-17.085Q15.8691-16.9824 16.8701-16.5137Q17.8711-16.0449 18.7012-15.2051L21.1328-12.793Q21.3086-12.6172 21.3525-12.4512Q21.3965-12.2852 21.3379-12.0312L21.0156-10.5469L22.5195-9.0625L23.5059-9.12109Q23.6914-9.13086 23.7891-9.09668Q23.8867-9.0625 24.0332-8.91602L24.6094-8.33984L22.168-5.89844L21.5918-6.47461Q21.4453-6.62109 21.4062-6.71875Q21.3672-6.81641 21.377-7.01172L21.4453-7.98828L19.9512-9.47266L18.4277-9.21875Q18.1836-9.16992 18.042-9.2041Q17.9004-9.23828 17.7148-9.41406L15.7129-11.416Q15.5176-11.5918 15.4932-11.7529Q15.4688-11.9141 15.5859-12.1875L16.4648-14.2773Q15.293-15.3711 13.8281-15.791Q12.3633-16.2109 10.8398-15.7617Q10.7227-15.7324 10.6885-15.8057Q10.6543-15.8789 10.752-15.957Z"/>
  </g>
  <text style="stroke:none;fill:black;font-family:sans-serif;font-size:13;font-weight:bold;" transform="matrix(1 0 0 1 1289 1953)">Exporting</text>
  <text style="stroke:none;fill:black;font-family:sans-serif;font-size:13;" transform="matrix(1 0 0 1 1289 1971)">Symbols should be outlined when exporting to ensure the</text>
  <text style="stroke:none;fill:black;font-family:sans-serif;font-size:13;" transform="matrix(1 0 0 1 1289 1989)">design is preserved when submitting to Xcode.</text>
  <text id="template-version" style="stroke:none;fill:black;font-family:sans-serif;font-size:13;text-anchor:end;" transform="matrix(1 0 0 1 3036 1933)">Template v.2.0</text>
  <text style="stroke:none;fill:black;font-family:sans-serif;font-size:13;text-anchor:end;" transform="matrix(1 0 0 1 3036 1951)">Requires Xcode 12 or greater</text>
  <text id="descriptive-name" style="stroke:none;fill:black;font-family:sans-serif;font-size:13;text-anchor:end;" transform="matrix(1 0 0 1 3036 1969)">Generated from banknote</text>
  <text style="stroke:none;fill:black;font-family:sans-serif;font-size:13;text-anchor:end;" transform="matrix(1 0 0 1 3036 1987)">Typeset at 100 points</text>
  <text style="stroke:none;fill:black;font-family:sans-serif;font-size:13;" transform="matrix(1 0 0 1 263 726)">Small</text>
  <text style="stroke:none;fill:black;font-family:sans-serif;font-size:13;" transform="matrix(1 0 0 1 263 1156)">Medium</text>
  <text style="stroke:none;fill:black;font-family:sans-serif;font-size:13;" transform="matrix(1 0 0 1 263 1586)">Large</text>
 </g>
 <g id="Guides">
  <g id="H-reference" style="fill:#27AAE1;stroke:none;" transform="matrix(1 0 0 1 339 696)">
   <path d="M0.993347 0L3.6377 0L29.3282-67.1326L30.0301-67.1326L30.0301-70.459L28.1227-70.459ZM11.6882-24.4797L46.9818-24.4797L46.2311-26.7288L12.4382-26.7288ZM55.1193 0L57.7637 0L30.6381-70.459L29.4327-70.459L29.4327-67.1326Z"/>
  </g>
  <line id="Baseline-S" style="fill:none;stroke:#27AAE1;opacity:1;stroke-width:0.5;" x1="263" x2="3036" y1="696" y2="696"/>
  <line id="Capline-S" style="fill:none;stroke:#27AAE1;opacity:1;stroke-width:0.5;" x1="263" x2="3036" y1="625.541" y2="625.541"/>
  <g id="H-reference" style="fill:#27AAE1;stroke:none;" transform="matrix(1 0 0 1 339 1126)">
   <path d="M0.993347 0L3.6377 0L29.3282-67.1326L30.0301-67.1326L30.0301-70.459L28.1227-70.459ZM11.6882-24.4797L46.9818-24.4797L46.2311-26.7288L12.4382-26.7288ZM55.1193 0L57.7637 0L30.6381-70.459L29.4327-70.459L29.4327-67.1326Z"/>
  </g>
  <line id="Baseline-M" style="fill:none;stroke:#27AAE1;opacity:1;stroke-width:0.5;" x1="263" x2="3036" y1="1126" y2="1126"/>
  <line id="Capline-M" style="fill:none;stroke:#27AAE1;opacity:1;stroke-width:0.5;" x1="263" x2="3036" y1="1055.54" y2="1055.54"/>
  <g id="H-reference" style="fill:#27AAE1;stroke:none;" transform="matrix(1 0 0 1 339 1556)">
   <path d="M0.993347 0L3.6377 0L29.3282-67.1326L30.0301-67.1326L30.0301-70.459L28.1227-70.459ZM11.6882-24.4797L46.9818-24.4797L46.2311-26.7288L12.4382-26.7288ZM55.1193 0L57.7637 0L30.6381-70.459L29.4327-70.459L29.4327-67.1326Z"/>
  </g>
  <line id="Baseline-L" style="fill:none;stroke:#27AAE1;opacity:1;stroke-width:0.5;" x1="263" x2="3036" y1="1556" y2="1556"/>
  <line id="Capline-L" style="fill:none;stroke:#27AAE1;opacity:1;stroke-width:0.5;" x1="263" x2="3036" y1="1485.54" y2="1485.54"/>
  <line id="left-margin" style="fill:none;stroke:#00AEEF;stroke-width:0.5;opacity:1.0;" x1="1372.94" x2="1372.94" y1="1030.79" y2="1150.12"/>
  <line id="right-margin" style="fill:none;stroke:#00AEEF;stroke-width:0.5;opacity:1.0;" x1="1526.75" x2="1526.75" y1="1030.79" y2="1150.12"/>
 </g>
 <g id="Symbols">
  <g id="Black-L" transform="matrix(1 0 0 1 2834.05 1556)">
   <path d="M16.084 12.3047Q16.084 15.3054 17.94 17.1719Q19.7961 19.0383 22.7968 19.0383L175.901 19.0383Q178.96 19.0383 180.787 17.1719Q182.614 15.3054 182.614 12.3047L182.614-82.7249Q182.614-85.784 180.787-87.6109Q178.96-89.4377 175.901-89.4377L22.7968-89.4377Q19.7961-89.4377 17.94-87.6109Q16.084-85.784 16.084-82.7249ZM36.065-2.64801L36.065-67.7722Q36.065-69.4579 37.7703-69.4579L160.928-69.4579Q162.634-69.4579 162.634-67.7722L162.634-2.64801Q162.634-0.962309 160.928-0.962309L37.7703-0.962309Q36.065-0.962309 36.065-2.64801ZM40.2071-7.46009Q40.2071-5.10559 42.446-5.10559L156.253-5.10559Q158.491-5.10559 158.491-7.46009L158.491-62.9601Q158.491-65.3146 156.253-65.3146L42.446-65.3146Q40.2071-65.3146 40.2071-62.9601ZM47.9847-13.9332L47.9847-56.487Q47.9847-57.4994 48.9762-57.4994L149.722-57.4994Q150.713-57.4994 150.713-56.487L150.713-13.9332Q150.713-12.9208 149.722-12.9208L48.9762-12.9208Q47.9847-12.9208 47.9847-13.9332ZM99.0923-5.10559Q105.37-5.10559 110.218-8.95743Q115.065-12.8093 117.849-19.6105Q120.633-26.4117 120.633-35.2905Q120.633-44.1473 117.849-50.9187Q115.065-57.6901 110.218-61.5024Q105.37-65.3146 99.0923-65.3146Q92.9915-65.3146 88.2732-61.5024Q83.555-57.6901 80.8501-50.9187Q78.1452-44.1473 78.1452-35.2905Q78.1452-26.4117 80.8495-19.6105Q83.5538-12.8093 88.2726-8.95743Q92.9915-5.10559 99.0923-5.10559ZM99.0923-14.7712Q95.7902-14.7712 93.0393-17.3244Q90.2883-19.8775 88.6783-24.4954Q87.0683-29.1133 87.0683-35.2905Q87.0683-41.4458 88.6783-45.9942Q90.2883-50.5427 93.0393-53.0952Q95.7902-55.6478 99.0923-55.6478Q102.631-55.6478 105.481-53.0952Q108.33-50.5427 110.02-45.9942Q111.709-41.4458 111.709-35.2905Q111.709-29.1133 110.02-24.4954Q108.33-19.8775 105.481-17.3244Q102.631-14.7712 99.0923-14.7712Z"/>
  </g>
  <g id="Heavy-L" transform="matrix(1 0 0 1 2537.52 1556)">
   <path d="M16.084 12.1109Q16.084 14.9213 17.8085 16.6609Q19.533 18.4004 22.3434 18.4004L175.985 18.4004Q178.84 18.4004 180.542 16.6609Q182.244 14.9213 182.244 12.1109L182.244-82.5499Q182.244-85.4049 180.542-87.1071Q178.84-88.8092 175.985-88.8092L22.3434-88.8092Q19.533-88.8092 17.8085-87.1071Q16.084-85.4049 16.084-82.5499ZM33.5844-0.825582L33.5844-69.6134Q33.5844-71.3144 35.31-71.3144L163.018-71.3144Q164.75-71.3144 164.75-69.6134L164.75-0.825582Q164.75 0.875553 163.018 0.875553L35.31 0.875553Q33.5844 0.875553 33.5844-0.825582ZM38.3755-6.54683Q38.3755-3.92125 40.9175-3.92125L157.417-3.92125Q159.953-3.92125 159.953-6.54683L159.953-63.8921Q159.953-66.5177 157.417-66.5177L40.9175-66.5177Q38.3755-66.5177 38.3755-63.8921ZM45.7575-12.4238L45.7575-58.0152Q45.7575-59.1212 46.8334-59.1212L151.495-59.1212Q152.571-59.1212 152.571-58.0152L152.571-12.4238Q152.571-11.3177 151.495-11.3177L46.8334-11.3177Q45.7575-11.3177 45.7575-12.4238ZM98.918-3.92125Q105.295-3.92125 110.306-7.87726Q115.316-11.8333 118.224-18.8917Q121.131-25.9502 121.131-35.2998Q121.131-44.6138 118.224-51.6471Q115.316-58.6804 110.306-62.5991Q105.295-66.5177 98.918-66.5177Q92.7098-66.5177 87.8264-62.5991Q82.943-58.6804 80.1104-51.6471Q77.2778-44.6138 77.2778-35.2998Q77.2778-25.9502 80.1076-18.8917Q82.9374-11.8333 87.8236-7.87726Q92.7098-3.92125 98.918-3.92125ZM98.918-12.9552Q95.3281-12.9552 92.3066-15.7099Q89.2851-18.4646 87.5005-23.4842Q85.716-28.5038 85.716-35.2998Q85.716-42.0602 87.5005-47.0173Q89.2851-51.9744 92.3066-54.7262Q95.3281-57.4781 98.918-57.4781Q102.727-57.4781 105.848-54.7262Q108.969-51.9744 110.828-47.0173Q112.687-42.0602 112.687-35.2998Q112.687-28.5038 110.828-23.4842Q108.969-18.4646 105.848-15.7099Q102.727-12.9552 98.918-12.9552Z"/>
  </g>
  <g id="Bold-L" transform="matrix(1 0 0 1 2241.32 1556)">
   <path d="M16.084 11.7684Q16.084 14.3257 17.6359 15.8966Q19.1878 17.4674 21.7451 17.4674L175.578 17.4674Q178.165 17.4674 179.702 15.8966Q181.239 14.3257 181.239 11.7684L181.239-82.2229Q181.239-84.8095 179.702-86.3468Q178.165-87.8841 175.578-87.8841L21.7451-87.8841Q19.1878-87.8841 17.6359-86.3468Q16.084-84.8095 16.084-82.2229ZM30.5258 1.30674L30.5258-71.7613Q30.5258-73.4554 32.2446-73.4554L165.079-73.4554Q166.811-73.4554 166.811-71.7613L166.811 1.30674Q166.811 3.00108 165.079 3.00108L32.2446 3.00108Q30.5258 3.00108 30.5258 1.30674ZM36.0938-5.43955Q36.0938-2.58034 38.908-2.58034L158.429-2.58034Q161.23-2.58034 161.23-5.43955L161.23-65.015Q161.23-67.8742 158.429-67.8742L38.908-67.8742Q36.0938-67.8742 36.0938-65.015ZM42.902-10.564L42.902-59.8906Q42.902-61.0747 44.0483-61.0747L153.275-61.0747Q154.421-61.0747 154.421-59.8906L154.421-10.564Q154.421-9.37986 153.275-9.37986L44.0483-9.37986Q42.902-9.37986 42.902-10.564ZM98.4419-2.58034Q104.89-2.58034 110.082-6.64082Q115.273-10.7013 118.331-18.0489Q121.388-25.3964 121.388-35.3076Q121.388-45.1677 118.331-52.494Q115.273-59.8203 110.082-63.8473Q104.89-67.8742 98.4419-67.8742Q92.1404-67.8742 87.0682-63.8473Q81.996-59.8203 79.0059-52.494Q76.0157-45.1677 76.0157-35.3076Q76.0157-25.3964 78.9993-18.0489Q81.9829-10.7013 87.0616-6.64082Q92.1404-2.58034 98.4419-2.58034ZM98.4419-10.7337Q94.506-10.7337 91.139-13.7232Q87.7721-16.7127 85.7575-22.2206Q83.7428-27.7284 83.7428-35.3076Q83.7428-42.8358 85.7575-48.2888Q87.7721-53.7418 91.139-56.7247Q94.506-59.7075 98.4419-59.7075Q102.566-59.7075 106.025-56.7247Q109.484-53.7418 111.566-48.2888Q113.648-42.8358 113.648-35.3076Q113.648-27.7284 111.566-22.2206Q109.484-16.7127 106.025-13.7232Q102.566-10.7337 98.4419-10.7337Z"/>
  </g>
  <g id="Semibold-L" transform="matrix(1 0 0 1 1944.95 1556)">
   <path d="M16.084 11.5322Q16.084 13.9151 17.5169 15.3696Q18.9498 16.8242 21.3327 16.8242L175.298 16.8242Q177.699 16.8242 179.123 15.3696Q180.547 13.9151 180.547 11.5322L180.547-81.9975Q180.547-84.399 179.123-85.8226Q177.699-87.2462 175.298-87.2462L21.3327-87.2462Q18.9498-87.2462 17.5169-85.8226Q16.084-84.399 16.084-81.9975ZM28.4171 2.77674L28.4171-73.2421Q28.4171-74.9314 30.1314-74.9314L166.499-74.9314Q168.232-74.9314 168.232-73.2421L168.232 2.77674Q168.232 4.46641 166.499 4.46641L30.1314 4.46641Q28.4171 4.46641 28.4171 2.77674ZM34.5208-4.6762Q34.5208-1.65592 37.5226-1.65592L159.127-1.65592Q162.11-1.65592 162.11-4.6762L162.11-65.7891Q162.11-68.8094 159.127-68.8094L37.5226-68.8094Q34.5208-68.8094 34.5208-65.7891ZM40.9335-9.28184L40.9335-61.1835Q40.9335-62.4214 42.1282-62.4214L154.503-62.4214Q155.697-62.4214 155.697-61.1835L155.697-9.28184Q155.697-8.04393 154.503-8.04393L42.1282-8.04393Q40.9335-8.04393 40.9335-9.28184ZM98.1138-1.65592Q104.61-1.65592 109.927-5.78843Q115.244-9.92094 118.405-17.4678Q121.565-25.0147 121.565-35.3129Q121.565-45.5496 118.405-53.0779Q115.244-60.6062 109.927-64.7078Q104.61-68.8094 98.1138-68.8094Q91.7479-68.8094 86.5455-64.7078Q81.3432-60.6062 78.2444-53.0779Q75.1456-45.5496 75.1456-35.3129Q75.1456-25.0147 78.2353-17.4678Q81.3249-9.92094 86.5364-5.78843Q91.7479-1.65592 98.1138-1.65592ZM98.1138-9.20214Q93.9393-9.20214 90.3341-12.3536Q86.729-15.505 84.5558-21.3494Q82.3826-27.1938 82.3826-35.3129Q82.3826-43.3705 84.5558-49.1654Q86.729-54.9603 90.3341-58.1024Q93.9393-61.2445 98.1138-61.2445Q102.456-61.2445 106.148-58.1024Q109.84-54.9603 112.075-49.1654Q114.31-43.3705 114.31-35.3129Q114.31-27.1938 112.075-21.3494Q109.84-15.505 106.148-12.3536Q102.456-9.20214 98.1138-9.20214Z"/>
  </g>
  <g id="Medium-L" transform="matrix(1 0 0 1 1648.5 1556)">
   <path d="M16.084 11.3532Q16.084 13.6038 17.4267 14.9701Q18.7693 16.3364 21.02 16.3364L175.085 16.3364Q177.346 16.3364 178.684 14.9701Q180.021 13.6038 180.021 11.3532L180.021-81.8267Q180.021-84.0878 178.684-85.4252Q177.346-86.7626 175.085-86.7626L21.02-86.7626Q18.7693-86.7626 17.4267-85.4252Q16.084-84.0878 16.084-81.8267ZM26.8183 3.89136L26.8183-74.3648Q26.8183-76.0506 28.529-76.0506L167.576-76.0506Q169.31-76.0506 169.31-74.3648L169.31 3.89136Q169.31 5.57748 167.576 5.57748L28.529 5.57748Q26.8183 5.57748 26.8183 3.89136ZM33.3281-4.09739Q33.3281-0.954989 36.4722-0.954989L159.656-0.954989Q162.777-0.954989 162.777-4.09739L162.777-66.3761Q162.777-69.5185 159.656-69.5185L36.4722-69.5185Q33.3281-69.5185 33.3281-66.3761ZM39.4409-8.30968L39.4409-62.1638Q39.4409-63.4425 40.6723-63.4425L155.433-63.4425Q156.664-63.4425 156.664-62.1638L156.664-8.30968Q156.664-7.03097 155.433-7.03097L40.6723-7.03097Q39.4409-7.03097 39.4409-8.30968ZM97.8649-0.954989Q104.399-0.954989 109.81-5.14211Q115.222-9.32923 118.461-17.0272Q121.7-24.7252 121.7-35.317Q121.7-45.8392 118.461-53.5206Q115.222-61.202 109.81-65.3602Q104.399-69.5185 97.8649-69.5185Q91.4502-69.5185 86.1492-65.3602Q80.8482-61.202 77.6671-53.5206Q74.4859-45.8392 74.4859-35.317Q74.4859-24.7252 77.6559-17.0272Q80.8259-9.32923 86.1381-5.14211Q91.4502-0.954989 97.8649-0.954989ZM97.8649-8.04088Q93.5096-8.04088 89.7238-11.3151Q85.9381-14.5893 83.6446-20.6889Q81.3511-26.7885 81.3511-35.317Q81.3511-43.7759 83.6446-49.8301Q85.9381-55.8842 89.7238-59.1471Q93.5096-62.4099 97.8649-62.4099Q102.372-62.4099 106.241-59.1471Q110.109-55.8842 112.461-49.8301Q114.812-43.7759 114.812-35.317Q114.812-26.7885 112.461-20.6889Q110.109-14.5893 106.241-11.3151Q102.372-8.04088 97.8649-8.04088Z"/>
  </g>
  <g id="Regular-L" transform="matrix(1 0 0 1 1352.13 1556)">
   <path d="M16.084 11.1196Q16.084 13.1977 17.309 14.449Q18.534 15.7003 20.6121 15.7003L174.808 15.7003Q176.886 15.7003 178.111 14.449Q179.336 13.1977 179.336 11.1196L179.336-81.6038Q179.336-83.6818 178.111-84.9068Q176.886-86.1318 174.808-86.1318L20.6121-86.1318Q18.534-86.1318 17.309-84.9068Q16.084-83.6818 16.084-81.6038ZM24.7329 5.34522L24.7329-75.8293Q24.7329-77.5103 26.439-77.5103L168.981-77.5103Q170.715-77.5103 170.715-75.8293L170.715 5.34522Q170.715 7.0267 168.981 7.0267L26.439 7.0267Q24.7329 7.0267 24.7329 5.34522ZM31.7724-3.34242Q31.7724-0.0407307 35.102-0.0407307L160.346-0.0407307Q163.648-0.0407307 163.648-3.34242L163.648-67.1417Q163.648-70.4434 160.346-70.4434L35.102-70.4434Q31.7724-70.4434 31.7724-67.1417ZM37.494-7.04164L37.494-63.4425Q37.494-64.7744 38.7733-64.7744L156.647-64.7744Q157.926-64.7744 157.926-63.4425L157.926-7.04164Q157.926-5.70971 156.647-5.70971L38.7733-5.70971Q37.494-5.70971 37.494-7.04164ZM97.5403-0.0407307Q104.122-0.0407307 109.657-4.29909Q115.192-8.55744 118.534-16.4525Q121.875-24.3476 121.875-35.3222Q121.875-46.2169 118.534-54.0981Q115.192-61.9792 109.657-66.2113Q104.122-70.4434 97.5403-70.4434Q91.062-70.4434 85.6323-66.2113Q80.2025-61.9792 76.914-54.0981Q73.6254-46.2169 73.6254-35.3222Q73.6254-24.3476 76.9003-16.4525Q80.1751-8.55744 85.6186-4.29909Q91.062-0.0407307 97.5403-0.0407307ZM97.5403-6.52619Q92.9491-6.52619 88.9278-9.9605Q84.9065-13.3948 82.4562-19.8273Q80.0058-26.2598 80.0058-35.3222Q80.0058-44.3047 82.4562-50.697Q84.9065-57.0893 88.9278-60.5097Q92.9491-63.93 97.5403-63.93Q102.263-63.93 106.362-60.5097Q110.461-57.0893 112.964-50.697Q115.467-44.3047 115.467-35.3222Q115.467-26.2598 112.964-19.8273Q110.461-13.3948 106.362-9.9605Q102.263-6.52619 97.5403-6.52619Z"/>
  </g>
  <g id="Light-L" transform="matrix(1 0 0 1 1057.53 1556)">
   <path d="M16.084 10.2228Q16.084 12.0145 17.1277 13.0748Q18.1713 14.1351 19.963 14.1351L171.239 14.1351Q173.031 14.1351 174.075 13.0748Q175.118 12.0145 175.118 10.2228L175.118-80.6687Q175.118-82.4604 174.075-83.5041Q173.031-84.5478 171.239-84.5478L19.963-84.5478Q18.1713-84.5478 17.1277-83.5041Q16.084-82.4604 16.084-80.6687ZM22.7099 6.01314L22.7099-76.4591Q22.7099-77.9682 24.206-77.9682L166.996-77.9682Q168.539-77.9682 168.539-76.4591L168.539 6.01314Q168.539 7.52307 166.996 7.52307L24.206 7.52307Q22.7099 7.52307 22.7099 6.01314ZM30.1121-2.73158Q30.1121 0.0737434 32.9645 0.0737434L158.285 0.0737434Q161.09 0.0737434 161.09-2.73158L161.09-67.7144Q161.09-70.5197 158.285-70.5197L32.9645-70.5197Q30.1121-70.5197 30.1121-67.7144ZM34.8982-5.82026L34.8982-64.6257Q34.8982-65.7668 36.0061-65.7668L155.197-65.7668Q156.304-65.7668 156.304-64.6257L156.304-5.82026Q156.304-4.67913 155.197-4.67913L36.0061-4.67913Q34.8982-4.67913 34.8982-5.82026ZM95.5362 0.0737434Q101.832 0.0737434 107.358-4.09868Q112.883-8.2711 116.31-16.1758Q119.738-24.0805 119.738-35.303Q119.738-46.4459 116.31-54.327Q112.883-62.2082 107.358-66.3639Q101.832-70.5197 95.5362-70.5197Q89.249-70.5197 83.7906-66.3639Q78.3322-62.2082 74.9386-54.327Q71.545-46.4459 71.545-35.303Q71.545-24.0805 74.9154-16.1758Q78.2858-8.2711 83.7674-4.09868Q89.249 0.0737434 95.5362 0.0737434ZM95.5362-5.1711Q90.7734-5.1711 86.4467-8.67227Q82.12-12.1734 79.4216-18.8827Q76.7233-25.5919 76.7233-35.303Q76.7233-44.9345 79.4216-51.6035Q82.12-58.2725 86.4467-61.7501Q90.7734-65.2277 95.5362-65.2277Q100.354-65.2277 104.702-61.7501Q109.049-58.2725 111.781-51.6035Q114.513-44.9345 114.513-35.303Q114.513-25.5919 111.781-18.8827Q109.049-12.1734 104.702-8.67227Q100.354-5.1711 95.5362-5.1711Z"/>
  </g>
  <g id="Thin-L" transform="matrix(1 0 0 1 763.61 1556)">
   <path d="M16.084 9.03658Q16.084 10.4496 16.8878 11.2574Q17.6917 12.0651 19.1047 12.0651L166.519 12.0651Q167.932 12.0651 168.736 11.2574Q169.54 10.4496 169.54 9.03658L169.54-79.4321Q169.54-80.8451 168.736-81.6489Q167.932-82.4528 166.519-82.4528L19.1047-82.4528Q17.6917-82.4528 16.8878-81.6489Q16.084-80.8451 16.084-79.4321ZM20.0343 6.89653L20.0343-77.292Q20.0343-78.5738 21.2526-78.5738L164.371-78.5738Q165.662-78.5738 165.662-77.292L165.662 6.89653Q165.662 8.17957 164.371 8.17957L21.2526 8.17957Q20.0343 8.17957 20.0343 6.89653ZM27.9161-1.92368Q27.9161 0.225145 30.1375 0.225145L155.559 0.225145Q157.708 0.225145 157.708-1.92368L157.708-68.4718Q157.708-70.6206 155.559-70.6206L30.1375-70.6206Q27.9161-70.6206 27.9161-68.4718ZM31.4652-4.20489L31.4652-66.1906Q31.4652-67.0794 32.3462-67.0794L153.279-67.0794Q154.158-67.0794 154.158-66.1906L154.158-4.20489Q154.158-3.31609 153.279-3.31609L32.3462-3.31609Q31.4652-3.31609 31.4652-4.20489ZM92.8856 0.225145Q98.8034 0.225145 104.316-3.83362Q109.829-7.89238 113.37-15.8098Q116.911-23.7273 116.911-35.2776Q116.911-46.7487 113.37-54.6298Q109.829-62.511 104.316-66.5658Q98.8034-70.6206 92.8856-70.6206Q86.8512-70.6206 81.3548-66.5658Q75.8584-62.511 72.326-54.6298Q68.7935-46.7487 68.7935-35.2776Q68.7935-23.7273 72.2903-15.8098Q75.7871-7.89238 81.3191-3.83362Q86.8512 0.225145 92.8856 0.225145ZM92.8856-3.37888Q87.8959-3.37888 83.1653-6.96847Q78.4346-10.5581 75.4082-17.6333Q72.3818-24.7085 72.3818-35.2776Q72.3818-45.7674 75.4082-52.8024Q78.4346-59.8374 83.1653-63.3907Q87.8959-66.944 92.8856-66.944Q97.83-66.944 102.506-63.3907Q107.181-59.8374 110.216-52.8024Q113.251-45.7674 113.251-35.2776Q113.251-24.7085 110.216-17.6333Q107.181-10.5581 102.506-6.96847Q97.83-3.37888 92.8856-3.37888Z"/>
  </g>
  <g id="Ultralight-L" transform="matrix(1 0 0 1 468.328 1556)">
   <path d="M16.084 8.42902Q16.084 9.64805 16.765 10.3265Q17.446 11.0049 18.665 11.0049L164.101 11.0049Q165.32 11.0049 166.001 10.3265Q166.682 9.64805 166.682 8.42902L166.682-78.7987Q166.682-80.0177 166.001-80.6987Q165.32-81.3797 164.101-81.3797L18.665-81.3797Q17.446-81.3797 16.765-80.6987Q16.084-80.0177 16.084-78.7987ZM18.6638 7.34899L18.6638-77.7186Q18.6638-78.884 19.7399-78.884L163.027-78.884Q164.188-78.884 164.188-77.7186L164.188 7.34899Q164.188 8.51582 163.027 8.51582L19.7399 8.51582Q18.6638 8.51582 18.6638 7.34899ZM26.7914-1.50988Q26.7914 0.302692 28.6895 0.302692L154.162 0.302692Q155.975 0.302692 155.975-1.50988L155.975-68.8598Q155.975-70.6723 154.162-70.6723L28.6895-70.6723Q26.7914-70.6723 26.7914-68.8598ZM29.7068-3.3775L29.7068-66.9921Q29.7068-67.7517 30.4716-67.7517L152.296-67.7517Q153.06-67.7517 153.06-66.9921L153.06-3.3775Q153.06-2.61795 152.296-2.61795L30.4716-2.61795Q29.7068-2.61795 29.7068-3.3775ZM91.528 0.302692Q97.252 0.302692 102.758-3.69786Q108.264-7.6984 111.863-15.6224Q115.463-23.5463 115.463-35.2645Q115.463-46.9037 111.863-54.7849Q108.264-62.6661 102.758-66.6692Q97.252-70.6723 91.528-70.6723Q85.623-70.6723 80.1072-66.6692Q74.5914-62.6661 70.9878-54.7849Q67.3842-46.9037 67.3842-35.2645Q67.3842-23.5463 70.9457-15.6224Q74.5072-7.6984 80.0651-3.69786Q85.623 0.302692 91.528 0.302692ZM91.528-2.46092Q86.4221-2.46092 81.4846-6.0958Q76.547-9.73068 73.3526-16.9934Q70.1582-24.256 70.1582-35.2645Q70.1582-46.194 73.3526-53.4165Q76.547-60.639 81.4846-64.231Q86.4221-67.8231 91.528-67.8231Q96.5371-67.8231 101.381-64.231Q106.225-60.639 109.415-53.4165Q112.604-46.194 112.604-35.2645Q112.604-24.256 109.415-16.9934Q106.225-9.73068 101.381-6.0958Q96.5371-2.46092 91.528-2.46092Z"/>
  </g>
  <g id="Black-M" transform="matrix(1 0 0 1 2856.56 1126)">
   <path d="M12.4609 1.64224Q12.4609 4.0918 13.9874 5.621Q15.5138 7.1502 17.9634 7.1502L135.722 7.1502Q138.229 7.1502 139.727 5.621Q141.225 4.0918 141.225 1.64224L141.225-72.0499Q141.225-74.5566 139.727-76.0545Q138.229-77.5524 135.722-77.5524L17.9634-77.5524Q15.5138-77.5524 13.9874-76.0545Q12.4609-74.5566 12.4609-72.0499ZM29.7989-11.463L29.7989-58.9447Q29.7989-60.2141 31.0741-60.2141L122.612-60.2141Q123.887-60.2141 123.887-58.9447L123.887-11.463Q123.887-10.1935 122.612-10.1935L31.0741-10.1935Q29.7989-10.1935 29.7989-11.463ZM32.4992-14.4175Q32.4992-12.8936 33.9087-12.8936L119.777-12.8936Q121.187-12.8936 121.187-14.4175L121.187-55.9902Q121.187-57.5141 119.777-57.5141L33.9087-57.5141Q32.4992-57.5141 32.4992-55.9902ZM38.7382-19.8621L38.7382-50.5456Q38.7382-51.2235 39.4106-51.2235L114.275-51.2235Q114.948-51.2235 114.948-50.5456L114.948-19.8621Q114.948-19.1841 114.275-19.1841L39.4106-19.1841Q38.7382-19.1841 38.7382-19.8621ZM76.6493-12.8936Q81.3888-12.8936 85.0029-15.7766Q88.6169-18.6596 90.6796-23.7091Q92.7422-28.7585 92.7422-35.2661Q92.7422-41.7686 90.6796-46.7896Q88.6169-51.8106 85.0029-54.6624Q81.3888-57.5141 76.6493-57.5141Q72.0409-57.5141 68.5235-54.6624Q65.0061-51.8106 63.006-46.7896Q61.0059-41.7686 61.0059-35.2661Q61.0059-28.7585 63.0062-23.7091Q65.0064-18.6596 68.5236-15.7766Q72.0409-12.8936 76.6493-12.8936ZM76.6493-20.7568Q74.3151-20.7568 72.3749-22.5706Q70.4348-24.3845 69.3039-27.6544Q68.173-30.9243 68.173-35.2661Q68.173-39.6028 69.3039-42.813Q70.4348-46.0232 72.3749-47.8372Q74.3151-49.6512 76.6493-49.6512Q79.1715-49.6512 81.18-47.8372Q83.1885-46.0232 84.382-42.813Q85.5755-39.6028 85.5755-35.2661Q85.5755-30.9243 84.382-27.6544Q83.1885-24.3845 81.18-22.5706Q79.1715-20.7568 76.6493-20.7568Z"/>
  </g>
  <g id="Heavy-M" transform="matrix(1 0 0 1 2559.83 1126)">
   <path d="M12.4609 1.53556Q12.4609 3.82549 13.8755 5.24826Q15.2901 6.67103 17.58 6.67103L136.134 6.67103Q138.467 6.67103 139.86 5.24826Q141.253 3.82549 141.253 1.53556L141.253-71.9651Q141.253-74.2986 139.86-75.6914Q138.467-77.0841 136.134-77.0841L17.58-77.0841Q15.2901-77.0841 13.8755-75.6914Q12.4609-74.2986 12.4609-71.9651ZM27.5605-9.74307L27.5605-60.6864Q27.5605-61.9868 28.875-61.9868L124.839-61.9868Q126.155-61.9868 126.155-60.6864L126.155-9.74307Q126.155-8.44269 124.839-8.44269L28.875-8.44269Q27.5605-8.44269 27.5605-9.74307ZM30.8619-13.5811Q30.8619-11.7464 32.6117-11.7464L121.104-11.7464Q122.852-11.7464 122.852-13.5811L122.852-56.8484Q122.852-58.6831 121.104-58.6831L32.6117-58.6831Q30.8619-58.6831 30.8619-56.8484ZM36.8004-18.4992L36.8004-51.9303Q36.8004-52.7174 37.5712-52.7174L116.143-52.7174Q116.913-52.7174 116.913-51.9303L116.913-18.4992Q116.913-17.7121 116.143-17.7121L37.5712-17.7121Q36.8004-17.7121 36.8004-18.4992ZM76.6637-11.7464Q81.5267-11.7464 85.3011-14.7392Q89.0755-17.7319 91.2508-23.0319Q93.4261-28.3319 93.4261-35.277Q93.4261-42.2035 91.2508-47.4805Q89.0755-52.7576 85.3011-55.7204Q81.5267-58.6831 76.6637-58.6831Q71.9327-58.6831 68.2566-55.7204Q64.5804-52.7576 62.4651-47.4805Q60.3499-42.2035 60.3499-35.277Q60.3499-28.3319 62.464-23.0319Q64.5781-17.7319 68.2554-14.7392Q71.9327-11.7464 76.6637-11.7464ZM76.6637-19.1065Q74.064-19.1065 71.8876-21.1112Q69.7112-23.1159 68.4325-26.753Q67.1538-30.3901 67.1538-35.277Q67.1538-40.1453 68.4325-43.7294Q69.7112-47.3136 71.8876-49.3171Q74.064-51.3207 76.6637-51.3207Q79.4413-51.3207 81.6919-49.3171Q83.9425-47.3136 85.2812-43.7294Q86.6199-40.1453 86.6199-35.277Q86.6199-30.3901 85.2812-26.753Q83.9425-23.1159 81.6919-21.1112Q79.4413-19.1065 76.6637-19.1065Z"/>
  </g>
  <g id="Bold-M" transform="matrix(1 0 0 1 2263.11 1126)">
   <path d="M12.4609 1.41623Q12.4609 3.52758 13.7504 4.83129Q15.0398 6.135 17.1511 6.135L136.594 6.135Q138.734 6.135 140.009 4.83129Q141.284 3.52758 141.284 1.41623L141.284-71.8702Q141.284-74.0101 140.009-75.2852Q138.734-76.5603 136.594-76.5603L17.1511-76.5603Q15.0398-76.5603 13.7504-75.2852Q12.4609-74.0101 12.4609-71.8702ZM25.0566-7.81909L25.0566-62.6348Q25.0566-63.9697 26.415-63.9697L127.33-63.9697Q128.693-63.9697 128.693-62.6348L128.693-7.81909Q128.693-6.48412 127.33-6.48412L26.415-6.48412Q25.0566-6.48412 25.0566-7.81909ZM29.0304-12.6454Q29.0304-10.4631 31.1608-10.4631L122.589-10.4631Q124.714-10.4631 124.714-12.6454L124.714-57.8085Q124.714-59.9909 122.589-59.9909L31.1608-59.9909Q29.0304-59.9909 29.0304-57.8085ZM34.6327-16.9746L34.6327-53.4793Q34.6327-54.3886 35.5134-54.3886L118.231-54.3886Q119.112-54.3886 119.112-53.4793L119.112-16.9746Q119.112-16.0653 118.231-16.0653L35.5134-16.0653Q34.6327-16.0653 34.6327-16.9746ZM76.6799-10.4631Q81.6809-10.4631 85.6348-13.5786Q89.5886-16.6942 91.8898-22.2745Q94.191-27.8548 94.191-35.2892Q94.191-42.69 91.8898-48.2534Q89.5886-53.8169 85.6348-56.9039Q81.6809-59.9909 76.6799-59.9909Q71.8118-59.9909 67.958-56.9039Q64.1041-53.8169 61.8601-48.2534Q59.6161-42.69 59.6161-35.2892Q59.6161-27.8548 61.8576-22.2745Q64.099-16.6942 67.9554-13.5786Q71.8118-10.4631 76.6799-10.4631ZM76.6799-17.2604Q73.7832-17.2604 71.3424-19.4786Q68.9017-21.6969 67.4577-25.7447Q66.0137-29.7926 66.0137-35.2892Q66.0137-40.7522 67.4577-44.7546Q68.9017-48.7571 71.3424-50.9727Q73.7832-53.1883 76.6799-53.1883Q79.7431-53.1883 82.2646-50.9727Q84.786-48.7571 86.2872-44.7546Q87.7883-40.7522 87.7883-35.2892Q87.7883-29.7926 86.2872-25.7447Q84.786-21.6969 82.2646-19.4786Q79.7431-17.2604 76.6799-17.2604Z"/>
  </g>
  <g id="Semibold-M" transform="matrix(1 0 0 1 1966.38 1126)">
   <path d="M12.4609 1.33396Q12.4609 3.3222 13.6641 4.54383Q14.8672 5.76547 16.8555 5.76547L136.911 5.76547Q138.917 5.76547 140.111 4.54383Q141.305 3.3222 141.305 1.33396L141.305-71.8047Q141.305-73.8111 140.111-75.0052Q138.917-76.1993 136.911-76.1993L16.8555-76.1993Q14.8672-76.1993 13.6641-75.0052Q12.4609-73.8111 12.4609-71.8047ZM23.3305-6.49271L23.3305-63.9781Q23.3305-65.3368 24.7191-65.3368L129.047-65.3368Q130.443-65.3368 130.443-63.9781L130.443-6.49271Q130.443-5.13389 129.047-5.13389L24.7191-5.13389Q23.3305-5.13389 23.3305-6.49271ZM27.7678-12.0004Q27.7678-9.57834 30.1606-9.57834L123.613-9.57834Q125.998-9.57834 125.998-12.0004L125.998-58.4704Q125.998-60.8924 123.613-60.8924L30.1606-60.8924Q27.7678-60.8924 27.7678-58.4704ZM33.1384-15.9236L33.1384-54.5472Q33.1384-55.5407 34.0949-55.5407L119.672-55.5407Q120.628-55.5407 120.628-54.5472L120.628-15.9236Q120.628-14.9301 119.672-14.9301L34.0949-14.9301Q33.1384-14.9301 33.1384-15.9236ZM76.6911-9.57834Q81.7872-9.57834 85.8648-12.7785Q89.9424-15.9787 92.3304-21.7523Q94.7184-27.5258 94.7184-35.2976Q94.7184-43.0254 92.3304-48.7863Q89.9424-54.5472 85.8648-57.7198Q81.7872-60.8924 76.6911-60.8924Q71.7284-60.8924 67.7521-57.7198Q63.7758-54.5472 61.443-48.7863Q59.1102-43.0254 59.1102-35.2976Q59.1102-27.5258 61.4395-21.7523Q63.7687-15.9787 67.7486-12.7785Q71.7284-9.57834 76.6911-9.57834ZM76.6911-15.9877Q73.5896-15.9877 70.9666-18.3532Q68.3436-20.7186 66.7857-25.0496Q65.2277-29.3807 65.2277-35.2976Q65.2277-41.1706 66.7857-45.4614Q68.3436-49.7522 70.9666-52.114Q73.5896-54.4759 76.6911-54.4759Q79.9512-54.4759 82.6594-52.114Q85.3675-49.7522 86.9807-45.4614Q88.5938-41.1706 88.5938-35.2976Q88.5938-29.3807 86.9807-25.0496Q85.3675-20.7186 82.6594-18.3532Q79.9512-15.9877 76.6911-15.9877Z"/>
  </g>
  <g id="Medium-M" transform="matrix(1 0 0 1 1669.66 1126)">
   <path d="M12.4609 1.27158Q12.4609 3.16647 13.5987 4.32587Q14.7364 5.48527 16.6313 5.48527L137.151 5.48527Q139.056 5.48527 140.189 4.32587Q141.322 3.16647 141.322 1.27158L141.322-71.7551Q141.322-73.6603 140.189-74.7929Q139.056-75.9255 137.151-75.9255L16.6313-75.9255Q14.7364-75.9255 13.5987-74.7929Q12.4609-73.6603 12.4609-71.7551ZM22.0216-5.48699L22.0216-64.9966Q22.0216-66.3733 23.4332-66.3733L130.349-66.3733Q131.77-66.3733 131.77-64.9966L131.77-5.48699Q131.77-4.11009 130.349-4.11009L23.4332-4.11009Q22.0216-4.11009 22.0216-5.48699ZM26.8104-11.5113Q26.8104-8.90751 29.4023-8.90751L124.389-8.90751Q126.972-8.90751 126.972-11.5113L126.972-58.9723Q126.972-61.576 124.389-61.576L29.4023-61.576Q26.8104-61.576 26.8104-58.9723ZM32.0053-15.1267L32.0053-55.3569Q32.0053-56.4142 33.0192-56.4142L120.763-56.4142Q121.777-56.4142 121.777-55.3569L121.777-15.1267Q121.777-14.0693 120.763-14.0693L33.0192-14.0693Q32.0053-14.0693 32.0053-15.1267ZM76.6996-8.90751Q81.8679-8.90751 86.0392-12.1719Q90.2106-15.4363 92.6644-21.3563Q95.1182-27.2764 95.1182-35.304Q95.1182-43.2797 92.6644-49.1903Q90.2106-55.1009 86.0392-58.3385Q81.8679-61.576 76.6996-61.576Q71.6652-61.576 67.596-58.3385Q63.5268-55.1009 61.1267-49.1903Q58.7266-43.2797 58.7266-35.304Q58.7266-27.2764 61.1224-21.3563Q63.5183-15.4363 67.5917-12.1719Q71.6652-8.90751 76.6996-8.90751ZM76.6996-15.0227Q73.4428-15.0227 70.6816-17.4998Q67.9204-19.9768 66.2761-24.5226Q64.6318-29.0683 64.6318-35.304Q64.6318-41.4878 66.2761-45.9973Q67.9204-50.5067 70.6816-52.9794Q73.4428-55.4521 76.6996-55.4521Q80.109-55.4521 82.9587-52.9794Q85.8084-50.5067 87.5065-45.9973Q89.2045-41.4878 89.2045-35.304Q89.2045-29.0683 87.5065-24.5226Q85.8084-19.9768 82.9587-17.4998Q80.109-15.0227 76.6996-15.0227Z"/>
  </g>
  <g id="Regular-M" transform="matrix(1 0 0 1 1372.94 1126)">
   <path d="M12.4609 1.19021Q12.4609 2.96335 13.5133 4.04158Q14.5657 5.1198 16.3389 5.1198L137.465 5.1198Q139.238 5.1198 140.29 4.04158Q141.343 2.96335 141.343 1.19021L141.343-71.6904Q141.343-73.4635 140.29-74.5159Q139.238-75.5683 137.465-75.5683L16.3389-75.5683Q14.5657-75.5683 13.5133-74.5159Q12.4609-73.4635 12.4609-71.6904ZM20.3144-4.17518L20.3144-66.325Q20.3144-67.7253 21.7559-67.7253L132.048-67.7253Q133.5-67.7253 133.5-66.325L133.5-4.17518Q133.5-2.77471 132.048-2.77471L21.7559-2.77471Q20.3144-2.77471 20.3144-4.17518ZM25.5616-10.8733Q25.5616-8.03252 28.413-8.03252L125.401-8.03252Q128.242-8.03252 128.242-10.8733L128.242-59.6269Q128.242-62.4677 125.401-62.4677L28.413-62.4677Q25.5616-62.4677 25.5616-59.6269ZM30.5273-14.0872L30.5273-56.413Q30.5273-57.5536 31.6163-57.5536L122.188-57.5536Q123.276-57.5536 123.276-56.413L123.276-14.0872Q123.276-12.9466 122.188-12.9466L31.6163-12.9466Q30.5273-12.9466 30.5273-14.0872ZM76.7106-8.03252Q81.973-8.03252 86.2667-11.3806Q90.5604-14.7287 93.1001-20.8399Q95.6398-26.9511 95.6398-35.3123Q95.6398-43.6114 93.1001-49.7173Q90.5604-55.8232 86.2667-59.1454Q81.973-62.4677 76.7106-62.4677Q71.5827-62.4677 67.3924-59.1454Q63.2021-55.8232 60.7142-49.7173Q58.2262-43.6114 58.2262-35.3123Q58.2262-26.9511 60.7089-20.8399Q63.1917-14.7287 67.3872-11.3806Q71.5827-8.03252 76.7106-8.03252ZM76.7106-13.764Q73.2513-13.764 70.3099-16.3866Q67.3685-19.0093 65.6115-23.8351Q63.8544-28.6609 63.8544-35.3123Q63.8544-41.9016 65.6115-46.6963Q67.3685-51.4909 70.3099-54.1082Q73.2513-56.7255 76.7106-56.7255Q80.3148-56.7255 83.3492-54.1082Q86.3836-51.4909 88.1924-46.6963Q90.0012-41.9016 90.0012-35.3123Q90.0012-28.6609 88.1924-23.8351Q86.3836-19.0093 83.3492-16.3866Q80.3148-13.764 76.7106-13.764Z"/>
  </g>
  <g id="Light-M" transform="matrix(1 0 0 1 1078.12 1126)">
   <path d="M12.4609 0.386117Q12.4609 1.90254 13.3508 2.80956Q14.2406 3.71659 15.757 3.71659L134.265 3.71659Q135.782 3.71659 136.671 2.80956Q137.561 1.90254 137.561 0.386117L137.561-70.8521Q137.561-72.3685 136.671-73.2583Q135.782-74.1482 134.265-74.1482L15.757-74.1482Q14.2406-74.1482 13.3508-73.2583Q12.4609-72.3685 12.4609-70.8521ZM18.5007-3.57635L18.5007-66.8896Q18.5007-68.1358 19.7539-68.1358L130.268-68.1358Q131.549-68.1358 131.549-66.8896L131.549-3.57635Q131.549-2.32968 130.268-2.32968L19.7539-2.32968Q18.5007-2.32968 18.5007-3.57635ZM24.073-10.3257Q24.073-7.92988 26.4967-7.92988L123.553-7.92988Q125.949-7.92988 125.949-10.3257L125.949-60.1403Q125.949-62.5361 123.553-62.5361L26.4967-62.5361Q24.073-62.5361 24.073-60.1403ZM28.2001-12.9922L28.2001-57.4738Q28.2001-58.4434 29.1353-58.4434L120.887-58.4434Q121.822-58.4434 121.822-57.4738L121.822-12.9922Q121.822-12.0226 120.887-12.0226L29.1353-12.0226Q28.2001-12.0226 28.2001-12.9922ZM74.9138-7.92988Q79.9198-7.92988 84.2049-11.2009Q88.4899-14.472 91.1067-20.5918Q93.7234-26.7116 93.7234-35.2951Q93.7234-43.8167 91.1067-49.9226Q88.4899-56.0284 84.2049-59.2823Q79.9198-62.5361 74.9138-62.5361Q69.9572-62.5361 65.7412-59.2823Q61.5252-56.0284 58.9431-49.9226Q56.361-43.8167 56.361-35.2951Q56.361-26.7116 58.9294-20.5918Q61.4978-14.472 65.7275-11.2009Q69.9572-7.92988 74.9138-7.92988ZM74.9138-12.5491Q71.3007-12.5491 68.0855-15.2317Q64.8703-17.9142 62.8909-22.9882Q60.9114-28.0621 60.9114-35.2951Q60.9114-42.4662 62.8909-47.509Q64.8703-52.5518 68.0855-55.2204Q71.3007-57.889 74.9138-57.889Q78.6037-57.889 81.8606-55.2204Q85.1175-52.5518 87.1315-47.509Q89.1456-42.4662 89.1456-35.2951Q89.1456-28.0621 87.1315-22.9882Q85.1175-17.9142 81.8606-15.2317Q78.6037-12.5491 74.9138-12.5491Z"/>
  </g>
  <g id="Thin-M" transform="matrix(1 0 0 1 783.912 1126)">
   <path d="M12.4609-0.677363Q12.4609 0.499519 13.1357 1.18013Q13.8105 1.86073 14.9874 1.86073L130.033 1.86073Q131.21 1.86073 131.885 1.18013Q132.56 0.499519 132.56-0.677363L132.56-69.7434Q132.56-70.9203 131.885-71.5951Q131.21-72.2699 130.033-72.2699L14.9874-72.2699Q13.8105-72.2699 13.1357-71.5951Q12.4609-70.9203 12.4609-69.7434ZM16.1019-2.78435L16.1019-67.6364Q16.1019-68.6788 17.106-68.6788L127.915-68.6788Q128.97-68.6788 128.97-67.6364L128.97-2.78435Q128.97-1.7411 127.915-1.7411L17.106-1.7411Q16.1019-1.7411 16.1019-2.78435ZM22.1042-9.60136Q22.1042-7.79414 23.9621-7.79414L121.109-7.79414Q122.917-7.79414 122.917-9.60136L122.917-60.8194Q122.917-62.6266 121.109-62.6266L23.9621-62.6266Q22.1042-62.6266 22.1042-60.8194ZM25.1222-11.5439L25.1222-58.8768Q25.1222-59.6202 25.854-59.6202L119.168-59.6202Q119.899-59.6202 119.899-58.8768L119.899-11.5439Q119.899-10.8006 119.168-10.8006L25.854-10.8006Q25.1222-10.8006 25.1222-11.5439ZM72.5375-7.79414Q77.2042-7.79414 81.4779-10.9633Q85.7516-14.1324 88.4702-20.2637Q91.1889-26.3949 91.1889-35.2723Q91.1889-44.0882 88.4702-50.194Q85.7516-56.2999 81.4779-59.4632Q77.2042-62.6266 72.5375-62.6266Q67.8075-62.6266 63.5574-59.4632Q59.3074-56.2999 56.6008-50.194Q53.8942-44.0882 53.8942-35.2723Q53.8942-26.3949 56.5758-20.2637Q59.2575-14.1324 63.5325-10.9633Q67.8075-7.79414 72.5375-7.79414ZM72.5375-10.9423Q68.7209-10.9423 65.1435-13.7041Q61.5661-16.466 59.2926-21.868Q57.0191-27.2701 57.0191-35.2723Q57.0191-43.213 59.2926-48.5839Q61.5661-53.9548 65.1435-56.6913Q68.7209-59.4277 72.5375-59.4277Q76.3406-59.4277 79.8918-56.6913Q83.443-53.9548 85.7285-48.5839Q88.0141-43.213 88.0141-35.2723Q88.0141-27.2701 85.7285-21.868Q83.443-16.466 79.8918-13.7041Q76.3406-10.9423 72.5375-10.9423Z"/>
  </g>
  <g id="Ultralight-M" transform="matrix(1 0 0 1 488.482 1126)">
   <path d="M12.4609-1.22207Q12.4609-0.219099 13.0256 0.345535Q13.5903 0.910168 14.5933 0.910168L127.866 0.910168Q128.869 0.910168 129.433 0.345535Q129.998-0.219099 129.998-1.22207L129.998-69.1755Q129.998-70.1785 129.433-70.7431Q128.869-71.3078 127.866-71.3078L14.5933-71.3078Q13.5903-71.3078 13.0256-70.7431Q12.4609-70.1785 12.4609-69.1755ZM14.8732-2.37869L14.8732-68.0189Q14.8732-68.9569 15.7498-68.9569L126.709-68.9569Q127.648-68.9569 127.648-68.0189L127.648-2.37869Q127.648-1.43963 126.709-1.43963L15.7498-1.43963Q14.8732-1.43963 14.8732-2.37869ZM21.0958-9.23036Q21.0958-7.72462 22.6639-7.72462L119.857-7.72462Q121.363-7.72462 121.363-9.23036L121.363-61.1672Q121.363-62.6729 119.857-62.6729L22.6639-62.6729Q21.0958-62.6729 21.0958-61.1672ZM23.5457-10.8021L23.5457-59.5955Q23.5457-60.2229 24.1733-60.2229L118.287-60.2229Q118.913-60.2229 118.913-59.5955L118.913-10.8021Q118.913-10.1746 118.287-10.1746L24.1733-10.1746Q23.5457-10.1746 23.5457-10.8021ZM71.3203-7.72462Q75.8134-7.72462 80.0812-10.8416Q84.349-13.9585 87.1199-20.0956Q89.8907-26.2326 89.8907-35.2606Q89.8907-44.2272 87.1199-50.3331Q84.349-56.4389 80.0812-59.5559Q75.8134-62.6729 71.3203-62.6729Q66.7064-62.6729 62.4389-59.5559Q58.1714-56.4389 55.401-50.3331Q52.6306-44.2272 52.6306-35.2606Q52.6306-26.2326 55.3704-20.0956Q58.1101-13.9585 62.4082-10.8416Q66.7064-7.72462 71.3203-7.72462ZM71.3203-10.1193Q67.3996-10.1193 63.6367-12.9217Q59.8738-15.7242 57.4496-21.2943Q55.0255-26.8644 55.0255-35.2606Q55.0255-43.5954 57.4496-49.1344Q59.8738-54.6734 63.6367-57.4446Q67.3996-60.2159 71.3203-60.2159Q75.1815-60.2159 78.8834-57.4446Q82.5853-54.6734 85.0099-49.1344Q87.4345-43.5954 87.4345-35.2606Q87.4345-26.8644 85.0099-21.2943Q82.5853-15.7242 78.8834-12.9217Q75.1815-10.1193 71.3203-10.1193Z"/>
  </g>
  <g id="Black-S" transform="matrix(1 0 0 1 2873.29 696)">
   <path d="M9.76562-6.34766Q9.76562-4.39453 10.9863-3.17383Q12.207-1.95312 14.1602-1.95312L106.055-1.95312Q108.057-1.95312 109.253-3.17383Q110.449-4.39453 110.449-6.34766L110.449-64.0625Q110.449-66.0645 109.253-67.2607Q108.057-68.457 106.055-68.457L14.1602-68.457Q12.207-68.457 10.9863-67.2607Q9.76562-66.0645 9.76562-64.0625ZM23.9258-17.0898L23.9258-53.3203Q23.9258-54.2969 24.9023-54.2969L95.3125-54.2969Q96.2891-54.2969 96.2891-53.3203L96.2891-17.0898Q96.2891-16.1133 95.3125-16.1133L24.9023-16.1133Q23.9258-16.1133 23.9258-17.0898ZM25.8789-19.1406Q25.8789-18.0664 26.8555-18.0664L93.3594-18.0664Q94.3359-18.0664 94.3359-19.1406L94.3359-51.2695Q94.3359-52.3438 93.3594-52.3438L26.8555-52.3438Q25.8789-52.3438 25.8789-51.2695ZM30.8105-23.5352L30.8105-46.875Q30.8105-47.3633 31.2988-47.3633L88.916-47.3633Q89.4043-47.3633 89.4043-46.875L89.4043-23.5352Q89.4043-23.0469 88.916-23.0469L31.2988-23.0469Q30.8105-23.0469 30.8105-23.5352ZM59.9609-18.0664Q63.623-18.0664 66.4062-20.2881Q69.1895-22.5098 70.7764-26.3916Q72.3633-30.2734 72.3633-35.2539Q72.3633-40.2344 70.7764-44.0918Q69.1895-47.9492 66.4062-50.1465Q63.623-52.3438 59.9609-52.3438Q56.3965-52.3438 53.6865-50.1465Q50.9766-47.9492 49.4385-44.0918Q47.9004-40.2344 47.9004-35.2539Q47.9004-30.2734 49.4385-26.3916Q50.9766-22.5098 53.6865-20.2881Q56.3965-18.0664 59.9609-18.0664ZM59.9609-24.3164Q58.2031-24.3164 56.7383-25.6836Q55.2734-27.0508 54.4189-29.5166Q53.5645-31.9824 53.5645-35.2539Q53.5645-38.5254 54.4189-40.9424Q55.2734-43.3594 56.7383-44.7266Q58.2031-46.0938 59.9609-46.0938Q61.8652-46.0938 63.3789-44.7266Q64.8926-43.3594 65.7959-40.9424Q66.6992-38.5254 66.6992-35.2539Q66.6992-31.9824 65.7959-29.5166Q64.8926-27.0508 63.3789-25.6836Q61.8652-24.3164 59.9609-24.3164Z"/>
  </g>
  <g id="Heavy-S" transform="matrix(1 0 0 1 2576.33 696)">
   <path d="M9.76562-6.33613Q9.76562-4.48673 10.9114-3.33517Q12.0572-2.18361 13.9066-2.18361L106.815-2.18361Q108.702-2.18361 109.829-3.33517Q110.956-4.48673 110.956-6.33613L110.956-64.0971Q110.956-65.9838 109.829-67.1109Q108.702-68.2381 106.815-68.2381L13.9066-68.2381Q12.0572-68.2381 10.9114-67.1109Q9.76562-65.9838 9.76562-64.0971ZM22.2432-15.6954L22.2432-54.7378Q22.2432-55.7605 23.2774-55.7605L97.4445-55.7605Q98.4787-55.7605 98.4787-54.7378L98.4787-15.6954Q98.4787-14.6727 97.4445-14.6727L23.2774-14.6727Q22.2432-14.6727 22.2432-15.6954ZM24.6688-18.4953Q24.6688-17.0984 25.9911-17.0984L94.7308-17.0984Q96.0531-17.0984 96.0531-18.4953L96.0531-51.938Q96.0531-53.3349 94.7308-53.3349L25.9911-53.3349Q24.6688-53.3349 24.6688-51.938ZM29.4507-22.5095L29.4507-47.9237Q29.4507-48.5273 30.0427-48.5273L90.6793-48.5273Q91.2713-48.5273 91.2713-47.9237L91.2713-22.5095Q91.2713-21.906 90.6793-21.906L30.0427-21.906Q29.4507-21.906 29.4507-22.5095ZM60.203-17.0984Q64.0034-17.0984 66.9249-19.4238Q69.8463-21.7492 71.5197-25.8442Q73.193-29.9392 73.193-35.2654Q73.193-40.5801 71.5197-44.6565Q69.8463-48.7329 66.9249-51.0339Q64.0034-53.3349 60.203-53.3349Q56.5117-53.3349 53.6692-51.0339Q50.8267-48.7329 49.2022-44.6565Q47.5777-40.5801 47.5777-35.2654Q47.5777-29.9392 49.2022-25.8442Q50.8267-21.7492 53.6692-19.4238Q56.5117-17.0984 60.203-17.0984ZM60.203-23.0602Q58.2377-23.0602 56.6057-24.583Q54.9738-26.1058 54.0214-28.8539Q53.0689-31.6021 53.0689-35.2654Q53.0689-38.9172 54.0214-41.6223Q54.9738-44.3274 56.6057-45.8502Q58.2377-47.373 60.203-47.373Q62.3147-47.373 64.007-45.8502Q65.6993-44.3274 66.7006-41.6223Q67.7018-38.9172 67.7018-35.2654Q67.7018-31.6021 66.7006-28.8539Q65.6993-26.1058 64.007-24.583Q62.3147-23.0602 60.203-23.0602Z"/>
  </g>
  <g id="Bold-S" transform="matrix(1 0 0 1 2279.33 696)">
   <path d="M9.76562-6.32324Q9.76562-4.58984 10.8276-3.51562Q11.8896-2.44141 13.623-2.44141L107.666-2.44141Q109.424-2.44141 110.474-3.51562Q111.523-4.58984 111.523-6.32324L111.523-64.1357Q111.523-65.8936 110.474-66.9434Q109.424-67.9932 107.666-67.9932L13.623-67.9932Q11.8896-67.9932 10.8276-66.9434Q9.76562-65.8936 9.76562-64.1357ZM20.3613-14.1357L20.3613-56.3232Q20.3613-57.3975 21.46-57.3975L99.8291-57.3975Q100.928-57.3975 100.928-56.3232L100.928-14.1357Q100.928-13.0615 99.8291-13.0615L21.46-13.0615Q20.3613-13.0615 20.3613-14.1357ZM23.3154-17.7734Q23.3154-16.0156 25.0244-16.0156L96.2646-16.0156Q97.9736-16.0156 97.9736-17.7734L97.9736-52.6855Q97.9736-54.4434 96.2646-54.4434L25.0244-54.4434Q23.3154-54.4434 23.3154-52.6855ZM27.9297-21.3623L27.9297-49.0967Q27.9297-49.8291 28.6377-49.8291L92.6514-49.8291Q93.3594-49.8291 93.3594-49.0967L93.3594-21.3623Q93.3594-20.6299 92.6514-20.6299L28.6377-20.6299Q27.9297-20.6299 27.9297-21.3623ZM60.4736-16.0156Q64.4287-16.0156 67.5049-18.457Q70.5811-20.8984 72.3511-25.2319Q74.1211-29.5654 74.1211-35.2783Q74.1211-40.9668 72.3511-45.2881Q70.5811-49.6094 67.5049-52.0264Q64.4287-54.4434 60.4736-54.4434Q56.6406-54.4434 53.6499-52.0264Q50.6592-49.6094 48.938-45.2881Q47.2168-40.9668 47.2168-35.2783Q47.2168-29.5654 48.938-25.2319Q50.6592-20.8984 53.6499-18.457Q56.6406-16.0156 60.4736-16.0156ZM60.4736-21.6553Q58.2764-21.6553 56.4575-23.3521Q54.6387-25.0488 53.5767-28.1128Q52.5146-31.1768 52.5146-35.2783Q52.5146-39.3555 53.5767-42.3828Q54.6387-45.4102 56.4575-47.1069Q58.2764-48.8037 60.4736-48.8037Q62.8174-48.8037 64.7095-47.1069Q66.6016-45.4102 67.7124-42.3828Q68.8232-39.3555 68.8232-35.2783Q68.8232-31.1768 67.7124-28.1128Q66.6016-25.0488 64.7095-23.3521Q62.8174-21.6553 60.4736-21.6553Z"/>
  </g>
  <g id="Semibold-S" transform="matrix(1 0 0 1 1982.43 696)">
   <path d="M9.76562-6.31436Q9.76562-4.66094 10.7699-3.64004Q11.7741-2.61914 13.4275-2.61914L108.253-2.61914Q109.921-2.61914 110.918-3.64004Q111.914-4.66094 111.914-6.31436L111.914-64.1624Q111.914-65.8313 110.918-66.8278Q109.921-67.8243 108.253-67.8243L13.4275-67.8243Q11.7741-67.8243 10.7699-66.8278Q9.76562-65.8313 9.76562-64.1624ZM19.0639-13.0604L19.0639-57.4163Q19.0639-58.5261 20.2069-58.5261L101.473-58.5261Q102.616-58.5261 102.616-57.4163L102.616-13.0604Q102.616-11.9507 101.473-11.9507L20.2069-11.9507Q19.0639-11.9507 19.0639-13.0604ZM22.3823-17.2758Q22.3823-15.2691 24.3579-15.2691L97.3222-15.2691Q99.2978-15.2691 99.2978-17.2758L99.2978-53.201Q99.2978-55.2076 97.3222-55.2076L24.3579-55.2076Q22.3823-55.2076 22.3823-53.201ZM26.8811-20.5714L26.8811-49.9054Q26.8811-50.7267 27.669-50.7267L94.011-50.7267Q94.799-50.7267 94.799-49.9054L94.799-20.5714Q94.799-19.7501 94.011-19.7501L27.669-19.7501Q26.8811-19.7501 26.8811-20.5714ZM60.6603-15.2691Q64.722-15.2691 67.9048-17.7905Q71.0876-20.3119 72.9243-24.8098Q74.7609-29.3077 74.7609-35.2872Q74.7609-41.2334 72.9243-45.7235Q71.0876-50.2137 67.9048-52.7106Q64.722-55.2076 60.6603-55.2076Q56.7295-55.2076 53.6366-52.7106Q50.5437-50.2137 48.7558-45.7235Q46.968-41.2334 46.968-35.2872Q46.968-29.3077 48.7558-24.8098Q50.5437-20.3119 53.6366-17.7905Q56.7295-15.2691 60.6603-15.2691ZM60.6603-20.6866Q58.303-20.6866 56.3553-22.5034Q54.4076-24.3201 53.2701-27.6018Q52.1325-30.8835 52.1325-35.2872Q52.1325-39.6576 53.2701-42.9071Q54.4076-46.1566 56.3553-47.9734Q58.303-49.7901 60.6603-49.7901Q63.164-49.7901 65.1938-47.9734Q67.2236-46.1566 68.41-42.9071Q69.5964-39.6576 69.5964-35.2872Q69.5964-30.8835 68.41-27.6018Q67.2236-24.3201 65.1938-22.5034Q63.164-20.6866 60.6603-20.6866Z"/>
  </g>
  <g id="Medium-S" transform="matrix(1 0 0 1 1685.57 696)">
   <path d="M9.76562-6.30762Q9.76562-4.71484 10.7261-3.73438Q11.6865-2.75391 13.2793-2.75391L108.697-2.75391Q110.299-2.75391 111.255-3.73438Q112.211-4.71484 112.211-6.30762L112.211-64.1826Q112.211-65.7842 111.255-66.7402Q110.299-67.6963 108.697-67.6963L13.2793-67.6963Q11.6865-67.6963 10.7261-66.7402Q9.76562-65.7842 9.76562-64.1826ZM18.0801-12.2451L18.0801-58.2451Q18.0801-59.3818 19.2568-59.3818L102.72-59.3818Q103.896-59.3818 103.896-58.2451L103.896-12.2451Q103.896-11.1084 102.72-11.1084L19.2568-11.1084Q18.0801-11.1084 18.0801-12.2451ZM21.6748-16.8984Q21.6748-14.7031 23.8525-14.7031L98.124-14.7031Q100.302-14.7031 100.302-16.8984L100.302-53.5918Q100.302-55.7871 98.124-55.7871L23.8525-55.7871Q21.6748-55.7871 21.6748-53.5918ZM26.0859-19.9717L26.0859-50.5186Q26.0859-51.4072 26.9346-51.4072L95.042-51.4072Q95.8906-51.4072 95.8906-50.5186L95.8906-19.9717Q95.8906-19.083 95.042-19.083L26.9346-19.083Q26.0859-19.083 26.0859-19.9717ZM60.8018-14.7031Q64.9443-14.7031 68.208-17.2852Q71.4717-19.8672 73.3589-24.4897Q75.2461-29.1123 75.2461-35.2939Q75.2461-41.4355 73.3589-46.0537Q71.4717-50.6719 68.208-53.2295Q64.9443-55.7871 60.8018-55.7871Q56.7969-55.7871 53.6265-53.2295Q50.4561-50.6719 48.6177-46.0537Q46.7793-41.4355 46.7793-35.2939Q46.7793-29.1123 48.6177-24.4897Q50.4561-19.8672 53.6265-17.2852Q56.7969-14.7031 60.8018-14.7031ZM60.8018-19.9521Q58.3232-19.9521 56.2778-21.8599Q54.2324-23.7676 53.0376-27.2144Q51.8428-30.6611 51.8428-35.2939Q51.8428-39.8867 53.0376-43.3047Q54.2324-46.7227 56.2778-48.6304Q58.3232-50.5381 60.8018-50.5381Q63.4268-50.5381 65.561-48.6304Q67.6953-46.7227 68.939-43.3047Q70.1826-39.8867 70.1826-35.2939Q70.1826-30.6611 68.939-27.2144Q67.6953-23.7676 65.561-21.8599Q63.4268-19.9521 60.8018-19.9521Z"/>
  </g>
  <g id="Regular-S" transform="matrix(1 0 0 1 1388.66 696)">
   <path d="M9.76562-6.29883Q9.76562-4.78516 10.6689-3.85742Q11.5723-2.92969 13.0859-2.92969L109.277-2.92969Q110.791-2.92969 111.694-3.85742Q112.598-4.78516 112.598-6.29883L112.598-64.209Q112.598-65.7227 111.694-66.626Q110.791-67.5293 109.277-67.5293L13.0859-67.5293Q11.5723-67.5293 10.6689-66.626Q9.76562-65.7227 9.76562-64.209ZM16.7969-11.1816L16.7969-59.3262Q16.7969-60.498 18.0176-60.498L104.346-60.498Q105.566-60.498 105.566-59.3262L105.566-11.1816Q105.566-10.0098 104.346-10.0098L18.0176-10.0098Q16.7969-10.0098 16.7969-11.1816ZM20.752-16.4062Q20.752-13.9648 23.1934-13.9648L99.1699-13.9648Q101.611-13.9648 101.611-16.4062L101.611-54.1016Q101.611-56.543 99.1699-56.543L23.1934-56.543Q20.752-56.543 20.752-54.1016ZM25.0488-19.1895L25.0488-51.3184Q25.0488-52.2949 25.9766-52.2949L96.3867-52.2949Q97.3145-52.2949 97.3145-51.3184L97.3145-19.1895Q97.3145-18.2129 96.3867-18.2129L25.9766-18.2129Q25.0488-18.2129 25.0488-19.1895ZM60.9863-13.9648Q65.2344-13.9648 68.6035-16.626Q71.9727-19.2871 73.9258-24.0723Q75.8789-28.8574 75.8789-35.3027Q75.8789-41.6992 73.9258-46.4844Q71.9727-51.2695 68.6035-53.9062Q65.2344-56.543 60.9863-56.543Q56.8848-56.543 53.6133-53.9062Q50.3418-51.2695 48.4375-46.4844Q46.5332-41.6992 46.5332-35.3027Q46.5332-28.8574 48.4375-24.0723Q50.3418-19.2871 53.6133-16.626Q56.8848-13.9648 60.9863-13.9648ZM60.9863-18.9941Q58.3496-18.9941 56.1768-21.0205Q54.0039-23.0469 52.7344-26.709Q51.4648-30.3711 51.4648-35.3027Q51.4648-40.1855 52.7344-43.8232Q54.0039-47.4609 56.1768-49.4873Q58.3496-51.5137 60.9863-51.5137Q63.7695-51.5137 66.04-49.4873Q68.3105-47.4609 69.6289-43.8232Q70.9473-40.1855 70.9473-35.3027Q70.9473-30.3711 69.6289-26.709Q68.3105-23.0469 66.04-21.0205Q63.7695-18.9941 60.9863-18.9941Z"/>
  </g>
  <g id="Light-S" transform="matrix(1 0 0 1 1093.62 696)">
   <path d="M9.76562-7.01014Q9.76562-5.72357 10.5251-4.94728Q11.2846-4.17099 12.5712-4.17099L106.447-4.17099Q107.733-4.17099 108.493-4.94728Q109.252-5.72357 109.252-7.01014L109.252-63.4674Q109.252-64.754 108.493-65.5135Q107.733-66.273 106.447-66.273L12.5712-66.273Q11.2846-66.273 10.5251-65.5135Q9.76562-64.754 9.76562-63.4674ZM15.1924-10.6519L15.1924-59.8256Q15.1924-60.8612 16.2465-60.8612L102.772-60.8612Q103.841-60.8612 103.841-59.8256L103.841-10.6519Q103.841-9.61609 102.772-9.61609L16.2465-9.61609Q15.1924-9.61609 15.1924-10.6519ZM19.4351-15.9218Q19.4351-13.8741 21.4981-13.8741L97.5352-13.8741Q99.5829-13.8741 99.5829-15.9218L99.5829-54.5558Q99.5829-56.6035 97.5352-56.6035L21.4981-56.6035Q19.4351-56.6035 19.4351-54.5558ZM22.9902-18.2208L22.9902-52.2568Q22.9902-53.082 23.7818-53.082L95.2365-53.082Q96.0279-53.082 96.0279-52.2568L96.0279-18.2208Q96.0279-17.3955 95.2365-17.3955L23.7818-17.3955Q22.9902-17.3955 22.9902-18.2208ZM59.3969-13.8741Q63.4181-13.8741 66.7796-16.467Q70.1411-19.06 72.1624-23.8528Q74.1837-28.6456 74.1837-35.2875Q74.1837-41.8808 72.1624-46.666Q70.1411-51.4511 66.7796-54.0273Q63.4181-56.6035 59.3969-56.6035Q55.4469-56.6035 52.1526-54.0273Q48.8584-51.4511 46.8708-46.666Q44.8832-41.8808 44.8832-35.2875Q44.8832-28.6456 46.8633-23.8528Q48.8434-19.06 52.1451-16.467Q55.4469-13.8741 59.3969-13.8741ZM59.3969-17.9194Q56.6241-17.9194 54.209-19.9988Q51.7939-22.0782 50.3277-25.9598Q48.8614-29.8414 48.8614-35.2875Q48.8614-40.685 50.3277-44.5422Q51.7939-48.3994 54.209-50.4711Q56.6241-52.5429 59.3969-52.5429Q62.2559-52.5429 64.7232-50.4711Q67.1906-48.3994 68.6905-44.5422Q70.1904-40.685 70.1904-35.2875Q70.1904-29.8414 68.6905-25.9598Q67.1906-22.0782 64.7232-19.9988Q62.2559-17.9194 59.3969-17.9194Z"/>
  </g>
  <g id="Thin-S" transform="matrix(1 0 0 1 799.125 696)">
   <path d="M9.76562-7.95091Q9.76562-6.9647 10.3349-6.38871Q10.9042-5.81271 11.8904-5.81271L102.703-5.81271Q103.689-5.81271 104.259-6.38871Q104.828-6.9647 104.828-7.95091L104.828-62.4866Q104.828-63.4728 104.259-64.0421Q103.689-64.6114 102.703-64.6114L11.8904-64.6114Q10.9042-64.6114 10.3349-64.0421Q9.76562-63.4728 9.76562-62.4866ZM13.0704-9.95129L13.0704-60.4862Q13.0704-61.3415 13.9042-61.3415L100.69-61.3415Q101.559-61.3415 101.559-60.4862L101.559-9.95129Q101.559-9.09542 100.69-9.09542L13.9042-9.09542Q13.0704-9.09542 13.0704-9.95129ZM17.6935-15.281Q17.6935-13.754 19.256-13.754L95.3731-13.754Q96.9002-13.754 96.9002-15.281L96.9002-55.1565Q96.9002-56.6835 95.3731-56.6835L19.256-56.6835Q17.6935-56.6835 17.6935-55.1565ZM20.2674-16.9396L20.2674-53.4979Q20.2674-54.123 20.8791-54.123L93.7152-54.123Q94.3263-54.123 94.3263-53.4979L94.3263-16.9396Q94.3263-16.3145 93.7152-16.3145L20.8791-16.3145Q20.2674-16.3145 20.2674-16.9396ZM57.2947-13.754Q61.0159-13.754 64.3673-16.2568Q67.7187-18.7596 69.8301-23.5625Q71.9415-28.3654 71.9415-35.2673Q71.9415-42.121 69.8301-46.9061Q67.7187-51.6913 64.3673-54.1874Q61.0159-56.6835 57.2947-56.6835Q53.5452-56.6835 50.2208-54.1874Q46.8965-51.6913 44.7987-46.9061Q42.701-42.121 42.701-35.2673Q42.701-28.3654 44.7813-23.5625Q46.8616-18.7596 50.2034-16.2568Q53.5452-13.754 57.2947-13.754ZM57.2947-16.498Q54.342-16.498 51.6065-18.6475Q48.871-20.797 47.1446-24.9689Q45.4182-29.1407 45.4182-35.2673Q45.4182-41.3456 47.1446-45.493Q48.871-49.6405 51.6065-51.7723Q54.342-53.9041 57.2947-53.9041Q60.2539-53.9041 62.9816-51.7723Q65.7093-49.6405 67.4494-45.493Q69.1895-41.3456 69.1895-35.2673Q69.1895-29.1407 67.4494-24.9689Q65.7093-20.797 62.9816-18.6475Q60.2539-16.498 57.2947-16.498Z"/>
  </g>
  <g id="Ultralight-S" transform="matrix(1 0 0 1 503.547 696)">
   <path d="M9.76562-8.43277Q9.76562-7.6004 10.2375-7.127Q10.7094-6.65359 11.5417-6.65359L100.786-6.65359Q101.618-6.65359 102.09-7.127Q102.562-7.6004 102.562-8.43277L102.562-61.9843Q102.562-62.8166 102.09-63.2885Q101.618-63.7604 100.786-63.7604L11.5417-63.7604Q10.7094-63.7604 10.2375-63.2885Q9.76562-62.8166 9.76562-61.9843ZM11.9835-9.59244L11.9835-60.8246Q11.9835-61.5875 12.7045-61.5875L99.6231-61.5875Q100.39-61.5875 100.39-60.8246L100.39-9.59244Q100.39-8.82874 99.6231-8.82874L12.7045-8.82874Q11.9835-8.82874 11.9835-9.59244ZM16.8015-14.9529Q16.8015-13.6925 18.1076-13.6925L94.2657-13.6925Q95.5261-13.6925 95.5261-14.9529L95.5261-55.4642Q95.5261-56.7245 94.2657-56.7245L18.1076-56.7245Q16.8015-56.7245 16.8015-55.4642ZM18.8728-16.2834L18.8728-54.1336Q18.8728-54.6562 19.3924-54.6562L92.9359-54.6562Q93.4547-54.6562 93.4547-54.1336L93.4547-16.2834Q93.4547-15.7608 92.9359-15.7608L19.3924-15.7608Q18.8728-15.7608 18.8728-16.2834ZM56.218-13.6925Q59.7855-13.6925 63.1317-16.1491Q66.478-18.6058 68.6356-23.4138Q70.7932-28.2219 70.7932-35.257Q70.7932-42.244 68.6356-47.0291Q66.478-51.8143 63.1317-54.2694Q59.7855-56.7245 56.218-56.7245Q52.5711-56.7245 49.2313-54.2694Q45.8916-51.8143 43.7374-47.0291Q41.5833-42.244 41.5833-35.257Q41.5833-28.2219 43.7149-23.4138Q45.8466-18.6058 49.2088-16.1491Q52.5711-13.6925 56.218-13.6925ZM56.218-15.77Q53.1731-15.77 50.2735-17.9554Q47.374-20.1408 45.5143-24.4614Q43.6546-28.7819 43.6546-35.257Q43.6546-41.684 45.5143-45.9801Q47.374-50.2762 50.2735-52.4387Q53.1731-54.6013 56.218-54.6013Q59.2285-54.6013 62.0895-52.4387Q64.9506-50.2762 66.8137-45.9801Q68.6768-41.684 68.6768-35.257Q68.6768-28.7819 66.8137-24.4614Q64.9506-20.1408 62.0895-17.9554Q59.2285-15.77 56.218-15.77Z"/>
  </g>
 </g>
</svg>
