<?xml version="1.0" encoding="UTF-8"?>
<!--Generator: Apple Native CoreSVG 175.5-->
<!DOCTYPE svg
PUBLIC "-//W3C//DTD SVG 1.1//EN"
       "http://www.w3.org/Graphics/SVG/1.1/DTD/svg11.dtd">
<svg version="1.1" xmlns="http://www.w3.org/2000/svg" xmlns:xlink="http://www.w3.org/1999/xlink" width="3300" height="2200">
 <!--glyph: "uni10004D.medium", point size: 100.0, font version: "18.0d9e1", template writer version: "84"-->
 <g id="Notes">
  <rect height="2200" id="artboard" style="fill:white;opacity:1" width="3300" x="0" y="0"/>
  <line style="fill:none;stroke:black;opacity:1;stroke-width:0.5;" x1="263" x2="3036" y1="292" y2="292"/>
  <text style="stroke:none;fill:black;font-family:sans-serif;font-size:13;font-weight:bold;" transform="matrix(1 0 0 1 263 322)">Weight/Scale Variations</text>
  <text style="stroke:none;fill:black;font-family:sans-serif;font-size:13;text-anchor:middle;" transform="matrix(1 0 0 1 559.711 322)">Ultralight</text>
  <text style="stroke:none;fill:black;font-family:sans-serif;font-size:13;text-anchor:middle;" transform="matrix(1 0 0 1 856.422 322)">Thin</text>
  <text style="stroke:none;fill:black;font-family:sans-serif;font-size:13;text-anchor:middle;" transform="matrix(1 0 0 1 1153.13 322)">Light</text>
  <text style="stroke:none;fill:black;font-family:sans-serif;font-size:13;text-anchor:middle;" transform="matrix(1 0 0 1 1449.84 322)">Regular</text>
  <text style="stroke:none;fill:black;font-family:sans-serif;font-size:13;text-anchor:middle;" transform="matrix(1 0 0 1 1746.56 322)">Medium</text>
  <text style="stroke:none;fill:black;font-family:sans-serif;font-size:13;text-anchor:middle;" transform="matrix(1 0 0 1 2043.27 322)">Semibold</text>
  <text style="stroke:none;fill:black;font-family:sans-serif;font-size:13;text-anchor:middle;" transform="matrix(1 0 0 1 2339.98 322)">Bold</text>
  <text style="stroke:none;fill:black;font-family:sans-serif;font-size:13;text-anchor:middle;" transform="matrix(1 0 0 1 2636.69 322)">Heavy</text>
  <text style="stroke:none;fill:black;font-family:sans-serif;font-size:13;text-anchor:middle;" transform="matrix(1 0 0 1 2933.4 322)">Black</text>
  <line style="fill:none;stroke:black;opacity:1;stroke-width:0.5;" x1="263" x2="3036" y1="1903" y2="1903"/>
  <g transform="matrix(1 0 0 1 263 1933)">
   <path d="M9.24805 0.830078Q10.8691 0.830078 12.2949 0.214844Q13.7207-0.400391 14.8096-1.49414Q15.8984-2.58789 16.5186-4.01367Q17.1387-5.43945 17.1387-7.05078Q17.1387-8.66211 16.5186-10.0879Q15.8984-11.5137 14.8047-12.6074Q13.7109-13.7012 12.2852-14.3164Q10.8594-14.9316 9.23828-14.9316Q7.62695-14.9316 6.20117-14.3164Q4.77539-13.7012 3.69141-12.6074Q2.60742-11.5137 1.9873-10.0879Q1.36719-8.66211 1.36719-7.05078Q1.36719-5.43945 1.9873-4.01367Q2.60742-2.58789 3.69629-1.49414Q4.78516-0.400391 6.21094 0.214844Q7.63672 0.830078 9.24805 0.830078ZM9.24805-0.654297Q7.91992-0.654297 6.7627-1.14746Q5.60547-1.64062 4.73145-2.51953Q3.85742-3.39844 3.36426-4.56055Q2.87109-5.72266 2.87109-7.05078Q2.87109-8.37891 3.35938-9.54102Q3.84766-10.7031 4.72168-11.582Q5.5957-12.4609 6.75293-12.9541Q7.91016-13.4473 9.23828-13.4473Q10.5762-13.4473 11.7383-12.9541Q12.9004-12.4609 13.7793-11.582Q14.6582-10.7031 15.1514-9.54102Q15.6445-8.37891 15.6445-7.05078Q15.6445-5.72266 15.1514-4.56055Q14.6582-3.39844 13.7793-2.51953Q12.9004-1.64062 11.7432-1.14746Q10.5859-0.654297 9.24805-0.654297ZM5.6543-7.05078Q5.6543-6.72852 5.85938-6.52832Q6.06445-6.32812 6.40625-6.32812L8.51562-6.32812L8.51562-4.20898Q8.51562-3.88672 8.71094-3.67676Q8.90625-3.4668 9.23828-3.4668Q9.56055-3.4668 9.77051-3.67676Q9.98047-3.88672 9.98047-4.20898L9.98047-6.32812L12.0898-6.32812Q12.4219-6.32812 12.627-6.52832Q12.832-6.72852 12.832-7.05078Q12.832-7.38281 12.627-7.58789Q12.4219-7.79297 12.0898-7.79297L9.98047-7.79297L9.98047-9.90234Q9.98047-10.2344 9.77051-10.4443Q9.56055-10.6543 9.23828-10.6543Q8.90625-10.6543 8.71094-10.4443Q8.51562-10.2344 8.51562-9.90234L8.51562-7.79297L6.40625-7.79297Q6.06445-7.79297 5.85938-7.58789Q5.6543-7.38281 5.6543-7.05078Z"/>
  </g>
  <g transform="matrix(1 0 0 1 281.867 1933)">
   <path d="M11.709 2.91016Q13.75 2.91016 15.5518 2.12891Q17.3535 1.34766 18.7305-0.0292969Q20.1074-1.40625 20.8887-3.20801Q21.6699-5.00977 21.6699-7.05078Q21.6699-9.0918 20.8887-10.8936Q20.1074-12.6953 18.7305-14.0723Q17.3535-15.4492 15.5469-16.2305Q13.7402-17.0117 11.6992-17.0117Q9.6582-17.0117 7.85645-16.2305Q6.05469-15.4492 4.68262-14.0723Q3.31055-12.6953 2.5293-10.8936Q1.74805-9.0918 1.74805-7.05078Q1.74805-5.00977 2.5293-3.20801Q3.31055-1.40625 4.6875-0.0292969Q6.06445 1.34766 7.86621 2.12891Q9.66797 2.91016 11.709 2.91016ZM11.709 1.25Q9.98047 1.25 8.47656 0.605469Q6.97266-0.0390625 5.83496-1.17676Q4.69727-2.31445 4.05762-3.81836Q3.41797-5.32227 3.41797-7.05078Q3.41797-8.7793 4.05762-10.2832Q4.69727-11.7871 5.83008-12.9297Q6.96289-14.0723 8.4668-14.7119Q9.9707-15.3516 11.6992-15.3516Q13.4277-15.3516 14.9365-14.7119Q16.4453-14.0723 17.583-12.9297Q18.7207-11.7871 19.3652-10.2832Q20.0098-8.7793 20.0098-7.05078Q20.0098-5.32227 19.3701-3.81836Q18.7305-2.31445 17.5879-1.17676Q16.4453-0.0390625 14.9414 0.605469Q13.4375 1.25 11.709 1.25ZM7.17773-7.05078Q7.17773-6.69922 7.41211-6.47461Q7.64648-6.25 8.01758-6.25L10.8887-6.25L10.8887-3.36914Q10.8887-2.99805 11.1133-2.76855Q11.3379-2.53906 11.6895-2.53906Q12.0605-2.53906 12.29-2.76855Q12.5195-2.99805 12.5195-3.36914L12.5195-6.25L15.4004-6.25Q15.7715-6.25 16.001-6.47461Q16.2305-6.69922 16.2305-7.05078Q16.2305-7.42188 16.001-7.65137Q15.7715-7.88086 15.4004-7.88086L12.5195-7.88086L12.5195-10.752Q12.5195-11.1328 12.29-11.3623Q12.0605-11.5918 11.6895-11.5918Q11.3379-11.5918 11.1133-11.3574Q10.8887-11.123 10.8887-10.752L10.8887-7.88086L8.01758-7.88086Q7.63672-7.88086 7.40723-7.65137Q7.17773-7.42188 7.17773-7.05078Z"/>
  </g>
  <g transform="matrix(1 0 0 1 305.646 1933)">
   <path d="M14.9707 5.66406Q17.0605 5.66406 18.96 5.01465Q20.8594 4.36523 22.4512 3.19336Q24.043 2.02148 25.2197 0.429688Q26.3965-1.16211 27.0459-3.06641Q27.6953-4.9707 27.6953-7.05078Q27.6953-9.14062 27.0459-11.04Q26.3965-12.9395 25.2197-14.5312Q24.043-16.123 22.4512-17.2998Q20.8594-18.4766 18.9551-19.126Q17.0508-19.7754 14.9609-19.7754Q12.8711-19.7754 10.9717-19.126Q9.07227-18.4766 7.48535-17.2998Q5.89844-16.123 4.72168-14.5312Q3.54492-12.9395 2.90039-11.04Q2.25586-9.14062 2.25586-7.05078Q2.25586-4.9707 2.90527-3.06641Q3.55469-1.16211 4.72656 0.429688Q5.89844 2.02148 7.49023 3.19336Q9.08203 4.36523 10.9814 5.01465Q12.8809 5.66406 14.9707 5.66406ZM14.9707 3.84766Q13.1641 3.84766 11.5283 3.2959Q9.89258 2.74414 8.53516 1.74805Q7.17773 0.751953 6.17676-0.610352Q5.17578-1.97266 4.62891-3.6084Q4.08203-5.24414 4.08203-7.05078Q4.08203-8.86719 4.62891-10.5029Q5.17578-12.1387 6.17188-13.501Q7.16797-14.8633 8.52539-15.8594Q9.88281-16.8555 11.5186-17.4023Q13.1543-17.9492 14.9609-17.9492Q16.7773-17.9492 18.4131-17.4023Q20.0488-16.8555 21.4111-15.8594Q22.7734-14.8633 23.7744-13.501Q24.7754-12.1387 25.3223-10.5029Q25.8691-8.86719 25.8691-7.05078Q25.8691-5.24414 25.3223-3.6084Q24.7754-1.97266 23.7793-0.610352Q22.7832 0.751953 21.4209 1.74805Q20.0586 2.74414 18.4229 3.2959Q16.7871 3.84766 14.9707 3.84766ZM9.19922-7.05078Q9.19922-6.66992 9.45801-6.4209Q9.7168-6.17188 10.1172-6.17188L14.0625-6.17188L14.0625-2.2168Q14.0625-1.81641 14.3115-1.55762Q14.5605-1.29883 14.9512-1.29883Q15.3516-1.29883 15.6104-1.55273Q15.8691-1.80664 15.8691-2.2168L15.8691-6.17188L19.8242-6.17188Q20.2246-6.17188 20.4785-6.4209Q20.7324-6.66992 20.7324-7.05078Q20.7324-7.46094 20.4785-7.71484Q20.2246-7.96875 19.8242-7.96875L15.8691-7.96875L15.8691-11.9141Q15.8691-12.3242 15.6104-12.583Q15.3516-12.8418 14.9512-12.8418Q14.5605-12.8418 14.3115-12.583Q14.0625-12.3242 14.0625-11.9141L14.0625-7.96875L10.1172-7.96875Q9.70703-7.96875 9.45312-7.71484Q9.19922-7.46094 9.19922-7.05078Z"/>
  </g>
  <text style="stroke:none;fill:black;font-family:sans-serif;font-size:13;font-weight:bold;" transform="matrix(1 0 0 1 263 1953)">Design Variations</text>
  <text style="stroke:none;fill:black;font-family:sans-serif;font-size:13;" transform="matrix(1 0 0 1 263 1971)">Symbols are supported in up to nine weights and three scales.</text>
  <text style="stroke:none;fill:black;font-family:sans-serif;font-size:13;" transform="matrix(1 0 0 1 263 1989)">For optimal layout with text and other symbols, vertically align</text>
  <text style="stroke:none;fill:black;font-family:sans-serif;font-size:13;" transform="matrix(1 0 0 1 263 2007)">symbols with the adjacent text.</text>
  <line style="fill:none;stroke:#00AEEF;stroke-width:0.5;opacity:1.0;" x1="776" x2="776" y1="1919" y2="1933"/>
  <g transform="matrix(1 0 0 1 776 1933)">
   <path d="M3.31055 0.15625Q3.70117 0.15625 3.91602-0.00976562Q4.13086-0.175781 4.26758-0.585938L5.52734-4.0332L11.2891-4.0332L12.5488-0.585938Q12.6855-0.175781 12.9004-0.00976562Q13.1152 0.15625 13.4961 0.15625Q13.8867 0.15625 14.1162-0.0585938Q14.3457-0.273438 14.3457-0.644531Q14.3457-0.869141 14.2383-1.17188L9.6582-13.3691Q9.48242-13.8184 9.17969-14.043Q8.87695-14.2676 8.4082-14.2676Q7.5-14.2676 7.17773-13.3789L2.59766-1.16211Q2.49023-0.859375 2.49023-0.634766Q2.49023-0.263672 2.70996-0.0537109Q2.92969 0.15625 3.31055 0.15625ZM6.00586-5.51758L8.37891-12.0898L8.42773-12.0898L10.8008-5.51758Z"/>
  </g>
  <line style="fill:none;stroke:#00AEEF;stroke-width:0.5;opacity:1.0;" x1="793.197" x2="793.197" y1="1919" y2="1933"/>
  <text style="stroke:none;fill:black;font-family:sans-serif;font-size:13;font-weight:bold;" transform="matrix(1 0 0 1 776 1953)">Margins</text>
  <text style="stroke:none;fill:black;font-family:sans-serif;font-size:13;" transform="matrix(1 0 0 1 776 1971)">Leading and trailing margins on the left and right side of each symbol</text>
  <text style="stroke:none;fill:black;font-family:sans-serif;font-size:13;" transform="matrix(1 0 0 1 776 1989)">can be adjusted by modifying the x-location of the margin guidelines.</text>
  <text style="stroke:none;fill:black;font-family:sans-serif;font-size:13;" transform="matrix(1 0 0 1 776 2007)">Modifications are automatically applied proportionally to all</text>
  <text style="stroke:none;fill:black;font-family:sans-serif;font-size:13;" transform="matrix(1 0 0 1 776 2025)">scales and weights.</text>
  <g transform="matrix(1 0 0 1 1289 1933)">
   <path d="M2.8418 1.86523L4.54102 3.57422Q5.18555 4.22852 5.90332 4.17969Q6.62109 4.13086 7.31445 3.35938L18.0078-8.42773L17.041-9.4043L6.42578 2.27539Q6.16211 2.57812 5.89355 2.61719Q5.625 2.65625 5.27344 2.30469L4.10156 1.14258Q3.75 0.791016 3.79395 0.522461Q3.83789 0.253906 4.14062-0.0195312L15.6152-10.8203L14.6387-11.7871L3.04688-0.898438Q2.30469-0.214844 2.25098 0.498047Q2.19727 1.21094 2.8418 1.86523ZM9.25781-16.3281Q8.94531-16.0254 8.90625-15.6348Q8.86719-15.2441 9.04297-14.9512Q9.21875-14.6777 9.55566-14.541Q9.89258-14.4043 10.3809-14.5215Q11.4746-14.7754 12.5977-14.7314Q13.7207-14.6875 14.7949-13.9844L14.209-12.5293Q13.9551-11.9043 14.0674-11.4404Q14.1797-10.9766 14.5801-10.5664L16.875-8.25195Q17.2363-7.88086 17.5781-7.82227Q17.9199-7.76367 18.3398-7.8418L19.4043-8.03711L20.0684-7.36328L20.0293-6.80664Q20-6.43555 20.1221-6.12305Q20.2441-5.81055 20.6055-5.44922L21.3672-4.70703Q21.7285-4.3457 22.1533-4.33105Q22.5781-4.31641 22.9297-4.66797L25.8398-7.58789Q26.1914-7.93945 26.1816-8.35449Q26.1719-8.76953 25.8105-9.13086L25.0391-9.89258Q24.6875-10.2539 24.3799-10.3857Q24.0723-10.5176 23.7109-10.4883L23.1348-10.4395L22.4902-11.0742L22.7344-12.1973Q22.832-12.6172 22.6953-12.9834Q22.5586-13.3496 22.1191-13.7891L19.9219-15.9766Q18.6719-17.2168 17.2607-17.8369Q15.8496-18.457 14.4189-18.4814Q12.9883-18.5059 11.665-17.959Q10.3418-17.4121 9.25781-16.3281ZM10.752-15.957Q11.6602-16.6211 12.7002-16.9043Q13.7402-17.1875 14.8047-17.085Q15.8691-16.9824 16.8701-16.5137Q17.8711-16.0449 18.7012-15.2051L21.1328-12.793Q21.3086-12.6172 21.3525-12.4512Q21.3965-12.2852 21.3379-12.0312L21.0156-10.5469L22.5195-9.0625L23.5059-9.12109Q23.6914-9.13086 23.7891-9.09668Q23.8867-9.0625 24.0332-8.91602L24.6094-8.33984L22.168-5.89844L21.5918-6.47461Q21.4453-6.62109 21.4062-6.71875Q21.3672-6.81641 21.377-7.01172L21.4453-7.98828L19.9512-9.47266L18.4277-9.21875Q18.1836-9.16992 18.042-9.2041Q17.9004-9.23828 17.7148-9.41406L15.7129-11.416Q15.5176-11.5918 15.4932-11.7529Q15.4688-11.9141 15.5859-12.1875L16.4648-14.2773Q15.293-15.3711 13.8281-15.791Q12.3633-16.2109 10.8398-15.7617Q10.7227-15.7324 10.6885-15.8057Q10.6543-15.8789 10.752-15.957Z"/>
  </g>
  <text style="stroke:none;fill:black;font-family:sans-serif;font-size:13;font-weight:bold;" transform="matrix(1 0 0 1 1289 1953)">Exporting</text>
  <text style="stroke:none;fill:black;font-family:sans-serif;font-size:13;" transform="matrix(1 0 0 1 1289 1971)">Symbols should be outlined when exporting to ensure the</text>
  <text style="stroke:none;fill:black;font-family:sans-serif;font-size:13;" transform="matrix(1 0 0 1 1289 1989)">design is preserved when submitting to Xcode.</text>
  <text id="template-version" style="stroke:none;fill:black;font-family:sans-serif;font-size:13;text-anchor:end;" transform="matrix(1 0 0 1 3036 1933)">Template v.2.0</text>
  <text style="stroke:none;fill:black;font-family:sans-serif;font-size:13;text-anchor:end;" transform="matrix(1 0 0 1 3036 1951)">Requires Xcode 12 or greater</text>
  <text id="descriptive-name" style="stroke:none;fill:black;font-family:sans-serif;font-size:13;text-anchor:end;" transform="matrix(1 0 0 1 3036 1969)">Generated from plus.circle.fill</text>
  <text style="stroke:none;fill:black;font-family:sans-serif;font-size:13;text-anchor:end;" transform="matrix(1 0 0 1 3036 1987)">Typeset at 100 points</text>
  <text style="stroke:none;fill:black;font-family:sans-serif;font-size:13;" transform="matrix(1 0 0 1 263 726)">Small</text>
  <text style="stroke:none;fill:black;font-family:sans-serif;font-size:13;" transform="matrix(1 0 0 1 263 1156)">Medium</text>
  <text style="stroke:none;fill:black;font-family:sans-serif;font-size:13;" transform="matrix(1 0 0 1 263 1586)">Large</text>
 </g>
 <g id="Guides">
  <g id="H-reference" style="fill:#27AAE1;stroke:none;" transform="matrix(1 0 0 1 339 696)">
   <path d="M0.993347 0L3.6377 0L29.3282-67.1326L30.0301-67.1326L30.0301-70.459L28.1227-70.459ZM11.6882-24.4797L46.9818-24.4797L46.2311-26.7288L12.4382-26.7288ZM55.1193 0L57.7637 0L30.6381-70.459L29.4327-70.459L29.4327-67.1326Z"/>
  </g>
  <line id="Baseline-S" style="fill:none;stroke:#27AAE1;opacity:1;stroke-width:0.5;" x1="263" x2="3036" y1="696" y2="696"/>
  <line id="Capline-S" style="fill:none;stroke:#27AAE1;opacity:1;stroke-width:0.5;" x1="263" x2="3036" y1="625.541" y2="625.541"/>
  <g id="H-reference" style="fill:#27AAE1;stroke:none;" transform="matrix(1 0 0 1 339 1126)">
   <path d="M0.993347 0L3.6377 0L29.3282-67.1326L30.0301-67.1326L30.0301-70.459L28.1227-70.459ZM11.6882-24.4797L46.9818-24.4797L46.2311-26.7288L12.4382-26.7288ZM55.1193 0L57.7637 0L30.6381-70.459L29.4327-70.459L29.4327-67.1326Z"/>
  </g>
  <line id="Baseline-M" style="fill:none;stroke:#27AAE1;opacity:1;stroke-width:0.5;" x1="263" x2="3036" y1="1126" y2="1126"/>
  <line id="Capline-M" style="fill:none;stroke:#27AAE1;opacity:1;stroke-width:0.5;" x1="263" x2="3036" y1="1055.54" y2="1055.54"/>
  <g id="H-reference" style="fill:#27AAE1;stroke:none;" transform="matrix(1 0 0 1 339 1556)">
   <path d="M0.993347 0L3.6377 0L29.3282-67.1326L30.0301-67.1326L30.0301-70.459L28.1227-70.459ZM11.6882-24.4797L46.9818-24.4797L46.2311-26.7288L12.4382-26.7288ZM55.1193 0L57.7637 0L30.6381-70.459L29.4327-70.459L29.4327-67.1326Z"/>
  </g>
  <line id="Baseline-L" style="fill:none;stroke:#27AAE1;opacity:1;stroke-width:0.5;" x1="263" x2="3036" y1="1556" y2="1556"/>
  <line id="Capline-L" style="fill:none;stroke:#27AAE1;opacity:1;stroke-width:0.5;" x1="263" x2="3036" y1="1485.54" y2="1485.54"/>
  <line id="left-margin" style="fill:none;stroke:#00AEEF;stroke-width:0.5;opacity:1.0;" x1="1391.32" x2="1391.32" y1="1030.79" y2="1150.12"/>
  <line id="right-margin" style="fill:none;stroke:#00AEEF;stroke-width:0.5;opacity:1.0;" x1="1508.37" x2="1508.37" y1="1030.79" y2="1150.12"/>
 </g>
 <g id="Symbols">
  <g id="Black-L" transform="matrix(1 0 0 1 2854.19 1556)">
   <path d="M79.1953 32.7252Q93.2356 32.7252 105.521 27.4303Q117.806 22.1354 127.174 12.7571Q136.542 3.37874 141.848-8.90649Q147.154-21.1917 147.154-35.2113Q147.154-49.2309 141.848-61.5161Q136.542-73.8013 127.164-83.1796Q117.785-92.558 105.5-97.8529Q93.2149-103.148 79.1746-103.148Q65.1563-103.148 52.8704-97.8529Q40.5846-92.558 31.2276-83.1796Q21.8707-73.8013 16.5647-61.5161Q11.2588-49.2309 11.2588-35.2113Q11.2588-21.1917 16.5647-8.90649Q21.8707 3.37874 31.238 12.7571Q40.6053 22.1354 52.8912 27.4303Q65.177 32.7252 79.1953 32.7252ZM48.162-35.249Q48.162-38.966 50.583-41.4467Q53.004-43.9274 56.6262-43.9274L70.539-43.9274L70.539-57.8608Q70.539-61.5194 73.0093-63.9125Q75.4796-66.3056 79.1746-66.3056Q82.9111-66.3056 85.382-63.9131Q87.853-61.5207 87.853-57.8608L87.853-43.9274L101.807-43.9274Q105.446-43.9274 107.848-41.4467Q110.251-38.966 110.251-35.249Q110.251-31.5539 107.848-29.0843Q105.445-26.6146 101.807-26.6146L87.853-26.6146L87.853-12.6812Q87.853-9.07965 85.382-6.65803Q82.9111-4.23641 79.1746-4.23641Q75.4796-4.23641 73.0093-6.65867Q70.539-9.08094 70.539-12.6812L70.539-26.6146L56.6262-26.6146Q53.0053-26.6146 50.5837-29.0843Q48.162-31.5539 48.162-35.249Z"/>
  </g>
  <g id="Heavy-L" transform="matrix(1 0 0 1 2558.42 1556)">
   <path d="M78.2511 31.7672Q92.088 31.7672 104.202 26.5464Q116.316 21.3256 125.559 12.0677Q134.802 2.8099 140.04-9.30402Q145.279-21.4179 145.279-35.2251Q145.279-49.0322 140.04-61.1461Q134.802-73.2601 125.544-82.5179Q116.286-91.7758 104.172-96.9966Q92.0582-102.217 78.2213-102.217Q64.4202-102.217 52.3033-96.9966Q40.1863-91.7758 30.9613-82.5179Q21.7362-73.2601 16.4975-61.1461Q11.2588-49.0322 11.2588-35.2251Q11.2588-21.4179 16.4975-9.30402Q21.7362 2.8099 30.9761 12.0677Q40.2161 21.3256 52.333 26.5464Q64.45 31.7672 78.2511 31.7672ZM47.3583-35.2399Q47.3583-38.6177 49.5471-40.8572Q51.736-43.0967 55.0603-43.0967L70.4301-43.0967L70.4301-58.4963Q70.4301-61.8294 72.6547-64.002Q74.8793-66.1746 78.2213-66.1746Q81.6228-66.1746 83.8504-64.005Q86.0781-61.8354 86.0781-58.4963L86.0781-43.0967L101.507-43.0967Q104.817-43.0967 106.998-40.8572Q109.18-38.6177 109.18-35.2399Q109.18-31.898 106.995-29.6764Q104.811-27.4547 101.507-27.4547L86.0781-27.4547L86.0781-12.0552Q86.0781-8.76065 83.8504-6.56878Q81.6228-4.37692 78.2213-4.37692Q74.8793-4.37692 72.6547-6.5718Q70.4301-8.76668 70.4301-12.0552L70.4301-27.4547L55.0603-27.4547Q51.742-27.4547 49.5501-29.6764Q47.3583-31.898 47.3583-35.2399Z"/>
  </g>
  <g id="Bold-L" transform="matrix(1 0 0 1 2262.89 1556)">
   <path d="M77.0653 30.566Q90.6516 30.566 102.549 25.4396Q114.447 20.3133 123.533 11.2089Q132.619 2.10448 137.771-9.79333Q142.923-21.6912 142.923-35.2405Q142.923-48.7898 137.771-60.6877Q132.619-72.5855 123.515-81.6899Q114.41-90.7942 102.512-95.9206Q90.6146-101.047 77.0283-101.047Q63.4932-101.047 51.5882-95.9206Q39.6833-90.7942 30.623-81.6899Q21.5627-72.5855 16.4108-60.6877Q11.2588-48.7898 11.2588-35.2405Q11.2588-21.6912 16.4108-9.79333Q21.5627 2.10448 30.6415 11.2089Q39.7203 20.3133 51.6252 25.4396Q63.5301 30.566 77.0653 30.566ZM46.4649-35.2327Q46.4649-38.159 48.3495-40.087Q50.2341-42.015 53.1532-42.015L70.3342-42.015L70.3342-59.233Q70.3342-62.1301 72.2437-64.0143Q74.1532-65.8985 77.0283-65.8985Q79.9773-65.8985 81.894-64.0214Q83.8106-62.1443 83.8106-59.233L83.8106-42.015L101.066-42.015Q103.94-42.015 105.828-40.087Q107.717-38.159 107.717-35.2327Q107.717-32.3576 105.821-30.4552Q103.926-28.5528 101.066-28.5528L83.8106-28.5528L83.8106-11.3348Q83.8106-8.45273 81.894-6.56104Q79.9773-4.66936 77.0283-4.66936Q74.1532-4.66936 72.2437-6.56816Q70.3342-8.46695 70.3342-11.3348L70.3342-28.5528L53.1532-28.5528Q50.2483-28.5528 48.3566-30.4552Q46.4649-32.3576 46.4649-35.2327Z"/>
  </g>
  <g id="Semibold-L" transform="matrix(1 0 0 1 1966.99 1556)">
   <path d="M76.2478 29.7379Q89.6614 29.7379 101.41 24.6766Q113.159 19.6153 122.137 10.6168Q131.114 1.61818 136.206-10.1307Q141.299-21.8795 141.299-35.2511Q141.299-48.6228 136.206-60.3716Q131.114-72.1204 122.116-81.119Q113.117-90.1176 101.368-95.1789Q89.6194-100.24 76.2058-100.24Q62.854-100.24 51.0953-95.1789Q39.3365-90.1176 30.3898-81.119Q21.4432-72.1204 16.351-60.3716Q11.2588-48.6228 11.2588-35.2511Q11.2588-21.8795 16.351-10.1307Q21.4432 1.61818 30.4108 10.6168Q39.3785 19.6153 51.1372 24.6766Q62.896 29.7379 76.2478 29.7379ZM45.849-35.2277Q45.849-37.8428 47.5239-39.556Q49.1987-41.2693 51.8384-41.2693L70.2681-41.2693L70.2681-59.7409Q70.2681-62.3374 71.9603-64.0228Q73.6526-65.7082 76.2058-65.7082Q78.843-65.7082 80.5452-64.0327Q82.2474-62.3573 82.2474-59.7409L82.2474-41.2693L100.761-41.2693Q103.335-41.2693 105.022-39.556Q106.708-37.8428 106.708-35.2277Q106.708-32.6745 105.012-30.9922Q103.315-29.3099 100.761-29.3099L82.2474-29.3099L82.2474-10.8382Q82.2474-8.24045 80.5452-6.55571Q78.843-4.87097 76.2058-4.87097Q73.6526-4.87097 71.9603-6.56564Q70.2681-8.26032 70.2681-10.8382L70.2681-29.3099L51.8384-29.3099Q49.2185-29.3099 47.5338-30.9922Q45.849-32.6745 45.849-35.2277Z"/>
  </g>
  <g id="Medium-L" transform="matrix(1 0 0 1 1670.9 1556)">
   <path d="M75.6279 29.11Q88.9106 29.11 100.546 24.0981Q112.182 19.0862 121.078 10.1678Q129.973 1.24944 135.02-10.3864Q140.067-22.0223 140.067-35.2592Q140.067-48.4961 135.02-60.1319Q129.973-71.7678 121.055-80.6862Q112.137-89.6045 100.501-94.6164Q88.8648-99.6283 75.5822-99.6283Q62.3695-99.6283 50.7215-94.6164Q39.0736-89.6045 30.213-80.6862Q21.3525-71.7678 16.3056-60.1319Q11.2588-48.4961 11.2588-35.2592Q11.2588-22.0223 16.3056-10.3864Q21.3525 1.24944 30.2359 10.1678Q39.1193 19.0862 50.7673 24.0981Q62.4152 29.11 75.6279 29.11ZM45.3821-35.2239Q45.3821-37.603 46.8978-39.1534Q48.4136-40.7038 50.8415-40.7038L70.2179-40.7038L70.2179-60.126Q70.2179-62.4946 71.7455-64.0292Q73.273-65.5639 75.5822-65.5639Q77.9828-65.5639 79.5225-64.0413Q81.0621-62.5187 81.0621-60.126L81.0621-40.7038L100.53-40.7038Q102.877-40.7038 104.41-39.1534Q105.944-37.603 105.944-35.2239Q105.944-32.9148 104.398-31.3993Q102.853-29.8839 100.53-29.8839L81.0621-29.8839L81.0621-10.4617Q81.0621-8.07949 79.5225-6.55166Q77.9828-5.02383 75.5822-5.02383Q73.273-5.02383 71.7455-6.56374Q70.2179-8.10365 70.2179-10.4617L70.2179-29.8839L50.8415-29.8839Q48.4377-29.8839 46.9099-31.3993Q45.3821-32.9148 45.3821-35.2239Z"/>
  </g>
  <g id="Regular-L" transform="matrix(1 0 0 1 1374.99 1556)">
   <path d="M74.8194 28.2909Q87.9312 28.2909 99.4198 23.3434Q110.908 18.3959 119.697 9.58221Q128.485 0.768476 133.473-10.7201Q138.46-22.2086 138.46-35.2697Q138.46-48.3308 133.473-59.8193Q128.485-71.3079 119.671-80.1216Q110.858-88.9353 99.3691-93.8828Q87.8805-98.8303 74.7687-98.8303Q61.7374-98.8303 50.234-93.8828Q38.7306-88.9353 29.9824-80.1216Q21.2342-71.3079 16.2465-59.8193Q11.2588-48.3308 11.2588-35.2697Q11.2588-22.2086 16.2465-10.7201Q21.2342 0.768476 30.0077 9.58221Q38.7813 18.3959 50.2847 23.3434Q61.7881 28.2909 74.8194 28.2909ZM44.773-35.219Q44.773-37.2903 46.0812-38.6283Q47.3895-39.9663 49.5412-39.9663L70.1526-39.9663L70.1526-60.6284Q70.1526-62.6996 71.4652-64.0376Q72.7779-65.3757 74.7687-65.3757Q76.8609-65.3757 78.1885-64.0525Q79.516-62.7293 79.516-60.6284L79.516-39.9663L100.229-39.9663Q102.279-39.9663 103.613-38.6283Q104.946-37.2903 104.946-35.219Q104.946-33.2282 103.598-31.9304Q102.249-30.6326 100.229-30.6326L79.516-30.6326L79.516-9.97052Q79.516-7.86955 78.1885-6.54639Q76.8609-5.22323 74.7687-5.22323Q72.7779-5.22323 71.4652-6.56126Q70.1526-7.89928 70.1526-9.97052L70.1526-30.6326L49.5412-30.6326Q47.4193-30.6326 46.0961-31.9304Q44.773-33.2282 44.773-35.219Z"/>
  </g>
  <g id="Light-L" transform="matrix(1 0 0 1 1079.2 1556)">
   <path d="M73.8959 27.3674Q86.8436 27.3674 98.1577 22.502Q109.472 17.6366 118.137 8.95629Q126.802 0.275949 131.708-11.0381Q136.614-22.3522 136.614-35.2697Q136.614-48.1872 131.708-59.5013Q126.802-70.8154 118.122-79.4957Q109.442-88.176 98.1275-93.0414Q86.8134-97.9069 73.8658-97.9069Q60.9986-97.9069 49.6594-93.0414Q38.3201-88.176 29.6951-79.4957Q21.07-70.8154 16.1644-59.5013Q11.2588-48.1872 11.2588-35.2697Q11.2588-22.3522 16.1644-11.0381Q21.07 0.275949 29.7102 8.95629Q38.3503 17.6366 49.6895 22.502Q61.0287 27.3674 73.8959 27.3674ZM44.814-35.2395Q44.814-36.7977 45.8042-37.8382Q46.7944-38.8786 48.433-38.8786L70.3373-38.8786L70.3373-60.8131Q70.3373-62.3712 71.3626-63.4117Q72.388-64.4522 73.8658-64.4522Q75.4039-64.4522 76.4544-63.4368Q77.5049-62.4215 77.5049-60.8131L77.5049-38.8786L99.4695-38.8786Q101.048-38.8786 102.053-37.8382Q103.058-36.7977 103.058-35.2395Q103.058-33.7618 102.028-32.7615Q100.997-31.7613 99.4695-31.7613L77.5049-31.7613L77.5049-9.82686Q77.5049-8.21842 76.4544-7.20309Q75.4039-6.18776 73.8658-6.18776Q72.388-6.18776 71.3626-7.22822Q70.3373-8.26868 70.3373-9.82686L70.3373-31.7613L48.433-31.7613Q46.8447-31.7613 45.8293-32.7615Q44.814-33.7618 44.814-35.2395Z"/>
  </g>
  <g id="Thin-L" transform="matrix(1 0 0 1 783.716 1556)">
   <path d="M72.6746 26.1461Q85.405 26.1461 96.4884 21.3892Q107.572 16.6324 116.074 8.12846Q124.577-0.375458 129.374-11.4588Q134.171-22.5422 134.171-35.2697Q134.171-47.9972 129.374-59.0806Q124.577-70.1639 116.073-78.6679Q107.569-87.1718 96.4854-91.9286Q85.402-96.6855 72.6715-96.6855Q60.0215-96.6855 48.8994-91.9286Q37.7773-87.1718 29.3151-78.6679Q20.8529-70.1639 16.0558-59.0806Q11.2588-47.9972 11.2588-35.2697Q11.2588-22.5422 16.0558-11.4588Q20.8529-0.375458 29.3166 8.12846Q37.7803 16.6324 48.9024 21.3892Q60.0245 26.1461 72.6746 26.1461ZM44.8683-35.2667Q44.8683-36.1463 45.4378-36.7932Q46.0073-37.4401 46.9673-37.4401L70.5815-37.4401L70.5815-61.0573Q70.5815-61.937 71.2269-62.5839Q71.8723-63.2308 72.6715-63.2308Q73.4768-63.2308 74.1609-62.6226Q74.845-62.0144 74.845-61.0573L74.845-37.4401L98.4652-37.4401Q99.4192-37.4401 99.9902-36.7932Q100.561-36.1463 100.561-35.2667Q100.561-34.4675 99.9515-33.8608Q99.3418-33.2541 98.4652-33.2541L74.845-33.2541L74.845-9.63687Q74.845-8.67983 74.1609-8.07163Q73.4768-7.46343 72.6715-7.46343Q71.8723-7.46343 71.2269-8.11033Q70.5815-8.75723 70.5815-9.63687L70.5815-33.2541L46.9673-33.2541Q46.0847-33.2541 45.4765-33.8608Q44.8683-34.4675 44.8683-35.2667Z"/>
  </g>
  <g id="Ultralight-L" transform="matrix(1 0 0 1 487.631 1556)">
   <path d="M72.049 25.5205Q84.6682 25.5205 95.6335 20.8192Q106.599 16.118 115.018 7.70445Q123.437-0.709105 128.178-11.6743Q132.92-22.6395 132.92-35.2697Q132.92-47.8999 128.178-58.8651Q123.437-69.8303 115.023-78.2439Q106.61-86.6574 95.6443-91.3586Q84.6791-96.0599 72.0598-96.0599Q59.521-96.0599 48.5101-91.3586Q37.4993-86.6574 29.1205-78.2439Q20.7417-69.8303 16.0002-58.8651Q11.2588-47.8999 11.2588-35.2697Q11.2588-22.6395 16.0002-11.6743Q20.7417-0.709105 29.115 7.70445Q37.4884 16.118 48.4992 20.8192Q59.5101 25.5205 72.049 25.5205ZM44.8961-35.2806Q44.8961-35.8127 45.2501-36.258Q45.6041-36.7033 46.2166-36.7033L70.7067-36.7033L70.7067-61.1825Q70.7067-61.7145 71.1574-62.1599Q71.6082-62.6052 72.0598-62.6052Q72.4897-62.6052 72.9862-62.2055Q73.4826-61.8058 73.4826-61.1825L73.4826-36.7033L97.9508-36.7033Q98.5851-36.7033 98.9337-36.258Q99.2823-35.8127 99.2823-35.2806Q99.2823-34.8289 98.888-34.4238Q98.4938-34.0187 97.9508-34.0187L73.4826-34.0187L73.4826-9.53956Q73.4826-8.91617 72.9862-8.51649Q72.4897-8.11682 72.0598-8.11682Q71.6082-8.11682 71.1574-8.56215Q70.7067-9.00747 70.7067-9.53956L70.7067-34.0187L46.2166-34.0187Q45.6954-34.0187 45.2958-34.4238Q44.8961-34.8289 44.8961-35.2806Z"/>
  </g>
  <g id="Black-M" transform="matrix(1 0 0 1 2871.36 1126)">
   <path d="M62.0423 18.1161Q73.0725 18.1161 82.714 13.9613Q92.3555 9.80654 99.704 2.45531Q107.052-4.89592 111.21-14.5374Q115.367-24.1789 115.367-35.2035Q115.367-46.2282 111.21-55.8697Q107.052-65.5112 99.7012-72.8624Q92.35-80.2136 82.7085-84.3684Q73.067-88.5232 62.0368-88.5232Q51.0119-88.5232 41.3705-84.3684Q31.7292-80.2136 24.3833-72.8624Q17.0375-65.5112 12.8801-55.8697Q8.72266-46.2282 8.72266-35.2035Q8.72266-24.1789 12.8801-14.5374Q17.0375-4.89592 24.3861 2.45531Q31.7347 9.80654 41.376 13.9613Q51.0174 18.1161 62.0423 18.1161ZM38.0095-35.2551Q38.0095-38.3569 40.0415-40.4458Q42.0735-42.5346 45.0664-42.5346L54.7681-42.5346L54.7681-52.2418Q54.7681-55.2865 56.8542-57.2897Q58.9402-59.2929 62.0368-59.2929Q65.1445-59.2929 67.2304-57.2896Q69.3163-55.2862 69.3163-52.2418L69.3163-42.5346L79.029-42.5346Q82.0679-42.5346 84.0742-40.4458Q86.0804-38.3569 86.0804-35.2551Q86.0804-32.1585 84.0743-30.0723Q82.0682-27.9861 79.029-27.9861L69.3163-27.9861L69.3163-18.2789Q69.3163-15.2915 67.2304-13.2597Q65.1445-11.2278 62.0368-11.2278Q58.9402-11.2278 56.8542-13.2595Q54.7681-15.2912 54.7681-18.2789L54.7681-27.9861L45.0664-27.9861Q42.0732-27.9861 40.0414-30.0723Q38.0095-32.1585 38.0095-35.2551Z"/>
  </g>
  <g id="Heavy-M" transform="matrix(1 0 0 1 2575.48 1126)">
   <path d="M61.2045 17.2648Q72.0509 17.2648 81.541 13.1749Q91.0312 9.08498 98.2688 1.83921Q105.506-5.40657 109.606-14.8967Q113.705-24.3868 113.705-35.217Q113.705-46.0473 109.606-55.5374Q105.506-65.0275 98.2607-72.2733Q91.0149-79.519 81.5248-83.6089Q72.0347-87.6988 61.1882-87.6988Q50.3604-87.6988 40.8691-83.6089Q31.3778-79.519 24.1495-72.2733Q16.9211-65.0275 12.8219-55.5374Q8.72266-46.0473 8.72266-35.217Q8.72266-24.3868 12.8219-14.8967Q16.9211-5.40657 24.1576 1.83921Q31.394 9.08498 40.8853 13.1749Q50.3767 17.2648 61.2045 17.2648ZM37.22-35.2444Q37.22-38.0619 39.0544-39.9424Q40.8889-41.8229 43.6378-41.8229L54.6446-41.8229L54.6446-52.846Q54.6446-55.6198 56.517-57.4349Q58.3894-59.25 61.1882-59.25Q64.0195-59.25 65.8931-57.4362Q67.7668-55.6223 67.7668-52.846L67.7668-41.8229L78.806-41.8229Q81.5661-41.8229 83.3869-39.9424Q85.2076-38.0619 85.2076-35.2444Q85.2076-32.4456 83.3856-30.5744Q81.5637-28.7032 78.806-28.7032L67.7668-28.7032L67.7668-17.6802Q67.7668-14.9475 65.8931-13.1118Q64.0195-11.2762 61.1882-11.2762Q58.3894-11.2762 56.517-13.1131Q54.6446-14.95 54.6446-17.6802L54.6446-28.7032L43.6378-28.7032Q40.8913-28.7032 39.0556-30.5744Q37.22-32.4456 37.22-35.2444Z"/>
  </g>
  <g id="Bold-M" transform="matrix(1 0 0 1 2279.69 1126)">
   <path d="M60.2672 16.3124Q70.9082 16.3124 80.2289 12.2951Q89.5497 8.27781 96.6634 1.15Q103.777-5.9778 107.811-15.2986Q111.845-24.6193 111.845-35.2321Q111.845-45.8449 107.811-55.1656Q103.777-64.4864 96.6493-71.6142Q89.5215-78.742 80.2007-82.7593Q70.8799-86.7766 60.2389-86.7766Q49.6317-86.7766 40.3082-82.7593Q30.9846-78.742 23.8878-71.6142Q16.791-64.4864 12.7568-55.1656Q8.72266-45.8449 8.72266-35.2321Q8.72266-24.6193 12.7568-15.2986Q16.791-5.9778 23.902 1.15Q31.0129 8.27781 40.3364 12.2951Q49.6599 16.3124 60.2672 16.3124ZM36.3368-35.2324Q36.3368-37.7318 37.9502-39.3793Q39.5637-41.0268 42.0398-41.0268L54.5065-41.0268L54.5065-53.5218Q54.5065-55.9927 56.1399-57.5974Q57.7733-59.2021 60.2389-59.2021Q62.7611-59.2021 64.3972-57.6001Q66.0334-55.9982 66.0334-53.5218L66.0334-41.0268L78.5566-41.0268Q81.0047-41.0268 82.618-39.3793Q84.2313-37.7318 84.2313-35.2324Q84.2313-32.7667 82.6153-31.1361Q80.9992-29.5055 78.5566-29.5055L66.0334-29.5055L66.0334-17.0105Q66.0334-14.5627 64.3972-12.9465Q62.7611-11.3303 60.2389-11.3303Q57.7733-11.3303 56.1399-12.9492Q54.5065-14.5682 54.5065-17.0105L54.5065-29.5055L42.0398-29.5055Q39.5692-29.5055 37.953-31.1361Q36.3368-32.7667 36.3368-35.2324Z"/>
  </g>
  <g id="Semibold-M" transform="matrix(1 0 0 1 1983.62 1126)">
   <path d="M59.621 15.6559Q70.1203 15.6559 79.3244 11.6886Q88.5284 7.72135 95.5566 0.674869Q102.585-6.37161 106.574-15.5756Q110.564-24.7797 110.564-35.2425Q110.564-45.7053 106.574-54.9093Q102.585-64.1134 95.5384-71.1598Q88.4919-78.2063 79.2879-82.1736Q70.0838-86.1408 59.5845-86.1408Q49.1293-86.1408 39.9215-82.1736Q30.7136-78.2063 23.7075-71.1598Q16.7013-64.1134 12.712-54.9093Q8.72266-45.7053 8.72266-35.2425Q8.72266-24.7797 12.712-15.5756Q16.7013-6.37161 23.7257 0.674869Q30.7501 7.72135 39.958 11.6886Q49.1658 15.6559 59.621 15.6559ZM35.7279-35.2241Q35.7279-37.5043 37.189-38.9912Q38.6501-40.478 40.9381-40.478L54.4113-40.478L54.4113-53.9877Q54.4113-56.2497 55.8799-57.7094Q57.3485-59.169 59.5845-59.169Q61.8935-59.169 63.366-57.7132Q64.8384-56.2574 64.8384-53.9877L64.8384-40.478L78.3846-40.478Q80.6177-40.478 82.088-38.9912Q83.5582-37.5043 83.5582-35.2241Q83.5582-32.9881 82.0842-31.5233Q80.6101-30.0585 78.3846-30.0585L64.8384-30.0585L64.8384-16.5488Q64.8384-14.2974 63.366-12.8325Q61.8935-11.3676 59.5845-11.3676Q57.3485-11.3676 55.8799-12.8363Q54.4113-14.305 54.4113-16.5488L54.4113-30.0585L40.9381-30.0585Q38.6577-30.0585 37.1928-31.5233Q35.7279-32.9881 35.7279-35.2241Z"/>
  </g>
  <g id="Medium-M" transform="matrix(1 0 0 1 1687.4 1126)">
   <path d="M59.1311 15.158Q69.523 15.158 78.6385 11.2287Q87.754 7.29942 94.7174 0.314603Q101.681-6.67021 105.636-15.7857Q109.591-24.9012 109.591-35.2504Q109.591-45.5995 105.636-54.715Q101.681-63.8305 94.696-70.8153Q87.7112-77.8002 78.5957-81.7295Q69.4802-85.6588 59.0883-85.6588Q48.7484-85.6588 39.6283-81.7295Q30.5081-77.8002 23.5707-70.8153Q16.6333-63.8305 12.678-54.715Q8.72266-45.5995 8.72266-35.2504Q8.72266-24.9012 12.678-15.7857Q16.6333-6.67021 23.5921 0.314603Q30.5509 7.29942 39.671 11.2287Q48.7912 15.158 59.1311 15.158ZM35.2663-35.2179Q35.2663-37.3318 36.6118-38.6968Q37.9574-40.0619 40.1027-40.0619L54.3391-40.0619L54.3391-54.341Q54.3391-56.4446 55.6827-57.7943Q57.0264-59.1439 59.0883-59.1439Q61.2357-59.1439 62.584-57.7989Q63.9323-56.4539 63.9323-54.341L63.9323-40.0619L78.2542-40.0619Q80.3243-40.0619 81.6861-38.6968Q83.0479-37.3318 83.0479-35.2179Q83.0479-33.156 81.6815-31.8169Q80.315-30.4779 78.2542-30.4779L63.9323-30.4779L63.9323-16.1988Q63.9323-14.0962 62.584-12.746Q61.2357-11.3958 59.0883-11.3958Q57.0264-11.3958 55.6827-12.7506Q54.3391-14.1054 54.3391-16.1988L54.3391-30.4779L40.1027-30.4779Q37.9666-30.4779 36.6164-31.8169Q35.2663-33.156 35.2663-35.2179Z"/>
  </g>
  <g id="Regular-M" transform="matrix(1 0 0 1 1391.32 1126)">
   <path d="M58.492 14.5087Q68.7438 14.5087 77.7439 10.6289Q86.7439 6.74907 93.6228-0.155309Q100.502-7.05969 104.413-16.0597Q108.324-25.0598 108.324-35.2606Q108.324-45.4615 104.413-54.4616Q100.502-63.4616 93.5973-70.366Q86.693-77.2704 77.6929-81.1502Q68.6929-85.03 58.441-85.03Q48.2515-85.03 39.2458-81.1502Q30.2401-77.2704 23.3923-70.366Q16.5446-63.4616 12.6336-54.4616Q8.72266-45.4615 8.72266-35.2606Q8.72266-25.0598 12.6336-16.0597Q16.5446-7.05969 23.4178-0.155309Q30.291 6.74907 39.2968 10.6289Q48.3025 14.5087 58.492 14.5087ZM34.6641-35.2097Q34.6641-37.1067 35.8589-38.3129Q37.0538-39.5191 39.0131-39.5191L54.2449-39.5191L54.2449-54.8018Q54.2449-56.6988 55.4256-57.905Q56.6063-59.1112 58.441-59.1112Q60.3777-59.1112 61.5641-57.9107Q62.7505-56.7102 62.7505-54.8018L62.7505-39.5191L78.0841-39.5191Q79.9415-39.5191 81.1619-38.3129Q82.3822-37.1067 82.3822-35.2097Q82.3822-33.375 81.1562-32.1999Q79.9302-31.0249 78.0841-31.0249L62.7505-31.0249L62.7505-15.7422Q62.7505-13.8338 61.5641-12.6333Q60.3777-11.4327 58.441-11.4327Q56.6063-11.4327 55.4256-12.6389Q54.2449-13.8451 54.2449-15.7422L54.2449-31.0249L39.0131-31.0249Q37.0651-31.0249 35.8646-32.1999Q34.6641-33.375 34.6641-35.2097Z"/>
  </g>
  <g id="Light-M" transform="matrix(1 0 0 1 1095.44 1126)">
   <path d="M57.664 13.6807Q67.7687 13.6807 76.6123 9.87453Q85.456 6.06831 92.2245-0.716478Q98.993-7.50127 102.83-16.3449Q106.668-25.1886 106.668-35.2606Q106.668-45.3327 102.83-54.1764Q98.993-63.02 92.2082-69.8048Q85.4234-76.5896 76.5798-80.3958Q67.7361-84.202 57.6315-84.202Q47.5892-84.202 38.7306-80.3958Q29.8721-76.5896 23.1348-69.8048Q16.3974-63.02 12.56-54.1764Q8.72266-45.3327 8.72266-35.2606Q8.72266-25.1886 12.56-16.3449Q16.3974-7.50127 23.151-0.716478Q29.9047 6.06831 38.7632 9.87453Q47.6217 13.6807 57.664 13.6807ZM34.7009-35.2281Q34.7009-36.6651 35.6106-37.6046Q36.5202-38.544 38.0196-38.544L54.4105-38.544L54.4105-54.9674Q54.4105-56.4045 55.3336-57.3439Q56.2567-58.2833 57.6315-58.2833Q59.0714-58.2833 60.0094-57.3587Q60.9474-56.4342 60.9474-54.9674L60.9474-38.544L77.4034-38.544Q78.8376-38.544 79.7636-37.6046Q80.6895-36.6651 80.6895-35.2281Q80.6895-33.8533 79.7487-32.9451Q78.8079-32.0368 77.4034-32.0368L60.9474-32.0368L60.9474-15.6134Q60.9474-14.1466 60.0094-13.222Q59.0714-12.2975 57.6315-12.2975Q56.2567-12.2975 55.3336-13.2369Q54.4105-14.1763 54.4105-15.6134L54.4105-32.0368L38.0196-32.0368Q36.55-32.0368 35.6254-32.9451Q34.7009-33.8533 34.7009-35.2281Z"/>
  </g>
  <g id="Thin-M" transform="matrix(1 0 0 1 799.828 1126)">
   <path d="M56.569 12.5857Q66.479 12.5857 75.1158 8.87683Q83.7526 5.16794 90.3751-1.45867Q96.9976-8.08529 100.738-16.7221Q104.478-25.3589 104.478-35.2606Q104.478-45.1624 100.738-53.7992Q96.9976-62.436 90.371-69.0626Q83.7444-75.6892 75.1076-79.3981Q66.4707-83.107 56.5608-83.107Q46.7131-83.107 38.0493-79.3981Q29.3854-75.6892 22.7941-69.0626Q16.2027-62.436 12.4627-53.7992Q8.72266-45.1624 8.72266-35.2606Q8.72266-25.3589 12.4627-16.7221Q16.2027-8.08529 22.7982-1.45867Q29.3936 5.16794 38.0575 8.87683Q46.7214 12.5857 56.569 12.5857ZM34.7496-35.2524Q34.7496-36.0811 35.2821-36.6677Q35.8145-37.2543 36.7055-37.2543L54.6295-37.2543L54.6295-55.1864Q54.6295-56.0151 55.2119-56.6017Q55.7944-57.1882 56.5608-57.1882Q57.3436-57.1882 57.9531-56.6287Q58.5626-56.0692 58.5626-55.1864L58.5626-37.2543L76.503-37.2543Q77.3776-37.2543 77.9142-36.6677Q78.4508-36.0811 78.4508-35.2524Q78.4508-34.486 77.8871-33.9306Q77.3235-33.3752 76.503-33.3752L58.5626-33.3752L58.5626-15.443Q58.5626-14.5603 57.9531-14.0007Q57.3436-13.4412 56.5608-13.4412Q55.7944-13.4412 55.2119-14.0278Q54.6295-14.6143 54.6295-15.443L54.6295-33.3752L36.7055-33.3752Q35.8686-33.3752 35.3091-33.9306Q34.7496-34.486 34.7496-35.2524Z"/>
  </g>
  <g id="Ultralight-M" transform="matrix(1 0 0 1 503.679 1126)">
   <path d="M56.0081 12.0248Q65.8184 12.0248 74.3492 8.36581Q82.8801 4.70678 89.4278-1.83882Q95.9756-8.38442 99.6657-16.9153Q103.356-25.4462 103.356-35.2606Q103.356-45.0751 99.6657-53.606Q95.9756-62.1369 89.43-68.6825Q82.8844-75.2281 74.3535-78.8871Q65.8226-82.5461 56.0124-82.5461Q46.2644-82.5461 37.7003-78.8871Q29.1361-75.2281 22.6196-68.6825Q16.103-62.1369 12.4128-53.606Q8.72266-45.0751 8.72266-35.2606Q8.72266-25.4462 12.4128-16.9153Q16.103-8.38442 22.6175-1.83882Q29.1319 4.70678 37.6961 8.36581Q46.2602 12.0248 56.0081 12.0248ZM34.7745-35.2649Q34.7745-35.782 35.1138-36.1878Q35.4531-36.5937 36.0325-36.5937L54.7417-36.5937L54.7417-55.2986Q54.7417-55.8157 55.1496-56.2215Q55.5576-56.6274 56.0124-56.6274Q56.4587-56.6274 56.8999-56.2548Q57.3412-55.8822 57.3412-55.2986L57.3412-36.5937L76.0418-36.5937Q76.6297-36.5937 76.9669-36.1878Q77.3041-35.782 77.3041-35.2649Q77.3041-34.8101 76.9336-34.4354Q76.5632-34.0607 76.0418-34.0607L57.3412-34.0607L57.3412-15.3558Q57.3412-14.7721 56.8999-14.3996Q56.4587-14.027 56.0124-14.027Q55.5576-14.027 55.1496-14.4328Q54.7417-14.8387 54.7417-15.3558L54.7417-34.0607L36.0325-34.0607Q35.5196-34.0607 35.1471-34.4354Q34.7745-34.8101 34.7745-35.2649Z"/>
  </g>
  <g id="Black-S" transform="matrix(1 0 0 1 2884.57 696)">
   <path d="M48.8281 6.78711Q57.5195 6.78711 65.1123 3.51562Q72.7051 0.244141 78.4912-5.54199Q84.2773-11.3281 87.5488-18.9209Q90.8203-26.5137 90.8203-35.2051Q90.8203-43.8965 87.5488-51.4893Q84.2773-59.082 78.4912-64.8682Q72.7051-70.6543 65.1123-73.9258Q57.5195-77.1973 48.8281-77.1973Q40.1367-77.1973 32.5439-73.9258Q24.9512-70.6543 19.165-64.8682Q13.3789-59.082 10.1074-51.4893Q6.83594-43.8965 6.83594-35.2051Q6.83594-26.5137 10.1074-18.9209Q13.3789-11.3281 19.165-5.54199Q24.9512 0.244141 32.5439 3.51562Q40.1367 6.78711 48.8281 6.78711ZM30.0293-35.2539Q30.0293-37.7441 31.665-39.4287Q33.3008-41.1133 35.6934-41.1133L42.9688-41.1133L42.9688-48.3887Q42.9688-50.8301 44.6533-52.4414Q46.3379-54.0527 48.8281-54.0527Q51.3184-54.0527 53.0029-52.4414Q54.6875-50.8301 54.6875-48.3887L54.6875-41.1133L61.9629-41.1133Q64.4043-41.1133 66.0156-39.4287Q67.627-37.7441 67.627-35.2539Q67.627-32.7637 66.0156-31.0791Q64.4043-29.3945 61.9629-29.3945L54.6875-29.3945L54.6875-22.1191Q54.6875-19.7266 53.0029-18.0908Q51.3184-16.4551 48.8281-16.4551Q46.3379-16.4551 44.6533-18.0908Q42.9688-19.7266 42.9688-22.1191L42.9688-29.3945L35.6934-29.3945Q33.3008-29.3945 31.665-31.0791Q30.0293-32.7637 30.0293-35.2539Z"/>
  </g>
  <g id="Heavy-S" transform="matrix(1 0 0 1 2588.47 696)">
   <path d="M48.2173 6.16479Q56.7704 6.16479 64.2537 2.9394Q71.737-0.285985 77.4425-5.99721Q83.1479-11.7084 86.3791-19.1917Q89.6102-26.675 89.6102-35.2166Q89.6102-43.7582 86.3791-51.2415Q83.1479-58.7248 77.4367-64.436Q71.7255-70.1472 64.2422-73.3726Q56.7589-76.598 48.2058-76.598Q39.6642-76.598 32.1809-73.3726Q24.6976-70.1472 18.9979-64.436Q13.2982-58.7248 10.0671-51.2415Q6.83594-43.7582 6.83594-35.2166Q6.83594-26.675 10.0671-19.1917Q13.2982-11.7084 19.0037-5.99721Q24.7092-0.285985 32.1924 2.9394Q39.6757 6.16479 48.2173 6.16479ZM29.3494-35.2424Q29.3494-37.5482 30.8526-39.0887Q32.3558-40.6293 34.5985-40.6293L42.842-40.6293L42.842-48.8842Q42.842-51.1528 44.3767-52.6373Q45.9115-54.1219 48.2058-54.1219Q50.5232-54.1219 52.0579-52.6373Q53.5927-51.1528 53.5927-48.8842L53.5927-40.6293L61.8592-40.6293Q64.1162-40.6293 65.6065-39.0887Q67.0968-37.5482 67.0968-35.2424Q67.0968-32.9481 65.6065-31.4133Q64.1162-29.8786 61.8592-29.8786L53.5927-29.8786L53.5927-21.6236Q53.5927-19.3924 52.0579-17.8891Q50.5232-16.3859 48.2058-16.3859Q45.9115-16.3859 44.3767-17.8891Q42.842-19.3924 42.842-21.6236L42.842-29.8786L34.5985-29.8786Q32.3558-29.8786 30.8526-31.4133Q29.3494-32.9481 29.3494-35.2424Z"/>
  </g>
  <g id="Bold-S" transform="matrix(1 0 0 1 2292.43 696)">
   <path d="M47.5342 5.46875Q55.9326 5.46875 63.2935 2.29492Q70.6543-0.878906 76.2695-6.50635Q81.8848-12.1338 85.0708-19.4946Q88.2568-26.8555 88.2568-35.2295Q88.2568-43.6035 85.0708-50.9644Q81.8848-58.3252 76.2573-63.9526Q70.6299-69.5801 63.269-72.7539Q55.9082-75.9277 47.5098-75.9277Q39.1357-75.9277 31.7749-72.7539Q24.4141-69.5801 18.811-63.9526Q13.208-58.3252 10.022-50.9644Q6.83594-43.6035 6.83594-35.2295Q6.83594-26.8555 10.022-19.4946Q13.208-12.1338 18.8232-6.50635Q24.4385-0.878906 31.7993 2.29492Q39.1602 5.46875 47.5342 5.46875ZM28.5889-35.2295Q28.5889-37.3291 29.9438-38.7085Q31.2988-40.0879 33.374-40.0879L42.7002-40.0879L42.7002-49.4385Q42.7002-51.5137 44.0674-52.8564Q45.4346-54.1992 47.5098-54.1992Q49.6338-54.1992 51.001-52.8564Q52.3682-51.5137 52.3682-49.4385L52.3682-40.0879L61.7432-40.0879Q63.7939-40.0879 65.1489-38.7085Q66.5039-37.3291 66.5039-35.2295Q66.5039-33.1543 65.1489-31.7871Q63.7939-30.4199 61.7432-30.4199L52.3682-30.4199L52.3682-21.0693Q52.3682-19.0186 51.001-17.6636Q49.6338-16.3086 47.5098-16.3086Q45.4346-16.3086 44.0674-17.6636Q42.7002-19.0186 42.7002-21.0693L42.7002-30.4199L33.374-30.4199Q31.2988-30.4199 29.9438-31.7871Q28.5889-33.1543 28.5889-35.2295Z"/>
  </g>
  <g id="Semibold-S" transform="matrix(1 0 0 1 1996.19 696)">
   <path d="M47.0632 4.98887Q55.355 4.98887 62.6314 1.85059Q69.9078-1.2877 75.4608-6.85737Q81.0139-12.4271 84.1688-19.7035Q87.3237-26.9799 87.3237-35.2384Q87.3237-43.4969 84.1688-50.7733Q81.0139-58.0497 75.4442-63.6194Q69.8745-69.1891 62.5981-72.3273Q55.3217-75.4656 47.0299-75.4656Q38.7714-75.4656 31.495-72.3273Q24.2186-69.1891 18.6822-63.6194Q13.1458-58.0497 9.99087-50.7733Q6.83594-43.4969 6.83594-35.2384Q6.83594-26.9799 9.99087-19.7035Q13.1458-12.4271 18.6988-6.85737Q24.2519-1.2877 31.5283 1.85059Q38.8047 4.98887 47.0632 4.98887ZM28.0646-35.2206Q28.0646-37.178 29.3173-38.4463Q30.5701-39.7146 32.5298-39.7146L42.6024-39.7146L42.6024-49.8206Q42.6024-51.7625 43.8541-53.0075Q45.1058-54.2525 47.0299-54.2525Q49.0206-54.2525 50.2723-53.0075Q51.5239-51.7625 51.5239-49.8206L51.5239-39.7146L61.6632-39.7146Q63.5718-39.7146 64.8334-38.4463Q66.0951-37.178 66.0951-35.2206Q66.0951-33.2965 64.8334-32.0448Q63.5718-30.7932 61.6632-30.7932L51.5239-30.7932L51.5239-20.6872Q51.5239-18.7608 50.2723-17.5081Q49.0206-16.2553 47.0299-16.2553Q45.1058-16.2553 43.8541-17.5081Q42.6024-18.7608 42.6024-20.6872L42.6024-30.7932L32.5298-30.7932Q30.5701-30.7932 29.3173-32.0448Q28.0646-33.2965 28.0646-35.2206Z"/>
  </g>
  <g id="Medium-S" transform="matrix(1 0 0 1 1699.83 696)">
   <path d="M46.7061 4.625Q54.917 4.625 62.1294 1.51367Q69.3418-1.59766 74.8477-7.12354Q80.3535-12.6494 83.4849-19.8618Q86.6162-27.0742 86.6162-35.2451Q86.6162-43.416 83.4849-50.6284Q80.3535-57.8408 74.8276-63.3667Q69.3018-68.8926 62.0894-72.0039Q54.877-75.1152 46.666-75.1152Q38.4951-75.1152 31.2827-72.0039Q24.0703-68.8926 18.5845-63.3667Q13.0986-57.8408 9.96729-50.6284Q6.83594-43.416 6.83594-35.2451Q6.83594-27.0742 9.96729-19.8618Q13.0986-12.6494 18.6045-7.12354Q24.1104-1.59766 31.3228 1.51367Q38.5352 4.625 46.7061 4.625ZM27.667-35.2139Q27.667-37.0635 28.8423-38.2476Q30.0176-39.4316 31.8896-39.4316L42.5283-39.4316L42.5283-50.1104Q42.5283-51.9512 43.6924-53.1221Q44.8564-54.293 46.666-54.293Q48.5557-54.293 49.7197-53.1221Q50.8838-51.9512 50.8838-50.1104L50.8838-39.4316L61.6025-39.4316Q63.4033-39.4316 64.5942-38.2476Q65.7852-37.0635 65.7852-35.2139Q65.7852-33.4043 64.5942-32.2402Q63.4033-31.0762 61.6025-31.0762L50.8838-31.0762L50.8838-20.3975Q50.8838-18.5654 49.7197-17.3901Q48.5557-16.2148 46.666-16.2148Q44.8564-16.2148 43.6924-17.3901Q42.5283-18.5654 42.5283-20.3975L42.5283-31.0762L31.8896-31.0762Q30.0176-31.0762 28.8423-32.2402Q27.667-33.4043 27.667-35.2139Z"/>
  </g>
  <g id="Regular-S" transform="matrix(1 0 0 1 1403.58 696)">
   <path d="M46.2402 4.15039Q54.3457 4.15039 61.4746 1.07422Q68.6035-2.00195 74.0479-7.4707Q79.4922-12.9395 82.5928-20.0684Q85.6934-27.1973 85.6934-35.2539Q85.6934-43.3105 82.5928-50.4395Q79.4922-57.5684 74.0234-63.0371Q68.5547-68.5059 61.4258-71.582Q54.2969-74.6582 46.1914-74.6582Q38.1348-74.6582 31.0059-71.582Q23.877-68.5059 18.457-63.0371Q13.0371-57.5684 9.93652-50.4395Q6.83594-43.3105 6.83594-35.2539Q6.83594-27.1973 9.93652-20.0684Q13.0371-12.9395 18.4814-7.4707Q23.9258-2.00195 31.0547 1.07422Q38.1836 4.15039 46.2402 4.15039ZM27.1484-35.2051Q27.1484-36.9141 28.2227-37.9883Q29.2969-39.0625 31.0547-39.0625L42.4316-39.0625L42.4316-50.4883Q42.4316-52.1973 43.4814-53.2715Q44.5312-54.3457 46.1914-54.3457Q47.9492-54.3457 48.999-53.2715Q50.0488-52.1973 50.0488-50.4883L50.0488-39.0625L61.5234-39.0625Q63.1836-39.0625 64.2822-37.9883Q65.3809-36.9141 65.3809-35.2051Q65.3809-33.5449 64.2822-32.4951Q63.1836-31.4453 61.5234-31.4453L50.0488-31.4453L50.0488-20.0195Q50.0488-18.3105 48.999-17.2363Q47.9492-16.1621 46.1914-16.1621Q44.5312-16.1621 43.4814-17.2363Q42.4316-18.3105 42.4316-20.0195L42.4316-31.4453L31.0547-31.4453Q29.2969-31.4453 28.2227-32.4951Q27.1484-33.5449 27.1484-35.2051Z"/>
  </g>
  <g id="Light-S" transform="matrix(1 0 0 1 1107.6 696)">
   <path d="M45.5078 3.41797Q53.4831 3.41797 60.4736 0.406901Q67.4642-2.60417 72.8109-7.96712Q78.1576-13.3301 81.193-20.3206Q84.2285-27.3112 84.2285-35.2539Q84.2285-43.1966 81.193-50.1872Q78.1576-57.1777 72.7946-62.5407Q67.4316-67.9036 60.4411-70.9147Q53.4505-73.9258 45.4753-73.9258Q37.5488-73.9258 30.5501-70.9147Q23.5514-67.9036 18.2292-62.5407Q12.9069-57.1777 9.87142-50.1872Q6.83594-43.1966 6.83594-35.2539Q6.83594-27.3112 9.87142-20.3206Q12.9069-13.3301 18.2454-7.96712Q23.584-2.60417 30.5827 0.406901Q37.5814 3.41797 45.5078 3.41797ZM27.181-35.2214Q27.181-36.5234 28.0029-37.3617Q28.8249-38.1999 30.1758-38.1999L42.5781-38.1999L42.5781-50.6348Q42.5781-51.9368 43.4001-52.7751Q44.222-53.6133 45.4753-53.6133Q46.7936-53.6133 47.6237-52.7832Q48.4538-51.9531 48.4538-50.6348L48.4538-38.1999L60.9212-38.1999Q62.207-38.1999 63.0452-37.3617Q63.8835-36.5234 63.8835-35.2214Q63.8835-33.9681 63.0371-33.1543Q62.1908-32.3405 60.9212-32.3405L48.4538-32.3405L48.4538-19.9056Q48.4538-18.5872 47.6237-17.7572Q46.7936-16.9271 45.4753-16.9271Q44.222-16.9271 43.4001-17.7653Q42.5781-18.6035 42.5781-19.9056L42.5781-32.3405L30.1758-32.3405Q28.8411-32.3405 28.0111-33.1543Q27.181-33.9681 27.181-35.2214Z"/>
  </g>
  <g id="Thin-S" transform="matrix(1 0 0 1 811.863 696)">
   <path d="M44.5391 2.44928Q52.3422 2.44928 59.1498-0.47568Q65.9573-3.40064 71.1749-8.62368Q76.3924-13.8467 79.3418-20.6543Q82.2911-27.4619 82.2911-35.2539Q82.2911-43.0459 79.3418-49.8535Q76.3924-56.6611 71.1694-61.8841Q65.9463-67.1072 59.1387-70.0321Q52.3311-72.9571 44.5281-72.9571Q36.7739-72.9571 29.9474-70.0321Q23.1209-67.1072 17.9278-61.8841Q12.7347-56.6611 9.78531-49.8535Q6.83594-43.0459 6.83594-35.2539Q6.83594-27.4619 9.78531-20.6543Q12.7347-13.8467 17.9333-8.62368Q23.1319-3.40064 29.9584-0.47568Q36.7849 2.44928 44.5391 2.44928ZM27.224-35.2429Q27.224-36.0068 27.7123-36.5329Q28.2006-37.059 29.0134-37.059L42.7719-37.059L42.7719-50.8285Q42.7719-51.5924 43.2924-52.1185Q43.813-52.6446 44.5281-52.6446Q45.2652-52.6446 45.8047-52.1374Q46.3442-51.6302 46.3442-50.8285L46.3442-37.059L60.1247-37.059Q60.9154-37.059 61.4092-36.5329Q61.903-36.0068 61.903-35.2429Q61.903-34.5278 61.3903-34.0261Q60.8776-33.5244 60.1247-33.5244L46.3442-33.5244L46.3442-19.7549Q46.3442-18.9532 45.8047-18.446Q45.2652-17.9388 44.5281-17.9388Q43.813-17.9388 43.2924-18.4649Q42.7719-18.991 42.7719-19.7549L42.7719-33.5244L29.0134-33.5244Q28.2384-33.5244 27.7312-34.0261Q27.224-34.5278 27.224-35.2429Z"/>
  </g>
  <g id="Ultralight-S" transform="matrix(1 0 0 1 515.649 696)">
   <path d="M44.043 1.95312Q51.7578 1.95312 58.4717-0.927734Q65.1855-3.80859 70.3369-8.95996Q75.4883-14.1113 78.3936-20.8252Q81.2988-27.5391 81.2988-35.2539Q81.2988-42.9688 78.3936-49.6826Q75.4883-56.3965 70.3369-61.5479Q65.1855-66.6992 58.4717-69.5801Q51.7578-72.4609 44.043-72.4609Q36.377-72.4609 29.6387-69.5801Q22.9004-66.6992 17.7734-61.5479Q12.6465-56.3965 9.74121-49.6826Q6.83594-42.9688 6.83594-35.2539Q6.83594-27.5391 9.74121-20.8252Q12.6465-14.1113 17.7734-8.95996Q22.9004-3.80859 29.6387-0.927734Q36.377 1.95312 44.043 1.95312ZM27.2461-35.2539Q27.2461-35.7422 27.5635-36.1084Q27.8809-36.4746 28.418-36.4746L42.8711-36.4746L42.8711-50.9277Q42.8711-51.416 43.2373-51.7822Q43.6035-52.1484 44.043-52.1484Q44.4824-52.1484 44.873-51.8066Q45.2637-51.4648 45.2637-50.9277L45.2637-36.4746L59.7168-36.4746Q60.2539-36.4746 60.5713-36.1084Q60.8887-35.7422 60.8887-35.2539Q60.8887-34.8145 60.5469-34.4727Q60.2051-34.1309 59.7168-34.1309L45.2637-34.1309L45.2637-19.6777Q45.2637-19.1406 44.873-18.7988Q44.4824-18.457 44.043-18.457Q43.6035-18.457 43.2373-18.8232Q42.8711-19.1895 42.8711-19.6777L42.8711-34.1309L28.418-34.1309Q27.9297-34.1309 27.5879-34.4727Q27.2461-34.8145 27.2461-35.2539Z"/>
  </g>
 </g>
</svg>
