<?xml version="1.0" encoding="UTF-8"?>
<!--Generator: Apple Native CoreSVG 175.5-->
<!DOCTYPE svg
PUBLIC "-//W3C//DTD SVG 1.1//EN"
       "http://www.w3.org/Graphics/SVG/1.1/DTD/svg11.dtd">
<svg version="1.1" xmlns="http://www.w3.org/2000/svg" xmlns:xlink="http://www.w3.org/1999/xlink" width="3300" height="2200">
 <!--glyph: "uni100364.medium", point size: 100.0, font version: "18.0d9e1", template writer version: "84"-->
 <g id="Notes">
  <rect height="2200" id="artboard" style="fill:white;opacity:1" width="3300" x="0" y="0"/>
  <line style="fill:none;stroke:black;opacity:1;stroke-width:0.5;" x1="263" x2="3036" y1="292" y2="292"/>
  <text style="stroke:none;fill:black;font-family:sans-serif;font-size:13;font-weight:bold;" transform="matrix(1 0 0 1 263 322)">Weight/Scale Variations</text>
  <text style="stroke:none;fill:black;font-family:sans-serif;font-size:13;text-anchor:middle;" transform="matrix(1 0 0 1 559.711 322)">Ultralight</text>
  <text style="stroke:none;fill:black;font-family:sans-serif;font-size:13;text-anchor:middle;" transform="matrix(1 0 0 1 856.422 322)">Thin</text>
  <text style="stroke:none;fill:black;font-family:sans-serif;font-size:13;text-anchor:middle;" transform="matrix(1 0 0 1 1153.13 322)">Light</text>
  <text style="stroke:none;fill:black;font-family:sans-serif;font-size:13;text-anchor:middle;" transform="matrix(1 0 0 1 1449.84 322)">Regular</text>
  <text style="stroke:none;fill:black;font-family:sans-serif;font-size:13;text-anchor:middle;" transform="matrix(1 0 0 1 1746.56 322)">Medium</text>
  <text style="stroke:none;fill:black;font-family:sans-serif;font-size:13;text-anchor:middle;" transform="matrix(1 0 0 1 2043.27 322)">Semibold</text>
  <text style="stroke:none;fill:black;font-family:sans-serif;font-size:13;text-anchor:middle;" transform="matrix(1 0 0 1 2339.98 322)">Bold</text>
  <text style="stroke:none;fill:black;font-family:sans-serif;font-size:13;text-anchor:middle;" transform="matrix(1 0 0 1 2636.69 322)">Heavy</text>
  <text style="stroke:none;fill:black;font-family:sans-serif;font-size:13;text-anchor:middle;" transform="matrix(1 0 0 1 2933.4 322)">Black</text>
  <line style="fill:none;stroke:black;opacity:1;stroke-width:0.5;" x1="263" x2="3036" y1="1903" y2="1903"/>
  <g transform="matrix(1 0 0 1 263 1933)">
   <path d="M9.24805 0.830078Q10.8691 0.830078 12.2949 0.214844Q13.7207-0.400391 14.8096-1.49414Q15.8984-2.58789 16.5186-4.01367Q17.1387-5.43945 17.1387-7.05078Q17.1387-8.66211 16.5186-10.0879Q15.8984-11.5137 14.8047-12.6074Q13.7109-13.7012 12.2852-14.3164Q10.8594-14.9316 9.23828-14.9316Q7.62695-14.9316 6.20117-14.3164Q4.77539-13.7012 3.69141-12.6074Q2.60742-11.5137 1.9873-10.0879Q1.36719-8.66211 1.36719-7.05078Q1.36719-5.43945 1.9873-4.01367Q2.60742-2.58789 3.69629-1.49414Q4.78516-0.400391 6.21094 0.214844Q7.63672 0.830078 9.24805 0.830078ZM9.24805-0.654297Q7.91992-0.654297 6.7627-1.14746Q5.60547-1.64062 4.73145-2.51953Q3.85742-3.39844 3.36426-4.56055Q2.87109-5.72266 2.87109-7.05078Q2.87109-8.37891 3.35938-9.54102Q3.84766-10.7031 4.72168-11.582Q5.5957-12.4609 6.75293-12.9541Q7.91016-13.4473 9.23828-13.4473Q10.5762-13.4473 11.7383-12.9541Q12.9004-12.4609 13.7793-11.582Q14.6582-10.7031 15.1514-9.54102Q15.6445-8.37891 15.6445-7.05078Q15.6445-5.72266 15.1514-4.56055Q14.6582-3.39844 13.7793-2.51953Q12.9004-1.64062 11.7432-1.14746Q10.5859-0.654297 9.24805-0.654297ZM5.6543-7.05078Q5.6543-6.72852 5.85938-6.52832Q6.06445-6.32812 6.40625-6.32812L8.51562-6.32812L8.51562-4.20898Q8.51562-3.88672 8.71094-3.67676Q8.90625-3.4668 9.23828-3.4668Q9.56055-3.4668 9.77051-3.67676Q9.98047-3.88672 9.98047-4.20898L9.98047-6.32812L12.0898-6.32812Q12.4219-6.32812 12.627-6.52832Q12.832-6.72852 12.832-7.05078Q12.832-7.38281 12.627-7.58789Q12.4219-7.79297 12.0898-7.79297L9.98047-7.79297L9.98047-9.90234Q9.98047-10.2344 9.77051-10.4443Q9.56055-10.6543 9.23828-10.6543Q8.90625-10.6543 8.71094-10.4443Q8.51562-10.2344 8.51562-9.90234L8.51562-7.79297L6.40625-7.79297Q6.06445-7.79297 5.85938-7.58789Q5.6543-7.38281 5.6543-7.05078Z"/>
  </g>
  <g transform="matrix(1 0 0 1 281.867 1933)">
   <path d="M11.709 2.91016Q13.75 2.91016 15.5518 2.12891Q17.3535 1.34766 18.7305-0.0292969Q20.1074-1.40625 20.8887-3.20801Q21.6699-5.00977 21.6699-7.05078Q21.6699-9.0918 20.8887-10.8936Q20.1074-12.6953 18.7305-14.0723Q17.3535-15.4492 15.5469-16.2305Q13.7402-17.0117 11.6992-17.0117Q9.6582-17.0117 7.85645-16.2305Q6.05469-15.4492 4.68262-14.0723Q3.31055-12.6953 2.5293-10.8936Q1.74805-9.0918 1.74805-7.05078Q1.74805-5.00977 2.5293-3.20801Q3.31055-1.40625 4.6875-0.0292969Q6.06445 1.34766 7.86621 2.12891Q9.66797 2.91016 11.709 2.91016ZM11.709 1.25Q9.98047 1.25 8.47656 0.605469Q6.97266-0.0390625 5.83496-1.17676Q4.69727-2.31445 4.05762-3.81836Q3.41797-5.32227 3.41797-7.05078Q3.41797-8.7793 4.05762-10.2832Q4.69727-11.7871 5.83008-12.9297Q6.96289-14.0723 8.4668-14.7119Q9.9707-15.3516 11.6992-15.3516Q13.4277-15.3516 14.9365-14.7119Q16.4453-14.0723 17.583-12.9297Q18.7207-11.7871 19.3652-10.2832Q20.0098-8.7793 20.0098-7.05078Q20.0098-5.32227 19.3701-3.81836Q18.7305-2.31445 17.5879-1.17676Q16.4453-0.0390625 14.9414 0.605469Q13.4375 1.25 11.709 1.25ZM7.17773-7.05078Q7.17773-6.69922 7.41211-6.47461Q7.64648-6.25 8.01758-6.25L10.8887-6.25L10.8887-3.36914Q10.8887-2.99805 11.1133-2.76855Q11.3379-2.53906 11.6895-2.53906Q12.0605-2.53906 12.29-2.76855Q12.5195-2.99805 12.5195-3.36914L12.5195-6.25L15.4004-6.25Q15.7715-6.25 16.001-6.47461Q16.2305-6.69922 16.2305-7.05078Q16.2305-7.42188 16.001-7.65137Q15.7715-7.88086 15.4004-7.88086L12.5195-7.88086L12.5195-10.752Q12.5195-11.1328 12.29-11.3623Q12.0605-11.5918 11.6895-11.5918Q11.3379-11.5918 11.1133-11.3574Q10.8887-11.123 10.8887-10.752L10.8887-7.88086L8.01758-7.88086Q7.63672-7.88086 7.40723-7.65137Q7.17773-7.42188 7.17773-7.05078Z"/>
  </g>
  <g transform="matrix(1 0 0 1 305.646 1933)">
   <path d="M14.9707 5.66406Q17.0605 5.66406 18.96 5.01465Q20.8594 4.36523 22.4512 3.19336Q24.043 2.02148 25.2197 0.429688Q26.3965-1.16211 27.0459-3.06641Q27.6953-4.9707 27.6953-7.05078Q27.6953-9.14062 27.0459-11.04Q26.3965-12.9395 25.2197-14.5312Q24.043-16.123 22.4512-17.2998Q20.8594-18.4766 18.9551-19.126Q17.0508-19.7754 14.9609-19.7754Q12.8711-19.7754 10.9717-19.126Q9.07227-18.4766 7.48535-17.2998Q5.89844-16.123 4.72168-14.5312Q3.54492-12.9395 2.90039-11.04Q2.25586-9.14062 2.25586-7.05078Q2.25586-4.9707 2.90527-3.06641Q3.55469-1.16211 4.72656 0.429688Q5.89844 2.02148 7.49023 3.19336Q9.08203 4.36523 10.9814 5.01465Q12.8809 5.66406 14.9707 5.66406ZM14.9707 3.84766Q13.1641 3.84766 11.5283 3.2959Q9.89258 2.74414 8.53516 1.74805Q7.17773 0.751953 6.17676-0.610352Q5.17578-1.97266 4.62891-3.6084Q4.08203-5.24414 4.08203-7.05078Q4.08203-8.86719 4.62891-10.5029Q5.17578-12.1387 6.17188-13.501Q7.16797-14.8633 8.52539-15.8594Q9.88281-16.8555 11.5186-17.4023Q13.1543-17.9492 14.9609-17.9492Q16.7773-17.9492 18.4131-17.4023Q20.0488-16.8555 21.4111-15.8594Q22.7734-14.8633 23.7744-13.501Q24.7754-12.1387 25.3223-10.5029Q25.8691-8.86719 25.8691-7.05078Q25.8691-5.24414 25.3223-3.6084Q24.7754-1.97266 23.7793-0.610352Q22.7832 0.751953 21.4209 1.74805Q20.0586 2.74414 18.4229 3.2959Q16.7871 3.84766 14.9707 3.84766ZM9.19922-7.05078Q9.19922-6.66992 9.45801-6.4209Q9.7168-6.17188 10.1172-6.17188L14.0625-6.17188L14.0625-2.2168Q14.0625-1.81641 14.3115-1.55762Q14.5605-1.29883 14.9512-1.29883Q15.3516-1.29883 15.6104-1.55273Q15.8691-1.80664 15.8691-2.2168L15.8691-6.17188L19.8242-6.17188Q20.2246-6.17188 20.4785-6.4209Q20.7324-6.66992 20.7324-7.05078Q20.7324-7.46094 20.4785-7.71484Q20.2246-7.96875 19.8242-7.96875L15.8691-7.96875L15.8691-11.9141Q15.8691-12.3242 15.6104-12.583Q15.3516-12.8418 14.9512-12.8418Q14.5605-12.8418 14.3115-12.583Q14.0625-12.3242 14.0625-11.9141L14.0625-7.96875L10.1172-7.96875Q9.70703-7.96875 9.45312-7.71484Q9.19922-7.46094 9.19922-7.05078Z"/>
  </g>
  <text style="stroke:none;fill:black;font-family:sans-serif;font-size:13;font-weight:bold;" transform="matrix(1 0 0 1 263 1953)">Design Variations</text>
  <text style="stroke:none;fill:black;font-family:sans-serif;font-size:13;" transform="matrix(1 0 0 1 263 1971)">Symbols are supported in up to nine weights and three scales.</text>
  <text style="stroke:none;fill:black;font-family:sans-serif;font-size:13;" transform="matrix(1 0 0 1 263 1989)">For optimal layout with text and other symbols, vertically align</text>
  <text style="stroke:none;fill:black;font-family:sans-serif;font-size:13;" transform="matrix(1 0 0 1 263 2007)">symbols with the adjacent text.</text>
  <line style="fill:none;stroke:#00AEEF;stroke-width:0.5;opacity:1.0;" x1="776" x2="776" y1="1919" y2="1933"/>
  <g transform="matrix(1 0 0 1 776 1933)">
   <path d="M3.31055 0.15625Q3.70117 0.15625 3.91602-0.00976562Q4.13086-0.175781 4.26758-0.585938L5.52734-4.0332L11.2891-4.0332L12.5488-0.585938Q12.6855-0.175781 12.9004-0.00976562Q13.1152 0.15625 13.4961 0.15625Q13.8867 0.15625 14.1162-0.0585938Q14.3457-0.273438 14.3457-0.644531Q14.3457-0.869141 14.2383-1.17188L9.6582-13.3691Q9.48242-13.8184 9.17969-14.043Q8.87695-14.2676 8.4082-14.2676Q7.5-14.2676 7.17773-13.3789L2.59766-1.16211Q2.49023-0.859375 2.49023-0.634766Q2.49023-0.263672 2.70996-0.0537109Q2.92969 0.15625 3.31055 0.15625ZM6.00586-5.51758L8.37891-12.0898L8.42773-12.0898L10.8008-5.51758Z"/>
  </g>
  <line style="fill:none;stroke:#00AEEF;stroke-width:0.5;opacity:1.0;" x1="793.197" x2="793.197" y1="1919" y2="1933"/>
  <text style="stroke:none;fill:black;font-family:sans-serif;font-size:13;font-weight:bold;" transform="matrix(1 0 0 1 776 1953)">Margins</text>
  <text style="stroke:none;fill:black;font-family:sans-serif;font-size:13;" transform="matrix(1 0 0 1 776 1971)">Leading and trailing margins on the left and right side of each symbol</text>
  <text style="stroke:none;fill:black;font-family:sans-serif;font-size:13;" transform="matrix(1 0 0 1 776 1989)">can be adjusted by modifying the x-location of the margin guidelines.</text>
  <text style="stroke:none;fill:black;font-family:sans-serif;font-size:13;" transform="matrix(1 0 0 1 776 2007)">Modifications are automatically applied proportionally to all</text>
  <text style="stroke:none;fill:black;font-family:sans-serif;font-size:13;" transform="matrix(1 0 0 1 776 2025)">scales and weights.</text>
  <g transform="matrix(1 0 0 1 1289 1933)">
   <path d="M2.8418 1.86523L4.54102 3.57422Q5.18555 4.22852 5.90332 4.17969Q6.62109 4.13086 7.31445 3.35938L18.0078-8.42773L17.041-9.4043L6.42578 2.27539Q6.16211 2.57812 5.89355 2.61719Q5.625 2.65625 5.27344 2.30469L4.10156 1.14258Q3.75 0.791016 3.79395 0.522461Q3.83789 0.253906 4.14062-0.0195312L15.6152-10.8203L14.6387-11.7871L3.04688-0.898438Q2.30469-0.214844 2.25098 0.498047Q2.19727 1.21094 2.8418 1.86523ZM9.25781-16.3281Q8.94531-16.0254 8.90625-15.6348Q8.86719-15.2441 9.04297-14.9512Q9.21875-14.6777 9.55566-14.541Q9.89258-14.4043 10.3809-14.5215Q11.4746-14.7754 12.5977-14.7314Q13.7207-14.6875 14.7949-13.9844L14.209-12.5293Q13.9551-11.9043 14.0674-11.4404Q14.1797-10.9766 14.5801-10.5664L16.875-8.25195Q17.2363-7.88086 17.5781-7.82227Q17.9199-7.76367 18.3398-7.8418L19.4043-8.03711L20.0684-7.36328L20.0293-6.80664Q20-6.43555 20.1221-6.12305Q20.2441-5.81055 20.6055-5.44922L21.3672-4.70703Q21.7285-4.3457 22.1533-4.33105Q22.5781-4.31641 22.9297-4.66797L25.8398-7.58789Q26.1914-7.93945 26.1816-8.35449Q26.1719-8.76953 25.8105-9.13086L25.0391-9.89258Q24.6875-10.2539 24.3799-10.3857Q24.0723-10.5176 23.7109-10.4883L23.1348-10.4395L22.4902-11.0742L22.7344-12.1973Q22.832-12.6172 22.6953-12.9834Q22.5586-13.3496 22.1191-13.7891L19.9219-15.9766Q18.6719-17.2168 17.2607-17.8369Q15.8496-18.457 14.4189-18.4814Q12.9883-18.5059 11.665-17.959Q10.3418-17.4121 9.25781-16.3281ZM10.752-15.957Q11.6602-16.6211 12.7002-16.9043Q13.7402-17.1875 14.8047-17.085Q15.8691-16.9824 16.8701-16.5137Q17.8711-16.0449 18.7012-15.2051L21.1328-12.793Q21.3086-12.6172 21.3525-12.4512Q21.3965-12.2852 21.3379-12.0312L21.0156-10.5469L22.5195-9.0625L23.5059-9.12109Q23.6914-9.13086 23.7891-9.09668Q23.8867-9.0625 24.0332-8.91602L24.6094-8.33984L22.168-5.89844L21.5918-6.47461Q21.4453-6.62109 21.4062-6.71875Q21.3672-6.81641 21.377-7.01172L21.4453-7.98828L19.9512-9.47266L18.4277-9.21875Q18.1836-9.16992 18.042-9.2041Q17.9004-9.23828 17.7148-9.41406L15.7129-11.416Q15.5176-11.5918 15.4932-11.7529Q15.4688-11.9141 15.5859-12.1875L16.4648-14.2773Q15.293-15.3711 13.8281-15.791Q12.3633-16.2109 10.8398-15.7617Q10.7227-15.7324 10.6885-15.8057Q10.6543-15.8789 10.752-15.957Z"/>
  </g>
  <text style="stroke:none;fill:black;font-family:sans-serif;font-size:13;font-weight:bold;" transform="matrix(1 0 0 1 1289 1953)">Exporting</text>
  <text style="stroke:none;fill:black;font-family:sans-serif;font-size:13;" transform="matrix(1 0 0 1 1289 1971)">Symbols should be outlined when exporting to ensure the</text>
  <text style="stroke:none;fill:black;font-family:sans-serif;font-size:13;" transform="matrix(1 0 0 1 1289 1989)">design is preserved when submitting to Xcode.</text>
  <text id="template-version" style="stroke:none;fill:black;font-family:sans-serif;font-size:13;text-anchor:end;" transform="matrix(1 0 0 1 3036 1933)">Template v.2.0</text>
  <text style="stroke:none;fill:black;font-family:sans-serif;font-size:13;text-anchor:end;" transform="matrix(1 0 0 1 3036 1951)">Requires Xcode 12 or greater</text>
  <text id="descriptive-name" style="stroke:none;fill:black;font-family:sans-serif;font-size:13;text-anchor:end;" transform="matrix(1 0 0 1 3036 1969)">Generated from bag.fill</text>
  <text style="stroke:none;fill:black;font-family:sans-serif;font-size:13;text-anchor:end;" transform="matrix(1 0 0 1 3036 1987)">Typeset at 100 points</text>
  <text style="stroke:none;fill:black;font-family:sans-serif;font-size:13;" transform="matrix(1 0 0 1 263 726)">Small</text>
  <text style="stroke:none;fill:black;font-family:sans-serif;font-size:13;" transform="matrix(1 0 0 1 263 1156)">Medium</text>
  <text style="stroke:none;fill:black;font-family:sans-serif;font-size:13;" transform="matrix(1 0 0 1 263 1586)">Large</text>
 </g>
 <g id="Guides">
  <g id="H-reference" style="fill:#27AAE1;stroke:none;" transform="matrix(1 0 0 1 339 696)">
   <path d="M0.993347 0L3.6377 0L29.3282-67.1326L30.0301-67.1326L30.0301-70.459L28.1227-70.459ZM11.6882-24.4797L46.9818-24.4797L46.2311-26.7288L12.4382-26.7288ZM55.1193 0L57.7637 0L30.6381-70.459L29.4327-70.459L29.4327-67.1326Z"/>
  </g>
  <line id="Baseline-S" style="fill:none;stroke:#27AAE1;opacity:1;stroke-width:0.5;" x1="263" x2="3036" y1="696" y2="696"/>
  <line id="Capline-S" style="fill:none;stroke:#27AAE1;opacity:1;stroke-width:0.5;" x1="263" x2="3036" y1="625.541" y2="625.541"/>
  <g id="H-reference" style="fill:#27AAE1;stroke:none;" transform="matrix(1 0 0 1 339 1126)">
   <path d="M0.993347 0L3.6377 0L29.3282-67.1326L30.0301-67.1326L30.0301-70.459L28.1227-70.459ZM11.6882-24.4797L46.9818-24.4797L46.2311-26.7288L12.4382-26.7288ZM55.1193 0L57.7637 0L30.6381-70.459L29.4327-70.459L29.4327-67.1326Z"/>
  </g>
  <line id="Baseline-M" style="fill:none;stroke:#27AAE1;opacity:1;stroke-width:0.5;" x1="263" x2="3036" y1="1126" y2="1126"/>
  <line id="Capline-M" style="fill:none;stroke:#27AAE1;opacity:1;stroke-width:0.5;" x1="263" x2="3036" y1="1055.54" y2="1055.54"/>
  <g id="H-reference" style="fill:#27AAE1;stroke:none;" transform="matrix(1 0 0 1 339 1556)">
   <path d="M0.993347 0L3.6377 0L29.3282-67.1326L30.0301-67.1326L30.0301-70.459L28.1227-70.459ZM11.6882-24.4797L46.9818-24.4797L46.2311-26.7288L12.4382-26.7288ZM55.1193 0L57.7637 0L30.6381-70.459L29.4327-70.459L29.4327-67.1326Z"/>
  </g>
  <line id="Baseline-L" style="fill:none;stroke:#27AAE1;opacity:1;stroke-width:0.5;" x1="263" x2="3036" y1="1556" y2="1556"/>
  <line id="Capline-L" style="fill:none;stroke:#27AAE1;opacity:1;stroke-width:0.5;" x1="263" x2="3036" y1="1485.54" y2="1485.54"/>
  <line id="left-margin" style="fill:none;stroke:#00AEEF;stroke-width:0.5;opacity:1.0;" x1="1394.06" x2="1394.06" y1="1030.79" y2="1150.12"/>
  <line id="right-margin" style="fill:none;stroke:#00AEEF;stroke-width:0.5;opacity:1.0;" x1="1505.63" x2="1505.63" y1="1030.79" y2="1150.12"/>
 </g>
 <g id="Symbols">
  <g id="Black-L" transform="matrix(1 0 0 1 2856.86 1556)">
   <path d="M16.084 2.71334Q16.084 14.0405 22.2958 20.2315Q28.5077 26.4225 39.8556 26.4225L113.814 26.4225Q124.745 26.4225 130.874 20.2303Q137.004 14.0381 137.004 2.71334L137.004-62.1238Q137.004-73.4473 130.791-79.6396Q124.579-85.8318 113.232-85.8318L107.887-85.8318Q107.824-94.3385 103.584-101.116Q99.3451-107.894 92.2772-111.843Q85.2094-115.791 76.5334-115.791Q67.9367-115.791 60.8396-111.843Q53.7426-107.894 49.5326-101.116Q45.3225-94.3385 45.2005-85.8318L39.8556-85.8318Q28.5077-85.8318 22.2958-79.6408Q16.084-73.4497 16.084-62.1238ZM63.4293-85.8318Q63.5305-89.8588 65.1858-93.0309Q66.841-96.2031 69.7762-98.0173Q72.7113-99.8315 76.5334-99.8315Q80.4347-99.8315 83.3302-98.0173Q86.2258-96.2031 87.9102-93.0309Q89.5947-89.8588 89.6375-85.8318Z"/>
  </g>
  <g id="Heavy-L" transform="matrix(1 0 0 1 2561.29 1556)">
   <path d="M16.084 2.85893Q16.084 13.7774 21.9834 19.6466Q27.8828 25.5159 38.8315 25.5159L112.807 25.5159Q123.151 25.5159 128.933 19.641Q134.714 13.7661 134.714 2.85893L134.714-62.1146Q134.714-73.0162 128.812-78.891Q122.91-84.7658 111.967-84.7658L105.433-84.7658Q105.337-92.789 101.284-99.2654Q97.2307-105.742 90.4662-109.551Q83.7017-113.36 75.3841-113.36Q67.1414-113.36 60.3545-109.551Q53.5677-105.742 49.5369-99.2654Q45.5062-92.789 45.3654-84.7658L38.8315-84.7658Q27.8828-84.7658 21.9834-78.8966Q16.084-73.0274 16.084-62.1146ZM61.527-84.7658Q61.6377-88.8149 63.4051-92.0516Q65.1726-95.2884 68.2757-97.1674Q71.3788-99.0465 75.3841-99.0465Q79.4642-99.0465 82.5299-97.1674Q85.5956-95.2884 87.3854-92.0516Q89.1752-88.8149 89.2412-84.7658Z"/>
  </g>
  <g id="Bold-L" transform="matrix(1 0 0 1 2265.99 1556)">
   <path d="M16.084 3.0432Q16.084 13.4322 21.5991 18.9094Q27.1142 24.3866 37.5412 24.3866L111.487 24.3866Q121.154 24.3866 126.524 18.8962Q131.894 13.4057 131.894 3.0432L131.894-62.1739Q131.894-72.5231 126.372-78.0134Q120.851-83.5038 110.437-83.5038L102.42-83.5038Q102.293-90.9352 98.4815-97.0463Q94.6702-103.157 88.2784-106.798Q81.8866-110.438 73.97-110.438Q66.1206-110.438 59.7142-106.798Q53.3078-103.157 49.5111-97.0463Q45.7143-90.9352 45.5579-83.5038L37.5412-83.5038Q27.1142-83.5038 21.5991-78.0267Q16.084-72.5496 16.084-62.1739ZM59.1234-83.5038Q59.2419-87.591 61.1402-90.9308Q63.0386-94.2705 66.3603-96.2488Q69.6821-98.2271 73.97-98.2271Q78.3251-98.2271 81.6132-96.2488Q84.9013-94.2705 86.8143-90.9308Q88.7272-87.591 88.8165-83.5038Z"/>
  </g>
  <g id="Semibold-L" transform="matrix(1 0 0 1 1970.25 1556)">
   <path d="M16.084 3.17024Q16.084 13.1942 21.3341 18.4011Q26.5843 23.6081 36.6518 23.6081L110.578 23.6081Q119.777 23.6081 124.864 18.3827Q129.95 13.1572 129.95 3.17024L129.95-62.2148Q129.95-72.1832 124.69-77.4085Q119.431-82.6337 109.382-82.6337L100.343-82.6337Q100.194-89.6572 96.5497-95.5165Q92.9049-101.376 86.7701-104.899Q80.6353-108.423 72.995-108.423Q65.4169-108.423 59.2728-104.899Q53.1287-101.376 49.4932-95.5165Q45.8578-89.6572 45.6906-82.6337L36.6518-82.6337Q26.5843-82.6337 21.3341-77.4269Q16.084-72.2202 16.084-62.2148ZM57.4663-82.6337Q57.5902-86.7473 59.5788-90.158Q61.5674-93.5688 65.0399-95.6155Q68.5124-97.6623 72.995-97.6623Q77.5398-97.6623 80.9813-95.6155Q84.4227-93.5688 86.4206-90.158Q88.4184-86.7473 88.5238-82.6337Z"/>
  </g>
  <g id="Medium-L" transform="matrix(1 0 0 1 1674.28 1556)">
   <path d="M16.084 3.26656Q16.084 13.0138 21.1332 18.0157Q26.1825 23.0177 35.9773 23.0177L109.888 23.0177Q118.733 23.0177 123.604 17.9933Q128.475 12.9688 128.475 3.26656L128.475-62.2459Q128.475-71.9255 123.415-76.9498Q118.354-81.974 108.582-81.974L98.768-81.974Q98.6032-88.6881 95.0848-94.3566Q91.5664-100.025 85.6265-103.46Q79.6865-106.895 72.2558-106.895Q64.8833-106.895 58.9381-103.46Q52.9929-100.025 49.4797-94.3566Q45.9666-88.6881 45.7913-81.974L35.9773-81.974Q26.1825-81.974 21.1332-76.9722Q16.084-71.9704 16.084-62.2459ZM56.2098-81.974Q56.3379-86.1075 58.3949-89.5721Q60.4518-93.0367 64.0387-95.1354Q67.6255-97.234 72.2558-97.234Q76.9443-97.234 80.5021-95.1354Q84.0598-93.0367 86.1221-89.5721Q88.1843-86.1075 88.3018-81.974Z"/>
  </g>
  <g id="Regular-L" transform="matrix(1 0 0 1 1378.53 1556)">
   <path d="M16.084 3.3922Q16.084 12.7784 20.8712 17.5131Q25.6584 22.2478 35.0976 22.2478L108.988 22.2478Q117.372 22.2478 121.962 17.4854Q126.552 12.7231 126.552 3.3922L126.552-62.2863Q126.552-71.5893 121.751-76.3514Q116.95-81.1135 107.539-81.1135L96.7138-81.1135Q96.5278-87.4242 93.1742-92.8436Q89.8206-98.263 84.1348-101.583Q78.449-104.903 71.2916-104.903Q64.1873-104.903 58.5015-101.583Q52.8157-98.263 49.4621-92.8436Q46.1085-87.4242 45.9225-81.1135L35.0976-81.1135Q25.6584-81.1135 20.8712-76.3791Q16.084-71.6446 16.084-62.2863ZM54.571-81.1135Q54.7044-85.273 56.8506-88.8079Q58.9968-92.3427 62.7327-94.5091Q66.4686-96.6754 71.2916-96.6754Q76.1677-96.6754 79.8771-94.5091Q83.5865-92.3427 85.7327-88.8079Q87.8789-85.273 88.0123-81.1135Z"/>
  </g>
  <g id="Light-L" transform="matrix(1 0 0 1 1082.74 1556)">
   <path d="M16.084 3.54483Q16.084 12.4157 20.623 16.9215Q25.1621 21.4272 34.067 21.4272L107.614 21.4272Q115.845 21.4272 120.273 16.8747Q124.701 12.3223 124.701 3.54483L124.701-62.7827Q124.701-71.513 120.139-76.0651Q115.576-80.6172 106.718-80.6172L94.8052-80.6172Q94.6574-86.5654 91.5424-91.7844Q88.4273-97.0034 82.9801-100.228Q77.5329-103.452 70.3755-103.452Q63.2522-103.452 57.805-100.228Q52.3578-97.0034 49.2428-91.7844Q46.1277-86.5654 45.9799-80.6172L34.067-80.6172Q25.1621-80.6172 20.623-76.1118Q16.084-71.6065 16.084-62.7827ZM52.605-80.6172Q52.7195-84.8722 54.9039-88.6265Q57.0883-92.3809 61.0437-94.738Q64.9991-97.0951 70.3755-97.0951Q75.7861-97.0951 79.7244-94.738Q83.6628-92.3809 85.8472-88.6265Q88.0315-84.8722 88.146-80.6172Z"/>
  </g>
  <g id="Thin-L" transform="matrix(1 0 0 1 787.254 1556)">
   <path d="M16.084 3.7467Q16.084 11.9361 20.2948 16.139Q24.5056 20.3419 32.704 20.3419L105.797 20.3419Q113.825 20.3419 118.039 16.0671Q122.253 11.7922 122.253 3.7467L122.253-63.4392Q122.253-71.4121 118.006-75.6864Q113.759-79.9607 105.633-79.9607L92.281-79.9607Q92.1837-85.4297 89.3842-90.3836Q86.5846-95.3376 81.453-98.4358Q76.3213-101.534 69.1639-101.534Q62.0156-101.534 56.8839-98.4358Q51.7522-95.3376 48.9527-90.3836Q46.1532-85.4297 46.0558-79.9607L32.704-79.9607Q24.5056-79.9607 20.2948-75.7583Q16.084-71.556 16.084-63.4392ZM50.0049-79.9607Q50.0944-84.3421 52.3292-88.3867Q54.5641-92.4313 58.8098-95.0408Q63.0554-97.6503 69.1639-97.6503Q75.2814-97.6503 79.5226-95.0408Q83.7637-92.4313 85.9986-88.3867Q88.2334-84.3421 88.3229-79.9607Z"/>
  </g>
  <g id="Ultralight-L" transform="matrix(1 0 0 1 491.17 1556)">
   <path d="M16.084 3.8501Q16.084 11.6904 20.1266 15.7382Q24.1693 19.7861 32.0059 19.7861L104.866 19.7861Q112.791 19.7861 116.895 15.6534Q120.999 11.5206 120.999 3.8501L120.999-63.7754Q120.999-71.3604 116.913-75.4924Q112.828-79.6244 105.077-79.6244L90.9881-79.6244Q90.9166-84.848 88.2787-89.6662Q85.6408-94.4843 80.6708-97.518Q75.7007-100.552 68.5433-100.552Q61.3822-100.552 56.4121-97.518Q51.442-94.4843 48.8041-89.6662Q46.1662-84.848 46.0947-79.6244L32.0059-79.6244Q24.1693-79.6244 20.1266-75.5773Q16.084-71.5302 16.084-63.7754ZM48.6731-79.6244Q48.7498-84.0705 51.0105-88.2639Q53.2712-92.4572 57.6656-95.1959Q62.0599-97.9346 68.5433-97.9346Q75.0229-97.9346 79.4192-95.1959Q83.8154-92.4572 86.0761-88.2639Q88.3368-84.0705 88.4135-79.6244Z"/>
  </g>
  <g id="Black-M" transform="matrix(1 0 0 1 2873.24 1126)">
   <path d="M12.4609-5.93804Q12.4609 3.11902 17.5084 8.16099Q22.5559 13.203 31.6184 13.203L88.8557 13.203Q97.8084 13.203 102.834 8.16127Q107.859 3.11958 107.859-5.93804L107.859-56.1408Q107.859-65.1987 102.812-70.2404Q97.7645-75.2821 88.7016-75.2821L85.4353-75.2821Q85.4191-82.2391 82.0071-87.722Q78.5951-93.2049 72.891-96.3707Q67.1869-99.5366 60.1573-99.5366Q53.1902-99.5366 47.4576-96.3707Q41.7249-93.2049 38.3415-87.722Q34.958-82.2391 34.8848-75.2821L31.6184-75.2821Q22.5559-75.2821 17.5084-70.2401Q12.4609-65.1981 12.4609-56.1408ZM50.5098-75.2821Q50.5776-78.3959 51.7687-80.8277Q52.9599-83.2596 55.1193-84.6352Q57.2786-86.0109 60.1573-86.0109Q63.0985-86.0109 65.2266-84.6352Q67.3547-83.2596 68.5743-80.8277Q69.794-78.3959 69.8047-75.2821Z"/>
  </g>
  <g id="Heavy-M" transform="matrix(1 0 0 1 2577.56 1126)">
   <path d="M12.4609-5.80979Q12.4609 2.89526 17.2259 7.6438Q21.9908 12.3923 30.7123 12.3923L87.9979 12.3923Q96.3911 12.3923 101.092 7.64153Q105.792 2.89071 105.792-5.80979L105.792-56.086Q105.792-64.7842 101.026-69.535Q96.2599-74.2858 87.5407-74.2858L83.2123-74.2858Q83.1608-80.8036 79.9088-86.0103Q76.6568-91.2171 71.2272-94.2556Q65.7975-97.2941 59.1183-97.2941Q52.499-97.2941 47.0476-94.2556Q41.5962-91.2171 38.366-86.0103Q35.1358-80.8036 35.0407-74.2858L30.7123-74.2858Q21.9908-74.2858 17.2259-69.5373Q12.4609-64.7888 12.4609-56.086ZM48.8316-74.2858Q48.9103-77.4124 50.2076-79.8871Q51.5049-82.3619 53.8083-83.7833Q56.1116-85.2048 59.1183-85.2048Q62.185-85.2048 64.4583-83.7833Q66.7316-82.3619 68.0507-79.8871Q69.3698-77.4124 69.4049-74.2858Z"/>
  </g>
  <g id="Bold-M" transform="matrix(1 0 0 1 2282.01 1126)">
   <path d="M12.4609-5.66633Q12.4609 2.64496 16.9098 7.06525Q21.3587 11.4856 29.6986 11.4856L87.0383 11.4856Q94.8056 11.4856 99.1427 7.06012Q103.48 2.63469 103.48-5.66633L103.48-56.0247Q103.48-64.3206 99.0282-68.746Q94.5767-73.1714 86.242-73.1714L80.7255-73.1714Q80.6345-79.1977 77.5615-84.0955Q74.4884-88.9934 69.3659-91.8895Q64.2433-94.7856 57.956-94.7856Q51.7258-94.7856 46.589-91.8895Q41.4522-88.9934 38.3934-84.0955Q35.3346-79.1977 35.2151-73.1714L29.6986-73.1714Q21.3587-73.1714 16.9098-68.7511Q12.4609-64.3308 12.4609-56.0247ZM46.9543-73.1714Q47.0452-76.3123 48.4613-78.835Q49.8774-81.3577 52.3417-82.8303Q54.8061-84.303 57.956-84.303Q61.1631-84.303 63.5988-82.8303Q66.0346-81.3577 67.4649-78.835Q68.8953-76.3123 68.9577-73.1714Z"/>
  </g>
  <g id="Semibold-M" transform="matrix(1 0 0 1 1986.09 1126)">
   <path d="M12.4609-5.56743Q12.4609 2.4724 16.6919 6.66641Q20.9229 10.8604 28.9999 10.8604L86.3767 10.8604Q93.7127 10.8604 97.7991 6.6593Q101.886 2.45819 101.886-5.56743L101.886-55.9825Q101.886-64.001 97.651-68.202Q93.4164-72.4031 85.3466-72.4031L79.0112-72.4031Q78.8929-78.0906 75.9433-82.7755Q72.9936-87.4604 68.0827-90.2583Q63.1719-93.0563 57.1547-93.0563Q51.1928-93.0563 46.2728-90.2583Q41.3529-87.4604 38.4123-82.7755Q35.4717-78.0906 35.3353-72.4031L28.9999-72.4031Q20.9229-72.4031 16.6919-68.2091Q12.4609-64.0152 12.4609-55.9825ZM45.66-72.4031Q45.7594-75.5539 47.2574-78.1096Q48.7554-80.6654 51.3307-82.1733Q53.906-83.6813 57.1547-83.6813Q60.4586-83.6813 63.0063-82.1733Q65.554-80.6654 67.0611-78.1096Q68.5681-75.5539 68.6494-72.4031Z"/>
  </g>
  <g id="Medium-M" transform="matrix(1 0 0 1 1689.99 1126)">
   <path d="M12.4609-5.49244Q12.4609 2.34156 16.5267 6.36398Q20.5925 10.3864 28.47 10.3864L85.8751 10.3864Q92.8839 10.3864 96.7804 6.35538Q100.677 2.32436 100.677-5.49244L100.677-55.9505Q100.677-63.7586 96.6067-67.7895Q92.5366-71.8205 84.6678-71.8205L77.7113-71.8205Q77.5724-77.2512 74.7163-81.7746Q71.8601-86.298 67.1098-89.0215Q62.3595-91.745 56.5471-91.745Q50.7886-91.745 46.0331-89.0215Q41.2777-86.298 38.4267-81.7746Q35.5757-77.2512 35.4265-71.8205L28.47-71.8205Q20.5925-71.8205 16.5267-67.7981Q12.4609-63.7758 12.4609-55.9505ZM44.6787-71.8205Q44.7845-74.9788 46.3445-77.5596Q47.9046-80.1404 50.5641-81.6752Q53.2236-83.2099 56.5471-83.2099Q59.9245-83.2099 62.5571-81.6752Q65.1897-80.1404 66.7549-77.5596Q68.32-74.9788 68.4156-71.8205Z"/>
  </g>
  <g id="Regular-M" transform="matrix(1 0 0 1 1394.06 1126)">
   <path d="M12.4609-5.39462Q12.4609 2.17089 16.3112 5.96952Q20.1615 9.76814 27.7789 9.76814L85.2209 9.76814Q91.8029 9.76814 95.4516 5.95897Q99.1003 2.1498 99.1003-5.39462L99.1003-55.9087Q99.1003-63.4425 95.2446-67.2516Q91.389-71.0606 83.7823-71.0606L76.0158-71.0606Q75.85-76.1562 73.1158-80.4691Q70.3817-84.7819 65.8408-87.4083Q61.2998-90.0346 55.7547-90.0346Q50.2614-90.0346 45.7204-87.4083Q41.1795-84.7819 38.4453-80.4691Q35.7112-76.1562 35.5454-71.0606L27.7789-71.0606Q20.1615-71.0606 16.3112-67.2621Q12.4609-63.4636 12.4609-55.9087ZM43.3987-71.0606Q43.5129-74.2287 45.1539-76.8422Q46.7949-79.4558 49.5642-81.0254Q52.3335-82.595 55.7547-82.595Q59.2277-82.595 61.9711-81.0254Q64.7145-79.4558 66.3555-76.8422Q67.9965-74.2287 68.1106-71.0606Z"/>
  </g>
  <g id="Light-M" transform="matrix(1 0 0 1 1098.18 1126)">
   <path d="M12.4609-5.25778Q12.4609 1.84575 16.0887 5.43911Q19.7165 9.03247 26.8549 9.03247L83.989 9.03247Q90.4339 9.03247 93.9373 5.41146Q97.4406 1.79044 97.4406-5.25778L97.4406-56.3537Q97.4406-63.3741 93.7989-66.9948Q90.1572-70.6156 83.0466-70.6156L74.3047-70.6156Q74.1731-75.3863 71.6528-79.5195Q69.1326-83.6527 64.8055-86.1935Q60.4784-88.7343 54.9333-88.7343Q49.4231-88.7343 45.096-86.1935Q40.7689-83.6527 38.2487-79.5195Q35.7285-75.3863 35.5969-70.6156L26.8549-70.6156Q19.7165-70.6156 16.0887-67.0225Q12.4609-63.4294 12.4609-56.3537ZM41.6361-70.6156Q41.7333-73.8693 43.4086-76.6797Q45.0838-79.49 48.0499-81.2307Q51.0159-82.9714 54.9333-82.9714Q58.8856-82.9714 61.8342-81.2307Q64.7829-79.49 66.4581-76.6797Q68.1333-73.8693 68.2305-70.6156Z"/>
  </g>
  <g id="Thin-M" transform="matrix(1 0 0 1 802.569 1126)">
   <path d="M12.4609-5.0768Q12.4609 1.41572 15.7944 4.7376Q19.1279 8.05948 25.6329 8.05948L82.3597 8.05948Q88.6233 8.05948 91.9344 4.68733Q95.2456 1.31517 95.2456-5.0768L95.2456-56.9423Q95.2456-63.2836 91.8867-66.6553Q88.5279-70.027 82.0736-70.027L72.0416-70.027Q71.9552-74.3681 69.7179-78.2636Q67.4805-82.1592 63.4363-84.5869Q59.3922-87.0146 53.847-87.0146Q48.3144-87.0146 44.2702-84.5869Q40.226-82.1592 37.9886-78.2636Q35.7513-74.3681 35.6649-70.027L25.6329-70.027Q19.1279-70.027 15.7944-66.7056Q12.4609-63.3841 12.4609-56.9423ZM39.305-70.027Q39.3798-73.3941 41.1002-76.4646Q42.8207-79.5352 46.047-81.5021Q49.2734-83.4691 53.847-83.4691Q58.4332-83.4691 61.6533-81.5021Q64.8734-79.5352 66.5938-76.4646Q68.3143-73.3941 68.3891-70.027Z"/>
  </g>
  <g id="Ultralight-M" transform="matrix(1 0 0 1 506.42 1126)">
   <path d="M12.4609-4.9841Q12.4609 1.19546 15.6437 4.37829Q18.8264 7.56112 25.007 7.56112L81.5253 7.56112Q87.6959 7.56112 90.9086 4.31643Q94.1213 1.07173 94.1213-4.9841L94.1213-57.2438Q94.1213-63.2372 90.9074-66.4814Q87.6934-69.7256 81.5753-69.7256L70.8825-69.7256Q70.8193-73.8466 68.7268-77.6204Q66.6344-81.3942 62.7351-83.764Q58.8358-86.1338 53.2906-86.1338Q47.7465-86.1338 43.8472-83.764Q39.9479-81.3942 37.8554-77.6204Q35.763-73.8466 35.6998-69.7256L25.007-69.7256Q18.8264-69.7256 15.6437-66.5433Q12.4609-63.3609 12.4609-57.2438ZM38.111-69.7256Q38.1743-73.1506 39.9179-76.3545Q41.6616-79.5584 45.0212-81.6412Q48.3808-83.724 53.2906-83.724Q58.2014-83.724 61.5606-81.6412Q64.9197-79.5584 66.6634-76.3545Q68.407-73.1506 68.4703-69.7256Z"/>
  </g>
  <g id="Black-S" transform="matrix(1 0 0 1 2885.99 696)">
   <path d="M9.76562-12.3047Q9.76562-5.12695 13.7939-1.09863Q17.8223 2.92969 25 2.92969L69.8242 2.92969Q77.002 2.92969 81.0303-1.09863Q85.0586-5.12695 85.0586-12.3047L85.0586-51.6602Q85.0586-58.8379 81.0303-62.8662Q77.002-66.8945 69.8242-66.8945L67.5293-66.8945Q67.5293-72.4609 64.8193-76.8311Q62.1094-81.2012 57.5684-83.7158Q53.0273-86.2305 47.4121-86.2305Q41.8457-86.2305 37.2803-83.7158Q32.7148-81.2012 30.0293-76.8311Q27.3438-72.4609 27.2949-66.8945L25-66.8945Q17.8223-66.8945 13.7939-62.8662Q9.76562-58.8379 9.76562-51.6602ZM39.9902-66.8945Q40.0391-69.3359 40.9424-71.2402Q41.8457-73.1445 43.5059-74.2188Q45.166-75.293 47.4121-75.293Q49.707-75.293 51.3428-74.2188Q52.9785-73.1445 53.9062-71.2402Q54.834-69.3359 54.834-66.8945Z"/>
  </g>
  <g id="Heavy-S" transform="matrix(1 0 0 1 2590.05 696)">
   <path d="M9.76562-12.2125Q9.76562-5.27677 13.5807-1.47318Q17.3959 2.33042 24.3431 2.33042L69.248 2.33042Q75.9648 2.33042 79.7338-1.47318Q83.5028-5.27677 83.5028-12.2125L83.5028-51.5564Q83.5028-58.4922 79.6877-62.2957Q75.8726-66.0993 68.9253-66.0993L65.8467-66.0993Q65.8122-71.3315 63.2117-75.4885Q60.6112-79.6454 56.2776-82.0621Q51.944-84.4788 46.6284-84.4788Q41.3617-84.4788 37.0094-82.0621Q32.6572-79.6454 30.0754-75.4885Q27.4936-71.3315 27.4217-66.0993L24.3431-66.0993Q17.3959-66.0993 13.5807-62.2957Q9.76562-58.4922 9.76562-51.5564ZM38.7802-66.0993Q38.8405-68.5407 39.8303-70.4566Q40.82-72.3724 42.5781-73.4639Q44.3363-74.5554 46.6284-74.5554Q48.9695-74.5554 50.7032-73.4639Q52.4369-72.3724 53.4453-70.4566Q54.4537-68.5407 54.4767-66.0993Z"/>
  </g>
  <g id="Bold-S" transform="matrix(1 0 0 1 2294.21 696)">
   <path d="M9.76562-12.1094Q9.76562-5.44434 13.3423-1.89209Q16.9189 1.66016 23.6084 1.66016L68.6035 1.66016Q74.8047 1.66016 78.2837-1.89209Q81.7627-5.44434 81.7627-12.1094L81.7627-51.4404Q81.7627-58.1055 78.186-61.6577Q74.6094-65.21 67.9199-65.21L63.9648-65.21Q63.8916-70.0684 61.4136-73.9868Q58.9355-77.9053 54.834-80.2124Q50.7324-82.5195 45.752-82.5195Q40.8203-82.5195 36.7065-80.2124Q32.5928-77.9053 30.127-73.9868Q27.6611-70.0684 27.5635-65.21L23.6084-65.21Q16.9189-65.21 13.3423-61.6577Q9.76562-58.1055 9.76562-51.4404ZM37.4268-65.21Q37.5-67.6514 38.5864-69.5801Q39.6729-71.5088 41.5405-72.6196Q43.4082-73.7305 45.752-73.7305Q48.1445-73.7305 49.9878-72.6196Q51.8311-71.5088 52.9297-69.5801Q54.0283-67.6514 54.0771-65.21Z"/>
  </g>
  <g id="Semibold-S" transform="matrix(1 0 0 1 1998.1 696)">
   <path d="M9.76562-12.0383Q9.76562-5.55986 13.1779-2.18091Q16.5901 1.19805 23.1019 1.19805L68.1592 1.19805Q74.0049 1.19805 77.2839-2.18091Q80.563-5.55986 80.563-12.0383L80.563-51.3604Q80.563-57.8389 77.1507-61.2178Q73.7385-64.5968 67.2268-64.5968L62.6674-64.5968Q62.5675-69.1975 60.1739-72.9515Q57.7803-76.7056 53.8387-78.9372Q49.8971-81.1688 45.1477-81.1688Q40.4471-81.1688 36.4977-78.9372Q32.5483-76.7056 30.1625-72.9515Q27.7767-69.1975 27.6612-64.5968L23.1019-64.5968Q16.5901-64.5968 13.1779-61.2178Q9.76562-57.8389 9.76562-51.3604ZM36.4937-64.5968Q36.5758-67.0382 37.7289-68.9758Q38.8819-70.9134 40.8251-72.0375Q42.7684-73.1617 45.1477-73.1617Q47.5758-73.1617 49.4946-72.0375Q51.4134-70.9134 52.5742-68.9758Q53.7351-67.0382 53.8017-64.5968Z"/>
  </g>
  <g id="Medium-S" transform="matrix(1 0 0 1 1701.85 696)">
   <path d="M9.76562-11.9844Q9.76562-5.64746 13.0532-2.3999Q16.3408 0.847656 22.7178 0.847656L67.8223 0.847656Q73.3984 0.847656 76.5259-2.3999Q79.6533-5.64746 79.6533-11.9844L79.6533-51.2998Q79.6533-57.6367 76.3657-60.8843Q73.0781-64.1318 66.7012-64.1318L61.6836-64.1318Q61.5635-68.5371 59.2339-72.1665Q56.9043-75.7959 53.084-77.9702Q49.2637-80.1445 44.6895-80.1445Q40.1641-80.1445 36.3394-77.9702Q32.5146-75.7959 30.1895-72.1665Q27.8643-68.5371 27.7354-64.1318L22.7178-64.1318Q16.3408-64.1318 13.0532-60.8843Q9.76562-57.6367 9.76562-51.2998ZM35.7861-64.1318Q35.875-66.5732 37.0786-68.5176Q38.2822-70.4619 40.2827-71.5962Q42.2832-72.7305 44.6895-72.7305Q47.1445-72.7305 49.1206-71.5962Q51.0967-70.4619 52.3047-68.5176Q53.5127-66.5732 53.5928-64.1318Z"/>
  </g>
  <g id="Regular-S" transform="matrix(1 0 0 1 1405.73 696)">
   <path d="M9.76562-11.9141Q9.76562-5.76172 12.8906-2.68555Q16.0156 0.390625 22.2168 0.390625L67.3828 0.390625Q72.6074 0.390625 75.5371-2.68555Q78.4668-5.76172 78.4668-11.9141L78.4668-51.2207Q78.4668-57.373 75.3418-60.4492Q72.2168-63.5254 66.0156-63.5254L60.4004-63.5254Q60.2539-67.6758 58.0078-71.1426Q55.7617-74.6094 52.0996-76.709Q48.4375-78.8086 44.0918-78.8086Q39.7949-78.8086 36.1328-76.709Q32.4707-74.6094 30.2246-71.1426Q27.9785-67.6758 27.832-63.5254L22.2168-63.5254Q16.0156-63.5254 12.8906-60.4492Q9.76562-57.373 9.76562-51.2207ZM34.8633-63.5254Q34.9609-65.9668 36.2305-67.9199Q37.5-69.873 39.5752-71.0205Q41.6504-72.168 44.0918-72.168Q46.582-72.168 48.6328-71.0205Q50.6836-69.873 51.9531-67.9199Q53.2227-65.9668 53.3203-63.5254Z"/>
  </g>
  <g id="Light-S" transform="matrix(1 0 0 1 1109.75 696)">
   <path d="M9.76562-11.793Q9.76562-6.04935 12.6938-3.15475Q15.6219-0.260162 21.3994-0.260162L66.2931-0.260162Q71.3964-0.260162 74.1975-3.16989Q76.9986-6.07961 76.9986-11.793L76.9986-51.6144Q76.9986-57.3125 74.0629-60.2221Q71.1271-63.1317 65.3648-63.1317L58.8867-63.1317Q58.7705-66.9947 56.7136-70.3026Q54.6567-73.6104 51.1838-75.6344Q47.7109-77.6583 43.3652-77.6583Q39.0533-77.6583 35.5804-75.6344Q32.1075-73.6104 30.0507-70.3026Q27.9938-66.9947 27.8776-63.1317L21.3994-63.1317Q15.6219-63.1317 12.6938-60.2372Q9.76562-57.3428 9.76562-51.6144ZM33.3041-63.1317Q33.3867-65.6489 34.6865-67.7761Q35.9863-69.9033 38.2356-71.2021Q40.4849-72.5009 43.3652-72.5009Q46.2794-72.5009 48.5118-71.2021Q50.7441-69.9033 52.0439-67.7761Q53.3437-65.6489 53.4264-63.1317Z"/>
  </g>
  <g id="Thin-S" transform="matrix(1 0 0 1 814.011 696)">
   <path d="M9.76562-11.6329Q9.76562-6.42976 12.4335-3.77532Q15.1013-1.12088 20.3184-1.12088L64.8518-1.12088Q69.7947-1.12088 72.4258-3.81046Q75.0569-6.50005 75.0569-11.6329L75.0569-52.135Q75.0569-57.2325 72.3714-59.9218Q69.6858-62.611 64.5041-62.611L56.8848-62.611Q56.8086-66.094 55.0019-69.1916Q53.1953-72.2893 49.9726-74.2131Q46.75-76.137 42.4043-76.137Q38.0725-76.137 34.8499-74.2131Q31.6272-72.2893 29.8206-69.1916Q28.014-66.094 27.9378-62.611L20.3184-62.611Q15.1013-62.611 12.4335-59.9569Q9.76562-57.3028 9.76562-52.135ZM31.2419-62.611Q31.3047-65.2285 32.6446-67.5859Q33.9844-69.9433 36.4639-71.4422Q38.9434-72.9411 42.4043-72.9411Q45.8791-72.9411 48.3517-71.4422Q50.8242-69.9433 52.164-67.5859Q53.5038-65.2285 53.5666-62.611Z"/>
  </g>
  <g id="Ultralight-S" transform="matrix(1 0 0 1 517.797 696)">
   <path d="M9.76562-11.5509Q9.76562-6.6246 12.3001-4.09317Q14.8346-1.56174 19.7647-1.56174L64.1136-1.56174Q68.9743-1.56174 71.5183-4.13857Q74.0623-6.71539 74.0623-11.5509L74.0623-52.4017Q74.0623-57.1915 71.505-59.7679Q68.9476-62.3444 64.0633-62.3444L55.8594-62.3444Q55.8037-65.6326 54.1252-68.6226Q52.4467-71.6125 49.3523-73.4852Q46.2578-75.3578 41.9121-75.3578Q37.5702-75.3578 34.4757-73.4852Q31.3812-71.6125 29.7028-68.6226Q28.0243-65.6326 27.9686-62.3444L19.7647-62.3444Q14.8346-62.3444 12.3001-59.8133Q9.76562-57.2823 9.76562-52.4017ZM30.1857-62.3444Q30.2383-65.0131 31.5987-67.4885Q32.959-69.9638 35.5564-71.5652Q38.1538-73.1667 41.9121-73.1667Q45.6741-73.1667 48.2697-71.5652Q50.8652-69.9638 52.2255-67.4885Q53.5858-65.0131 53.6385-62.3444Z"/>
  </g>
 </g>
</svg>
