<?xml version="1.0" encoding="UTF-8"?>
<!--Generator: Apple Native CoreSVG 175.5-->
<!DOCTYPE svg
PUBLIC "-//W3C//DTD SVG 1.1//EN"
       "http://www.w3.org/Graphics/SVG/1.1/DTD/svg11.dtd">
<svg version="1.1" xmlns="http://www.w3.org/2000/svg" xmlns:xlink="http://www.w3.org/1999/xlink" width="3300" height="2200">
 <!--glyph: "uni100EE4.medium", point size: 100.0, font version: "18.0d9e1", template writer version: "84"-->
 <g id="Notes">
  <rect height="2200" id="artboard" style="fill:white;opacity:1" width="3300" x="0" y="0"/>
  <line style="fill:none;stroke:black;opacity:1;stroke-width:0.5;" x1="263" x2="3036" y1="292" y2="292"/>
  <text style="stroke:none;fill:black;font-family:sans-serif;font-size:13;font-weight:bold;" transform="matrix(1 0 0 1 263 322)">Weight/Scale Variations</text>
  <text style="stroke:none;fill:black;font-family:sans-serif;font-size:13;text-anchor:middle;" transform="matrix(1 0 0 1 559.711 322)">Ultralight</text>
  <text style="stroke:none;fill:black;font-family:sans-serif;font-size:13;text-anchor:middle;" transform="matrix(1 0 0 1 856.422 322)">Thin</text>
  <text style="stroke:none;fill:black;font-family:sans-serif;font-size:13;text-anchor:middle;" transform="matrix(1 0 0 1 1153.13 322)">Light</text>
  <text style="stroke:none;fill:black;font-family:sans-serif;font-size:13;text-anchor:middle;" transform="matrix(1 0 0 1 1449.84 322)">Regular</text>
  <text style="stroke:none;fill:black;font-family:sans-serif;font-size:13;text-anchor:middle;" transform="matrix(1 0 0 1 1746.56 322)">Medium</text>
  <text style="stroke:none;fill:black;font-family:sans-serif;font-size:13;text-anchor:middle;" transform="matrix(1 0 0 1 2043.27 322)">Semibold</text>
  <text style="stroke:none;fill:black;font-family:sans-serif;font-size:13;text-anchor:middle;" transform="matrix(1 0 0 1 2339.98 322)">Bold</text>
  <text style="stroke:none;fill:black;font-family:sans-serif;font-size:13;text-anchor:middle;" transform="matrix(1 0 0 1 2636.69 322)">Heavy</text>
  <text style="stroke:none;fill:black;font-family:sans-serif;font-size:13;text-anchor:middle;" transform="matrix(1 0 0 1 2933.4 322)">Black</text>
  <line style="fill:none;stroke:black;opacity:1;stroke-width:0.5;" x1="263" x2="3036" y1="1903" y2="1903"/>
  <g transform="matrix(1 0 0 1 263 1933)">
   <path d="M9.24805 0.830078Q10.8691 0.830078 12.2949 0.214844Q13.7207-0.400391 14.8096-1.49414Q15.8984-2.58789 16.5186-4.01367Q17.1387-5.43945 17.1387-7.05078Q17.1387-8.66211 16.5186-10.0879Q15.8984-11.5137 14.8047-12.6074Q13.7109-13.7012 12.2852-14.3164Q10.8594-14.9316 9.23828-14.9316Q7.62695-14.9316 6.20117-14.3164Q4.77539-13.7012 3.69141-12.6074Q2.60742-11.5137 1.9873-10.0879Q1.36719-8.66211 1.36719-7.05078Q1.36719-5.43945 1.9873-4.01367Q2.60742-2.58789 3.69629-1.49414Q4.78516-0.400391 6.21094 0.214844Q7.63672 0.830078 9.24805 0.830078ZM9.24805-0.654297Q7.91992-0.654297 6.7627-1.14746Q5.60547-1.64062 4.73145-2.51953Q3.85742-3.39844 3.36426-4.56055Q2.87109-5.72266 2.87109-7.05078Q2.87109-8.37891 3.35938-9.54102Q3.84766-10.7031 4.72168-11.582Q5.5957-12.4609 6.75293-12.9541Q7.91016-13.4473 9.23828-13.4473Q10.5762-13.4473 11.7383-12.9541Q12.9004-12.4609 13.7793-11.582Q14.6582-10.7031 15.1514-9.54102Q15.6445-8.37891 15.6445-7.05078Q15.6445-5.72266 15.1514-4.56055Q14.6582-3.39844 13.7793-2.51953Q12.9004-1.64062 11.7432-1.14746Q10.5859-0.654297 9.24805-0.654297ZM5.6543-7.05078Q5.6543-6.72852 5.85938-6.52832Q6.06445-6.32812 6.40625-6.32812L8.51562-6.32812L8.51562-4.20898Q8.51562-3.88672 8.71094-3.67676Q8.90625-3.4668 9.23828-3.4668Q9.56055-3.4668 9.77051-3.67676Q9.98047-3.88672 9.98047-4.20898L9.98047-6.32812L12.0898-6.32812Q12.4219-6.32812 12.627-6.52832Q12.832-6.72852 12.832-7.05078Q12.832-7.38281 12.627-7.58789Q12.4219-7.79297 12.0898-7.79297L9.98047-7.79297L9.98047-9.90234Q9.98047-10.2344 9.77051-10.4443Q9.56055-10.6543 9.23828-10.6543Q8.90625-10.6543 8.71094-10.4443Q8.51562-10.2344 8.51562-9.90234L8.51562-7.79297L6.40625-7.79297Q6.06445-7.79297 5.85938-7.58789Q5.6543-7.38281 5.6543-7.05078Z"/>
  </g>
  <g transform="matrix(1 0 0 1 281.867 1933)">
   <path d="M11.709 2.91016Q13.75 2.91016 15.5518 2.12891Q17.3535 1.34766 18.7305-0.0292969Q20.1074-1.40625 20.8887-3.20801Q21.6699-5.00977 21.6699-7.05078Q21.6699-9.0918 20.8887-10.8936Q20.1074-12.6953 18.7305-14.0723Q17.3535-15.4492 15.5469-16.2305Q13.7402-17.0117 11.6992-17.0117Q9.6582-17.0117 7.85645-16.2305Q6.05469-15.4492 4.68262-14.0723Q3.31055-12.6953 2.5293-10.8936Q1.74805-9.0918 1.74805-7.05078Q1.74805-5.00977 2.5293-3.20801Q3.31055-1.40625 4.6875-0.0292969Q6.06445 1.34766 7.86621 2.12891Q9.66797 2.91016 11.709 2.91016ZM11.709 1.25Q9.98047 1.25 8.47656 0.605469Q6.97266-0.0390625 5.83496-1.17676Q4.69727-2.31445 4.05762-3.81836Q3.41797-5.32227 3.41797-7.05078Q3.41797-8.7793 4.05762-10.2832Q4.69727-11.7871 5.83008-12.9297Q6.96289-14.0723 8.4668-14.7119Q9.9707-15.3516 11.6992-15.3516Q13.4277-15.3516 14.9365-14.7119Q16.4453-14.0723 17.583-12.9297Q18.7207-11.7871 19.3652-10.2832Q20.0098-8.7793 20.0098-7.05078Q20.0098-5.32227 19.3701-3.81836Q18.7305-2.31445 17.5879-1.17676Q16.4453-0.0390625 14.9414 0.605469Q13.4375 1.25 11.709 1.25ZM7.17773-7.05078Q7.17773-6.69922 7.41211-6.47461Q7.64648-6.25 8.01758-6.25L10.8887-6.25L10.8887-3.36914Q10.8887-2.99805 11.1133-2.76855Q11.3379-2.53906 11.6895-2.53906Q12.0605-2.53906 12.29-2.76855Q12.5195-2.99805 12.5195-3.36914L12.5195-6.25L15.4004-6.25Q15.7715-6.25 16.001-6.47461Q16.2305-6.69922 16.2305-7.05078Q16.2305-7.42188 16.001-7.65137Q15.7715-7.88086 15.4004-7.88086L12.5195-7.88086L12.5195-10.752Q12.5195-11.1328 12.29-11.3623Q12.0605-11.5918 11.6895-11.5918Q11.3379-11.5918 11.1133-11.3574Q10.8887-11.123 10.8887-10.752L10.8887-7.88086L8.01758-7.88086Q7.63672-7.88086 7.40723-7.65137Q7.17773-7.42188 7.17773-7.05078Z"/>
  </g>
  <g transform="matrix(1 0 0 1 305.646 1933)">
   <path d="M14.9707 5.66406Q17.0605 5.66406 18.96 5.01465Q20.8594 4.36523 22.4512 3.19336Q24.043 2.02148 25.2197 0.429688Q26.3965-1.16211 27.0459-3.06641Q27.6953-4.9707 27.6953-7.05078Q27.6953-9.14062 27.0459-11.04Q26.3965-12.9395 25.2197-14.5312Q24.043-16.123 22.4512-17.2998Q20.8594-18.4766 18.9551-19.126Q17.0508-19.7754 14.9609-19.7754Q12.8711-19.7754 10.9717-19.126Q9.07227-18.4766 7.48535-17.2998Q5.89844-16.123 4.72168-14.5312Q3.54492-12.9395 2.90039-11.04Q2.25586-9.14062 2.25586-7.05078Q2.25586-4.9707 2.90527-3.06641Q3.55469-1.16211 4.72656 0.429688Q5.89844 2.02148 7.49023 3.19336Q9.08203 4.36523 10.9814 5.01465Q12.8809 5.66406 14.9707 5.66406ZM14.9707 3.84766Q13.1641 3.84766 11.5283 3.2959Q9.89258 2.74414 8.53516 1.74805Q7.17773 0.751953 6.17676-0.610352Q5.17578-1.97266 4.62891-3.6084Q4.08203-5.24414 4.08203-7.05078Q4.08203-8.86719 4.62891-10.5029Q5.17578-12.1387 6.17188-13.501Q7.16797-14.8633 8.52539-15.8594Q9.88281-16.8555 11.5186-17.4023Q13.1543-17.9492 14.9609-17.9492Q16.7773-17.9492 18.4131-17.4023Q20.0488-16.8555 21.4111-15.8594Q22.7734-14.8633 23.7744-13.501Q24.7754-12.1387 25.3223-10.5029Q25.8691-8.86719 25.8691-7.05078Q25.8691-5.24414 25.3223-3.6084Q24.7754-1.97266 23.7793-0.610352Q22.7832 0.751953 21.4209 1.74805Q20.0586 2.74414 18.4229 3.2959Q16.7871 3.84766 14.9707 3.84766ZM9.19922-7.05078Q9.19922-6.66992 9.45801-6.4209Q9.7168-6.17188 10.1172-6.17188L14.0625-6.17188L14.0625-2.2168Q14.0625-1.81641 14.3115-1.55762Q14.5605-1.29883 14.9512-1.29883Q15.3516-1.29883 15.6104-1.55273Q15.8691-1.80664 15.8691-2.2168L15.8691-6.17188L19.8242-6.17188Q20.2246-6.17188 20.4785-6.4209Q20.7324-6.66992 20.7324-7.05078Q20.7324-7.46094 20.4785-7.71484Q20.2246-7.96875 19.8242-7.96875L15.8691-7.96875L15.8691-11.9141Q15.8691-12.3242 15.6104-12.583Q15.3516-12.8418 14.9512-12.8418Q14.5605-12.8418 14.3115-12.583Q14.0625-12.3242 14.0625-11.9141L14.0625-7.96875L10.1172-7.96875Q9.70703-7.96875 9.45312-7.71484Q9.19922-7.46094 9.19922-7.05078Z"/>
  </g>
  <text style="stroke:none;fill:black;font-family:sans-serif;font-size:13;font-weight:bold;" transform="matrix(1 0 0 1 263 1953)">Design Variations</text>
  <text style="stroke:none;fill:black;font-family:sans-serif;font-size:13;" transform="matrix(1 0 0 1 263 1971)">Symbols are supported in up to nine weights and three scales.</text>
  <text style="stroke:none;fill:black;font-family:sans-serif;font-size:13;" transform="matrix(1 0 0 1 263 1989)">For optimal layout with text and other symbols, vertically align</text>
  <text style="stroke:none;fill:black;font-family:sans-serif;font-size:13;" transform="matrix(1 0 0 1 263 2007)">symbols with the adjacent text.</text>
  <line style="fill:none;stroke:#00AEEF;stroke-width:0.5;opacity:1.0;" x1="776" x2="776" y1="1919" y2="1933"/>
  <g transform="matrix(1 0 0 1 776 1933)">
   <path d="M3.31055 0.15625Q3.70117 0.15625 3.91602-0.00976562Q4.13086-0.175781 4.26758-0.585938L5.52734-4.0332L11.2891-4.0332L12.5488-0.585938Q12.6855-0.175781 12.9004-0.00976562Q13.1152 0.15625 13.4961 0.15625Q13.8867 0.15625 14.1162-0.0585938Q14.3457-0.273438 14.3457-0.644531Q14.3457-0.869141 14.2383-1.17188L9.6582-13.3691Q9.48242-13.8184 9.17969-14.043Q8.87695-14.2676 8.4082-14.2676Q7.5-14.2676 7.17773-13.3789L2.59766-1.16211Q2.49023-0.859375 2.49023-0.634766Q2.49023-0.263672 2.70996-0.0537109Q2.92969 0.15625 3.31055 0.15625ZM6.00586-5.51758L8.37891-12.0898L8.42773-12.0898L10.8008-5.51758Z"/>
  </g>
  <line style="fill:none;stroke:#00AEEF;stroke-width:0.5;opacity:1.0;" x1="793.197" x2="793.197" y1="1919" y2="1933"/>
  <text style="stroke:none;fill:black;font-family:sans-serif;font-size:13;font-weight:bold;" transform="matrix(1 0 0 1 776 1953)">Margins</text>
  <text style="stroke:none;fill:black;font-family:sans-serif;font-size:13;" transform="matrix(1 0 0 1 776 1971)">Leading and trailing margins on the left and right side of each symbol</text>
  <text style="stroke:none;fill:black;font-family:sans-serif;font-size:13;" transform="matrix(1 0 0 1 776 1989)">can be adjusted by modifying the x-location of the margin guidelines.</text>
  <text style="stroke:none;fill:black;font-family:sans-serif;font-size:13;" transform="matrix(1 0 0 1 776 2007)">Modifications are automatically applied proportionally to all</text>
  <text style="stroke:none;fill:black;font-family:sans-serif;font-size:13;" transform="matrix(1 0 0 1 776 2025)">scales and weights.</text>
  <g transform="matrix(1 0 0 1 1289 1933)">
   <path d="M2.8418 1.86523L4.54102 3.57422Q5.18555 4.22852 5.90332 4.17969Q6.62109 4.13086 7.31445 3.35938L18.0078-8.42773L17.041-9.4043L6.42578 2.27539Q6.16211 2.57812 5.89355 2.61719Q5.625 2.65625 5.27344 2.30469L4.10156 1.14258Q3.75 0.791016 3.79395 0.522461Q3.83789 0.253906 4.14062-0.0195312L15.6152-10.8203L14.6387-11.7871L3.04688-0.898438Q2.30469-0.214844 2.25098 0.498047Q2.19727 1.21094 2.8418 1.86523ZM9.25781-16.3281Q8.94531-16.0254 8.90625-15.6348Q8.86719-15.2441 9.04297-14.9512Q9.21875-14.6777 9.55566-14.541Q9.89258-14.4043 10.3809-14.5215Q11.4746-14.7754 12.5977-14.7314Q13.7207-14.6875 14.7949-13.9844L14.209-12.5293Q13.9551-11.9043 14.0674-11.4404Q14.1797-10.9766 14.5801-10.5664L16.875-8.25195Q17.2363-7.88086 17.5781-7.82227Q17.9199-7.76367 18.3398-7.8418L19.4043-8.03711L20.0684-7.36328L20.0293-6.80664Q20-6.43555 20.1221-6.12305Q20.2441-5.81055 20.6055-5.44922L21.3672-4.70703Q21.7285-4.3457 22.1533-4.33105Q22.5781-4.31641 22.9297-4.66797L25.8398-7.58789Q26.1914-7.93945 26.1816-8.35449Q26.1719-8.76953 25.8105-9.13086L25.0391-9.89258Q24.6875-10.2539 24.3799-10.3857Q24.0723-10.5176 23.7109-10.4883L23.1348-10.4395L22.4902-11.0742L22.7344-12.1973Q22.832-12.6172 22.6953-12.9834Q22.5586-13.3496 22.1191-13.7891L19.9219-15.9766Q18.6719-17.2168 17.2607-17.8369Q15.8496-18.457 14.4189-18.4814Q12.9883-18.5059 11.665-17.959Q10.3418-17.4121 9.25781-16.3281ZM10.752-15.957Q11.6602-16.6211 12.7002-16.9043Q13.7402-17.1875 14.8047-17.085Q15.8691-16.9824 16.8701-16.5137Q17.8711-16.0449 18.7012-15.2051L21.1328-12.793Q21.3086-12.6172 21.3525-12.4512Q21.3965-12.2852 21.3379-12.0312L21.0156-10.5469L22.5195-9.0625L23.5059-9.12109Q23.6914-9.13086 23.7891-9.09668Q23.8867-9.0625 24.0332-8.91602L24.6094-8.33984L22.168-5.89844L21.5918-6.47461Q21.4453-6.62109 21.4062-6.71875Q21.3672-6.81641 21.377-7.01172L21.4453-7.98828L19.9512-9.47266L18.4277-9.21875Q18.1836-9.16992 18.042-9.2041Q17.9004-9.23828 17.7148-9.41406L15.7129-11.416Q15.5176-11.5918 15.4932-11.7529Q15.4688-11.9141 15.5859-12.1875L16.4648-14.2773Q15.293-15.3711 13.8281-15.791Q12.3633-16.2109 10.8398-15.7617Q10.7227-15.7324 10.6885-15.8057Q10.6543-15.8789 10.752-15.957Z"/>
  </g>
  <text style="stroke:none;fill:black;font-family:sans-serif;font-size:13;font-weight:bold;" transform="matrix(1 0 0 1 1289 1953)">Exporting</text>
  <text style="stroke:none;fill:black;font-family:sans-serif;font-size:13;" transform="matrix(1 0 0 1 1289 1971)">Symbols should be outlined when exporting to ensure the</text>
  <text style="stroke:none;fill:black;font-family:sans-serif;font-size:13;" transform="matrix(1 0 0 1 1289 1989)">design is preserved when submitting to Xcode.</text>
  <text id="template-version" style="stroke:none;fill:black;font-family:sans-serif;font-size:13;text-anchor:end;" transform="matrix(1 0 0 1 3036 1933)">Template v.2.0</text>
  <text style="stroke:none;fill:black;font-family:sans-serif;font-size:13;text-anchor:end;" transform="matrix(1 0 0 1 3036 1951)">Requires Xcode 12 or greater</text>
  <text id="descriptive-name" style="stroke:none;fill:black;font-family:sans-serif;font-size:13;text-anchor:end;" transform="matrix(1 0 0 1 3036 1969)">Generated from calendar.day.timeline.left</text>
  <text style="stroke:none;fill:black;font-family:sans-serif;font-size:13;text-anchor:end;" transform="matrix(1 0 0 1 3036 1987)">Typeset at 100 points</text>
  <text style="stroke:none;fill:black;font-family:sans-serif;font-size:13;" transform="matrix(1 0 0 1 263 726)">Small</text>
  <text style="stroke:none;fill:black;font-family:sans-serif;font-size:13;" transform="matrix(1 0 0 1 263 1156)">Medium</text>
  <text style="stroke:none;fill:black;font-family:sans-serif;font-size:13;" transform="matrix(1 0 0 1 263 1586)">Large</text>
 </g>
 <g id="Guides">
  <g id="H-reference" style="fill:#27AAE1;stroke:none;" transform="matrix(1 0 0 1 339 696)">
   <path d="M0.993347 0L3.6377 0L29.3282-67.1326L30.0301-67.1326L30.0301-70.459L28.1227-70.459ZM11.6882-24.4797L46.9818-24.4797L46.2311-26.7288L12.4382-26.7288ZM55.1193 0L57.7637 0L30.6381-70.459L29.4327-70.459L29.4327-67.1326Z"/>
  </g>
  <line id="Baseline-S" style="fill:none;stroke:#27AAE1;opacity:1;stroke-width:0.5;" x1="263" x2="3036" y1="696" y2="696"/>
  <line id="Capline-S" style="fill:none;stroke:#27AAE1;opacity:1;stroke-width:0.5;" x1="263" x2="3036" y1="625.541" y2="625.541"/>
  <g id="H-reference" style="fill:#27AAE1;stroke:none;" transform="matrix(1 0 0 1 339 1126)">
   <path d="M0.993347 0L3.6377 0L29.3282-67.1326L30.0301-67.1326L30.0301-70.459L28.1227-70.459ZM11.6882-24.4797L46.9818-24.4797L46.2311-26.7288L12.4382-26.7288ZM55.1193 0L57.7637 0L30.6381-70.459L29.4327-70.459L29.4327-67.1326Z"/>
  </g>
  <line id="Baseline-M" style="fill:none;stroke:#27AAE1;opacity:1;stroke-width:0.5;" x1="263" x2="3036" y1="1126" y2="1126"/>
  <line id="Capline-M" style="fill:none;stroke:#27AAE1;opacity:1;stroke-width:0.5;" x1="263" x2="3036" y1="1055.54" y2="1055.54"/>
  <g id="H-reference" style="fill:#27AAE1;stroke:none;" transform="matrix(1 0 0 1 339 1556)">
   <path d="M0.993347 0L3.6377 0L29.3282-67.1326L30.0301-67.1326L30.0301-70.459L28.1227-70.459ZM11.6882-24.4797L46.9818-24.4797L46.2311-26.7288L12.4382-26.7288ZM55.1193 0L57.7637 0L30.6381-70.459L29.4327-70.459L29.4327-67.1326Z"/>
  </g>
  <line id="Baseline-L" style="fill:none;stroke:#27AAE1;opacity:1;stroke-width:0.5;" x1="263" x2="3036" y1="1556" y2="1556"/>
  <line id="Capline-L" style="fill:none;stroke:#27AAE1;opacity:1;stroke-width:0.5;" x1="263" x2="3036" y1="1485.54" y2="1485.54"/>
  <line id="left-margin" style="fill:none;stroke:#00AEEF;stroke-width:0.5;opacity:1.0;" x1="1378.43" x2="1378.43" y1="1030.79" y2="1150.12"/>
  <line id="right-margin" style="fill:none;stroke:#00AEEF;stroke-width:0.5;opacity:1.0;" x1="1521.25" x2="1521.25" y1="1030.79" y2="1150.12"/>
 </g>
 <g id="Symbols">
  <g id="Black-L" transform="matrix(1 0 0 1 2834.58 1556)">
   <path d="M65.3493-18.5787L45.3486-18.5787L45.3486 2.71334Q45.3486 14.0381 51.5501 20.2303Q57.7515 26.4225 69.1203 26.4225L157.794 26.4225Q169.162 26.4225 175.364 20.2315Q181.566 14.0405 181.566 2.71334L181.566-18.5787L161.585-18.5787L161.585 0.211588Q161.585 3.49078 160.051 4.95574Q158.517 6.4207 155.396 6.4207L71.5388 6.4207Q68.5009 6.4207 66.9251 4.95574Q65.3493 3.49078 65.3493 0.211588ZM25.9549-80.0821Q29.6447-80.0821 32.2858-82.7231Q34.9268-85.3642 34.9268-89.0916Q34.9268-92.7814 32.2858-95.4224Q29.6447-98.0635 25.9549-98.0635Q22.2275-98.0635 19.5865-95.4224Q16.9454-92.7814 16.9454-89.0916Q16.9454-85.3642 19.5865-82.7231Q22.2275-80.0821 25.9549-80.0821ZM25.9549-53.2015Q29.6447-53.2015 32.2858-55.853Q34.9268-58.5045 34.9268-62.2307Q34.9268-65.9592 32.2858-68.5997Q29.6447-71.2402 25.9549-71.2402Q22.2275-71.2402 19.5865-68.5997Q16.9454-65.9592 16.9454-62.2307Q16.9454-58.5045 19.5865-55.853Q22.2275-53.2015 25.9549-53.2015ZM25.9549 0.620363Q29.6447 0.620363 32.2858-2.02012Q34.9268-4.66061 34.9268-8.38915Q34.9268-12.1153 32.2858-14.7668Q29.6447-17.4183 25.9549-17.4183Q22.2275-17.4183 19.5865-14.7668Q16.9454-12.1153 16.9454-8.38915Q16.9454-4.66061 19.5865-2.02012Q22.2275 0.620363 25.9549 0.620363ZM25.9549 27.5241Q29.6447 27.5241 32.2858 24.883Q34.9268 22.242 34.9268 18.5522Q34.9268 14.8248 32.2858 12.1837Q29.6447 9.54266 25.9549 9.54266Q22.2275 9.54266 19.5865 12.1837Q16.9454 14.8248 16.9454 18.5522Q16.9454 22.242 19.5865 24.883Q22.2275 27.5241 25.9549 27.5241ZM25.9549-25.3988Q30.0027-25.3988 32.8955-28.3103Q35.7883-31.2219 35.7883-35.2697Q35.7883-39.3176 32.8955-42.2291Q30.0027-45.1406 25.9549-45.1406Q21.9071-45.1406 18.9955-42.2291Q16.084-39.3176 16.084-35.2697Q16.084-31.2219 18.9955-28.3103Q21.9071-25.3988 25.9549-25.3988ZM186.988-35.2477Q186.988-37.6675 185.487-39.1689Q183.985-40.6703 181.566-40.6703L30.3209-40.6703L30.3209-29.825L181.566-29.825Q183.985-29.825 185.487-31.3556Q186.988-32.8863 186.988-35.2477ZM45.3486-51.9167L65.3493-51.9167L65.3493-70.5878Q65.3493-73.9254 66.9251-75.3611Q68.5009-76.7969 71.5388-76.7969L155.396-76.7969Q158.517-76.7969 160.051-75.3611Q161.585-73.9254 161.585-70.5878L161.585-51.9167L181.566-51.9167L181.566-73.0895Q181.566-84.4167 175.364-90.6077Q169.162-96.7987 157.794-96.7987L69.1203-96.7987Q57.7515-96.7987 51.5501-90.6065Q45.3486-84.4143 45.3486-73.0895Z"/>
  </g>
  <g id="Heavy-L" transform="matrix(1 0 0 1 2539.54 1556)">
   <path d="M62.0879-19.5761L44.5629-19.5761L44.5629 2.85893Q44.5629 13.7661 50.4473 19.641Q56.3316 25.5159 67.3104 25.5159L155.471 25.5159Q166.444 25.5159 172.331 19.6466Q178.218 13.7774 178.218 2.85893L178.218-19.5761L160.718-19.5761L160.718 1.06669Q160.718 4.65711 158.994 6.32118Q157.27 7.98525 153.829 7.98525L68.9818 7.98525Q65.6328 7.98525 63.8603 6.32118Q62.0879 4.65711 62.0879 1.06669ZM25.5682-79.4894Q29.1282-79.4894 31.6614-82.0226Q34.1946-84.5558 34.1946-88.1303Q34.1946-91.6904 31.6614-94.2236Q29.1282-96.7568 25.5682-96.7568Q21.9936-96.7568 19.4604-94.2236Q16.9271-91.6904 16.9271-88.1303Q16.9271-84.5558 19.4604-82.0226Q21.9936-79.4894 25.5682-79.4894ZM25.5682-53.0869Q29.1282-53.0869 31.6614-55.6353Q34.1946-58.1836 34.1946-61.7525Q34.1946-65.3326 31.6614-67.863Q29.1282-70.3935 25.5682-70.3935Q21.9936-70.3935 19.4604-67.863Q16.9271-65.3326 16.9271-61.7525Q16.9271-58.1836 19.4604-55.6353Q21.9936-53.0869 25.5682-53.0869ZM25.5682-0.226344Q29.1282-0.226344 31.6614-2.75678Q34.1946-5.28721 34.1946-8.86728Q34.1946-12.4362 31.6614-14.9846Q29.1282-17.5329 25.5682-17.5329Q21.9936-17.5329 19.4604-14.9846Q16.9271-12.4362 16.9271-8.86728Q16.9271-5.28721 19.4604-2.75678Q21.9936-0.226344 25.5682-0.226344ZM25.5682 26.2174Q29.1282 26.2174 31.6614 23.6842Q34.1946 21.151 34.1946 17.5909Q34.1946 14.0164 31.6614 11.4832Q29.1282 8.94995 25.5682 8.94995Q21.9936 8.94995 19.4604 11.4832Q16.9271 14.0164 16.9271 17.5909Q16.9271 21.151 19.4604 23.6842Q21.9936 26.2174 25.5682 26.2174ZM25.5682-25.7855Q29.4587-25.7855 32.2483-28.5823Q35.0379-31.3791 35.0379-35.2697Q35.0379-39.1603 32.2483-41.9571Q29.4587-44.7539 25.5682-44.7539Q21.6776-44.7539 18.8808-41.9571Q16.084-39.1603 16.084-35.2697Q16.084-31.3791 18.8808-28.5823Q21.6776-25.7855 25.5682-25.7855ZM183.35-35.2339Q183.35-37.4916 181.913-38.9286Q180.476-40.3657 178.218-40.3657L29.7636-40.3657L29.7636-30.1021L178.218-30.1021Q180.476-30.1021 181.913-31.5615Q183.35-33.0209 183.35-35.2339ZM44.5629-50.8917L62.0879-50.8917L62.0879-71.434Q62.0879-75.0691 63.8603-76.7108Q65.6328-78.3526 68.9818-78.3526L153.829-78.3526Q157.27-78.3526 158.994-76.7108Q160.718-75.0691 160.718-71.434L160.718-50.8917L178.218-50.8917L178.218-73.2263Q178.218-84.1447 172.331-90.014Q166.444-95.8832 155.471-95.8832L67.3104-95.8832Q56.3316-95.8832 50.4473-90.0084Q44.5629-84.1335 44.5629-73.2263Z"/>
  </g>
  <g id="Bold-L" transform="matrix(1 0 0 1 2244.89 1556)">
   <path d="M57.8747-20.9621L43.4082-20.9621L43.4082 3.0432Q43.4082 13.4057 48.9044 18.8962Q54.4007 24.3866 64.8654 24.3866L152.641 24.3866Q163.093 24.3866 168.596 18.9094Q174.099 13.4322 174.099 3.0432L174.099-20.9621L159.657-20.9621L159.657 2.0152Q159.657 6.04213 157.676 7.97442Q155.696 9.90672 151.803 9.90672L65.7415 9.90672Q61.956 9.90672 59.9154 7.97442Q57.8747 6.04213 57.8747 2.0152ZM25.0098-78.8263Q28.3711-78.8263 30.7475-81.2027Q33.124-83.5792 33.124-86.9318Q33.124-90.2934 30.7475-92.6698Q28.3711-95.0462 25.0098-95.0462Q21.6569-95.0462 19.2805-92.6698Q16.904-90.2934 16.904-86.9318Q16.904-83.5792 19.2805-81.2027Q21.6569-78.8263 25.0098-78.8263ZM25.0098-53.023Q28.3711-53.023 30.7475-55.4184Q33.124-57.8139 33.124-61.1535Q33.124-64.5193 30.7475-66.8891Q28.3711-69.259 25.0098-69.259Q21.6569-69.259 19.2805-66.8891Q16.904-64.5193 16.904-61.1535Q16.904-57.8139 19.2805-55.4184Q21.6569-53.023 25.0098-53.023ZM25.0098-1.36086Q28.3711-1.36086 30.7475-3.73071Q33.124-6.10057 33.124-9.46636Q33.124-12.8059 30.7475-15.2014Q28.3711-17.5968 25.0098-17.5968Q21.6569-17.5968 19.2805-15.2014Q16.904-12.8059 16.904-9.46636Q16.904-6.10057 19.2805-3.73071Q21.6569-1.36086 25.0098-1.36086ZM25.0098 24.5068Q28.3711 24.5068 30.7475 22.1304Q33.124 19.754 33.124 16.3924Q33.124 13.0397 30.7475 10.6633Q28.3711 8.28692 25.0098 8.28692Q21.6569 8.28692 19.2805 10.6633Q16.904 13.0397 16.904 16.3924Q16.904 19.754 19.2805 22.1304Q21.6569 24.5068 25.0098 24.5068ZM25.0098-26.3439Q28.6708-26.3439 31.3075-28.9762Q33.9442-31.6085 33.9442-35.2697Q33.9442-38.9309 31.3075-41.5632Q28.6708-44.1955 25.0098-44.1955Q21.3485-44.1955 18.7163-41.5632Q16.084-38.9309 16.084-35.2697Q16.084-31.6085 18.7163-28.9762Q21.3485-26.3439 25.0098-26.3439ZM178.787-35.2185Q178.787-37.2466 177.457-38.5769Q176.127-39.9072 174.099-39.9072L28.9529-39.9072L28.9529-30.5298L174.099-30.5298Q176.127-30.5298 177.457-31.8747Q178.787-33.2196 178.787-35.2185ZM43.4082-49.4748L57.8747-49.4748L57.8747-72.3673Q57.8747-76.4234 59.9154-78.3411Q61.956-80.2588 65.7415-80.2588L151.803-80.2588Q155.696-80.2588 157.676-78.3411Q159.657-76.4234 159.657-72.3673L159.657-49.4748L174.099-49.4748L174.099-73.3953Q174.099-83.7843 168.596-89.2615Q163.093-94.7387 152.641-94.7387L64.8654-94.7387Q54.4007-94.7387 48.9044-89.2483Q43.4082-83.7578 43.4082-73.3953Z"/>
  </g>
  <g id="Semibold-L" transform="matrix(1 0 0 1 1949.6 1556)">
   <path d="M54.9702-21.9177L42.6121-21.9177L42.6121 3.17024Q42.6121 13.1572 47.8408 18.3827Q53.0695 23.6081 63.1799 23.6081L150.691 23.6081Q160.783 23.6081 166.021 18.4011Q171.259 13.1942 171.259 3.17024L171.259-21.9177L158.925-21.9177L158.925 2.6691Q158.925 6.99695 156.768 9.11416Q154.61 11.2314 150.407 11.2314L63.5076 11.2314Q59.4213 11.2314 57.1957 9.11416Q54.9702 6.99695 54.9702 2.6691ZM24.6248-78.3692Q27.8492-78.3692 30.1175-80.6376Q32.3858-82.9059 32.3858-86.1056Q32.3858-89.3303 30.1175-91.5986Q27.8492-93.8669 24.6248-93.8669Q21.4248-93.8669 19.1564-91.5986Q16.8881-89.3303 16.8881-86.1056Q16.8881-82.9059 19.1564-80.6376Q21.4248-78.3692 24.6248-78.3692ZM24.6248-52.9789Q27.8492-52.9789 30.1175-55.269Q32.3858-57.5591 32.3858-60.7405Q32.3858-63.9585 30.1175-66.2177Q27.8492-68.4768 24.6248-68.4768Q21.4248-68.4768 19.1564-66.2177Q16.8881-63.9585 16.8881-60.7405Q16.8881-57.5591 19.1564-55.269Q21.4248-52.9789 24.6248-52.9789ZM24.6248-2.14298Q27.8492-2.14298 30.1175-4.40214Q32.3858-6.6613 32.3858-9.87936Q32.3858-13.0608 30.1175-15.3509Q27.8492-17.6409 24.6248-17.6409Q21.4248-17.6409 19.1564-15.3509Q16.8881-13.0608 16.8881-9.87936Q16.8881-6.6613 19.1564-4.40214Q21.4248-2.14298 24.6248-2.14298ZM24.6248 23.3275Q27.8492 23.3275 30.1175 21.0592Q32.3858 18.7909 32.3858 15.5662Q32.3858 12.3665 30.1175 10.0981Q27.8492 7.82983 24.6248 7.82983Q21.4248 7.82983 19.1564 10.0981Q16.8881 12.3665 16.8881 15.5662Q16.8881 18.7909 19.1564 21.0592Q21.4248 23.3275 24.6248 23.3275ZM24.6248-26.7289Q28.1276-26.7289 30.6589-29.2477Q33.1903-31.7666 33.1903-35.2697Q33.1903-38.7728 30.6589-41.2917Q28.1276-43.8105 24.6248-43.8105Q21.1217-43.8105 18.6029-41.2917Q16.084-38.7728 16.084-35.2697Q16.084-31.7666 18.6029-29.2477Q21.1217-26.7289 24.6248-26.7289ZM175.642-35.2079Q175.642-37.0777 174.385-38.3344Q173.128-39.5911 171.259-39.5911L28.394-39.5911L28.394-30.8246L171.259-30.8246Q173.128-30.8246 174.385-32.0906Q175.642-33.3566 175.642-35.2079ZM42.6121-48.4981L54.9702-48.4981L54.9702-73.0107Q54.9702-77.3571 57.1957-79.4651Q59.4213-81.573 63.5076-81.573L150.407-81.573Q154.61-81.573 156.768-79.4651Q158.925-77.3571 158.925-73.0107L158.925-48.4981L171.259-48.4981L171.259-73.5119Q171.259-83.5358 166.021-88.7427Q160.783-93.9497 150.691-93.9497L63.1799-93.9497Q53.0695-93.9497 47.8408-88.7243Q42.6121-83.4989 42.6121-73.5119Z"/>
  </g>
  <g id="Medium-L" transform="matrix(1 0 0 1 1653.96 1556)">
   <path d="M52.7679-22.6422L42.0085-22.6422L42.0085 3.26656Q42.0085 12.9688 47.0344 17.9933Q52.0602 23.0177 61.9019 23.0177L149.212 23.0177Q159.032 23.0177 164.068 18.0157Q169.105 13.0138 169.105 3.26656L169.105-22.6422L158.371-22.6422L158.371 3.16491Q158.371 7.72094 156.079 9.97835Q153.787 12.2358 149.348 12.2358L61.8137 12.2358Q57.4993 12.2358 55.1336 9.97835Q52.7679 7.72094 52.7679 3.16491ZM24.3329-78.0226Q27.4534-78.0226 29.6398-80.209Q31.8262-82.3954 31.8262-85.4791Q31.8262-88.6 29.6398-90.7864Q27.4534-92.9728 24.3329-92.9728Q21.2488-92.9728 19.0624-90.7864Q16.8761-88.6 16.8761-85.4791Q16.8761-82.3954 19.0624-80.209Q21.2488-78.0226 24.3329-78.0226ZM24.3329-52.9455Q27.4534-52.9455 29.6398-55.1556Q31.8262-57.3658 31.8262-60.4273Q31.8262-63.5334 29.6398-65.7086Q27.4534-67.8838 24.3329-67.8838Q21.2488-67.8838 19.0624-65.7086Q16.8761-63.5334 16.8761-60.4273Q16.8761-57.3658 19.0624-55.1556Q21.2488-52.9455 24.3329-52.9455ZM24.3329-2.73602Q27.4534-2.73602 29.6398-4.91124Q31.8262-7.08647 31.8262-10.1925Q31.8262-13.254 29.6398-15.4642Q27.4534-17.6744 24.3329-17.6744Q21.2488-17.6744 19.0624-15.4642Q16.8761-13.254 16.8761-10.1925Q16.8761-7.08647 19.0624-4.91124Q21.2488-2.73602 24.3329-2.73602ZM24.3329 22.4333Q27.4534 22.4333 29.6398 20.247Q31.8262 18.0606 31.8262 14.9397Q31.8262 11.856 29.6398 9.6696Q27.4534 7.48324 24.3329 7.48324Q21.2488 7.48324 19.0624 9.6696Q16.8761 11.856 16.8761 14.9397Q16.8761 18.0606 19.0624 20.247Q21.2488 22.4333 24.3329 22.4333ZM24.3329-27.0208Q27.7157-27.0208 30.1672-29.4536Q32.6186-31.8865 32.6186-35.2697Q32.6186-38.6529 30.1672-41.0858Q27.7157-43.5186 24.3329-43.5186Q20.9497-43.5186 18.5169-41.0858Q16.084-38.6529 16.084-35.2697Q16.084-31.8865 18.5169-29.4536Q20.9497-27.0208 24.3329-27.0208ZM173.257-35.1998Q173.257-36.9496 172.056-38.1505Q170.855-39.3514 169.105-39.3514L27.9702-39.3514L27.9702-31.0482L169.105-31.0482Q170.855-31.0482 172.056-32.2543Q173.257-33.4605 173.257-35.1998ZM42.0085-47.7574L52.7679-47.7574L52.7679-73.4986Q52.7679-78.0651 55.1336-80.3173Q57.4993-82.5694 61.8137-82.5694L149.348-82.5694Q153.787-82.5694 156.079-80.3173Q158.371-78.0651 158.371-73.4986L158.371-47.7574L169.105-47.7574L169.105-73.6002Q169.105-83.3474 164.068-88.3494Q159.032-93.3514 149.212-93.3514L61.9019-93.3514Q52.0602-93.3514 47.0344-88.3269Q42.0085-83.3025 42.0085-73.6002Z"/>
  </g>
  <g id="Regular-L" transform="matrix(1 0 0 1 1358.65 1556)">
   <path d="M49.8953-23.5872L41.2213-23.5872L41.2213 3.3922Q41.2213 12.7231 45.9824 17.4854Q50.7436 22.2478 60.2349 22.2478L147.283 22.2478Q156.747 22.2478 161.522 17.5131Q166.296 12.7784 166.296 3.3922L166.296-23.5872L157.648-23.5872L157.648 3.81162Q157.648 8.66527 155.181 11.1056Q152.714 13.5459 147.966 13.5459L59.6044 13.5459Q54.9925 13.5459 52.4439 11.1056Q49.8953 8.66527 49.8953 3.81162ZM23.9522-77.5706Q26.9372-77.5706 29.0167-79.65Q31.0961-81.7295 31.0961-84.662Q31.0961-87.6475 29.0167-89.727Q26.9372-91.8064 23.9522-91.8064Q21.0192-91.8064 18.9398-89.727Q16.8603-87.6475 16.8603-84.662Q16.8603-81.7295 18.9398-79.65Q21.0192-77.5706 23.9522-77.5706ZM23.9522-52.9018Q26.9372-52.9018 29.0167-55.0078Q31.0961-57.1138 31.0961-60.0189Q31.0961-62.9788 29.0167-65.0445Q26.9372-67.1103 23.9522-67.1103Q21.0192-67.1103 18.9398-65.0445Q16.8603-62.9788 16.8603-60.0189Q16.8603-57.1138 18.9398-55.0078Q21.0192-52.9018 23.9522-52.9018ZM23.9522-3.50955Q26.9372-3.50955 29.0167-5.57529Q31.0961-7.64103 31.0961-10.601Q31.0961-13.5061 29.0167-15.612Q26.9372-17.718 23.9522-17.718Q21.0192-17.718 18.9398-15.612Q16.8603-13.5061 16.8603-10.601Q16.8603-7.64103 18.9398-5.57529Q21.0192-3.50955 23.9522-3.50955ZM23.9522 21.267Q26.9372 21.267 29.0167 19.1876Q31.0961 17.1081 31.0961 14.1226Q31.0961 11.1901 29.0167 9.11063Q26.9372 7.03118 23.9522 7.03118Q21.0192 7.03118 18.9398 9.11063Q16.8603 11.1901 16.8603 14.1226Q16.8603 17.1081 18.9398 19.1876Q21.0192 21.267 23.9522 21.267ZM23.9522-27.4015Q27.1785-27.4015 29.5257-29.7222Q31.8729-32.0429 31.8729-35.2697Q31.8729-38.4965 29.5257-40.8172Q27.1785-43.1379 23.9522-43.1379Q20.7254-43.1379 18.4047-40.8172Q16.084-38.4965 16.084-35.2697Q16.084-32.0429 18.4047-29.7222Q20.7254-27.4015 23.9522-27.4015ZM170.146-35.1893Q170.146-36.7825 169.018-37.9107Q167.89-39.0388 166.296-39.0388L27.4175-39.0388L27.4175-31.3398L166.296-31.3398Q167.89-31.3398 169.018-32.4679Q170.146-33.596 170.146-35.1893ZM41.2213-46.7913L49.8953-46.7913L49.8953-74.1349Q49.8953-78.9885 52.4439-81.4288Q54.9925-83.8691 59.6044-83.8691L147.966-83.8691Q152.714-83.8691 155.181-81.4288Q157.648-78.9885 157.648-74.1349L157.648-46.7913L166.296-46.7913L166.296-73.7155Q166.296-83.1017 161.522-87.8363Q156.747-92.571 147.283-92.571L60.2349-92.571Q50.7436-92.571 45.9824-87.8087Q41.2213-83.0464 41.2213-73.7155Z"/>
  </g>
  <g id="Light-L" transform="matrix(1 0 0 1 1063.28 1556)">
   <path d="M45.8682-25.5147L39.2553-25.5147L39.2553 3.54483Q39.2553 12.3223 43.7781 16.8747Q48.3009 21.4272 57.2384 21.4272L145.641 21.4272Q154.533 21.4272 159.079 16.9215Q163.624 12.4157 163.624 3.54483L163.624-25.5147L156.999-25.5147L156.999 3.75423Q156.999 9.23796 154.217 12.0026Q151.435 14.7672 146.02 14.7672L56.8942 14.7672Q51.6525 14.7672 48.7603 12.0026Q45.8682 9.23796 45.8682 3.75423ZM23.0553-77.5706Q25.6585-77.5706 27.4803-79.3924Q29.3021-81.2142 29.3021-83.784Q29.3021-86.388 27.4803-88.2098Q25.6585-90.0316 23.0553-90.0316Q20.4847-90.0316 18.6629-88.2098Q16.8411-86.388 16.8411-83.784Q16.8411-81.2142 18.6629-79.3924Q20.4847-77.5706 23.0553-77.5706ZM23.0553-53.3597Q25.6585-53.3597 27.4803-55.1986Q29.3021-57.0374 29.3021-59.561Q29.3021-62.1772 27.4803-63.9758Q25.6585-65.7744 23.0553-65.7744Q20.4847-65.7744 18.6629-63.9758Q16.8411-62.1772 16.8411-59.561Q16.8411-57.0374 18.6629-55.1986Q20.4847-53.3597 23.0553-53.3597ZM23.0553-4.8454Q25.6585-4.8454 27.4803-6.64404Q29.3021-8.44267 29.3021-11.0589Q29.3021-13.5824 27.4803-15.4212Q25.6585-17.2601 23.0553-17.2601Q20.4847-17.2601 18.6629-15.4212Q16.8411-13.5824 16.8411-11.0589Q16.8411-8.44267 18.6629-6.64404Q20.4847-4.8454 23.0553-4.8454ZM23.0553 19.4922Q25.6585 19.4922 27.4803 17.6704Q29.3021 15.8486 29.3021 13.2446Q29.3021 10.6748 27.4803 8.85298Q25.6585 7.03118 23.0553 7.03118Q20.4847 7.03118 18.6629 8.85298Q16.8411 10.6748 16.8411 13.2446Q16.8411 15.8486 18.6629 17.6704Q20.4847 19.4922 23.0553 19.4922ZM23.0553-28.2984Q25.8997-28.2984 27.9798-30.3614Q30.0599-32.4245 30.0599-35.2697Q30.0599-38.1149 27.9798-40.178Q25.8997-42.241 23.0553-42.241Q20.2101-42.241 18.147-40.178Q16.084-38.1149 16.084-35.2697Q16.084-32.4245 18.147-30.3614Q20.2101-28.2984 23.0553-28.2984ZM166.634-35.1893Q166.634-36.4391 165.754-37.3191Q164.874-38.199 163.624-38.199L26.0816-38.199L26.0816-32.1796L163.624-32.1796Q164.874-32.1796 165.754-33.0595Q166.634-33.9394 166.634-35.1893ZM39.2553-44.8639L45.8682-44.8639L45.8682-74.0393Q45.8682-79.5231 48.7603-82.2877Q51.6525-85.0524 56.8942-85.0524L146.02-85.0524Q151.435-85.0524 154.217-82.2877Q156.999-79.5231 156.999-74.0393L156.999-44.8639L163.624-44.8639L163.624-73.8299Q163.624-82.7008 159.079-87.2066Q154.533-91.7123 145.641-91.7123L57.2384-91.7123Q48.3009-91.7123 43.7781-87.1599Q39.2553-82.6074 39.2553-73.8299Z"/>
  </g>
  <g id="Thin-L" transform="matrix(1 0 0 1 768.335 1556)">
   <path d="M40.542-28.0639L36.6552-28.0639L36.6552 3.7467Q36.6552 11.7922 40.8627 16.0671Q45.0701 20.3419 53.2752 20.3419L143.47 20.3419Q151.605 20.3419 155.848 16.139Q160.091 11.9361 160.091 3.7467L160.091-28.0639L156.14-28.0639L156.14 3.67831Q156.14 9.99539 152.942 13.189Q149.744 16.3826 143.445 16.3826L53.3098 16.3826Q47.2352 16.3826 43.8886 13.189Q40.542 9.99539 40.542 3.67831ZM21.8691-77.5706Q23.9672-77.5706 25.4482-79.0516Q26.9293-80.5327 26.9293-82.6229Q26.9293-84.7222 25.4482-86.2032Q23.9672-87.6842 21.8691-87.6842Q19.7777-87.6842 18.2967-86.2032Q16.8156-84.7222 16.8156-82.6229Q16.8156-80.5327 18.2967-79.0516Q19.7777-77.5706 21.8691-77.5706ZM21.8691-53.9653Q23.9672-53.9653 25.4482-55.4509Q26.9293-56.9365 26.9293-58.9554Q26.9293-61.1169 25.4482-62.5623Q23.9672-64.0076 21.8691-64.0076Q19.7777-64.0076 18.2967-62.5623Q16.8156-61.1169 16.8156-58.9554Q16.8156-56.9365 18.2967-55.4509Q19.7777-53.9653 21.8691-53.9653ZM21.8691-6.61217Q23.9672-6.61217 25.4482-8.05754Q26.9293-9.50291 26.9293-11.6645Q26.9293-13.6833 25.4482-15.1689Q23.9672-16.6545 21.8691-16.6545Q19.7777-16.6545 18.2967-15.1689Q16.8156-13.6833 16.8156-11.6645Q16.8156-9.50291 18.2967-8.05754Q19.7777-6.61217 21.8691-6.61217ZM21.8691 17.1448Q23.9672 17.1448 25.4482 15.6638Q26.9293 14.1827 26.9293 12.0835Q26.9293 9.99326 25.4482 8.51222Q23.9672 7.03118 21.8691 7.03118Q19.7777 7.03118 18.2967 8.51222Q16.8156 9.99326 16.8156 12.0835Q16.8156 14.1827 18.2967 15.6638Q19.7777 17.1448 21.8691 17.1448ZM21.8691-29.4846Q24.2084-29.4846 25.9353-31.2069Q27.6621-32.9292 27.6621-35.2697Q27.6621-37.6102 25.9353-39.3325Q24.2084-41.0548 21.8691-41.0548Q19.5286-41.0548 17.8063-39.3325Q16.084-37.6102 16.084-35.2697Q16.084-32.9292 17.8063-31.2069Q19.5286-29.4846 21.8691-29.4846ZM161.99-35.1893Q161.99-35.9849 161.438-36.5366Q160.886-37.0883 160.091-37.0883L24.3149-37.0883L24.3149-33.2903L160.091-33.2903Q160.886-33.2903 161.438-33.842Q161.99-34.3936 161.99-35.1893ZM36.6552-42.3147L40.542-42.3147L40.542-73.913Q40.542-80.23 43.8886-83.4236Q47.2352-86.6173 53.3098-86.6173L143.445-86.6173Q149.744-86.6173 152.942-83.4236Q156.14-80.23 156.14-73.913L156.14-42.3147L160.091-42.3147L160.091-73.9813Q160.091-82.1707 155.848-86.3737Q151.605-90.5766 143.47-90.5766L53.2752-90.5766Q45.0701-90.5766 40.8627-86.3017Q36.6552-82.0268 36.6552-73.9813Z"/>
  </g>
  <g id="Ultralight-L" transform="matrix(1 0 0 1 472.529 1556)">
   <path d="M37.8139-29.3696L35.3234-29.3696L35.3234 3.8501Q35.3234 11.5206 39.3694 15.6534Q43.4154 19.7861 51.2453 19.7861L142.359 19.7861Q150.106 19.7861 154.193 15.7382Q158.28 11.6904 158.28 3.8501L158.28-29.3696L155.701-29.3696L155.701 3.63943Q155.701 10.3833 152.289 13.7967Q148.878 17.21 142.126 17.21L51.4738 17.21Q44.9726 17.21 41.3933 13.7967Q37.8139 10.3833 37.8139 3.63943ZM21.2616-77.5706Q23.1009-77.5706 24.4074-78.8771Q25.7139-80.1836 25.7139-82.0281Q25.7139-83.8689 24.4074-85.1754Q23.1009-86.4819 21.2616-86.4819Q19.4156-86.4819 18.1091-85.1754Q16.8026-83.8689 16.8026-82.0281Q16.8026-80.1836 18.1091-78.8771Q19.4156-77.5706 21.2616-77.5706ZM21.2616-54.2755Q23.1009-54.2755 24.4074-55.5802Q25.7139-56.8848 25.7139-58.6452Q25.7139-60.5739 24.4074-61.8383Q23.1009-63.1027 21.2616-63.1027Q19.4156-63.1027 18.1091-61.8383Q16.8026-60.5739 16.8026-58.6452Q16.8026-56.8848 18.1091-55.5802Q19.4156-54.2755 21.2616-54.2755ZM21.2616-7.51711Q23.1009-7.51711 24.4074-8.78153Q25.7139-10.046 25.7139-11.9747Q25.7139-13.735 24.4074-15.0397Q23.1009-16.3443 21.2616-16.3443Q19.4156-16.3443 18.1091-15.0397Q16.8026-13.735 16.8026-11.9747Q16.8026-10.046 18.1091-8.78153Q19.4156-7.51711 21.2616-7.51711ZM21.2616 15.9425Q23.1009 15.9425 24.4074 14.636Q25.7139 13.3295 25.7139 11.4887Q25.7139 9.64419 24.4074 8.33769Q23.1009 7.03118 21.2616 7.03118Q19.4156 7.03118 18.1091 8.33769Q16.8026 9.64419 16.8026 11.4887Q16.8026 13.3295 18.1091 14.636Q19.4156 15.9425 21.2616 15.9425ZM21.2616-30.0921Q23.3422-30.0921 24.8881-31.6399Q26.434-33.1877 26.434-35.2697Q26.434-37.3517 24.8881-38.8995Q23.3422-40.4473 21.2616-40.4473Q19.1795-40.4473 17.6318-38.8995Q16.084-37.3517 16.084-35.2697Q16.084-33.1877 17.6318-31.6399Q19.1795-30.0921 21.2616-30.0921ZM159.611-35.1893Q159.611-35.7523 159.227-36.1358Q158.843-36.5194 158.28-36.5194L23.4099-36.5194L23.4099-33.8592L158.28-33.8592Q158.843-33.8592 159.227-34.2427Q159.611-34.6263 159.611-35.1893ZM35.3234-41.009L37.8139-41.009L37.8139-73.8482Q37.8139-80.5921 41.3933-84.0055Q44.9726-87.4188 51.4738-87.4188L142.126-87.4188Q148.878-87.4188 152.289-84.0055Q155.701-80.5921 155.701-73.8482L155.701-41.009L158.28-41.009L158.28-74.0589Q158.28-81.8992 154.193-85.947Q150.106-89.9949 142.359-89.9949L51.2453-89.9949Q43.4154-89.9949 39.3694-85.8622Q35.3234-81.7294 35.3234-74.0589Z"/>
  </g>
  <g id="Black-M" transform="matrix(1 0 0 1 2855.58 1126)">
   <path d="M52.8862-21.7334L35.5424-21.7334L35.5424-5.93804Q35.5424 3.11958 40.5872 8.16127Q45.6319 13.203 54.6999 13.203L124.024 13.203Q133.092 13.203 138.137 8.16099Q143.181 3.11902 143.181-5.93804L143.181-21.7334L125.843-21.7334L125.843-8.51448Q125.843-6.15605 124.776-5.14827Q123.708-4.14048 121.475-4.14048L57.2544-4.14048Q55.0829-4.14048 53.9845-5.14827Q52.8862-6.15605 52.8862-8.51448ZM20.3192-70.4881Q23.2376-70.4881 25.3415-72.592Q27.4455-74.696 27.4455-77.6659Q27.4455-80.5843 25.3415-82.6882Q23.2376-84.7922 20.3192-84.7922Q17.3493-84.7922 15.2453-82.6882Q13.1414-80.5843 13.1414-77.6659Q13.1414-74.696 15.2453-72.592Q17.3493-70.4881 20.3192-70.4881ZM20.3192-49.3137Q23.2376-49.3137 25.3415-51.4204Q27.4455-53.5271 27.4455-56.4973Q27.4455-59.467 25.3415-61.5711Q23.2376-63.6752 20.3192-63.6752Q17.3493-63.6752 15.2453-61.5711Q13.1414-59.467 13.1414-56.4973Q13.1414-53.5271 15.2453-51.4204Q17.3493-49.3137 20.3192-49.3137ZM20.3192-6.90841Q23.2376-6.90841 25.3415-9.0125Q27.4455-11.1166 27.4455-14.0863Q27.4455-17.0565 25.3415-19.1632Q23.2376-21.2699 20.3192-21.2699Q17.3493-21.2699 15.2453-19.1632Q13.1414-17.0565 13.1414-14.0863Q13.1414-11.1166 15.2453-9.0125Q17.3493-6.90841 20.3192-6.90841ZM20.3192 14.2709Q23.2376 14.2709 25.3415 12.1669Q27.4455 10.063 27.4455 7.14463Q27.4455 4.17467 25.3415 2.07072Q23.2376-0.0332357 20.3192-0.0332357Q17.3493-0.0332357 15.2453 2.07072Q13.1414 4.17467 13.1414 7.14463Q13.1414 10.063 15.2453 12.1669Q17.3493 14.2709 20.3192 14.2709ZM20.3192-27.4024Q23.5387-27.4024 25.8323-29.7218Q28.1259-32.0412 28.1259-35.2606Q28.1259-38.4801 25.8323-40.7995Q23.5387-43.1189 20.3192-43.1189Q17.0998-43.1189 14.7804-40.7995Q12.4609-38.4801 12.4609-35.2606Q12.4609-32.0412 14.7804-29.7218Q17.0998-27.4024 20.3192-27.4024ZM147.519-35.2554Q147.519-37.223 146.334-38.4079Q145.149-39.5928 143.181-39.5928L23.7888-39.5928L23.7888-30.9181L143.181-30.9181Q145.149-30.9181 146.334-32.1315Q147.519-33.3449 147.519-35.2554ZM35.5424-48.7775L52.8862-48.7775L52.8862-61.8828Q52.8862-64.2983 53.9845-65.2775Q55.0829-66.2568 57.2544-66.2568L121.475-66.2568Q123.708-66.2568 124.776-65.2775Q125.843-64.2983 125.843-61.8828L125.843-48.7775L143.181-48.7775L143.181-64.4592Q143.181-73.5163 138.137-78.5582Q133.092-83.6002 124.024-83.6002L54.6999-83.6002Q45.6319-83.6002 40.5872-78.5585Q35.5424-73.5168 35.5424-64.4592Z"/>
  </g>
  <g id="Heavy-M" transform="matrix(1 0 0 1 2560.38 1126)">
   <path d="M50.0694-22.5306L34.9557-22.5306L34.9557-5.80979Q34.9557 2.89071 39.7124 7.64153Q44.4692 12.3923 53.207 12.3923L121.904 12.3923Q130.64 12.3923 135.398 7.6438Q140.155 2.89526 140.155-5.80979L140.155-22.5306L125.056-22.5306L125.056-7.67326Q125.056-5.06872 123.831-3.89621Q122.607-2.7237 120.123-2.7237L55.0048-2.7237Q52.5873-2.7237 51.3283-3.89621Q50.0694-5.06872 50.0694-7.67326ZM20.0239-69.9086Q22.8507-69.9086 24.8729-71.9309Q26.8952-73.9532 26.8952-76.8072Q26.8952-79.634 24.8729-81.6563Q22.8507-83.6785 20.0239-83.6785Q17.1699-83.6785 15.1476-81.6563Q13.1253-79.634 13.1253-76.8072Q13.1253-73.9532 15.1476-71.9309Q17.1699-69.9086 20.0239-69.9086ZM20.0239-49.1594Q22.8507-49.1594 24.8729-51.1899Q26.8952-53.2204 26.8952-56.0722Q26.8952-58.9284 24.8729-60.9496Q22.8507-62.9707 20.0239-62.9707Q17.1699-62.9707 15.1476-60.9496Q13.1253-58.9284 13.1253-56.0722Q13.1253-53.2204 15.1476-51.1899Q17.1699-49.1594 20.0239-49.1594ZM20.0239-7.61289Q22.8507-7.61289 24.8729-9.63403Q26.8952-11.6552 26.8952-14.5114Q26.8952-17.3632 24.8729-19.3937Q22.8507-21.4242 20.0239-21.4242Q17.1699-21.4242 15.1476-19.3937Q13.1253-17.3632 13.1253-14.5114Q13.1253-11.6552 15.1476-9.63403Q17.1699-7.61289 20.0239-7.61289ZM20.0239 13.1573Q22.8507 13.1573 24.8729 11.135Q26.8952 9.11271 26.8952 6.2859Q26.8952 3.4319 24.8729 1.40962Q22.8507-0.612649 20.0239-0.612649Q17.1699-0.612649 15.1476 1.40962Q13.1253 3.4319 13.1253 6.2859Q13.1253 9.11271 15.1476 11.135Q17.1699 13.1573 20.0239 13.1573ZM20.0239-27.6977Q23.1248-27.6977 25.3422-29.9287Q27.5596-32.1597 27.5596-35.2606Q27.5596-38.3616 25.3422-40.5926Q23.1248-42.8236 20.0239-42.8236Q16.9229-42.8236 14.6919-40.5926Q12.4609-38.3616 12.4609-35.2606Q12.4609-32.1597 14.6919-29.9287Q16.9229-27.6977 20.0239-27.6977ZM144.286-35.242Q144.286-37.0827 143.141-38.2276Q141.996-39.3725 140.155-39.3725L23.3672-39.3725L23.3672-31.1115L140.155-31.1115Q141.996-31.1115 143.141-32.2782Q144.286-33.4448 144.286-35.242ZM34.9557-47.9534L50.0694-47.9534L50.0694-62.7189Q50.0694-65.367 51.3283-66.5177Q52.5873-67.6684 55.0048-67.6684L120.123-67.6684Q122.607-67.6684 123.831-66.5177Q125.056-65.367 125.056-62.7189L125.056-47.9534L140.155-47.9534L140.155-64.5823Q140.155-73.2874 135.398-78.0359Q130.64-82.7845 121.904-82.7845L53.207-82.7845Q44.4692-82.7845 39.7124-78.0337Q34.9557-73.2828 34.9557-64.5823Z"/>
  </g>
  <g id="Bold-M" transform="matrix(1 0 0 1 2265.36 1126)">
   <path d="M46.9185-23.4224L34.2993-23.4224L34.2993-5.66633Q34.2993 2.63469 38.7339 7.06012Q43.1685 11.4856 51.537 11.4856L119.533 11.4856Q127.896 11.4856 132.333 7.06525Q136.77 2.64496 136.77-5.66633L136.77-23.4224L124.175-23.4224L124.175-6.73224Q124.175-3.85239 122.775-2.49561Q121.375-1.13883 118.61-1.13883L52.4884-1.13883Q49.7956-1.13883 48.357-2.49561Q46.9185-3.85239 46.9185-6.73224ZM19.6935-69.2605Q22.4179-69.2605 24.3488-71.1914Q26.2797-73.1223 26.2797-75.8466Q26.2797-78.571 24.3488-80.5019Q22.4179-82.4328 19.6935-82.4328Q16.9692-82.4328 15.0383-80.5019Q13.1074-78.571 13.1074-75.8466Q13.1074-73.1223 15.0383-71.1914Q16.9692-69.2605 19.6935-69.2605ZM19.6935-48.9869Q22.4179-48.9869 24.3488-50.9321Q26.2797-52.8774 26.2797-55.5966Q26.2797-58.3259 24.3488-60.2543Q22.4179-62.1826 19.6935-62.1826Q16.9692-62.1826 15.0383-60.2543Q13.1074-58.3259 13.1074-55.5966Q13.1074-52.8774 15.0383-50.9321Q16.9692-48.9869 19.6935-48.9869ZM19.6935-8.40095Q22.4179-8.40095 24.3488-10.3293Q26.2797-12.2577 26.2797-14.987Q26.2797-17.7062 24.3488-19.6515Q22.4179-21.5967 19.6935-21.5967Q16.9692-21.5967 15.0383-19.6515Q13.1074-17.7062 13.1074-14.987Q13.1074-12.2577 15.0383-10.3293Q16.9692-8.40095 19.6935-8.40095ZM19.6935 11.9115Q22.4179 11.9115 24.3488 9.98059Q26.2797 8.04969 26.2797 5.32529Q26.2797 2.601 24.3488 0.670097Q22.4179-1.26081 19.6935-1.26081Q16.9692-1.26081 15.0383 0.670097Q13.1074 2.601 13.1074 5.32529Q13.1074 8.04969 15.0383 9.98059Q16.9692 11.9115 19.6935 11.9115ZM19.6935-28.028Q22.6619-28.028 24.794-30.1601Q26.9262-32.2922 26.9262-35.2606Q26.9262-38.2291 24.794-40.3612Q22.6619-42.4932 19.6935-42.4932Q16.7251-42.4932 14.593-40.3612Q12.4609-38.2291 12.4609-35.2606Q12.4609-32.2922 14.593-30.1601Q16.7251-28.028 19.6935-28.028ZM140.67-35.2269Q140.67-36.9257 139.569-38.0259Q138.469-39.126 136.77-39.126L22.8957-39.126L22.8957-31.3278L136.77-31.3278Q138.469-31.3278 139.569-32.4422Q140.67-33.5566 140.67-35.2269ZM34.2993-47.0314L46.9185-47.0314L46.9185-63.6542Q46.9185-66.5626 48.357-67.9051Q49.7956-69.2476 52.4884-69.2476L118.61-69.2476Q121.375-69.2476 122.775-67.9051Q124.175-66.5626 124.175-63.6542L124.175-47.0314L136.77-47.0314L136.77-64.7201Q136.77-73.0314 132.333-77.4517Q127.896-81.872 119.533-81.872L51.537-81.872Q43.1685-81.872 38.7339-77.4465Q34.2993-73.0211 34.2993-64.7201Z"/>
  </g>
  <g id="Semibold-M" transform="matrix(1 0 0 1 1969.82 1126)">
   <path d="M44.7463-24.0372L33.8468-24.0372L33.8468-5.56743Q33.8468 2.45819 38.0593 6.6593Q42.2719 10.8604 50.3857 10.8604L117.898 10.8604Q126.005 10.8604 130.221 6.66641Q134.437 2.4724 134.437-5.56743L134.437-24.0372L123.567-24.0372L123.567-6.0835Q123.567-3.01386 122.047-1.53004Q120.526-0.0462289 117.567-0.0462289L50.7536-0.0462289Q47.871-0.0462289 46.3086-1.53004Q44.7463-3.01386 44.7463-6.0835ZM19.4658-68.8136Q22.1195-68.8136 23.9874-70.6816Q25.8553-72.5495 25.8553-75.1843Q25.8553-77.8381 23.9874-79.7061Q22.1195-81.574 19.4658-81.574Q16.8308-81.574 14.9629-79.7061Q13.095-77.8381 13.095-75.1843Q13.095-72.5495 14.9629-70.6816Q16.8308-68.8136 19.4658-68.8136ZM19.4658-48.8679Q22.1195-48.8679 23.9874-50.7544Q25.8553-52.6409 25.8553-55.2687Q25.8553-57.9106 23.9874-59.775Q22.1195-61.6394 19.4658-61.6394Q16.8308-61.6394 14.9629-59.775Q13.095-57.9106 13.095-55.2687Q13.095-52.6409 14.9629-50.7544Q16.8308-48.8679 19.4658-48.8679ZM19.4658-8.94423Q22.1195-8.94423 23.9874-10.8086Q25.8553-12.673 25.8553-15.3149Q25.8553-17.9427 23.9874-19.8292Q22.1195-21.7157 19.4658-21.7157Q16.8308-21.7157 14.9629-19.8292Q13.095-17.9427 13.095-15.3149Q13.095-12.673 14.9629-10.8086Q16.8308-8.94423 19.4658-8.94423ZM19.4658 11.0527Q22.1195 11.0527 23.9874 9.18477Q25.8553 7.31685 25.8553 4.66305Q25.8553 2.02819 23.9874 0.160271Q22.1195-1.70764 19.4658-1.70764Q16.8308-1.70764 14.9629 0.160271Q13.095 2.02819 13.095 4.66305Q13.095 7.31685 14.9629 9.18477Q16.8308 11.0527 19.4658 11.0527ZM19.4658-28.2558Q22.3427-28.2558 24.4161-30.3197Q26.4895-32.3836 26.4895-35.2606Q26.4895-38.1377 24.4161-40.2016Q22.3427-42.2655 19.4658-42.2655Q16.5888-42.2655 14.5248-40.2016Q12.4609-38.1377 12.4609-35.2606Q12.4609-32.3836 14.5248-30.3197Q16.5888-28.2558 19.4658-28.2558ZM138.177-35.2165Q138.177-36.8175 137.107-37.8868Q136.038-38.9561 134.437-38.9561L22.5707-38.9561L22.5707-31.4769L134.437-31.4769Q136.038-31.4769 137.107-32.5553Q138.177-33.6337 138.177-35.2165ZM33.8468-46.3958L44.7463-46.3958L44.7463-64.299Q44.7463-67.3868 46.3086-68.8615Q47.871-70.3362 50.7536-70.3362L117.567-70.3362Q120.526-70.3362 122.047-68.8615Q123.567-67.3868 123.567-64.299L123.567-46.3958L134.437-46.3958L134.437-64.815Q134.437-72.8549 130.221-77.0489Q126.005-81.2429 117.898-81.2429L50.3857-81.2429Q42.2719-81.2429 38.0593-77.0418Q33.8468-72.8407 33.8468-64.815Z"/>
  </g>
  <g id="Medium-M" transform="matrix(1 0 0 1 1673.99 1126)">
   <path d="M43.0992-24.5033L33.5037-24.5033L33.5037-5.49244Q33.5037 2.32436 37.5478 6.35538Q41.592 10.3864 49.5127 10.3864L116.658 10.3864Q124.571 10.3864 128.619 6.36398Q132.667 2.34156 132.667-5.49244L132.667-24.5033L123.107-24.5033L123.107-5.5916Q123.107-2.37805 121.495-0.79791Q119.882 0.782226 116.776 0.782226L49.4382 0.782226Q46.4117 0.782226 44.7554-0.79791Q43.0992-2.37805 43.0992-5.5916ZM19.2931-68.4748Q21.8932-68.4748 23.7134-70.295Q25.5335-72.1151 25.5335-74.6822Q25.5335-77.2825 23.7134-79.1026Q21.8932-80.9228 19.2931-80.9228Q16.7259-80.9228 14.9057-79.1026Q13.0856-77.2825 13.0856-74.6822Q13.0856-72.1151 14.9057-70.295Q16.7259-68.4748 19.2931-68.4748ZM19.2931-48.7777Q21.8932-48.7777 23.7134-50.6196Q25.5335-52.4615 25.5335-55.0201Q25.5335-57.5956 23.7134-59.4115Q21.8932-61.2274 19.2931-61.2274Q16.7259-61.2274 14.9057-59.4115Q13.0856-57.5956 13.0856-55.0201Q13.0856-52.4615 14.9057-50.6196Q16.7259-48.7777 19.2931-48.7777ZM19.2931-9.35617Q21.8932-9.35617 23.7134-11.1721Q25.5335-12.988 25.5335-15.5635Q25.5335-18.1221 23.7134-19.964Q21.8932-21.8059 19.2931-21.8059Q16.7259-21.8059 14.9057-19.964Q13.0856-18.1221 13.0856-15.5635Q13.0856-12.988 14.9057-11.1721Q16.7259-9.35617 19.2931-9.35617ZM19.2931 10.4015Q21.8932 10.4015 23.7134 8.58134Q25.5335 6.76118 25.5335 4.16091Q25.5335 1.59385 23.7134-0.2263Q21.8932-2.04645 19.2931-2.04645Q16.7259-2.04645 14.9057-0.2263Q13.0856 1.59385 13.0856 4.16091Q13.0856 6.76118 14.9057 8.58134Q16.7259 10.4015 19.2931 10.4015ZM19.2931-28.4285Q22.1007-28.4285 24.1295-30.4407Q26.1583-32.4529 26.1583-35.2606Q26.1583-38.0684 24.1295-40.0806Q22.1007-42.0928 19.2931-42.0928Q16.4853-42.0928 14.4731-40.0806Q12.4609-38.0684 12.4609-35.2606Q12.4609-32.4529 14.4731-30.4407Q16.4853-28.4285 19.2931-28.4285ZM136.286-35.2086Q136.286-36.7354 135.24-37.7814Q134.194-38.8273 132.667-38.8273L22.3242-38.8273L22.3242-31.5899L132.667-31.5899Q134.194-31.5899 135.24-32.641Q136.286-33.6921 136.286-35.2086ZM33.5037-45.9139L43.0992-45.9139L43.0992-64.7879Q43.0992-68.0117 44.7554-69.5867Q46.4117-71.1617 49.4382-71.1617L116.776-71.1617Q119.882-71.1617 121.495-69.5867Q123.107-68.0117 123.107-64.7879L123.107-45.9139L132.667-45.9139L132.667-64.887Q132.667-72.721 128.619-76.7435Q124.571-80.7659 116.658-80.7659L49.5127-80.7659Q41.592-80.7659 37.5478-76.7349Q33.5037-72.7038 33.5037-64.887Z"/>
  </g>
  <g id="Regular-M" transform="matrix(1 0 0 1 1378.43 1126)">
   <path d="M40.9508-25.1114L33.0561-25.1114L33.0561-5.39462Q33.0561 2.1498 36.8807 5.95897Q40.7052 9.76814 48.3741 9.76814L115.042 9.76814Q122.7 9.76814 126.53 5.96952Q130.36 2.17089 130.36-5.39462L130.36-25.1114L122.506-25.1114L122.506-4.94999Q122.506-1.54873 120.774 0.157046Q119.043 1.86282 115.745 1.86282L47.7224 1.86282Q44.5082 1.86282 42.7295 0.157046Q40.9508-1.54873 40.9508-4.94999ZM19.0678-68.0329Q21.5981-68.0329 23.356-69.7908Q25.1138-71.5486 25.1138-74.0272Q25.1138-76.5577 23.356-78.3155Q21.5981-80.0734 19.0678-80.0734Q16.5891-80.0734 14.8312-78.3155Q13.0733-76.5577 13.0733-74.0272Q13.0733-71.5486 14.8312-69.7908Q16.5891-68.0329 19.0678-68.0329ZM19.0678-48.6601Q21.5981-48.6601 23.356-50.4439Q25.1138-52.2276 25.1138-54.6958Q25.1138-57.1849 23.356-58.9375Q21.5981-60.6901 19.0678-60.6901Q16.5891-60.6901 14.8312-58.9375Q13.0733-57.1849 13.0733-54.6958Q13.0733-52.2276 14.8312-50.4439Q16.5891-48.6601 19.0678-48.6601ZM19.0678-9.89349Q21.5981-9.89349 23.356-11.6461Q25.1138-13.3987 25.1138-15.8878Q25.1138-18.356 23.356-20.1397Q21.5981-21.9235 19.0678-21.9235Q16.5891-21.9235 14.8312-20.1397Q13.0733-18.356 13.0733-15.8878Q13.0733-13.3987 14.8312-11.6461Q16.5891-9.89349 19.0678-9.89349ZM19.0678 9.55211Q21.5981 9.55211 23.356 7.79425Q25.1138 6.0364 25.1138 3.50594Q25.1138 1.02733 23.356-0.730523Q21.5981-2.48838 19.0678-2.48838Q16.5891-2.48838 14.8312-0.730523Q13.0733 1.02733 13.0733 3.50594Q13.0733 6.0364 14.8312 7.79425Q16.5891 9.55211 19.0678 9.55211ZM19.0678-28.6537Q21.785-28.6537 23.7557-30.5985Q25.7264-32.5433 25.7264-35.2606Q25.7264-37.978 23.7557-39.9228Q21.785-41.8676 19.0678-41.8676Q16.3505-41.8676 14.4057-39.9228Q12.4609-37.978 12.4609-35.2606Q12.4609-32.5433 14.4057-30.5985Q16.3505-28.6537 19.0678-28.6537ZM133.82-35.1983Q133.82-36.6284 132.805-37.6438Q131.79-38.6593 130.36-38.6593L22.0027-38.6593L22.0027-31.7374L130.36-31.7374Q131.79-31.7374 132.805-32.7528Q133.82-33.7683 133.82-35.1983ZM33.0561-45.2853L40.9508-45.2853L40.9508-65.4256Q40.9508-68.8269 42.7295-70.5326Q44.5082-72.2384 47.7224-72.2384L115.745-72.2384Q119.043-72.2384 120.774-70.5326Q122.506-68.8269 122.506-65.4256L122.506-45.2853L130.36-45.2853L130.36-64.981Q130.36-72.5465 126.53-76.3451Q122.7-80.1437 115.042-80.1437L48.3741-80.1437Q40.7052-80.1437 36.8807-76.3346Q33.0561-72.5254 33.0561-64.981Z"/>
  </g>
  <g id="Light-M" transform="matrix(1 0 0 1 1082.92 1126)">
   <path d="M37.3403-26.8394L31.2936-26.8394L31.2936-5.25778Q31.2936 1.79044 34.9044 5.41146Q38.5152 9.03247 45.6875 9.03247L113.57 9.03247Q120.715 9.03247 124.34 5.43911Q127.964 1.84575 127.964-5.25778L127.964-26.8394L121.924-26.8394L121.924-5.00145Q121.924-1.03528 119.91 0.961284Q117.896 2.95785 114 2.95785L45.2926 2.95785Q41.5138 2.95785 39.427 0.961284Q37.3403-1.03528 37.3403-5.00145ZM18.2638-68.0329Q20.4516-68.0329 21.9785-69.5598Q23.5054-71.0866 23.5054-73.2401Q23.5054-75.4284 21.9785-76.9553Q20.4516-78.4822 18.2638-78.4822Q16.1098-78.4822 14.583-76.9553Q13.0561-75.4284 13.0561-73.2401Q13.0561-71.0866 14.583-69.5598Q16.1098-68.0329 18.2638-68.0329ZM18.2638-49.0706Q20.4516-49.0706 21.9785-50.6149Q23.5054-52.1592 23.5054-54.2853Q23.5054-56.4661 21.9785-57.9793Q20.4516-59.4924 18.2638-59.4924Q16.1098-59.4924 14.583-57.9793Q13.0561-56.4661 13.0561-54.2853Q13.0561-52.1592 14.583-50.6149Q16.1098-49.0706 18.2638-49.0706ZM18.2638-11.0911Q20.4516-11.0911 21.9785-12.6043Q23.5054-14.1175 23.5054-16.2983Q23.5054-18.4244 21.9785-19.9687Q20.4516-21.513 18.2638-21.513Q16.1098-21.513 14.583-19.9687Q13.0561-18.4244 13.0561-16.2983Q13.0561-14.1175 14.583-12.6043Q16.1098-11.0911 18.2638-11.0911ZM18.2638 7.96088Q20.4516 7.96088 21.9785 6.43402Q23.5054 4.90716 23.5054 2.71881Q23.5054 0.565346 21.9785-0.961516Q20.4516-2.48838 18.2638-2.48838Q16.1098-2.48838 14.583-0.961516Q13.0561 0.565346 13.0561 2.71881Q13.0561 4.90716 14.583 6.43402Q16.1098 7.96088 18.2638 7.96088ZM18.2638-29.4578Q20.6386-29.4578 22.3698-31.1716Q24.101-32.8854 24.101-35.2606Q24.101-37.6359 22.3698-39.3497Q20.6386-41.0635 18.2638-41.0635Q15.8885-41.0635 14.1747-39.3497Q12.4609-37.6359 12.4609-35.2606Q12.4609-32.8854 14.1747-31.1716Q15.8885-29.4578 18.2638-29.4578ZM130.672-35.1983Q130.672-36.3205 129.879-37.1134Q129.086-37.9063 127.964-37.9063L20.805-37.9063L20.805-32.4903L127.964-32.4903Q129.086-32.4903 129.879-33.2833Q130.672-34.0762 130.672-35.1983ZM31.2936-43.5572L37.3403-43.5572L37.3403-65.3399Q37.3403-69.3061 39.427-71.3027Q41.5138-73.2992 45.2926-73.2992L114-73.2992Q117.896-73.2992 119.91-71.3027Q121.924-69.3061 121.924-65.3399L121.924-43.5572L127.964-43.5572L127.964-65.0836Q127.964-72.1871 124.34-75.7805Q120.715-79.3738 113.57-79.3738L45.6875-79.3738Q38.5152-79.3738 34.9044-75.7528Q31.2936-72.1318 31.2936-65.0836Z"/>
  </g>
  <g id="Thin-M" transform="matrix(1 0 0 1 787.794 1126)">
   <path d="M32.5651-29.125L28.9624-29.125L28.9624-5.0768Q28.9624 1.31517 32.2905 4.68733Q35.6186 8.05948 42.1344 8.05948L111.624 8.05948Q118.09 8.05948 121.443 4.7376Q124.796 1.41572 124.796-5.0768L124.796-29.125L121.155-29.125L121.155-5.06951Q121.155-0.356205 118.767 2.02495Q116.38 4.40611 111.691 4.40611L42.079 4.40611Q37.5534 4.40611 35.0593 2.02495Q32.5651-0.356205 32.5651-5.06951ZM17.2003-68.0329Q18.9353-68.0329 20.1567-69.2543Q21.378-70.4756 21.378-72.1991Q21.378-73.9349 20.1567-75.1563Q18.9353-76.3776 17.2003-76.3776Q15.476-76.3776 14.2546-75.1563Q13.0333-73.9349 13.0333-72.1991Q13.0333-70.4756 14.2546-69.2543Q15.476-68.0329 17.2003-68.0329ZM17.2003-49.6136Q18.9353-49.6136 20.1567-50.8411Q21.378-52.0687 21.378-53.7423Q21.378-55.5156 20.1567-56.712Q18.9353-57.9084 17.2003-57.9084Q15.476-57.9084 14.2546-56.712Q13.0333-55.5156 13.0333-53.7423Q13.0333-52.0687 14.2546-50.8411Q15.476-49.6136 17.2003-49.6136ZM17.2003-12.6752Q18.9353-12.6752 20.1567-13.8716Q21.378-15.068 21.378-16.8413Q21.378-18.5149 20.1567-19.7425Q18.9353-20.97 17.2003-20.97Q15.476-20.97 14.2546-19.7425Q13.0333-18.5149 13.0333-16.8413Q13.0333-15.068 14.2546-13.8716Q15.476-12.6752 17.2003-12.6752ZM17.2003 5.85636Q18.9353 5.85636 20.1567 4.635Q21.378 3.41365 21.378 1.67776Q21.378-0.0456693 20.1567-1.26702Q18.9353-2.48838 17.2003-2.48838Q15.476-2.48838 14.2546-1.26702Q13.0333-0.0456693 13.0333 1.67776Q13.0333 3.41365 14.2546 4.635Q15.476 5.85636 17.2003 5.85636ZM17.2003-30.5213Q19.1222-30.5213 20.5367-31.9296Q21.9512-33.3378 21.9512-35.2606Q21.9512-37.1834 20.5367-38.5917Q19.1222-40 17.2003-40Q15.2775-40 13.8692-38.5917Q12.4609-37.1834 12.4609-35.2606Q12.4609-33.3378 13.8692-31.9296Q15.2775-30.5213 17.2003-30.5213ZM126.508-35.1983Q126.508-35.9133 126.009-36.4119Q125.51-36.9105 124.796-36.9105L19.221-36.9105L19.221-33.4861L124.796-33.4861Q125.51-33.4861 126.009-33.9848Q126.508-34.4834 126.508-35.1983ZM28.9624-41.2717L32.5651-41.2717L32.5651-65.2266Q32.5651-69.9399 35.0593-72.3211Q37.5534-74.7022 42.079-74.7022L111.691-74.7022Q116.38-74.7022 118.767-72.3211Q121.155-69.9399 121.155-65.2266L121.155-41.2717L124.796-41.2717L124.796-65.2193Q124.796-71.7118 121.443-75.0337Q118.09-78.3556 111.624-78.3556L42.1344-78.3556Q35.6186-78.3556 32.2905-74.9835Q28.9624-71.6113 28.9624-65.2193Z"/>
  </g>
  <g id="Ultralight-M" transform="matrix(1 0 0 1 491.894 1126)">
   <path d="M30.1193-30.2956L27.7684-30.2956L27.7684-4.9841Q27.7684 1.07173 30.9517 4.31643Q34.1351 7.56112 40.3144 7.56112L110.627 7.56112Q116.746 7.56112 119.959 4.37829Q123.173 1.19546 123.173-4.9841L123.173-30.2956L120.76-30.2956L120.76-5.10437Q120.76-0.00838592 118.182 2.56976Q115.603 5.1479 110.509 5.1479L40.433 5.1479Q35.5249 5.1479 32.8221 2.56976Q30.1193-0.00838592 30.1193-5.10437ZM16.6556-68.0329Q18.1587-68.0329 19.2235-69.0978Q20.2884-70.1627 20.2884-71.6658Q20.2884-73.17 19.2235-74.2348Q18.1587-75.2997 16.6556-75.2997Q15.1514-75.2997 14.0865-74.2348Q13.0216-73.17 13.0216-71.6658Q13.0216-70.1627 14.0865-69.0978Q15.1514-68.0329 16.6556-68.0329ZM16.6556-49.8917Q18.1587-49.8917 19.2235-50.957Q20.2884-52.0224 20.2884-53.4642Q20.2884-55.0287 19.2235-56.0629Q18.1587-57.0971 16.6556-57.0971Q15.1514-57.0971 14.0865-56.0629Q13.0216-55.0287 13.0216-53.4642Q13.0216-52.0224 14.0865-50.957Q15.1514-49.8917 16.6556-49.8917ZM16.6556-13.4865Q18.1587-13.4865 19.2235-14.5207Q20.2884-15.5549 20.2884-17.1194Q20.2884-18.5612 19.2235-19.6266Q18.1587-20.6919 16.6556-20.6919Q15.1514-20.6919 14.0865-19.6266Q13.0216-18.5612 13.0216-17.1194Q13.0216-15.5549 14.0865-14.5207Q15.1514-13.4865 16.6556-13.4865ZM16.6556 4.77843Q18.1587 4.77843 19.2235 3.71356Q20.2884 2.64868 20.2884 1.14455Q20.2884-0.358629 19.2235-1.4235Q18.1587-2.48838 16.6556-2.48838Q15.1514-2.48838 14.0865-1.4235Q13.0216-0.358629 13.0216 1.14455Q13.0216 2.64868 14.0865 3.71356Q15.1514 4.77843 16.6556 4.77843ZM16.6556-31.066Q18.3456-31.066 19.5978-32.3178Q20.8501-33.5696 20.8501-35.2606Q20.8501-36.9517 19.5978-38.2035Q18.3456-39.4553 16.6556-39.4553Q14.9645-39.4553 13.7127-38.2035Q12.4609-36.9517 12.4609-35.2606Q12.4609-33.5696 13.7127-32.3178Q14.9645-31.066 16.6556-31.066ZM124.375-35.1983Q124.375-35.7047 124.027-36.0526Q123.679-36.4005 123.173-36.4005L18.4097-36.4005L18.4097-33.9962L123.173-33.9962Q123.679-33.9962 124.027-34.3441Q124.375-34.692 124.375-35.1983ZM27.7684-40.1011L30.1193-40.1011L30.1193-65.1686Q30.1193-70.2646 32.8221-72.8427Q35.5249-75.4209 40.433-75.4209L110.509-75.4209Q115.603-75.4209 118.182-72.8427Q120.76-70.2646 120.76-65.1686L120.76-40.1011L123.173-40.1011L123.173-65.2889Q123.173-71.4684 119.959-74.6512Q116.746-77.8341 110.627-77.8341L40.3144-77.8341Q34.1351-77.8341 30.9517-74.5894Q27.7684-71.3447 27.7684-65.2889Z"/>
  </g>
  <g id="Black-S" transform="matrix(1 0 0 1 2872.02 696)">
   <path d="M42.0898-24.5117L27.9297-24.5117L27.9297-12.3047Q27.9297-5.12695 31.958-1.09863Q35.9863 2.92969 43.1641 2.92969L97.7539 2.92969Q104.932 2.92969 108.96-1.09863Q112.988-5.12695 112.988-12.3047L112.988-24.5117L98.8281-24.5117L98.8281-14.5508Q98.8281-12.7441 98.0225-11.9873Q97.2168-11.2305 95.5078-11.2305L45.4102-11.2305Q43.75-11.2305 42.9199-11.9873Q42.0898-12.7441 42.0898-14.5508ZM15.9668-63.0371Q18.2617-63.0371 19.9219-64.6973Q21.582-66.3574 21.582-68.7012Q21.582-70.9961 19.9219-72.6562Q18.2617-74.3164 15.9668-74.3164Q13.623-74.3164 11.9629-72.6562Q10.3027-70.9961 10.3027-68.7012Q10.3027-66.3574 11.9629-64.6973Q13.623-63.0371 15.9668-63.0371ZM15.9668-46.3379Q18.2617-46.3379 19.9219-47.998Q21.582-49.6582 21.582-52.002Q21.582-54.3457 19.9219-56.0059Q18.2617-57.666 15.9668-57.666Q13.623-57.666 11.9629-56.0059Q10.3027-54.3457 10.3027-52.002Q10.3027-49.6582 11.9629-47.998Q13.623-46.3379 15.9668-46.3379ZM15.9668-12.8906Q18.2617-12.8906 19.9219-14.5508Q21.582-16.2109 21.582-18.5547Q21.582-20.8984 19.9219-22.5586Q18.2617-24.2188 15.9668-24.2188Q13.623-24.2188 11.9629-22.5586Q10.3027-20.8984 10.3027-18.5547Q10.3027-16.2109 11.9629-14.5508Q13.623-12.8906 15.9668-12.8906ZM15.9668 3.80859Q18.2617 3.80859 19.9219 2.14844Q21.582 0.488281 21.582-1.80664Q21.582-4.15039 19.9219-5.81055Q18.2617-7.4707 15.9668-7.4707Q13.623-7.4707 11.9629-5.81055Q10.3027-4.15039 10.3027-1.80664Q10.3027 0.488281 11.9629 2.14844Q13.623 3.80859 15.9668 3.80859ZM15.9668-29.0527Q18.5059-29.0527 20.3125-30.8838Q22.1191-32.7148 22.1191-35.2539Q22.1191-37.793 20.3125-39.624Q18.5059-41.4551 15.9668-41.4551Q13.4277-41.4551 11.5967-39.624Q9.76562-37.793 9.76562-35.2539Q9.76562-32.7148 11.5967-30.8838Q13.4277-29.0527 15.9668-29.0527ZM116.406-35.2539Q116.406-36.8164 115.479-37.7441Q114.551-38.6719 112.988-38.6719L18.7012-38.6719L18.7012-31.8359L112.988-31.8359Q114.551-31.8359 115.479-32.7881Q116.406-33.7402 116.406-35.2539ZM27.9297-45.9961L42.0898-45.9961L42.0898-55.8594Q42.0898-57.7148 42.9199-58.4473Q43.75-59.1797 45.4102-59.1797L95.5078-59.1797Q97.2168-59.1797 98.0225-58.4473Q98.8281-57.7148 98.8281-55.8594L98.8281-45.9961L112.988-45.9961L112.988-58.1055Q112.988-65.2832 108.96-69.3115Q104.932-73.3398 97.7539-73.3398L43.1641-73.3398Q35.9863-73.3398 31.958-69.3115Q27.9297-65.2832 27.9297-58.1055Z"/>
  </g>
  <g id="Heavy-S" transform="matrix(1 0 0 1 2576.45 696)">
   <path d="M40.1422-24.9727L27.6531-24.9727L27.6531-12.2125Q27.6531-5.27677 31.4625-1.47318Q35.2718 2.33042 42.2306 2.33042L96.129 2.33042Q103.088 2.33042 106.897-1.47318Q110.706-5.27677 110.706-12.2125L110.706-24.9727L98.2289-24.9727L98.2289-13.8247Q98.2289-11.8798 97.3252-11.0192Q96.4216-10.1587 94.5743-10.1587L43.7967-10.1587Q41.9983-10.1587 41.0702-11.0192Q40.1422-11.8798 40.1422-13.8247ZM15.817-62.5416Q18.0773-62.5416 19.6971-64.1614Q21.317-65.7812 21.317-68.0673Q21.317-70.3277 19.6971-71.9475Q18.0773-73.5673 15.817-73.5673Q13.5309-73.5673 11.911-71.9475Q10.2912-70.3277 10.2912-68.0673Q10.2912-65.7812 11.911-64.1614Q13.5309-62.5416 15.817-62.5416ZM15.817-46.1535Q18.0773-46.1535 19.6971-47.7791Q21.317-49.4047 21.317-51.6908Q21.317-53.9769 19.6971-55.5967Q18.0773-57.2166 15.817-57.2166Q13.5309-57.2166 11.911-55.5967Q10.2912-53.9769 10.2912-51.6908Q10.2912-49.4047 11.911-47.7791Q13.5309-46.1535 15.817-46.1535ZM15.817-13.3401Q18.0773-13.3401 19.6971-14.9599Q21.317-16.5797 21.317-18.8658Q21.317-21.152 19.6971-22.7776Q18.0773-24.4031 15.817-24.4031Q13.5309-24.4031 11.911-22.7776Q10.2912-21.152 10.2912-18.8658Q10.2912-16.5797 11.911-14.9599Q13.5309-13.3401 15.817-13.3401ZM15.817 3.0595Q18.0773 3.0595 19.6971 1.43968Q21.317-0.180138 21.317-2.44049Q21.317-4.72661 19.6971-6.34643Q18.0773-7.96626 15.817-7.96626Q13.5309-7.96626 11.911-6.34643Q10.2912-4.72661 10.2912-2.44049Q10.2912-0.180138 11.911 1.43968Q13.5309 3.0595 15.817 3.0595ZM15.817-29.2026Q18.2984-29.2026 20.0705-30.9875Q21.8426-32.7725 21.8426-35.2539Q21.8426-37.7353 20.0705-39.5203Q18.2984-41.3053 15.817-41.3053Q13.3355-41.3053 11.5506-39.5203Q9.76562-37.7353 9.76562-35.2539Q9.76562-32.7725 11.5506-30.9875Q13.3355-29.2026 15.817-29.2026ZM114.044-35.2424Q114.044-36.7357 113.122-37.6577Q112.2-38.5797 110.706-38.5797L18.4937-38.5797L18.4937-31.9051L110.706-31.9051Q112.2-31.9051 113.122-32.8457Q114.044-33.7863 114.044-35.2424ZM27.6531-45.5121L40.1422-45.5121L40.1422-56.5854Q40.1422-58.5677 41.0702-59.4096Q41.9983-60.2515 43.7967-60.2515L94.5743-60.2515Q96.4216-60.2515 97.3252-59.4096Q98.2289-58.5677 98.2289-56.5854L98.2289-45.5121L110.706-45.5121L110.706-58.1977Q110.706-65.1334 106.897-68.937Q103.088-72.7406 96.129-72.7406L42.2306-72.7406Q35.2718-72.7406 31.4625-68.937Q27.6531-65.1334 27.6531-58.1977Z"/>
  </g>
  <g id="Bold-S" transform="matrix(1 0 0 1 2281.02 696)">
   <path d="M37.9639-25.4883L27.3438-25.4883L27.3438-12.1094Q27.3438-5.44434 30.9082-1.89209Q34.4727 1.66016 41.1865 1.66016L94.3115 1.66016Q101.025 1.66016 104.59-1.89209Q108.154-5.44434 108.154-12.1094L108.154-25.4883L97.5586-25.4883L97.5586-13.0127Q97.5586-10.9131 96.5454-9.93652Q95.5322-8.95996 93.5303-8.95996L41.9922-8.95996Q40.0391-8.95996 39.0015-9.93652Q37.9639-10.9131 37.9639-13.0127ZM15.6494-61.9873Q17.8711-61.9873 19.4458-63.562Q21.0205-65.1367 21.0205-67.3584Q21.0205-69.5801 19.4458-71.1548Q17.8711-72.7295 15.6494-72.7295Q13.4277-72.7295 11.853-71.1548Q10.2783-69.5801 10.2783-67.3584Q10.2783-65.1367 11.853-63.562Q13.4277-61.9873 15.6494-61.9873ZM15.6494-45.9473Q17.8711-45.9473 19.4458-47.5342Q21.0205-49.1211 21.0205-51.3428Q21.0205-53.5645 19.4458-55.1392Q17.8711-56.7139 15.6494-56.7139Q13.4277-56.7139 11.853-55.1392Q10.2783-53.5645 10.2783-51.3428Q10.2783-49.1211 11.853-47.5342Q13.4277-45.9473 15.6494-45.9473ZM15.6494-13.8428Q17.8711-13.8428 19.4458-15.4175Q21.0205-16.9922 21.0205-19.2139Q21.0205-21.4355 19.4458-23.0225Q17.8711-24.6094 15.6494-24.6094Q13.4277-24.6094 11.853-23.0225Q10.2783-21.4355 10.2783-19.2139Q10.2783-16.9922 11.853-15.4175Q13.4277-13.8428 15.6494-13.8428ZM15.6494 2.22168Q17.8711 2.22168 19.4458 0.646973Q21.0205-0.927734 21.0205-3.14941Q21.0205-5.37109 19.4458-6.9458Q17.8711-8.52051 15.6494-8.52051Q13.4277-8.52051 11.853-6.9458Q10.2783-5.37109 10.2783-3.14941Q10.2783-0.927734 11.853 0.646973Q13.4277 2.22168 15.6494 2.22168ZM15.6494-29.3701Q18.0664-29.3701 19.7998-31.1035Q21.5332-32.8369 21.5332-35.2539Q21.5332-37.6709 19.7998-39.4043Q18.0664-41.1377 15.6494-41.1377Q13.2324-41.1377 11.499-39.4043Q9.76562-37.6709 9.76562-35.2539Q9.76562-32.8369 11.499-31.1035Q13.2324-29.3701 15.6494-29.3701ZM111.401-35.2295Q111.401-36.6455 110.486-37.561Q109.57-38.4766 108.154-38.4766L18.2617-38.4766L18.2617-31.9824L108.154-31.9824Q109.57-31.9824 110.486-32.9102Q111.401-33.8379 111.401-35.2295ZM27.3438-44.9707L37.9639-44.9707L37.9639-57.3975Q37.9639-59.5215 39.0015-60.4858Q40.0391-61.4502 41.9922-61.4502L93.5303-61.4502Q95.5322-61.4502 96.5454-60.4858Q97.5586-59.5215 97.5586-57.3975L97.5586-44.9707L108.154-44.9707L108.154-58.3008Q108.154-64.9658 104.59-68.5181Q101.025-72.0703 94.3115-72.0703L41.1865-72.0703Q34.4727-72.0703 30.9082-68.5181Q27.3438-64.9658 27.3438-58.3008Z"/>
  </g>
  <g id="Semibold-S" transform="matrix(1 0 0 1 1985.19 696)">
   <path d="M36.462-25.8438L27.1305-25.8438L27.1305-12.0383Q27.1305-5.55986 30.5261-2.18091Q33.9217 1.19805 40.4667 1.19805L93.0585 1.19805Q99.6035 1.19805 102.999-2.18091Q106.395-5.55986 106.395-12.0383L106.395-25.8438L97.0965-25.8438L97.0965-12.4528Q97.0965-10.2466 96.0078-9.19004Q94.919-8.1335 92.8104-8.1335L40.748-8.1335Q38.6883-8.1335 37.5751-9.19004Q36.462-10.2466 36.462-12.4528ZM15.5339-61.6052Q17.7289-61.6052 19.2725-63.1488Q20.8161-64.6924 20.8161-66.8696Q20.8161-69.0646 19.2725-70.6083Q17.7289-72.1519 15.5339-72.1519Q13.3566-72.1519 11.813-70.6083Q10.2694-69.0646 10.2694-66.8696Q10.2694-64.6924 11.813-63.1488Q13.3566-61.6052 15.5339-61.6052ZM15.5339-45.8051Q17.7289-45.8051 19.2725-47.3653Q20.8161-48.9256 20.8161-51.1028Q20.8161-53.2801 19.2725-54.8237Q17.7289-56.3673 15.5339-56.3673Q13.3566-56.3673 11.813-54.8237Q10.2694-53.2801 10.2694-51.1028Q10.2694-48.9256 11.813-47.3653Q13.3566-45.8051 15.5339-45.8051ZM15.5339-14.1894Q17.7289-14.1894 19.2725-15.733Q20.8161-17.2766 20.8161-19.4538Q20.8161-21.6311 19.2725-23.1913Q17.7289-24.7516 15.5339-24.7516Q13.3566-24.7516 11.813-23.1913Q10.2694-21.6311 10.2694-19.4538Q10.2694-17.2766 11.813-15.733Q13.3566-14.1894 15.5339-14.1894ZM15.5339 1.64404Q17.7289 1.64404 19.2725 0.100439Q20.8161-1.44316 20.8161-3.63818Q20.8161-5.81543 19.2725-7.35903Q17.7289-8.90264 15.5339-8.90264Q13.3566-8.90264 11.813-7.35903Q10.2694-5.81543 10.2694-3.63818Q10.2694-1.44316 11.813 0.100439Q13.3566 1.64404 15.5339 1.64404ZM15.5339-29.4856Q17.9064-29.4856 19.6132-31.1835Q21.3199-32.8813 21.3199-35.2539Q21.3199-37.6265 19.6132-39.3243Q17.9064-41.0222 15.5339-41.0222Q13.1613-41.0222 11.4635-39.3243Q9.76562-37.6265 9.76562-35.2539Q9.76562-32.8813 11.4635-31.1835Q13.1613-29.4856 15.5339-29.4856ZM109.58-35.2206Q109.58-36.5833 108.669-37.4944Q107.757-38.4055 106.395-38.4055L18.1018-38.4055L18.1018-32.0357L106.395-32.0357Q107.757-32.0357 108.669-32.9546Q109.58-33.8734 109.58-35.2206ZM27.1305-44.5975L36.462-44.5975L36.462-57.9573Q36.462-60.1791 37.5751-61.2279Q38.6883-62.2767 40.748-62.2767L92.8104-62.2767Q94.919-62.2767 96.0078-61.2279Q97.0965-60.1791 97.0965-57.9573L97.0965-44.5975L106.395-44.5975L106.395-58.3719Q106.395-64.8503 102.999-68.2292Q99.6035-71.6082 93.0585-71.6082L40.4667-71.6082Q33.9217-71.6082 30.5261-68.2292Q27.1305-64.8503 27.1305-58.3719Z"/>
  </g>
  <g id="Medium-S" transform="matrix(1 0 0 1 1689.14 696)">
   <path d="M35.3232-26.1133L26.9688-26.1133L26.9688-11.9844Q26.9688-5.64746 30.2363-2.3999Q33.5039 0.847656 39.9209 0.847656L92.1084 0.847656Q98.5254 0.847656 101.793-2.3999Q105.061-5.64746 105.061-11.9844L105.061-26.1133L96.7461-26.1133L96.7461-12.0283Q96.7461-9.74121 95.6001-8.62402Q94.4541-7.50684 92.2646-7.50684L39.8047-7.50684Q37.6641-7.50684 36.4937-8.62402Q35.3232-9.74121 35.3232-12.0283ZM15.4463-61.3154Q17.6211-61.3154 19.1411-62.8354Q20.6611-64.3555 20.6611-66.499Q20.6611-68.6738 19.1411-70.1938Q17.6211-71.7139 15.4463-71.7139Q13.3027-71.7139 11.7827-70.1938Q10.2627-68.6738 10.2627-66.499Q10.2627-64.3555 11.7827-62.8354Q13.3027-61.3154 15.4463-61.3154ZM15.4463-45.6973Q17.6211-45.6973 19.1411-47.2373Q20.6611-48.7773 20.6611-50.9209Q20.6611-53.0645 19.1411-54.5845Q17.6211-56.1045 15.4463-56.1045Q13.3027-56.1045 11.7827-54.5845Q10.2627-53.0645 10.2627-50.9209Q10.2627-48.7773 11.7827-47.2373Q13.3027-45.6973 15.4463-45.6973ZM15.4463-14.4521Q17.6211-14.4521 19.1411-15.9722Q20.6611-17.4922 20.6611-19.6357Q20.6611-21.7793 19.1411-23.3193Q17.6211-24.8594 15.4463-24.8594Q13.3027-24.8594 11.7827-23.3193Q10.2627-21.7793 10.2627-19.6357Q10.2627-17.4922 11.7827-15.9722Q13.3027-14.4521 15.4463-14.4521ZM15.4463 1.20605Q17.6211 1.20605 19.1411-0.313965Q20.6611-1.83398 20.6611-4.00879Q20.6611-6.15234 19.1411-7.67236Q17.6211-9.19238 15.4463-9.19238Q13.3027-9.19238 11.7827-7.67236Q10.2627-6.15234 10.2627-4.00879Q10.2627-1.83398 11.7827-0.313965Q13.3027 1.20605 15.4463 1.20605ZM15.4463-29.5732Q17.7852-29.5732 19.4717-31.2441Q21.1582-32.915 21.1582-35.2539Q21.1582-37.5928 19.4717-39.2637Q17.7852-40.9346 15.4463-40.9346Q13.1074-40.9346 11.4365-39.2637Q9.76562-37.5928 9.76562-35.2539Q9.76562-32.915 11.4365-31.2441Q13.1074-29.5732 15.4463-29.5732ZM108.198-35.2139Q108.198-36.5361 107.291-37.4438Q106.383-38.3516 105.061-38.3516L17.9805-38.3516L17.9805-32.0762L105.061-32.0762Q106.383-32.0762 107.291-32.9883Q108.198-33.9004 108.198-35.2139ZM26.9688-44.3145L35.3232-44.3145L35.3232-58.3818Q35.3232-60.6777 36.4937-61.7905Q37.6641-62.9033 39.8047-62.9033L92.2646-62.9033Q94.4541-62.9033 95.6001-61.7905Q96.7461-60.6777 96.7461-58.3818L96.7461-44.3145L105.061-44.3145L105.061-58.4258Q105.061-64.7627 101.793-68.0103Q98.5254-71.2578 92.1084-71.2578L39.9209-71.2578Q33.5039-71.2578 30.2363-68.0103Q26.9688-64.7627 26.9688-58.4258Z"/>
  </g>
  <g id="Regular-S" transform="matrix(1 0 0 1 1393.3 696)">
   <path d="M33.8379-26.4648L26.7578-26.4648L26.7578-11.9141Q26.7578-5.76172 29.8584-2.68555Q32.959 0.390625 39.209 0.390625L90.8691 0.390625Q97.1191 0.390625 100.22-2.68555Q103.32-5.76172 103.32-11.9141L103.32-26.4648L96.2891-26.4648L96.2891-11.4746Q96.2891-9.08203 95.0684-7.88574Q93.8477-6.68945 91.5527-6.68945L38.5742-6.68945Q36.3281-6.68945 35.083-7.88574Q33.8379-9.08203 33.8379-11.4746ZM15.332-60.9375Q17.4805-60.9375 18.9697-62.4268Q20.459-63.916 20.459-66.0156Q20.459-68.1641 18.9697-69.6533Q17.4805-71.1426 15.332-71.1426Q13.2324-71.1426 11.7432-69.6533Q10.2539-68.1641 10.2539-66.0156Q10.2539-63.916 11.7432-62.4268Q13.2324-60.9375 15.332-60.9375ZM15.332-45.5566Q17.4805-45.5566 18.9697-47.0703Q20.459-48.584 20.459-50.6836Q20.459-52.7832 18.9697-54.2725Q17.4805-55.7617 15.332-55.7617Q13.2324-55.7617 11.7432-54.2725Q10.2539-52.7832 10.2539-50.6836Q10.2539-48.584 11.7432-47.0703Q13.2324-45.5566 15.332-45.5566ZM15.332-14.7949Q17.4805-14.7949 18.9697-16.2842Q20.459-17.7734 20.459-19.873Q20.459-21.9727 18.9697-23.4863Q17.4805-25 15.332-25Q13.2324-25 11.7432-23.4863Q10.2539-21.9727 10.2539-19.873Q10.2539-17.7734 11.7432-16.2842Q13.2324-14.7949 15.332-14.7949ZM15.332 0.634766Q17.4805 0.634766 18.9697-0.854492Q20.459-2.34375 20.459-4.49219Q20.459-6.5918 18.9697-8.08105Q17.4805-9.57031 15.332-9.57031Q13.2324-9.57031 11.7432-8.08105Q10.2539-6.5918 10.2539-4.49219Q10.2539-2.34375 11.7432-0.854492Q13.2324 0.634766 15.332 0.634766ZM15.332-29.6875Q17.627-29.6875 19.2871-31.3232Q20.9473-32.959 20.9473-35.2539Q20.9473-37.5488 19.2871-39.1846Q17.627-40.8203 15.332-40.8203Q13.0371-40.8203 11.4014-39.1846Q9.76562-37.5488 9.76562-35.2539Q9.76562-32.959 11.4014-31.3232Q13.0371-29.6875 15.332-29.6875ZM106.396-35.2051Q106.396-36.4746 105.493-37.3779Q104.59-38.2812 103.32-38.2812L17.8223-38.2812L17.8223-32.1289L103.32-32.1289Q104.59-32.1289 105.493-33.0322Q106.396-33.9355 106.396-35.2051ZM26.7578-43.9453L33.8379-43.9453L33.8379-58.9355Q33.8379-61.3281 35.083-62.5244Q36.3281-63.7207 38.5742-63.7207L91.5527-63.7207Q93.8477-63.7207 95.0684-62.5244Q96.2891-61.3281 96.2891-58.9355L96.2891-43.9453L103.32-43.9453L103.32-58.4961Q103.32-64.6484 100.22-67.7246Q97.1191-70.8008 90.8691-70.8008L39.209-70.8008Q32.959-70.8008 29.8584-67.7246Q26.7578-64.6484 26.7578-58.4961Z"/>
  </g>
  <g id="Light-S" transform="matrix(1 0 0 1 1097.65 696)">
   <path d="M30.644-27.9935L25.1986-27.9935L25.1986-11.793Q25.1986-6.07961 28.1101-3.16989Q31.0216-0.260162 36.8324-0.260162L89.5673-0.260162Q95.3634-0.260162 98.2822-3.15475Q101.201-6.04935 101.201-11.793L101.201-27.9935L95.7743-27.9935L95.7743-11.5201Q95.7743-8.62783 94.3039-7.1743Q92.8335-5.72077 90.0088-5.72077L36.4248-5.72077Q33.6792-5.72077 32.1616-7.1743Q30.644-8.62783 30.644-11.5201ZM14.6207-60.9375Q16.4663-60.9375 17.7512-62.2224Q19.0361-63.5073 19.0361-65.3193Q19.0361-67.1651 17.7512-68.45Q16.4663-69.735 14.6207-69.735Q12.8085-69.735 11.5236-68.45Q10.2386-67.1651 10.2386-65.3193Q10.2386-63.5073 11.5236-62.2224Q12.8085-60.9375 14.6207-60.9375ZM14.6207-45.9198Q16.4663-45.9198 17.7512-47.2216Q19.0361-48.5235 19.0361-50.3204Q19.0361-52.1474 17.7512-53.4248Q16.4663-54.7023 14.6207-54.7023Q12.8085-54.7023 11.5236-53.4248Q10.2386-52.1474 10.2386-50.3204Q10.2386-48.5235 11.5236-47.2216Q12.8085-45.9198 14.6207-45.9198ZM14.6207-15.8544Q16.4663-15.8544 17.7512-17.1318Q19.0361-18.4092 19.0361-20.2362Q19.0361-22.0332 17.7512-23.335Q16.4663-24.6368 14.6207-24.6368Q12.8085-24.6368 11.5236-23.335Q10.2386-22.0332 10.2386-20.2362Q10.2386-18.4092 11.5236-17.1318Q12.8085-15.8544 14.6207-15.8544ZM14.6207-0.772858Q16.4663-0.772858 17.7512-2.05777Q19.0361-3.34269 19.0361-5.1885Q19.0361-7.00048 17.7512-8.2854Q16.4663-9.57031 14.6207-9.57031Q12.8085-9.57031 11.5236-8.2854Q10.2386-7.00048 10.2386-5.1885Q10.2386-3.34269 11.5236-2.05777Q12.8085-0.772858 14.6207-0.772858ZM14.6207-30.3988Q16.6128-30.3988 18.0611-31.8302Q19.5094-33.2616 19.5094-35.2539Q19.5094-37.2462 18.0611-38.6776Q16.6128-40.109 14.6207-40.109Q12.6284-40.109 11.197-38.6776Q9.76562-37.2462 9.76562-35.2539Q9.76562-33.2616 11.197-31.8302Q12.6284-30.3988 14.6207-30.3988ZM103.611-35.2051Q103.611-36.2022 102.905-36.9087Q102.198-37.6152 101.201-37.6152L16.7628-37.6152L16.7628-32.795L101.201-32.795Q102.198-32.795 102.905-33.5014Q103.611-34.2079 103.611-35.2051ZM25.1986-42.4166L30.644-42.4166L30.644-58.8598Q30.644-61.7521 32.1616-63.2056Q33.6792-64.6591 36.4248-64.6591L90.0088-64.6591Q92.8335-64.6591 94.3039-63.2056Q95.7743-61.7521 95.7743-58.8598L95.7743-42.4166L101.201-42.4166L101.201-58.5869Q101.201-64.3305 98.2822-67.2251Q95.3634-70.1197 89.5673-70.1197L36.8324-70.1197Q31.0216-70.1197 28.1101-67.21Q25.1986-64.3003 25.1986-58.5869Z"/>
  </g>
  <g id="Thin-S" transform="matrix(1 0 0 1 802.34 696)">
   <path d="M26.4198-30.0153L23.1365-30.0153L23.1365-11.6329Q23.1365-6.50005 25.7979-3.81046Q28.4593-1.12088 33.6892-1.12088L87.8455-1.12088Q93.0412-1.12088 95.7198-3.77532Q98.3983-6.42976 98.3983-11.6329L98.3983-30.0153L95.0936-30.0153L95.0936-11.5803Q95.0936-8.02711 93.2928-6.23336Q91.4921-4.43962 87.9668-4.43962L33.5819-4.43962Q30.1758-4.43962 28.2978-6.23336Q26.4198-8.02711 26.4198-11.5803ZM13.6799-60.9375Q15.1249-60.9375 16.1396-61.9522Q17.1542-62.9668 17.1542-64.3984Q17.1542-65.8439 16.1396-66.8586Q15.1249-67.8733 13.6799-67.8733Q12.2478-67.8733 11.2331-66.8586Q10.2185-65.8439 10.2185-64.3984Q10.2185-62.9668 11.2331-61.9522Q12.2478-60.9375 13.6799-60.9375ZM13.6799-46.4001Q15.1249-46.4001 16.1396-47.4218Q17.1542-48.4434 17.1542-49.8401Q17.1542-51.3065 16.1396-52.3038Q15.1249-53.301 13.6799-53.301Q12.2478-53.301 11.2331-52.3038Q10.2185-51.3065 10.2185-49.8401Q10.2185-48.4434 11.2331-47.4218Q12.2478-46.4001 13.6799-46.4001ZM13.6799-17.2556Q15.1249-17.2556 16.1396-18.2529Q17.1542-19.2501 17.1542-20.7165Q17.1542-22.1132 16.1396-23.1349Q15.1249-24.1565 13.6799-24.1565Q12.2478-24.1565 11.2331-23.1349Q10.2185-22.1132 10.2185-20.7165Q10.2185-19.2501 11.2331-18.2529Q12.2478-17.2556 13.6799-17.2556ZM13.6799-2.63455Q15.1249-2.63455 16.1396-3.64921Q17.1542-4.66387 17.1542-6.10942Q17.1542-7.54099 16.1396-8.55565Q15.1249-9.57031 13.6799-9.57031Q12.2478-9.57031 11.2331-8.55565Q10.2185-7.54099 10.2185-6.10942Q10.2185-4.66387 11.2331-3.64921Q12.2478-2.63455 13.6799-2.63455ZM13.6799-31.3396Q15.2714-31.3396 16.4395-32.5007Q17.6077-33.6619 17.6077-35.2539Q17.6077-36.8459 16.4395-38.0071Q15.2714-39.1682 13.6799-39.1682Q12.0879-39.1682 10.9268-38.0071Q9.76562-36.8459 9.76562-35.2539Q9.76562-33.6619 10.9268-32.5007Q12.0879-31.3396 13.6799-31.3396ZM99.9275-35.2051Q99.9275-35.842 99.4814-36.2882Q99.0353-36.7343 98.3983-36.7343L15.3616-36.7343L15.3616-33.6759L98.3983-33.6759Q99.0353-33.6759 99.4814-34.122Q99.9275-34.5681 99.9275-35.2051ZM23.1365-40.3948L26.4198-40.3948L26.4198-58.7595Q26.4198-62.3128 28.2978-64.1065Q30.1758-65.9002 33.5819-65.9002L87.9668-65.9002Q91.4921-65.9002 93.2928-64.1065Q95.0936-62.3128 95.0936-58.7595L95.0936-40.3948L98.3983-40.3948L98.3983-58.707Q98.3983-63.9101 95.7198-66.5645Q93.0412-69.219 87.8455-69.219L33.6892-69.219Q28.4593-69.219 25.7979-66.5294Q23.1365-63.8398 23.1365-58.707Z"/>
  </g>
  <g id="Ultralight-S" transform="matrix(1 0 0 1 506.347 696)">
   <path d="M24.2561-31.0509L22.0802-31.0509L22.0802-11.5509Q22.0802-6.71539 24.6136-4.13857Q27.1469-1.56174 32.0793-1.56174L86.9637-1.56174Q91.8518-1.56174 94.4073-4.09317Q96.9627-6.6246 96.9627-11.5509L96.9627-31.0509L94.7449-31.0509L94.7449-11.6112Q94.7449-7.71942 92.775-5.75142Q90.8051-3.78342 86.9209-3.78342L32.1259-3.78342Q28.3813-3.78342 26.3187-5.75142Q24.2561-7.71942 24.2561-11.6112ZM13.1981-60.9375Q14.4379-60.9375 15.3141-61.8137Q16.1903-62.69 16.1903-63.9267Q16.1903-65.1672 15.3141-66.0435Q14.4379-66.9197 13.1981-66.9197Q11.9606-66.9197 11.0844-66.0435Q10.2081-65.1672 10.2081-63.9267Q10.2081-62.69 11.0844-61.8137Q11.9606-60.9375 13.1981-60.9375ZM13.1981-46.6461Q14.4379-46.6461 15.3141-47.5243Q16.1903-48.4024 16.1903-49.5941Q16.1903-50.8759 15.3141-51.7296Q14.4379-52.5833 13.1981-52.5833Q11.9606-52.5833 11.0844-51.7296Q10.2081-50.8759 10.2081-49.5941Q10.2081-48.4024 11.0844-47.5243Q11.9606-46.6461 13.1981-46.6461ZM13.1981-17.9733Q14.4379-17.9733 15.3141-18.8271Q16.1903-19.6808 16.1903-20.9625Q16.1903-22.1542 15.3141-23.0324Q14.4379-23.9105 13.1981-23.9105Q11.9606-23.9105 11.0844-23.0324Q10.2081-22.1542 10.2081-20.9625Q10.2081-19.6808 11.0844-18.8271Q11.9606-17.9733 13.1981-17.9733ZM13.1981-3.5881Q14.4379-3.5881 15.3141-4.46434Q16.1903-5.34058 16.1903-6.58112Q16.1903-7.81784 15.3141-8.69408Q14.4379-9.57031 13.1981-9.57031Q11.9606-9.57031 11.0844-8.69408Q10.2081-7.81784 10.2081-6.58112Q10.2081-5.34058 11.0844-4.46434Q11.9606-3.5881 13.1981-3.5881ZM13.1981-31.8214Q14.5844-31.8214 15.609-32.8442Q16.6336-33.8669 16.6336-35.2539Q16.6336-36.6409 15.609-37.6637Q14.5844-38.6864 13.1981-38.6864Q11.8111-38.6864 10.7883-37.6637Q9.76562-36.6409 9.76562-35.2539Q9.76562-33.8669 10.7883-32.8442Q11.8111-31.8214 13.1981-31.8214ZM98.0408-35.2051Q98.0408-35.6575 97.728-35.9703Q97.4152-36.2831 96.9627-36.2831L14.6439-36.2831L14.6439-34.127L96.9627-34.127Q97.4152-34.127 97.728-34.4398Q98.0408-34.7527 98.0408-35.2051ZM22.0802-39.3593L24.2561-39.3593L24.2561-58.7082Q24.2561-62.5999 26.3187-64.5679Q28.3813-66.5359 32.1259-66.5359L86.9209-66.5359Q90.8051-66.5359 92.775-64.5679Q94.7449-62.5999 94.7449-58.7082L94.7449-39.3593L96.9627-39.3593L96.9627-58.7685Q96.9627-63.6948 94.4073-66.2262Q91.8518-68.7576 86.9637-68.7576L32.0793-68.7576Q27.1469-68.7576 24.6136-66.1808Q22.0802-63.604 22.0802-58.7685Z"/>
  </g>
 </g>
</svg>
