<?xml version="1.0" encoding="UTF-8"?>
<!--Generator: Apple Native CoreSVG 175.5-->
<!DOCTYPE svg
PUBLIC "-//W3C//DTD SVG 1.1//EN"
       "http://www.w3.org/Graphics/SVG/1.1/DTD/svg11.dtd">
<svg version="1.1" xmlns="http://www.w3.org/2000/svg" xmlns:xlink="http://www.w3.org/1999/xlink" width="3300" height="2200">
 <!--glyph: "uni10048F.medium", point size: 100.0, font version: "18.0d9e1", template writer version: "84"-->
 <g id="Notes">
  <rect height="2200" id="artboard" style="fill:white;opacity:1" width="3300" x="0" y="0"/>
  <line style="fill:none;stroke:black;opacity:1;stroke-width:0.5;" x1="263" x2="3036" y1="292" y2="292"/>
  <text style="stroke:none;fill:black;font-family:sans-serif;font-size:13;font-weight:bold;" transform="matrix(1 0 0 1 263 322)">Weight/Scale Variations</text>
  <text style="stroke:none;fill:black;font-family:sans-serif;font-size:13;text-anchor:middle;" transform="matrix(1 0 0 1 559.711 322)">Ultralight</text>
  <text style="stroke:none;fill:black;font-family:sans-serif;font-size:13;text-anchor:middle;" transform="matrix(1 0 0 1 856.422 322)">Thin</text>
  <text style="stroke:none;fill:black;font-family:sans-serif;font-size:13;text-anchor:middle;" transform="matrix(1 0 0 1 1153.13 322)">Light</text>
  <text style="stroke:none;fill:black;font-family:sans-serif;font-size:13;text-anchor:middle;" transform="matrix(1 0 0 1 1449.84 322)">Regular</text>
  <text style="stroke:none;fill:black;font-family:sans-serif;font-size:13;text-anchor:middle;" transform="matrix(1 0 0 1 1746.56 322)">Medium</text>
  <text style="stroke:none;fill:black;font-family:sans-serif;font-size:13;text-anchor:middle;" transform="matrix(1 0 0 1 2043.27 322)">Semibold</text>
  <text style="stroke:none;fill:black;font-family:sans-serif;font-size:13;text-anchor:middle;" transform="matrix(1 0 0 1 2339.98 322)">Bold</text>
  <text style="stroke:none;fill:black;font-family:sans-serif;font-size:13;text-anchor:middle;" transform="matrix(1 0 0 1 2636.69 322)">Heavy</text>
  <text style="stroke:none;fill:black;font-family:sans-serif;font-size:13;text-anchor:middle;" transform="matrix(1 0 0 1 2933.4 322)">Black</text>
  <line style="fill:none;stroke:black;opacity:1;stroke-width:0.5;" x1="263" x2="3036" y1="1903" y2="1903"/>
  <g transform="matrix(1 0 0 1 263 1933)">
   <path d="M9.24805 0.830078Q10.8691 0.830078 12.2949 0.214844Q13.7207-0.400391 14.8096-1.49414Q15.8984-2.58789 16.5186-4.01367Q17.1387-5.43945 17.1387-7.05078Q17.1387-8.66211 16.5186-10.0879Q15.8984-11.5137 14.8047-12.6074Q13.7109-13.7012 12.2852-14.3164Q10.8594-14.9316 9.23828-14.9316Q7.62695-14.9316 6.20117-14.3164Q4.77539-13.7012 3.69141-12.6074Q2.60742-11.5137 1.9873-10.0879Q1.36719-8.66211 1.36719-7.05078Q1.36719-5.43945 1.9873-4.01367Q2.60742-2.58789 3.69629-1.49414Q4.78516-0.400391 6.21094 0.214844Q7.63672 0.830078 9.24805 0.830078ZM9.24805-0.654297Q7.91992-0.654297 6.7627-1.14746Q5.60547-1.64062 4.73145-2.51953Q3.85742-3.39844 3.36426-4.56055Q2.87109-5.72266 2.87109-7.05078Q2.87109-8.37891 3.35938-9.54102Q3.84766-10.7031 4.72168-11.582Q5.5957-12.4609 6.75293-12.9541Q7.91016-13.4473 9.23828-13.4473Q10.5762-13.4473 11.7383-12.9541Q12.9004-12.4609 13.7793-11.582Q14.6582-10.7031 15.1514-9.54102Q15.6445-8.37891 15.6445-7.05078Q15.6445-5.72266 15.1514-4.56055Q14.6582-3.39844 13.7793-2.51953Q12.9004-1.64062 11.7432-1.14746Q10.5859-0.654297 9.24805-0.654297ZM5.6543-7.05078Q5.6543-6.72852 5.85938-6.52832Q6.06445-6.32812 6.40625-6.32812L8.51562-6.32812L8.51562-4.20898Q8.51562-3.88672 8.71094-3.67676Q8.90625-3.4668 9.23828-3.4668Q9.56055-3.4668 9.77051-3.67676Q9.98047-3.88672 9.98047-4.20898L9.98047-6.32812L12.0898-6.32812Q12.4219-6.32812 12.627-6.52832Q12.832-6.72852 12.832-7.05078Q12.832-7.38281 12.627-7.58789Q12.4219-7.79297 12.0898-7.79297L9.98047-7.79297L9.98047-9.90234Q9.98047-10.2344 9.77051-10.4443Q9.56055-10.6543 9.23828-10.6543Q8.90625-10.6543 8.71094-10.4443Q8.51562-10.2344 8.51562-9.90234L8.51562-7.79297L6.40625-7.79297Q6.06445-7.79297 5.85938-7.58789Q5.6543-7.38281 5.6543-7.05078Z"/>
  </g>
  <g transform="matrix(1 0 0 1 281.867 1933)">
   <path d="M11.709 2.91016Q13.75 2.91016 15.5518 2.12891Q17.3535 1.34766 18.7305-0.0292969Q20.1074-1.40625 20.8887-3.20801Q21.6699-5.00977 21.6699-7.05078Q21.6699-9.0918 20.8887-10.8936Q20.1074-12.6953 18.7305-14.0723Q17.3535-15.4492 15.5469-16.2305Q13.7402-17.0117 11.6992-17.0117Q9.6582-17.0117 7.85645-16.2305Q6.05469-15.4492 4.68262-14.0723Q3.31055-12.6953 2.5293-10.8936Q1.74805-9.0918 1.74805-7.05078Q1.74805-5.00977 2.5293-3.20801Q3.31055-1.40625 4.6875-0.0292969Q6.06445 1.34766 7.86621 2.12891Q9.66797 2.91016 11.709 2.91016ZM11.709 1.25Q9.98047 1.25 8.47656 0.605469Q6.97266-0.0390625 5.83496-1.17676Q4.69727-2.31445 4.05762-3.81836Q3.41797-5.32227 3.41797-7.05078Q3.41797-8.7793 4.05762-10.2832Q4.69727-11.7871 5.83008-12.9297Q6.96289-14.0723 8.4668-14.7119Q9.9707-15.3516 11.6992-15.3516Q13.4277-15.3516 14.9365-14.7119Q16.4453-14.0723 17.583-12.9297Q18.7207-11.7871 19.3652-10.2832Q20.0098-8.7793 20.0098-7.05078Q20.0098-5.32227 19.3701-3.81836Q18.7305-2.31445 17.5879-1.17676Q16.4453-0.0390625 14.9414 0.605469Q13.4375 1.25 11.709 1.25ZM7.17773-7.05078Q7.17773-6.69922 7.41211-6.47461Q7.64648-6.25 8.01758-6.25L10.8887-6.25L10.8887-3.36914Q10.8887-2.99805 11.1133-2.76855Q11.3379-2.53906 11.6895-2.53906Q12.0605-2.53906 12.29-2.76855Q12.5195-2.99805 12.5195-3.36914L12.5195-6.25L15.4004-6.25Q15.7715-6.25 16.001-6.47461Q16.2305-6.69922 16.2305-7.05078Q16.2305-7.42188 16.001-7.65137Q15.7715-7.88086 15.4004-7.88086L12.5195-7.88086L12.5195-10.752Q12.5195-11.1328 12.29-11.3623Q12.0605-11.5918 11.6895-11.5918Q11.3379-11.5918 11.1133-11.3574Q10.8887-11.123 10.8887-10.752L10.8887-7.88086L8.01758-7.88086Q7.63672-7.88086 7.40723-7.65137Q7.17773-7.42188 7.17773-7.05078Z"/>
  </g>
  <g transform="matrix(1 0 0 1 305.646 1933)">
   <path d="M14.9707 5.66406Q17.0605 5.66406 18.96 5.01465Q20.8594 4.36523 22.4512 3.19336Q24.043 2.02148 25.2197 0.429688Q26.3965-1.16211 27.0459-3.06641Q27.6953-4.9707 27.6953-7.05078Q27.6953-9.14062 27.0459-11.04Q26.3965-12.9395 25.2197-14.5312Q24.043-16.123 22.4512-17.2998Q20.8594-18.4766 18.9551-19.126Q17.0508-19.7754 14.9609-19.7754Q12.8711-19.7754 10.9717-19.126Q9.07227-18.4766 7.48535-17.2998Q5.89844-16.123 4.72168-14.5312Q3.54492-12.9395 2.90039-11.04Q2.25586-9.14062 2.25586-7.05078Q2.25586-4.9707 2.90527-3.06641Q3.55469-1.16211 4.72656 0.429688Q5.89844 2.02148 7.49023 3.19336Q9.08203 4.36523 10.9814 5.01465Q12.8809 5.66406 14.9707 5.66406ZM14.9707 3.84766Q13.1641 3.84766 11.5283 3.2959Q9.89258 2.74414 8.53516 1.74805Q7.17773 0.751953 6.17676-0.610352Q5.17578-1.97266 4.62891-3.6084Q4.08203-5.24414 4.08203-7.05078Q4.08203-8.86719 4.62891-10.5029Q5.17578-12.1387 6.17188-13.501Q7.16797-14.8633 8.52539-15.8594Q9.88281-16.8555 11.5186-17.4023Q13.1543-17.9492 14.9609-17.9492Q16.7773-17.9492 18.4131-17.4023Q20.0488-16.8555 21.4111-15.8594Q22.7734-14.8633 23.7744-13.501Q24.7754-12.1387 25.3223-10.5029Q25.8691-8.86719 25.8691-7.05078Q25.8691-5.24414 25.3223-3.6084Q24.7754-1.97266 23.7793-0.610352Q22.7832 0.751953 21.4209 1.74805Q20.0586 2.74414 18.4229 3.2959Q16.7871 3.84766 14.9707 3.84766ZM9.19922-7.05078Q9.19922-6.66992 9.45801-6.4209Q9.7168-6.17188 10.1172-6.17188L14.0625-6.17188L14.0625-2.2168Q14.0625-1.81641 14.3115-1.55762Q14.5605-1.29883 14.9512-1.29883Q15.3516-1.29883 15.6104-1.55273Q15.8691-1.80664 15.8691-2.2168L15.8691-6.17188L19.8242-6.17188Q20.2246-6.17188 20.4785-6.4209Q20.7324-6.66992 20.7324-7.05078Q20.7324-7.46094 20.4785-7.71484Q20.2246-7.96875 19.8242-7.96875L15.8691-7.96875L15.8691-11.9141Q15.8691-12.3242 15.6104-12.583Q15.3516-12.8418 14.9512-12.8418Q14.5605-12.8418 14.3115-12.583Q14.0625-12.3242 14.0625-11.9141L14.0625-7.96875L10.1172-7.96875Q9.70703-7.96875 9.45312-7.71484Q9.19922-7.46094 9.19922-7.05078Z"/>
  </g>
  <text style="stroke:none;fill:black;font-family:sans-serif;font-size:13;font-weight:bold;" transform="matrix(1 0 0 1 263 1953)">Design Variations</text>
  <text style="stroke:none;fill:black;font-family:sans-serif;font-size:13;" transform="matrix(1 0 0 1 263 1971)">Symbols are supported in up to nine weights and three scales.</text>
  <text style="stroke:none;fill:black;font-family:sans-serif;font-size:13;" transform="matrix(1 0 0 1 263 1989)">For optimal layout with text and other symbols, vertically align</text>
  <text style="stroke:none;fill:black;font-family:sans-serif;font-size:13;" transform="matrix(1 0 0 1 263 2007)">symbols with the adjacent text.</text>
  <line style="fill:none;stroke:#00AEEF;stroke-width:0.5;opacity:1.0;" x1="776" x2="776" y1="1919" y2="1933"/>
  <g transform="matrix(1 0 0 1 776 1933)">
   <path d="M3.31055 0.15625Q3.70117 0.15625 3.91602-0.00976562Q4.13086-0.175781 4.26758-0.585938L5.52734-4.0332L11.2891-4.0332L12.5488-0.585938Q12.6855-0.175781 12.9004-0.00976562Q13.1152 0.15625 13.4961 0.15625Q13.8867 0.15625 14.1162-0.0585938Q14.3457-0.273438 14.3457-0.644531Q14.3457-0.869141 14.2383-1.17188L9.6582-13.3691Q9.48242-13.8184 9.17969-14.043Q8.87695-14.2676 8.4082-14.2676Q7.5-14.2676 7.17773-13.3789L2.59766-1.16211Q2.49023-0.859375 2.49023-0.634766Q2.49023-0.263672 2.70996-0.0537109Q2.92969 0.15625 3.31055 0.15625ZM6.00586-5.51758L8.37891-12.0898L8.42773-12.0898L10.8008-5.51758Z"/>
  </g>
  <line style="fill:none;stroke:#00AEEF;stroke-width:0.5;opacity:1.0;" x1="793.197" x2="793.197" y1="1919" y2="1933"/>
  <text style="stroke:none;fill:black;font-family:sans-serif;font-size:13;font-weight:bold;" transform="matrix(1 0 0 1 776 1953)">Margins</text>
  <text style="stroke:none;fill:black;font-family:sans-serif;font-size:13;" transform="matrix(1 0 0 1 776 1971)">Leading and trailing margins on the left and right side of each symbol</text>
  <text style="stroke:none;fill:black;font-family:sans-serif;font-size:13;" transform="matrix(1 0 0 1 776 1989)">can be adjusted by modifying the x-location of the margin guidelines.</text>
  <text style="stroke:none;fill:black;font-family:sans-serif;font-size:13;" transform="matrix(1 0 0 1 776 2007)">Modifications are automatically applied proportionally to all</text>
  <text style="stroke:none;fill:black;font-family:sans-serif;font-size:13;" transform="matrix(1 0 0 1 776 2025)">scales and weights.</text>
  <g transform="matrix(1 0 0 1 1289 1933)">
   <path d="M2.8418 1.86523L4.54102 3.57422Q5.18555 4.22852 5.90332 4.17969Q6.62109 4.13086 7.31445 3.35938L18.0078-8.42773L17.041-9.4043L6.42578 2.27539Q6.16211 2.57812 5.89355 2.61719Q5.625 2.65625 5.27344 2.30469L4.10156 1.14258Q3.75 0.791016 3.79395 0.522461Q3.83789 0.253906 4.14062-0.0195312L15.6152-10.8203L14.6387-11.7871L3.04688-0.898438Q2.30469-0.214844 2.25098 0.498047Q2.19727 1.21094 2.8418 1.86523ZM9.25781-16.3281Q8.94531-16.0254 8.90625-15.6348Q8.86719-15.2441 9.04297-14.9512Q9.21875-14.6777 9.55566-14.541Q9.89258-14.4043 10.3809-14.5215Q11.4746-14.7754 12.5977-14.7314Q13.7207-14.6875 14.7949-13.9844L14.209-12.5293Q13.9551-11.9043 14.0674-11.4404Q14.1797-10.9766 14.5801-10.5664L16.875-8.25195Q17.2363-7.88086 17.5781-7.82227Q17.9199-7.76367 18.3398-7.8418L19.4043-8.03711L20.0684-7.36328L20.0293-6.80664Q20-6.43555 20.1221-6.12305Q20.2441-5.81055 20.6055-5.44922L21.3672-4.70703Q21.7285-4.3457 22.1533-4.33105Q22.5781-4.31641 22.9297-4.66797L25.8398-7.58789Q26.1914-7.93945 26.1816-8.35449Q26.1719-8.76953 25.8105-9.13086L25.0391-9.89258Q24.6875-10.2539 24.3799-10.3857Q24.0723-10.5176 23.7109-10.4883L23.1348-10.4395L22.4902-11.0742L22.7344-12.1973Q22.832-12.6172 22.6953-12.9834Q22.5586-13.3496 22.1191-13.7891L19.9219-15.9766Q18.6719-17.2168 17.2607-17.8369Q15.8496-18.457 14.4189-18.4814Q12.9883-18.5059 11.665-17.959Q10.3418-17.4121 9.25781-16.3281ZM10.752-15.957Q11.6602-16.6211 12.7002-16.9043Q13.7402-17.1875 14.8047-17.085Q15.8691-16.9824 16.8701-16.5137Q17.8711-16.0449 18.7012-15.2051L21.1328-12.793Q21.3086-12.6172 21.3525-12.4512Q21.3965-12.2852 21.3379-12.0312L21.0156-10.5469L22.5195-9.0625L23.5059-9.12109Q23.6914-9.13086 23.7891-9.09668Q23.8867-9.0625 24.0332-8.91602L24.6094-8.33984L22.168-5.89844L21.5918-6.47461Q21.4453-6.62109 21.4062-6.71875Q21.3672-6.81641 21.377-7.01172L21.4453-7.98828L19.9512-9.47266L18.4277-9.21875Q18.1836-9.16992 18.042-9.2041Q17.9004-9.23828 17.7148-9.41406L15.7129-11.416Q15.5176-11.5918 15.4932-11.7529Q15.4688-11.9141 15.5859-12.1875L16.4648-14.2773Q15.293-15.3711 13.8281-15.791Q12.3633-16.2109 10.8398-15.7617Q10.7227-15.7324 10.6885-15.8057Q10.6543-15.8789 10.752-15.957Z"/>
  </g>
  <text style="stroke:none;fill:black;font-family:sans-serif;font-size:13;font-weight:bold;" transform="matrix(1 0 0 1 1289 1953)">Exporting</text>
  <text style="stroke:none;fill:black;font-family:sans-serif;font-size:13;" transform="matrix(1 0 0 1 1289 1971)">Symbols should be outlined when exporting to ensure the</text>
  <text style="stroke:none;fill:black;font-family:sans-serif;font-size:13;" transform="matrix(1 0 0 1 1289 1989)">design is preserved when submitting to Xcode.</text>
  <text id="template-version" style="stroke:none;fill:black;font-family:sans-serif;font-size:13;text-anchor:end;" transform="matrix(1 0 0 1 3036 1933)">Template v.2.0</text>
  <text style="stroke:none;fill:black;font-family:sans-serif;font-size:13;text-anchor:end;" transform="matrix(1 0 0 1 3036 1951)">Requires Xcode 12 or greater</text>
  <text id="descriptive-name" style="stroke:none;fill:black;font-family:sans-serif;font-size:13;text-anchor:end;" transform="matrix(1 0 0 1 3036 1969)">Generated from calendar.circle.fill</text>
  <text style="stroke:none;fill:black;font-family:sans-serif;font-size:13;text-anchor:end;" transform="matrix(1 0 0 1 3036 1987)">Typeset at 100 points</text>
  <text style="stroke:none;fill:black;font-family:sans-serif;font-size:13;" transform="matrix(1 0 0 1 263 726)">Small</text>
  <text style="stroke:none;fill:black;font-family:sans-serif;font-size:13;" transform="matrix(1 0 0 1 263 1156)">Medium</text>
  <text style="stroke:none;fill:black;font-family:sans-serif;font-size:13;" transform="matrix(1 0 0 1 263 1586)">Large</text>
 </g>
 <g id="Guides">
  <g id="H-reference" style="fill:#27AAE1;stroke:none;" transform="matrix(1 0 0 1 339 696)">
   <path d="M0.993347 0L3.6377 0L29.3282-67.1326L30.0301-67.1326L30.0301-70.459L28.1227-70.459ZM11.6882-24.4797L46.9818-24.4797L46.2311-26.7288L12.4382-26.7288ZM55.1193 0L57.7637 0L30.6381-70.459L29.4327-70.459L29.4327-67.1326Z"/>
  </g>
  <line id="Baseline-S" style="fill:none;stroke:#27AAE1;opacity:1;stroke-width:0.5;" x1="263" x2="3036" y1="696" y2="696"/>
  <line id="Capline-S" style="fill:none;stroke:#27AAE1;opacity:1;stroke-width:0.5;" x1="263" x2="3036" y1="625.541" y2="625.541"/>
  <g id="H-reference" style="fill:#27AAE1;stroke:none;" transform="matrix(1 0 0 1 339 1126)">
   <path d="M0.993347 0L3.6377 0L29.3282-67.1326L30.0301-67.1326L30.0301-70.459L28.1227-70.459ZM11.6882-24.4797L46.9818-24.4797L46.2311-26.7288L12.4382-26.7288ZM55.1193 0L57.7637 0L30.6381-70.459L29.4327-70.459L29.4327-67.1326Z"/>
  </g>
  <line id="Baseline-M" style="fill:none;stroke:#27AAE1;opacity:1;stroke-width:0.5;" x1="263" x2="3036" y1="1126" y2="1126"/>
  <line id="Capline-M" style="fill:none;stroke:#27AAE1;opacity:1;stroke-width:0.5;" x1="263" x2="3036" y1="1055.54" y2="1055.54"/>
  <g id="H-reference" style="fill:#27AAE1;stroke:none;" transform="matrix(1 0 0 1 339 1556)">
   <path d="M0.993347 0L3.6377 0L29.3282-67.1326L30.0301-67.1326L30.0301-70.459L28.1227-70.459ZM11.6882-24.4797L46.9818-24.4797L46.2311-26.7288L12.4382-26.7288ZM55.1193 0L57.7637 0L30.6381-70.459L29.4327-70.459L29.4327-67.1326Z"/>
  </g>
  <line id="Baseline-L" style="fill:none;stroke:#27AAE1;opacity:1;stroke-width:0.5;" x1="263" x2="3036" y1="1556" y2="1556"/>
  <line id="Capline-L" style="fill:none;stroke:#27AAE1;opacity:1;stroke-width:0.5;" x1="263" x2="3036" y1="1485.54" y2="1485.54"/>
  <line id="left-margin" style="fill:none;stroke:#00AEEF;stroke-width:0.5;opacity:1.0;" x1="1391.32" x2="1391.32" y1="1030.79" y2="1150.12"/>
  <line id="right-margin" style="fill:none;stroke:#00AEEF;stroke-width:0.5;opacity:1.0;" x1="1508.37" x2="1508.37" y1="1030.79" y2="1150.12"/>
 </g>
 <g id="Symbols">
  <g id="Black-L" transform="matrix(1 0 0 1 2854.19 1556)">
   <path d="M79.1953 32.8057Q93.2356 32.8057 105.521 27.5107Q117.806 22.2158 127.174 12.8375Q136.542 3.45916 141.848-8.82607Q147.154-21.1113 147.154-35.1309Q147.154-49.1504 141.848-61.4357Q136.542-73.7209 127.164-83.0992Q117.785-92.4775 105.5-97.7725Q93.2149-103.067 79.1746-103.067Q65.1563-103.067 52.8704-97.7725Q40.5846-92.4775 31.2276-83.0992Q21.8707-73.7209 16.5647-61.4357Q11.2588-49.1504 11.2588-35.1309Q11.2588-21.1113 16.5647-8.82607Q21.8707 3.45916 31.238 12.8375Q40.6053 22.2158 52.8912 27.5107Q65.177 32.8057 79.1953 32.8057ZM56.9342-4.1919Q51.2865-4.1919 48.1498-7.28963Q45.0132-10.3874 45.0132-16.013L45.0132-54.2487Q45.0132-59.9341 48.1498-63.002Q51.2865-66.0699 56.9342-66.0699L101.498-66.0699Q107.185-66.0699 110.291-63.0013Q113.398-59.9328 113.398-54.2487L113.398-16.013Q113.398-10.3874 110.291-7.28963Q107.185-4.1919 101.498-4.1919ZM58.1169-14.1004L100.295-14.1004Q103.43-14.1004 103.43-17.2346L103.43-44.6596Q103.43-47.7754 100.254-47.7754L58.1362-47.7754Q55.0022-47.7754 55.0022-44.6596L55.0022-17.2346Q55.0022-14.1004 58.1169-14.1004ZM73.2137-37.5456Q71.294-37.5456 71.294-39.4252L71.294-41.7014Q71.294-43.5614 73.2137-43.5614L75.4485-43.5614Q77.3111-43.5614 77.3111-41.7014L77.3111-39.4252Q77.3111-37.5456 75.4485-37.5456ZM82.9836-37.5456Q81.121-37.5456 81.121-39.4252L81.121-41.7014Q81.121-43.5614 82.9836-43.5614L85.2184-43.5614Q87.1381-43.5614 87.1381-41.7014L87.1381-39.4252Q87.1381-37.5456 85.2184-37.5456ZM92.869-37.5456Q90.8676-37.5456 90.8676-39.4252L90.8676-41.7014Q90.8676-43.5614 92.869-43.5614L95.0454-43.5614Q96.9676-43.5614 96.9676-41.7014L96.9676-39.4252Q96.9676-37.5456 95.0454-37.5456ZM63.3867-27.9586Q61.4645-27.9586 61.4645-29.7798L61.4645-31.9769Q61.4645-33.8953 63.3867-33.8953L65.5631-33.8953Q67.5438-33.8953 67.5438-31.9769L67.5438-29.7798Q67.5438-27.9586 65.5631-27.9586ZM73.2137-27.9586Q71.294-27.9586 71.294-29.7798L71.294-31.9769Q71.294-33.8953 73.2137-33.8953L75.4485-33.8953Q77.3111-33.8953 77.3111-31.9769L77.3111-29.7798Q77.3111-27.9586 75.4485-27.9586ZM82.9836-27.9586Q81.121-27.9586 81.121-29.7798L81.121-31.9769Q81.121-33.8953 82.9836-33.8953L85.2184-33.8953Q87.1381-33.8953 87.1381-31.9769L87.1381-29.7798Q87.1381-27.9586 85.2184-27.9586ZM92.869-27.9586Q90.8676-27.9586 90.8676-29.7798L90.8676-31.9769Q90.8676-33.8953 92.869-33.8953L95.0454-33.8953Q96.9676-33.8953 96.9676-31.9769L96.9676-29.7798Q96.9676-27.9586 95.0454-27.9586ZM63.3867-18.2341Q61.4645-18.2341 61.4645-20.1538L61.4645-22.4677Q61.4645-24.346 63.3867-24.346L65.5631-24.346Q67.5438-24.346 67.5438-22.4677L67.5438-20.1538Q67.5438-18.2341 65.5631-18.2341ZM73.2137-18.2341Q71.294-18.2341 71.294-20.1538L71.294-22.4677Q71.294-24.346 73.2137-24.346L75.4485-24.346Q77.3111-24.346 77.3111-22.4677L77.3111-20.1538Q77.3111-18.2341 75.4485-18.2341ZM82.9836-18.2341Q81.121-18.2341 81.121-20.1538L81.121-22.4677Q81.121-24.346 82.9836-24.346L85.2184-24.346Q87.1381-24.346 87.1381-22.4677L87.1381-20.1538Q87.1381-18.2341 85.2184-18.2341Z"/>
  </g>
  <g id="Heavy-L" transform="matrix(1 0 0 1 2558.42 1556)">
   <path d="M78.2511 31.8476Q92.088 31.8476 104.202 26.6268Q116.316 21.406 125.559 12.1482Q134.802 2.89032 140.04-9.2236Q145.279-21.3375 145.279-35.1447Q145.279-48.9518 140.04-61.0657Q134.802-73.1796 125.544-82.4375Q116.286-91.6953 104.172-96.9161Q92.0582-102.137 78.2213-102.137Q64.4202-102.137 52.3033-96.9161Q40.1863-91.6953 30.9613-82.4375Q21.7362-73.1796 16.4975-61.0657Q11.2588-48.9518 11.2588-35.1447Q11.2588-21.3375 16.4975-9.2236Q21.7362 2.89032 30.9761 12.1482Q40.2161 21.406 52.333 26.6268Q64.45 31.8476 78.2511 31.8476ZM55.6548-4.00634Q50.0745-4.00634 47.0448-7.0019Q44.0151-9.99746 44.0151-15.5419L44.0151-54.7474Q44.0151-60.3425 47.0448-63.3128Q50.0745-66.283 55.6548-66.283L100.907-66.283Q106.508-66.283 109.512-63.3097Q112.517-60.3365 112.517-54.7474L112.517-15.5419Q112.517-9.99746 109.512-7.0019Q106.508-4.00634 100.907-4.00634ZM56.4672-12.9117L100.065-12.9117Q103.561-12.9117 103.561-16.4018L103.561-45.0201Q103.561-48.5858 99.9444-48.5858L56.5577-48.5858Q53.0008-48.5858 53.0008-45.0201L53.0008-16.4018Q53.0008-12.9117 56.4672-12.9117ZM72.0489-37.7158Q70.1406-37.7158 70.1406-39.5707L70.1406-41.8968Q70.1406-43.7545 72.0489-43.7545L74.3156-43.7545Q76.1853-43.7545 76.1853-41.8968L76.1853-39.5707Q76.1853-37.7158 74.3156-37.7158ZM82.2461-37.7158Q80.3763-37.7158 80.3763-39.5707L80.3763-41.8968Q80.3763-43.7545 82.2461-43.7545L84.5127-43.7545Q86.4211-43.7545 86.4211-41.8968L86.4211-39.5707Q86.4211-37.7158 84.5127-37.7158ZM92.5265-37.7158Q90.5317-37.7158 90.5317-39.5707L90.5317-41.8968Q90.5317-43.7545 92.5265-43.7545L94.7485-43.7545Q96.6689-43.7545 96.6689-41.8968L96.6689-39.5707Q96.6689-37.7158 94.7485-37.7158ZM61.8132-27.7153Q59.8927-27.7153 59.8927-29.5255L59.8927-31.7773Q59.8927-33.6796 61.8132-33.6796L64.0352-33.6796Q66.0002-33.6796 66.0002-31.7773L66.0002-29.5255Q66.0002-27.7153 64.0352-27.7153ZM72.0489-27.7153Q70.1406-27.7153 70.1406-29.5255L70.1406-31.7773Q70.1406-33.6796 72.0489-33.6796L74.3156-33.6796Q76.1853-33.6796 76.1853-31.7773L76.1853-29.5255Q76.1853-27.7153 74.3156-27.7153ZM82.2461-27.7153Q80.3763-27.7153 80.3763-29.5255L80.3763-31.7773Q80.3763-33.6796 82.2461-33.6796L84.5127-33.6796Q86.4211-33.6796 86.4211-31.7773L86.4211-29.5255Q86.4211-27.7153 84.5127-27.7153ZM92.5265-27.7153Q90.5317-27.7153 90.5317-29.5255L90.5317-31.7773Q90.5317-33.6796 92.5265-33.6796L94.7485-33.6796Q96.6689-33.6796 96.6689-31.7773L96.6689-29.5255Q96.6689-27.7153 94.7485-27.7153ZM61.8132-17.5957Q59.8927-17.5957 59.8927-19.5041L59.8927-21.8451Q59.8927-23.694 61.8132-23.694L64.0352-23.694Q66.0002-23.694 66.0002-21.8451L66.0002-19.5041Q66.0002-17.5957 64.0352-17.5957ZM72.0489-17.5957Q70.1406-17.5957 70.1406-19.5041L70.1406-21.8451Q70.1406-23.694 72.0489-23.694L74.3156-23.694Q76.1853-23.694 76.1853-21.8451L76.1853-19.5041Q76.1853-17.5957 74.3156-17.5957ZM82.2461-17.5957Q80.3763-17.5957 80.3763-19.5041L80.3763-21.8451Q80.3763-23.694 82.2461-23.694L84.5127-23.694Q86.4211-23.694 86.4211-21.8451L86.4211-19.5041Q86.4211-17.5957 84.5127-17.5957Z"/>
  </g>
  <g id="Bold-L" transform="matrix(1 0 0 1 2262.89 1556)">
   <path d="M77.0653 30.6464Q90.6516 30.6464 102.549 25.52Q114.447 20.3937 123.533 11.2893Q132.619 2.1849 137.771-9.71291Q142.923-21.6107 142.923-35.1601Q142.923-48.7094 137.771-60.6072Q132.619-72.5051 123.515-81.6094Q114.41-90.7138 102.512-95.8402Q90.6146-100.967 77.0283-100.967Q63.4932-100.967 51.5882-95.8402Q39.6833-90.7138 30.623-81.6094Q21.5627-72.5051 16.4108-60.6072Q11.2588-48.7094 11.2588-35.1601Q11.2588-21.6107 16.4108-9.71291Q21.5627 2.1849 30.6415 11.2893Q39.7203 20.3937 51.6252 25.52Q63.5301 30.6464 77.0653 30.6464ZM54.0999-3.9369Q48.6526-3.9369 45.7655-6.79804Q42.8784-9.65917 42.8784-15.0553L42.8784-55.2649Q42.8784-60.7044 45.7655-63.5438Q48.6526-66.3833 54.0999-66.3833L100.105-66.3833Q105.558-66.3833 108.424-63.5367Q111.289-60.6902 111.289-55.2649L111.289-15.0553Q111.289-9.65917 108.424-6.79804Q105.558-3.9369 100.105-3.9369ZM54.5326-11.6049L99.6349-11.6049Q103.578-11.6049 103.578-15.5334L103.578-45.2909Q103.578-49.4407 99.3846-49.4407L54.746-49.4407Q50.6268-49.4407 50.6268-45.2909L50.6268-15.5334Q50.6268-11.6049 54.5326-11.6049ZM70.6164-37.909Q68.761-37.909 68.761-39.7046L68.761-42.0751Q68.761-43.8871 70.6164-43.8871L72.9129-43.8871Q74.7533-43.8871 74.7533-42.0751L74.7533-39.7046Q74.7533-37.909 72.9129-37.909ZM81.2916-37.909Q79.4512-37.909 79.4512-39.7046L79.4512-42.0751Q79.4512-43.8871 81.2916-43.8871L83.5881-43.8871Q85.4435-43.8871 85.4435-42.0751L85.4435-39.7046Q85.4435-37.909 83.5881-37.909ZM92.0109-37.909Q90.0609-37.909 90.0609-39.7046L90.0609-42.0751Q90.0609-43.8871 92.0109-43.8871L94.2783-43.8871Q96.1621-43.8871 96.1621-42.0751L96.1621-39.7046Q96.1621-37.909 94.2783-37.909ZM59.9263-27.4459Q58.0425-27.4459 58.0425-29.2123L58.0425-31.5166Q58.0425-33.3578 59.9263-33.3578L62.1936-33.3578Q64.1066-33.3578 64.1066-31.5166L64.1066-29.2123Q64.1066-27.4459 62.1936-27.4459ZM70.6164-27.4459Q68.761-27.4459 68.761-29.2123L68.761-31.5166Q68.761-33.3578 70.6164-33.3578L72.9129-33.3578Q74.7533-33.3578 74.7533-31.5166L74.7533-29.2123Q74.7533-27.4459 72.9129-27.4459ZM81.2916-27.4459Q79.4512-27.4459 79.4512-29.2123L79.4512-31.5166Q79.4512-33.3578 81.2916-33.3578L83.5881-33.3578Q85.4435-33.3578 85.4435-31.5166L85.4435-29.2123Q85.4435-27.4459 83.5881-27.4459ZM92.0109-27.4459Q90.0609-27.4459 90.0609-29.2123L90.0609-31.5166Q90.0609-33.3578 92.0109-33.3578L94.2783-33.3578Q96.1621-33.3578 96.1621-31.5166L96.1621-29.2123Q96.1621-27.4459 94.2783-27.4459ZM59.9263-16.8874Q58.0425-16.8874 58.0425-18.7428L58.0425-21.1055Q58.0425-22.8869 59.9263-22.8869L62.1936-22.8869Q64.1066-22.8869 64.1066-21.1055L64.1066-18.7428Q64.1066-16.8874 62.1936-16.8874ZM70.6164-16.8874Q68.761-16.8874 68.761-18.7428L68.761-21.1055Q68.761-22.8869 70.6164-22.8869L72.9129-22.8869Q74.7533-22.8869 74.7533-21.1055L74.7533-18.7428Q74.7533-16.8874 72.9129-16.8874ZM81.2916-16.8874Q79.4512-16.8874 79.4512-18.7428L79.4512-21.1055Q79.4512-22.8869 81.2916-22.8869L83.5881-22.8869Q85.4435-22.8869 85.4435-21.1055L85.4435-18.7428Q85.4435-16.8874 83.5881-16.8874Z"/>
  </g>
  <g id="Semibold-L" transform="matrix(1 0 0 1 1966.99 1556)">
   <path d="M76.2478 29.8183Q89.6614 29.8183 101.41 24.757Q113.159 19.6958 122.137 10.6972Q131.114 1.6986 136.206-10.0502Q141.299-21.7991 141.299-35.1707Q141.299-48.5423 136.206-60.2912Q131.114-72.04 122.116-81.0386Q113.117-90.0372 101.368-95.0984Q89.6194-100.16 76.2058-100.16Q62.854-100.16 51.0953-95.0984Q39.3365-90.0372 30.3898-81.0386Q21.4432-72.04 16.351-60.2912Q11.2588-48.5423 11.2588-35.1707Q11.2588-21.7991 16.351-10.0502Q21.4432 1.6986 30.4108 10.6972Q39.3785 19.6958 51.1372 24.757Q62.896 29.8183 76.2478 29.8183ZM53.028-3.88904Q47.6723-3.88904 44.8836-6.65749Q42.0948-9.42595 42.0948-14.7197L42.0948-55.6217Q42.0948-60.9539 44.8836-63.7031Q47.6723-66.4524 53.028-66.4524L99.5515-66.4524Q104.904-66.4524 107.673-63.6932Q110.443-60.934 110.443-55.6217L110.443-14.7197Q110.443-9.42595 107.673-6.65749Q104.904-3.88904 99.5515-3.88904ZM53.1989-10.704L99.3387-10.704Q103.589-10.704 103.589-14.9348L103.589-45.4776Q103.589-50.03 98.9986-50.03L53.497-50.03Q48.9901-50.03 48.9901-45.4776L48.9901-14.9348Q48.9901-10.704 53.1989-10.704ZM69.6288-38.0422Q67.81-38.0422 67.81-39.797L67.81-42.1981Q67.81-43.9784 69.6288-43.9784L71.946-43.9784Q73.7661-43.9784 73.7661-42.1981L73.7661-39.797Q73.7661-38.0422 71.946-38.0422ZM80.6335-38.0422Q78.8134-38.0422 78.8134-39.797L78.8134-42.1981Q78.8134-43.9784 80.6335-43.9784L82.9507-43.9784Q84.7695-43.9784 84.7695-42.1981L84.7695-39.797Q84.7695-38.0422 82.9507-38.0422ZM91.6555-38.0422Q89.7364-38.0422 89.7364-39.797L89.7364-42.1981Q89.7364-43.9784 91.6555-43.9784L93.9541-43.9784Q95.8126-43.9784 95.8126-42.1981L95.8126-39.797Q95.8126-38.0422 93.9541-38.0422ZM58.6254-27.2602Q56.7669-27.2602 56.7669-28.9964L56.7669-31.3369Q56.7669-33.1359 58.6254-33.1359L60.924-33.1359Q62.8011-33.1359 62.8011-31.3369L62.8011-28.9964Q62.8011-27.2602 60.924-27.2602ZM69.6288-27.2602Q67.81-27.2602 67.81-28.9964L67.81-31.3369Q67.81-33.1359 69.6288-33.1359L71.946-33.1359Q73.7661-33.1359 73.7661-31.3369L73.7661-28.9964Q73.7661-27.2602 71.946-27.2602ZM80.6335-27.2602Q78.8134-27.2602 78.8134-28.9964L78.8134-31.3369Q78.8134-33.1359 80.6335-33.1359L82.9507-33.1359Q84.7695-33.1359 84.7695-31.3369L84.7695-28.9964Q84.7695-27.2602 82.9507-27.2602ZM91.6555-27.2602Q89.7364-27.2602 89.7364-28.9964L89.7364-31.3369Q89.7364-33.1359 91.6555-33.1359L93.9541-33.1359Q95.8126-33.1359 95.8126-31.3369L95.8126-28.9964Q95.8126-27.2602 93.9541-27.2602ZM58.6254-16.3991Q56.7669-16.3991 56.7669-18.2179L56.7669-20.5956Q56.7669-22.3305 58.6254-22.3305L60.924-22.3305Q62.8011-22.3305 62.8011-20.5956L62.8011-18.2179Q62.8011-16.3991 60.924-16.3991ZM69.6288-16.3991Q67.81-16.3991 67.81-18.2179L67.81-20.5956Q67.81-22.3305 69.6288-22.3305L71.946-22.3305Q73.7661-22.3305 73.7661-20.5956L73.7661-18.2179Q73.7661-16.3991 71.946-16.3991ZM80.6335-16.3991Q78.8134-16.3991 78.8134-18.2179L78.8134-20.5956Q78.8134-22.3305 80.6335-22.3305L82.9507-22.3305Q84.7695-22.3305 84.7695-20.5956L84.7695-18.2179Q84.7695-16.3991 82.9507-16.3991Z"/>
  </g>
  <g id="Medium-L" transform="matrix(1 0 0 1 1670.9 1556)">
   <path d="M75.6279 29.1904Q88.9106 29.1904 100.546 24.1785Q112.182 19.1666 121.078 10.2482Q129.973 1.32986 135.02-10.306Q140.067-21.9419 140.067-35.1788Q140.067-48.4156 135.02-60.0515Q129.973-71.6874 121.055-80.6058Q112.137-89.5241 100.501-94.536Q88.8648-99.5479 75.5822-99.5479Q62.3695-99.5479 50.7215-94.536Q39.0736-89.5241 30.213-80.6058Q21.3525-71.6874 16.3056-60.0515Q11.2588-48.4156 11.2588-35.1788Q11.2588-21.9419 16.3056-10.306Q21.3525 1.32986 30.2359 10.2482Q39.1193 19.1666 50.7673 24.1785Q62.4152 29.1904 75.6279 29.1904ZM52.2152-3.85275Q46.9291-3.85275 44.2148-6.55093Q41.5006-9.24911 41.5006-14.4653L41.5006-55.8922Q41.5006-61.1431 44.2148-63.8239Q46.9291-66.5048 52.2152-66.5048L99.1322-66.5048Q104.407-66.5048 107.104-63.8119Q109.801-61.1189 109.801-55.8922L109.801-14.4653Q109.801-9.24911 107.104-6.55093Q104.407-3.85275 99.1322-3.85275ZM52.1876-10.0209L99.114-10.0209Q103.598-10.0209 103.598-14.4809L103.598-45.6192Q103.598-50.4768 98.706-50.4768L52.5499-50.4768Q47.7491-50.4768 47.7491-45.6192L47.7491-14.4809Q47.7491-10.0209 52.1876-10.0209ZM68.88-38.1432Q67.0889-38.1432 67.0889-39.867L67.0889-42.2913Q67.0889-44.0477 68.88-44.0477L71.2128-44.0477Q73.0175-44.0477 73.0175-42.2913L73.0175-39.867Q73.0175-38.1432 71.2128-38.1432ZM80.1346-38.1432Q78.3298-38.1432 78.3298-39.867L78.3298-42.2913Q78.3298-44.0477 80.1346-44.0477L82.4673-44.0477Q84.2585-44.0477 84.2585-42.2913L84.2585-39.867Q84.2585-38.1432 82.4673-38.1432ZM91.386-38.1432Q89.4903-38.1432 89.4903-39.867L89.4903-42.2913Q89.4903-44.0477 91.386-44.0477L93.7083-44.0477Q95.5477-44.0477 95.5477-42.2913L95.5477-39.867Q95.5477-38.1432 93.7083-38.1432ZM57.6391-27.1194Q55.7997-27.1194 55.7997-28.8327L55.7997-31.2007Q55.7997-32.9676 57.6391-32.9676L59.9613-32.9676Q61.8113-32.9676 61.8113-31.2007L61.8113-28.8327Q61.8113-27.1194 59.9613-27.1194ZM68.88-27.1194Q67.0889-27.1194 67.0889-28.8327L67.0889-31.2007Q67.0889-32.9676 68.88-32.9676L71.2128-32.9676Q73.0175-32.9676 73.0175-31.2007L73.0175-28.8327Q73.0175-27.1194 71.2128-27.1194ZM80.1346-27.1194Q78.3298-27.1194 78.3298-28.8327L78.3298-31.2007Q78.3298-32.9676 80.1346-32.9676L82.4673-32.9676Q84.2585-32.9676 84.2585-31.2007L84.2585-28.8327Q84.2585-27.1194 82.4673-27.1194ZM91.386-27.1194Q89.4903-27.1194 89.4903-28.8327L89.4903-31.2007Q89.4903-32.9676 91.386-32.9676L93.7083-32.9676Q95.5477-32.9676 95.5477-31.2007L95.5477-28.8327Q95.5477-27.1194 93.7083-27.1194ZM57.6391-16.0288Q55.7997-16.0288 55.7997-17.82L55.7997-20.209Q55.7997-21.9086 57.6391-21.9086L59.9613-21.9086Q61.8113-21.9086 61.8113-20.209L61.8113-17.82Q61.8113-16.0288 59.9613-16.0288ZM68.88-16.0288Q67.0889-16.0288 67.0889-17.82L67.0889-20.209Q67.0889-21.9086 68.88-21.9086L71.2128-21.9086Q73.0175-21.9086 73.0175-20.209L73.0175-17.82Q73.0175-16.0288 71.2128-16.0288ZM80.1346-16.0288Q78.3298-16.0288 78.3298-17.82L78.3298-20.209Q78.3298-21.9086 80.1346-21.9086L82.4673-21.9086Q84.2585-21.9086 84.2585-20.209L84.2585-17.82Q84.2585-16.0288 82.4673-16.0288Z"/>
  </g>
  <g id="Regular-L" transform="matrix(1 0 0 1 1374.99 1556)">
   <path d="M74.8194 28.3714Q87.9312 28.3714 99.4198 23.4239Q110.908 18.4764 119.697 9.66263Q128.485 0.848896 133.473-10.6396Q138.46-22.1282 138.46-35.1893Q138.46-48.2504 133.473-59.7389Q128.485-71.2275 119.671-80.0412Q110.858-88.8549 99.3691-93.8024Q87.8805-98.7499 74.7687-98.7499Q61.7374-98.7499 50.234-93.8024Q38.7306-88.8549 29.9824-80.0412Q21.2342-71.2275 16.2465-59.7389Q11.2588-48.2504 11.2588-35.1893Q11.2588-22.1282 16.2465-10.6396Q21.2342 0.848896 30.0077 9.66263Q38.7813 18.4764 50.2847 23.4239Q61.7881 28.3714 74.8194 28.3714ZM51.155-3.80541Q45.9596-3.80541 43.3426-6.41193Q40.7256-9.01846 40.7256-14.1335L40.7256-56.2451Q40.7256-61.3898 43.3426-63.9815Q45.9596-66.5732 51.155-66.5732L98.5852-66.5732Q103.76-66.5732 106.362-63.9666Q108.964-61.3601 108.964-56.2451L108.964-14.1335Q108.964-9.01846 106.362-6.41193Q103.76-3.80541 98.5852-3.80541ZM50.8685-9.12988L98.821-9.12988Q103.61-9.12988 103.61-13.8889L103.61-45.8039Q103.61-51.0597 98.3242-51.0597L51.3146-51.0597Q46.1305-51.0597 46.1305-45.8039L46.1305-13.8889Q46.1305-9.12988 50.8685-9.12988ZM67.9033-38.275Q66.1483-38.275 66.1483-39.9584L66.1483-42.4128Q66.1483-44.1381 67.9033-44.1381L70.2564-44.1381Q72.0412-44.1381 72.0412-42.4128L72.0412-39.9584Q72.0412-38.275 70.2564-38.275ZM79.4838-38.275Q77.699-38.275 77.699-39.9584L77.699-42.4128Q77.699-44.1381 79.4838-44.1381L81.8369-44.1381Q83.5919-44.1381 83.5919-42.4128L83.5919-39.9584Q83.5919-38.275 81.8369-38.275ZM91.0345-38.275Q89.1694-38.275 89.1694-39.9584L89.1694-42.4128Q89.1694-44.1381 91.0345-44.1381L93.3876-44.1381Q95.2021-44.1381 95.2021-42.4128L95.2021-39.9584Q95.2021-38.275 93.3876-38.275ZM56.3526-26.9358Q54.5381-26.9358 54.5381-28.6191L54.5381-31.0229Q54.5381-32.7482 56.3526-32.7482L58.7057-32.7482Q60.5202-32.7482 60.5202-31.0229L60.5202-28.6191Q60.5202-26.9358 58.7057-26.9358ZM67.9033-26.9358Q66.1483-26.9358 66.1483-28.6191L66.1483-31.0229Q66.1483-32.7482 67.9033-32.7482L70.2564-32.7482Q72.0412-32.7482 72.0412-31.0229L72.0412-28.6191Q72.0412-26.9358 70.2564-26.9358ZM79.4838-26.9358Q77.699-26.9358 77.699-28.6191L77.699-31.0229Q77.699-32.7482 79.4838-32.7482L81.8369-32.7482Q83.5919-32.7482 83.5919-31.0229L83.5919-28.6191Q83.5919-26.9358 81.8369-26.9358ZM91.0345-26.9358Q89.1694-26.9358 89.1694-28.6191L89.1694-31.0229Q89.1694-32.7482 91.0345-32.7482L93.3876-32.7482Q95.2021-32.7482 95.2021-31.0229L95.2021-28.6191Q95.2021-26.9358 93.3876-26.9358ZM56.3526-15.5459Q54.5381-15.5459 54.5381-17.3009L54.5381-19.7047Q54.5381-21.3583 56.3526-21.3583L58.7057-21.3583Q60.5202-21.3583 60.5202-19.7047L60.5202-17.3009Q60.5202-15.5459 58.7057-15.5459ZM67.9033-15.5459Q66.1483-15.5459 66.1483-17.3009L66.1483-19.7047Q66.1483-21.3583 67.9033-21.3583L70.2564-21.3583Q72.0412-21.3583 72.0412-19.7047L72.0412-17.3009Q72.0412-15.5459 70.2564-15.5459ZM79.4838-15.5459Q77.699-15.5459 77.699-17.3009L77.699-19.7047Q77.699-21.3583 79.4838-21.3583L81.8369-21.3583Q83.5919-21.3583 83.5919-19.7047L83.5919-17.3009Q83.5919-15.5459 81.8369-15.5459Z"/>
  </g>
  <g id="Light-L" transform="matrix(1 0 0 1 1079.2 1556)">
   <path d="M73.8959 27.4479Q86.8436 27.4479 98.1577 22.5825Q109.472 17.717 118.137 9.03671Q126.802 0.356369 131.708-10.9577Q136.614-22.2718 136.614-35.1893Q136.614-48.1067 131.708-59.4208Q126.802-70.7349 118.122-79.4153Q109.442-88.0956 98.1275-92.961Q86.8134-97.8264 73.8658-97.8264Q60.9986-97.8264 49.6594-92.961Q38.3201-88.0956 29.6951-79.4153Q21.07-70.7349 16.1644-59.4208Q11.2588-48.1067 11.2588-35.1893Q11.2588-22.2718 16.1644-10.9577Q21.07 0.356369 29.7102 9.03671Q38.3503 17.717 49.6895 22.5825Q61.0287 27.4479 73.8959 27.4479ZM50.2726-4.79046Q45.4876-4.79046 43.0347-7.25333Q40.5819-9.71621 40.5819-14.4208L40.5819-55.9578Q40.5819-60.7126 43.0347-63.1504Q45.4876-65.5881 50.2726-65.5881L97.5796-65.5881Q102.385-65.5881 104.812-63.1252Q107.24-60.6624 107.24-55.9578L107.24-14.4208Q107.24-9.71621 104.812-7.25333Q102.385-4.79046 97.5796-4.79046ZM50.2324-9.29405L97.5897-9.29405Q102.686-9.29405 102.686-14.3404L102.686-44.8599Q102.686-50.6903 96.8056-50.6903L50.9863-50.6903Q45.1659-50.6903 45.1659-44.8599L45.1659-14.3404Q45.1659-9.29405 50.2324-9.29405ZM66.9798-38.2955Q65.5121-38.2955 65.5121-39.7531L65.5121-42.1255Q65.5121-43.543 66.9798-43.543L69.2919-43.543Q70.8099-43.543 70.8099-42.1255L70.8099-39.7531Q70.8099-38.2955 69.2919-38.2955ZM78.5603-38.2955Q77.0423-38.2955 77.0423-39.7531L77.0423-42.1255Q77.0423-43.543 78.5603-43.543L80.8724-43.543Q82.3401-43.543 82.3401-42.1255L82.3401-39.7531Q82.3401-38.2955 80.8724-38.2955ZM90.0905-38.2955Q88.4921-38.2955 88.4921-39.7531L88.4921-42.1255Q88.4921-43.543 90.0905-43.543L92.4026-43.543Q93.9708-43.543 93.9708-42.1255L93.9708-39.7531Q93.9708-38.2955 92.4026-38.2955ZM55.4496-26.9563Q53.8814-26.9563 53.8814-28.4139L53.8814-30.7562Q53.8814-32.1736 55.4496-32.1736L57.7617-32.1736Q59.3299-32.1736 59.3299-30.7562L59.3299-28.4139Q59.3299-26.9563 57.7617-26.9563ZM66.9798-26.9563Q65.5121-26.9563 65.5121-28.4139L65.5121-30.7562Q65.5121-32.1736 66.9798-32.1736L69.2919-32.1736Q70.8099-32.1736 70.8099-30.7562L70.8099-28.4139Q70.8099-26.9563 69.2919-26.9563ZM78.5603-26.9563Q77.0423-26.9563 77.0423-28.4139L77.0423-30.7562Q77.0423-32.1736 78.5603-32.1736L80.8724-32.1736Q82.3401-32.1736 82.3401-30.7562L82.3401-28.4139Q82.3401-26.9563 80.8724-26.9563ZM90.0905-26.9563Q88.4921-26.9563 88.4921-28.4139L88.4921-30.7562Q88.4921-32.1736 90.0905-32.1736L92.4026-32.1736Q93.9708-32.1736 93.9708-30.7562L93.9708-28.4139Q93.9708-26.9563 92.4026-26.9563ZM55.4496-15.5869Q53.8814-15.5869 53.8814-17.0546L53.8814-19.3968Q53.8814-20.8042 55.4496-20.8042L57.7617-20.8042Q59.3299-20.8042 59.3299-19.3968L59.3299-17.0546Q59.3299-15.5869 57.7617-15.5869ZM66.9798-15.5869Q65.5121-15.5869 65.5121-17.0546L65.5121-19.3968Q65.5121-20.8042 66.9798-20.8042L69.2919-20.8042Q70.8099-20.8042 70.8099-19.3968L70.8099-17.0546Q70.8099-15.5869 69.2919-15.5869ZM78.5603-15.5869Q77.0423-15.5869 77.0423-17.0546L77.0423-19.3968Q77.0423-20.8042 78.5603-20.8042L80.8724-20.8042Q82.3401-20.8042 82.3401-19.3968L82.3401-17.0546Q82.3401-15.5869 80.8724-15.5869Z"/>
  </g>
  <g id="Thin-L" transform="matrix(1 0 0 1 783.716 1556)">
   <path d="M72.6746 26.2265Q85.405 26.2265 96.4884 21.4696Q107.572 16.7128 116.074 8.20888Q124.577-0.295038 129.374-11.3784Q134.171-22.4618 134.171-35.1893Q134.171-47.9168 129.374-59.0001Q124.577-70.0835 116.073-78.5874Q107.569-87.0914 96.4854-91.8482Q85.402-96.605 72.6715-96.605Q60.0215-96.605 48.8994-91.8482Q37.7773-87.0914 29.3151-78.5874Q20.8529-70.0835 16.0558-59.0001Q11.2588-47.9168 11.2588-35.1893Q11.2588-22.4618 16.0558-11.3784Q20.8529-0.295038 29.3166 8.20888Q37.7803 16.7128 48.9024 21.4696Q60.0245 26.2265 72.6746 26.2265ZM49.1055-6.09327Q44.8633-6.09327 42.6276-8.36615Q40.3919-10.639 40.3919-14.8008L40.3919-55.5778Q40.3919-59.8169 42.6276-62.0511Q44.8633-64.2853 49.1055-64.2853L96.2497-64.2853Q100.566-64.2853 102.763-62.0124Q104.96-59.7395 104.96-55.5778L104.96-14.8008Q104.96-10.639 102.763-8.36615Q100.566-6.09327 96.2497-6.09327ZM49.391-9.51119L95.9612-9.51119Q101.465-9.51119 101.465-14.9375L101.465-43.6113Q101.465-50.2017 94.7971-50.2017L50.552-50.2017Q43.8903-50.2017 43.8903-43.6113L43.8903-14.9375Q43.8903-9.51119 49.391-9.51119ZM65.7584-38.3226Q64.6707-38.3226 64.6707-39.4817L64.6707-41.7455Q64.6707-42.7558 65.7584-42.7558L68.0162-42.7558Q69.1813-42.7558 69.1813-41.7455L69.1813-39.4817Q69.1813-38.3226 68.0162-38.3226ZM77.3389-38.3226Q76.1738-38.3226 76.1738-39.4817L76.1738-41.7455Q76.1738-42.7558 77.3389-42.7558L79.5967-42.7558Q80.6844-42.7558 80.6844-41.7455L80.6844-39.4817Q80.6844-38.3226 79.5967-38.3226ZM88.842-38.3226Q87.5964-38.3226 87.5964-39.4817L87.5964-41.7455Q87.5964-42.7558 88.842-42.7558L91.0998-42.7558Q92.3423-42.7558 92.3423-41.7455L92.3423-39.4817Q92.3423-38.3226 91.0998-38.3226ZM54.2554-26.9834Q53.0129-26.9834 53.0129-28.1425L53.0129-30.4033Q53.0129-31.4136 54.2554-31.4136L56.5132-31.4136Q57.7557-31.4136 57.7557-30.4033L57.7557-28.1425Q57.7557-26.9834 56.5132-26.9834ZM65.7584-26.9834Q64.6707-26.9834 64.6707-28.1425L64.6707-30.4033Q64.6707-31.4136 65.7584-31.4136L68.0162-31.4136Q69.1813-31.4136 69.1813-30.4033L69.1813-28.1425Q69.1813-26.9834 68.0162-26.9834ZM77.3389-26.9834Q76.1738-26.9834 76.1738-28.1425L76.1738-30.4033Q76.1738-31.4136 77.3389-31.4136L79.5967-31.4136Q80.6844-31.4136 80.6844-30.4033L80.6844-28.1425Q80.6844-26.9834 79.5967-26.9834ZM88.842-26.9834Q87.5964-26.9834 87.5964-28.1425L87.5964-30.4033Q87.5964-31.4136 88.842-31.4136L91.0998-31.4136Q92.3423-31.4136 92.3423-30.4033L92.3423-28.1425Q92.3423-26.9834 91.0998-26.9834ZM54.2554-15.6412Q53.0129-15.6412 53.0129-16.7289L53.0129-18.9897Q53.0129-20.0714 54.2554-20.0714L56.5132-20.0714Q57.7557-20.0714 57.7557-18.9897L57.7557-16.7289Q57.7557-15.6412 56.5132-15.6412ZM65.7584-15.6412Q64.6707-15.6412 64.6707-16.7289L64.6707-18.9897Q64.6707-20.0714 65.7584-20.0714L68.0162-20.0714Q69.1813-20.0714 69.1813-18.9897L69.1813-16.7289Q69.1813-15.6412 68.0162-15.6412ZM77.3389-15.6412Q76.1738-15.6412 76.1738-16.7289L76.1738-18.9897Q76.1738-20.0714 77.3389-20.0714L79.5967-20.0714Q80.6844-20.0714 80.6844-18.9897L80.6844-16.7289Q80.6844-15.6412 79.5967-15.6412Z"/>
  </g>
  <g id="Ultralight-L" transform="matrix(1 0 0 1 487.631 1556)">
   <path d="M72.049 25.6009Q84.6682 25.6009 95.6335 20.8997Q106.599 16.1984 115.018 7.78487Q123.437-0.628686 128.178-11.5939Q132.92-22.5591 132.92-35.1893Q132.92-47.8194 128.178-58.7847Q123.437-69.7499 115.023-78.1634Q106.61-86.577 95.6443-91.2782Q84.6791-95.9795 72.0598-95.9795Q59.521-95.9795 48.5101-91.2782Q37.4993-86.577 29.1205-78.1634Q20.7417-69.7499 16.0002-58.7847Q11.2588-47.8194 11.2588-35.1893Q11.2588-22.5591 16.0002-11.5939Q20.7417-0.628686 29.115 7.78487Q37.4884 16.1984 48.4992 20.8997Q59.5101 25.6009 72.049 25.6009ZM48.5077-6.76057Q44.5436-6.76057 42.4191-8.93614Q40.2946-11.1117 40.2946-14.9954L40.2946-55.3831Q40.2946-59.3582 42.4191-61.4881Q44.5436-63.618 48.5077-63.618L95.5685-63.618Q99.6348-63.618 101.714-61.4424Q103.792-59.2669 103.792-55.3831L103.792-14.9954Q103.792-11.1117 101.714-8.93614Q99.6348-6.76057 95.5685-6.76057ZM48.96-9.6224L95.1271-9.6224Q100.839-9.6224 100.839-15.2433L100.839-42.9718Q100.839-49.9515 93.7684-49.9515L50.3296-49.9515Q43.2369-49.9515 43.2369-42.9718L43.2369-15.2433Q43.2369-9.6224 48.96-9.6224ZM65.1329-38.3365Q64.2398-38.3365 64.2398-39.3427L64.2398-41.5509Q64.2398-42.3527 65.1329-42.3527L67.3628-42.3527Q68.3472-42.3527 68.3472-41.5509L68.3472-39.3427Q68.3472-38.3365 67.3628-38.3365ZM76.7133-38.3365Q75.7289-38.3365 75.7289-39.3427L75.7289-41.5509Q75.7289-42.3527 76.7133-42.3527L78.9433-42.3527Q79.8364-42.3527 79.8364-41.5509L79.8364-39.3427Q79.8364-38.3365 78.9433-38.3365ZM88.2025-38.3365Q87.1377-38.3365 87.1377-39.3427L87.1377-41.5509Q87.1377-42.3527 88.2025-42.3527L90.4325-42.3527Q91.5082-42.3527 91.5082-41.5509L91.5082-39.3427Q91.5082-38.3365 90.4325-38.3365ZM53.6437-26.9973Q52.568-26.9973 52.568-28.0035L52.568-30.2226Q52.568-31.0244 53.6437-31.0244L55.8737-31.0244Q56.9494-31.0244 56.9494-30.2226L56.9494-28.0035Q56.9494-26.9973 55.8737-26.9973ZM65.1329-26.9973Q64.2398-26.9973 64.2398-28.0035L64.2398-30.2226Q64.2398-31.0244 65.1329-31.0244L67.3628-31.0244Q68.3472-31.0244 68.3472-30.2226L68.3472-28.0035Q68.3472-26.9973 67.3628-26.9973ZM76.7133-26.9973Q75.7289-26.9973 75.7289-28.0035L75.7289-30.2226Q75.7289-31.0244 76.7133-31.0244L78.9433-31.0244Q79.8364-31.0244 79.8364-30.2226L79.8364-28.0035Q79.8364-26.9973 78.9433-26.9973ZM88.2025-26.9973Q87.1377-26.9973 87.1377-28.0035L87.1377-30.2226Q87.1377-31.0244 88.2025-31.0244L90.4325-31.0244Q91.5082-31.0244 91.5082-30.2226L91.5082-28.0035Q91.5082-26.9973 90.4325-26.9973ZM53.6437-15.669Q52.568-15.669 52.568-16.5621L52.568-18.7812Q52.568-19.696 53.6437-19.696L55.8737-19.696Q56.9494-19.696 56.9494-18.7812L56.9494-16.5621Q56.9494-15.669 55.8737-15.669ZM65.1329-15.669Q64.2398-15.669 64.2398-16.5621L64.2398-18.7812Q64.2398-19.696 65.1329-19.696L67.3628-19.696Q68.3472-19.696 68.3472-18.7812L68.3472-16.5621Q68.3472-15.669 67.3628-15.669ZM76.7133-15.669Q75.7289-15.669 75.7289-16.5621L75.7289-18.7812Q75.7289-19.696 76.7133-19.696L78.9433-19.696Q79.8364-19.696 79.8364-18.7812L79.8364-16.5621Q79.8364-15.669 78.9433-15.669Z"/>
  </g>
  <g id="Black-M" transform="matrix(1 0 0 1 2871.36 1126)">
   <path d="M62.0423 18.1784Q73.0725 18.1784 82.714 14.0236Q92.3555 9.86885 99.704 2.51762Q107.052-4.83361 111.21-14.4751Q115.367-24.1166 115.367-35.1412Q115.367-46.1659 111.21-55.8074Q107.052-65.4489 99.7012-72.8001Q92.35-80.1513 82.7085-84.3061Q73.067-88.4609 62.0368-88.4609Q51.0119-88.4609 41.3705-84.3061Q31.7292-80.1513 24.3833-72.8001Q17.0375-65.4489 12.8801-55.8074Q8.72266-46.1659 8.72266-35.1412Q8.72266-24.1166 12.8801-14.4751Q17.0375-4.83361 24.3861 2.51762Q31.7347 9.86885 41.376 14.0236Q51.0174 18.1784 62.0423 18.1784ZM45.0893-11.4763Q40.7114-11.4763 38.2117-13.9446Q35.712-16.4129 35.712-20.7855L35.712-49.497Q35.712-53.9264 38.2117-56.3663Q40.7114-58.8062 45.0893-58.8062L79.0065-58.8062Q83.4356-58.8062 85.9069-56.3665Q88.3782-53.9267 88.3782-49.497L88.3782-20.7855Q88.3782-16.4129 85.9069-13.9446Q83.4356-11.4763 79.0065-11.4763ZM46.3572-19.9038L77.733-19.9038Q79.8939-19.9038 79.8939-22.065L79.8939-42.0977Q79.8939-44.2027 77.7321-44.2027L46.3526-44.2027Q44.2018-44.2027 44.2018-42.0977L44.2018-22.065Q44.2018-19.9038 46.3572-19.9038ZM57.5977-36.8805Q56.1396-36.8805 56.1396-38.3272L56.1396-40.0367Q56.1396-41.438 57.5977-41.438L59.2961-41.438Q60.6968-41.438 60.6968-40.0367L60.6968-38.3272Q60.6968-36.8805 59.2961-36.8805ZM64.7996-36.8805Q63.3989-36.8805 63.3989-38.3272L63.3989-40.0367Q63.3989-41.438 64.7996-41.438L66.498-41.438Q67.9561-41.438 67.9561-40.0367L67.9561-38.3272Q67.9561-36.8805 66.498-36.8805ZM72.116-36.8805Q70.5959-36.8805 70.5959-38.3272L70.5959-40.0367Q70.5959-41.438 72.116-41.438L73.7573-41.438Q75.2148-41.438 75.2148-40.0367L75.2148-38.3272Q75.2148-36.8805 73.7573-36.8805ZM50.3384-29.8084Q48.8809-29.8084 48.8809-31.1981L48.8809-32.8449Q48.8809-34.3033 50.3384-34.3033L51.9798-34.3033Q53.4943-34.3033 53.4943-32.8449L53.4943-31.1981Q53.4943-29.8084 51.9798-29.8084ZM57.5977-29.8084Q56.1396-29.8084 56.1396-31.1981L56.1396-32.8449Q56.1396-34.3033 57.5977-34.3033L59.2961-34.3033Q60.6968-34.3033 60.6968-32.8449L60.6968-31.1981Q60.6968-29.8084 59.2961-29.8084ZM64.7996-29.8084Q63.3989-29.8084 63.3989-31.1981L63.3989-32.8449Q63.3989-34.3033 64.7996-34.3033L66.498-34.3033Q67.9561-34.3033 67.9561-32.8449L67.9561-31.1981Q67.9561-29.8084 66.498-29.8084ZM72.116-29.8084Q70.5959-29.8084 70.5959-31.1981L70.5959-32.8449Q70.5959-34.3033 72.116-34.3033L73.7573-34.3033Q75.2148-34.3033 75.2148-32.8449L75.2148-31.1981Q75.2148-29.8084 73.7573-29.8084ZM50.3384-22.6166Q48.8809-22.6166 48.8809-24.0747L48.8809-25.8358Q48.8809-27.2829 50.3384-27.2829L51.9798-27.2829Q53.4943-27.2829 53.4943-25.8358L53.4943-24.0747Q53.4943-22.6166 51.9798-22.6166ZM57.5977-22.6166Q56.1396-22.6166 56.1396-24.0747L56.1396-25.8358Q56.1396-27.2829 57.5977-27.2829L59.2961-27.2829Q60.6968-27.2829 60.6968-25.8358L60.6968-24.0747Q60.6968-22.6166 59.2961-22.6166ZM64.7996-22.6166Q63.3989-22.6166 63.3989-24.0747L63.3989-25.8358Q63.3989-27.2829 64.7996-27.2829L66.498-27.2829Q67.9561-27.2829 67.9561-25.8358L67.9561-24.0747Q67.9561-22.6166 66.498-22.6166Z"/>
  </g>
  <g id="Heavy-M" transform="matrix(1 0 0 1 2575.48 1126)">
   <path d="M61.2045 17.3271Q72.0509 17.3271 81.541 13.2372Q91.0312 9.14728 98.2688 1.90151Q105.506-5.34426 109.606-14.8344Q113.705-24.3245 113.705-35.1547Q113.705-45.985 109.606-55.4751Q105.506-64.9652 98.2607-72.2109Q91.0149-79.4567 81.5248-83.5466Q72.0347-87.6365 61.1882-87.6365Q50.3604-87.6365 40.8691-83.5466Q31.3778-79.4567 24.1495-72.2109Q16.9211-64.9652 12.8219-55.4751Q8.72266-45.985 8.72266-35.1547Q8.72266-24.3245 12.8219-14.8344Q16.9211-5.34426 24.1576 1.90151Q31.394 9.14728 40.8853 13.2372Q50.3767 17.3271 61.2045 17.3271ZM43.92-11.204Q39.5702-11.204 37.1598-13.5857Q34.7495-15.9673 34.7495-20.2985L34.7495-50.011Q34.7495-54.3882 37.1598-56.7468Q39.5702-59.1054 43.92-59.1054L78.5214-59.1054Q82.901-59.1054 85.2883-56.7456Q87.6757-54.3857 87.6757-50.011L87.6757-20.2985Q87.6757-15.9673 85.2883-13.5857Q82.901-11.204 78.5214-11.204ZM44.8032-18.7266L77.622-18.7266Q80.1071-18.7266 80.1071-21.2092L80.1071-42.5372Q80.1071-45.0291 77.5691-45.0291L44.8399-45.0291Q42.3343-45.0291 42.3343-42.5372L42.3343-21.2092Q42.3343-18.7266 44.8032-18.7266ZM56.5442-37.0449Q55.0707-37.0449 55.0707-38.4884L55.0707-40.2542Q55.0707-41.6817 56.5442-41.6817L58.2776-41.6817Q59.7099-41.6817 59.7099-40.2542L59.7099-38.4884Q59.7099-37.0449 58.2776-37.0449ZM64.1638-37.0449Q62.7315-37.0449 62.7315-38.4884L62.7315-40.2542Q62.7315-41.6817 64.1638-41.6817L65.8972-41.6817Q67.3707-41.6817 67.3707-40.2542L67.3707-38.4884Q67.3707-37.0449 65.8972-37.0449ZM71.8682-37.0449Q70.33-37.0449 70.33-38.4884L70.33-40.2542Q70.33-41.6817 71.8682-41.6817L73.558-41.6817Q75.0364-41.6817 75.0364-40.2542L75.0364-38.4884Q75.0364-37.0449 73.558-37.0449ZM48.8834-29.5686Q47.405-29.5686 47.405-30.9684L47.405-32.6745Q47.405-34.1455 48.8834-34.1455L50.5732-34.1455Q52.0952-34.1455 52.0952-32.6745L52.0952-30.9684Q52.0952-29.5686 50.5732-29.5686ZM56.5442-29.5686Q55.0707-29.5686 55.0707-30.9684L55.0707-32.6745Q55.0707-34.1455 56.5442-34.1455L58.2776-34.1455Q59.7099-34.1455 59.7099-32.6745L59.7099-30.9684Q59.7099-29.5686 58.2776-29.5686ZM64.1638-29.5686Q62.7315-29.5686 62.7315-30.9684L62.7315-32.6745Q62.7315-34.1455 64.1638-34.1455L65.8972-34.1455Q67.3707-34.1455 67.3707-32.6745L67.3707-30.9684Q67.3707-29.5686 65.8972-29.5686ZM71.8682-29.5686Q70.33-29.5686 70.33-30.9684L70.33-32.6745Q70.33-34.1455 71.8682-34.1455L73.558-34.1455Q75.0364-34.1455 75.0364-32.6745L75.0364-30.9684Q75.0364-29.5686 73.558-29.5686ZM48.8834-21.9888Q47.405-21.9888 47.405-23.4623L47.405-25.2556Q47.405-26.6966 48.8834-26.6966L50.5732-26.6966Q52.0952-26.6966 52.0952-25.2556L52.0952-23.4623Q52.0952-21.9888 50.5732-21.9888ZM56.5442-21.9888Q55.0707-21.9888 55.0707-23.4623L55.0707-25.2556Q55.0707-26.6966 56.5442-26.6966L58.2776-26.6966Q59.7099-26.6966 59.7099-25.2556L59.7099-23.4623Q59.7099-21.9888 58.2776-21.9888ZM64.1638-21.9888Q62.7315-21.9888 62.7315-23.4623L62.7315-25.2556Q62.7315-26.6966 64.1638-26.6966L65.8972-26.6966Q67.3707-26.6966 67.3707-25.2556L67.3707-23.4623Q67.3707-21.9888 65.8972-21.9888Z"/>
  </g>
  <g id="Bold-M" transform="matrix(1 0 0 1 2279.69 1126)">
   <path d="M60.2672 16.3747Q70.9082 16.3747 80.2289 12.3574Q89.5497 8.34011 96.6634 1.21231Q103.777-5.9155 107.811-15.2363Q111.845-24.557 111.845-35.1698Q111.845-45.7825 107.811-55.1033Q103.777-64.4241 96.6493-71.5519Q89.5215-78.6797 80.2007-82.697Q70.8799-86.7143 60.2389-86.7143Q49.6317-86.7143 40.3082-82.697Q30.9846-78.6797 23.8878-71.5519Q16.791-64.4241 12.7568-55.1033Q8.72266-45.7825 8.72266-35.1698Q8.72266-24.557 12.7568-15.2363Q16.791-5.9155 23.902 1.21231Q31.0129 8.34011 40.3364 12.3574Q49.6599 16.3747 60.2672 16.3747ZM42.612-10.8995Q38.2936-10.8995 35.9832-13.1842Q33.6728-15.469 33.6728-19.7537L33.6728-50.5859Q33.6728-54.9047 35.9832-57.1724Q38.2936-59.4401 42.612-59.4401L77.9788-59.4401Q82.303-59.4401 84.5964-57.1696Q86.8898-54.8992 86.8898-50.5859L86.8898-19.7537Q86.8898-15.469 84.5964-13.1842Q82.303-10.8995 77.9788-10.8995ZM43.0648-17.4097L77.4977-17.4097Q80.3455-17.4097 80.3455-20.2519L80.3455-43.0288Q80.3455-45.9535 77.3867-45.9535L43.1476-45.9535Q40.2453-45.9535 40.2453-43.0288L40.2453-20.2519Q40.2453-17.4097 43.0648-17.4097ZM55.3657-37.2289Q53.875-37.2289 53.875-38.6687L53.875-40.4976Q53.875-41.9543 55.3657-41.9543L57.1382-41.9543Q58.6059-41.9543 58.6059-40.4976L58.6059-38.6687Q58.6059-37.2289 57.1382-37.2289ZM63.4526-37.2289Q61.9849-37.2289 61.9849-38.6687L61.9849-40.4976Q61.9849-41.9543 63.4526-41.9543L65.2251-41.9543Q66.7158-41.9543 66.7158-40.4976L66.7158-38.6687Q66.7158-37.2289 65.2251-37.2289ZM71.5911-37.2289Q70.0325-37.2289 70.0325-38.6687L70.0325-40.4976Q70.0325-41.9543 71.5911-41.9543L73.335-41.9543Q74.8368-41.9543 74.8368-40.4976L74.8368-38.6687Q74.8368-37.2289 73.335-37.2289ZM47.2558-29.3003Q45.754-29.3003 45.754-30.7116L45.754-32.4837Q45.754-33.969 47.2558-33.969L48.9997-33.969Q50.5301-33.969 50.5301-32.4837L50.5301-30.7116Q50.5301-29.3003 48.9997-29.3003ZM55.3657-29.3003Q53.875-29.3003 53.875-30.7116L53.875-32.4837Q53.875-33.969 55.3657-33.969L57.1382-33.969Q58.6059-33.969 58.6059-32.4837L58.6059-30.7116Q58.6059-29.3003 57.1382-29.3003ZM63.4526-29.3003Q61.9849-29.3003 61.9849-30.7116L61.9849-32.4837Q61.9849-33.969 63.4526-33.969L65.2251-33.969Q66.7158-33.969 66.7158-32.4837L66.7158-30.7116Q66.7158-29.3003 65.2251-29.3003ZM71.5911-29.3003Q70.0325-29.3003 70.0325-30.7116L70.0325-32.4837Q70.0325-33.969 71.5911-33.969L73.335-33.969Q74.8368-33.969 74.8368-32.4837L74.8368-30.7116Q74.8368-29.3003 73.335-29.3003ZM47.2558-21.2865Q45.754-21.2865 45.754-22.7772L45.754-24.6065Q45.754-26.0408 47.2558-26.0408L48.9997-26.0408Q50.5301-26.0408 50.5301-24.6065L50.5301-22.7772Q50.5301-21.2865 48.9997-21.2865ZM55.3657-21.2865Q53.875-21.2865 53.875-22.7772L53.875-24.6065Q53.875-26.0408 55.3657-26.0408L57.1382-26.0408Q58.6059-26.0408 58.6059-24.6065L58.6059-22.7772Q58.6059-21.2865 57.1382-21.2865ZM63.4526-21.2865Q61.9849-21.2865 61.9849-22.7772L61.9849-24.6065Q61.9849-26.0408 63.4526-26.0408L65.2251-26.0408Q66.7158-26.0408 66.7158-24.6065L66.7158-22.7772Q66.7158-21.2865 65.2251-21.2865Z"/>
  </g>
  <g id="Semibold-M" transform="matrix(1 0 0 1 1983.62 1126)">
   <path d="M59.621 15.7182Q70.1203 15.7182 79.3244 11.7509Q88.5284 7.78365 95.5566 0.737173Q102.585-6.30931 106.574-15.5133Q110.564-24.7174 110.564-35.1802Q110.564-45.643 106.574-54.847Q102.585-64.0511 95.5384-71.0975Q88.4919-78.144 79.2879-82.1113Q70.0838-86.0785 59.5845-86.0785Q49.1293-86.0785 39.9215-82.1113Q30.7136-78.144 23.7075-71.0975Q16.7013-64.0511 12.712-54.847Q8.72266-45.643 8.72266-35.1802Q8.72266-24.7174 12.712-15.5133Q16.7013-6.30931 23.7257 0.737173Q30.7501 7.78365 39.958 11.7509Q49.1658 15.7182 59.621 15.7182ZM41.7103-10.6895Q37.4135-10.6895 35.172-12.9074Q32.9306-15.1254 32.9306-19.3781L32.9306-50.9823Q32.9306-55.2608 35.172-57.4658Q37.4135-59.6709 41.7103-59.6709L77.6047-59.6709Q81.8908-59.6709 84.1194-57.462Q86.348-55.2531 86.348-50.9823L86.348-19.3781Q86.348-15.1254 84.1194-12.9074Q81.8908-10.6895 77.6047-10.6895ZM41.8664-16.5018L77.4121-16.5018Q80.5099-16.5018 80.5099-19.5919L80.5099-43.3677Q80.5099-46.5908 77.261-46.5908L41.981-46.5908Q38.8052-46.5908 38.8052-43.3677L38.8052-19.5919Q38.8052-16.5018 41.8664-16.5018ZM54.5533-37.3557Q53.0507-37.3557 53.0507-38.7929L53.0507-40.6653Q53.0507-42.1422 54.5533-42.1422L56.3527-42.1422Q57.8448-42.1422 57.8448-40.6653L57.8448-38.7929Q57.8448-37.3557 56.3527-37.3557ZM62.9623-37.3557Q61.4702-37.3557 61.4702-38.7929L61.4702-40.6653Q61.4702-42.1422 62.9623-42.1422L64.7617-42.1422Q66.2644-42.1422 66.2644-40.6653L66.2644-38.7929Q66.2644-37.3557 64.7617-37.3557ZM71.4-37.3557Q69.8274-37.3557 69.8274-38.7929L69.8274-40.6653Q69.8274-42.1422 71.4-42.1422L73.1813-42.1422Q74.6992-42.1422 74.6992-40.6653L74.6992-38.7929Q74.6992-37.3557 73.1813-37.3557ZM46.1338-29.1154Q44.6159-29.1154 44.6159-30.5345L44.6159-32.3523Q44.6159-33.8472 46.1338-33.8472L47.915-33.8472Q49.4511-33.8472 49.4511-32.3523L49.4511-30.5345Q49.4511-29.1154 47.915-29.1154ZM54.5533-29.1154Q53.0507-29.1154 53.0507-30.5345L53.0507-32.3523Q53.0507-33.8472 54.5533-33.8472L56.3527-33.8472Q57.8448-33.8472 57.8448-32.3523L57.8448-30.5345Q57.8448-29.1154 56.3527-29.1154ZM62.9623-29.1154Q61.4702-29.1154 61.4702-30.5345L61.4702-32.3523Q61.4702-33.8472 62.9623-33.8472L64.7617-33.8472Q66.2644-33.8472 66.2644-32.3523L66.2644-30.5345Q66.2644-29.1154 64.7617-29.1154ZM71.4-29.1154Q69.8274-29.1154 69.8274-30.5345L69.8274-32.3523Q69.8274-33.8472 71.4-33.8472L73.1813-33.8472Q74.6992-33.8472 74.6992-32.3523L74.6992-30.5345Q74.6992-29.1154 73.1813-29.1154ZM46.1338-20.8023Q44.6159-20.8023 44.6159-22.305L44.6159-24.159Q44.6159-25.5886 46.1338-25.5886L47.915-25.5886Q49.4511-25.5886 49.4511-24.159L49.4511-22.305Q49.4511-20.8023 47.915-20.8023ZM54.5533-20.8023Q53.0507-20.8023 53.0507-22.305L53.0507-24.159Q53.0507-25.5886 54.5533-25.5886L56.3527-25.5886Q57.8448-25.5886 57.8448-24.159L57.8448-22.305Q57.8448-20.8023 56.3527-20.8023ZM62.9623-20.8023Q61.4702-20.8023 61.4702-22.305L61.4702-24.159Q61.4702-25.5886 62.9623-25.5886L64.7617-25.5886Q66.2644-25.5886 66.2644-24.159L66.2644-22.305Q66.2644-20.8023 64.7617-20.8023Z"/>
  </g>
  <g id="Medium-M" transform="matrix(1 0 0 1 1687.4 1126)">
   <path d="M59.1311 15.2203Q69.523 15.2203 78.6385 11.291Q87.754 7.36172 94.7174 0.376908Q101.681-6.60791 105.636-15.7234Q109.591-24.8389 109.591-35.1881Q109.591-45.5372 105.636-54.6527Q101.681-63.7682 94.696-70.753Q87.7112-77.7378 78.5957-81.6672Q69.4802-85.5965 59.0883-85.5965Q48.7484-85.5965 39.6283-81.6672Q30.5081-77.7378 23.5707-70.753Q16.6333-63.7682 12.678-54.6527Q8.72266-45.5372 8.72266-35.1881Q8.72266-24.8389 12.678-15.7234Q16.6333-6.60791 23.5921 0.376908Q30.5509 7.36172 39.671 11.291Q48.7912 15.2203 59.1311 15.2203ZM41.0266-10.5303Q36.7462-10.5303 34.557-12.6976Q32.3678-14.8649 32.3678-19.0933L32.3678-51.2828Q32.3678-55.5308 34.557-57.6883Q36.7462-59.8459 41.0266-59.8459L77.3211-59.8459Q81.5782-59.8459 83.7577-57.6837Q85.9371-55.5215 85.9371-51.2828L85.9371-19.0933Q85.9371-14.8649 83.7577-12.6976Q81.5782-10.5303 77.3211-10.5303ZM40.9578-15.8134L77.3472-15.8134Q80.6345-15.8134 80.6345-19.0915L80.6345-43.6247Q80.6345-47.074 77.1656-47.074L41.0965-47.074Q37.7132-47.074 37.7132-43.6247L37.7132-19.0915Q37.7132-15.8134 40.9578-15.8134ZM53.9373-37.4518Q52.4257-37.4518 52.4257-38.8872L52.4257-40.7925Q52.4257-42.2847 53.9373-42.2847L55.7571-42.2847Q57.2677-42.2847 57.2677-40.7925L57.2677-38.8872Q57.2677-37.4518 55.7571-37.4518ZM62.5906-37.4518Q61.08-37.4518 61.08-38.8872L61.08-40.7925Q61.08-42.2847 62.5906-42.2847L64.4104-42.2847Q65.922-42.2847 65.922-40.7925L65.922-38.8872Q65.922-37.4518 64.4104-37.4518ZM71.2552-37.4518Q69.672-37.4518 69.672-38.8872L69.672-40.7925Q69.672-42.2847 71.2552-42.2847L73.0647-42.2847Q74.5948-42.2847 74.5948-40.7925L74.5948-38.8872Q74.5948-37.4518 73.0647-37.4518ZM45.283-28.9752Q43.7529-28.9752 43.7529-30.4003L43.7529-32.2526Q43.7529-33.755 45.283-33.755L47.0925-33.755Q48.6329-33.755 48.6329-32.2526L48.6329-30.4003Q48.6329-28.9752 47.0925-28.9752ZM53.9373-28.9752Q52.4257-28.9752 52.4257-30.4003L52.4257-32.2526Q52.4257-33.755 53.9373-33.755L55.7571-33.755Q57.2677-33.755 57.2677-32.2526L57.2677-30.4003Q57.2677-28.9752 55.7571-28.9752ZM62.5906-28.9752Q61.08-28.9752 61.08-30.4003L61.08-32.2526Q61.08-33.755 62.5906-33.755L64.4104-33.755Q65.922-33.755 65.922-32.2526L65.922-30.4003Q65.922-28.9752 64.4104-28.9752ZM71.2552-28.9752Q69.672-28.9752 69.672-30.4003L69.672-32.2526Q69.672-33.755 71.2552-33.755L73.0647-33.755Q74.5948-33.755 74.5948-32.2526L74.5948-30.4003Q74.5948-28.9752 73.0647-28.9752ZM45.283-20.4352Q43.7529-20.4352 43.7529-21.9469L43.7529-23.8197Q43.7529-25.2458 45.283-25.2458L47.0925-25.2458Q48.6329-25.2458 48.6329-23.8197L48.6329-21.9469Q48.6329-20.4352 47.0925-20.4352ZM53.9373-20.4352Q52.4257-20.4352 52.4257-21.9469L52.4257-23.8197Q52.4257-25.2458 53.9373-25.2458L55.7571-25.2458Q57.2677-25.2458 57.2677-23.8197L57.2677-21.9469Q57.2677-20.4352 55.7571-20.4352ZM62.5906-20.4352Q61.08-20.4352 61.08-21.9469L61.08-23.8197Q61.08-25.2458 62.5906-25.2458L64.4104-25.2458Q65.922-25.2458 65.922-23.8197L65.922-21.9469Q65.922-20.4352 64.4104-20.4352Z"/>
  </g>
  <g id="Regular-M" transform="matrix(1 0 0 1 1391.32 1126)">
   <path d="M58.492 14.571Q68.7438 14.571 77.7439 10.6912Q86.7439 6.81138 93.6228-0.093004Q100.502-6.99738 104.413-15.9974Q108.324-24.9975 108.324-35.1983Q108.324-45.3992 104.413-54.3992Q100.502-63.3993 93.5973-70.3037Q86.693-77.2081 77.6929-81.0879Q68.6929-84.9677 58.441-84.9677Q48.2515-84.9677 39.2458-81.0879Q30.2401-77.2081 23.3923-70.3037Q16.5446-63.3993 12.6336-54.3992Q8.72266-45.3992 8.72266-35.1983Q8.72266-24.9975 12.6336-15.9974Q16.5446-6.99738 23.4178-0.093004Q30.291 6.81138 39.2968 10.6912Q48.3025 14.571 58.492 14.571ZM40.1348-10.3226Q35.8758-10.3226 33.7547-12.4238Q31.6337-14.5251 31.6337-18.7218L31.6337-51.6749Q31.6337-55.8829 33.7547-57.9785Q35.8758-60.0741 40.1348-60.0741L76.9511-60.0741Q81.1705-60.0741 83.2859-57.9728Q85.4013-55.8716 85.4013-51.6749L85.4013-18.7218Q85.4013-14.5251 83.2859-12.4238Q81.1705-10.3226 76.9511-10.3226ZM39.7725-14.9155L77.2624-14.9155Q80.7971-14.9155 80.7971-18.4388L80.7971-43.9599Q80.7971-47.7043 77.0413-47.7043L39.9427-47.7043Q36.2888-47.7043 36.2888-43.9599L36.2888-18.4388Q36.2888-14.9155 39.7725-14.9155ZM53.1338-37.5773Q51.6104-37.5773 51.6104-39.0101L51.6104-40.9585Q51.6104-42.4705 53.1338-42.4705L54.9802-42.4705Q56.515-42.4705 56.515-40.9585L56.515-39.0101Q56.515-37.5773 54.9802-37.5773ZM62.1057-37.5773Q60.5709-37.5773 60.5709-39.0101L60.5709-40.9585Q60.5709-42.4705 62.1057-42.4705L63.9521-42.4705Q65.4755-42.4705 65.4755-40.9585L65.4755-39.0101Q65.4755-37.5773 63.9521-37.5773ZM71.0662-37.5773Q69.4692-37.5773 69.4692-39.0101L69.4692-40.9585Q69.4692-42.4705 71.0662-42.4705L72.9127-42.4705Q74.4587-42.4705 74.4587-40.9585L74.4587-39.0101Q74.4587-37.5773 72.9127-37.5773ZM44.1733-28.7923Q42.6272-28.7923 42.6272-30.2251L42.6272-32.1225Q42.6272-33.6346 44.1733-33.6346L46.0197-33.6346Q47.5658-33.6346 47.5658-32.1225L47.5658-30.2251Q47.5658-28.7923 46.0197-28.7923ZM53.1338-28.7923Q51.6104-28.7923 51.6104-30.2251L51.6104-32.1225Q51.6104-33.6346 53.1338-33.6346L54.9802-33.6346Q56.515-33.6346 56.515-32.1225L56.515-30.2251Q56.515-28.7923 54.9802-28.7923ZM62.1057-28.7923Q60.5709-28.7923 60.5709-30.2251L60.5709-32.1225Q60.5709-33.6346 62.1057-33.6346L63.9521-33.6346Q65.4755-33.6346 65.4755-32.1225L65.4755-30.2251Q65.4755-28.7923 63.9521-28.7923ZM71.0662-28.7923Q69.4692-28.7923 69.4692-30.2251L69.4692-32.1225Q69.4692-33.6346 71.0662-33.6346L72.9127-33.6346Q74.4587-33.6346 74.4587-32.1225L74.4587-30.2251Q74.4587-28.7923 72.9127-28.7923ZM44.1733-19.9564Q42.6272-19.9564 42.6272-21.4798L42.6272-23.3772Q42.6272-24.7987 44.1733-24.7987L46.0197-24.7987Q47.5658-24.7987 47.5658-23.3772L47.5658-21.4798Q47.5658-19.9564 46.0197-19.9564ZM53.1338-19.9564Q51.6104-19.9564 51.6104-21.4798L51.6104-23.3772Q51.6104-24.7987 53.1338-24.7987L54.9802-24.7987Q56.515-24.7987 56.515-23.3772L56.515-21.4798Q56.515-19.9564 54.9802-19.9564ZM62.1057-19.9564Q60.5709-19.9564 60.5709-21.4798L60.5709-23.3772Q60.5709-24.7987 62.1057-24.7987L63.9521-24.7987Q65.4755-24.7987 65.4755-23.3772L65.4755-21.4798Q65.4755-19.9564 63.9521-19.9564Z"/>
  </g>
  <g id="Light-M" transform="matrix(1 0 0 1 1095.44 1126)">
   <path d="M57.664 13.743Q67.7687 13.743 76.6123 9.93683Q85.456 6.13061 92.2245-0.654174Q98.993-7.43896 102.83-16.2826Q106.668-25.1263 106.668-35.1983Q106.668-45.2704 102.83-54.1141Q98.993-62.9577 92.2082-69.7425Q85.4234-76.5273 76.5798-80.3335Q67.7361-84.1397 57.6315-84.1397Q47.5892-84.1397 38.7306-80.3335Q29.8721-76.5273 23.1348-69.7425Q16.3974-62.9577 12.56-54.1141Q8.72266-45.2704 8.72266-35.1983Q8.72266-25.1263 12.56-16.2826Q16.3974-7.43896 23.151-0.654174Q29.9047 6.13061 38.7632 9.93683Q47.6217 13.743 57.664 13.743ZM39.3437-11.2058Q35.4526-11.2058 33.4787-13.1782Q31.5049-15.1507 31.5049-18.9794L31.5049-51.4173Q31.5049-55.2758 33.4787-57.2333Q35.4526-59.1909 39.3437-59.1909L76.0496-59.1909Q79.9378-59.1909 81.8968-57.2185Q83.8558-55.246 83.8558-51.4173L83.8558-18.9794Q83.8558-15.1507 81.8968-13.1782Q79.9378-11.2058 76.0496-11.2058ZM39.2021-15.0627L76.1585-15.0627Q79.9691-15.0627 79.9691-18.8435L79.9691-43.1135Q79.9691-47.3731 75.6798-47.3731L39.6483-47.3731Q35.4241-47.3731 35.4241-43.1135L35.4241-18.8435Q35.4241-15.0627 39.2021-15.0627ZM52.3058-37.5957Q51.04-37.5957 51.04-38.8261L51.04-40.7009Q51.04-41.9369 52.3058-41.9369L54.1155-41.9369Q55.411-41.9369 55.411-40.7009L55.411-38.8261Q55.411-37.5957 54.1155-37.5957ZM61.2777-37.5957Q59.9822-37.5957 59.9822-38.8261L59.9822-40.7009Q59.9822-41.9369 61.2777-41.9369L63.0874-41.9369Q64.3532-41.9369 64.3532-40.7009L64.3532-38.8261Q64.3532-37.5957 63.0874-37.5957ZM70.2198-37.5957Q68.862-37.5957 68.862-38.8261L68.862-40.7009Q68.862-41.9369 70.2198-41.9369L72.0295-41.9369Q73.3548-41.9369 73.3548-40.7009L73.3548-38.8261Q73.3548-37.5957 72.0295-37.5957ZM43.3637-28.8107Q42.0384-28.8107 42.0384-30.0411L42.0384-31.8833Q42.0384-33.1194 43.3637-33.1194L45.1734-33.1194Q46.4987-33.1194 46.4987-31.8833L46.4987-30.0411Q46.4987-28.8107 45.1734-28.8107ZM52.3058-28.8107Q51.04-28.8107 51.04-30.0411L51.04-31.8833Q51.04-33.1194 52.3058-33.1194L54.1155-33.1194Q55.411-33.1194 55.411-31.8833L55.411-30.0411Q55.411-28.8107 54.1155-28.8107ZM61.2777-28.8107Q59.9822-28.8107 59.9822-30.0411L59.9822-31.8833Q59.9822-33.1194 61.2777-33.1194L63.0874-33.1194Q64.3532-33.1194 64.3532-31.8833L64.3532-30.0411Q64.3532-28.8107 63.0874-28.8107ZM70.2198-28.8107Q68.862-28.8107 68.862-30.0411L68.862-31.8833Q68.862-33.1194 70.2198-33.1194L72.0295-33.1194Q73.3548-33.1194 73.3548-31.8833L73.3548-30.0411Q73.3548-28.8107 72.0295-28.8107ZM43.3637-19.9932Q42.0384-19.9932 42.0384-21.259L42.0384-23.1012Q42.0384-24.3019 43.3637-24.3019L45.1734-24.3019Q46.4987-24.3019 46.4987-23.1012L46.4987-21.259Q46.4987-19.9932 45.1734-19.9932ZM52.3058-19.9932Q51.04-19.9932 51.04-21.259L51.04-23.1012Q51.04-24.3019 52.3058-24.3019L54.1155-24.3019Q55.411-24.3019 55.411-23.1012L55.411-21.259Q55.411-19.9932 54.1155-19.9932ZM61.2777-19.9932Q59.9822-19.9932 59.9822-21.259L59.9822-23.1012Q59.9822-24.3019 61.2777-24.3019L63.0874-24.3019Q64.3532-24.3019 64.3532-23.1012L64.3532-21.259Q64.3532-19.9932 63.0874-19.9932Z"/>
  </g>
  <g id="Thin-M" transform="matrix(1 0 0 1 799.828 1126)">
   <path d="M56.569 12.648Q66.479 12.648 75.1158 8.93913Q83.7526 5.23025 90.3751-1.39637Q96.9976-8.02298 100.738-16.6598Q104.478-25.2966 104.478-35.1983Q104.478-45.1001 100.738-53.7369Q96.9976-62.3737 90.371-69.0003Q83.7444-75.6269 75.1076-79.3358Q66.4707-83.0447 56.5608-83.0447Q46.7131-83.0447 38.0493-79.3358Q29.3854-75.6269 22.7941-69.0003Q16.2027-62.3737 12.4627-53.7369Q8.72266-45.1001 8.72266-35.1983Q8.72266-25.2966 12.4627-16.6598Q16.2027-8.02298 22.7982-1.39637Q29.3936 5.23025 38.0575 8.93913Q46.7214 12.648 56.569 12.648ZM38.2973-12.3738Q34.8929-12.3738 33.1137-14.1759Q31.3345-15.978 31.3345-19.3201L31.3345-51.0766Q31.3345-54.4727 33.1137-56.2478Q34.8929-58.0229 38.2973-58.0229L74.8572-58.0229Q78.3074-58.0229 80.0596-56.2208Q81.8117-54.4187 81.8117-51.0766L81.8117-19.3201Q81.8117-15.978 80.0596-14.1759Q78.3074-12.3738 74.8572-12.3738ZM38.4478-15.2573L74.6985-15.2573Q78.8741-15.2573 78.8741-19.3789L78.8741-41.9941Q78.8741-46.9351 73.8791-46.9351L39.259-46.9351Q34.2804-46.9351 34.2804-41.9941L34.2804-19.3789Q34.2804-15.2573 38.4478-15.2573ZM51.2108-37.62Q50.2857-37.62 50.2857-38.5828L50.2857-40.3602Q50.2857-41.2312 51.2108-41.2312L52.9718-41.2312Q53.951-41.2312 53.951-40.3602L53.951-38.5828Q53.951-37.62 52.9718-37.62ZM60.1827-37.62Q59.2035-37.62 59.2035-38.5828L59.2035-40.3602Q59.2035-41.2312 60.1827-41.2312L61.9437-41.2312Q62.8688-41.2312 62.8688-40.3602L62.8688-38.5828Q62.8688-37.62 61.9437-37.62ZM69.1005-37.62Q68.059-37.62 68.059-38.5828L68.059-40.3602Q68.059-41.2312 69.1005-41.2312L70.8615-41.2312Q71.8947-41.2312 71.8947-40.3602L71.8947-38.5828Q71.8947-37.62 70.8615-37.62ZM42.293-28.835Q41.2597-28.835 41.2597-29.7978L41.2597-31.567Q41.2597-32.438 42.293-32.438L44.054-32.438Q45.0873-32.438 45.0873-31.567L45.0873-29.7978Q45.0873-28.835 44.054-28.835ZM51.2108-28.835Q50.2857-28.835 50.2857-29.7978L50.2857-31.567Q50.2857-32.438 51.2108-32.438L52.9718-32.438Q53.951-32.438 53.951-31.567L53.951-29.7978Q53.951-28.835 52.9718-28.835ZM60.1827-28.835Q59.2035-28.835 59.2035-29.7978L59.2035-31.567Q59.2035-32.438 60.1827-32.438L61.9437-32.438Q62.8688-32.438 62.8688-31.567L62.8688-29.7978Q62.8688-28.835 61.9437-28.835ZM69.1005-28.835Q68.059-28.835 68.059-29.7978L68.059-31.567Q68.059-32.438 69.1005-32.438L70.8615-32.438Q71.8947-32.438 71.8947-31.567L71.8947-29.7978Q71.8947-28.835 70.8615-28.835ZM42.293-20.0418Q41.2597-20.0418 41.2597-20.967L41.2597-22.7362Q41.2597-23.6449 42.293-23.6449L44.054-23.6449Q45.0873-23.6449 45.0873-22.7362L45.0873-20.967Q45.0873-20.0418 44.054-20.0418ZM51.2108-20.0418Q50.2857-20.0418 50.2857-20.967L50.2857-22.7362Q50.2857-23.6449 51.2108-23.6449L52.9718-23.6449Q53.951-23.6449 53.951-22.7362L53.951-20.967Q53.951-20.0418 52.9718-20.0418ZM60.1827-20.0418Q59.2035-20.0418 59.2035-20.967L59.2035-22.7362Q59.2035-23.6449 60.1827-23.6449L61.9437-23.6449Q62.8688-23.6449 62.8688-22.7362L62.8688-20.967Q62.8688-20.0418 61.9437-20.0418Z"/>
  </g>
  <g id="Ultralight-M" transform="matrix(1 0 0 1 503.679 1126)">
   <path d="M56.0081 12.0871Q65.8184 12.0871 74.3492 8.42811Q82.8801 4.76909 89.4278-1.77651Q95.9756-8.32211 99.6657-16.853Q103.356-25.3839 103.356-35.1983Q103.356-45.0128 99.6657-53.5437Q95.9756-62.0746 89.43-68.6202Q82.8844-75.1658 74.3535-78.8248Q65.8226-82.4838 56.0124-82.4838Q46.2644-82.4838 37.7003-78.8248Q29.1361-75.1658 22.6196-68.6202Q16.103-62.0746 12.4128-53.5437Q8.72266-45.0128 8.72266-35.1983Q8.72266-25.3839 12.4128-16.853Q16.103-8.32211 22.6175-1.77651Q29.1319 4.76909 37.6961 8.42811Q46.2602 12.0871 56.0081 12.0871ZM37.7613-12.9721Q34.6062-12.9721 32.9268-14.6869Q31.2473-16.4018 31.2473-19.4946L31.2473-50.9021Q31.2473-54.0614 32.9268-55.743Q34.6062-57.4246 37.7613-57.4246L74.2465-57.4246Q77.4723-57.4246 79.1185-55.7098Q80.7647-53.9949 80.7647-50.9021L80.7647-19.4946Q80.7647-16.4018 79.1185-14.6869Q77.4723-12.9721 74.2465-12.9721ZM38.0614-15.357L73.9506-15.357Q78.3132-15.357 78.3132-19.6531L78.3132-41.4208Q78.3132-46.7107 72.9567-46.7107L39.0595-46.7107Q33.6946-46.7107 33.6946-41.4208L33.6946-19.6531Q33.6946-15.357 38.0614-15.357ZM50.6499-37.6325Q49.8993-37.6325 49.8993-38.4581L49.8993-40.1857Q49.8993-40.8698 50.6499-40.8698L52.386-40.8698Q53.2032-40.8698 53.2032-40.1857L53.2032-38.4581Q53.2032-37.6325 52.386-37.6325ZM59.6218-37.6325Q58.8046-37.6325 58.8046-38.4581L58.8046-40.1857Q58.8046-40.8698 59.6218-40.8698L61.3579-40.8698Q62.1085-40.8698 62.1085-40.1857L62.1085-38.4581Q62.1085-37.6325 61.3579-37.6325ZM68.5271-37.6325Q67.6477-37.6325 67.6477-38.4581L67.6477-40.1857Q67.6477-40.8698 68.5271-40.8698L70.2632-40.8698Q71.1469-40.8698 71.1469-40.1857L71.1469-38.4581Q71.1469-37.6325 70.2632-37.6325ZM41.7446-28.8475Q40.8609-28.8475 40.8609-29.6732L40.8609-31.405Q40.8609-32.0891 41.7446-32.0891L43.4807-32.0891Q44.3644-32.0891 44.3644-31.405L44.3644-29.6732Q44.3644-28.8475 43.4807-28.8475ZM50.6499-28.8475Q49.8993-28.8475 49.8993-29.6732L49.8993-31.405Q49.8993-32.0891 50.6499-32.0891L52.386-32.0891Q53.2032-32.0891 53.2032-31.405L53.2032-29.6732Q53.2032-28.8475 52.386-28.8475ZM59.6218-28.8475Q58.8046-28.8475 58.8046-29.6732L58.8046-31.405Q58.8046-32.0891 59.6218-32.0891L61.3579-32.0891Q62.1085-32.0891 62.1085-31.405L62.1085-29.6732Q62.1085-28.8475 61.3579-28.8475ZM68.5271-28.8475Q67.6477-28.8475 67.6477-29.6732L67.6477-31.405Q67.6477-32.0891 68.5271-32.0891L70.2632-32.0891Q71.1469-32.0891 71.1469-31.405L71.1469-29.6732Q71.1469-28.8475 70.2632-28.8475ZM41.7446-20.0668Q40.8609-20.0668 40.8609-20.8174L40.8609-22.5492Q40.8609-23.3083 41.7446-23.3083L43.4807-23.3083Q44.3644-23.3083 44.3644-22.5492L44.3644-20.8174Q44.3644-20.0668 43.4807-20.0668ZM50.6499-20.0668Q49.8993-20.0668 49.8993-20.8174L49.8993-22.5492Q49.8993-23.3083 50.6499-23.3083L52.386-23.3083Q53.2032-23.3083 53.2032-22.5492L53.2032-20.8174Q53.2032-20.0668 52.386-20.0668ZM59.6218-20.0668Q58.8046-20.0668 58.8046-20.8174L58.8046-22.5492Q58.8046-23.3083 59.6218-23.3083L61.3579-23.3083Q62.1085-23.3083 62.1085-22.5492L62.1085-20.8174Q62.1085-20.0668 61.3579-20.0668Z"/>
  </g>
  <g id="Black-S" transform="matrix(1 0 0 1 2884.57 696)">
   <path d="M48.8281 6.83594Q57.5195 6.83594 65.1123 3.56445Q72.7051 0.292969 78.4912-5.49316Q84.2773-11.2793 87.5488-18.8721Q90.8203-26.4648 90.8203-35.1562Q90.8203-43.8477 87.5488-51.4404Q84.2773-59.0332 78.4912-64.8193Q72.7051-70.6055 65.1123-73.877Q57.5195-77.1484 48.8281-77.1484Q40.1367-77.1484 32.5439-73.877Q24.9512-70.6055 19.165-64.8193Q13.3789-59.0332 10.1074-51.4404Q6.83594-43.8477 6.83594-35.1562Q6.83594-26.4648 10.1074-18.8721Q13.3789-11.2793 19.165-5.49316Q24.9512 0.292969 32.5439 3.56445Q40.1367 6.83594 48.8281 6.83594ZM35.6445-16.748Q32.2266-16.748 30.249-18.7012Q28.2715-20.6543 28.2715-24.0723L28.2715-46.2402Q28.2715-49.707 30.249-51.6357Q32.2266-53.5645 35.6445-53.5645L62.0117-53.5645Q65.4785-53.5645 67.4316-51.6357Q69.3848-49.707 69.3848-46.2402L69.3848-24.0723Q69.3848-20.6543 67.4316-18.7012Q65.4785-16.748 62.0117-16.748ZM36.7676-23.584L60.8887-23.584Q62.5-23.584 62.5-25.1953L62.5-40.4297Q62.5-41.9922 60.8887-41.9922L36.7676-41.9922Q35.1562-41.9922 35.1562-40.4297L35.1562-25.1953Q35.1562-23.584 36.7676-23.584ZM45.4102-36.4746Q44.2871-36.4746 44.2871-37.5977L44.2871-38.916Q44.2871-39.9902 45.4102-39.9902L46.7285-39.9902Q47.8027-39.9902 47.8027-38.916L47.8027-37.5977Q47.8027-36.4746 46.7285-36.4746ZM50.9277-36.4746Q49.8535-36.4746 49.8535-37.5977L49.8535-38.916Q49.8535-39.9902 50.9277-39.9902L52.2461-39.9902Q53.3691-39.9902 53.3691-38.916L53.3691-37.5977Q53.3691-36.4746 52.2461-36.4746ZM56.543-36.4746Q55.3711-36.4746 55.3711-37.5977L55.3711-38.916Q55.3711-39.9902 56.543-39.9902L57.8125-39.9902Q58.9355-39.9902 58.9355-38.916L58.9355-37.5977Q58.9355-36.4746 57.8125-36.4746ZM39.8438-31.0547Q38.7207-31.0547 38.7207-32.1289L38.7207-33.3984Q38.7207-34.5215 39.8438-34.5215L41.1133-34.5215Q42.2852-34.5215 42.2852-33.3984L42.2852-32.1289Q42.2852-31.0547 41.1133-31.0547ZM45.4102-31.0547Q44.2871-31.0547 44.2871-32.1289L44.2871-33.3984Q44.2871-34.5215 45.4102-34.5215L46.7285-34.5215Q47.8027-34.5215 47.8027-33.3984L47.8027-32.1289Q47.8027-31.0547 46.7285-31.0547ZM50.9277-31.0547Q49.8535-31.0547 49.8535-32.1289L49.8535-33.3984Q49.8535-34.5215 50.9277-34.5215L52.2461-34.5215Q53.3691-34.5215 53.3691-33.3984L53.3691-32.1289Q53.3691-31.0547 52.2461-31.0547ZM56.543-31.0547Q55.3711-31.0547 55.3711-32.1289L55.3711-33.3984Q55.3711-34.5215 56.543-34.5215L57.8125-34.5215Q58.9355-34.5215 58.9355-33.3984L58.9355-32.1289Q58.9355-31.0547 57.8125-31.0547ZM39.8438-25.5371Q38.7207-25.5371 38.7207-26.6602L38.7207-28.0273Q38.7207-29.1504 39.8438-29.1504L41.1133-29.1504Q42.2852-29.1504 42.2852-28.0273L42.2852-26.6602Q42.2852-25.5371 41.1133-25.5371ZM45.4102-25.5371Q44.2871-25.5371 44.2871-26.6602L44.2871-28.0273Q44.2871-29.1504 45.4102-29.1504L46.7285-29.1504Q47.8027-29.1504 47.8027-28.0273L47.8027-26.6602Q47.8027-25.5371 46.7285-25.5371ZM50.9277-25.5371Q49.8535-25.5371 49.8535-26.6602L49.8535-28.0273Q49.8535-29.1504 50.9277-29.1504L52.2461-29.1504Q53.3691-29.1504 53.3691-28.0273L53.3691-26.6602Q53.3691-25.5371 52.2461-25.5371Z"/>
  </g>
  <g id="Heavy-S" transform="matrix(1 0 0 1 2588.47 696)">
   <path d="M48.2173 6.21362Q56.7704 6.21362 64.2537 2.98823Q71.737-0.237157 77.4425-5.94838Q83.1479-11.6596 86.3791-19.1429Q89.6102-26.6262 89.6102-35.1678Q89.6102-43.7094 86.3791-51.1927Q83.1479-58.6759 77.4367-64.3872Q71.7255-70.0984 64.2422-73.3238Q56.7589-76.5492 48.2058-76.5492Q39.6642-76.5492 32.1809-73.3238Q24.6976-70.0984 18.9979-64.3872Q13.2982-58.6759 10.0671-51.1927Q6.83594-43.7094 6.83594-35.1678Q6.83594-26.6262 10.0671-19.1429Q13.2982-11.6596 19.0037-5.94838Q24.7092-0.237157 32.1924 2.98823Q39.6757 6.21362 48.2173 6.21362ZM34.7456-16.4023Q31.3046-16.4023 29.3847-18.2978Q27.4648-20.1933 27.4648-23.6228L27.4648-46.7127Q27.4648-50.1795 29.3847-52.0564Q31.3046-53.9332 34.7456-53.9332L61.7121-53.9332Q65.1789-53.9332 67.0801-52.0564Q68.9814-50.1795 68.9814-46.7127L68.9814-23.6228Q68.9814-20.1933 67.0801-18.2978Q65.1789-16.4023 61.7121-16.4023ZM35.5114-22.5583L60.9348-22.5583Q62.7881-22.5583 62.7881-24.4116L62.7881-40.9137Q62.7881-42.7413 60.9232-42.7413L35.5114-42.7413Q33.6696-42.7413 33.6696-40.9137L33.6696-24.4116Q33.6696-22.5583 35.5114-22.5583ZM44.615-36.6129Q43.4458-36.6129 43.4458-37.759L43.4458-39.135Q43.4458-40.2668 44.615-40.2668L45.9679-40.2668Q47.0997-40.2668 47.0997-39.135L47.0997-37.759Q47.0997-36.6129 45.9679-36.6129ZM50.4898-36.6129Q49.358-36.6129 49.358-37.759L49.358-39.135Q49.358-40.2668 50.4898-40.2668L51.8427-40.2668Q53.0119-40.2668 53.0119-39.135L53.0119-37.759Q53.0119-36.6129 51.8427-36.6129ZM56.4392-36.6129Q55.2213-36.6129 55.2213-37.759L55.2213-39.135Q55.2213-40.2668 56.4392-40.2668L57.7549-40.2668Q58.924-40.2668 58.924-39.135L58.924-37.759Q58.924-36.6129 57.7549-36.6129ZM38.7028-30.8472Q37.5337-30.8472 37.5337-31.956L37.5337-33.2832Q37.5337-34.4523 38.7028-34.4523L40.0185-34.4523Q41.2249-34.4523 41.2249-33.2832L41.2249-31.956Q41.2249-30.8472 40.0185-30.8472ZM44.615-30.8472Q43.4458-30.8472 43.4458-31.956L43.4458-33.2832Q43.4458-34.4523 44.615-34.4523L45.9679-34.4523Q47.0997-34.4523 47.0997-33.2832L47.0997-31.956Q47.0997-30.8472 45.9679-30.8472ZM50.4898-30.8472Q49.358-30.8472 49.358-31.956L49.358-33.2832Q49.358-34.4523 50.4898-34.4523L51.8427-34.4523Q53.0119-34.4523 53.0119-33.2832L53.0119-31.956Q53.0119-30.8472 51.8427-30.8472ZM56.4392-30.8472Q55.2213-30.8472 55.2213-31.956L55.2213-33.2832Q55.2213-34.4523 56.4392-34.4523L57.7549-34.4523Q58.924-34.4523 58.924-33.2832L58.924-31.956Q58.924-30.8472 57.7549-30.8472ZM38.7028-24.9955Q37.5337-24.9955 37.5337-26.1646L37.5337-27.5664Q37.5337-28.7125 38.7028-28.7125L40.0185-28.7125Q41.2249-28.7125 41.2249-27.5664L41.2249-26.1646Q41.2249-24.9955 40.0185-24.9955ZM44.615-24.9955Q43.4458-24.9955 43.4458-26.1646L43.4458-27.5664Q43.4458-28.7125 44.615-28.7125L45.9679-28.7125Q47.0997-28.7125 47.0997-27.5664L47.0997-26.1646Q47.0997-24.9955 45.9679-24.9955ZM50.4898-24.9955Q49.358-24.9955 49.358-26.1646L49.358-27.5664Q49.358-28.7125 50.4898-28.7125L51.8427-28.7125Q53.0119-28.7125 53.0119-27.5664L53.0119-26.1646Q53.0119-24.9955 51.8427-24.9955Z"/>
  </g>
  <g id="Bold-S" transform="matrix(1 0 0 1 2292.43 696)">
   <path d="M47.5342 5.51758Q55.9326 5.51758 63.2935 2.34375Q70.6543-0.830078 76.2695-6.45752Q81.8848-12.085 85.0708-19.4458Q88.2568-26.8066 88.2568-35.1807Q88.2568-43.5547 85.0708-50.9155Q81.8848-58.2764 76.2573-63.9038Q70.6299-69.5312 63.269-72.7051Q55.9082-75.8789 47.5098-75.8789Q39.1357-75.8789 31.7749-72.7051Q24.4141-69.5312 18.811-63.9038Q13.208-58.2764 10.022-50.9155Q6.83594-43.5547 6.83594-35.1807Q6.83594-26.8066 10.022-19.4458Q13.208-12.085 18.8232-6.45752Q24.4385-0.830078 31.7993 2.34375Q39.1602 5.51758 47.5342 5.51758ZM33.7402-16.0156Q30.2734-16.0156 28.418-17.8467Q26.5625-19.6777 26.5625-23.1201L26.5625-47.2412Q26.5625-50.708 28.418-52.5269Q30.2734-54.3457 33.7402-54.3457L61.377-54.3457Q64.8438-54.3457 66.687-52.5269Q68.5303-50.708 68.5303-47.2412L68.5303-23.1201Q68.5303-19.6777 66.687-17.8467Q64.8438-16.0156 61.377-16.0156ZM34.1064-21.4111L60.9863-21.4111Q63.1104-21.4111 63.1104-23.5352L63.1104-41.4551Q63.1104-43.5791 60.9619-43.5791L34.1064-43.5791Q32.0068-43.5791 32.0068-41.4551L32.0068-23.5352Q32.0068-21.4111 34.1064-21.4111ZM43.7256-36.7676Q42.5049-36.7676 42.5049-37.9395L42.5049-39.3799Q42.5049-40.5762 43.7256-40.5762L45.1172-40.5762Q46.3135-40.5762 46.3135-39.3799L46.3135-37.9395Q46.3135-36.7676 45.1172-36.7676ZM50-36.7676Q48.8037-36.7676 48.8037-37.9395L48.8037-39.3799Q48.8037-40.5762 50-40.5762L51.3916-40.5762Q52.6123-40.5762 52.6123-39.3799L52.6123-37.9395Q52.6123-36.7676 51.3916-36.7676ZM56.3232-36.7676Q55.0537-36.7676 55.0537-37.9395L55.0537-39.3799Q55.0537-40.5762 56.3232-40.5762L57.6904-40.5762Q58.9111-40.5762 58.9111-39.3799L58.9111-37.9395Q58.9111-36.7676 57.6904-36.7676ZM37.4268-30.6152Q36.2061-30.6152 36.2061-31.7627L36.2061-33.1543Q36.2061-34.375 37.4268-34.375L38.7939-34.375Q40.0391-34.375 40.0391-33.1543L40.0391-31.7627Q40.0391-30.6152 38.7939-30.6152ZM43.7256-30.6152Q42.5049-30.6152 42.5049-31.7627L42.5049-33.1543Q42.5049-34.375 43.7256-34.375L45.1172-34.375Q46.3135-34.375 46.3135-33.1543L46.3135-31.7627Q46.3135-30.6152 45.1172-30.6152ZM50-30.6152Q48.8037-30.6152 48.8037-31.7627L48.8037-33.1543Q48.8037-34.375 50-34.375L51.3916-34.375Q52.6123-34.375 52.6123-33.1543L52.6123-31.7627Q52.6123-30.6152 51.3916-30.6152ZM56.3232-30.6152Q55.0537-30.6152 55.0537-31.7627L55.0537-33.1543Q55.0537-34.375 56.3232-34.375L57.6904-34.375Q58.9111-34.375 58.9111-33.1543L58.9111-31.7627Q58.9111-30.6152 57.6904-30.6152ZM37.4268-24.3896Q36.2061-24.3896 36.2061-25.6104L36.2061-27.0508Q36.2061-28.2227 37.4268-28.2227L38.7939-28.2227Q40.0391-28.2227 40.0391-27.0508L40.0391-25.6104Q40.0391-24.3896 38.7939-24.3896ZM43.7256-24.3896Q42.5049-24.3896 42.5049-25.6104L42.5049-27.0508Q42.5049-28.2227 43.7256-28.2227L45.1172-28.2227Q46.3135-28.2227 46.3135-27.0508L46.3135-25.6104Q46.3135-24.3896 45.1172-24.3896ZM50-24.3896Q48.8037-24.3896 48.8037-25.6104L48.8037-27.0508Q48.8037-28.2227 50-28.2227L51.3916-28.2227Q52.6123-28.2227 52.6123-27.0508L52.6123-25.6104Q52.6123-24.3896 51.3916-24.3896Z"/>
  </g>
  <g id="Semibold-S" transform="matrix(1 0 0 1 1996.19 696)">
   <path d="M47.0632 5.0377Q55.355 5.0377 62.6314 1.89941Q69.9078-1.23887 75.4608-6.80854Q81.0139-12.3782 84.1688-19.6546Q87.3237-26.9311 87.3237-35.1896Q87.3237-43.448 84.1688-50.7245Q81.0139-58.0009 75.4442-63.5706Q69.8745-69.1402 62.5981-72.2785Q55.3217-75.4168 47.0299-75.4168Q38.7714-75.4168 31.495-72.2785Q24.2186-69.1402 18.6822-63.5706Q13.1458-58.0009 9.99087-50.7245Q6.83594-43.448 6.83594-35.1896Q6.83594-26.9311 9.99087-19.6546Q13.1458-12.3782 18.6988-6.80854Q24.2519-1.23887 31.5283 1.89941Q38.8047 5.0377 47.0632 5.0377ZM33.0471-15.749Q29.5625-15.749 27.7515-17.5356Q25.9404-19.3223 25.9404-22.7735L25.9404-47.6056Q25.9404-51.0724 27.7515-52.8512Q29.5625-54.6301 33.0471-54.6301L61.1459-54.6301Q64.6127-54.6301 66.416-52.8512Q68.2192-51.0724 68.2192-47.6056L68.2192-22.7735Q68.2192-19.3223 66.416-17.5356Q64.6127-15.749 61.1459-15.749ZM33.1378-20.6202L61.0219-20.6202Q63.3325-20.6202 63.3325-22.9309L63.3325-41.8283Q63.3325-44.1567 60.9886-44.1567L33.1378-44.1567Q30.8604-44.1567 30.8604-41.8283L30.8604-22.9309Q30.8604-20.6202 33.1378-20.6202ZM43.1124-36.8742Q41.8562-36.8742 41.8562-38.0639L41.8562-39.5487Q41.8562-40.7895 43.1124-40.7895L44.5307-40.7895Q45.7714-40.7895 45.7714-39.5487L45.7714-38.0639Q45.7714-36.8742 44.5307-36.8742ZM49.6623-36.8742Q48.4216-36.8742 48.4216-38.0639L48.4216-39.5487Q48.4216-40.7895 49.6623-40.7895L51.0806-40.7895Q52.3368-40.7895 52.3368-39.5487L52.3368-38.0639Q52.3368-36.8742 51.0806-36.8742ZM56.2433-36.8742Q54.9382-36.8742 54.9382-38.0639L54.9382-39.5487Q54.9382-40.7895 56.2433-40.7895L57.646-40.7895Q58.9022-40.7895 58.9022-39.5487L58.9022-38.0639Q58.9022-36.8742 57.646-36.8742ZM36.547-30.4553Q35.2907-30.4553 35.2907-31.6294L35.2907-33.0654Q35.2907-34.3217 36.547-34.3217L37.9497-34.3217Q39.2215-34.3217 39.2215-33.0654L39.2215-31.6294Q39.2215-30.4553 37.9497-30.4553ZM43.1124-30.4553Q41.8562-30.4553 41.8562-31.6294L41.8562-33.0654Q41.8562-34.3217 43.1124-34.3217L44.5307-34.3217Q45.7714-34.3217 45.7714-33.0654L45.7714-31.6294Q45.7714-30.4553 44.5307-30.4553ZM49.6623-30.4553Q48.4216-30.4553 48.4216-31.6294L48.4216-33.0654Q48.4216-34.3217 49.6623-34.3217L51.0806-34.3217Q52.3368-34.3217 52.3368-33.0654L52.3368-31.6294Q52.3368-30.4553 51.0806-30.4553ZM56.2433-30.4553Q54.9382-30.4553 54.9382-31.6294L54.9382-33.0654Q54.9382-34.3217 56.2433-34.3217L57.646-34.3217Q58.9022-34.3217 58.9022-33.0654L58.9022-31.6294Q58.9022-30.4553 57.646-30.4553ZM36.547-23.972Q35.2907-23.972 35.2907-25.2282L35.2907-26.6953Q35.2907-27.885 36.547-27.885L37.9497-27.885Q39.2215-27.885 39.2215-26.6953L39.2215-25.2282Q39.2215-23.972 37.9497-23.972ZM43.1124-23.972Q41.8562-23.972 41.8562-25.2282L41.8562-26.6953Q41.8562-27.885 43.1124-27.885L44.5307-27.885Q45.7714-27.885 45.7714-26.6953L45.7714-25.2282Q45.7714-23.972 44.5307-23.972ZM49.6623-23.972Q48.4216-23.972 48.4216-25.2282L48.4216-26.6953Q48.4216-27.885 49.6623-27.885L51.0806-27.885Q52.3368-27.885 52.3368-26.6953L52.3368-25.2282Q52.3368-23.972 51.0806-23.972Z"/>
  </g>
  <g id="Medium-S" transform="matrix(1 0 0 1 1699.83 696)">
   <path d="M46.7061 4.67383Q54.917 4.67383 62.1294 1.5625Q69.3418-1.54883 74.8477-7.07471Q80.3535-12.6006 83.4849-19.813Q86.6162-27.0254 86.6162-35.1963Q86.6162-43.3672 83.4849-50.5796Q80.3535-57.792 74.8276-63.3179Q69.3018-68.8438 62.0894-71.9551Q54.877-75.0664 46.666-75.0664Q38.4951-75.0664 31.2827-71.9551Q24.0703-68.8438 18.5845-63.3179Q13.0986-57.792 9.96729-50.5796Q6.83594-43.3672 6.83594-35.1963Q6.83594-27.0254 9.96729-19.813Q13.0986-12.6006 18.6045-7.07471Q24.1104-1.54883 31.3228 1.5625Q38.5352 4.67383 46.7061 4.67383ZM32.5215-15.5469Q29.0234-15.5469 27.2461-17.2998Q25.4688-19.0527 25.4688-22.5107L25.4688-47.8818Q25.4688-51.3486 27.2461-53.0972Q29.0234-54.8457 32.5215-54.8457L60.9707-54.8457Q64.4375-54.8457 66.2104-53.0972Q67.9834-51.3486 67.9834-47.8818L67.9834-22.5107Q67.9834-19.0527 66.2104-17.2998Q64.4375-15.5469 60.9707-15.5469ZM32.4033-20.0205L61.0488-20.0205Q63.501-20.0205 63.501-22.4727L63.501-42.1113Q63.501-44.5947 61.0088-44.5947L32.4033-44.5947Q29.9912-44.5947 29.9912-42.1113L29.9912-22.4727Q29.9912-20.0205 32.4033-20.0205ZM42.6475-36.9551Q41.3643-36.9551 41.3643-38.1582L41.3643-39.6768Q41.3643-40.9512 42.6475-40.9512L44.0859-40.9512Q45.3604-40.9512 45.3604-39.6768L45.3604-38.1582Q45.3604-36.9551 44.0859-36.9551ZM49.4062-36.9551Q48.1318-36.9551 48.1318-38.1582L48.1318-39.6768Q48.1318-40.9512 49.4062-40.9512L50.8447-40.9512Q52.1279-40.9512 52.1279-39.6768L52.1279-38.1582Q52.1279-36.9551 50.8447-36.9551ZM56.1826-36.9551Q54.8506-36.9551 54.8506-38.1582L54.8506-39.6768Q54.8506-40.9512 56.1826-40.9512L57.6123-40.9512Q58.8955-40.9512 58.8955-39.6768L58.8955-38.1582Q58.8955-36.9551 57.6123-36.9551ZM35.8799-30.334Q34.5967-30.334 34.5967-31.5283L34.5967-32.998Q34.5967-34.2812 35.8799-34.2812L37.3096-34.2812Q38.6016-34.2812 38.6016-32.998L38.6016-31.5283Q38.6016-30.334 37.3096-30.334ZM42.6475-30.334Q41.3643-30.334 41.3643-31.5283L41.3643-32.998Q41.3643-34.2812 42.6475-34.2812L44.0859-34.2812Q45.3604-34.2812 45.3604-32.998L45.3604-31.5283Q45.3604-30.334 44.0859-30.334ZM49.4062-30.334Q48.1318-30.334 48.1318-31.5283L48.1318-32.998Q48.1318-34.2812 49.4062-34.2812L50.8447-34.2812Q52.1279-34.2812 52.1279-32.998L52.1279-31.5283Q52.1279-30.334 50.8447-30.334ZM56.1826-30.334Q54.8506-30.334 54.8506-31.5283L54.8506-32.998Q54.8506-34.2812 56.1826-34.2812L57.6123-34.2812Q58.8955-34.2812 58.8955-32.998L58.8955-31.5283Q58.8955-30.334 57.6123-30.334ZM35.8799-23.6553Q34.5967-23.6553 34.5967-24.9385L34.5967-26.4258Q34.5967-27.6289 35.8799-27.6289L37.3096-27.6289Q38.6016-27.6289 38.6016-26.4258L38.6016-24.9385Q38.6016-23.6553 37.3096-23.6553ZM42.6475-23.6553Q41.3643-23.6553 41.3643-24.9385L41.3643-26.4258Q41.3643-27.6289 42.6475-27.6289L44.0859-27.6289Q45.3604-27.6289 45.3604-26.4258L45.3604-24.9385Q45.3604-23.6553 44.0859-23.6553ZM49.4062-23.6553Q48.1318-23.6553 48.1318-24.9385L48.1318-26.4258Q48.1318-27.6289 49.4062-27.6289L50.8447-27.6289Q52.1279-27.6289 52.1279-26.4258L52.1279-24.9385Q52.1279-23.6553 50.8447-23.6553Z"/>
  </g>
  <g id="Regular-S" transform="matrix(1 0 0 1 1403.58 696)">
   <path d="M46.2402 4.19922Q54.3457 4.19922 61.4746 1.12305Q68.6035-1.95312 74.0479-7.42188Q79.4922-12.8906 82.5928-20.0195Q85.6934-27.1484 85.6934-35.2051Q85.6934-43.2617 82.5928-50.3906Q79.4922-57.5195 74.0234-62.9883Q68.5547-68.457 61.4258-71.5332Q54.2969-74.6094 46.1914-74.6094Q38.1348-74.6094 31.0059-71.5332Q23.877-68.457 18.457-62.9883Q13.0371-57.5195 9.93652-50.3906Q6.83594-43.2617 6.83594-35.2051Q6.83594-27.1484 9.93652-20.0195Q13.0371-12.8906 18.4814-7.42188Q23.9258-1.95312 31.0547 1.12305Q38.1836 4.19922 46.2402 4.19922ZM31.8359-15.2832Q28.3203-15.2832 26.5869-16.9922Q24.8535-18.7012 24.8535-22.168L24.8535-48.2422Q24.8535-51.709 26.5869-53.418Q28.3203-55.127 31.8359-55.127L60.7422-55.127Q64.209-55.127 65.9424-53.418Q67.6758-51.709 67.6758-48.2422L67.6758-22.168Q67.6758-18.7012 65.9424-16.9922Q64.209-15.2832 60.7422-15.2832ZM31.4453-19.2383L61.084-19.2383Q63.7207-19.2383 63.7207-21.875L63.7207-42.4805Q63.7207-45.166 61.0352-45.166L31.4453-45.166Q28.8574-45.166 28.8574-42.4805L28.8574-21.875Q28.8574-19.2383 31.4453-19.2383ZM42.041-37.0605Q40.7227-37.0605 40.7227-38.2812L40.7227-39.8438Q40.7227-41.1621 42.041-41.1621L43.5059-41.1621Q44.8242-41.1621 44.8242-39.8438L44.8242-38.2812Q44.8242-37.0605 43.5059-37.0605ZM49.0723-37.0605Q47.7539-37.0605 47.7539-38.2812L47.7539-39.8438Q47.7539-41.1621 49.0723-41.1621L50.5371-41.1621Q51.8555-41.1621 51.8555-39.8438L51.8555-38.2812Q51.8555-37.0605 50.5371-37.0605ZM56.1035-37.0605Q54.7363-37.0605 54.7363-38.2812L54.7363-39.8438Q54.7363-41.1621 56.1035-41.1621L57.5684-41.1621Q58.8867-41.1621 58.8867-39.8438L58.8867-38.2812Q58.8867-37.0605 57.5684-37.0605ZM35.0098-30.1758Q33.6914-30.1758 33.6914-31.3965L33.6914-32.9102Q33.6914-34.2285 35.0098-34.2285L36.4746-34.2285Q37.793-34.2285 37.793-32.9102L37.793-31.3965Q37.793-30.1758 36.4746-30.1758ZM42.041-30.1758Q40.7227-30.1758 40.7227-31.3965L40.7227-32.9102Q40.7227-34.2285 42.041-34.2285L43.5059-34.2285Q44.8242-34.2285 44.8242-32.9102L44.8242-31.3965Q44.8242-30.1758 43.5059-30.1758ZM49.0723-30.1758Q47.7539-30.1758 47.7539-31.3965L47.7539-32.9102Q47.7539-34.2285 49.0723-34.2285L50.5371-34.2285Q51.8555-34.2285 51.8555-32.9102L51.8555-31.3965Q51.8555-30.1758 50.5371-30.1758ZM56.1035-30.1758Q54.7363-30.1758 54.7363-31.3965L54.7363-32.9102Q54.7363-34.2285 56.1035-34.2285L57.5684-34.2285Q58.8867-34.2285 58.8867-32.9102L58.8867-31.3965Q58.8867-30.1758 57.5684-30.1758ZM35.0098-23.2422Q33.6914-23.2422 33.6914-24.5605L33.6914-26.0742Q33.6914-27.2949 35.0098-27.2949L36.4746-27.2949Q37.793-27.2949 37.793-26.0742L37.793-24.5605Q37.793-23.2422 36.4746-23.2422ZM42.041-23.2422Q40.7227-23.2422 40.7227-24.5605L40.7227-26.0742Q40.7227-27.2949 42.041-27.2949L43.5059-27.2949Q44.8242-27.2949 44.8242-26.0742L44.8242-24.5605Q44.8242-23.2422 43.5059-23.2422ZM49.0723-23.2422Q47.7539-23.2422 47.7539-24.5605L47.7539-26.0742Q47.7539-27.2949 49.0723-27.2949L50.5371-27.2949Q51.8555-27.2949 51.8555-26.0742L51.8555-24.5605Q51.8555-23.2422 50.5371-23.2422Z"/>
  </g>
  <g id="Light-S" transform="matrix(1 0 0 1 1107.6 696)">
   <path d="M45.5078 3.4668Q53.4831 3.4668 60.4736 0.455729Q67.4642-2.55534 72.8109-7.91829Q78.1576-13.2812 81.193-20.2718Q84.2285-27.2624 84.2285-35.2051Q84.2285-43.1478 81.193-50.1383Q78.1576-57.1289 72.7946-62.4919Q67.4316-67.8548 60.4411-70.8659Q53.4505-73.877 45.4753-73.877Q37.5488-73.877 30.5501-70.8659Q23.5514-67.8548 18.2292-62.4919Q12.9069-57.1289 9.87142-50.1383Q6.83594-43.1478 6.83594-35.2051Q6.83594-27.2624 9.87142-20.2718Q12.9069-13.2812 18.2454-7.91829Q23.584-2.55534 30.5827 0.455729Q37.5814 3.4668 45.5078 3.4668ZM31.1361-16.0645Q27.946-16.0645 26.3428-17.6595Q24.7396-19.2546 24.7396-22.3958L24.7396-48.0143Q24.7396-51.1719 26.3428-52.7588Q27.946-54.3457 31.1361-54.3457L59.9447-54.3457Q63.1185-54.3457 64.7135-52.7507Q66.3086-51.1556 66.3086-48.0143L66.3086-22.3958Q66.3086-19.2546 64.7135-17.6595Q63.1185-16.0645 59.9447-16.0645ZM30.9408-19.3685L60.1074-19.3685Q62.9883-19.3685 62.9883-22.2331L62.9883-41.7318Q62.9883-44.873 59.8307-44.873L31.1849-44.873Q28.0924-44.873 28.0924-41.7318L28.0924-22.2331Q28.0924-19.3685 30.9408-19.3685ZM41.3086-37.0768Q40.2181-37.0768 40.2181-38.1185L40.2181-39.6159Q40.2181-40.6901 41.3086-40.6901L42.7409-40.6901Q43.8477-40.6901 43.8477-39.6159L43.8477-38.1185Q43.8477-37.0768 42.7409-37.0768ZM48.3398-37.0768Q47.2331-37.0768 47.2331-38.1185L47.2331-39.6159Q47.2331-40.6901 48.3398-40.6901L49.7721-40.6901Q50.8626-40.6901 50.8626-39.6159L50.8626-38.1185Q50.8626-37.0768 49.7721-37.0768ZM55.3548-37.0768Q54.1992-37.0768 54.1992-38.1185L54.1992-39.6159Q54.1992-40.6901 55.3548-40.6901L56.7871-40.6901Q57.9102-40.6901 57.9102-39.6159L57.9102-38.1185Q57.9102-37.0768 56.7871-37.0768ZM34.2936-30.1921Q33.1706-30.1921 33.1706-31.2337L33.1706-32.6986Q33.1706-33.7728 34.2936-33.7728L35.7259-33.7728Q36.849-33.7728 36.849-32.6986L36.849-31.2337Q36.849-30.1921 35.7259-30.1921ZM41.3086-30.1921Q40.2181-30.1921 40.2181-31.2337L40.2181-32.6986Q40.2181-33.7728 41.3086-33.7728L42.7409-33.7728Q43.8477-33.7728 43.8477-32.6986L43.8477-31.2337Q43.8477-30.1921 42.7409-30.1921ZM48.3398-30.1921Q47.2331-30.1921 47.2331-31.2337L47.2331-32.6986Q47.2331-33.7728 48.3398-33.7728L49.7721-33.7728Q50.8626-33.7728 50.8626-32.6986L50.8626-31.2337Q50.8626-30.1921 49.7721-30.1921ZM55.3548-30.1921Q54.1992-30.1921 54.1992-31.2337L54.1992-32.6986Q54.1992-33.7728 55.3548-33.7728L56.7871-33.7728Q57.9102-33.7728 57.9102-32.6986L57.9102-31.2337Q57.9102-30.1921 56.7871-30.1921ZM34.2936-23.2747Q33.1706-23.2747 33.1706-24.3652L33.1706-25.8301Q33.1706-26.8555 34.2936-26.8555L35.7259-26.8555Q36.849-26.8555 36.849-25.8301L36.849-24.3652Q36.849-23.2747 35.7259-23.2747ZM41.3086-23.2747Q40.2181-23.2747 40.2181-24.3652L40.2181-25.8301Q40.2181-26.8555 41.3086-26.8555L42.7409-26.8555Q43.8477-26.8555 43.8477-25.8301L43.8477-24.3652Q43.8477-23.2747 42.7409-23.2747ZM48.3398-23.2747Q47.2331-23.2747 47.2331-24.3652L47.2331-25.8301Q47.2331-26.8555 48.3398-26.8555L49.7721-26.8555Q50.8626-26.8555 50.8626-25.8301L50.8626-24.3652Q50.8626-23.2747 49.7721-23.2747Z"/>
  </g>
  <g id="Thin-S" transform="matrix(1 0 0 1 811.863 696)">
   <path d="M44.5391 2.49811Q52.3422 2.49811 59.1498-0.426852Q65.9573-3.35181 71.1749-8.57485Q76.3924-13.7979 79.3418-20.6055Q82.2911-27.4131 82.2911-35.2051Q82.2911-42.9971 79.3418-49.8047Q76.3924-56.6123 71.1694-61.8353Q65.9463-67.0583 59.1387-69.9833Q52.3311-72.9083 44.5281-72.9083Q36.7739-72.9083 29.9474-69.9833Q23.1209-67.0583 17.9278-61.8353Q12.7347-56.6123 9.78531-49.8047Q6.83594-42.9971 6.83594-35.2051Q6.83594-27.4131 9.78531-20.6055Q12.7347-13.7979 17.9333-8.57485Q23.1319-3.35181 29.9584-0.426852Q36.7849 2.49811 44.5391 2.49811ZM30.2104-17.0977Q27.4509-17.0977 26.0199-18.5421Q24.5889-19.9865 24.5889-22.6972L24.5889-47.713Q24.5889-50.4615 26.0199-51.887Q27.4509-53.3124 30.2104-53.3124L58.8899-53.3124Q61.6762-53.3124 63.0883-51.8681Q64.5004-50.4237 64.5004-47.713L64.5004-22.6972Q64.5004-19.9865 63.0883-18.5421Q61.6762-17.0977 58.8899-17.0977ZM30.2734-19.5407L58.8158-19.5407Q62.0196-19.5407 62.0196-22.7067L62.0196-40.7416Q62.0196-44.4856 58.2378-44.4856L30.8405-44.4856Q27.0807-44.4856 27.0807-40.7416L27.0807-22.7067Q27.0807-19.5407 30.2734-19.5407ZM40.3399-37.0983Q39.5508-37.0983 39.5508-37.9032L39.5508-39.3145Q39.5508-40.0658 40.3399-40.0658L41.7291-40.0658Q42.5561-40.0658 42.5561-39.3145L42.5561-37.9032Q42.5561-37.0983 41.7291-37.0983ZM47.3712-37.0983Q46.5442-37.0983 46.5442-37.9032L46.5442-39.3145Q46.5442-40.0658 47.3712-40.0658L48.7604-40.0658Q49.5495-40.0658 49.5495-39.3145L49.5495-37.9032Q49.5495-37.0983 48.7604-37.0983ZM54.3646-37.0983Q53.4888-37.0983 53.4888-37.9032L53.4888-39.3145Q53.4888-40.0658 54.3646-40.0658L55.7538-40.0658Q56.6186-40.0658 56.6186-39.3145L56.6186-37.9032Q56.6186-37.0983 55.7538-37.0983ZM33.3465-30.2136Q32.4817-30.2136 32.4817-31.0185L32.4817-32.4187Q32.4817-33.17 33.3465-33.17L34.7357-33.17Q35.6004-33.17 35.6004-32.4187L35.6004-31.0185Q35.6004-30.2136 34.7357-30.2136ZM40.3399-30.2136Q39.5508-30.2136 39.5508-31.0185L39.5508-32.4187Q39.5508-33.17 40.3399-33.17L41.7291-33.17Q42.5561-33.17 42.5561-32.4187L42.5561-31.0185Q42.5561-30.2136 41.7291-30.2136ZM47.3712-30.2136Q46.5442-30.2136 46.5442-31.0185L46.5442-32.4187Q46.5442-33.17 47.3712-33.17L48.7604-33.17Q49.5495-33.17 49.5495-32.4187L49.5495-31.0185Q49.5495-30.2136 48.7604-30.2136ZM54.3646-30.2136Q53.4888-30.2136 53.4888-31.0185L53.4888-32.4187Q53.4888-33.17 54.3646-33.17L55.7538-33.17Q56.6186-33.17 56.6186-32.4187L56.6186-31.0185Q56.6186-30.2136 55.7538-30.2136ZM33.3465-23.3178Q32.4817-23.3178 32.4817-24.1069L32.4817-25.5072Q32.4817-26.2743 33.3465-26.2743L34.7357-26.2743Q35.6004-26.2743 35.6004-25.5072L35.6004-24.1069Q35.6004-23.3178 34.7357-23.3178ZM40.3399-23.3178Q39.5508-23.3178 39.5508-24.1069L39.5508-25.5072Q39.5508-26.2743 40.3399-26.2743L41.7291-26.2743Q42.5561-26.2743 42.5561-25.5072L42.5561-24.1069Q42.5561-23.3178 41.7291-23.3178ZM47.3712-23.3178Q46.5442-23.3178 46.5442-24.1069L46.5442-25.5072Q46.5442-26.2743 47.3712-26.2743L48.7604-26.2743Q49.5495-26.2743 49.5495-25.5072L49.5495-24.1069Q49.5495-23.3178 48.7604-23.3178Z"/>
  </g>
  <g id="Ultralight-S" transform="matrix(1 0 0 1 515.649 696)">
   <path d="M44.043 2.00195Q51.7578 2.00195 58.4717-0.878906Q65.1855-3.75977 70.3369-8.91113Q75.4883-14.0625 78.3936-20.7764Q81.2988-27.4902 81.2988-35.2051Q81.2988-42.9199 78.3936-49.6338Q75.4883-56.3477 70.3369-61.499Q65.1855-66.6504 58.4717-69.5312Q51.7578-72.4121 44.043-72.4121Q36.377-72.4121 29.6387-69.5312Q22.9004-66.6504 17.7734-61.499Q12.6465-56.3477 9.74121-49.6338Q6.83594-42.9199 6.83594-35.2051Q6.83594-27.4902 9.74121-20.7764Q12.6465-14.0625 17.7734-8.91113Q22.9004-3.75977 29.6387-0.878906Q36.377 2.00195 44.043 2.00195ZM29.7363-17.627Q27.1973-17.627 25.8545-18.9941Q24.5117-20.3613 24.5117-22.8516L24.5117-47.5586Q24.5117-50.0977 25.8545-51.4404Q27.1973-52.7832 29.7363-52.7832L58.3496-52.7832Q60.9375-52.7832 62.2559-51.416Q63.5742-50.0488 63.5742-47.5586L63.5742-22.8516Q63.5742-20.3613 62.2559-18.9941Q60.9375-17.627 58.3496-17.627ZM29.9316-19.6289L58.1543-19.6289Q61.5234-19.6289 61.5234-22.9492L61.5234-40.2344Q61.5234-44.2871 57.4219-44.2871L30.6641-44.2871Q26.5625-44.2871 26.5625-40.2344L26.5625-22.9492Q26.5625-19.6289 29.9316-19.6289ZM39.8438-37.1094Q39.209-37.1094 39.209-37.793L39.209-39.1602Q39.209-39.7461 39.8438-39.7461L41.2109-39.7461Q41.8945-39.7461 41.8945-39.1602L41.8945-37.793Q41.8945-37.1094 41.2109-37.1094ZM46.875-37.1094Q46.1914-37.1094 46.1914-37.793L46.1914-39.1602Q46.1914-39.7461 46.875-39.7461L48.2422-39.7461Q48.877-39.7461 48.877-39.1602L48.877-37.793Q48.877-37.1094 48.2422-37.1094ZM53.8574-37.1094Q53.125-37.1094 53.125-37.793L53.125-39.1602Q53.125-39.7461 53.8574-39.7461L55.2246-39.7461Q55.957-39.7461 55.957-39.1602L55.957-37.793Q55.957-37.1094 55.2246-37.1094ZM32.8613-30.2246Q32.1289-30.2246 32.1289-30.9082L32.1289-32.2754Q32.1289-32.8613 32.8613-32.8613L34.2285-32.8613Q34.9609-32.8613 34.9609-32.2754L34.9609-30.9082Q34.9609-30.2246 34.2285-30.2246ZM39.8438-30.2246Q39.209-30.2246 39.209-30.9082L39.209-32.2754Q39.209-32.8613 39.8438-32.8613L41.2109-32.8613Q41.8945-32.8613 41.8945-32.2754L41.8945-30.9082Q41.8945-30.2246 41.2109-30.2246ZM46.875-30.2246Q46.1914-30.2246 46.1914-30.9082L46.1914-32.2754Q46.1914-32.8613 46.875-32.8613L48.2422-32.8613Q48.877-32.8613 48.877-32.2754L48.877-30.9082Q48.877-30.2246 48.2422-30.2246ZM53.8574-30.2246Q53.125-30.2246 53.125-30.9082L53.125-32.2754Q53.125-32.8613 53.8574-32.8613L55.2246-32.8613Q55.957-32.8613 55.957-32.2754L55.957-30.9082Q55.957-30.2246 55.2246-30.2246ZM32.8613-23.3398Q32.1289-23.3398 32.1289-23.9746L32.1289-25.3418Q32.1289-25.9766 32.8613-25.9766L34.2285-25.9766Q34.9609-25.9766 34.9609-25.3418L34.9609-23.9746Q34.9609-23.3398 34.2285-23.3398ZM39.8438-23.3398Q39.209-23.3398 39.209-23.9746L39.209-25.3418Q39.209-25.9766 39.8438-25.9766L41.2109-25.9766Q41.8945-25.9766 41.8945-25.3418L41.8945-23.9746Q41.8945-23.3398 41.2109-23.3398ZM46.875-23.3398Q46.1914-23.3398 46.1914-23.9746L46.1914-25.3418Q46.1914-25.9766 46.875-25.9766L48.2422-25.9766Q48.877-25.9766 48.877-25.3418L48.877-23.9746Q48.877-23.3398 48.2422-23.3398Z"/>
  </g>
 </g>
</svg>
