<?xml version="1.0" encoding="UTF-8"?>
<!--Generator: Apple Native CoreSVG 175.5-->
<!DOCTYPE svg
PUBLIC "-//W3C//DTD SVG 1.1//EN"
       "http://www.w3.org/Graphics/SVG/1.1/DTD/svg11.dtd">
<svg version="1.1" xmlns="http://www.w3.org/2000/svg" xmlns:xlink="http://www.w3.org/1999/xlink" width="3300" height="2200">
 <!--glyph: "uni100308.medium", point size: 100.0, font version: "18.0d9e1", template writer version: "84"-->
 <g id="Notes">
  <rect height="2200" id="artboard" style="fill:white;opacity:1" width="3300" x="0" y="0"/>
  <line style="fill:none;stroke:black;opacity:1;stroke-width:0.5;" x1="263" x2="3036" y1="292" y2="292"/>
  <text style="stroke:none;fill:black;font-family:sans-serif;font-size:13;font-weight:bold;" transform="matrix(1 0 0 1 263 322)">Weight/Scale Variations</text>
  <text style="stroke:none;fill:black;font-family:sans-serif;font-size:13;text-anchor:middle;" transform="matrix(1 0 0 1 559.711 322)">Ultralight</text>
  <text style="stroke:none;fill:black;font-family:sans-serif;font-size:13;text-anchor:middle;" transform="matrix(1 0 0 1 856.422 322)">Thin</text>
  <text style="stroke:none;fill:black;font-family:sans-serif;font-size:13;text-anchor:middle;" transform="matrix(1 0 0 1 1153.13 322)">Light</text>
  <text style="stroke:none;fill:black;font-family:sans-serif;font-size:13;text-anchor:middle;" transform="matrix(1 0 0 1 1449.84 322)">Regular</text>
  <text style="stroke:none;fill:black;font-family:sans-serif;font-size:13;text-anchor:middle;" transform="matrix(1 0 0 1 1746.56 322)">Medium</text>
  <text style="stroke:none;fill:black;font-family:sans-serif;font-size:13;text-anchor:middle;" transform="matrix(1 0 0 1 2043.27 322)">Semibold</text>
  <text style="stroke:none;fill:black;font-family:sans-serif;font-size:13;text-anchor:middle;" transform="matrix(1 0 0 1 2339.98 322)">Bold</text>
  <text style="stroke:none;fill:black;font-family:sans-serif;font-size:13;text-anchor:middle;" transform="matrix(1 0 0 1 2636.69 322)">Heavy</text>
  <text style="stroke:none;fill:black;font-family:sans-serif;font-size:13;text-anchor:middle;" transform="matrix(1 0 0 1 2933.4 322)">Black</text>
  <line style="fill:none;stroke:black;opacity:1;stroke-width:0.5;" x1="263" x2="3036" y1="1903" y2="1903"/>
  <g transform="matrix(1 0 0 1 263 1933)">
   <path d="M9.24805 0.830078Q10.8691 0.830078 12.2949 0.214844Q13.7207-0.400391 14.8096-1.49414Q15.8984-2.58789 16.5186-4.01367Q17.1387-5.43945 17.1387-7.05078Q17.1387-8.66211 16.5186-10.0879Q15.8984-11.5137 14.8047-12.6074Q13.7109-13.7012 12.2852-14.3164Q10.8594-14.9316 9.23828-14.9316Q7.62695-14.9316 6.20117-14.3164Q4.77539-13.7012 3.69141-12.6074Q2.60742-11.5137 1.9873-10.0879Q1.36719-8.66211 1.36719-7.05078Q1.36719-5.43945 1.9873-4.01367Q2.60742-2.58789 3.69629-1.49414Q4.78516-0.400391 6.21094 0.214844Q7.63672 0.830078 9.24805 0.830078ZM9.24805-0.654297Q7.91992-0.654297 6.7627-1.14746Q5.60547-1.64062 4.73145-2.51953Q3.85742-3.39844 3.36426-4.56055Q2.87109-5.72266 2.87109-7.05078Q2.87109-8.37891 3.35938-9.54102Q3.84766-10.7031 4.72168-11.582Q5.5957-12.4609 6.75293-12.9541Q7.91016-13.4473 9.23828-13.4473Q10.5762-13.4473 11.7383-12.9541Q12.9004-12.4609 13.7793-11.582Q14.6582-10.7031 15.1514-9.54102Q15.6445-8.37891 15.6445-7.05078Q15.6445-5.72266 15.1514-4.56055Q14.6582-3.39844 13.7793-2.51953Q12.9004-1.64062 11.7432-1.14746Q10.5859-0.654297 9.24805-0.654297ZM5.6543-7.05078Q5.6543-6.72852 5.85938-6.52832Q6.06445-6.32812 6.40625-6.32812L8.51562-6.32812L8.51562-4.20898Q8.51562-3.88672 8.71094-3.67676Q8.90625-3.4668 9.23828-3.4668Q9.56055-3.4668 9.77051-3.67676Q9.98047-3.88672 9.98047-4.20898L9.98047-6.32812L12.0898-6.32812Q12.4219-6.32812 12.627-6.52832Q12.832-6.72852 12.832-7.05078Q12.832-7.38281 12.627-7.58789Q12.4219-7.79297 12.0898-7.79297L9.98047-7.79297L9.98047-9.90234Q9.98047-10.2344 9.77051-10.4443Q9.56055-10.6543 9.23828-10.6543Q8.90625-10.6543 8.71094-10.4443Q8.51562-10.2344 8.51562-9.90234L8.51562-7.79297L6.40625-7.79297Q6.06445-7.79297 5.85938-7.58789Q5.6543-7.38281 5.6543-7.05078Z"/>
  </g>
  <g transform="matrix(1 0 0 1 281.867 1933)">
   <path d="M11.709 2.91016Q13.75 2.91016 15.5518 2.12891Q17.3535 1.34766 18.7305-0.0292969Q20.1074-1.40625 20.8887-3.20801Q21.6699-5.00977 21.6699-7.05078Q21.6699-9.0918 20.8887-10.8936Q20.1074-12.6953 18.7305-14.0723Q17.3535-15.4492 15.5469-16.2305Q13.7402-17.0117 11.6992-17.0117Q9.6582-17.0117 7.85645-16.2305Q6.05469-15.4492 4.68262-14.0723Q3.31055-12.6953 2.5293-10.8936Q1.74805-9.0918 1.74805-7.05078Q1.74805-5.00977 2.5293-3.20801Q3.31055-1.40625 4.6875-0.0292969Q6.06445 1.34766 7.86621 2.12891Q9.66797 2.91016 11.709 2.91016ZM11.709 1.25Q9.98047 1.25 8.47656 0.605469Q6.97266-0.0390625 5.83496-1.17676Q4.69727-2.31445 4.05762-3.81836Q3.41797-5.32227 3.41797-7.05078Q3.41797-8.7793 4.05762-10.2832Q4.69727-11.7871 5.83008-12.9297Q6.96289-14.0723 8.4668-14.7119Q9.9707-15.3516 11.6992-15.3516Q13.4277-15.3516 14.9365-14.7119Q16.4453-14.0723 17.583-12.9297Q18.7207-11.7871 19.3652-10.2832Q20.0098-8.7793 20.0098-7.05078Q20.0098-5.32227 19.3701-3.81836Q18.7305-2.31445 17.5879-1.17676Q16.4453-0.0390625 14.9414 0.605469Q13.4375 1.25 11.709 1.25ZM7.17773-7.05078Q7.17773-6.69922 7.41211-6.47461Q7.64648-6.25 8.01758-6.25L10.8887-6.25L10.8887-3.36914Q10.8887-2.99805 11.1133-2.76855Q11.3379-2.53906 11.6895-2.53906Q12.0605-2.53906 12.29-2.76855Q12.5195-2.99805 12.5195-3.36914L12.5195-6.25L15.4004-6.25Q15.7715-6.25 16.001-6.47461Q16.2305-6.69922 16.2305-7.05078Q16.2305-7.42188 16.001-7.65137Q15.7715-7.88086 15.4004-7.88086L12.5195-7.88086L12.5195-10.752Q12.5195-11.1328 12.29-11.3623Q12.0605-11.5918 11.6895-11.5918Q11.3379-11.5918 11.1133-11.3574Q10.8887-11.123 10.8887-10.752L10.8887-7.88086L8.01758-7.88086Q7.63672-7.88086 7.40723-7.65137Q7.17773-7.42188 7.17773-7.05078Z"/>
  </g>
  <g transform="matrix(1 0 0 1 305.646 1933)">
   <path d="M14.9707 5.66406Q17.0605 5.66406 18.96 5.01465Q20.8594 4.36523 22.4512 3.19336Q24.043 2.02148 25.2197 0.429688Q26.3965-1.16211 27.0459-3.06641Q27.6953-4.9707 27.6953-7.05078Q27.6953-9.14062 27.0459-11.04Q26.3965-12.9395 25.2197-14.5312Q24.043-16.123 22.4512-17.2998Q20.8594-18.4766 18.9551-19.126Q17.0508-19.7754 14.9609-19.7754Q12.8711-19.7754 10.9717-19.126Q9.07227-18.4766 7.48535-17.2998Q5.89844-16.123 4.72168-14.5312Q3.54492-12.9395 2.90039-11.04Q2.25586-9.14062 2.25586-7.05078Q2.25586-4.9707 2.90527-3.06641Q3.55469-1.16211 4.72656 0.429688Q5.89844 2.02148 7.49023 3.19336Q9.08203 4.36523 10.9814 5.01465Q12.8809 5.66406 14.9707 5.66406ZM14.9707 3.84766Q13.1641 3.84766 11.5283 3.2959Q9.89258 2.74414 8.53516 1.74805Q7.17773 0.751953 6.17676-0.610352Q5.17578-1.97266 4.62891-3.6084Q4.08203-5.24414 4.08203-7.05078Q4.08203-8.86719 4.62891-10.5029Q5.17578-12.1387 6.17188-13.501Q7.16797-14.8633 8.52539-15.8594Q9.88281-16.8555 11.5186-17.4023Q13.1543-17.9492 14.9609-17.9492Q16.7773-17.9492 18.4131-17.4023Q20.0488-16.8555 21.4111-15.8594Q22.7734-14.8633 23.7744-13.501Q24.7754-12.1387 25.3223-10.5029Q25.8691-8.86719 25.8691-7.05078Q25.8691-5.24414 25.3223-3.6084Q24.7754-1.97266 23.7793-0.610352Q22.7832 0.751953 21.4209 1.74805Q20.0586 2.74414 18.4229 3.2959Q16.7871 3.84766 14.9707 3.84766ZM9.19922-7.05078Q9.19922-6.66992 9.45801-6.4209Q9.7168-6.17188 10.1172-6.17188L14.0625-6.17188L14.0625-2.2168Q14.0625-1.81641 14.3115-1.55762Q14.5605-1.29883 14.9512-1.29883Q15.3516-1.29883 15.6104-1.55273Q15.8691-1.80664 15.8691-2.2168L15.8691-6.17188L19.8242-6.17188Q20.2246-6.17188 20.4785-6.4209Q20.7324-6.66992 20.7324-7.05078Q20.7324-7.46094 20.4785-7.71484Q20.2246-7.96875 19.8242-7.96875L15.8691-7.96875L15.8691-11.9141Q15.8691-12.3242 15.6104-12.583Q15.3516-12.8418 14.9512-12.8418Q14.5605-12.8418 14.3115-12.583Q14.0625-12.3242 14.0625-11.9141L14.0625-7.96875L10.1172-7.96875Q9.70703-7.96875 9.45312-7.71484Q9.19922-7.46094 9.19922-7.05078Z"/>
  </g>
  <text style="stroke:none;fill:black;font-family:sans-serif;font-size:13;font-weight:bold;" transform="matrix(1 0 0 1 263 1953)">Design Variations</text>
  <text style="stroke:none;fill:black;font-family:sans-serif;font-size:13;" transform="matrix(1 0 0 1 263 1971)">Symbols are supported in up to nine weights and three scales.</text>
  <text style="stroke:none;fill:black;font-family:sans-serif;font-size:13;" transform="matrix(1 0 0 1 263 1989)">For optimal layout with text and other symbols, vertically align</text>
  <text style="stroke:none;fill:black;font-family:sans-serif;font-size:13;" transform="matrix(1 0 0 1 263 2007)">symbols with the adjacent text.</text>
  <line style="fill:none;stroke:#00AEEF;stroke-width:0.5;opacity:1.0;" x1="776" x2="776" y1="1919" y2="1933"/>
  <g transform="matrix(1 0 0 1 776 1933)">
   <path d="M3.31055 0.15625Q3.70117 0.15625 3.91602-0.00976562Q4.13086-0.175781 4.26758-0.585938L5.52734-4.0332L11.2891-4.0332L12.5488-0.585938Q12.6855-0.175781 12.9004-0.00976562Q13.1152 0.15625 13.4961 0.15625Q13.8867 0.15625 14.1162-0.0585938Q14.3457-0.273438 14.3457-0.644531Q14.3457-0.869141 14.2383-1.17188L9.6582-13.3691Q9.48242-13.8184 9.17969-14.043Q8.87695-14.2676 8.4082-14.2676Q7.5-14.2676 7.17773-13.3789L2.59766-1.16211Q2.49023-0.859375 2.49023-0.634766Q2.49023-0.263672 2.70996-0.0537109Q2.92969 0.15625 3.31055 0.15625ZM6.00586-5.51758L8.37891-12.0898L8.42773-12.0898L10.8008-5.51758Z"/>
  </g>
  <line style="fill:none;stroke:#00AEEF;stroke-width:0.5;opacity:1.0;" x1="793.197" x2="793.197" y1="1919" y2="1933"/>
  <text style="stroke:none;fill:black;font-family:sans-serif;font-size:13;font-weight:bold;" transform="matrix(1 0 0 1 776 1953)">Margins</text>
  <text style="stroke:none;fill:black;font-family:sans-serif;font-size:13;" transform="matrix(1 0 0 1 776 1971)">Leading and trailing margins on the left and right side of each symbol</text>
  <text style="stroke:none;fill:black;font-family:sans-serif;font-size:13;" transform="matrix(1 0 0 1 776 1989)">can be adjusted by modifying the x-location of the margin guidelines.</text>
  <text style="stroke:none;fill:black;font-family:sans-serif;font-size:13;" transform="matrix(1 0 0 1 776 2007)">Modifications are automatically applied proportionally to all</text>
  <text style="stroke:none;fill:black;font-family:sans-serif;font-size:13;" transform="matrix(1 0 0 1 776 2025)">scales and weights.</text>
  <g transform="matrix(1 0 0 1 1289 1933)">
   <path d="M2.8418 1.86523L4.54102 3.57422Q5.18555 4.22852 5.90332 4.17969Q6.62109 4.13086 7.31445 3.35938L18.0078-8.42773L17.041-9.4043L6.42578 2.27539Q6.16211 2.57812 5.89355 2.61719Q5.625 2.65625 5.27344 2.30469L4.10156 1.14258Q3.75 0.791016 3.79395 0.522461Q3.83789 0.253906 4.14062-0.0195312L15.6152-10.8203L14.6387-11.7871L3.04688-0.898438Q2.30469-0.214844 2.25098 0.498047Q2.19727 1.21094 2.8418 1.86523ZM9.25781-16.3281Q8.94531-16.0254 8.90625-15.6348Q8.86719-15.2441 9.04297-14.9512Q9.21875-14.6777 9.55566-14.541Q9.89258-14.4043 10.3809-14.5215Q11.4746-14.7754 12.5977-14.7314Q13.7207-14.6875 14.7949-13.9844L14.209-12.5293Q13.9551-11.9043 14.0674-11.4404Q14.1797-10.9766 14.5801-10.5664L16.875-8.25195Q17.2363-7.88086 17.5781-7.82227Q17.9199-7.76367 18.3398-7.8418L19.4043-8.03711L20.0684-7.36328L20.0293-6.80664Q20-6.43555 20.1221-6.12305Q20.2441-5.81055 20.6055-5.44922L21.3672-4.70703Q21.7285-4.3457 22.1533-4.33105Q22.5781-4.31641 22.9297-4.66797L25.8398-7.58789Q26.1914-7.93945 26.1816-8.35449Q26.1719-8.76953 25.8105-9.13086L25.0391-9.89258Q24.6875-10.2539 24.3799-10.3857Q24.0723-10.5176 23.7109-10.4883L23.1348-10.4395L22.4902-11.0742L22.7344-12.1973Q22.832-12.6172 22.6953-12.9834Q22.5586-13.3496 22.1191-13.7891L19.9219-15.9766Q18.6719-17.2168 17.2607-17.8369Q15.8496-18.457 14.4189-18.4814Q12.9883-18.5059 11.665-17.959Q10.3418-17.4121 9.25781-16.3281ZM10.752-15.957Q11.6602-16.6211 12.7002-16.9043Q13.7402-17.1875 14.8047-17.085Q15.8691-16.9824 16.8701-16.5137Q17.8711-16.0449 18.7012-15.2051L21.1328-12.793Q21.3086-12.6172 21.3525-12.4512Q21.3965-12.2852 21.3379-12.0312L21.0156-10.5469L22.5195-9.0625L23.5059-9.12109Q23.6914-9.13086 23.7891-9.09668Q23.8867-9.0625 24.0332-8.91602L24.6094-8.33984L22.168-5.89844L21.5918-6.47461Q21.4453-6.62109 21.4062-6.71875Q21.3672-6.81641 21.377-7.01172L21.4453-7.98828L19.9512-9.47266L18.4277-9.21875Q18.1836-9.16992 18.042-9.2041Q17.9004-9.23828 17.7148-9.41406L15.7129-11.416Q15.5176-11.5918 15.4932-11.7529Q15.4688-11.9141 15.5859-12.1875L16.4648-14.2773Q15.293-15.3711 13.8281-15.791Q12.3633-16.2109 10.8398-15.7617Q10.7227-15.7324 10.6885-15.8057Q10.6543-15.8789 10.752-15.957Z"/>
  </g>
  <text style="stroke:none;fill:black;font-family:sans-serif;font-size:13;font-weight:bold;" transform="matrix(1 0 0 1 1289 1953)">Exporting</text>
  <text style="stroke:none;fill:black;font-family:sans-serif;font-size:13;" transform="matrix(1 0 0 1 1289 1971)">Symbols should be outlined when exporting to ensure the</text>
  <text style="stroke:none;fill:black;font-family:sans-serif;font-size:13;" transform="matrix(1 0 0 1 1289 1989)">design is preserved when submitting to Xcode.</text>
  <text id="template-version" style="stroke:none;fill:black;font-family:sans-serif;font-size:13;text-anchor:end;" transform="matrix(1 0 0 1 3036 1933)">Template v.2.0</text>
  <text style="stroke:none;fill:black;font-family:sans-serif;font-size:13;text-anchor:end;" transform="matrix(1 0 0 1 3036 1951)">Requires Xcode 12 or greater</text>
  <text id="descriptive-name" style="stroke:none;fill:black;font-family:sans-serif;font-size:13;text-anchor:end;" transform="matrix(1 0 0 1 3036 1969)">Generated from line.3.horizontal.decrease.circle</text>
  <text style="stroke:none;fill:black;font-family:sans-serif;font-size:13;text-anchor:end;" transform="matrix(1 0 0 1 3036 1987)">Typeset at 100 points</text>
  <text style="stroke:none;fill:black;font-family:sans-serif;font-size:13;" transform="matrix(1 0 0 1 263 726)">Small</text>
  <text style="stroke:none;fill:black;font-family:sans-serif;font-size:13;" transform="matrix(1 0 0 1 263 1156)">Medium</text>
  <text style="stroke:none;fill:black;font-family:sans-serif;font-size:13;" transform="matrix(1 0 0 1 263 1586)">Large</text>
 </g>
 <g id="Guides">
  <g id="H-reference" style="fill:#27AAE1;stroke:none;" transform="matrix(1 0 0 1 339 696)">
   <path d="M0.993347 0L3.6377 0L29.3282-67.1326L30.0301-67.1326L30.0301-70.459L28.1227-70.459ZM11.6882-24.4797L46.9818-24.4797L46.2311-26.7288L12.4382-26.7288ZM55.1193 0L57.7637 0L30.6381-70.459L29.4327-70.459L29.4327-67.1326Z"/>
  </g>
  <line id="Baseline-S" style="fill:none;stroke:#27AAE1;opacity:1;stroke-width:0.5;" x1="263" x2="3036" y1="696" y2="696"/>
  <line id="Capline-S" style="fill:none;stroke:#27AAE1;opacity:1;stroke-width:0.5;" x1="263" x2="3036" y1="625.541" y2="625.541"/>
  <g id="H-reference" style="fill:#27AAE1;stroke:none;" transform="matrix(1 0 0 1 339 1126)">
   <path d="M0.993347 0L3.6377 0L29.3282-67.1326L30.0301-67.1326L30.0301-70.459L28.1227-70.459ZM11.6882-24.4797L46.9818-24.4797L46.2311-26.7288L12.4382-26.7288ZM55.1193 0L57.7637 0L30.6381-70.459L29.4327-70.459L29.4327-67.1326Z"/>
  </g>
  <line id="Baseline-M" style="fill:none;stroke:#27AAE1;opacity:1;stroke-width:0.5;" x1="263" x2="3036" y1="1126" y2="1126"/>
  <line id="Capline-M" style="fill:none;stroke:#27AAE1;opacity:1;stroke-width:0.5;" x1="263" x2="3036" y1="1055.54" y2="1055.54"/>
  <g id="H-reference" style="fill:#27AAE1;stroke:none;" transform="matrix(1 0 0 1 339 1556)">
   <path d="M0.993347 0L3.6377 0L29.3282-67.1326L30.0301-67.1326L30.0301-70.459L28.1227-70.459ZM11.6882-24.4797L46.9818-24.4797L46.2311-26.7288L12.4382-26.7288ZM55.1193 0L57.7637 0L30.6381-70.459L29.4327-70.459L29.4327-67.1326Z"/>
  </g>
  <line id="Baseline-L" style="fill:none;stroke:#27AAE1;opacity:1;stroke-width:0.5;" x1="263" x2="3036" y1="1556" y2="1556"/>
  <line id="Capline-L" style="fill:none;stroke:#27AAE1;opacity:1;stroke-width:0.5;" x1="263" x2="3036" y1="1485.54" y2="1485.54"/>
  <line id="left-margin" style="fill:none;stroke:#00AEEF;stroke-width:0.5;opacity:1.0;" x1="1391.32" x2="1391.32" y1="1030.79" y2="1150.12"/>
  <line id="right-margin" style="fill:none;stroke:#00AEEF;stroke-width:0.5;opacity:1.0;" x1="1508.37" x2="1508.37" y1="1030.79" y2="1150.12"/>
 </g>
 <g id="Symbols">
  <g id="Black-L" transform="matrix(1 0 0 1 2854.19 1556)">
   <path d="M79.1953 32.7252Q93.2356 32.7252 105.521 27.4303Q117.806 22.1354 127.174 12.7571Q136.542 3.37874 141.848-8.90649Q147.154-21.1917 147.154-35.2113Q147.154-49.2309 141.848-61.5161Q136.542-73.8013 127.164-83.1796Q117.785-92.558 105.5-97.8529Q93.2149-103.148 79.1746-103.148Q65.1563-103.148 52.8704-97.8529Q40.5846-92.558 31.2276-83.1796Q21.8707-73.8013 16.5647-61.5161Q11.2588-49.2309 11.2588-35.2113Q11.2588-21.1917 16.5647-8.90649Q21.8707 3.37874 31.238 12.7571Q40.6053 22.1354 52.8912 27.4303Q65.177 32.7252 79.1953 32.7252ZM79.1953 12.5777Q69.2941 12.5777 60.6256 8.86047Q51.9572 5.14327 45.4197-1.40458Q38.8822-7.95243 35.1644-16.6312Q31.4465-25.3101 31.4465-35.2113Q31.4465-45.1125 35.154-53.7913Q38.8615-62.4702 45.399-69.018Q51.9365-75.5659 60.6049-79.2831Q69.2734-83.0003 79.1746-83.0003Q89.0966-83.0003 97.776-79.2831Q106.455-75.5659 113.003-69.018Q119.551-62.4702 123.268-53.7913Q126.986-45.1125 126.986-35.2113Q126.986-25.3101 123.268-16.6312Q119.551-7.95243 113.003-1.40458Q106.455 5.14327 97.787 8.86047Q89.1186 12.5777 79.1953 12.5777ZM50.6591-45.7541L107.776-45.7541Q111.037-45.7541 113.046-47.6145Q115.054-49.475 115.054-52.4616Q115.054-55.5079 113.046-57.3573Q111.037-59.2068 107.776-59.2068L50.6591-59.2068Q47.4168-59.2068 45.4085-57.3573Q43.4001-55.5079 43.4001-52.4616Q43.4001-49.475 45.4085-47.6145Q47.4168-45.7541 50.6591-45.7541ZM57.3776-25.1408L101.057-25.1408Q104.262-25.1408 106.299-27.0006Q108.337-28.8604 108.337-31.8483Q108.337-34.8362 106.299-36.7252Q104.262-38.6142 101.057-38.6142L57.3776-38.6142Q54.1925-38.6142 52.1549-36.7252Q50.1174-34.8362 50.1174-31.8483Q50.1174-28.8604 52.1549-27.0006Q54.1925-25.1408 57.3776-25.1408ZM64.205-4.52364L94.2504-4.52364Q97.4343-4.52364 99.4718-6.38345Q101.509-8.24326 101.509-11.2311Q101.509-14.219 99.4718-16.108Q97.4343-17.9971 94.2504-17.9971L64.205-17.9971Q60.9991-17.9971 58.9726-16.108Q56.946-14.219 56.946-11.2311Q56.946-8.24326 58.9726-6.38345Q60.9991-4.52364 64.205-4.52364Z"/>
  </g>
  <g id="Heavy-L" transform="matrix(1 0 0 1 2558.42 1556)">
   <path d="M78.2511 31.7672Q92.088 31.7672 104.202 26.5464Q116.316 21.3256 125.559 12.0677Q134.802 2.8099 140.04-9.30402Q145.279-21.4179 145.279-35.2251Q145.279-49.0322 140.04-61.1461Q134.802-73.2601 125.544-82.5179Q116.286-91.7758 104.172-96.9966Q92.0582-102.217 78.2213-102.217Q64.4202-102.217 52.3033-96.9966Q40.1863-91.7758 30.9613-82.5179Q21.7362-73.2601 16.4975-61.1461Q11.2588-49.0322 11.2588-35.2251Q11.2588-21.4179 16.4975-9.30402Q21.7362 2.8099 30.9761 12.0677Q40.2161 21.3256 52.333 26.5464Q64.45 31.7672 78.2511 31.7672ZM78.2511 14.0252Q68.0447 14.0252 59.1149 10.2016Q50.1851 6.37791 43.4463-0.375708Q36.7076-7.12933 32.8809-16.074Q29.0543-25.0188 29.0543-35.2251Q29.0543-45.4314 32.8661-54.3761Q36.6778-63.3208 43.4166-70.0745Q50.1553-76.8281 59.0851-80.6517Q68.015-84.4754 78.2213-84.4754Q88.4574-84.4754 97.4051-80.6517Q106.353-76.8281 113.106-70.0745Q119.86-63.3208 123.684-54.3761Q127.507-45.4314 127.507-35.2251Q127.507-25.0188 123.684-16.074Q119.86-7.12933 113.106-0.375708Q106.353 6.37791 97.423 10.2016Q88.4932 14.0252 78.2511 14.0252ZM48.3189-46.2957L108.255-46.2957Q111.21-46.2957 113.042-47.9936Q114.874-49.6916 114.874-52.4088Q114.874-55.1766 113.042-56.8566Q111.21-58.5367 108.255-58.5367L48.3189-58.5367Q45.3874-58.5367 43.5556-56.8566Q41.7238-55.1766 41.7238-52.4088Q41.7238-49.6916 43.5556-47.9936Q45.3874-46.2957 48.3189-46.2957ZM55.6573-25.6277L100.916-25.6277Q103.833-25.6277 105.687-27.3227Q107.541-29.0176 107.541-31.7408Q107.541-34.464 105.687-36.1812Q103.833-37.8985 100.916-37.8985L55.6573-37.8985Q52.7644-37.8985 50.9103-36.1812Q49.0561-34.464 49.0561-31.7408Q49.0561-29.0176 50.9103-27.3227Q52.7644-25.6277 55.6573-25.6277ZM63.1686-4.94168L93.4349-4.94168Q96.3217-4.94168 98.1758-6.6366Q100.03-8.33152 100.03-11.0547Q100.03-13.7779 98.1758-15.4952Q96.3217-17.2124 93.4349-17.2124L63.1686-17.2124Q60.246-17.2124 58.4098-15.4952Q56.5735-13.7779 56.5735-11.0547Q56.5735-8.33152 58.4098-6.6366Q60.246-4.94168 63.1686-4.94168Z"/>
  </g>
  <g id="Bold-L" transform="matrix(1 0 0 1 2262.89 1556)">
   <path d="M77.0653 30.566Q90.6516 30.566 102.549 25.4396Q114.447 20.3133 123.533 11.2089Q132.619 2.10448 137.771-9.79333Q142.923-21.6912 142.923-35.2405Q142.923-48.7898 137.771-60.6877Q132.619-72.5855 123.515-81.6899Q114.41-90.7942 102.512-95.9206Q90.6146-101.047 77.0283-101.047Q63.4932-101.047 51.5882-95.9206Q39.6833-90.7942 30.623-81.6899Q21.5627-72.5855 16.4108-60.6877Q11.2588-48.7898 11.2588-35.2405Q11.2588-21.6912 16.4108-9.79333Q21.5627 2.10448 30.6415 11.2089Q39.7203 20.3133 51.6252 25.4396Q63.5301 30.566 77.0653 30.566ZM77.0653 15.8201Q66.4831 15.8201 57.2278 11.8629Q47.9725 7.90583 40.9827 0.897553Q33.9929-6.11072 30.0287-15.3845Q26.0645-24.6583 26.0645-35.2405Q26.0645-45.8227 30.0102-55.0965Q33.9559-64.3703 40.9457-71.3786Q47.9355-78.3868 57.1908-82.3439Q66.4461-86.3011 77.0283-86.3011Q87.6474-86.3011 96.9283-82.3439Q106.209-78.3868 113.218-71.3786Q120.226-64.3703 124.183-55.0965Q128.14-45.8227 128.14-35.2405Q128.14-24.6583 124.183-15.3845Q120.226-6.11072 113.218 0.897553Q106.209 7.90583 96.954 11.8629Q87.6986 15.8201 77.0653 15.8201ZM45.5025-47.0628L108.73-47.0628Q111.282-47.0628 112.881-48.5473Q114.479-50.0317 114.479-52.3928Q114.479-54.7974 112.881-56.2563Q111.282-57.7151 108.73-57.7151L45.5025-57.7151Q42.9734-57.7151 41.375-56.2563Q39.7766-54.7974 39.7766-52.3928Q39.7766-50.0317 41.375-48.5473Q42.9734-47.0628 45.5025-47.0628ZM53.5256-26.3423L100.707-26.3423Q103.244-26.3423 104.857-27.8197Q106.47-29.297 106.47-31.6724Q106.47-34.0477 104.857-35.5397Q103.244-37.0316 100.707-37.0316L53.5256-37.0316Q51.0115-37.0316 49.3985-35.5397Q47.7855-34.0477 47.7855-31.6724Q47.7855-29.297 49.3985-27.8197Q51.0115-26.3423 53.5256-26.3423ZM61.7906-5.57912L92.4794-5.57912Q94.9793-5.57912 96.5923-7.05649Q98.2053-8.53387 98.2053-10.9092Q98.2053-13.2845 96.5923-14.7765Q94.9793-16.2685 92.4794-16.2685L61.7906-16.2685Q59.2395-16.2685 57.6521-14.7765Q56.0647-13.2845 56.0647-10.9092Q56.0647-8.53387 57.6521-7.05649Q59.2395-5.57912 61.7906-5.57912Z"/>
  </g>
  <g id="Semibold-L" transform="matrix(1 0 0 1 1966.99 1556)">
   <path d="M76.2478 29.7379Q89.6614 29.7379 101.41 24.6766Q113.159 19.6153 122.137 10.6168Q131.114 1.61818 136.206-10.1307Q141.299-21.8795 141.299-35.2511Q141.299-48.6228 136.206-60.3716Q131.114-72.1204 122.116-81.119Q113.117-90.1176 101.368-95.1789Q89.6194-100.24 76.2058-100.24Q62.854-100.24 51.0953-95.1789Q39.3365-90.1176 30.3898-81.119Q21.4432-72.1204 16.351-60.3716Q11.2588-48.6228 11.2588-35.2511Q11.2588-21.8795 16.351-10.1307Q21.4432 1.61818 30.4108 10.6168Q39.3785 19.6153 51.1372 24.6766Q62.896 29.7379 76.2478 29.7379ZM76.2478 17.0574Q65.4065 17.0574 55.9268 13.0083Q46.4471 8.95916 39.2843 1.77533Q32.1214-5.4085 28.0624-14.9092Q24.0033-24.4099 24.0033-35.2511Q24.0033-46.0924 28.0414-55.5931Q32.0795-65.0938 39.2423-72.2776Q46.4052-79.4614 55.8848-83.5105Q65.3645-87.5597 76.2058-87.5597Q87.089-87.5597 96.5997-83.5105Q106.11-79.4614 113.294-72.2776Q120.478-65.0938 124.527-55.5931Q128.576-46.0924 128.576-35.2511Q128.576-24.4099 124.527-14.9092Q120.478-5.4085 113.294 1.77533Q106.11 8.95916 96.6306 13.0083Q87.1509 17.0574 76.2478 17.0574ZM43.5609-47.5916L109.058-47.5916Q111.332-47.5916 112.77-48.9289Q114.207-50.2662 114.207-52.3819Q114.207-54.536 112.77-55.8424Q111.332-57.1488 109.058-57.1488L43.5609-57.1488Q41.3092-57.1488 39.8717-55.8424Q38.4343-54.536 38.4343-52.3819Q38.4343-50.2662 39.8717-48.9289Q41.3092-47.5916 43.5609-47.5916ZM52.0561-26.8349L100.563-26.8349Q102.838-26.8349 104.285-28.1623Q105.732-29.4897 105.732-31.6252Q105.732-33.7607 104.285-35.0974Q102.838-36.4341 100.563-36.4341L52.0561-36.4341Q49.803-36.4341 48.3563-35.0974Q46.9096-33.7607 46.9096-31.6252Q46.9096-29.4897 48.3563-28.1623Q49.803-26.8349 52.0561-26.8349ZM60.8406-6.01856L91.8206-6.01856Q94.0538-6.01856 95.5006-7.34596Q96.9473-8.67336 96.9473-10.8089Q96.9473-12.9444 95.5006-14.2811Q94.0538-15.6177 91.8206-15.6177L60.8406-15.6177Q58.5455-15.6177 57.1297-14.2811Q55.7139-12.9444 55.7139-10.8089Q55.7139-8.67336 57.1297-7.34596Q58.5455-6.01856 60.8406-6.01856Z"/>
  </g>
  <g id="Medium-L" transform="matrix(1 0 0 1 1670.9 1556)">
   <path d="M75.6279 29.11Q88.9106 29.11 100.546 24.0981Q112.182 19.0862 121.078 10.1678Q129.973 1.24944 135.02-10.3864Q140.067-22.0223 140.067-35.2592Q140.067-48.4961 135.02-60.1319Q129.973-71.7678 121.055-80.6862Q112.137-89.6045 100.501-94.6164Q88.8648-99.6283 75.5822-99.6283Q62.3695-99.6283 50.7215-94.6164Q39.0736-89.6045 30.213-80.6862Q21.3525-71.7678 16.3056-60.1319Q11.2588-48.4961 11.2588-35.2592Q11.2588-22.0223 16.3056-10.3864Q21.3525 1.24944 30.2359 10.1678Q39.1193 19.0862 50.7673 24.0981Q62.4152 29.11 75.6279 29.11ZM75.6279 17.9956Q64.5902 17.9956 54.9404 13.8767Q45.2905 9.75784 37.9965 2.4409Q30.7024-4.87605 26.5714-14.5488Q22.4405-24.2215 22.4405-35.2592Q22.4405-46.2969 26.5486-55.9696Q30.6567-65.6423 37.9507-72.9593Q45.2448-80.2762 54.8946-84.3951Q64.5445-88.514 75.5822-88.514Q86.6657-88.514 96.3504-84.3951Q106.035-80.2762 113.352-72.9593Q120.669-65.6423 124.788-55.9696Q128.907-46.2969 128.907-35.2592Q128.907-24.2215 124.788-14.5488Q120.669-4.87605 113.352 2.4409Q106.035 9.75784 96.3854 13.8767Q86.7356 17.9956 75.6279 17.9956ZM42.0888-47.9925L109.307-47.9925Q111.37-47.9925 112.685-49.2183Q114.001-50.4441 114.001-52.3736Q114.001-54.3377 112.685-55.5285Q111.37-56.7193 109.307-56.7193L42.0888-56.7193Q40.0473-56.7193 38.7319-55.5285Q37.4165-54.3377 37.4165-52.3736Q37.4165-50.4441 38.7319-49.2183Q40.0473-47.9925 42.0888-47.9925ZM50.9418-27.2084L100.454-27.2084Q102.531-27.2084 103.851-28.4221Q105.172-29.6357 105.172-31.5894Q105.172-33.5431 103.851-34.762Q102.531-35.9809 100.454-35.9809L50.9418-35.9809Q48.8867-35.9809 47.566-34.762Q46.2454-33.5431 46.2454-31.5894Q46.2454-29.6357 47.566-28.4221Q48.8867-27.2084 50.9418-27.2084ZM60.1203-6.35177L91.3212-6.35177Q93.3521-6.35177 94.6728-7.56545Q95.9935-8.77913 95.9935-10.7328Q95.9935-12.6864 94.6728-13.9054Q93.3521-15.1243 91.3212-15.1243L60.1203-15.1243Q58.0194-15.1243 56.7337-13.9054Q55.448-12.6864 55.448-10.7328Q55.448-8.77913 56.7337-7.56545Q58.0194-6.35177 60.1203-6.35177Z"/>
  </g>
  <g id="Regular-L" transform="matrix(1 0 0 1 1374.99 1556)">
   <path d="M74.8194 28.2909Q87.9312 28.2909 99.4198 23.3434Q110.908 18.3959 119.697 9.58221Q128.485 0.768476 133.473-10.7201Q138.46-22.2086 138.46-35.2697Q138.46-48.3308 133.473-59.8193Q128.485-71.3079 119.671-80.1216Q110.858-88.9353 99.3691-93.8828Q87.8805-98.8303 74.7687-98.8303Q61.7374-98.8303 50.234-93.8828Q38.7306-88.9353 29.9824-80.1216Q21.2342-71.3079 16.2465-59.8193Q11.2588-48.3308 11.2588-35.2697Q11.2588-22.2086 16.2465-10.7201Q21.2342 0.768476 30.0077 9.58221Q38.7813 18.3959 50.2847 23.3434Q61.7881 28.2909 74.8194 28.2909ZM74.8194 19.2194Q63.5255 19.2194 53.6537 15.0095Q43.7819 10.7996 36.3167 3.30903Q28.8515-4.18154 24.6267-14.0786Q20.402-23.9757 20.402-35.2697Q20.402-46.5637 24.6014-56.4608Q28.8008-66.3579 36.266-73.8484Q43.7313-81.339 53.603-85.5489Q63.4748-89.7588 74.7687-89.7588Q86.1134-89.7588 96.0254-85.5489Q105.937-81.339 113.428-73.8484Q120.918-66.3579 125.128-56.4608Q129.338-46.5637 129.338-35.2697Q129.338-23.9757 125.128-14.0786Q120.918-4.18154 113.428 3.30903Q105.937 10.7996 96.0656 15.0095Q86.1938 19.2194 74.8194 19.2194ZM40.1685-48.5155L109.631-48.5155Q111.419-48.5155 112.576-49.5958Q113.732-50.676 113.732-52.3627Q113.732-54.0792 112.576-55.1192Q111.419-56.1592 109.631-56.1592L40.1685-56.1592Q38.4014-56.1592 37.2451-55.1192Q36.0889-54.0792 36.0889-52.3627Q36.0889-50.676 37.2451-49.5958Q38.4014-48.5155 40.1685-48.5155ZM49.4884-27.6956L100.311-27.6956Q102.129-27.6956 103.285-28.7609Q104.442-29.8263 104.442-31.5427Q104.442-33.2592 103.285-34.3246Q102.129-35.3899 100.311-35.3899L49.4884-35.3899Q47.6915-35.3899 46.5353-34.3246Q45.379-33.2592 45.379-31.5427Q45.379-29.8263 46.5353-28.7609Q47.6915-27.6956 49.4884-27.6956ZM59.1807-6.78639L90.6697-6.78639Q92.4368-6.78639 93.5931-7.85174Q94.7493-8.9171 94.7493-10.6336Q94.7493-12.35 93.5931-13.4154Q92.4368-14.4807 90.6697-14.4807L59.1807-14.4807Q57.3331-14.4807 56.2171-13.4154Q55.1011-12.35 55.1011-10.6336Q55.1011-8.9171 56.2171-7.85174Q57.3331-6.78639 59.1807-6.78639Z"/>
  </g>
  <g id="Light-L" transform="matrix(1 0 0 1 1079.2 1556)">
   <path d="M73.8959 27.3674Q86.8436 27.3674 98.1577 22.502Q109.472 17.6366 118.137 8.95629Q126.802 0.275949 131.708-11.0381Q136.614-22.3522 136.614-35.2697Q136.614-48.1872 131.708-59.5013Q126.802-70.8154 118.122-79.4957Q109.442-88.176 98.1275-93.0414Q86.8134-97.9069 73.8658-97.9069Q60.9986-97.9069 49.6594-93.0414Q38.3201-88.176 29.6951-79.4957Q21.07-70.8154 16.1644-59.5013Q11.2588-48.1872 11.2588-35.2697Q11.2588-22.3522 16.1644-11.0381Q21.07 0.275949 29.7102 8.95629Q38.3503 17.6366 49.6895 22.502Q61.0287 27.3674 73.8959 27.3674ZM73.8959 20.4712Q62.3557 20.4712 52.2479 16.1587Q42.1402 11.8462 34.4903 4.18122Q26.8403-3.48379 22.5027-13.6066Q18.1651-23.7295 18.1651-35.2697Q18.1651-46.8099 22.4876-56.9328Q26.8102-67.0556 34.4601-74.7206Q42.11-82.3856 52.2178-86.6981Q62.3255-91.0106 73.8658-91.0106Q85.4362-91.0106 95.5841-86.6981Q105.732-82.3856 113.397-74.7206Q121.062-67.0556 125.375-56.9328Q129.687-46.8099 129.687-35.2697Q129.687-23.7295 125.375-13.6066Q121.062-3.48379 113.397 4.18122Q105.732 11.8462 95.6244 16.1587Q85.5166 20.4712 73.8959 20.4712ZM38.7525-49.6648L109.2-49.6648Q110.557-49.6648 111.457-50.5192Q112.357-51.3737 112.357-52.6705Q112.357-54.0176 111.457-54.8319Q110.557-55.6461 109.2-55.6461L38.7525-55.6461Q37.3753-55.6461 36.4755-54.8319Q35.5758-54.0176 35.5758-52.6705Q35.5758-51.3737 36.4755-50.5192Q37.3753-49.6648 38.7525-49.6648ZM48.0108-28.9064L99.9419-28.9064Q101.349-28.9064 102.249-29.7357Q103.149-30.5651 103.149-31.9121Q103.149-33.2592 102.249-34.0886Q101.349-34.9179 99.9419-34.9179L48.0108-34.9179Q46.5833-34.9179 45.6836-34.0886Q44.7839-33.2592 44.7839-31.9121Q44.7839-30.5651 45.6836-29.7357Q46.5833-28.9064 48.0108-28.9064ZM57.621-7.99718L90.3619-7.99718Q91.7391-7.99718 92.6388-8.82654Q93.5385-9.65589 93.5385-11.003Q93.5385-12.35 92.6388-13.1794Q91.7391-14.0087 90.3619-14.0087L57.621-14.0087Q56.1634-14.0087 55.3039-13.1794Q54.4443-12.35 54.4443-11.003Q54.4443-9.65589 55.3039-8.82654Q56.1634-7.99718 57.621-7.99718Z"/>
  </g>
  <g id="Thin-L" transform="matrix(1 0 0 1 783.716 1556)">
   <path d="M72.6746 26.1461Q85.405 26.1461 96.4884 21.3892Q107.572 16.6324 116.074 8.12846Q124.577-0.375458 129.374-11.4588Q134.171-22.5422 134.171-35.2697Q134.171-47.9972 129.374-59.0806Q124.577-70.1639 116.073-78.6679Q107.569-87.1718 96.4854-91.9286Q85.402-96.6855 72.6715-96.6855Q60.0215-96.6855 48.8994-91.9286Q37.7773-87.1718 29.3151-78.6679Q20.8529-70.1639 16.0558-59.0806Q11.2588-47.9972 11.2588-35.2697Q11.2588-22.5422 16.0558-11.4588Q20.8529-0.375458 29.3166 8.12846Q37.7803 16.6324 48.9024 21.3892Q60.0245 26.1461 72.6746 26.1461ZM72.6746 22.1269Q60.8086 22.1269 50.3887 17.6787Q39.9688 13.2305 32.0746 5.33475Q24.1804-2.56097 19.6935-12.9824Q15.2066-23.4038 15.2066-35.2697Q15.2066-47.1356 19.692-57.557Q24.1774-67.9784 32.0716-75.8742Q39.9658-83.7699 50.3857-88.2181Q60.8056-92.6663 72.6715-92.6663Q84.5405-92.6663 95.0006-88.2181Q105.461-83.7699 113.356-75.8742Q121.252-67.9784 125.7-57.557Q130.149-47.1356 130.149-35.2697Q130.149-23.4038 125.7-12.9824Q121.252-2.56097 113.356 5.33475Q105.461 13.2305 95.0408 17.6787Q84.6209 22.1269 72.6746 22.1269ZM36.8797-51.1847L108.63-51.1847Q109.417-51.1847 109.978-51.7406Q110.538-52.2966 110.538-53.0777Q110.538-53.9362 109.978-54.4519Q109.417-54.9676 108.63-54.9676L36.8797-54.9676Q36.0182-54.9676 35.4577-54.4519Q34.8973-53.9362 34.8973-53.0777Q34.8973-52.2966 35.4577-51.7406Q36.0182-51.1847 36.8797-51.1847ZM46.0566-30.5077L99.4533-30.5077Q100.318-30.5077 100.878-31.025Q101.439-31.5422 101.439-32.4007Q101.439-33.2592 100.878-33.7764Q100.318-34.2936 99.4533-34.2936L46.0566-34.2936Q45.1177-34.2936 44.5572-33.7764Q43.9968-33.2592 43.9968-32.4007Q43.9968-31.5422 44.5572-31.025Q45.1177-30.5077 46.0566-30.5077ZM55.5582-9.59856L89.9547-9.59856Q90.8163-9.59856 91.3767-10.1158Q91.9372-10.633 91.9372-11.4915Q91.9372-12.35 91.3767-12.8672Q90.8163-13.3845 89.9547-13.3845L55.5582-13.3845Q54.6163-13.3845 54.096-12.8672Q53.5758-12.35 53.5758-11.4915Q53.5758-10.633 54.096-10.1158Q54.6163-9.59856 55.5582-9.59856Z"/>
  </g>
  <g id="Ultralight-L" transform="matrix(1 0 0 1 487.631 1556)">
   <path d="M72.049 25.5205Q84.6682 25.5205 95.6335 20.8192Q106.599 16.118 115.018 7.70445Q123.437-0.709105 128.178-11.6743Q132.92-22.6395 132.92-35.2697Q132.92-47.8999 128.178-58.8651Q123.437-69.8303 115.023-78.2439Q106.61-86.6574 95.6443-91.3586Q84.6791-96.0599 72.0598-96.0599Q59.521-96.0599 48.5101-91.3586Q37.4993-86.6574 29.1205-78.2439Q20.7417-69.8303 16.0002-58.8651Q11.2588-47.8999 11.2588-35.2697Q11.2588-22.6395 16.0002-11.6743Q20.7417-0.709105 29.115 7.70445Q37.4884 16.118 48.4992 20.8192Q59.5101 25.5205 72.049 25.5205ZM72.049 22.9749Q60.0162 22.9749 49.4364 18.4572Q38.8567 13.9395 30.8374 5.92558Q22.818-2.0883 18.2546-12.6626Q13.6913-23.2369 13.6913-35.2697Q13.6913-47.3025 18.2601-57.8768Q22.8289-68.4511 30.8482-76.465Q38.8676-84.4789 49.4473-88.9966Q60.0271-93.5143 72.0598-93.5143Q84.0817-93.5143 94.7017-88.9966Q105.322-84.4789 113.336-76.465Q121.349-68.4511 125.867-57.8768Q130.385-47.3025 130.385-35.2697Q130.385-23.2369 125.867-12.6626Q121.349-2.0883 113.336 5.92558Q105.322 13.9395 94.7419 18.4572Q84.1621 22.9749 72.049 22.9749ZM35.9204-51.9632L108.338-51.9632Q108.834-51.9632 109.22-52.3662Q109.607-52.7692 109.607-53.2862Q109.607-53.8945 109.22-54.2573Q108.834-54.62 108.338-54.62L35.9204-54.62Q35.3231-54.62 34.9364-54.2573Q34.5497-53.8945 34.5497-53.2862Q34.5497-52.7692 34.9364-52.3662Q35.3231-51.9632 35.9204-51.9632ZM45.0557-31.328L99.2031-31.328Q99.7896-31.328 100.176-31.6853Q100.563-32.0426 100.563-32.6509Q100.563-33.2592 100.176-33.6166Q99.7896-33.9739 99.2031-33.9739L45.0557-33.9739Q44.367-33.9739 43.9803-33.6166Q43.5936-33.2592 43.5936-32.6509Q43.5936-32.0426 43.9803-31.6853Q44.367-31.328 45.0557-31.328ZM54.5017-10.4188L89.7462-10.4188Q90.3436-10.4188 90.7303-10.7761Q91.1169-11.1335 91.1169-11.7417Q91.1169-12.35 90.7303-12.7074Q90.3436-13.0647 89.7462-13.0647L54.5017-13.0647Q53.8239-13.0647 53.4774-12.7074Q53.1309-12.35 53.1309-11.7417Q53.1309-11.1335 53.4774-10.7761Q53.8239-10.4188 54.5017-10.4188Z"/>
  </g>
  <g id="Black-M" transform="matrix(1 0 0 1 2871.36 1126)">
   <path d="M62.0423 18.1161Q73.0725 18.1161 82.714 13.9613Q92.3555 9.80654 99.704 2.45531Q107.052-4.89592 111.21-14.5374Q115.367-24.1789 115.367-35.2035Q115.367-46.2282 111.21-55.8697Q107.052-65.5112 99.7012-72.8624Q92.35-80.2136 82.7085-84.3684Q73.067-88.5232 62.0368-88.5232Q51.0119-88.5232 41.3705-84.3684Q31.7292-80.2136 24.3833-72.8624Q17.0375-65.5112 12.8801-55.8697Q8.72266-46.2282 8.72266-35.2035Q8.72266-24.1789 12.8801-14.5374Q17.0375-4.89592 24.3861 2.45531Q31.7347 9.80654 41.376 13.9613Q51.0174 18.1161 62.0423 18.1161ZM62.0423 0.734266Q54.6003 0.734266 48.0771-2.06802Q41.554-4.87031 36.637-9.78999Q31.7201-14.7097 28.918-21.2356Q26.1159-27.7615 26.1159-35.2035Q26.1159-42.6456 28.9152-49.1715Q31.7146-55.6974 36.6315-60.6171Q41.5485-65.5368 48.0716-68.3391Q54.5948-71.1414 62.0368-71.1414Q69.4844-71.1414 76.0102-68.3391Q82.5359-65.5368 87.4556-60.6171Q92.3753-55.6974 95.1776-49.1715Q97.9799-42.6456 97.9799-35.2035Q97.9799-27.7615 95.1776-21.2356Q92.3753-14.7097 87.4556-9.78999Q82.5359-4.87031 76.0128-2.06802Q69.4896 0.734266 62.0423 0.734266ZM41.067-43.0735L83.0281-43.0735Q85.76-43.0735 87.433-44.624Q89.1059-46.1744 89.1059-48.667Q89.1059-51.2164 87.433-52.7642Q85.76-54.3121 83.0281-54.3121L41.067-54.3121Q38.3409-54.3121 36.668-52.7642Q34.995-51.2164 34.995-48.667Q34.995-46.1744 36.668-44.624Q38.3409-43.0735 41.067-43.0735ZM45.7312-27.1589L78.3639-27.1589Q81.0385-27.1589 82.74-28.7095Q84.4414-30.2601 84.4414-32.7524Q84.4414-35.2446 82.74-36.8238Q81.0385-38.4029 78.3639-38.4029L45.7312-38.4029Q43.0624-38.4029 41.3609-36.8238Q39.6595-35.2446 39.6595-32.7524Q39.6595-30.2601 41.3609-28.7095Q43.0624-27.1589 45.7312-27.1589ZM50.4216-11.2452L73.679-11.2452Q76.348-11.2452 78.0495-12.7958Q79.751-14.3464 79.751-16.8386Q79.751-19.3309 78.0495-20.91Q76.348-22.4892 73.679-22.4892L50.4216-22.4892Q47.7474-22.4892 46.0485-20.91Q44.3496-19.3309 44.3496-16.8386Q44.3496-14.3464 46.0485-12.7958Q47.7474-11.2452 50.4216-11.2452Z"/>
  </g>
  <g id="Heavy-M" transform="matrix(1 0 0 1 2575.48 1126)">
   <path d="M61.2045 17.2648Q72.0509 17.2648 81.541 13.1749Q91.0312 9.08498 98.2688 1.83921Q105.506-5.40657 109.606-14.8967Q113.705-24.3868 113.705-35.217Q113.705-46.0473 109.606-55.5374Q105.506-65.0275 98.2607-72.2733Q91.0149-79.519 81.5248-83.6089Q72.0347-87.6988 61.1882-87.6988Q50.3604-87.6988 40.8691-83.6089Q31.3778-79.519 24.1495-72.2733Q16.9211-65.0275 12.8219-55.5374Q8.72266-46.0473 8.72266-35.217Q8.72266-24.3868 12.8219-14.8967Q16.9211-5.40657 24.1576 1.83921Q31.394 9.08498 40.8853 13.1749Q50.3767 17.2648 61.2045 17.2648ZM61.2045 2.03385Q53.4869 2.03385 46.73-0.86303Q39.9731-3.75991 34.8765-8.86466Q29.7798-13.9694 26.8817-20.7344Q23.9836-27.4994 23.9836-35.217Q23.9836-42.9346 26.8736-49.6996Q29.7636-56.4646 34.8602-61.5694Q39.9568-66.6741 46.7137-69.571Q53.4706-72.4679 61.1882-72.4679Q68.922-72.4679 75.6883-69.571Q82.4545-66.6741 87.5593-61.5694Q92.664-56.4646 95.5609-49.6996Q98.4578-42.9346 98.4578-35.217Q98.4578-27.4994 95.5609-20.7344Q92.664-13.9694 87.5593-8.86466Q82.4545-3.75991 75.6976-0.86303Q68.9407 2.03385 61.2045 2.03385ZM38.91-43.497L83.5363-43.497Q86.0084-43.497 87.5324-44.9094Q89.0564-46.3218 89.0564-48.587Q89.0564-50.8982 87.5324-52.3013Q86.0084-53.7043 83.5363-53.7043L38.91-53.7043Q36.4517-53.7043 34.9277-52.3013Q33.4037-50.8982 33.4037-48.587Q33.4037-46.3218 34.9277-44.9094Q36.4517-43.497 38.91-43.497ZM44.1857-27.5232L78.2606-27.5232Q80.6915-27.5232 82.2373-28.9344Q83.7831-30.3456 83.7831-32.6132Q83.7831-34.8808 82.2373-36.3138Q80.6915-37.7468 78.2606-37.7468L44.1857-37.7468Q41.7686-37.7468 40.2228-36.3138Q38.6769-34.8808 38.6769-32.6132Q38.6769-30.3456 40.2228-28.9344Q41.7686-27.5232 44.1857-27.5232ZM49.5524-11.5421L72.9101-11.5421Q75.3248-11.5421 76.8706-12.9533Q78.4165-14.3645 78.4165-16.6321Q78.4165-18.8997 76.8706-20.3327Q75.3248-21.7657 72.9101-21.7657L49.5524-21.7657Q47.119-21.7657 45.5826-20.3327Q44.0461-18.8997 44.0461-16.6321Q44.0461-14.3645 45.5826-12.9533Q47.119-11.5421 49.5524-11.5421Z"/>
  </g>
  <g id="Bold-M" transform="matrix(1 0 0 1 2279.69 1126)">
   <path d="M60.2672 16.3124Q70.9082 16.3124 80.2289 12.2951Q89.5497 8.27781 96.6634 1.15Q103.777-5.9778 107.811-15.2986Q111.845-24.6193 111.845-35.2321Q111.845-45.8449 107.811-55.1656Q103.777-64.4864 96.6493-71.6142Q89.5215-78.742 80.2007-82.7593Q70.8799-86.7766 60.2389-86.7766Q49.6317-86.7766 40.3082-82.7593Q30.9846-78.742 23.8878-71.6142Q16.791-64.4864 12.7568-55.1656Q8.72266-45.8449 8.72266-35.2321Q8.72266-24.6193 12.7568-15.2986Q16.791-5.9778 23.902 1.15Q31.0129 8.27781 40.3364 12.2951Q49.6599 16.3124 60.2672 16.3124ZM60.2672 3.48763Q52.2414 3.48763 45.223 0.484927Q38.2046-2.51777 32.907-7.82954Q27.6093-13.1413 24.6039-20.1738Q21.5984-27.2063 21.5984-35.2321Q21.5984-43.2579 24.5897-50.2904Q27.5811-57.3229 32.8787-62.6347Q38.1764-67.9464 45.1948-70.9491Q52.2131-73.9518 60.2389-73.9518Q68.293-73.9518 75.3282-70.9491Q82.3635-67.9464 87.6752-62.6347Q92.987-57.3229 95.9897-50.2904Q98.9924-43.2579 98.9924-35.2321Q98.9924-27.2063 95.9897-20.1738Q92.987-13.1413 87.6752-7.82954Q82.3635-2.51777 75.3451 0.484927Q68.3267 3.48763 60.2672 3.48763ZM36.4971-43.9707L84.1048-43.9707Q86.2862-43.9707 87.6436-45.2287Q89.0011-46.4867 89.0011-48.4975Q89.0011-50.5423 87.6436-51.7834Q86.2862-53.0245 84.1048-53.0245L36.4971-53.0245Q34.3384-53.0245 32.9809-51.7834Q31.6235-50.5423 31.6235-48.4975Q31.6235-46.4867 32.9809-45.2287Q34.3384-43.9707 36.4971-43.9707ZM42.457-27.9308L78.1449-27.9308Q80.3033-27.9308 81.675-29.186Q83.0467-30.4412 83.0467-32.4575Q83.0467-34.4738 81.675-35.7433Q80.3033-37.0128 78.1449-37.0128L42.457-37.0128Q40.3213-37.0128 38.9495-35.7433Q37.5778-34.4738 37.5778-32.4575Q37.5778-30.4412 38.9495-29.186Q40.3213-27.9308 42.457-27.9308ZM48.5801-11.8743L72.05-11.8743Q74.1802-11.8743 75.5519-13.1295Q76.9236-14.3848 76.9236-16.4011Q76.9236-18.4174 75.5519-19.6869Q74.1802-20.9564 72.05-20.9564L48.5801-20.9564Q46.4162-20.9564 45.0613-19.6869Q43.7065-18.4174 43.7065-16.4011Q43.7065-14.3848 45.0613-13.1295Q46.4162-11.8743 48.5801-11.8743Z"/>
  </g>
  <g id="Semibold-M" transform="matrix(1 0 0 1 1983.62 1126)">
   <path d="M59.621 15.6559Q70.1203 15.6559 79.3244 11.6886Q88.5284 7.72135 95.5566 0.674869Q102.585-6.37161 106.574-15.5756Q110.564-24.7797 110.564-35.2425Q110.564-45.7053 106.574-54.9093Q102.585-64.1134 95.5384-71.1598Q88.4919-78.2063 79.2879-82.1736Q70.0838-86.1408 59.5845-86.1408Q49.1293-86.1408 39.9215-82.1736Q30.7136-78.2063 23.7075-71.1598Q16.7013-64.1134 12.712-54.9093Q8.72266-45.7053 8.72266-35.2425Q8.72266-24.7797 12.712-15.5756Q16.7013-6.37161 23.7257 0.674869Q30.7501 7.72135 39.958 11.6886Q49.1658 15.6559 59.621 15.6559ZM59.621 4.48985Q51.3827 4.48985 44.1841 1.4142Q36.9855-1.66145 31.5492-7.11594Q26.113-12.5704 23.0335-19.7873Q19.954-27.0042 19.954-35.2425Q19.954-43.4808 23.0153-50.6977Q26.0765-57.9145 31.5127-63.369Q36.9489-68.8235 44.1476-71.8992Q51.3462-74.9748 59.5845-74.9748Q67.8593-74.9748 75.08-71.8992Q82.3007-68.8235 87.7552-63.369Q93.2097-57.9145 96.2853-50.6977Q99.361-43.4808 99.361-35.2425Q99.361-27.0042 96.2853-19.7873Q93.2097-12.5704 87.7552-7.11594Q82.3007-1.66145 75.1021 1.4142Q67.9035 4.48985 59.621 4.48985ZM34.8336-44.2973L84.4967-44.2973Q86.4777-44.2973 87.7203-45.4488Q88.963-46.6003 88.963-48.4357Q88.963-50.2969 87.7203-51.4264Q86.4777-52.5559 84.4967-52.5559L34.8336-52.5559Q32.8815-52.5559 31.6388-51.4264Q30.3962-50.2969 30.3962-48.4357Q30.3962-46.6003 31.6388-45.4488Q32.8815-44.2973 34.8336-44.2973ZM41.2651-28.2118L78.0652-28.2118Q80.0357-28.2118 81.2874-29.3595Q82.5391-30.5072 82.5391-32.3502Q82.5391-34.1933 81.2874-35.3501Q80.0357-36.5068 78.0652-36.5068L41.2651-36.5068Q39.3235-36.5068 38.0718-35.3501Q36.8201-34.1933 36.8201-32.3502Q36.8201-30.5072 38.0718-29.3595Q39.3235-28.2118 41.2651-28.2118ZM47.9098-12.1033L71.4571-12.1033Q73.3911-12.1033 74.6428-13.251Q75.8945-14.3988 75.8945-16.2418Q75.8945-18.0848 74.6428-19.2416Q73.3911-20.3984 71.4571-20.3984L47.9098-20.3984Q45.9316-20.3984 44.702-19.2416Q43.4724-18.0848 43.4724-16.2418Q43.4724-14.3988 44.702-13.251Q45.9316-12.1033 47.9098-12.1033Z"/>
  </g>
  <g id="Medium-M" transform="matrix(1 0 0 1 1687.4 1126)">
   <path d="M59.1311 15.158Q69.523 15.158 78.6385 11.2287Q87.754 7.29942 94.7174 0.314603Q101.681-6.67021 105.636-15.7857Q109.591-24.9012 109.591-35.2504Q109.591-45.5995 105.636-54.715Q101.681-63.8305 94.696-70.8153Q87.7112-77.8002 78.5957-81.7295Q69.4802-85.6588 59.0883-85.6588Q48.7484-85.6588 39.6283-81.7295Q30.5081-77.8002 23.5707-70.8153Q16.6333-63.8305 12.678-54.715Q8.72266-45.5995 8.72266-35.2504Q8.72266-24.9012 12.678-15.7857Q16.6333-6.67021 23.5921 0.314603Q30.5509 7.29942 39.671 11.2287Q48.7912 15.158 59.1311 15.158ZM59.1311 5.24978Q50.7316 5.24978 43.3963 2.11881Q36.061-1.01215 30.5197-6.57486Q24.9784-12.1376 21.8428-19.4943Q18.7072-26.8509 18.7072-35.2504Q18.7072-43.6498 21.8214-51.0065Q24.9356-58.3632 30.4769-63.9259Q36.0183-69.4886 43.3536-72.6195Q50.6889-75.7505 59.0883-75.7505Q67.5305-75.7505 74.8918-72.6195Q82.2531-69.4886 87.8158-63.9259Q93.3785-58.3632 96.5095-51.0065Q99.6405-43.6498 99.6405-35.2504Q99.6405-26.8509 96.5095-19.4943Q93.3785-12.1376 87.8158-6.57486Q82.2531-1.01215 74.9178 2.11881Q67.5825 5.24978 59.1311 5.24978ZM33.5723-44.5449L84.7939-44.5449Q86.6229-44.5449 87.7785-45.6157Q88.934-46.6865 88.934-48.3889Q88.934-50.1109 87.7785-51.1557Q86.6229-52.2005 84.7939-52.2005L33.5723-52.2005Q31.7768-52.2005 30.6212-51.1557Q29.4657-50.1109 29.4657-48.3889Q29.4657-46.6865 30.6212-45.6157Q31.7768-44.5449 33.5723-44.5449ZM40.3615-28.4248L78.0047-28.4248Q79.8328-28.4248 80.9935-29.491Q82.1541-30.5572 82.1541-32.2688Q82.1541-33.9805 80.9935-35.0518Q79.8328-36.1232 78.0047-36.1232L40.3615-36.1232Q38.5669-36.1232 37.4063-35.0518Q36.2456-33.9805 36.2456-32.2688Q36.2456-30.5572 37.4063-29.491Q38.5669-28.4248 40.3615-28.4248ZM47.4015-12.277L71.0075-12.277Q72.7927-12.277 73.9534-13.3432Q75.1141-14.4094 75.1141-16.121Q75.1141-17.8327 73.9534-18.904Q72.7927-19.9754 71.0075-19.9754L47.4015-19.9754Q45.5642-19.9754 44.4295-18.904Q43.2949-17.8327 43.2949-16.121Q43.2949-14.4094 44.4295-13.3432Q45.5642-12.277 47.4015-12.277Z"/>
  </g>
  <g id="Regular-M" transform="matrix(1 0 0 1 1391.32 1126)">
   <path d="M58.492 14.5087Q68.7438 14.5087 77.7439 10.6289Q86.7439 6.74907 93.6228-0.155309Q100.502-7.05969 104.413-16.0597Q108.324-25.0598 108.324-35.2606Q108.324-45.4615 104.413-54.4616Q100.502-63.4616 93.5973-70.366Q86.693-77.2704 77.6929-81.1502Q68.6929-85.03 58.441-85.03Q48.2515-85.03 39.2458-81.1502Q30.2401-77.2704 23.3923-70.366Q16.5446-63.4616 12.6336-54.4616Q8.72266-45.4615 8.72266-35.2606Q8.72266-25.0598 12.6336-16.0597Q16.5446-7.05969 23.4178-0.155309Q30.291 6.74907 39.2968 10.6289Q48.3025 14.5087 58.492 14.5087ZM58.492 6.24099Q49.8824 6.24099 42.3688 3.03788Q34.8553-0.165238 29.1769-5.86909Q23.4985-11.573 20.2897-19.112Q17.0809-26.6511 17.0809-35.2606Q17.0809-43.8702 20.2642-51.4093Q23.4476-58.9483 29.1259-64.6522Q34.8043-70.3561 42.3179-73.5592Q49.8315-76.7623 58.441-76.7623Q67.1016-76.7623 74.6463-73.5592Q82.191-70.3561 87.8949-64.6522Q93.5988-58.9483 96.8019-51.4093Q100.005-43.8702 100.005-35.2606Q100.005-26.6511 96.8019-19.112Q93.5988-11.573 87.8949-5.86909Q82.191-0.165238 74.6775 3.03788Q67.1639 6.24099 58.492 6.24099ZM31.9271-44.8679L85.1815-44.8679Q86.8124-44.8679 87.8543-45.8334Q88.8963-46.7989 88.8963-48.3279Q88.8963-49.8682 87.8543-50.8026Q86.8124-51.737 85.1815-51.737L31.9271-51.737Q30.3359-51.737 29.2939-50.8026Q28.2519-49.8682 28.2519-48.3279Q28.2519-46.7989 29.2939-45.8334Q30.3359-44.8679 31.9271-44.8679ZM39.1827-28.7027L77.9259-28.7027Q79.5681-28.7027 80.6101-29.6625Q81.652-30.6224 81.652-32.1627Q81.652-33.703 80.6101-34.6629Q79.5681-35.6227 77.9259-35.6227L39.1827-35.6227Q37.5801-35.6227 36.5382-34.6629Q35.4962-33.703 35.4962-32.1627Q35.4962-30.6224 36.5382-29.6625Q37.5801-28.7027 39.1827-28.7027ZM46.7385-12.5035L70.421-12.5035Q72.0123-12.5035 73.0543-13.4633Q74.0963-14.4232 74.0963-15.9635Q74.0963-17.5038 73.0543-18.4637Q72.0123-19.4235 70.421-19.4235L46.7385-19.4235Q45.085-19.4235 44.0741-18.4637Q43.0633-17.5038 43.0633-15.9635Q43.0633-14.4232 44.0741-13.4633Q45.085-12.5035 46.7385-12.5035Z"/>
  </g>
  <g id="Light-M" transform="matrix(1 0 0 1 1095.44 1126)">
   <path d="M57.664 13.6807Q67.7687 13.6807 76.6123 9.87453Q85.456 6.06831 92.2245-0.716478Q98.993-7.50127 102.83-16.3449Q106.668-25.1886 106.668-35.2606Q106.668-45.3327 102.83-54.1764Q98.993-63.02 92.2082-69.8048Q85.4234-76.5896 76.5798-80.3958Q67.7361-84.202 57.6315-84.202Q47.5892-84.202 38.7306-80.3958Q29.8721-76.5896 23.1348-69.8048Q16.3974-63.02 12.56-54.1764Q8.72266-45.3327 8.72266-35.2606Q8.72266-25.1886 12.56-16.3449Q16.3974-7.50127 23.151-0.716478Q29.9047 6.06831 38.7632 9.87453Q47.6217 13.6807 57.664 13.6807ZM57.664 7.36333Q48.8337 7.36333 41.1085 4.06822Q33.3833 0.773111 27.5394-5.08714Q21.6954-10.9474 18.3854-18.6888Q15.0755-26.4303 15.0755-35.2606Q15.0755-44.091 18.3692-51.8325Q21.6629-59.5739 27.5068-65.4342Q33.3508-71.2944 41.076-74.5895Q48.8011-77.8846 57.6315-77.8846Q66.4944-77.8846 74.2507-74.5895Q82.007-71.2944 87.8673-65.4342Q93.7275-59.5739 97.0227-51.8325Q100.318-44.091 100.318-35.2606Q100.318-26.4303 97.0227-18.6888Q93.7275-10.9474 87.8673-5.08714Q82.007 0.773111 74.2819 4.06822Q66.5567 7.36333 57.664 7.36333ZM30.6576-45.8982L84.7951-45.8982Q86.0396-45.8982 86.8516-46.6613Q87.6636-47.4245 87.6636-48.6039Q87.6636-49.813 86.8516-50.545Q86.0396-51.277 84.7951-51.277L30.6576-51.277Q29.4159-51.277 28.6039-50.545Q27.7919-49.813 27.7919-48.6039Q27.7919-47.4245 28.6039-46.6613Q29.4159-45.8982 30.6576-45.8982ZM37.858-29.7882L77.5947-29.7882Q78.8689-29.7882 79.6809-30.5365Q80.4929-31.2848 80.4929-32.4939Q80.4929-33.703 79.6809-34.4513Q78.8689-35.1996 77.5947-35.1996L37.858-35.1996Q36.5866-35.1996 35.7746-34.4513Q34.9626-33.703 34.9626-32.4939Q34.9626-31.2848 35.7746-30.5365Q36.5866-29.7882 37.858-29.7882ZM45.3402-13.589L70.145-13.589Q71.3867-13.589 72.1987-14.3373Q73.0107-15.0855 73.0107-16.2947Q73.0107-17.5038 72.1987-18.2521Q71.3867-19.0004 70.145-19.0004L45.3402-19.0004Q44.0362-19.0004 43.2554-18.2521Q42.4745-17.5038 42.4745-16.2947Q42.4745-15.0855 43.2554-14.3373Q44.0362-13.589 45.3402-13.589Z"/>
  </g>
  <g id="Thin-M" transform="matrix(1 0 0 1 799.828 1126)">
   <path d="M56.569 12.5857Q66.479 12.5857 75.1158 8.87683Q83.7526 5.16794 90.3751-1.45867Q96.9976-8.08529 100.738-16.7221Q104.478-25.3589 104.478-35.2606Q104.478-45.1624 100.738-53.7992Q96.9976-62.436 90.371-69.0626Q83.7444-75.6892 75.1076-79.3981Q66.4707-83.107 56.5608-83.107Q46.7131-83.107 38.0493-79.3981Q29.3854-75.6892 22.7941-69.0626Q16.2027-62.436 12.4627-53.7992Q8.72266-45.1624 8.72266-35.2606Q8.72266-25.3589 12.4627-16.7221Q16.2027-8.08529 22.7982-1.45867Q29.3936 5.16794 38.0575 8.87683Q46.7214 12.5857 56.569 12.5857ZM56.569 8.84771Q47.4466 8.84771 39.4416 5.43093Q31.4366 2.01415 25.3736-4.05293Q19.3107-10.12 15.8668-18.1291Q12.423-26.1383 12.423-35.2606Q12.423-44.383 15.8627-52.3921Q19.3024-60.4013 25.3654-66.4684Q31.4284-72.5354 39.4334-75.9522Q47.4384-79.369 56.5608-79.369Q65.6914-79.369 73.7275-75.9522Q81.7637-72.5354 87.8308-66.4684Q93.8979-60.4013 97.3147-52.3921Q100.731-44.383 100.731-35.2606Q100.731-26.1383 97.3147-18.1291Q93.8979-10.12 87.8308-4.05293Q81.7637 2.01415 73.7587 5.43093Q65.7537 8.84771 56.569 8.84771ZM28.9785-47.2609L84.2841-47.2609Q85.0176-47.2609 85.5254-47.7564Q86.0332-48.2519 86.0332-48.9689Q86.0332-49.74 85.5254-50.2043Q85.0176-50.6686 84.2841-50.6686L28.9785-50.6686Q28.1992-50.6686 27.6914-50.2043Q27.1836-49.74 27.1836-48.9689Q27.1836-48.2519 27.6914-47.7564Q28.1992-47.2609 28.9785-47.2609ZM36.106-31.2239L77.1567-31.2239Q77.9442-31.2239 78.452-31.6924Q78.9599-32.1608 78.9599-32.9319Q78.9599-33.703 78.452-34.1715Q77.9442-34.6399 77.1567-34.6399L36.106-34.6399Q35.2725-34.6399 34.7647-34.1715Q34.2569-33.703 34.2569-32.9319Q34.2569-32.1608 34.7647-31.6924Q35.2725-31.2239 36.106-31.2239ZM43.4908-15.0247L69.78-15.0247Q70.5594-15.0247 71.0672-15.4931Q71.575-15.9616 71.575-16.7327Q71.575-17.5038 71.0672-17.9722Q70.5594-18.4407 69.78-18.4407L43.4908-18.4407Q42.6492-18.4407 42.1725-17.9722Q41.6959-17.5038 41.6959-16.7327Q41.6959-15.9616 42.1725-15.4931Q42.6492-15.0247 43.4908-15.0247Z"/>
  </g>
  <g id="Ultralight-M" transform="matrix(1 0 0 1 503.679 1126)">
   <path d="M56.0081 12.0248Q65.8184 12.0248 74.3492 8.36581Q82.8801 4.70678 89.4278-1.83882Q95.9756-8.38442 99.6657-16.9153Q103.356-25.4462 103.356-35.2606Q103.356-45.0751 99.6657-53.606Q95.9756-62.1369 89.43-68.6825Q82.8844-75.2281 74.3535-78.8871Q65.8226-82.5461 56.0124-82.5461Q46.2644-82.5461 37.7003-78.8871Q29.1361-75.2281 22.6196-68.6825Q16.103-62.1369 12.4128-53.606Q8.72266-45.0751 8.72266-35.2606Q8.72266-25.4462 12.4128-16.9153Q16.103-8.38442 22.6175-1.83882Q29.1319 4.70678 37.6961 8.36581Q46.2602 12.0248 56.0081 12.0248ZM56.0081 9.60801Q46.7362 9.60801 38.5878 6.12891Q30.4395 2.64981 24.2644-3.52322Q18.0892-9.69625 14.5768-17.8425Q11.0645-25.9887 11.0645-35.2606Q11.0645-44.5326 14.579-52.6788Q18.0934-60.825 24.2686-66.9981Q30.4437-73.1711 38.5921-76.6502Q46.7404-80.1293 56.0124-80.1293Q65.2801-80.1293 73.4596-76.6502Q81.6391-73.1711 87.8121-66.9981Q93.9851-60.825 97.4642-52.6788Q100.943-44.5326 100.943-35.2606Q100.943-25.9887 97.4642-17.8425Q93.9851-9.69625 87.8121-3.52322Q81.6391 2.64981 73.4907 6.12891Q65.3424 9.60801 56.0081 9.60801ZM28.1185-47.9589L84.0223-47.9589Q84.4941-47.9589 84.8461-48.3173Q85.1981-48.6756 85.1981-49.1558Q85.1981-49.7026 84.8461-50.0298Q84.4941-50.357 84.0223-50.357L28.1185-50.357Q27.576-50.357 27.224-50.0298Q26.872-49.7026 26.872-49.1558Q26.872-48.6756 27.224-48.3173Q27.576-47.9589 28.1185-47.9589ZM35.2086-31.9593L76.9323-31.9593Q77.4706-31.9593 77.8226-32.2844Q78.1746-32.6095 78.1746-33.1563Q78.1746-33.703 77.8226-34.0281Q77.4706-34.3532 76.9323-34.3532L35.2086-34.3532Q34.5995-34.3532 34.2475-34.0281Q33.8955-33.703 33.8955-33.1563Q33.8955-32.6095 34.2475-32.2844Q34.5995-31.9593 35.2086-31.9593ZM42.5436-15.7601L69.5931-15.7601Q70.1356-15.7601 70.4876-16.0852Q70.8396-16.4103 70.8396-16.957Q70.8396-17.5038 70.4876-17.8289Q70.1356-18.154 69.5931-18.154L42.5436-18.154Q41.9387-18.154 41.6179-17.8289Q41.297-17.5038 41.297-16.957Q41.297-16.4103 41.6179-16.0852Q41.9387-15.7601 42.5436-15.7601Z"/>
  </g>
  <g id="Black-S" transform="matrix(1 0 0 1 2884.57 696)">
   <path d="M48.8281 6.78711Q57.5195 6.78711 65.1123 3.51562Q72.7051 0.244141 78.4912-5.54199Q84.2773-11.3281 87.5488-18.9209Q90.8203-26.5137 90.8203-35.2051Q90.8203-43.8965 87.5488-51.4893Q84.2773-59.082 78.4912-64.8682Q72.7051-70.6543 65.1123-73.9258Q57.5195-77.1973 48.8281-77.1973Q40.1367-77.1973 32.5439-73.9258Q24.9512-70.6543 19.165-64.8682Q13.3789-59.082 10.1074-51.4893Q6.83594-43.8965 6.83594-35.2051Q6.83594-26.5137 10.1074-18.9209Q13.3789-11.3281 19.165-5.54199Q24.9512 0.244141 32.5439 3.51562Q40.1367 6.78711 48.8281 6.78711ZM48.8281-7.37305Q43.0664-7.37305 38.0127-9.5459Q32.959-11.7188 29.1504-15.5273Q25.3418-19.3359 23.1689-24.3896Q20.9961-29.4434 20.9961-35.2051Q20.9961-40.9668 23.1689-46.0205Q25.3418-51.0742 29.1504-54.8828Q32.959-58.6914 38.0127-60.8643Q43.0664-63.0371 48.8281-63.0371Q54.5898-63.0371 59.6436-60.8643Q64.6973-58.6914 68.5059-54.8828Q72.3145-51.0742 74.4873-46.0205Q76.6602-40.9668 76.6602-35.2051Q76.6602-29.4434 74.4873-24.3896Q72.3145-19.3359 68.5059-15.5273Q64.6973-11.7188 59.6436-9.5459Q54.5898-7.37305 48.8281-7.37305ZM32.7637-41.3086L64.8926-41.3086Q67.0898-41.3086 68.4326-42.5537Q69.7754-43.7988 69.7754-45.8008Q69.7754-47.8516 68.4326-49.0967Q67.0898-50.3418 64.8926-50.3418L32.7637-50.3418Q30.5664-50.3418 29.2236-49.0967Q27.8809-47.8516 27.8809-45.8008Q27.8809-43.7988 29.2236-42.5537Q30.5664-41.3086 32.7637-41.3086ZM36.2305-28.8574L61.4258-28.8574Q63.5742-28.8574 64.9414-30.1025Q66.3086-31.3477 66.3086-33.3496Q66.3086-35.3516 64.9414-36.6211Q63.5742-37.8906 61.4258-37.8906L36.2305-37.8906Q34.082-37.8906 32.7148-36.6211Q31.3477-35.3516 31.3477-33.3496Q31.3477-31.3477 32.7148-30.1025Q34.082-28.8574 36.2305-28.8574ZM39.6973-16.4062L57.959-16.4062Q60.1074-16.4062 61.4746-17.6514Q62.8418-18.8965 62.8418-20.8984Q62.8418-22.9004 61.4746-24.1699Q60.1074-25.4395 57.959-25.4395L39.6973-25.4395Q37.5488-25.4395 36.1816-24.1699Q34.8145-22.9004 34.8145-20.8984Q34.8145-18.8965 36.1816-17.6514Q37.5488-16.4062 39.6973-16.4062Z"/>
  </g>
  <g id="Heavy-S" transform="matrix(1 0 0 1 2588.47 696)">
   <path d="M48.2173 6.16479Q56.7704 6.16479 64.2537 2.9394Q71.737-0.285985 77.4425-5.99721Q83.1479-11.7084 86.3791-19.1917Q89.6102-26.675 89.6102-35.2166Q89.6102-43.7582 86.3791-51.2415Q83.1479-58.7248 77.4367-64.436Q71.7255-70.1472 64.2422-73.3726Q56.7589-76.598 48.2058-76.598Q39.6642-76.598 32.1809-73.3726Q24.6976-70.1472 18.9979-64.436Q13.2982-58.7248 10.0671-51.2415Q6.83594-43.7582 6.83594-35.2166Q6.83594-26.675 10.0671-19.1917Q13.2982-11.7084 19.0037-5.99721Q24.7092-0.285985 32.1924 2.9394Q39.6757 6.16479 48.2173 6.16479ZM48.2173-6.40499Q42.2482-6.40499 37.0216-8.64699Q31.795-10.889 27.8539-14.8359Q23.9128-18.7828 21.6708-24.0151Q19.4288-29.2474 19.4288-35.2166Q19.4288-41.1858 21.665-46.4181Q23.9012-51.6504 27.8424-55.5973Q31.7835-59.5442 37.0101-61.7862Q42.2366-64.0282 48.2058-64.0282Q54.1865-64.0282 59.4188-61.7862Q64.6512-59.5442 68.5981-55.5973Q72.5449-51.6504 74.7869-46.4181Q77.0289-41.1858 77.0289-35.2166Q77.0289-29.2474 74.7869-24.0151Q72.5449-18.7828 68.5981-14.8359Q64.6512-10.889 59.4246-8.64699Q54.198-6.40499 48.2173-6.40499ZM31.0811-41.5391L65.3766-41.5391Q67.401-41.5391 68.6458-42.692Q69.8906-43.8449 69.8906-45.6971Q69.8906-47.5865 68.6458-48.7337Q67.401-49.8808 65.3766-49.8808L31.0811-49.8808Q29.0682-49.8808 27.8234-48.7337Q26.5786-47.5865 26.5786-45.6971Q26.5786-43.8449 27.8234-42.692Q29.0682-41.5391 31.0811-41.5391ZM35.078-29.0303L61.3797-29.0303Q63.3668-29.0303 64.6302-30.1832Q65.8937-31.3361 65.8937-33.1883Q65.8937-35.0404 64.6302-36.212Q63.3668-37.3835 61.3797-37.3835L35.078-37.3835Q33.1025-37.3835 31.839-36.212Q30.5755-35.0404 30.5755-33.1883Q30.5755-31.3361 31.839-30.1832Q33.1025-29.0303 35.078-29.0303ZM39.1326-16.5215L57.3367-16.5215Q59.3122-16.5215 60.5757-17.6744Q61.8392-18.8273 61.8392-20.6795Q61.8392-22.5316 60.5757-23.7032Q59.3122-24.8748 57.3367-24.8748L39.1326-24.8748Q37.1455-24.8748 35.8878-23.7032Q34.6301-22.5316 34.6301-20.6795Q34.6301-18.8273 35.8878-17.6744Q37.1455-16.5215 39.1326-16.5215Z"/>
  </g>
  <g id="Bold-S" transform="matrix(1 0 0 1 2292.43 696)">
   <path d="M47.5342 5.46875Q55.9326 5.46875 63.2935 2.29492Q70.6543-0.878906 76.2695-6.50635Q81.8848-12.1338 85.0708-19.4946Q88.2568-26.8555 88.2568-35.2295Q88.2568-43.6035 85.0708-50.9644Q81.8848-58.3252 76.2573-63.9526Q70.6299-69.5801 63.269-72.7539Q55.9082-75.9277 47.5098-75.9277Q39.1357-75.9277 31.7749-72.7539Q24.4141-69.5801 18.811-63.9526Q13.208-58.3252 10.022-50.9644Q6.83594-43.6035 6.83594-35.2295Q6.83594-26.8555 10.022-19.4946Q13.208-12.1338 18.8232-6.50635Q24.4385-0.878906 31.7993 2.29492Q39.1602 5.46875 47.5342 5.46875ZM47.5342-5.32227Q41.333-5.32227 35.9131-7.6416Q30.4932-9.96094 26.4038-14.0625Q22.3145-18.1641 19.9951-23.5962Q17.6758-29.0283 17.6758-35.2295Q17.6758-41.4307 19.9829-46.8628Q22.29-52.2949 26.3794-56.3965Q30.4688-60.498 35.8887-62.8174Q41.3086-65.1367 47.5098-65.1367Q53.7354-65.1367 59.1675-62.8174Q64.5996-60.498 68.7012-56.3965Q72.8027-52.2949 75.1221-46.8628Q77.4414-41.4307 77.4414-35.2295Q77.4414-29.0283 75.1221-23.5962Q72.8027-18.1641 68.7012-14.0625Q64.5996-9.96094 59.1797-7.6416Q53.7598-5.32227 47.5342-5.32227ZM29.1992-41.7969L65.918-41.7969Q67.749-41.7969 68.8843-42.8467Q70.0195-43.8965 70.0195-45.5811Q70.0195-47.29 68.8843-48.3276Q67.749-49.3652 65.918-49.3652L29.1992-49.3652Q27.3926-49.3652 26.2573-48.3276Q25.1221-47.29 25.1221-45.5811Q25.1221-43.8965 26.2573-42.8467Q27.3926-41.7969 29.1992-41.7969ZM33.7891-29.2236L61.3281-29.2236Q63.1348-29.2236 64.2822-30.2734Q65.4297-31.3232 65.4297-33.0078Q65.4297-34.6924 64.2822-35.7544Q63.1348-36.8164 61.3281-36.8164L33.7891-36.8164Q32.0068-36.8164 30.8594-35.7544Q29.7119-34.6924 29.7119-33.0078Q29.7119-31.3232 30.8594-30.2734Q32.0068-29.2236 33.7891-29.2236ZM38.501-16.6504L56.6406-16.6504Q58.4229-16.6504 59.5703-17.7002Q60.7178-18.75 60.7178-20.4346Q60.7178-22.1191 59.5703-23.1812Q58.4229-24.2432 56.6406-24.2432L38.501-24.2432Q36.6943-24.2432 35.5591-23.1812Q34.4238-22.1191 34.4238-20.4346Q34.4238-18.75 35.5591-17.7002Q36.6943-16.6504 38.501-16.6504Z"/>
  </g>
  <g id="Semibold-S" transform="matrix(1 0 0 1 1996.19 696)">
   <path d="M47.0632 4.98887Q55.355 4.98887 62.6314 1.85059Q69.9078-1.2877 75.4608-6.85737Q81.0139-12.4271 84.1688-19.7035Q87.3237-26.9799 87.3237-35.2384Q87.3237-43.4969 84.1688-50.7733Q81.0139-58.0497 75.4442-63.6194Q69.8745-69.1891 62.5981-72.3273Q55.3217-75.4656 47.0299-75.4656Q38.7714-75.4656 31.495-72.3273Q24.2186-69.1891 18.6822-63.6194Q13.1458-58.0497 9.99087-50.7733Q6.83594-43.4969 6.83594-35.2384Q6.83594-26.9799 9.99087-19.7035Q13.1458-12.4271 18.6988-6.85737Q24.2519-1.2877 31.5283 1.85059Q38.8047 4.98887 47.0632 4.98887ZM47.0632-4.57578Q40.7021-4.57578 35.1488-6.94844Q29.5956-9.32109 25.4041-13.5293Q21.2125-17.7375 18.8398-23.3074Q16.4672-28.8772 16.4672-35.2384Q16.4672-41.5995 18.8232-47.1694Q21.1792-52.7393 25.3708-56.9475Q29.5623-61.1557 35.1155-63.5283Q40.6688-65.901 47.0299-65.901Q53.4243-65.901 58.9942-63.5283Q64.5641-61.1557 68.7723-56.9475Q72.9805-52.7393 75.3531-47.1694Q77.7258-41.5995 77.7258-35.2384Q77.7258-28.8772 75.3531-23.3074Q72.9805-17.7375 68.7723-13.5293Q64.5641-9.32109 59.0108-6.94844Q53.4576-4.57578 47.0632-4.57578ZM27.9018-41.9746L66.2912-41.9746Q67.989-41.9746 69.0487-42.9533Q70.1084-43.932 70.1084-45.5011Q70.1084-47.0856 69.0487-48.0477Q67.989-49.0098 66.2912-49.0098L27.9018-49.0098Q26.2373-49.0098 25.1776-48.0477Q24.1179-47.0856 24.1179-45.5011Q24.1179-43.932 25.1776-42.9533Q26.2373-41.9746 27.9018-41.9746ZM32.9004-29.3569L61.2926-29.3569Q62.9748-29.3569 64.0423-30.3356Q65.1098-31.3144 65.1098-32.8834Q65.1098-34.4524 64.0423-35.4389Q62.9748-36.4254 61.2926-36.4254L32.9004-36.4254Q31.2515-36.4254 30.184-35.4389Q29.1165-34.4524 29.1165-32.8834Q29.1165-31.3144 30.184-30.3356Q31.2515-29.3569 32.9004-29.3569ZM38.0655-16.7393L56.1607-16.7393Q57.8097-16.7393 58.8771-17.718Q59.9446-18.6967 59.9446-20.2657Q59.9446-21.8348 58.8771-22.8212Q57.8097-23.8077 56.1607-23.8077L38.0655-23.8077Q36.3833-23.8077 35.3325-22.8212Q34.2816-21.8348 34.2816-20.2657Q34.2816-18.6967 35.3325-17.718Q36.3833-16.7393 38.0655-16.7393Z"/>
  </g>
  <g id="Medium-S" transform="matrix(1 0 0 1 1699.83 696)">
   <path d="M46.7061 4.625Q54.917 4.625 62.1294 1.51367Q69.3418-1.59766 74.8477-7.12354Q80.3535-12.6494 83.4849-19.8618Q86.6162-27.0742 86.6162-35.2451Q86.6162-43.416 83.4849-50.6284Q80.3535-57.8408 74.8276-63.3667Q69.3018-68.8926 62.0894-72.0039Q54.877-75.1152 46.666-75.1152Q38.4951-75.1152 31.2827-72.0039Q24.0703-68.8926 18.5845-63.3667Q13.0986-57.8408 9.96729-50.6284Q6.83594-43.416 6.83594-35.2451Q6.83594-27.0742 9.96729-19.8618Q13.0986-12.6494 18.6045-7.12354Q24.1104-1.59766 31.3228 1.51367Q38.5352 4.625 46.7061 4.625ZM46.7061-4.00977Q40.2236-4.00977 34.5693-6.42285Q28.915-8.83594 24.646-13.125Q20.377-17.4141 17.9639-23.0884Q15.5508-28.7627 15.5508-35.2451Q15.5508-41.7275 17.9438-47.4019Q20.3369-53.0762 24.606-57.3652Q28.875-61.6543 34.5293-64.0674Q40.1836-66.4805 46.666-66.4805Q53.1885-66.4805 58.8628-64.0674Q64.5371-61.6543 68.8262-57.3652Q73.1152-53.0762 75.5283-47.4019Q77.9414-41.7275 77.9414-35.2451Q77.9414-28.7627 75.5283-23.0884Q73.1152-17.4141 68.8262-13.125Q64.5371-8.83594 58.8828-6.42285Q53.2285-4.00977 46.7061-4.00977ZM26.918-42.1094L66.5742-42.1094Q68.1709-42.1094 69.1733-43.0342Q70.1758-43.959 70.1758-45.4404Q70.1758-46.9307 69.1733-47.8354Q68.1709-48.7402 66.5742-48.7402L26.918-48.7402Q25.3613-48.7402 24.3589-47.8354Q23.3564-46.9307 23.3564-45.4404Q23.3564-43.959 24.3589-43.0342Q25.3613-42.1094 26.918-42.1094ZM32.2266-29.458L61.2656-29.458Q62.8535-29.458 63.8604-30.3828Q64.8672-31.3076 64.8672-32.7891Q64.8672-34.2705 63.8604-35.1997Q62.8535-36.1289 61.2656-36.1289L32.2266-36.1289Q30.6787-36.1289 29.6719-35.1997Q28.665-34.2705 28.665-32.7891Q28.665-31.3076 29.6719-30.3828Q30.6787-29.458 32.2266-29.458ZM37.7354-16.8066L55.7969-16.8066Q57.3447-16.8066 58.3516-17.7314Q59.3584-18.6562 59.3584-20.1377Q59.3584-21.6191 58.3516-22.5483Q57.3447-23.4775 55.7969-23.4775L37.7354-23.4775Q36.1475-23.4775 35.1606-22.5483Q34.1738-21.6191 34.1738-20.1377Q34.1738-18.6562 35.1606-17.7314Q36.1475-16.8066 37.7354-16.8066Z"/>
  </g>
  <g id="Regular-S" transform="matrix(1 0 0 1 1403.58 696)">
   <path d="M46.2402 4.15039Q54.3457 4.15039 61.4746 1.07422Q68.6035-2.00195 74.0479-7.4707Q79.4922-12.9395 82.5928-20.0684Q85.6934-27.1973 85.6934-35.2539Q85.6934-43.3105 82.5928-50.4395Q79.4922-57.5684 74.0234-63.0371Q68.5547-68.5059 61.4258-71.582Q54.2969-74.6582 46.1914-74.6582Q38.1348-74.6582 31.0059-71.582Q23.877-68.5059 18.457-63.0371Q13.0371-57.5684 9.93652-50.4395Q6.83594-43.3105 6.83594-35.2539Q6.83594-27.1973 9.93652-20.0684Q13.0371-12.9395 18.4814-7.4707Q23.9258-2.00195 31.0547 1.07422Q38.1836 4.15039 46.2402 4.15039ZM46.2402-3.27148Q39.5996-3.27148 33.8135-5.7373Q28.0273-8.20312 23.6572-12.5977Q19.2871-16.9922 16.8213-22.8027Q14.3555-28.6133 14.3555-35.2539Q14.3555-41.8945 16.7969-47.7051Q19.2383-53.5156 23.6084-57.9102Q27.9785-62.3047 33.7646-64.7705Q39.5508-67.2363 46.1914-67.2363Q52.8809-67.2363 58.6914-64.7705Q64.502-62.3047 68.8965-57.9102Q73.291-53.5156 75.7568-47.7051Q78.2227-41.8945 78.2227-35.2539Q78.2227-28.6133 75.7568-22.8027Q73.291-16.9922 68.8965-12.5977Q64.502-8.20312 58.7158-5.7373Q52.9297-3.27148 46.2402-3.27148ZM25.6348-42.2852L66.9434-42.2852Q68.4082-42.2852 69.3359-43.1396Q70.2637-43.9941 70.2637-45.3613Q70.2637-46.7285 69.3359-47.5586Q68.4082-48.3887 66.9434-48.3887L25.6348-48.3887Q24.2188-48.3887 23.291-47.5586Q22.3633-46.7285 22.3633-45.3613Q22.3633-43.9941 23.291-43.1396Q24.2188-42.2852 25.6348-42.2852ZM31.3477-29.5898L61.2305-29.5898Q62.6953-29.5898 63.623-30.4443Q64.5508-31.2988 64.5508-32.666Q64.5508-34.0332 63.623-34.8877Q62.6953-35.7422 61.2305-35.7422L31.3477-35.7422Q29.9316-35.7422 29.0039-34.8877Q28.0762-34.0332 28.0762-32.666Q28.0762-31.2988 29.0039-30.4443Q29.9316-29.5898 31.3477-29.5898ZM37.3047-16.8945L55.3223-16.8945Q56.7383-16.8945 57.666-17.749Q58.5938-18.6035 58.5938-19.9707Q58.5938-21.3379 57.666-22.1924Q56.7383-23.0469 55.3223-23.0469L37.3047-23.0469Q35.8398-23.0469 34.9365-22.1924Q34.0332-21.3379 34.0332-19.9707Q34.0332-18.6035 34.9365-17.749Q35.8398-16.8945 37.3047-16.8945Z"/>
  </g>
  <g id="Light-S" transform="matrix(1 0 0 1 1107.6 696)">
   <path d="M45.5078 3.41797Q53.4831 3.41797 60.4736 0.406901Q67.4642-2.60417 72.8109-7.96712Q78.1576-13.3301 81.193-20.3206Q84.2285-27.3112 84.2285-35.2539Q84.2285-43.1966 81.193-50.1872Q78.1576-57.1777 72.7946-62.5407Q67.4316-67.9036 60.4411-70.9147Q53.4505-73.9258 45.4753-73.9258Q37.5488-73.9258 30.5501-70.9147Q23.5514-67.9036 18.2292-62.5407Q12.9069-57.1777 9.87142-50.1872Q6.83594-43.1966 6.83594-35.2539Q6.83594-27.3112 9.87142-20.3206Q12.9069-13.3301 18.2454-7.96712Q23.584-2.60417 30.5827 0.406901Q37.5814 3.41797 45.5078 3.41797ZM45.5078-2.27865Q38.6719-2.27865 32.6986-4.82585Q26.7253-7.37305 22.2087-11.9059Q17.6921-16.4388 15.1367-22.4284Q12.5814-28.418 12.5814-35.2539Q12.5814-42.0898 15.1204-48.0794Q17.6595-54.069 22.1761-58.6019Q26.6927-63.1348 32.666-65.682Q38.6393-68.2292 45.4753-68.2292Q52.3438-68.2292 58.3415-65.682Q64.3392-63.1348 68.8721-58.6019Q73.4049-54.069 75.9521-48.0794Q78.4993-42.0898 78.4993-35.2539Q78.4993-28.418 75.9521-22.4284Q73.4049-16.4388 68.8721-11.9059Q64.3392-7.37305 58.3659-4.82585Q52.3926-2.27865 45.5078-2.27865ZM24.5117-43.1966L66.6016-43.1966Q67.7246-43.1966 68.4489-43.8721Q69.1732-44.5475 69.1732-45.6055Q69.1732-46.6797 68.4489-47.3307Q67.7246-47.9818 66.6016-47.9818L24.5117-47.9818Q23.4049-47.9818 22.6807-47.3307Q21.9564-46.6797 21.9564-45.6055Q21.9564-44.5475 22.6807-43.8721Q23.4049-43.1966 24.5117-43.1966ZM30.1758-30.5501L60.9375-30.5501Q62.0768-30.5501 62.8011-31.2174Q63.5254-31.8848 63.5254-32.959Q63.5254-34.0332 62.8011-34.7005Q62.0768-35.3678 60.9375-35.3678L30.1758-35.3678Q29.0527-35.3678 28.3285-34.7005Q27.6042-34.0332 27.6042-32.959Q27.6042-31.8848 28.3285-31.2174Q29.0527-30.5501 30.1758-30.5501ZM36.0677-17.8548L55.0781-17.8548Q56.1849-17.8548 56.9092-18.5221Q57.6335-19.1895 57.6335-20.2637Q57.6335-21.3379 56.9092-22.0052Q56.1849-22.6725 55.0781-22.6725L36.0677-22.6725Q34.9121-22.6725 34.2122-22.0052Q33.5124-21.3379 33.5124-20.2637Q33.5124-19.1895 34.2122-18.5221Q34.9121-17.8548 36.0677-17.8548Z"/>
  </g>
  <g id="Thin-S" transform="matrix(1 0 0 1 811.863 696)">
   <path d="M44.5391 2.44928Q52.3422 2.44928 59.1498-0.47568Q65.9573-3.40064 71.1749-8.62368Q76.3924-13.8467 79.3418-20.6543Q82.2911-27.4619 82.2911-35.2539Q82.2911-43.0459 79.3418-49.8535Q76.3924-56.6611 71.1694-61.8841Q65.9463-67.1072 59.1387-70.0321Q52.3311-72.9571 44.5281-72.9571Q36.7739-72.9571 29.9474-70.0321Q23.1209-67.1072 17.9278-61.8841Q12.7347-56.6611 9.78531-49.8535Q6.83594-43.0459 6.83594-35.2539Q6.83594-27.4619 9.78531-20.6543Q12.7347-13.8467 17.9333-8.62368Q23.1319-3.40064 29.9584-0.47568Q36.7849 2.44928 44.5391 2.44928ZM44.5391-0.965537Q37.4449-0.965537 31.224-3.62037Q25.0032-6.2752 20.2928-10.9911Q15.5825-15.7069 12.9087-21.9333Q10.235-28.1597 10.235-35.2539Q10.235-42.3482 12.9032-48.5745Q15.5714-54.8009 20.2818-59.5168Q24.9921-64.2326 31.213-66.8874Q37.4338-69.5423 44.5281-69.5423Q51.6334-69.5423 57.8787-66.8874Q64.1239-64.2326 68.8398-59.5168Q73.5556-54.8009 76.2105-48.5745Q78.8653-42.3482 78.8653-35.2539Q78.8653-28.1597 76.2105-21.9333Q73.5556-15.7069 68.8398-10.9911Q64.1239-6.2752 57.9031-3.62037Q51.6822-0.965537 44.5391-0.965537ZM23.0264-44.4021L66.1495-44.4021Q66.8205-44.4021 67.2757-44.8408Q67.7309-45.2794 67.7309-45.9284Q67.7309-46.6151 67.2757-47.0294Q66.8205-47.4436 66.1495-47.4436L23.0264-47.4436Q22.3286-47.4436 21.8734-47.0294Q21.4182-46.6151 21.4182-45.9284Q21.4182-45.2794 21.8734-44.8408Q22.3286-44.4021 23.0264-44.4021ZM28.6259-31.8202L60.55-31.8202Q61.2588-31.8202 61.714-32.24Q62.1692-32.6597 62.1692-33.3465Q62.1692-34.0332 61.714-34.453Q61.2588-34.8727 60.55-34.8727L28.6259-34.8727Q27.8903-34.8727 27.4351-34.453Q26.9799-34.0332 26.9799-33.3465Q26.9799-32.6597 27.4351-32.24Q27.8903-31.8202 28.6259-31.8202ZM34.4317-19.1249L54.7552-19.1249Q55.453-19.1249 55.9082-19.5446Q56.3634-19.9644 56.3634-20.6511Q56.3634-21.3379 55.9082-21.7577Q55.453-22.1774 54.7552-22.1774L34.4317-22.1774Q33.6851-22.1774 33.2543-21.7577Q32.8235-21.3379 32.8235-20.6511Q32.8235-19.9644 33.2543-19.5446Q33.6851-19.1249 34.4317-19.1249Z"/>
  </g>
  <g id="Ultralight-S" transform="matrix(1 0 0 1 515.649 696)">
   <path d="M44.043 1.95312Q51.7578 1.95312 58.4717-0.927734Q65.1855-3.80859 70.3369-8.95996Q75.4883-14.1113 78.3936-20.8252Q81.2988-27.5391 81.2988-35.2539Q81.2988-42.9688 78.3936-49.6826Q75.4883-56.3965 70.3369-61.5479Q65.1855-66.6992 58.4717-69.5801Q51.7578-72.4609 44.043-72.4609Q36.377-72.4609 29.6387-69.5801Q22.9004-66.6992 17.7734-61.5479Q12.6465-56.3965 9.74121-49.6826Q6.83594-42.9688 6.83594-35.2539Q6.83594-27.5391 9.74121-20.8252Q12.6465-14.1113 17.7734-8.95996Q22.9004-3.80859 29.6387-0.927734Q36.377 1.95312 44.043 1.95312ZM44.043-0.292969Q36.8164-0.292969 30.4688-3.00293Q24.1211-5.71289 19.3115-10.5225Q14.502-15.332 11.7676-21.6797Q9.0332-28.0273 9.0332-35.2539Q9.0332-42.4805 11.7676-48.8281Q14.502-55.1758 19.3115-59.9854Q24.1211-64.7949 30.4688-67.5049Q36.8164-70.2148 44.043-70.2148Q51.2695-70.2148 57.6416-67.5049Q64.0137-64.7949 68.8232-59.9854Q73.6328-55.1758 76.3428-48.8281Q79.0527-42.4805 79.0527-35.2539Q79.0527-28.0273 76.3428-21.6797Q73.6328-15.332 68.8232-10.5225Q64.0137-5.71289 57.666-3.00293Q51.3184-0.292969 44.043-0.292969ZM22.2656-45.0195L65.918-45.0195Q66.3574-45.0195 66.6748-45.3369Q66.9922-45.6543 66.9922-46.0938Q66.9922-46.582 66.6748-46.875Q66.3574-47.168 65.918-47.168L22.2656-47.168Q21.7773-47.168 21.46-46.875Q21.1426-46.582 21.1426-46.0938Q21.1426-45.6543 21.46-45.3369Q21.7773-45.0195 22.2656-45.0195ZM27.832-32.4707L60.3516-32.4707Q60.8398-32.4707 61.1572-32.7637Q61.4746-33.0566 61.4746-33.5449Q61.4746-34.0332 61.1572-34.3262Q60.8398-34.6191 60.3516-34.6191L27.832-34.6191Q27.2949-34.6191 26.9775-34.3262Q26.6602-34.0332 26.6602-33.5449Q26.6602-33.0566 26.9775-32.7637Q27.2949-32.4707 27.832-32.4707ZM33.5938-19.7754L54.5898-19.7754Q55.0781-19.7754 55.3955-20.0684Q55.7129-20.3613 55.7129-20.8496Q55.7129-21.3379 55.3955-21.6309Q55.0781-21.9238 54.5898-21.9238L33.5938-21.9238Q33.0566-21.9238 32.7637-21.6309Q32.4707-21.3379 32.4707-20.8496Q32.4707-20.3613 32.7637-20.0684Q33.0566-19.7754 33.5938-19.7754Z"/>
  </g>
 </g>
</svg>
