<?xml version="1.0" encoding="UTF-8"?>
<!--Generator: Apple Native CoreSVG 175.5-->
<!DOCTYPE svg
PUBLIC "-//W3C//DTD SVG 1.1//EN"
       "http://www.w3.org/Graphics/SVG/1.1/DTD/svg11.dtd">
<svg version="1.1" xmlns="http://www.w3.org/2000/svg" xmlns:xlink="http://www.w3.org/1999/xlink" width="3300" height="2200">
 <!--glyph: "uni10017C.medium", point size: 100.0, font version: "18.0d9e1", template writer version: "84"-->
 <g id="Notes">
  <rect height="2200" id="artboard" style="fill:white;opacity:1" width="3300" x="0" y="0"/>
  <line style="fill:none;stroke:black;opacity:1;stroke-width:0.5;" x1="263" x2="3036" y1="292" y2="292"/>
  <text style="stroke:none;fill:black;font-family:sans-serif;font-size:13;font-weight:bold;" transform="matrix(1 0 0 1 263 322)">Weight/Scale Variations</text>
  <text style="stroke:none;fill:black;font-family:sans-serif;font-size:13;text-anchor:middle;" transform="matrix(1 0 0 1 559.711 322)">Ultralight</text>
  <text style="stroke:none;fill:black;font-family:sans-serif;font-size:13;text-anchor:middle;" transform="matrix(1 0 0 1 856.422 322)">Thin</text>
  <text style="stroke:none;fill:black;font-family:sans-serif;font-size:13;text-anchor:middle;" transform="matrix(1 0 0 1 1153.13 322)">Light</text>
  <text style="stroke:none;fill:black;font-family:sans-serif;font-size:13;text-anchor:middle;" transform="matrix(1 0 0 1 1449.84 322)">Regular</text>
  <text style="stroke:none;fill:black;font-family:sans-serif;font-size:13;text-anchor:middle;" transform="matrix(1 0 0 1 1746.56 322)">Medium</text>
  <text style="stroke:none;fill:black;font-family:sans-serif;font-size:13;text-anchor:middle;" transform="matrix(1 0 0 1 2043.27 322)">Semibold</text>
  <text style="stroke:none;fill:black;font-family:sans-serif;font-size:13;text-anchor:middle;" transform="matrix(1 0 0 1 2339.98 322)">Bold</text>
  <text style="stroke:none;fill:black;font-family:sans-serif;font-size:13;text-anchor:middle;" transform="matrix(1 0 0 1 2636.69 322)">Heavy</text>
  <text style="stroke:none;fill:black;font-family:sans-serif;font-size:13;text-anchor:middle;" transform="matrix(1 0 0 1 2933.4 322)">Black</text>
  <line style="fill:none;stroke:black;opacity:1;stroke-width:0.5;" x1="263" x2="3036" y1="1903" y2="1903"/>
  <g transform="matrix(1 0 0 1 263 1933)">
   <path d="M9.24805 0.830078Q10.8691 0.830078 12.2949 0.214844Q13.7207-0.400391 14.8096-1.49414Q15.8984-2.58789 16.5186-4.01367Q17.1387-5.43945 17.1387-7.05078Q17.1387-8.66211 16.5186-10.0879Q15.8984-11.5137 14.8047-12.6074Q13.7109-13.7012 12.2852-14.3164Q10.8594-14.9316 9.23828-14.9316Q7.62695-14.9316 6.20117-14.3164Q4.77539-13.7012 3.69141-12.6074Q2.60742-11.5137 1.9873-10.0879Q1.36719-8.66211 1.36719-7.05078Q1.36719-5.43945 1.9873-4.01367Q2.60742-2.58789 3.69629-1.49414Q4.78516-0.400391 6.21094 0.214844Q7.63672 0.830078 9.24805 0.830078ZM9.24805-0.654297Q7.91992-0.654297 6.7627-1.14746Q5.60547-1.64062 4.73145-2.51953Q3.85742-3.39844 3.36426-4.56055Q2.87109-5.72266 2.87109-7.05078Q2.87109-8.37891 3.35938-9.54102Q3.84766-10.7031 4.72168-11.582Q5.5957-12.4609 6.75293-12.9541Q7.91016-13.4473 9.23828-13.4473Q10.5762-13.4473 11.7383-12.9541Q12.9004-12.4609 13.7793-11.582Q14.6582-10.7031 15.1514-9.54102Q15.6445-8.37891 15.6445-7.05078Q15.6445-5.72266 15.1514-4.56055Q14.6582-3.39844 13.7793-2.51953Q12.9004-1.64062 11.7432-1.14746Q10.5859-0.654297 9.24805-0.654297ZM5.6543-7.05078Q5.6543-6.72852 5.85938-6.52832Q6.06445-6.32812 6.40625-6.32812L8.51562-6.32812L8.51562-4.20898Q8.51562-3.88672 8.71094-3.67676Q8.90625-3.4668 9.23828-3.4668Q9.56055-3.4668 9.77051-3.67676Q9.98047-3.88672 9.98047-4.20898L9.98047-6.32812L12.0898-6.32812Q12.4219-6.32812 12.627-6.52832Q12.832-6.72852 12.832-7.05078Q12.832-7.38281 12.627-7.58789Q12.4219-7.79297 12.0898-7.79297L9.98047-7.79297L9.98047-9.90234Q9.98047-10.2344 9.77051-10.4443Q9.56055-10.6543 9.23828-10.6543Q8.90625-10.6543 8.71094-10.4443Q8.51562-10.2344 8.51562-9.90234L8.51562-7.79297L6.40625-7.79297Q6.06445-7.79297 5.85938-7.58789Q5.6543-7.38281 5.6543-7.05078Z"/>
  </g>
  <g transform="matrix(1 0 0 1 281.867 1933)">
   <path d="M11.709 2.91016Q13.75 2.91016 15.5518 2.12891Q17.3535 1.34766 18.7305-0.0292969Q20.1074-1.40625 20.8887-3.20801Q21.6699-5.00977 21.6699-7.05078Q21.6699-9.0918 20.8887-10.8936Q20.1074-12.6953 18.7305-14.0723Q17.3535-15.4492 15.5469-16.2305Q13.7402-17.0117 11.6992-17.0117Q9.6582-17.0117 7.85645-16.2305Q6.05469-15.4492 4.68262-14.0723Q3.31055-12.6953 2.5293-10.8936Q1.74805-9.0918 1.74805-7.05078Q1.74805-5.00977 2.5293-3.20801Q3.31055-1.40625 4.6875-0.0292969Q6.06445 1.34766 7.86621 2.12891Q9.66797 2.91016 11.709 2.91016ZM11.709 1.25Q9.98047 1.25 8.47656 0.605469Q6.97266-0.0390625 5.83496-1.17676Q4.69727-2.31445 4.05762-3.81836Q3.41797-5.32227 3.41797-7.05078Q3.41797-8.7793 4.05762-10.2832Q4.69727-11.7871 5.83008-12.9297Q6.96289-14.0723 8.4668-14.7119Q9.9707-15.3516 11.6992-15.3516Q13.4277-15.3516 14.9365-14.7119Q16.4453-14.0723 17.583-12.9297Q18.7207-11.7871 19.3652-10.2832Q20.0098-8.7793 20.0098-7.05078Q20.0098-5.32227 19.3701-3.81836Q18.7305-2.31445 17.5879-1.17676Q16.4453-0.0390625 14.9414 0.605469Q13.4375 1.25 11.709 1.25ZM7.17773-7.05078Q7.17773-6.69922 7.41211-6.47461Q7.64648-6.25 8.01758-6.25L10.8887-6.25L10.8887-3.36914Q10.8887-2.99805 11.1133-2.76855Q11.3379-2.53906 11.6895-2.53906Q12.0605-2.53906 12.29-2.76855Q12.5195-2.99805 12.5195-3.36914L12.5195-6.25L15.4004-6.25Q15.7715-6.25 16.001-6.47461Q16.2305-6.69922 16.2305-7.05078Q16.2305-7.42188 16.001-7.65137Q15.7715-7.88086 15.4004-7.88086L12.5195-7.88086L12.5195-10.752Q12.5195-11.1328 12.29-11.3623Q12.0605-11.5918 11.6895-11.5918Q11.3379-11.5918 11.1133-11.3574Q10.8887-11.123 10.8887-10.752L10.8887-7.88086L8.01758-7.88086Q7.63672-7.88086 7.40723-7.65137Q7.17773-7.42188 7.17773-7.05078Z"/>
  </g>
  <g transform="matrix(1 0 0 1 305.646 1933)">
   <path d="M14.9707 5.66406Q17.0605 5.66406 18.96 5.01465Q20.8594 4.36523 22.4512 3.19336Q24.043 2.02148 25.2197 0.429688Q26.3965-1.16211 27.0459-3.06641Q27.6953-4.9707 27.6953-7.05078Q27.6953-9.14062 27.0459-11.04Q26.3965-12.9395 25.2197-14.5312Q24.043-16.123 22.4512-17.2998Q20.8594-18.4766 18.9551-19.126Q17.0508-19.7754 14.9609-19.7754Q12.8711-19.7754 10.9717-19.126Q9.07227-18.4766 7.48535-17.2998Q5.89844-16.123 4.72168-14.5312Q3.54492-12.9395 2.90039-11.04Q2.25586-9.14062 2.25586-7.05078Q2.25586-4.9707 2.90527-3.06641Q3.55469-1.16211 4.72656 0.429688Q5.89844 2.02148 7.49023 3.19336Q9.08203 4.36523 10.9814 5.01465Q12.8809 5.66406 14.9707 5.66406ZM14.9707 3.84766Q13.1641 3.84766 11.5283 3.2959Q9.89258 2.74414 8.53516 1.74805Q7.17773 0.751953 6.17676-0.610352Q5.17578-1.97266 4.62891-3.6084Q4.08203-5.24414 4.08203-7.05078Q4.08203-8.86719 4.62891-10.5029Q5.17578-12.1387 6.17188-13.501Q7.16797-14.8633 8.52539-15.8594Q9.88281-16.8555 11.5186-17.4023Q13.1543-17.9492 14.9609-17.9492Q16.7773-17.9492 18.4131-17.4023Q20.0488-16.8555 21.4111-15.8594Q22.7734-14.8633 23.7744-13.501Q24.7754-12.1387 25.3223-10.5029Q25.8691-8.86719 25.8691-7.05078Q25.8691-5.24414 25.3223-3.6084Q24.7754-1.97266 23.7793-0.610352Q22.7832 0.751953 21.4209 1.74805Q20.0586 2.74414 18.4229 3.2959Q16.7871 3.84766 14.9707 3.84766ZM9.19922-7.05078Q9.19922-6.66992 9.45801-6.4209Q9.7168-6.17188 10.1172-6.17188L14.0625-6.17188L14.0625-2.2168Q14.0625-1.81641 14.3115-1.55762Q14.5605-1.29883 14.9512-1.29883Q15.3516-1.29883 15.6104-1.55273Q15.8691-1.80664 15.8691-2.2168L15.8691-6.17188L19.8242-6.17188Q20.2246-6.17188 20.4785-6.4209Q20.7324-6.66992 20.7324-7.05078Q20.7324-7.46094 20.4785-7.71484Q20.2246-7.96875 19.8242-7.96875L15.8691-7.96875L15.8691-11.9141Q15.8691-12.3242 15.6104-12.583Q15.3516-12.8418 14.9512-12.8418Q14.5605-12.8418 14.3115-12.583Q14.0625-12.3242 14.0625-11.9141L14.0625-7.96875L10.1172-7.96875Q9.70703-7.96875 9.45312-7.71484Q9.19922-7.46094 9.19922-7.05078Z"/>
  </g>
  <text style="stroke:none;fill:black;font-family:sans-serif;font-size:13;font-weight:bold;" transform="matrix(1 0 0 1 263 1953)">Design Variations</text>
  <text style="stroke:none;fill:black;font-family:sans-serif;font-size:13;" transform="matrix(1 0 0 1 263 1971)">Symbols are supported in up to nine weights and three scales.</text>
  <text style="stroke:none;fill:black;font-family:sans-serif;font-size:13;" transform="matrix(1 0 0 1 263 1989)">For optimal layout with text and other symbols, vertically align</text>
  <text style="stroke:none;fill:black;font-family:sans-serif;font-size:13;" transform="matrix(1 0 0 1 263 2007)">symbols with the adjacent text.</text>
  <line style="fill:none;stroke:#00AEEF;stroke-width:0.5;opacity:1.0;" x1="776" x2="776" y1="1919" y2="1933"/>
  <g transform="matrix(1 0 0 1 776 1933)">
   <path d="M3.31055 0.15625Q3.70117 0.15625 3.91602-0.00976562Q4.13086-0.175781 4.26758-0.585938L5.52734-4.0332L11.2891-4.0332L12.5488-0.585938Q12.6855-0.175781 12.9004-0.00976562Q13.1152 0.15625 13.4961 0.15625Q13.8867 0.15625 14.1162-0.0585938Q14.3457-0.273438 14.3457-0.644531Q14.3457-0.869141 14.2383-1.17188L9.6582-13.3691Q9.48242-13.8184 9.17969-14.043Q8.87695-14.2676 8.4082-14.2676Q7.5-14.2676 7.17773-13.3789L2.59766-1.16211Q2.49023-0.859375 2.49023-0.634766Q2.49023-0.263672 2.70996-0.0537109Q2.92969 0.15625 3.31055 0.15625ZM6.00586-5.51758L8.37891-12.0898L8.42773-12.0898L10.8008-5.51758Z"/>
  </g>
  <line style="fill:none;stroke:#00AEEF;stroke-width:0.5;opacity:1.0;" x1="793.197" x2="793.197" y1="1919" y2="1933"/>
  <text style="stroke:none;fill:black;font-family:sans-serif;font-size:13;font-weight:bold;" transform="matrix(1 0 0 1 776 1953)">Margins</text>
  <text style="stroke:none;fill:black;font-family:sans-serif;font-size:13;" transform="matrix(1 0 0 1 776 1971)">Leading and trailing margins on the left and right side of each symbol</text>
  <text style="stroke:none;fill:black;font-family:sans-serif;font-size:13;" transform="matrix(1 0 0 1 776 1989)">can be adjusted by modifying the x-location of the margin guidelines.</text>
  <text style="stroke:none;fill:black;font-family:sans-serif;font-size:13;" transform="matrix(1 0 0 1 776 2007)">Modifications are automatically applied proportionally to all</text>
  <text style="stroke:none;fill:black;font-family:sans-serif;font-size:13;" transform="matrix(1 0 0 1 776 2025)">scales and weights.</text>
  <g transform="matrix(1 0 0 1 1289 1933)">
   <path d="M2.8418 1.86523L4.54102 3.57422Q5.18555 4.22852 5.90332 4.17969Q6.62109 4.13086 7.31445 3.35938L18.0078-8.42773L17.041-9.4043L6.42578 2.27539Q6.16211 2.57812 5.89355 2.61719Q5.625 2.65625 5.27344 2.30469L4.10156 1.14258Q3.75 0.791016 3.79395 0.522461Q3.83789 0.253906 4.14062-0.0195312L15.6152-10.8203L14.6387-11.7871L3.04688-0.898438Q2.30469-0.214844 2.25098 0.498047Q2.19727 1.21094 2.8418 1.86523ZM9.25781-16.3281Q8.94531-16.0254 8.90625-15.6348Q8.86719-15.2441 9.04297-14.9512Q9.21875-14.6777 9.55566-14.541Q9.89258-14.4043 10.3809-14.5215Q11.4746-14.7754 12.5977-14.7314Q13.7207-14.6875 14.7949-13.9844L14.209-12.5293Q13.9551-11.9043 14.0674-11.4404Q14.1797-10.9766 14.5801-10.5664L16.875-8.25195Q17.2363-7.88086 17.5781-7.82227Q17.9199-7.76367 18.3398-7.8418L19.4043-8.03711L20.0684-7.36328L20.0293-6.80664Q20-6.43555 20.1221-6.12305Q20.2441-5.81055 20.6055-5.44922L21.3672-4.70703Q21.7285-4.3457 22.1533-4.33105Q22.5781-4.31641 22.9297-4.66797L25.8398-7.58789Q26.1914-7.93945 26.1816-8.35449Q26.1719-8.76953 25.8105-9.13086L25.0391-9.89258Q24.6875-10.2539 24.3799-10.3857Q24.0723-10.5176 23.7109-10.4883L23.1348-10.4395L22.4902-11.0742L22.7344-12.1973Q22.832-12.6172 22.6953-12.9834Q22.5586-13.3496 22.1191-13.7891L19.9219-15.9766Q18.6719-17.2168 17.2607-17.8369Q15.8496-18.457 14.4189-18.4814Q12.9883-18.5059 11.665-17.959Q10.3418-17.4121 9.25781-16.3281ZM10.752-15.957Q11.6602-16.6211 12.7002-16.9043Q13.7402-17.1875 14.8047-17.085Q15.8691-16.9824 16.8701-16.5137Q17.8711-16.0449 18.7012-15.2051L21.1328-12.793Q21.3086-12.6172 21.3525-12.4512Q21.3965-12.2852 21.3379-12.0312L21.0156-10.5469L22.5195-9.0625L23.5059-9.12109Q23.6914-9.13086 23.7891-9.09668Q23.8867-9.0625 24.0332-8.91602L24.6094-8.33984L22.168-5.89844L21.5918-6.47461Q21.4453-6.62109 21.4062-6.71875Q21.3672-6.81641 21.377-7.01172L21.4453-7.98828L19.9512-9.47266L18.4277-9.21875Q18.1836-9.16992 18.042-9.2041Q17.9004-9.23828 17.7148-9.41406L15.7129-11.416Q15.5176-11.5918 15.4932-11.7529Q15.4688-11.9141 15.5859-12.1875L16.4648-14.2773Q15.293-15.3711 13.8281-15.791Q12.3633-16.2109 10.8398-15.7617Q10.7227-15.7324 10.6885-15.8057Q10.6543-15.8789 10.752-15.957Z"/>
  </g>
  <text style="stroke:none;fill:black;font-family:sans-serif;font-size:13;font-weight:bold;" transform="matrix(1 0 0 1 1289 1953)">Exporting</text>
  <text style="stroke:none;fill:black;font-family:sans-serif;font-size:13;" transform="matrix(1 0 0 1 1289 1971)">Symbols should be outlined when exporting to ensure the</text>
  <text style="stroke:none;fill:black;font-family:sans-serif;font-size:13;" transform="matrix(1 0 0 1 1289 1989)">design is preserved when submitting to Xcode.</text>
  <text id="template-version" style="stroke:none;fill:black;font-family:sans-serif;font-size:13;text-anchor:end;" transform="matrix(1 0 0 1 3036 1933)">Template v.2.0</text>
  <text style="stroke:none;fill:black;font-family:sans-serif;font-size:13;text-anchor:end;" transform="matrix(1 0 0 1 3036 1951)">Requires Xcode 12 or greater</text>
  <text id="descriptive-name" style="stroke:none;fill:black;font-family:sans-serif;font-size:13;text-anchor:end;" transform="matrix(1 0 0 1 3036 1969)">Generated from plus</text>
  <text style="stroke:none;fill:black;font-family:sans-serif;font-size:13;text-anchor:end;" transform="matrix(1 0 0 1 3036 1987)">Typeset at 100 points</text>
  <text style="stroke:none;fill:black;font-family:sans-serif;font-size:13;" transform="matrix(1 0 0 1 263 726)">Small</text>
  <text style="stroke:none;fill:black;font-family:sans-serif;font-size:13;" transform="matrix(1 0 0 1 263 1156)">Medium</text>
  <text style="stroke:none;fill:black;font-family:sans-serif;font-size:13;" transform="matrix(1 0 0 1 263 1586)">Large</text>
 </g>
 <g id="Guides">
  <g id="H-reference" style="fill:#27AAE1;stroke:none;" transform="matrix(1 0 0 1 339 696)">
   <path d="M0.993347 0L3.6377 0L29.3282-67.1326L30.0301-67.1326L30.0301-70.459L28.1227-70.459ZM11.6882-24.4797L46.9818-24.4797L46.2311-26.7288L12.4382-26.7288ZM55.1193 0L57.7637 0L30.6381-70.459L29.4327-70.459L29.4327-67.1326Z"/>
  </g>
  <line id="Baseline-S" style="fill:none;stroke:#27AAE1;opacity:1;stroke-width:0.5;" x1="263" x2="3036" y1="696" y2="696"/>
  <line id="Capline-S" style="fill:none;stroke:#27AAE1;opacity:1;stroke-width:0.5;" x1="263" x2="3036" y1="625.541" y2="625.541"/>
  <g id="H-reference" style="fill:#27AAE1;stroke:none;" transform="matrix(1 0 0 1 339 1126)">
   <path d="M0.993347 0L3.6377 0L29.3282-67.1326L30.0301-67.1326L30.0301-70.459L28.1227-70.459ZM11.6882-24.4797L46.9818-24.4797L46.2311-26.7288L12.4382-26.7288ZM55.1193 0L57.7637 0L30.6381-70.459L29.4327-70.459L29.4327-67.1326Z"/>
  </g>
  <line id="Baseline-M" style="fill:none;stroke:#27AAE1;opacity:1;stroke-width:0.5;" x1="263" x2="3036" y1="1126" y2="1126"/>
  <line id="Capline-M" style="fill:none;stroke:#27AAE1;opacity:1;stroke-width:0.5;" x1="263" x2="3036" y1="1055.54" y2="1055.54"/>
  <g id="H-reference" style="fill:#27AAE1;stroke:none;" transform="matrix(1 0 0 1 339 1556)">
   <path d="M0.993347 0L3.6377 0L29.3282-67.1326L30.0301-67.1326L30.0301-70.459L28.1227-70.459ZM11.6882-24.4797L46.9818-24.4797L46.2311-26.7288L12.4382-26.7288ZM55.1193 0L57.7637 0L30.6381-70.459L29.4327-70.459L29.4327-67.1326Z"/>
  </g>
  <line id="Baseline-L" style="fill:none;stroke:#27AAE1;opacity:1;stroke-width:0.5;" x1="263" x2="3036" y1="1556" y2="1556"/>
  <line id="Capline-L" style="fill:none;stroke:#27AAE1;opacity:1;stroke-width:0.5;" x1="263" x2="3036" y1="1485.54" y2="1485.54"/>
  <line id="left-margin" style="fill:none;stroke:#00AEEF;stroke-width:0.5;opacity:1.0;" x1="1397.12" x2="1397.12" y1="1030.79" y2="1150.12"/>
  <line id="right-margin" style="fill:none;stroke:#00AEEF;stroke-width:0.5;opacity:1.0;" x1="1502.57" x2="1502.57" y1="1030.79" y2="1150.12"/>
 </g>
 <g id="Symbols">
  <g id="Black-L" transform="matrix(1 0 0 1 2861.98 1556)">
   <path d="M16.084-35.2113Q16.084-30.2511 19.5689-26.7662Q23.0538-23.2812 28.014-23.2812L59.5006-23.2812L59.5006 8.20535Q59.5006 13.1447 62.9856 16.6401Q66.4705 20.1354 71.4307 20.1354Q76.3909 20.1354 79.8654 16.6401Q83.3399 13.1447 83.3399 8.20535L83.3399-23.2812L114.847-23.2812Q119.787-23.2812 123.272-26.7662Q126.757-30.2511 126.757-35.2113Q126.757-40.1715 123.272-43.6564Q119.787-47.1414 114.847-47.1414L83.3399-47.1414L83.3399-78.6279Q83.3399-83.5673 79.8654-87.0627Q76.3909-90.558 71.4307-90.558Q66.4705-90.558 62.9856-87.0627Q59.5006-83.5673 59.5006-78.6279L59.5006-47.1414L28.014-47.1414Q23.0538-47.1414 19.5689-43.6564Q16.084-40.1715 16.084-35.2113Z"/>
  </g>
  <g id="Heavy-L" transform="matrix(1 0 0 1 2566.12 1556)">
   <path d="M16.084-35.2251Q16.084-30.9266 19.115-27.8956Q22.1461-24.8645 26.4445-24.8645L60.2186-24.8645L60.2186 8.90955Q60.2186 13.1778 63.2497 16.2239Q66.2807 19.2701 70.5792 19.2701Q74.8776 19.2701 77.8936 16.2239Q80.9095 13.1778 80.9095 8.90955L80.9095-24.8645L114.714-24.8645Q118.982-24.8645 122.013-27.8956Q125.044-30.9266 125.044-35.2251Q125.044-39.5235 122.013-42.5546Q118.982-45.5856 114.714-45.5856L80.9095-45.5856L80.9095-79.3597Q80.9095-83.6279 77.8936-86.6741Q74.8776-89.7203 70.5792-89.7203Q66.2807-89.7203 63.2497-86.6741Q60.2186-83.6279 60.2186-79.3597L60.2186-45.5856L26.4445-45.5856Q22.1461-45.5856 19.115-42.5546Q16.084-39.5235 16.084-35.2251Z"/>
  </g>
  <g id="Bold-L" transform="matrix(1 0 0 1 2270.49 1556)">
   <path d="M16.084-35.2405Q16.084-31.7493 18.5578-29.2754Q21.0317-26.8016 24.5229-26.8016L61.0726-26.8016L61.0726 9.74817Q61.0726 13.2013 63.5465 15.6942Q66.0203 18.1871 69.5116 18.1871Q73.0028 18.1871 75.4576 15.6942Q77.9123 13.2013 77.9123 9.74817L77.9123-26.8016L114.5-26.8016Q117.953-26.8016 120.427-29.2754Q122.901-31.7493 122.901-35.2405Q122.901-38.7317 120.427-41.2056Q117.953-43.6794 114.5-43.6794L77.9123-43.6794L77.9123-80.2292Q77.9123-83.6823 75.4576-86.1752Q73.0028-88.6681 69.5116-88.6681Q66.0203-88.6681 63.5465-86.1752Q61.0726-83.6823 61.0726-80.2292L61.0726-43.6794L24.5229-43.6794Q21.0317-43.6794 18.5578-41.2056Q16.084-38.7317 16.084-35.2405Z"/>
  </g>
  <g id="Semibold-L" transform="matrix(1 0 0 1 1974.51 1556)">
   <path d="M16.084-35.2511Q16.084-32.3164 18.1737-30.2267Q20.2634-28.137 23.1981-28.137L61.6614-28.137L61.6614 10.3263Q61.6614 13.2175 63.7511 15.329Q65.8408 17.4404 68.7755 17.4404Q71.7103 17.4404 73.7782 15.329Q75.8461 13.2175 75.8461 10.3263L75.8461-28.137L114.353-28.137Q117.244-28.137 119.334-30.2267Q121.424-32.3164 121.424-35.2511Q121.424-38.1859 119.334-40.2756Q117.244-42.3653 114.353-42.3653L75.8461-42.3653L75.8461-80.8286Q75.8461-83.7198 73.7782-85.8312Q71.7103-87.9427 68.7755-87.9427Q65.8408-87.9427 63.7511-85.8312Q61.6614-83.7198 61.6614-80.8286L61.6614-42.3653L23.1981-42.3653Q20.2634-42.3653 18.1737-40.2756Q16.084-38.1859 16.084-35.2511Z"/>
  </g>
  <g id="Medium-L" transform="matrix(1 0 0 1 1678.36 1556)">
   <path d="M16.084-35.2592Q16.084-32.7464 17.8824-30.948Q19.6808-29.1496 22.1936-29.1496L62.1078-29.1496L62.1078 10.7647Q62.1078 13.2298 63.9062 15.0521Q65.7047 16.8743 68.2175 16.8743Q70.7303 16.8743 72.5049 15.0521Q74.2794 13.2298 74.2794 10.7647L74.2794-29.1496L114.241-29.1496Q116.706-29.1496 118.505-30.948Q120.303-32.7464 120.303-35.2592Q120.303-37.772 118.505-39.5704Q116.706-41.3688 114.241-41.3688L74.2794-41.3688L74.2794-81.283Q74.2794-83.7482 72.5049-85.5704Q70.7303-87.3927 68.2175-87.3927Q65.7047-87.3927 63.9062-85.5704Q62.1078-83.7482 62.1078-81.283L62.1078-41.3688L22.1936-41.3688Q19.6808-41.3688 17.8824-39.5704Q16.084-37.772 16.084-35.2592Z"/>
  </g>
  <g id="Regular-L" transform="matrix(1 0 0 1 1382.38 1556)">
   <path d="M16.084-35.2697Q16.084-33.3073 17.5025-31.8888Q18.9209-30.4703 20.8834-30.4703L62.6901-30.4703L62.6901 11.3364Q62.6901 13.2459 64.1086 14.6909Q65.5271 16.1358 67.4895 16.1358Q69.452 16.1358 70.8439 14.6909Q72.2359 13.2459 72.2359 11.3364L72.2359-30.4703L114.096-30.4703Q116.005-30.4703 117.424-31.8888Q118.842-33.3073 118.842-35.2697Q118.842-37.2321 117.424-38.6506Q116.005-40.0691 114.096-40.0691L72.2359-40.0691L72.2359-81.8759Q72.2359-83.7853 70.8439-85.2303Q69.452-86.6753 67.4895-86.6753Q65.5271-86.6753 64.1086-85.2303Q62.6901-83.7853 62.6901-81.8759L62.6901-40.0691L20.8834-40.0691Q18.9209-40.0691 17.5025-38.6506Q16.084-37.2321 16.084-35.2697Z"/>
  </g>
  <g id="Light-L" transform="matrix(1 0 0 1 1086.48 1556)">
   <path d="M16.084-35.2697Q16.084-33.7844 17.1494-32.719Q18.2149-31.6535 19.7002-31.6535L63.0528-31.6535L63.0528 11.6991Q63.0528 13.1503 64.1182 14.2328Q65.1837 15.3153 66.669 15.3153Q68.1543 15.3153 69.2027 14.2328Q70.2511 13.1503 70.2511 11.6991L70.2511-31.6535L113.638-31.6535Q115.089-31.6535 116.154-32.719Q117.22-33.7844 117.22-35.2697Q117.22-36.755 116.154-37.8204Q115.089-38.8859 113.638-38.8859L70.2511-38.8859L70.2511-82.2385Q70.2511-83.6897 69.2027-84.7722Q68.1543-85.8547 66.669-85.8547Q65.1837-85.8547 64.1182-84.7722Q63.0528-83.6897 63.0528-82.2385L63.0528-38.8859L19.7002-38.8859Q18.2149-38.8859 17.1494-37.8204Q16.084-36.755 16.084-35.2697Z"/>
  </g>
  <g id="Thin-L" transform="matrix(1 0 0 1 790.843 1556)">
   <path d="M16.084-35.2697Q16.084-34.4155 16.6825-33.8169Q17.281-33.2184 18.1353-33.2184L63.5324-33.2184L63.5324 12.1788Q63.5324 13.0239 64.131 13.627Q64.7295 14.23 65.5837 14.23Q66.438 14.23 67.032 13.627Q67.6259 13.0239 67.6259 12.1788L67.6259-33.2184L113.032-33.2184Q113.877-33.2184 114.476-33.8169Q115.074-34.4155 115.074-35.2697Q115.074-36.124 114.476-36.7225Q113.877-37.321 113.032-37.321L67.6259-37.321L67.6259-82.7182Q67.6259-83.5633 67.032-84.1664Q66.438-84.7694 65.5837-84.7694Q64.7295-84.7694 64.131-84.1664Q63.5324-83.5633 63.5324-82.7182L63.5324-37.321L18.1353-37.321Q17.281-37.321 16.6825-36.7225Q16.084-36.124 16.084-35.2697Z"/>
  </g>
  <g id="Ultralight-L" transform="matrix(1 0 0 1 494.681 1556)">
   <path d="M16.084-35.2697Q16.084-34.7387 16.4433-34.3793Q16.8027-34.02 17.3337-34.02L63.7781-34.02L63.7781 12.4244Q63.7781 12.9592 64.1375 13.3167Q64.4968 13.6742 65.0279 13.6742Q65.5589 13.6742 65.9201 13.3167Q66.2814 12.9592 66.2814 12.4244L66.2814-34.02L112.722-34.02Q113.257-34.02 113.616-34.3793Q113.975-34.7387 113.975-35.2697Q113.975-35.8007 113.616-36.1601Q113.257-36.5194 112.722-36.5194L66.2814-36.5194L66.2814-82.9638Q66.2814-83.4986 65.9201-83.8561Q65.5589-84.2136 65.0279-84.2136Q64.4968-84.2136 64.1375-83.8561Q63.7781-83.4986 63.7781-82.9638L63.7781-36.5194L17.3337-36.5194Q16.8027-36.5194 16.4433-36.1601Q16.084-35.8007 16.084-35.2697Z"/>
  </g>
  <g id="Black-M" transform="matrix(1 0 0 1 2877.44 1126)">
   <path d="M12.4609-35.2035Q12.4609-30.8566 15.5031-27.8144Q18.5452-24.7723 22.8922-24.7723L45.5297-24.7723L45.5297-2.13477Q45.5297 2.20672 48.5719 5.25162Q51.614 8.29651 55.961 8.29651Q60.308 8.29651 63.3474 5.25162Q66.3868 2.20672 66.3868-2.13477L66.3868-24.7723L89.0298-24.7723Q93.3713-24.7723 96.4134-27.8144Q99.4556-30.8566 99.4556-35.2035Q99.4556-39.5505 96.4134-42.5927Q93.3713-45.6348 89.0298-45.6348L66.3868-45.6348L66.3868-68.2723Q66.3868-72.6138 63.3474-75.6587Q60.308-78.7036 55.961-78.7036Q51.614-78.7036 48.5719-75.6587Q45.5297-72.6138 45.5297-68.2723L45.5297-45.6348L22.8922-45.6348Q18.5452-45.6348 15.5031-42.5927Q12.4609-39.5505 12.4609-35.2035Z"/>
  </g>
  <g id="Heavy-M" transform="matrix(1 0 0 1 2581.49 1126)">
   <path d="M12.4609-35.217Q12.4609-31.4729 15.092-28.8419Q17.723-26.2109 21.4671-26.2109L46.1981-26.2109L46.1981-1.47982Q46.1981 2.24782 48.8292 4.88707Q51.4602 7.52632 55.2043 7.52632Q58.9484 7.52632 61.5712 4.88707Q64.194 2.24782 64.194-1.47982L64.194-26.2109L88.9415-26.2109Q92.6691-26.2109 95.3002-28.8419Q97.9312-31.4729 97.9312-35.217Q97.9312-38.9611 95.3002-41.5921Q92.6691-44.2232 88.9415-44.2232L64.194-44.2232L64.194-68.9542Q64.194-72.6819 61.5712-75.3211Q58.9484-77.9604 55.2043-77.9604Q51.4602-77.9604 48.8292-75.3211Q46.1981-72.6819 46.1981-68.9542L46.1981-44.2232L21.4671-44.2232Q17.723-44.2232 15.092-41.5921Q12.4609-38.9611 12.4609-35.217Z"/>
  </g>
  <g id="Bold-M" transform="matrix(1 0 0 1 2285.63 1126)">
   <path d="M12.4609-35.2321Q12.4609-32.1625 14.6321-29.9913Q16.8032-27.8202 19.8729-27.8202L46.9459-27.8202L46.9459-0.74717Q46.9459 2.29379 49.117 4.47927Q51.2882 6.66475 54.3578 6.66475Q57.4274 6.66475 59.5842 4.47927Q61.741 2.29379 61.741-0.74717L61.741-27.8202L88.8427-27.8202Q91.8837-27.8202 94.0548-29.9913Q96.226-32.1625 96.226-35.2321Q96.226-38.3017 94.0548-40.4729Q91.8837-42.644 88.8427-42.644L61.741-42.644L61.741-69.717Q61.741-72.758 59.5842-74.9435Q57.4274-77.1289 54.3578-77.1289Q51.2882-77.1289 49.117-74.9435Q46.9459-72.758 46.9459-69.717L46.9459-42.644L19.8729-42.644Q16.8032-42.644 14.6321-40.4729Q12.4609-38.3017 12.4609-35.2321Z"/>
  </g>
  <g id="Semibold-M" transform="matrix(1 0 0 1 1989.51 1126)">
   <path d="M12.4609-35.2425Q12.4609-32.6378 14.315-30.7837Q16.1691-28.9296 18.7738-28.9296L47.4613-28.9296L47.4613-0.242082Q47.4613 2.32549 49.3154 4.19814Q51.1695 6.07079 53.7742 6.07079Q56.3789 6.07079 58.2144 4.19814Q60.05 2.32549 60.05-0.242082L60.05-28.9296L88.7746-28.9296Q91.3422-28.9296 93.1963-30.7837Q95.0504-32.6378 95.0504-35.2425Q95.0504-37.8472 93.1963-39.7013Q91.3422-41.5554 88.7746-41.5554L60.05-41.5554L60.05-70.2429Q60.05-72.8105 58.2144-74.6831Q56.3789-76.5558 53.7742-76.5558Q51.1695-76.5558 49.3154-74.6831Q47.4613-72.8105 47.4613-70.2429L47.4613-41.5554L18.7738-41.5554Q16.1691-41.5554 14.315-39.7013Q12.4609-37.8472 12.4609-35.2425Z"/>
  </g>
  <g id="Medium-M" transform="matrix(1 0 0 1 1693.25 1126)">
   <path d="M12.4609-35.2504Q12.4609-32.9982 14.0746-31.3845Q15.6883-29.7708 17.9405-29.7708L47.8522-29.7708L47.8522 0.140897Q47.8522 2.34952 49.4659 3.98497Q51.0796 5.62042 53.3317 5.62042Q55.5839 5.62042 57.1758 3.98497Q58.7677 2.34952 58.7677 0.140897L58.7677-29.7708L88.723-29.7708Q90.9316-29.7708 92.5453-31.3845Q94.159-32.9982 94.159-35.2504Q94.159-37.5025 92.5453-39.1162Q90.9316-40.7299 88.723-40.7299L58.7677-40.7299L58.7677-70.6416Q58.7677-72.8503 57.1758-74.4857Q55.5839-76.1212 53.3317-76.1212Q51.0796-76.1212 49.4659-74.4857Q47.8522-72.8503 47.8522-70.6416L47.8522-40.7299L17.9405-40.7299Q15.6883-40.7299 14.0746-39.1162Q12.4609-37.5025 12.4609-35.2504Z"/>
  </g>
  <g id="Regular-M" transform="matrix(1 0 0 1 1397.12 1126)">
   <path d="M12.4609-35.2606Q12.4609-33.4684 13.7611-32.1682Q15.0612-30.8681 16.8535-30.8681L48.362-30.8681L48.362 0.640434Q48.362 2.38086 49.6622 3.70693Q50.9623 5.03299 52.7546 5.03299Q54.5468 5.03299 55.8211 3.70693Q57.0953 2.38086 57.0953 0.640434L57.0953-30.8681L88.6556-30.8681Q90.3961-30.8681 91.6962-32.1682Q92.9964-33.4684 92.9964-35.2606Q92.9964-37.0529 91.6962-38.3531Q90.3961-39.6532 88.6556-39.6532L57.0953-39.6532L57.0953-71.1617Q57.0953-72.9022 55.8211-74.2282Q54.5468-75.5543 52.7546-75.5543Q50.9623-75.5543 49.6622-74.2282Q48.362-72.9022 48.362-71.1617L48.362-39.6532L16.8535-39.6532Q15.0612-39.6532 13.7611-38.3531Q12.4609-37.0529 12.4609-35.2606Z"/>
  </g>
  <g id="Light-M" transform="matrix(1 0 0 1 1101.13 1126)">
   <path d="M12.4609-35.2606Q12.4609-33.8961 13.4446-32.9125Q14.4282-31.9289 15.7927-31.9289L48.6872-31.9289L48.6872 0.965579Q48.6872 2.29519 49.6708 3.29625Q50.6544 4.29731 52.0189 4.29731Q53.3834 4.29731 54.3496 3.29625Q55.3157 2.29519 55.3157 0.965579L55.3157-31.9289L88.2451-31.9289Q89.5747-31.9289 90.5584-32.9125Q91.542-33.8961 91.542-35.2606Q91.542-36.6251 90.5584-37.6088Q89.5747-38.5924 88.2451-38.5924L55.3157-38.5924L55.3157-71.4869Q55.3157-72.8165 54.3496-73.8175Q53.3834-74.8186 52.0189-74.8186Q50.6544-74.8186 49.6708-73.8175Q48.6872-72.8165 48.6872-71.4869L48.6872-38.5924L15.7927-38.5924Q14.4282-38.5924 13.4446-37.6088Q12.4609-36.6251 12.4609-35.2606Z"/>
  </g>
  <g id="Thin-M" transform="matrix(1 0 0 1 805.383 1126)">
   <path d="M12.4609-35.2606Q12.4609-34.4619 13.0259-33.8969Q13.5909-33.3319 14.3897-33.3319L49.1172-33.3319L49.1172 1.39561Q49.1172 2.18189 49.6822 2.75311Q50.2472 3.32433 51.0459 3.32433Q51.8446 3.32433 52.4034 2.75311Q52.9622 2.18189 52.9622 1.39561L52.9622-33.3319L87.7022-33.3319Q88.4884-33.3319 89.0534-33.8969Q89.6184-34.4619 89.6184-35.2606Q89.6184-36.0594 89.0534-36.6244Q88.4884-37.1894 87.7022-37.1894L52.9622-37.1894L52.9622-71.9169Q52.9622-72.7032 52.4034-73.2744Q51.8446-73.8456 51.0459-73.8456Q50.2472-73.8456 49.6822-73.2744Q49.1172-72.7032 49.1172-71.9169L49.1172-37.1894L14.3897-37.1894Q13.5909-37.1894 13.0259-36.6244Q12.4609-36.0594 12.4609-35.2606Z"/>
  </g>
  <g id="Ultralight-M" transform="matrix(1 0 0 1 509.164 1126)">
   <path d="M12.4609-35.2606Q12.4609-34.7517 12.8115-34.4011Q13.1621-34.0505 13.671-34.0505L49.3375-34.0505L49.3375 1.61587Q49.3375 2.12385 49.688 2.47491Q50.0386 2.82597 50.5476 2.82597Q51.0565 2.82597 51.4066 2.47491Q51.7567 2.12385 51.7567 1.61587L51.7567-34.0505L87.4241-34.0505Q87.932-34.0505 88.2826-34.4011Q88.6332-34.7517 88.6332-35.2606Q88.6332-35.7696 88.2826-36.1202Q87.932-36.4707 87.4241-36.4707L51.7567-36.4707L51.7567-72.1372Q51.7567-72.6451 51.4066-72.9962Q51.0565-73.3473 50.5476-73.3473Q50.0386-73.3473 49.688-72.9962Q49.3375-72.6451 49.3375-72.1372L49.3375-36.4707L13.671-36.4707Q13.1621-36.4707 12.8115-36.1202Q12.4609-35.7696 12.4609-35.2606Z"/>
  </g>
  <g id="Black-S" transform="matrix(1 0 0 1 2889.36 696)">
   <path d="M9.76562-35.2051Q9.76562-31.6406 12.2559-29.1504Q14.7461-26.6602 18.3105-26.6602L35.498-26.6602L35.498-9.47266Q35.498-5.9082 37.9883-3.41797Q40.4785-0.927734 44.043-0.927734Q47.6074-0.927734 50.0977-3.41797Q52.5879-5.9082 52.5879-9.47266L52.5879-26.6602L69.7754-26.6602Q73.3398-26.6602 75.8301-29.1504Q78.3203-31.6406 78.3203-35.2051Q78.3203-38.7695 75.8301-41.2598Q73.3398-43.75 69.7754-43.75L52.5879-43.75L52.5879-60.9375Q52.5879-64.502 50.0977-66.9922Q47.6074-69.4824 44.043-69.4824Q40.4785-69.4824 37.9883-66.9922Q35.498-64.502 35.498-60.9375L35.498-43.75L18.3105-43.75Q14.7461-43.75 12.2559-41.2598Q9.76562-38.7695 9.76562-35.2051Z"/>
  </g>
  <g id="Heavy-S" transform="matrix(1 0 0 1 2593.2 696)">
   <path d="M9.76562-35.2166Q9.76562-32.1131 11.9447-29.9341Q14.1238-27.755 17.2272-27.755L36.0282-27.755L36.0282-8.95406Q36.0282-5.86211 38.2072-3.67727Q40.3863-1.49243 43.4898-1.49243Q46.5933-1.49243 48.7666-3.67727Q50.9399-5.86211 50.9399-8.95406L50.9399-27.755L69.7523-27.755Q72.8443-27.755 75.0234-29.9341Q77.2024-32.1131 77.2024-35.2166Q77.2024-38.3201 75.0234-40.4992Q72.8443-42.6782 69.7523-42.6782L50.9399-42.6782L50.9399-61.4791Q50.9399-64.5711 48.7666-66.7559Q46.5933-68.9408 43.4898-68.9408Q40.3863-68.9408 38.2072-66.7559Q36.0282-64.5711 36.0282-61.4791L36.0282-42.6782L17.2272-42.6782Q14.1238-42.6782 11.9447-40.4992Q9.76562-38.3201 9.76562-35.2166Z"/>
  </g>
  <g id="Bold-S" transform="matrix(1 0 0 1 2297.12 696)">
   <path d="M9.76562-35.2295Q9.76562-32.6416 11.5967-30.8105Q13.4277-28.9795 16.0156-28.9795L36.6211-28.9795L36.6211-8.37402Q36.6211-5.81055 38.4521-3.96729Q40.2832-2.12402 42.8711-2.12402Q45.459-2.12402 47.2778-3.96729Q49.0967-5.81055 49.0967-8.37402L49.0967-28.9795L69.7266-28.9795Q72.29-28.9795 74.1211-30.8105Q75.9521-32.6416 75.9521-35.2295Q75.9521-37.8174 74.1211-39.6484Q72.29-41.4795 69.7266-41.4795L49.0967-41.4795L49.0967-62.085Q49.0967-64.6484 47.2778-66.4917Q45.459-68.335 42.8711-68.335Q40.2832-68.335 38.4521-66.4917Q36.6211-64.6484 36.6211-62.085L36.6211-41.4795L16.0156-41.4795Q13.4277-41.4795 11.5967-39.6484Q9.76562-37.8174 9.76562-35.2295Z"/>
  </g>
  <g id="Semibold-S" transform="matrix(1 0 0 1 2000.84 696)">
   <path d="M9.76562-35.2384Q9.76562-33.006 11.3567-31.4148Q12.9479-29.8237 15.1803-29.8237L37.0299-29.8237L37.0299-7.97412Q37.0299-5.775 38.621-4.16724Q40.2121-2.55947 42.4445-2.55947Q44.677-2.55947 46.2514-4.16724Q47.8259-5.775 47.8259-7.97412L47.8259-29.8237L69.7088-29.8237Q71.9079-29.8237 73.499-31.4148Q75.0901-33.006 75.0901-35.2384Q75.0901-37.4708 73.499-39.0619Q71.9079-40.653 69.7088-40.653L47.8259-40.653L47.8259-62.5026Q47.8259-64.7018 46.2514-66.3095Q44.677-67.9173 42.4445-67.9173Q40.2121-67.9173 38.621-66.3095Q37.0299-64.7018 37.0299-62.5026L37.0299-40.653L15.1803-40.653Q12.9479-40.653 11.3567-39.0619Q9.76562-37.4708 9.76562-35.2384Z"/>
  </g>
  <g id="Medium-S" transform="matrix(1 0 0 1 1704.45 696)">
   <path d="M9.76562-35.2451Q9.76562-33.2822 11.1748-31.873Q12.584-30.4639 14.5469-30.4639L37.3398-30.4639L37.3398-7.6709Q37.3398-5.74805 38.749-4.31885Q40.1582-2.88965 42.1211-2.88965Q44.084-2.88965 45.4731-4.31885Q46.8623-5.74805 46.8623-7.6709L46.8623-30.4639L69.6953-30.4639Q71.6182-30.4639 73.0273-31.873Q74.4365-33.2822 74.4365-35.2451Q74.4365-37.208 73.0273-38.6172Q71.6182-40.0264 69.6953-40.0264L46.8623-40.0264L46.8623-62.8193Q46.8623-64.7422 45.4731-66.1714Q44.084-67.6006 42.1211-67.6006Q40.1582-67.6006 38.749-66.1714Q37.3398-64.7422 37.3398-62.8193L37.3398-40.0264L14.5469-40.0264Q12.584-40.0264 11.1748-38.6172Q9.76562-37.208 9.76562-35.2451Z"/>
  </g>
  <g id="Regular-S" transform="matrix(1 0 0 1 1408.17 696)">
   <path d="M9.76562-35.2539Q9.76562-33.6426 10.9375-32.4707Q12.1094-31.2988 13.7207-31.2988L37.7441-31.2988L37.7441-7.27539Q37.7441-5.71289 38.916-4.5166Q40.0879-3.32031 41.6992-3.32031Q43.3105-3.32031 44.458-4.5166Q45.6055-5.71289 45.6055-7.27539L45.6055-31.2988L69.6777-31.2988Q71.2402-31.2988 72.4121-32.4707Q73.584-33.6426 73.584-35.2539Q73.584-36.8652 72.4121-38.0371Q71.2402-39.209 69.6777-39.209L45.6055-39.209L45.6055-63.2324Q45.6055-64.7949 44.458-65.9912Q43.3105-67.1875 41.6992-67.1875Q40.0879-67.1875 38.916-65.9912Q37.7441-64.7949 37.7441-63.2324L37.7441-39.209L13.7207-39.209Q12.1094-39.209 10.9375-38.0371Q9.76562-36.8652 9.76562-35.2539Z"/>
  </g>
  <g id="Light-S" transform="matrix(1 0 0 1 1112.1 696)">
   <path d="M9.76562-35.2539Q9.76562-34.021 10.6575-33.1291Q11.5494-32.2372 12.7823-32.2372L38.0318-32.2372L38.0318-6.98776Q38.0318-5.78868 38.9236-4.87989Q39.8155-3.9711 41.0484-3.9711Q42.2813-3.9711 43.1563-4.87989Q44.0313-5.78868 44.0313-6.98776L44.0313-32.2372L69.3146-32.2372Q70.5137-32.2372 71.4055-33.1291Q72.2974-34.021 72.2974-35.2539Q72.2974-36.4868 71.4055-37.3787Q70.5137-38.2706 69.3146-38.2706L44.0313-38.2706L44.0313-63.5201Q44.0313-64.7191 43.1563-65.6279Q42.2813-66.5367 41.0484-66.5367Q39.8155-66.5367 38.9236-65.6279Q38.0318-64.7191 38.0318-63.5201L38.0318-38.2706L12.7823-38.2706Q11.5494-38.2706 10.6575-37.3787Q9.76562-36.4868 9.76562-35.2539Z"/>
  </g>
  <g id="Thin-S" transform="matrix(1 0 0 1 816.242 696)">
   <path d="M9.76562-35.2539Q9.76562-34.5215 10.2872-33.9999Q10.8087-33.4784 11.5412-33.4784L38.4122-33.4784L38.4122-6.60735Q38.4122-5.88891 38.9337-5.36036Q39.4553-4.83182 40.1877-4.83182Q40.9201-4.83182 41.4347-5.36036Q41.9493-5.88891 41.9493-6.60735L41.9493-33.4784L68.8343-33.4784Q69.5527-33.4784 70.0743-33.9999Q70.5958-34.5215 70.5958-35.2539Q70.5958-35.9863 70.0743-36.5079Q69.5527-37.0294 68.8343-37.0294L41.9493-37.0294L41.9493-63.9005Q41.9493-64.6189 41.4347-65.1474Q40.9201-65.676 40.1877-65.676Q39.4553-65.676 38.9337-65.1474Q38.4122-64.6189 38.4122-63.9005L38.4122-37.0294L11.5412-37.0294Q10.8087-37.0294 10.2872-36.5079Q9.76562-35.9863 9.76562-35.2539Z"/>
  </g>
  <g id="Ultralight-S" transform="matrix(1 0 0 1 519.966 696)">
   <path d="M9.76562-35.2539Q9.76562-34.7778 10.0975-34.446Q10.4294-34.1141 10.9055-34.1141L38.607-34.1141L38.607-6.41251Q38.607-5.94025 38.9389-5.60646Q39.2708-5.27267 39.7469-5.27267Q40.2229-5.27267 40.5529-5.60646Q40.8829-5.94025 40.8829-6.41251L40.8829-34.1141L68.5883-34.1141Q69.0605-34.1141 69.3924-34.446Q69.7243-34.7778 69.7243-35.2539Q69.7243-35.73 69.3924-36.0619Q69.0605-36.3937 68.5883-36.3937L40.8829-36.3937L40.8829-64.0953Q40.8829-64.5676 40.5529-64.9014Q40.2229-65.2351 39.7469-65.2351Q39.2708-65.2351 38.9389-64.9014Q38.607-64.5676 38.607-64.0953L38.607-36.3937L10.9055-36.3937Q10.4294-36.3937 10.0975-36.0619Q9.76562-35.73 9.76562-35.2539Z"/>
  </g>
 </g>
</svg>
