<?xml version="1.0" encoding="UTF-8"?>
<!--Generator: Apple Native CoreSVG 175.5-->
<!DOCTYPE svg
PUBLIC "-//W3C//DTD SVG 1.1//EN"
       "http://www.w3.org/Graphics/SVG/1.1/DTD/svg11.dtd">
<svg version="1.1" xmlns="http://www.w3.org/2000/svg" xmlns:xlink="http://www.w3.org/1999/xlink" width="3300" height="2200">
 <!--glyph: "uni100175.medium", point size: 100.0, font version: "18.0d9e1", template writer version: "84"-->
 <g id="Notes">
  <rect height="2200" id="artboard" style="fill:white;opacity:1" width="3300" x="0" y="0"/>
  <line style="fill:none;stroke:black;opacity:1;stroke-width:0.5;" x1="263" x2="3036" y1="292" y2="292"/>
  <text style="stroke:none;fill:black;font-family:sans-serif;font-size:13;font-weight:bold;" transform="matrix(1 0 0 1 263 322)">Weight/Scale Variations</text>
  <text style="stroke:none;fill:black;font-family:sans-serif;font-size:13;text-anchor:middle;" transform="matrix(1 0 0 1 559.711 322)">Ultralight</text>
  <text style="stroke:none;fill:black;font-family:sans-serif;font-size:13;text-anchor:middle;" transform="matrix(1 0 0 1 856.422 322)">Thin</text>
  <text style="stroke:none;fill:black;font-family:sans-serif;font-size:13;text-anchor:middle;" transform="matrix(1 0 0 1 1153.13 322)">Light</text>
  <text style="stroke:none;fill:black;font-family:sans-serif;font-size:13;text-anchor:middle;" transform="matrix(1 0 0 1 1449.84 322)">Regular</text>
  <text style="stroke:none;fill:black;font-family:sans-serif;font-size:13;text-anchor:middle;" transform="matrix(1 0 0 1 1746.56 322)">Medium</text>
  <text style="stroke:none;fill:black;font-family:sans-serif;font-size:13;text-anchor:middle;" transform="matrix(1 0 0 1 2043.27 322)">Semibold</text>
  <text style="stroke:none;fill:black;font-family:sans-serif;font-size:13;text-anchor:middle;" transform="matrix(1 0 0 1 2339.98 322)">Bold</text>
  <text style="stroke:none;fill:black;font-family:sans-serif;font-size:13;text-anchor:middle;" transform="matrix(1 0 0 1 2636.69 322)">Heavy</text>
  <text style="stroke:none;fill:black;font-family:sans-serif;font-size:13;text-anchor:middle;" transform="matrix(1 0 0 1 2933.4 322)">Black</text>
  <line style="fill:none;stroke:black;opacity:1;stroke-width:0.5;" x1="263" x2="3036" y1="1903" y2="1903"/>
  <g transform="matrix(1 0 0 1 263 1933)">
   <path d="M9.24805 0.830078Q10.8691 0.830078 12.2949 0.214844Q13.7207-0.400391 14.8096-1.49414Q15.8984-2.58789 16.5186-4.01367Q17.1387-5.43945 17.1387-7.05078Q17.1387-8.66211 16.5186-10.0879Q15.8984-11.5137 14.8047-12.6074Q13.7109-13.7012 12.2852-14.3164Q10.8594-14.9316 9.23828-14.9316Q7.62695-14.9316 6.20117-14.3164Q4.77539-13.7012 3.69141-12.6074Q2.60742-11.5137 1.9873-10.0879Q1.36719-8.66211 1.36719-7.05078Q1.36719-5.43945 1.9873-4.01367Q2.60742-2.58789 3.69629-1.49414Q4.78516-0.400391 6.21094 0.214844Q7.63672 0.830078 9.24805 0.830078ZM9.24805-0.654297Q7.91992-0.654297 6.7627-1.14746Q5.60547-1.64062 4.73145-2.51953Q3.85742-3.39844 3.36426-4.56055Q2.87109-5.72266 2.87109-7.05078Q2.87109-8.37891 3.35938-9.54102Q3.84766-10.7031 4.72168-11.582Q5.5957-12.4609 6.75293-12.9541Q7.91016-13.4473 9.23828-13.4473Q10.5762-13.4473 11.7383-12.9541Q12.9004-12.4609 13.7793-11.582Q14.6582-10.7031 15.1514-9.54102Q15.6445-8.37891 15.6445-7.05078Q15.6445-5.72266 15.1514-4.56055Q14.6582-3.39844 13.7793-2.51953Q12.9004-1.64062 11.7432-1.14746Q10.5859-0.654297 9.24805-0.654297ZM5.6543-7.05078Q5.6543-6.72852 5.85938-6.52832Q6.06445-6.32812 6.40625-6.32812L8.51562-6.32812L8.51562-4.20898Q8.51562-3.88672 8.71094-3.67676Q8.90625-3.4668 9.23828-3.4668Q9.56055-3.4668 9.77051-3.67676Q9.98047-3.88672 9.98047-4.20898L9.98047-6.32812L12.0898-6.32812Q12.4219-6.32812 12.627-6.52832Q12.832-6.72852 12.832-7.05078Q12.832-7.38281 12.627-7.58789Q12.4219-7.79297 12.0898-7.79297L9.98047-7.79297L9.98047-9.90234Q9.98047-10.2344 9.77051-10.4443Q9.56055-10.6543 9.23828-10.6543Q8.90625-10.6543 8.71094-10.4443Q8.51562-10.2344 8.51562-9.90234L8.51562-7.79297L6.40625-7.79297Q6.06445-7.79297 5.85938-7.58789Q5.6543-7.38281 5.6543-7.05078Z"/>
  </g>
  <g transform="matrix(1 0 0 1 281.867 1933)">
   <path d="M11.709 2.91016Q13.75 2.91016 15.5518 2.12891Q17.3535 1.34766 18.7305-0.0292969Q20.1074-1.40625 20.8887-3.20801Q21.6699-5.00977 21.6699-7.05078Q21.6699-9.0918 20.8887-10.8936Q20.1074-12.6953 18.7305-14.0723Q17.3535-15.4492 15.5469-16.2305Q13.7402-17.0117 11.6992-17.0117Q9.6582-17.0117 7.85645-16.2305Q6.05469-15.4492 4.68262-14.0723Q3.31055-12.6953 2.5293-10.8936Q1.74805-9.0918 1.74805-7.05078Q1.74805-5.00977 2.5293-3.20801Q3.31055-1.40625 4.6875-0.0292969Q6.06445 1.34766 7.86621 2.12891Q9.66797 2.91016 11.709 2.91016ZM11.709 1.25Q9.98047 1.25 8.47656 0.605469Q6.97266-0.0390625 5.83496-1.17676Q4.69727-2.31445 4.05762-3.81836Q3.41797-5.32227 3.41797-7.05078Q3.41797-8.7793 4.05762-10.2832Q4.69727-11.7871 5.83008-12.9297Q6.96289-14.0723 8.4668-14.7119Q9.9707-15.3516 11.6992-15.3516Q13.4277-15.3516 14.9365-14.7119Q16.4453-14.0723 17.583-12.9297Q18.7207-11.7871 19.3652-10.2832Q20.0098-8.7793 20.0098-7.05078Q20.0098-5.32227 19.3701-3.81836Q18.7305-2.31445 17.5879-1.17676Q16.4453-0.0390625 14.9414 0.605469Q13.4375 1.25 11.709 1.25ZM7.17773-7.05078Q7.17773-6.69922 7.41211-6.47461Q7.64648-6.25 8.01758-6.25L10.8887-6.25L10.8887-3.36914Q10.8887-2.99805 11.1133-2.76855Q11.3379-2.53906 11.6895-2.53906Q12.0605-2.53906 12.29-2.76855Q12.5195-2.99805 12.5195-3.36914L12.5195-6.25L15.4004-6.25Q15.7715-6.25 16.001-6.47461Q16.2305-6.69922 16.2305-7.05078Q16.2305-7.42188 16.001-7.65137Q15.7715-7.88086 15.4004-7.88086L12.5195-7.88086L12.5195-10.752Q12.5195-11.1328 12.29-11.3623Q12.0605-11.5918 11.6895-11.5918Q11.3379-11.5918 11.1133-11.3574Q10.8887-11.123 10.8887-10.752L10.8887-7.88086L8.01758-7.88086Q7.63672-7.88086 7.40723-7.65137Q7.17773-7.42188 7.17773-7.05078Z"/>
  </g>
  <g transform="matrix(1 0 0 1 305.646 1933)">
   <path d="M14.9707 5.66406Q17.0605 5.66406 18.96 5.01465Q20.8594 4.36523 22.4512 3.19336Q24.043 2.02148 25.2197 0.429688Q26.3965-1.16211 27.0459-3.06641Q27.6953-4.9707 27.6953-7.05078Q27.6953-9.14062 27.0459-11.04Q26.3965-12.9395 25.2197-14.5312Q24.043-16.123 22.4512-17.2998Q20.8594-18.4766 18.9551-19.126Q17.0508-19.7754 14.9609-19.7754Q12.8711-19.7754 10.9717-19.126Q9.07227-18.4766 7.48535-17.2998Q5.89844-16.123 4.72168-14.5312Q3.54492-12.9395 2.90039-11.04Q2.25586-9.14062 2.25586-7.05078Q2.25586-4.9707 2.90527-3.06641Q3.55469-1.16211 4.72656 0.429688Q5.89844 2.02148 7.49023 3.19336Q9.08203 4.36523 10.9814 5.01465Q12.8809 5.66406 14.9707 5.66406ZM14.9707 3.84766Q13.1641 3.84766 11.5283 3.2959Q9.89258 2.74414 8.53516 1.74805Q7.17773 0.751953 6.17676-0.610352Q5.17578-1.97266 4.62891-3.6084Q4.08203-5.24414 4.08203-7.05078Q4.08203-8.86719 4.62891-10.5029Q5.17578-12.1387 6.17188-13.501Q7.16797-14.8633 8.52539-15.8594Q9.88281-16.8555 11.5186-17.4023Q13.1543-17.9492 14.9609-17.9492Q16.7773-17.9492 18.4131-17.4023Q20.0488-16.8555 21.4111-15.8594Q22.7734-14.8633 23.7744-13.501Q24.7754-12.1387 25.3223-10.5029Q25.8691-8.86719 25.8691-7.05078Q25.8691-5.24414 25.3223-3.6084Q24.7754-1.97266 23.7793-0.610352Q22.7832 0.751953 21.4209 1.74805Q20.0586 2.74414 18.4229 3.2959Q16.7871 3.84766 14.9707 3.84766ZM9.19922-7.05078Q9.19922-6.66992 9.45801-6.4209Q9.7168-6.17188 10.1172-6.17188L14.0625-6.17188L14.0625-2.2168Q14.0625-1.81641 14.3115-1.55762Q14.5605-1.29883 14.9512-1.29883Q15.3516-1.29883 15.6104-1.55273Q15.8691-1.80664 15.8691-2.2168L15.8691-6.17188L19.8242-6.17188Q20.2246-6.17188 20.4785-6.4209Q20.7324-6.66992 20.7324-7.05078Q20.7324-7.46094 20.4785-7.71484Q20.2246-7.96875 19.8242-7.96875L15.8691-7.96875L15.8691-11.9141Q15.8691-12.3242 15.6104-12.583Q15.3516-12.8418 14.9512-12.8418Q14.5605-12.8418 14.3115-12.583Q14.0625-12.3242 14.0625-11.9141L14.0625-7.96875L10.1172-7.96875Q9.70703-7.96875 9.45312-7.71484Q9.19922-7.46094 9.19922-7.05078Z"/>
  </g>
  <text style="stroke:none;fill:black;font-family:sans-serif;font-size:13;font-weight:bold;" transform="matrix(1 0 0 1 263 1953)">Design Variations</text>
  <text style="stroke:none;fill:black;font-family:sans-serif;font-size:13;" transform="matrix(1 0 0 1 263 1971)">Symbols are supported in up to nine weights and three scales.</text>
  <text style="stroke:none;fill:black;font-family:sans-serif;font-size:13;" transform="matrix(1 0 0 1 263 1989)">For optimal layout with text and other symbols, vertically align</text>
  <text style="stroke:none;fill:black;font-family:sans-serif;font-size:13;" transform="matrix(1 0 0 1 263 2007)">symbols with the adjacent text.</text>
  <line style="fill:none;stroke:#00AEEF;stroke-width:0.5;opacity:1.0;" x1="776" x2="776" y1="1919" y2="1933"/>
  <g transform="matrix(1 0 0 1 776 1933)">
   <path d="M3.31055 0.15625Q3.70117 0.15625 3.91602-0.00976562Q4.13086-0.175781 4.26758-0.585938L5.52734-4.0332L11.2891-4.0332L12.5488-0.585938Q12.6855-0.175781 12.9004-0.00976562Q13.1152 0.15625 13.4961 0.15625Q13.8867 0.15625 14.1162-0.0585938Q14.3457-0.273438 14.3457-0.644531Q14.3457-0.869141 14.2383-1.17188L9.6582-13.3691Q9.48242-13.8184 9.17969-14.043Q8.87695-14.2676 8.4082-14.2676Q7.5-14.2676 7.17773-13.3789L2.59766-1.16211Q2.49023-0.859375 2.49023-0.634766Q2.49023-0.263672 2.70996-0.0537109Q2.92969 0.15625 3.31055 0.15625ZM6.00586-5.51758L8.37891-12.0898L8.42773-12.0898L10.8008-5.51758Z"/>
  </g>
  <line style="fill:none;stroke:#00AEEF;stroke-width:0.5;opacity:1.0;" x1="793.197" x2="793.197" y1="1919" y2="1933"/>
  <text style="stroke:none;fill:black;font-family:sans-serif;font-size:13;font-weight:bold;" transform="matrix(1 0 0 1 776 1953)">Margins</text>
  <text style="stroke:none;fill:black;font-family:sans-serif;font-size:13;" transform="matrix(1 0 0 1 776 1971)">Leading and trailing margins on the left and right side of each symbol</text>
  <text style="stroke:none;fill:black;font-family:sans-serif;font-size:13;" transform="matrix(1 0 0 1 776 1989)">can be adjusted by modifying the x-location of the margin guidelines.</text>
  <text style="stroke:none;fill:black;font-family:sans-serif;font-size:13;" transform="matrix(1 0 0 1 776 2007)">Modifications are automatically applied proportionally to all</text>
  <text style="stroke:none;fill:black;font-family:sans-serif;font-size:13;" transform="matrix(1 0 0 1 776 2025)">scales and weights.</text>
  <g transform="matrix(1 0 0 1 1289 1933)">
   <path d="M2.8418 1.86523L4.54102 3.57422Q5.18555 4.22852 5.90332 4.17969Q6.62109 4.13086 7.31445 3.35938L18.0078-8.42773L17.041-9.4043L6.42578 2.27539Q6.16211 2.57812 5.89355 2.61719Q5.625 2.65625 5.27344 2.30469L4.10156 1.14258Q3.75 0.791016 3.79395 0.522461Q3.83789 0.253906 4.14062-0.0195312L15.6152-10.8203L14.6387-11.7871L3.04688-0.898438Q2.30469-0.214844 2.25098 0.498047Q2.19727 1.21094 2.8418 1.86523ZM9.25781-16.3281Q8.94531-16.0254 8.90625-15.6348Q8.86719-15.2441 9.04297-14.9512Q9.21875-14.6777 9.55566-14.541Q9.89258-14.4043 10.3809-14.5215Q11.4746-14.7754 12.5977-14.7314Q13.7207-14.6875 14.7949-13.9844L14.209-12.5293Q13.9551-11.9043 14.0674-11.4404Q14.1797-10.9766 14.5801-10.5664L16.875-8.25195Q17.2363-7.88086 17.5781-7.82227Q17.9199-7.76367 18.3398-7.8418L19.4043-8.03711L20.0684-7.36328L20.0293-6.80664Q20-6.43555 20.1221-6.12305Q20.2441-5.81055 20.6055-5.44922L21.3672-4.70703Q21.7285-4.3457 22.1533-4.33105Q22.5781-4.31641 22.9297-4.66797L25.8398-7.58789Q26.1914-7.93945 26.1816-8.35449Q26.1719-8.76953 25.8105-9.13086L25.0391-9.89258Q24.6875-10.2539 24.3799-10.3857Q24.0723-10.5176 23.7109-10.4883L23.1348-10.4395L22.4902-11.0742L22.7344-12.1973Q22.832-12.6172 22.6953-12.9834Q22.5586-13.3496 22.1191-13.7891L19.9219-15.9766Q18.6719-17.2168 17.2607-17.8369Q15.8496-18.457 14.4189-18.4814Q12.9883-18.5059 11.665-17.959Q10.3418-17.4121 9.25781-16.3281ZM10.752-15.957Q11.6602-16.6211 12.7002-16.9043Q13.7402-17.1875 14.8047-17.085Q15.8691-16.9824 16.8701-16.5137Q17.8711-16.0449 18.7012-15.2051L21.1328-12.793Q21.3086-12.6172 21.3525-12.4512Q21.3965-12.2852 21.3379-12.0312L21.0156-10.5469L22.5195-9.0625L23.5059-9.12109Q23.6914-9.13086 23.7891-9.09668Q23.8867-9.0625 24.0332-8.91602L24.6094-8.33984L22.168-5.89844L21.5918-6.47461Q21.4453-6.62109 21.4062-6.71875Q21.3672-6.81641 21.377-7.01172L21.4453-7.98828L19.9512-9.47266L18.4277-9.21875Q18.1836-9.16992 18.042-9.2041Q17.9004-9.23828 17.7148-9.41406L15.7129-11.416Q15.5176-11.5918 15.4932-11.7529Q15.4688-11.9141 15.5859-12.1875L16.4648-14.2773Q15.293-15.3711 13.8281-15.791Q12.3633-16.2109 10.8398-15.7617Q10.7227-15.7324 10.6885-15.8057Q10.6543-15.8789 10.752-15.957Z"/>
  </g>
  <text style="stroke:none;fill:black;font-family:sans-serif;font-size:13;font-weight:bold;" transform="matrix(1 0 0 1 1289 1953)">Exporting</text>
  <text style="stroke:none;fill:black;font-family:sans-serif;font-size:13;" transform="matrix(1 0 0 1 1289 1971)">Symbols should be outlined when exporting to ensure the</text>
  <text style="stroke:none;fill:black;font-family:sans-serif;font-size:13;" transform="matrix(1 0 0 1 1289 1989)">design is preserved when submitting to Xcode.</text>
  <text id="template-version" style="stroke:none;fill:black;font-family:sans-serif;font-size:13;text-anchor:end;" transform="matrix(1 0 0 1 3036 1933)">Template v.2.0</text>
  <text style="stroke:none;fill:black;font-family:sans-serif;font-size:13;text-anchor:end;" transform="matrix(1 0 0 1 3036 1951)">Requires Xcode 12 or greater</text>
  <text id="descriptive-name" style="stroke:none;fill:black;font-family:sans-serif;font-size:13;text-anchor:end;" transform="matrix(1 0 0 1 3036 1969)">Generated from info.circle.fill</text>
  <text style="stroke:none;fill:black;font-family:sans-serif;font-size:13;text-anchor:end;" transform="matrix(1 0 0 1 3036 1987)">Typeset at 100 points</text>
  <text style="stroke:none;fill:black;font-family:sans-serif;font-size:13;" transform="matrix(1 0 0 1 263 726)">Small</text>
  <text style="stroke:none;fill:black;font-family:sans-serif;font-size:13;" transform="matrix(1 0 0 1 263 1156)">Medium</text>
  <text style="stroke:none;fill:black;font-family:sans-serif;font-size:13;" transform="matrix(1 0 0 1 263 1586)">Large</text>
 </g>
 <g id="Guides">
  <g id="H-reference" style="fill:#27AAE1;stroke:none;" transform="matrix(1 0 0 1 339 696)">
   <path d="M0.993347 0L3.6377 0L29.3282-67.1326L30.0301-67.1326L30.0301-70.459L28.1227-70.459ZM11.6882-24.4797L46.9818-24.4797L46.2311-26.7288L12.4382-26.7288ZM55.1193 0L57.7637 0L30.6381-70.459L29.4327-70.459L29.4327-67.1326Z"/>
  </g>
  <line id="Baseline-S" style="fill:none;stroke:#27AAE1;opacity:1;stroke-width:0.5;" x1="263" x2="3036" y1="696" y2="696"/>
  <line id="Capline-S" style="fill:none;stroke:#27AAE1;opacity:1;stroke-width:0.5;" x1="263" x2="3036" y1="625.541" y2="625.541"/>
  <g id="H-reference" style="fill:#27AAE1;stroke:none;" transform="matrix(1 0 0 1 339 1126)">
   <path d="M0.993347 0L3.6377 0L29.3282-67.1326L30.0301-67.1326L30.0301-70.459L28.1227-70.459ZM11.6882-24.4797L46.9818-24.4797L46.2311-26.7288L12.4382-26.7288ZM55.1193 0L57.7637 0L30.6381-70.459L29.4327-70.459L29.4327-67.1326Z"/>
  </g>
  <line id="Baseline-M" style="fill:none;stroke:#27AAE1;opacity:1;stroke-width:0.5;" x1="263" x2="3036" y1="1126" y2="1126"/>
  <line id="Capline-M" style="fill:none;stroke:#27AAE1;opacity:1;stroke-width:0.5;" x1="263" x2="3036" y1="1055.54" y2="1055.54"/>
  <g id="H-reference" style="fill:#27AAE1;stroke:none;" transform="matrix(1 0 0 1 339 1556)">
   <path d="M0.993347 0L3.6377 0L29.3282-67.1326L30.0301-67.1326L30.0301-70.459L28.1227-70.459ZM11.6882-24.4797L46.9818-24.4797L46.2311-26.7288L12.4382-26.7288ZM55.1193 0L57.7637 0L30.6381-70.459L29.4327-70.459L29.4327-67.1326Z"/>
  </g>
  <line id="Baseline-L" style="fill:none;stroke:#27AAE1;opacity:1;stroke-width:0.5;" x1="263" x2="3036" y1="1556" y2="1556"/>
  <line id="Capline-L" style="fill:none;stroke:#27AAE1;opacity:1;stroke-width:0.5;" x1="263" x2="3036" y1="1485.54" y2="1485.54"/>
  <line id="left-margin" style="fill:none;stroke:#00AEEF;stroke-width:0.5;opacity:1.0;" x1="1391.32" x2="1391.32" y1="1030.79" y2="1150.12"/>
  <line id="right-margin" style="fill:none;stroke:#00AEEF;stroke-width:0.5;opacity:1.0;" x1="1508.37" x2="1508.37" y1="1030.79" y2="1150.12"/>
 </g>
 <g id="Symbols">
  <g id="Black-L" transform="matrix(1 0 0 1 2854.19 1556)">
   <path d="M79.1953 32.7252Q93.2356 32.7252 105.521 27.4303Q117.806 22.1354 127.174 12.7571Q136.542 3.37874 141.848-8.90649Q147.154-21.1917 147.154-35.2113Q147.154-49.2309 141.848-61.5161Q136.542-73.8013 127.164-83.1796Q117.785-92.558 105.5-97.8529Q93.2149-103.148 79.1746-103.148Q65.1563-103.148 52.8704-97.8529Q40.5846-92.558 31.2276-83.1796Q21.8707-73.8013 16.5647-61.5161Q11.2588-49.2309 11.2588-35.2113Q11.2588-21.1917 16.5647-8.90649Q21.8707 3.37874 31.238 12.7571Q40.6053 22.1354 52.8912 27.4303Q65.177 32.7252 79.1953 32.7252ZM66.9359 0.41036Q64.0064 0.41036 61.9585-1.47146Q59.9106-3.35328 59.9106-6.47742Q59.9106-9.30704 61.9585-11.2868Q64.0064-13.2666 66.9359-13.2666L73.7915-13.2666L73.7915-32.2555L68.3253-32.2555Q65.3361-32.2555 63.2888-34.1672Q61.2416-36.0788 61.2416-39.1238Q61.2416-41.9729 63.2888-43.9527Q65.3361-45.9325 68.3253-45.9325L81.5277-45.9325Q85.3629-45.9325 87.331-43.5187Q89.2992-41.1049 89.2992-37.0349L89.2992-13.2666L93.9353-13.2666Q96.9232-13.2666 98.9523-11.2868Q100.981-9.30704 100.981-6.47742Q100.981-3.35328 98.9523-1.47146Q96.9232 0.41036 93.9353 0.41036ZM79.3787-53.8974Q75.003-53.8974 71.8343-57.0861Q68.6657-60.2749 68.6657-64.5921Q68.6657-69.143 71.8343-72.2649Q75.003-75.3868 79.3787-75.3868Q83.7543-75.3868 86.8951-72.2649Q90.0358-69.143 90.0358-64.5921Q90.0358-60.2749 86.8951-57.0861Q83.7543-53.8974 79.3787-53.8974Z"/>
  </g>
  <g id="Heavy-L" transform="matrix(1 0 0 1 2558.42 1556)">
   <path d="M78.2511 31.7672Q92.088 31.7672 104.202 26.5464Q116.316 21.3256 125.559 12.0677Q134.802 2.8099 140.04-9.30402Q145.279-21.4179 145.279-35.2251Q145.279-49.0322 140.04-61.1461Q134.802-73.2601 125.544-82.5179Q116.286-91.7758 104.172-96.9966Q92.0582-102.217 78.2213-102.217Q64.4202-102.217 52.3033-96.9966Q40.1863-91.7758 30.9613-82.5179Q21.7362-73.2601 16.4975-61.1461Q11.2588-49.0322 11.2588-35.2251Q11.2588-21.4179 16.4975-9.30402Q21.7362 2.8099 30.9761 12.0677Q40.2161 21.3256 52.333 26.5464Q64.45 31.7672 78.2511 31.7672ZM66.1975 0.542178Q63.5189 0.542178 61.6499-1.18854Q59.7809-2.91926 59.7809-5.75544Q59.7809-8.32989 61.6499-10.1424Q63.5189-11.955 66.1975-11.955L73.4098-11.955L73.4098-33.691L67.5071-33.691Q64.7778-33.691 62.9118-35.447Q61.0458-37.2031 61.0458-39.9649Q61.0458-42.563 62.9118-44.3756Q64.7778-46.1881 67.5071-46.1881L80.4899-46.1881Q83.9629-46.1881 85.7546-43.9858Q87.5462-41.7834 87.5462-38.0993L87.5462-11.955L93.0629-11.955Q95.7861-11.955 97.6477-10.1424Q99.5093-8.32989 99.5093-5.75544Q99.5093-2.91926 97.6477-1.18854Q95.7861 0.542178 93.0629 0.542178ZM78.2747-54.8668Q74.128-54.8668 71.1572-57.8643Q68.1865-60.8618 68.1865-64.9638Q68.1865-69.2444 71.1572-72.1914Q74.128-75.1385 78.2747-75.1385Q82.4213-75.1385 85.3758-72.1914Q88.3303-69.2444 88.3303-64.9638Q88.3303-60.8618 85.3758-57.8643Q82.4213-54.8668 78.2747-54.8668Z"/>
  </g>
  <g id="Bold-L" transform="matrix(1 0 0 1 2262.89 1556)">
   <path d="M77.0653 30.566Q90.6516 30.566 102.549 25.4396Q114.447 20.3133 123.533 11.2089Q132.619 2.10448 137.771-9.79333Q142.923-21.6912 142.923-35.2405Q142.923-48.7898 137.771-60.6877Q132.619-72.5855 123.515-81.6899Q114.41-90.7942 102.512-95.9206Q90.6146-101.047 77.0283-101.047Q63.4932-101.047 51.5882-95.9206Q39.6833-90.7942 30.623-81.6899Q21.5627-72.5855 16.4108-60.6877Q11.2588-48.7898 11.2588-35.2405Q11.2588-21.6912 16.4108-9.79333Q21.5627 2.10448 30.6415 11.2089Q39.7203 20.3133 51.6252 25.4396Q63.5301 30.566 77.0653 30.566ZM65.2247 0.577389Q62.8785 0.577389 61.2471-0.951203Q59.6156-2.47979 59.6156-4.9363Q59.6156-7.17924 61.2471-8.77013Q62.8785-10.361 65.2247-10.361L72.9771-10.361L72.9771-35.5904L66.4133-35.5904Q64.0237-35.5904 62.3994-37.1407Q60.775-38.691 60.775-41.0813Q60.775-43.347 62.3994-44.9379Q64.0237-46.5288 66.4133-46.5288L79.1677-46.5288Q82.1667-46.5288 83.7248-44.6076Q85.283-42.6864 85.283-39.5173L85.283-10.361L91.9257-10.361Q94.3011-10.361 95.9364-8.77013Q97.5718-7.17924 97.5718-4.9363Q97.5718-2.47979 95.9364-0.951203Q94.3011 0.577389 91.9257 0.577389ZM76.9303-56.121Q73.1118-56.121 70.4113-58.8513Q67.7109-61.5817 67.7109-65.371Q67.7109-69.2772 70.4113-71.9811Q73.1118-74.6851 76.9303-74.6851Q80.7489-74.6851 83.449-71.9811Q86.149-69.2772 86.149-65.371Q86.149-61.5817 83.449-58.8513Q80.7489-56.121 76.9303-56.121Z"/>
  </g>
  <g id="Semibold-L" transform="matrix(1 0 0 1 1966.99 1556)">
   <path d="M76.2478 29.7379Q89.6614 29.7379 101.41 24.6766Q113.159 19.6153 122.137 10.6168Q131.114 1.61818 136.206-10.1307Q141.299-21.8795 141.299-35.2511Q141.299-48.6228 136.206-60.3716Q131.114-72.1204 122.116-81.119Q113.117-90.1176 101.368-95.1789Q89.6194-100.24 76.2058-100.24Q62.854-100.24 51.0953-95.1789Q39.3365-90.1176 30.3898-81.119Q21.4432-72.1204 16.351-60.3716Q11.2588-48.6228 11.2588-35.2511Q11.2588-21.8795 16.351-10.1307Q21.4432 1.61818 30.4108 10.6168Q39.3785 19.6153 51.1372 24.6766Q62.896 29.7379 76.2478 29.7379ZM64.554 0.601663Q62.4371 0.601663 60.9694-0.787583Q59.5016-2.17683 59.5016-4.37158Q59.5016-6.38599 60.9694-7.82408Q62.4371-9.26218 64.554-9.26218L72.6788-9.26218L72.6788-36.8998L65.6593-36.8998Q63.5039-36.8998 62.0461-38.3082Q60.5883-39.7167 60.5883-41.8509Q60.5883-43.8874 62.0461-45.3255Q63.5039-46.7636 65.6593-46.7636L78.2562-46.7636Q80.9283-46.7636 82.3255-45.0362Q83.7228-43.3089 83.7228-40.4949L83.7228-9.26218L91.1418-9.26218Q93.2773-9.26218 94.7567-7.82408Q96.2361-6.38599 96.2361-4.37158Q96.2361-2.17683 94.7567-0.787583Q93.2773 0.601663 91.1418 0.601663ZM76.0036-56.9856Q72.4112-56.9856 69.8971-59.5318Q67.383-62.0779 67.383-65.6517Q67.383-69.2998 69.8971-71.8362Q72.4112-74.3726 76.0036-74.3726Q79.5959-74.3726 82.1206-71.8362Q84.6453-69.2998 84.6453-65.6517Q84.6453-62.0779 82.1206-59.5318Q79.5959-56.9856 76.0036-56.9856Z"/>
  </g>
  <g id="Medium-L" transform="matrix(1 0 0 1 1670.9 1556)">
   <path d="M75.6279 29.11Q88.9106 29.11 100.546 24.0981Q112.182 19.0862 121.078 10.1678Q129.973 1.24944 135.02-10.3864Q140.067-22.0223 140.067-35.2592Q140.067-48.4961 135.02-60.1319Q129.973-71.7678 121.055-80.6862Q112.137-89.6045 100.501-94.6164Q88.8648-99.6283 75.5822-99.6283Q62.3695-99.6283 50.7215-94.6164Q39.0736-89.6045 30.213-80.6862Q21.3525-71.7678 16.3056-60.1319Q11.2588-48.4961 11.2588-35.2592Q11.2588-22.0223 16.3056-10.3864Q21.3525 1.24944 30.2359 10.1678Q39.1193 19.0862 50.7673 24.0981Q62.4152 29.11 75.6279 29.11ZM64.0455 0.620069Q62.1024 0.620069 60.7588-0.66352Q59.4153-1.94711 59.4153-3.94339Q59.4153-5.78451 60.7588-7.10675Q62.1024-8.42898 64.0455-8.42898L72.4526-8.42898L72.4526-37.8926L65.0875-37.8926Q63.1097-37.8926 61.7783-39.1936Q60.4468-40.4945 60.4468-42.4345Q60.4468-44.2972 61.7783-45.6194Q63.1097-46.9417 65.0875-46.9417L77.5651-46.9417Q79.9893-46.9417 81.2646-45.3613Q82.5398-43.7809 82.5398-41.2362L82.5398-8.42898L90.5474-8.42898Q92.5011-8.42898 93.8622-7.10675Q95.2234-5.78451 95.2234-3.94339Q95.2234-1.94711 93.8622-0.66352Q92.5011 0.620069 90.5474 0.620069ZM75.3008-57.6413Q71.88-57.6413 69.5072-60.0477Q67.1344-62.4542 67.1344-65.8645Q67.1344-69.3169 69.5072-71.7262Q71.88-74.1356 75.3008-74.1356Q78.7217-74.1356 81.1134-71.7262Q83.5051-69.3169 83.5051-65.8645Q83.5051-62.4542 81.1134-60.0477Q78.7217-57.6413 75.3008-57.6413Z"/>
  </g>
  <g id="Regular-L" transform="matrix(1 0 0 1 1374.99 1556)">
   <path d="M74.8194 28.2909Q87.9312 28.2909 99.4198 23.3434Q110.908 18.3959 119.697 9.58221Q128.485 0.768476 133.473-10.7201Q138.46-22.2086 138.46-35.2697Q138.46-48.3308 133.473-59.8193Q128.485-71.3079 119.671-80.1216Q110.858-88.9353 99.3691-93.8828Q87.8805-98.8303 74.7687-98.8303Q61.7374-98.8303 50.234-93.8828Q38.7306-88.9353 29.9824-80.1216Q21.2342-71.3079 16.2465-59.8193Q11.2588-48.3308 11.2588-35.2697Q11.2588-22.2086 16.2465-10.7201Q21.2342 0.768476 30.0077 9.58221Q38.7813 18.3959 50.2847 23.3434Q61.7881 28.2909 74.8194 28.2909ZM63.3822 0.644077Q61.6657 0.644077 60.4842-0.501698Q59.3026-1.64747 59.3026-3.38488Q59.3026-4.99998 60.4842-6.17109Q61.6657-7.34221 63.3822-7.34221L72.1576-7.34221L72.1576-39.1877L64.3418-39.1877Q62.5956-39.1877 61.4289-40.3483Q60.2622-41.5089 60.2622-43.1957Q60.2622-44.8317 61.4289-46.0028Q62.5956-47.1739 64.3418-47.1739L76.6636-47.1739Q78.7646-47.1739 79.8807-45.7852Q80.9967-44.3965 80.9967-42.203L80.9967-7.34221L89.7721-7.34221Q91.4886-7.34221 92.6955-6.17109Q93.9024-4.99998 93.9024-3.38488Q93.9024-1.64747 92.6955-0.501698Q91.4886 0.644077 89.7721 0.644077ZM74.3842-58.4964Q71.1871-58.4964 68.9986-60.7207Q66.8101-62.945 66.8101-66.1422Q66.8101-69.3393 68.9986-71.5829Q71.1871-73.8264 74.3842-73.8264Q77.5814-73.8264 79.7996-71.5829Q82.0179-69.3393 82.0179-66.1422Q82.0179-62.945 79.7996-60.7207Q77.5814-58.4964 74.3842-58.4964Z"/>
  </g>
  <g id="Light-L" transform="matrix(1 0 0 1 1079.2 1556)">
   <path d="M73.8959 27.3674Q86.8436 27.3674 98.1577 22.502Q109.472 17.6366 118.137 8.95629Q126.802 0.275949 131.708-11.0381Q136.614-22.3522 136.614-35.2697Q136.614-48.1872 131.708-59.5013Q126.802-70.8154 118.122-79.4957Q109.442-88.176 98.1275-93.0414Q86.8134-97.9069 73.8658-97.9069Q60.9986-97.9069 49.6594-93.0414Q38.3201-88.176 29.6951-79.4957Q21.07-70.8154 16.1644-59.5013Q11.2588-48.1872 11.2588-35.2697Q11.2588-22.3522 16.1644-11.0381Q21.07 0.275949 29.7102 8.95629Q38.3503 17.6366 49.6895 22.502Q61.0287 27.3674 73.8959 27.3674ZM62.3356-0.15628Q60.9885-0.15628 60.0737-1.06605Q59.1589-1.97582 59.1589-3.30279Q59.1589-4.58954 60.0737-5.51439Q60.9885-6.43924 62.3356-6.43924L72.1166-6.43924L72.1166-41.2809L63.0694-41.2809Q61.6721-41.2809 60.7824-42.2158Q59.8928-43.1507 59.8928-44.4475Q59.8928-45.7142 60.7824-46.639Q61.6721-47.5639 63.0694-47.5639L75.5144-47.5639Q77.1229-47.5639 77.9824-46.4932Q78.8419-45.4226 78.8419-43.8242L78.8419-6.43924L88.6229-6.43924Q89.9699-6.43924 90.8998-5.51439Q91.8297-4.58954 91.8297-3.30279Q91.8297-1.97582 90.8998-1.06605Q89.9699-0.15628 88.6229-0.15628ZM73.6044-59.7072Q70.9203-59.7072 69.0807-61.5519Q67.2411-63.3965 67.2411-66.0806Q67.2411-68.7647 69.0807-70.6696Q70.9203-72.5746 73.6044-72.5746Q76.2885-72.5746 78.1784-70.6696Q80.0683-68.7647 80.0683-66.0806Q80.0683-63.3965 78.1784-61.5519Q76.2885-59.7072 73.6044-59.7072Z"/>
  </g>
  <g id="Thin-L" transform="matrix(1 0 0 1 783.716 1556)">
   <path d="M72.6746 26.1461Q85.405 26.1461 96.4884 21.3892Q107.572 16.6324 116.074 8.12846Q124.577-0.375458 129.374-11.4588Q134.171-22.5422 134.171-35.2697Q134.171-47.9972 129.374-59.0806Q124.577-70.1639 116.073-78.6679Q107.569-87.1718 96.4854-91.9286Q85.402-96.6855 72.6715-96.6855Q60.0215-96.6855 48.8994-91.9286Q37.7773-87.1718 29.3151-78.6679Q20.8529-70.1639 16.0558-59.0806Q11.2588-47.9972 11.2588-35.2697Q11.2588-22.5422 16.0558-11.4588Q20.8529-0.375458 29.3166 8.12846Q37.7803 16.6324 48.9024 21.3892Q60.0245 26.1461 72.6746 26.1461ZM60.9513-1.21482Q60.0928-1.21482 59.5309-1.81246Q58.9689-2.4101 58.9689-3.19422Q58.9689-4.0467 59.5309-4.64585Q60.0928-5.245 60.9513-5.245L72.0623-5.245L72.0623-44.0494L61.3866-44.0494Q60.4507-44.0494 59.9275-44.6857Q59.4042-45.3221 59.4042-46.1032Q59.4042-46.8813 59.9275-47.4804Q60.4507-48.0796 61.3866-48.0796L73.9945-48.0796Q74.9515-48.0796 75.4717-47.4296Q75.992-46.7797 75.992-45.9684L75.992-5.245L87.1029-5.245Q87.9614-5.245 88.5249-4.64585Q89.0884-4.0467 89.0884-3.19422Q89.0884-2.4101 88.5249-1.81246Q87.9614-1.21482 87.1029-1.21482ZM72.573-61.3086Q70.5675-61.3086 69.1893-62.6511Q67.811-63.9937 67.811-65.9992Q67.811-68.0047 69.1893-69.4618Q70.5675-70.9189 72.573-70.9189Q74.5785-70.9189 76.0342-69.4618Q77.4898-68.0047 77.4898-65.9992Q77.4898-63.9937 76.0342-62.6511Q74.5785-61.3086 72.573-61.3086Z"/>
  </g>
  <g id="Ultralight-L" transform="matrix(1 0 0 1 487.631 1556)">
   <path d="M72.049 25.5205Q84.6682 25.5205 95.6335 20.8192Q106.599 16.118 115.018 7.70445Q123.437-0.709105 128.178-11.6743Q132.92-22.6395 132.92-35.2697Q132.92-47.8999 128.178-58.8651Q123.437-69.8303 115.023-78.2439Q106.61-86.6574 95.6443-91.3586Q84.6791-96.0599 72.0598-96.0599Q59.521-96.0599 48.5101-91.3586Q37.4993-86.6574 29.1205-78.2439Q20.7417-69.8303 16.0002-58.8651Q11.2588-47.8999 11.2588-35.2697Q11.2588-22.6395 16.0002-11.6743Q20.7417-0.709105 29.115 7.70445Q37.4884 16.118 48.4992 20.8192Q59.5101 25.5205 72.049 25.5205ZM60.2423-1.75699Q59.6341-1.75699 59.2528-2.19476Q58.8716-2.63253 58.8716-3.13862Q58.8716-3.76866 59.2528-4.20099Q59.6341-4.63331 60.2423-4.63331L72.0345-4.63331L72.0345-45.4674L60.5247-45.4674Q59.8251-45.4674 59.4896-45.9508Q59.154-46.4342 59.154-46.9512Q59.154-47.479 59.4896-47.9114Q59.8251-48.3437 60.5247-48.3437L73.216-48.3437Q73.8393-48.3437 74.1858-47.9093Q74.5323-47.4748 74.5323-47.0667L74.5323-4.63331L86.3244-4.63331Q86.9327-4.63331 87.3085-4.20099Q87.6843-3.76866 87.6843-3.13862Q87.6843-2.63253 87.3085-2.19476Q86.9327-1.75699 86.3244-1.75699ZM72.0447-62.1288Q70.3868-62.1288 69.2449-63.2141Q68.103-64.2995 68.103-65.9575Q68.103-67.6154 69.2449-68.8432Q70.3868-70.0709 72.0447-70.0709Q73.7027-70.0709 74.9359-68.8432Q76.1691-67.6154 76.1691-65.9575Q76.1691-64.2995 74.9359-63.2141Q73.7027-62.1288 72.0447-62.1288Z"/>
  </g>
  <g id="Black-M" transform="matrix(1 0 0 1 2871.36 1126)">
   <path d="M62.0423 18.1161Q73.0725 18.1161 82.714 13.9613Q92.3555 9.80654 99.704 2.45531Q107.052-4.89592 111.21-14.5374Q115.367-24.1789 115.367-35.2035Q115.367-46.2282 111.21-55.8697Q107.052-65.5112 99.7012-72.8624Q92.35-80.2136 82.7085-84.3684Q73.067-88.5232 62.0368-88.5232Q51.0119-88.5232 41.3705-84.3684Q31.7292-80.2136 24.3833-72.8624Q17.0375-65.5112 12.8801-55.8697Q8.72266-46.2282 8.72266-35.2035Q8.72266-24.1789 12.8801-14.5374Q17.0375-4.89592 24.3861 2.45531Q31.7347 9.80654 41.376 13.9613Q51.0174 18.1161 62.0423 18.1161ZM52.3509-7.83953Q49.9157-7.83953 48.2115-9.39534Q46.5073-10.9512 46.5073-13.5634Q46.5073-15.9305 48.2115-17.5747Q49.9157-19.2189 52.3509-19.2189L57.4918-19.2189L57.4918-31.9753L53.4653-31.9753Q50.9733-31.9753 49.269-33.5595Q47.5646-35.1437 47.5646-37.6934Q47.5646-40.0662 49.269-41.7105Q50.9733-43.3547 53.4653-43.3547L63.8992-43.3547Q67.1149-43.3547 68.7567-41.346Q70.3984-39.3373 70.3984-35.9331L70.3984-19.2189L73.3697-19.2189Q75.862-19.2189 77.5404-17.5747Q79.2188-15.9305 79.2188-13.5634Q79.2188-10.9512 77.5404-9.39534Q75.862-7.83953 73.3697-7.83953ZM62.3411-49.0232Q58.8238-49.0232 56.2461-51.6066Q53.6684-54.19 53.6684-57.6502Q53.6684-61.3388 56.2461-63.8618Q58.8238-66.3849 62.3411-66.3849Q65.8584-66.3849 68.4073-63.8618Q70.9561-61.3388 70.9561-57.6502Q70.9561-54.19 68.4073-51.6066Q65.8584-49.0232 62.3411-49.0232Z"/>
  </g>
  <g id="Heavy-M" transform="matrix(1 0 0 1 2575.48 1126)">
   <path d="M61.2045 17.2648Q72.0509 17.2648 81.541 13.1749Q91.0312 9.08498 98.2688 1.83921Q105.506-5.40657 109.606-14.8967Q113.705-24.3868 113.705-35.217Q113.705-46.0473 109.606-55.5374Q105.506-65.0275 98.2607-72.2733Q91.0149-79.519 81.5248-83.6089Q72.0347-87.6988 61.1882-87.6988Q50.3604-87.6988 40.8691-83.6089Q31.3778-79.519 24.1495-72.2733Q16.9211-65.0275 12.8219-55.5374Q8.72266-46.0473 8.72266-35.217Q8.72266-24.3868 12.8219-14.8967Q16.9211-5.40657 24.1576 1.83921Q31.394 9.08498 40.8853 13.1749Q50.3767 17.2648 61.2045 17.2648ZM51.7256-7.63683Q49.5016-7.63683 47.9476-9.0667Q46.3937-10.4966 46.3937-12.8652Q46.3937-15.0131 47.9476-16.5165Q49.5016-18.0199 51.7256-18.0199L57.1225-18.0199L57.1225-33.1855L52.7828-33.1855Q50.5127-33.1855 48.96-34.6384Q47.4073-36.0913 47.4073-38.4001Q47.4073-40.5618 48.96-42.0652Q50.5127-43.5686 52.7828-43.5686L62.9907-43.5686Q65.8978-43.5686 67.3907-41.7373Q68.8836-39.9059 68.8836-36.8241L68.8836-18.0199L72.6229-18.0199Q74.8905-18.0199 76.4307-16.5165Q77.971-15.0131 77.971-12.8652Q77.971-10.4966 76.4307-9.0667Q74.8905-7.63683 72.6229-7.63683ZM61.3338-49.8592Q57.9931-49.8592 55.5766-52.2906Q53.1602-54.7221 53.1602-58.0192Q53.1602-61.4909 55.5766-63.8742Q57.9931-66.2576 61.3338-66.2576Q64.6746-66.2576 67.0717-63.8742Q69.4687-61.4909 69.4687-58.0192Q69.4687-54.7221 67.0717-52.2906Q64.6746-49.8592 61.3338-49.8592Z"/>
  </g>
  <g id="Bold-M" transform="matrix(1 0 0 1 2279.69 1126)">
   <path d="M60.2672 16.3124Q70.9082 16.3124 80.2289 12.2951Q89.5497 8.27781 96.6634 1.15Q103.777-5.9778 107.811-15.2986Q111.845-24.6193 111.845-35.2321Q111.845-45.8449 107.811-55.1656Q103.777-64.4864 96.6493-71.6142Q89.5215-78.742 80.2007-82.7593Q70.8799-86.7766 60.2389-86.7766Q49.6317-86.7766 40.3082-82.7593Q30.9846-78.742 23.8878-71.6142Q16.791-64.4864 12.7568-55.1656Q8.72266-45.8449 8.72266-35.2321Q8.72266-24.6193 12.7568-15.2986Q16.791-5.9778 23.902 1.15Q31.0129 8.27781 40.3364 12.2951Q49.6599 16.3124 60.2672 16.3124ZM51.0261-7.41009Q49.0383-7.41009 47.6525-8.69908Q46.2667-9.98807 46.2667-12.0842Q46.2667-13.9869 47.6525-15.3328Q49.0383-16.6787 51.0261-16.6787L56.7094-16.6787L56.7094-34.5393L52.0193-34.5393Q49.9975-34.5393 48.6144-35.8453Q47.2314-37.1513 47.2314-39.1906Q47.2314-41.1161 48.6144-42.462Q49.9975-43.8079 52.0193-43.8079L61.9743-43.8079Q64.5364-43.8079 65.8626-42.175Q67.1889-40.5421 67.1889-37.8207L67.1889-16.6787L71.7874-16.6787Q73.8037-16.6787 75.1894-15.3328Q76.5751-13.9869 76.5751-12.0842Q76.5751-9.98807 75.1894-8.69908Q73.8037-7.41009 71.7874-7.41009ZM60.2071-50.7943Q57.0637-50.7943 54.8277-53.0558Q52.5917-55.3173 52.5917-58.432Q52.5917-61.661 54.8277-63.8881Q57.0637-66.1152 60.2071-66.1152Q63.3504-66.1152 65.5776-63.8881Q67.8049-61.661 67.8049-58.432Q67.8049-55.3173 65.5776-53.0558Q63.3504-50.7943 60.2071-50.7943Z"/>
  </g>
  <g id="Semibold-M" transform="matrix(1 0 0 1 1983.62 1126)">
   <path d="M59.621 15.6559Q70.1203 15.6559 79.3244 11.6886Q88.5284 7.72135 95.5566 0.674869Q102.585-6.37161 106.574-15.5756Q110.564-24.7797 110.564-35.2425Q110.564-45.7053 106.574-54.9093Q102.585-64.1134 95.5384-71.1598Q88.4919-78.2063 79.2879-82.1736Q70.0838-86.1408 59.5845-86.1408Q49.1293-86.1408 39.9215-82.1736Q30.7136-78.2063 23.7075-71.1598Q16.7013-64.1134 12.712-54.9093Q8.72266-45.7053 8.72266-35.2425Q8.72266-24.7797 12.712-15.5756Q16.7013-6.37161 23.7257 0.674869Q30.7501 7.72135 39.958 11.6886Q49.1658 15.6559 59.621 15.6559ZM50.5438-7.25377Q48.719-7.25377 47.449-8.44564Q46.1791-9.6375 46.1791-11.5457Q46.1791-13.2794 47.449-14.5168Q48.719-15.7541 50.5438-15.7541L56.4246-15.7541L56.4246-35.4725L51.493-35.4725Q49.6423-35.4725 48.3762-36.6773Q47.1101-37.8821 47.1101-39.7356Q47.1101-41.4982 48.3762-42.7355Q49.6423-43.9729 51.493-43.9729L61.2737-43.9729Q63.5978-43.9729 64.8092-42.4768Q66.0207-40.9806 66.0207-38.5078L66.0207-15.7541L71.2114-15.7541Q73.0545-15.7541 74.3336-14.5168Q75.6127-13.2794 75.6127-11.5457Q75.6127-9.6375 74.3336-8.44564Q73.0545-7.25377 71.2114-7.25377ZM59.4302-51.439Q56.4231-51.439 54.3114-53.5833Q52.1998-55.7276 52.1998-58.7166Q52.1998-61.7783 54.3114-63.8977Q56.4231-66.017 59.4302-66.017Q62.4374-66.017 64.5476-63.8977Q66.6578-61.7783 66.6578-58.7166Q66.6578-55.7276 64.5476-53.5833Q62.4374-51.439 59.4302-51.439Z"/>
  </g>
  <g id="Medium-M" transform="matrix(1 0 0 1 1687.4 1126)">
   <path d="M59.1311 15.158Q69.523 15.158 78.6385 11.2287Q87.754 7.29942 94.7174 0.314603Q101.681-6.67021 105.636-15.7857Q109.591-24.9012 109.591-35.2504Q109.591-45.5995 105.636-54.715Q101.681-63.8305 94.696-70.8153Q87.7112-77.8002 78.5957-81.7295Q69.4802-85.6588 59.0883-85.6588Q48.7484-85.6588 39.6283-81.7295Q30.5081-77.8002 23.5707-70.8153Q16.6333-63.8305 12.678-54.715Q8.72266-45.5995 8.72266-35.2504Q8.72266-24.9012 12.678-15.7857Q16.6333-6.67021 23.5921 0.314603Q30.5509 7.29942 39.671 11.2287Q48.7912 15.158 59.1311 15.158ZM50.1782-7.13525Q48.4768-7.13525 47.2947-8.25347Q46.1127-9.37169 46.1127-11.1374Q46.1127-12.743 47.2947-13.898Q48.4768-15.0531 50.1782-15.0531L56.2086-15.0531L56.2086-36.1802L51.0939-36.1802Q49.373-36.1802 48.1955-37.3082Q47.0181-38.4362 47.0181-40.1489Q47.0181-41.7879 48.1955-42.943Q49.373-44.098 51.0939-44.098L60.7424-44.098Q62.8861-44.098 64.0105-42.7056Q65.1349-41.3131 65.1349-39.0288L65.1349-15.0531L70.7747-15.0531Q72.4864-15.0531 73.6847-13.898Q74.883-12.743 74.883-11.1374Q74.883-9.37169 73.6847-8.25347Q72.4864-7.13525 70.7747-7.13525ZM58.8412-51.9278Q55.9373-51.9278 53.92-53.9833Q51.9026-56.0388 51.9026-58.9324Q51.9026-61.8672 53.92-63.9049Q55.9373-65.9426 58.8412-65.9426Q61.7452-65.9426 63.7666-63.9049Q65.7881-61.8672 65.7881-58.9324Q65.7881-56.0388 63.7666-53.9833Q61.7452-51.9278 58.8412-51.9278Z"/>
  </g>
  <g id="Regular-M" transform="matrix(1 0 0 1 1391.32 1126)">
   <path d="M58.492 14.5087Q68.7438 14.5087 77.7439 10.6289Q86.7439 6.74907 93.6228-0.155309Q100.502-7.05969 104.413-16.0597Q108.324-25.0598 108.324-35.2606Q108.324-45.4615 104.413-54.4616Q100.502-63.4616 93.5973-70.366Q86.693-77.2704 77.6929-81.1502Q68.6929-85.03 58.441-85.03Q48.2515-85.03 39.2458-81.1502Q30.2401-77.2704 23.3923-70.366Q16.5446-63.4616 12.6336-54.4616Q8.72266-45.4615 8.72266-35.2606Q8.72266-25.0598 12.6336-16.0597Q16.5446-7.05969 23.4178-0.155309Q30.291 6.74907 39.2968 10.6289Q48.3025 14.5087 58.492 14.5087ZM49.7013-6.98065Q48.161-6.98065 47.0935-8.00282Q46.0261-9.02498 46.0261-10.6049Q46.0261-12.0433 47.0935-13.091Q48.161-14.1386 49.7013-14.1386L55.9269-14.1386L55.9269-37.1032L50.5733-37.1032Q49.0217-37.1032 47.9599-38.1311Q46.8981-39.1589 46.8981-40.6879Q46.8981-42.1659 47.9599-43.2135Q49.0217-44.2612 50.5733-44.2612L60.0494-44.2612Q61.9578-44.2612 62.9686-43.004Q63.9794-41.7469 63.9794-39.7083L63.9794-14.1386L70.2051-14.1386Q71.7454-14.1386 72.8383-13.091Q73.9313-12.0433 73.9313-10.6049Q73.9313-9.02498 72.8383-8.00282Q71.7454-6.98065 70.2051-6.98065ZM58.073-52.5654Q55.3037-52.5654 53.4093-54.505Q51.515-56.4446 51.515-59.2139Q51.515-61.9832 53.4093-63.9144Q55.3037-65.8455 58.073-65.8455Q60.8423-65.8455 62.748-63.9144Q64.6536-61.9832 64.6536-59.2139Q64.6536-56.4446 62.748-54.505Q60.8423-52.5654 58.073-52.5654Z"/>
  </g>
  <g id="Light-M" transform="matrix(1 0 0 1 1095.44 1126)">
   <path d="M57.664 13.6807Q67.7687 13.6807 76.6123 9.87453Q85.456 6.06831 92.2245-0.716478Q98.993-7.50127 102.83-16.3449Q106.668-25.1886 106.668-35.2606Q106.668-45.3327 102.83-54.1764Q98.993-63.02 92.2082-69.8048Q85.4234-76.5896 76.5798-80.3958Q67.7361-84.202 57.6315-84.202Q47.5892-84.202 38.7306-80.3958Q29.8721-76.5896 23.1348-69.8048Q16.3974-63.02 12.56-54.1764Q8.72266-45.3327 8.72266-35.2606Q8.72266-25.1886 12.56-16.3449Q16.3974-7.50127 23.151-0.716478Q29.9047 6.06831 38.7632 9.87453Q47.6217 13.6807 57.664 13.6807ZM48.7629-7.69821Q47.5538-7.69821 46.7255-8.50879Q45.8973-9.31937 45.8973-10.5313Q45.8973-11.6753 46.7255-12.5022Q47.5538-13.329 48.7629-13.329L55.8901-13.329L55.8901-38.9799L49.4326-38.9799Q48.1937-38.9799 47.3803-39.8054Q46.5669-40.6308 46.5669-41.8102Q46.5669-42.957 47.3803-43.7839Q48.1937-44.6107 49.4326-44.6107L59.0191-44.6107Q60.4859-44.6107 61.2667-43.6388Q62.0476-42.6668 62.0476-41.1618L62.0476-13.329L69.1747-13.329Q70.3839-13.329 71.2284-12.5022Q72.073-11.6753 72.073-10.5313Q72.073-9.31937 71.2284-8.50879Q70.3839-7.69821 69.1747-7.69821ZM57.3738-53.6509Q55.0645-53.6509 53.4829-55.2502Q51.9014-56.8494 51.9014-59.1587Q51.9014-61.468 53.4829-63.0956Q55.0645-64.7232 57.3738-64.7232Q59.6831-64.7232 61.2944-63.0956Q62.9057-61.468 62.9057-59.1587Q62.9057-56.8494 61.2944-55.2502Q59.6831-53.6509 57.3738-53.6509Z"/>
  </g>
  <g id="Thin-M" transform="matrix(1 0 0 1 799.828 1126)">
   <path d="M56.569 12.5857Q66.479 12.5857 75.1158 8.87683Q83.7526 5.16794 90.3751-1.45867Q96.9976-8.08529 100.738-16.7221Q104.478-25.3589 104.478-35.2606Q104.478-45.1624 100.738-53.7992Q96.9976-62.436 90.371-69.0626Q83.7444-75.6892 75.1076-79.3981Q66.4707-83.107 56.5608-83.107Q46.7131-83.107 38.0493-79.3981Q29.3854-75.6892 22.7941-69.0626Q16.2027-62.436 12.4627-53.7992Q8.72266-45.1624 8.72266-35.2606Q8.72266-25.3589 12.4627-16.7221Q16.2027-8.08529 22.7982-1.45867Q29.3936 5.16794 38.0575 8.87683Q46.7214 12.5857 56.569 12.5857ZM47.5219-8.64724Q46.7508-8.64724 46.2388-9.17798Q45.7269-9.70871 45.7269-10.434Q45.7269-11.1886 46.2388-11.7235Q46.7508-12.2583 47.5219-12.2583L55.8415-12.2583L55.8415-41.462L47.9239-41.462Q47.0987-41.462 46.6138-42.0198Q46.1289-42.5775 46.1289-43.2946Q46.1289-44.0034 46.6138-44.5382Q47.0987-45.0731 47.9239-45.0731L57.6564-45.0731Q58.5392-45.0731 59.0158-44.4783Q59.4925-43.8835 59.4925-43.0842L59.4925-12.2583L67.812-12.2583Q68.5832-12.2583 69.0992-11.7235Q69.6152-11.1886 69.6152-10.434Q69.6152-9.70871 69.0992-9.17798Q68.5832-8.64724 67.812-8.64724ZM56.4491-55.0866Q54.7482-55.0866 53.5803-56.2357Q52.4124-57.3847 52.4124-59.0857Q52.4124-60.7867 53.5803-62.0127Q54.7482-63.2388 56.4491-63.2388Q58.1501-63.2388 59.372-62.0127Q60.594-60.7867 60.594-59.0857Q60.594-57.3847 59.372-56.2357Q58.1501-55.0866 56.4491-55.0866Z"/>
  </g>
  <g id="Ultralight-M" transform="matrix(1 0 0 1 503.679 1126)">
   <path d="M56.0081 12.0248Q65.8184 12.0248 74.3492 8.36581Q82.8801 4.70678 89.4278-1.83882Q95.9756-8.38442 99.6657-16.9153Q103.356-25.4462 103.356-35.2606Q103.356-45.0751 99.6657-53.606Q95.9756-62.1369 89.43-68.6825Q82.8844-75.2281 74.3535-78.8871Q65.8226-82.5461 56.0124-82.5461Q46.2644-82.5461 37.7003-78.8871Q29.1361-75.2281 22.6196-68.6825Q16.103-62.1369 12.4128-53.606Q8.72266-45.0751 8.72266-35.2606Q8.72266-25.4462 12.4128-16.9153Q16.103-8.38442 22.6175-1.83882Q29.1319 4.70678 37.6961 8.36581Q46.2602 12.0248 56.0081 12.0248ZM46.8862-9.13333Q46.3395-9.13333 45.9896-9.52073Q45.6397-9.90813 45.6397-10.3841Q45.6397-10.9394 45.9896-11.3247Q46.3395-11.7099 46.8862-11.7099L55.8165-11.7099L55.8165-42.7333L47.1511-42.7333Q46.5378-42.7333 46.2212-43.154Q45.9046-43.5747 45.9046-44.0549Q45.9046-44.5393 46.2212-44.9246Q46.5378-45.3099 47.1511-45.3099L56.9584-45.3099Q57.542-45.3099 57.8629-44.9083Q58.1838-44.5067 58.1838-44.0689L58.1838-11.7099L67.1141-11.7099Q67.6608-11.7099 68.0086-11.3247Q68.3564-10.9394 68.3564-10.3841Q68.3564-9.90813 68.0086-9.52073Q67.6608-9.13333 67.1141-9.13333ZM55.9755-55.822Q54.5861-55.822 53.6301-56.7405Q52.6741-57.659 52.6741-59.0483Q52.6741-60.4377 53.6301-61.4581Q54.5861-62.4785 55.9755-62.4785Q57.3649-62.4785 58.3874-61.4581Q59.4099-60.4377 59.4099-59.0483Q59.4099-57.659 58.3874-56.7405Q57.3649-55.822 55.9755-55.822Z"/>
  </g>
  <g id="Black-S" transform="matrix(1 0 0 1 2884.57 696)">
   <path d="M48.8281 6.78711Q57.5195 6.78711 65.1123 3.51562Q72.7051 0.244141 78.4912-5.54199Q84.2773-11.3281 87.5488-18.9209Q90.8203-26.5137 90.8203-35.2051Q90.8203-43.8965 87.5488-51.4893Q84.2773-59.082 78.4912-64.8682Q72.7051-70.6543 65.1123-73.9258Q57.5195-77.1973 48.8281-77.1973Q40.1367-77.1973 32.5439-73.9258Q24.9512-70.6543 19.165-64.8682Q13.3789-59.082 10.1074-51.4893Q6.83594-43.8965 6.83594-35.2051Q6.83594-26.5137 10.1074-18.9209Q13.3789-11.3281 19.165-5.54199Q24.9512 0.244141 32.5439 3.51562Q40.1367 6.78711 48.8281 6.78711ZM41.1621-13.8672Q39.209-13.8672 37.8418-15.1123Q36.4746-16.3574 36.4746-18.457Q36.4746-20.3613 37.8418-21.6797Q39.209-22.998 41.1621-22.998L45.166-22.998L45.166-32.4219L42.041-32.4219Q40.0391-32.4219 38.6719-33.6914Q37.3047-34.9609 37.3047-37.0117Q37.3047-38.916 38.6719-40.2344Q40.0391-41.5527 42.041-41.5527L50.293-41.5527Q52.8809-41.5527 54.1992-39.9414Q55.5176-38.3301 55.5176-35.5957L55.5176-22.998L57.666-22.998Q59.668-22.998 61.0107-21.6797Q62.3535-20.3613 62.3535-18.457Q62.3535-16.3574 61.0107-15.1123Q59.668-13.8672 57.666-13.8672ZM49.1211-45.8496Q46.3379-45.8496 44.2871-47.9004Q42.2363-49.9512 42.2363-52.6855Q42.2363-55.6152 44.2871-57.6172Q46.3379-59.6191 49.1211-59.6191Q51.9043-59.6191 53.9307-57.6172Q55.957-55.6152 55.957-52.6855Q55.957-49.9512 53.9307-47.9004Q51.9043-45.8496 49.1211-45.8496Z"/>
  </g>
  <g id="Heavy-S" transform="matrix(1 0 0 1 2588.47 696)">
   <path d="M48.2173 6.16479Q56.7704 6.16479 64.2537 2.9394Q71.737-0.285985 77.4425-5.99721Q83.1479-11.7084 86.3791-19.1917Q89.6102-26.675 89.6102-35.2166Q89.6102-43.7582 86.3791-51.2415Q83.1479-58.7248 77.4367-64.436Q71.7255-70.1472 64.2422-73.3726Q56.7589-76.598 48.2058-76.598Q39.6642-76.598 32.1809-73.3726Q24.6976-70.1472 18.9979-64.436Q13.2982-58.7248 10.0671-51.2415Q6.83594-43.7582 6.83594-35.2166Q6.83594-26.675 10.0671-19.1917Q13.2982-11.7084 19.0037-5.99721Q24.7092-0.285985 32.1924 2.9394Q39.6757 6.16479 48.2173 6.16479ZM40.7472-13.6021Q38.9324-13.6021 37.6632-14.7666Q36.3939-15.931 36.3939-17.8693Q36.3939-19.6238 37.6632-20.8499Q38.9324-22.0761 40.7472-22.0761L44.8549-22.0761L44.8549-33.2171L41.6031-33.2171Q39.751-33.2171 38.4817-34.4002Q37.2125-35.5833 37.2125-37.4727Q37.2125-39.2387 38.4817-40.4649Q39.751-41.691 41.6031-41.691L49.6476-41.691Q52.028-41.691 53.2485-40.1949Q54.4689-38.6989 54.4689-36.1719L54.4689-22.0761L57.1589-22.0761Q59.0111-22.0761 60.2674-20.8499Q61.5238-19.6238 61.5238-17.8693Q61.5238-15.931 60.2674-14.7666Q59.0111-13.6021 57.1589-13.6021ZM48.349-46.4258Q45.6579-46.4258 43.7051-48.3902Q41.7523-50.3545 41.7523-53.0082Q41.7523-55.8112 43.7051-57.7324Q45.6579-59.6537 48.349-59.6537Q51.04-59.6537 52.9741-57.7324Q54.9083-55.8112 54.9083-53.0082Q54.9083-50.3545 52.9741-48.3902Q51.04-46.4258 48.349-46.4258Z"/>
  </g>
  <g id="Bold-S" transform="matrix(1 0 0 1 2292.43 696)">
   <path d="M47.5342 5.46875Q55.9326 5.46875 63.2935 2.29492Q70.6543-0.878906 76.2695-6.50635Q81.8848-12.1338 85.0708-19.4946Q88.2568-26.8555 88.2568-35.2295Q88.2568-43.6035 85.0708-50.9644Q81.8848-58.3252 76.2573-63.9526Q70.6299-69.5801 63.269-72.7539Q55.9082-75.9277 47.5098-75.9277Q39.1357-75.9277 31.7749-72.7539Q24.4141-69.5801 18.811-63.9526Q13.208-58.3252 10.022-50.9644Q6.83594-43.6035 6.83594-35.2295Q6.83594-26.8555 10.022-19.4946Q13.208-12.1338 18.8232-6.50635Q24.4385-0.878906 31.7993 2.29492Q39.1602 5.46875 47.5342 5.46875ZM40.2832-13.3057Q38.623-13.3057 37.4634-14.3799Q36.3037-15.4541 36.3037-17.2119Q36.3037-18.7988 37.4634-19.9219Q38.623-21.0449 40.2832-21.0449L44.5068-21.0449L44.5068-34.1064L41.1133-34.1064Q39.4287-34.1064 38.269-35.1929Q37.1094-36.2793 37.1094-37.9883Q37.1094-39.5996 38.269-40.7227Q39.4287-41.8457 41.1133-41.8457L48.9258-41.8457Q51.0742-41.8457 52.1851-40.4785Q53.2959-39.1113 53.2959-36.8164L53.2959-21.0449L56.5918-21.0449Q58.2764-21.0449 59.436-19.9219Q60.5957-18.7988 60.5957-17.2119Q60.5957-15.4541 59.436-14.3799Q58.2764-13.3057 56.5918-13.3057ZM47.4854-47.0703Q44.8975-47.0703 43.0542-48.938Q41.2109-50.8057 41.2109-53.3691Q41.2109-56.0303 43.0542-57.8613Q44.8975-59.6924 47.4854-59.6924Q50.0732-59.6924 51.9043-57.8613Q53.7354-56.0303 53.7354-53.3691Q53.7354-50.8057 51.9043-48.938Q50.0732-47.0703 47.4854-47.0703Z"/>
  </g>
  <g id="Semibold-S" transform="matrix(1 0 0 1 1996.19 696)">
   <path d="M47.0632 4.98887Q55.355 4.98887 62.6314 1.85059Q69.9078-1.2877 75.4608-6.85737Q81.0139-12.4271 84.1688-19.7035Q87.3237-26.9799 87.3237-35.2384Q87.3237-43.4969 84.1688-50.7733Q81.0139-58.0497 75.4442-63.6194Q69.8745-69.1891 62.5981-72.3273Q55.3217-75.4656 47.0299-75.4656Q38.7714-75.4656 31.495-72.3273Q24.2186-69.1891 18.6822-63.6194Q13.1458-58.0497 9.99087-50.7733Q6.83594-43.4969 6.83594-35.2384Q6.83594-26.9799 9.99087-19.7035Q13.1458-12.4271 18.6988-6.85737Q24.2519-1.2877 31.5283 1.85059Q38.8047 4.98887 47.0632 4.98887ZM39.9633-13.1013Q38.4098-13.1013 37.3256-14.1133Q36.2415-15.1253 36.2415-16.7587Q36.2415-18.2301 37.3256-19.282Q38.4098-20.334 39.9633-20.334L44.2669-20.334L44.2669-34.7196L40.7756-34.7196Q39.2065-34.7196 38.1224-35.7394Q37.0383-36.7592 37.0383-38.3438Q37.0383-39.8484 38.1224-40.9004Q39.2065-41.9523 40.7756-41.9523L48.4281-41.9523Q50.4166-41.9523 51.4519-40.674Q52.4872-39.3957 52.4872-37.2607L52.4872-20.334L56.2008-20.334Q57.7698-20.334 58.8628-19.282Q59.9559-18.2301 59.9559-16.7587Q59.9559-15.1253 58.8628-14.1133Q57.7698-13.1013 56.2008-13.1013ZM46.8899-47.5146Q44.3731-47.5146 42.6054-49.3157Q40.8377-51.1167 40.8377-53.618Q40.8377-56.1813 42.6054-57.9502Q44.3731-59.719 46.8899-59.719Q49.4067-59.719 51.1667-57.9502Q52.9267-56.1813 52.9267-53.618Q52.9267-51.1167 51.1667-49.3157Q49.4067-47.5146 46.8899-47.5146Z"/>
  </g>
  <g id="Medium-S" transform="matrix(1 0 0 1 1699.83 696)">
   <path d="M46.7061 4.625Q54.917 4.625 62.1294 1.51367Q69.3418-1.59766 74.8477-7.12354Q80.3535-12.6494 83.4849-19.8618Q86.6162-27.0742 86.6162-35.2451Q86.6162-43.416 83.4849-50.6284Q80.3535-57.8408 74.8276-63.3667Q69.3018-68.8926 62.0894-72.0039Q54.877-75.1152 46.666-75.1152Q38.4951-75.1152 31.2827-72.0039Q24.0703-68.8926 18.5845-63.3667Q13.0986-57.8408 9.96729-50.6284Q6.83594-43.416 6.83594-35.2451Q6.83594-27.0742 9.96729-19.8618Q13.0986-12.6494 18.6045-7.12354Q24.1104-1.59766 31.3228 1.51367Q38.5352 4.625 46.7061 4.625ZM39.7207-12.9463Q38.248-12.9463 37.2212-13.9111Q36.1943-14.876 36.1943-16.415Q36.1943-17.7988 37.2212-18.7969Q38.248-19.7949 39.7207-19.7949L44.085-19.7949L44.085-35.1846L40.5195-35.1846Q39.0381-35.1846 38.0112-36.1538Q36.9844-37.123 36.9844-38.6133Q36.9844-40.0371 38.0112-41.0352Q39.0381-42.0332 40.5195-42.0332L48.0508-42.0332Q49.918-42.0332 50.896-40.8223Q51.874-39.6113 51.874-37.5977L51.874-19.7949L55.9043-19.7949Q57.3857-19.7949 58.4282-18.7969Q59.4707-17.7988 59.4707-16.415Q59.4707-14.876 58.4282-13.9111Q57.3857-12.9463 55.9043-12.9463ZM46.4385-47.8516Q43.9756-47.8516 42.2651-49.6021Q40.5547-51.3525 40.5547-53.8066Q40.5547-56.2959 42.2651-58.0176Q43.9756-59.7393 46.4385-59.7393Q48.9014-59.7393 50.6074-58.0176Q52.3135-56.2959 52.3135-53.8066Q52.3135-51.3525 50.6074-49.6021Q48.9014-47.8516 46.4385-47.8516Z"/>
  </g>
  <g id="Regular-S" transform="matrix(1 0 0 1 1403.58 696)">
   <path d="M46.2402 4.15039Q54.3457 4.15039 61.4746 1.07422Q68.6035-2.00195 74.0479-7.4707Q79.4922-12.9395 82.5928-20.0684Q85.6934-27.1973 85.6934-35.2539Q85.6934-43.3105 82.5928-50.4395Q79.4922-57.5684 74.0234-63.0371Q68.5547-68.5059 61.4258-71.582Q54.2969-74.6582 46.1914-74.6582Q38.1348-74.6582 31.0059-71.582Q23.877-68.5059 18.457-63.0371Q13.0371-57.5684 9.93652-50.4395Q6.83594-43.3105 6.83594-35.2539Q6.83594-27.1973 9.93652-20.0684Q13.0371-12.9395 18.4814-7.4707Q23.9258-2.00195 31.0547 1.07422Q38.1836 4.15039 46.2402 4.15039ZM39.4043-12.7441Q38.0371-12.7441 37.085-13.6475Q36.1328-14.5508 36.1328-15.9668Q36.1328-17.2363 37.085-18.1641Q38.0371-19.0918 39.4043-19.0918L43.8477-19.0918L43.8477-35.791L40.1855-35.791Q38.8184-35.791 37.8662-36.6943Q36.9141-37.5977 36.9141-38.9648Q36.9141-40.2832 37.8662-41.2109Q38.8184-42.1387 40.1855-42.1387L47.5586-42.1387Q49.2676-42.1387 50.1709-41.0156Q51.0742-39.8926 51.0742-38.0371L51.0742-19.0918L55.5176-19.0918Q56.8848-19.0918 57.8613-18.1641Q58.8379-17.2363 58.8379-15.9668Q58.8379-14.5508 57.8613-13.6475Q56.8848-12.7441 55.5176-12.7441ZM45.8496-48.291Q43.457-48.291 41.8213-49.9756Q40.1855-51.6602 40.1855-54.0527Q40.1855-56.4453 41.8213-58.1055Q43.457-59.7656 45.8496-59.7656Q48.2422-59.7656 49.8779-58.1055Q51.5137-56.4453 51.5137-54.0527Q51.5137-51.6602 49.8779-49.9756Q48.2422-48.291 45.8496-48.291Z"/>
  </g>
  <g id="Light-S" transform="matrix(1 0 0 1 1107.6 696)">
   <path d="M45.5078 3.41797Q53.4831 3.41797 60.4736 0.406901Q67.4642-2.60417 72.8109-7.96712Q78.1576-13.3301 81.193-20.3206Q84.2285-27.3112 84.2285-35.2539Q84.2285-43.1966 81.193-50.1872Q78.1576-57.1777 72.7946-62.5407Q67.4316-67.9036 60.4411-70.9147Q53.4505-73.9258 45.4753-73.9258Q37.5488-73.9258 30.5501-70.9147Q23.5514-67.9036 18.2292-62.5407Q12.9069-57.1777 9.87142-50.1872Q6.83594-43.1966 6.83594-35.2539Q6.83594-27.3112 9.87142-20.3206Q12.9069-13.3301 18.2454-7.96712Q23.584-2.60417 30.5827 0.406901Q37.5814 3.41797 45.5078 3.41797ZM38.5742-13.3789Q37.5-13.3789 36.7594-14.0951Q36.0189-14.8112 36.0189-15.9017Q36.0189-16.9108 36.7594-17.6432Q37.5-18.3757 38.5742-18.3757L43.8151-18.3757L43.8151-37.4512L39.1764-37.4512Q38.0859-37.4512 37.3535-38.1755Q36.6211-38.8997 36.6211-39.9577Q36.6211-40.9831 37.3535-41.7155Q38.0859-42.4479 39.1764-42.4479L46.6471-42.4479Q47.9655-42.4479 48.6654-41.5771Q49.3652-40.7064 49.3652-39.3229L49.3652-18.3757L54.6061-18.3757Q55.6803-18.3757 56.4372-17.6432Q57.194-16.9108 57.194-15.9017Q57.194-14.8112 56.4372-14.0951Q55.6803-13.3789 54.6061-13.3789ZM45.2311-49.2513Q43.2454-49.2513 41.8864-50.6348Q40.5273-52.0182 40.5273-54.0039Q40.5273-55.9896 41.8864-57.3812Q43.2454-58.7728 45.2311-58.7728Q47.2168-58.7728 48.5921-57.3812Q49.9674-55.9896 49.9674-54.0039Q49.9674-52.0182 48.5921-50.6348Q47.2168-49.2513 45.2311-49.2513Z"/>
  </g>
  <g id="Thin-S" transform="matrix(1 0 0 1 811.863 696)">
   <path d="M44.5391 2.44928Q52.3422 2.44928 59.1498-0.47568Q65.9573-3.40064 71.1749-8.62368Q76.3924-13.8467 79.3418-20.6543Q82.2911-27.4619 82.2911-35.2539Q82.2911-43.0459 79.3418-49.8535Q76.3924-56.6611 71.1694-61.8841Q65.9463-67.1072 59.1387-70.0321Q52.3311-72.9571 44.5281-72.9571Q36.7739-72.9571 29.9474-70.0321Q23.1209-67.1072 17.9278-61.8841Q12.7347-56.6611 9.78531-49.8535Q6.83594-43.0459 6.83594-35.2539Q6.83594-27.4619 9.78531-20.6543Q12.7347-13.8467 17.9333-8.62368Q23.1319-3.40064 29.9584-0.47568Q36.7849 2.44928 44.5391 2.44928ZM37.4764-14.2184Q36.7896-14.2184 36.3289-14.687Q35.8682-15.1556 35.8682-15.8156Q35.8682-16.4803 36.3289-16.9544Q36.7896-17.4285 37.4764-17.4285L43.7721-17.4285L43.7721-39.6469L37.8418-39.6469Q37.1173-39.6469 36.6754-40.1344Q36.2336-40.6218 36.2336-41.2708Q36.2336-41.9087 36.6754-42.3828Q37.1173-42.8569 37.8418-42.8569L45.4417-42.8569Q46.2434-42.8569 46.6742-42.3198Q47.105-41.7827 47.105-41.0235L47.105-17.4285L53.4006-17.4285Q54.0874-17.4285 54.5536-16.9544Q55.0198-16.4803 55.0198-15.8156Q55.0198-15.1556 54.5536-14.687Q54.0874-14.2184 53.4006-14.2184ZM44.4131-50.5214Q42.9656-50.5214 41.9725-51.5066Q40.9794-52.4918 40.9794-53.9393Q40.9794-55.3868 41.9725-56.4233Q42.9656-57.4597 44.4131-57.4597Q45.8606-57.4597 46.8915-56.4233Q47.9224-55.3868 47.9224-53.9393Q47.9224-52.4918 46.8915-51.5066Q45.8606-50.5214 44.4131-50.5214Z"/>
  </g>
  <g id="Ultralight-S" transform="matrix(1 0 0 1 515.649 696)">
   <path d="M44.043 1.95312Q51.7578 1.95312 58.4717-0.927734Q65.1855-3.80859 70.3369-8.95996Q75.4883-14.1113 78.3936-20.8252Q81.2988-27.5391 81.2988-35.2539Q81.2988-42.9688 78.3936-49.6826Q75.4883-56.3965 70.3369-61.5479Q65.1855-66.6992 58.4717-69.5801Q51.7578-72.4609 44.043-72.4609Q36.377-72.4609 29.6387-69.5801Q22.9004-66.6992 17.7734-61.5479Q12.6465-56.3965 9.74121-49.6826Q6.83594-42.9688 6.83594-35.2539Q6.83594-27.5391 9.74121-20.8252Q12.6465-14.1113 17.7734-8.95996Q22.9004-3.80859 29.6387-0.927734Q36.377 1.95312 44.043 1.95312ZM36.9141-14.6484Q36.4258-14.6484 36.1084-14.9902Q35.791-15.332 35.791-15.7715Q35.791-16.2598 36.1084-16.6016Q36.4258-16.9434 36.9141-16.9434L43.75-16.9434L43.75-40.7715L37.1582-40.7715Q36.6211-40.7715 36.3281-41.1377Q36.0352-41.5039 36.0352-41.9434Q36.0352-42.3828 36.3281-42.7246Q36.6211-43.0664 37.1582-43.0664L44.8242-43.0664Q45.3613-43.0664 45.6543-42.7002Q45.9473-42.334 45.9473-41.8945L45.9473-16.9434L52.7832-16.9434Q53.2715-16.9434 53.5889-16.6016Q53.9062-16.2598 53.9062-15.7715Q53.9062-15.332 53.5889-14.9902Q53.2715-14.6484 52.7832-14.6484ZM43.9941-51.1719Q42.8223-51.1719 42.0166-51.9531Q41.2109-52.7344 41.2109-53.9062Q41.2109-55.0781 42.0166-55.9326Q42.8223-56.7871 43.9941-56.7871Q45.166-56.7871 46.0205-55.9326Q46.875-55.0781 46.875-53.9062Q46.875-52.7344 46.0205-51.9531Q45.166-51.1719 43.9941-51.1719Z"/>
  </g>
 </g>
</svg>
