<?xml version="1.0" encoding="UTF-8"?>
<!--Generator: Apple Native CoreSVG 175.5-->
<!DOCTYPE svg
PUBLIC "-//W3C//DTD SVG 1.1//EN"
       "http://www.w3.org/Graphics/SVG/1.1/DTD/svg11.dtd">
<svg version="1.1" xmlns="http://www.w3.org/2000/svg" xmlns:xlink="http://www.w3.org/1999/xlink" width="3300" height="2200">
 <!--glyph: "uni10043F.medium", point size: 100.0, font version: "18.0d9e1", template writer version: "84"-->
 <g id="Notes">
  <rect height="2200" id="artboard" style="fill:white;opacity:1" width="3300" x="0" y="0"/>
  <line style="fill:none;stroke:black;opacity:1;stroke-width:0.5;" x1="263" x2="3036" y1="292" y2="292"/>
  <text style="stroke:none;fill:black;font-family:sans-serif;font-size:13;font-weight:bold;" transform="matrix(1 0 0 1 263 322)">Weight/Scale Variations</text>
  <text style="stroke:none;fill:black;font-family:sans-serif;font-size:13;text-anchor:middle;" transform="matrix(1 0 0 1 559.711 322)">Ultralight</text>
  <text style="stroke:none;fill:black;font-family:sans-serif;font-size:13;text-anchor:middle;" transform="matrix(1 0 0 1 856.422 322)">Thin</text>
  <text style="stroke:none;fill:black;font-family:sans-serif;font-size:13;text-anchor:middle;" transform="matrix(1 0 0 1 1153.13 322)">Light</text>
  <text style="stroke:none;fill:black;font-family:sans-serif;font-size:13;text-anchor:middle;" transform="matrix(1 0 0 1 1449.84 322)">Regular</text>
  <text style="stroke:none;fill:black;font-family:sans-serif;font-size:13;text-anchor:middle;" transform="matrix(1 0 0 1 1746.56 322)">Medium</text>
  <text style="stroke:none;fill:black;font-family:sans-serif;font-size:13;text-anchor:middle;" transform="matrix(1 0 0 1 2043.27 322)">Semibold</text>
  <text style="stroke:none;fill:black;font-family:sans-serif;font-size:13;text-anchor:middle;" transform="matrix(1 0 0 1 2339.98 322)">Bold</text>
  <text style="stroke:none;fill:black;font-family:sans-serif;font-size:13;text-anchor:middle;" transform="matrix(1 0 0 1 2636.69 322)">Heavy</text>
  <text style="stroke:none;fill:black;font-family:sans-serif;font-size:13;text-anchor:middle;" transform="matrix(1 0 0 1 2933.4 322)">Black</text>
  <line style="fill:none;stroke:black;opacity:1;stroke-width:0.5;" x1="263" x2="3036" y1="1903" y2="1903"/>
  <g transform="matrix(1 0 0 1 263 1933)">
   <path d="M9.24805 0.830078Q10.8691 0.830078 12.2949 0.214844Q13.7207-0.400391 14.8096-1.49414Q15.8984-2.58789 16.5186-4.01367Q17.1387-5.43945 17.1387-7.05078Q17.1387-8.66211 16.5186-10.0879Q15.8984-11.5137 14.8047-12.6074Q13.7109-13.7012 12.2852-14.3164Q10.8594-14.9316 9.23828-14.9316Q7.62695-14.9316 6.20117-14.3164Q4.77539-13.7012 3.69141-12.6074Q2.60742-11.5137 1.9873-10.0879Q1.36719-8.66211 1.36719-7.05078Q1.36719-5.43945 1.9873-4.01367Q2.60742-2.58789 3.69629-1.49414Q4.78516-0.400391 6.21094 0.214844Q7.63672 0.830078 9.24805 0.830078ZM9.24805-0.654297Q7.91992-0.654297 6.7627-1.14746Q5.60547-1.64062 4.73145-2.51953Q3.85742-3.39844 3.36426-4.56055Q2.87109-5.72266 2.87109-7.05078Q2.87109-8.37891 3.35938-9.54102Q3.84766-10.7031 4.72168-11.582Q5.5957-12.4609 6.75293-12.9541Q7.91016-13.4473 9.23828-13.4473Q10.5762-13.4473 11.7383-12.9541Q12.9004-12.4609 13.7793-11.582Q14.6582-10.7031 15.1514-9.54102Q15.6445-8.37891 15.6445-7.05078Q15.6445-5.72266 15.1514-4.56055Q14.6582-3.39844 13.7793-2.51953Q12.9004-1.64062 11.7432-1.14746Q10.5859-0.654297 9.24805-0.654297ZM5.6543-7.05078Q5.6543-6.72852 5.85938-6.52832Q6.06445-6.32812 6.40625-6.32812L8.51562-6.32812L8.51562-4.20898Q8.51562-3.88672 8.71094-3.67676Q8.90625-3.4668 9.23828-3.4668Q9.56055-3.4668 9.77051-3.67676Q9.98047-3.88672 9.98047-4.20898L9.98047-6.32812L12.0898-6.32812Q12.4219-6.32812 12.627-6.52832Q12.832-6.72852 12.832-7.05078Q12.832-7.38281 12.627-7.58789Q12.4219-7.79297 12.0898-7.79297L9.98047-7.79297L9.98047-9.90234Q9.98047-10.2344 9.77051-10.4443Q9.56055-10.6543 9.23828-10.6543Q8.90625-10.6543 8.71094-10.4443Q8.51562-10.2344 8.51562-9.90234L8.51562-7.79297L6.40625-7.79297Q6.06445-7.79297 5.85938-7.58789Q5.6543-7.38281 5.6543-7.05078Z"/>
  </g>
  <g transform="matrix(1 0 0 1 281.867 1933)">
   <path d="M11.709 2.91016Q13.75 2.91016 15.5518 2.12891Q17.3535 1.34766 18.7305-0.0292969Q20.1074-1.40625 20.8887-3.20801Q21.6699-5.00977 21.6699-7.05078Q21.6699-9.0918 20.8887-10.8936Q20.1074-12.6953 18.7305-14.0723Q17.3535-15.4492 15.5469-16.2305Q13.7402-17.0117 11.6992-17.0117Q9.6582-17.0117 7.85645-16.2305Q6.05469-15.4492 4.68262-14.0723Q3.31055-12.6953 2.5293-10.8936Q1.74805-9.0918 1.74805-7.05078Q1.74805-5.00977 2.5293-3.20801Q3.31055-1.40625 4.6875-0.0292969Q6.06445 1.34766 7.86621 2.12891Q9.66797 2.91016 11.709 2.91016ZM11.709 1.25Q9.98047 1.25 8.47656 0.605469Q6.97266-0.0390625 5.83496-1.17676Q4.69727-2.31445 4.05762-3.81836Q3.41797-5.32227 3.41797-7.05078Q3.41797-8.7793 4.05762-10.2832Q4.69727-11.7871 5.83008-12.9297Q6.96289-14.0723 8.4668-14.7119Q9.9707-15.3516 11.6992-15.3516Q13.4277-15.3516 14.9365-14.7119Q16.4453-14.0723 17.583-12.9297Q18.7207-11.7871 19.3652-10.2832Q20.0098-8.7793 20.0098-7.05078Q20.0098-5.32227 19.3701-3.81836Q18.7305-2.31445 17.5879-1.17676Q16.4453-0.0390625 14.9414 0.605469Q13.4375 1.25 11.709 1.25ZM7.17773-7.05078Q7.17773-6.69922 7.41211-6.47461Q7.64648-6.25 8.01758-6.25L10.8887-6.25L10.8887-3.36914Q10.8887-2.99805 11.1133-2.76855Q11.3379-2.53906 11.6895-2.53906Q12.0605-2.53906 12.29-2.76855Q12.5195-2.99805 12.5195-3.36914L12.5195-6.25L15.4004-6.25Q15.7715-6.25 16.001-6.47461Q16.2305-6.69922 16.2305-7.05078Q16.2305-7.42188 16.001-7.65137Q15.7715-7.88086 15.4004-7.88086L12.5195-7.88086L12.5195-10.752Q12.5195-11.1328 12.29-11.3623Q12.0605-11.5918 11.6895-11.5918Q11.3379-11.5918 11.1133-11.3574Q10.8887-11.123 10.8887-10.752L10.8887-7.88086L8.01758-7.88086Q7.63672-7.88086 7.40723-7.65137Q7.17773-7.42188 7.17773-7.05078Z"/>
  </g>
  <g transform="matrix(1 0 0 1 305.646 1933)">
   <path d="M14.9707 5.66406Q17.0605 5.66406 18.96 5.01465Q20.8594 4.36523 22.4512 3.19336Q24.043 2.02148 25.2197 0.429688Q26.3965-1.16211 27.0459-3.06641Q27.6953-4.9707 27.6953-7.05078Q27.6953-9.14062 27.0459-11.04Q26.3965-12.9395 25.2197-14.5312Q24.043-16.123 22.4512-17.2998Q20.8594-18.4766 18.9551-19.126Q17.0508-19.7754 14.9609-19.7754Q12.8711-19.7754 10.9717-19.126Q9.07227-18.4766 7.48535-17.2998Q5.89844-16.123 4.72168-14.5312Q3.54492-12.9395 2.90039-11.04Q2.25586-9.14062 2.25586-7.05078Q2.25586-4.9707 2.90527-3.06641Q3.55469-1.16211 4.72656 0.429688Q5.89844 2.02148 7.49023 3.19336Q9.08203 4.36523 10.9814 5.01465Q12.8809 5.66406 14.9707 5.66406ZM14.9707 3.84766Q13.1641 3.84766 11.5283 3.2959Q9.89258 2.74414 8.53516 1.74805Q7.17773 0.751953 6.17676-0.610352Q5.17578-1.97266 4.62891-3.6084Q4.08203-5.24414 4.08203-7.05078Q4.08203-8.86719 4.62891-10.5029Q5.17578-12.1387 6.17188-13.501Q7.16797-14.8633 8.52539-15.8594Q9.88281-16.8555 11.5186-17.4023Q13.1543-17.9492 14.9609-17.9492Q16.7773-17.9492 18.4131-17.4023Q20.0488-16.8555 21.4111-15.8594Q22.7734-14.8633 23.7744-13.501Q24.7754-12.1387 25.3223-10.5029Q25.8691-8.86719 25.8691-7.05078Q25.8691-5.24414 25.3223-3.6084Q24.7754-1.97266 23.7793-0.610352Q22.7832 0.751953 21.4209 1.74805Q20.0586 2.74414 18.4229 3.2959Q16.7871 3.84766 14.9707 3.84766ZM9.19922-7.05078Q9.19922-6.66992 9.45801-6.4209Q9.7168-6.17188 10.1172-6.17188L14.0625-6.17188L14.0625-2.2168Q14.0625-1.81641 14.3115-1.55762Q14.5605-1.29883 14.9512-1.29883Q15.3516-1.29883 15.6104-1.55273Q15.8691-1.80664 15.8691-2.2168L15.8691-6.17188L19.8242-6.17188Q20.2246-6.17188 20.4785-6.4209Q20.7324-6.66992 20.7324-7.05078Q20.7324-7.46094 20.4785-7.71484Q20.2246-7.96875 19.8242-7.96875L15.8691-7.96875L15.8691-11.9141Q15.8691-12.3242 15.6104-12.583Q15.3516-12.8418 14.9512-12.8418Q14.5605-12.8418 14.3115-12.583Q14.0625-12.3242 14.0625-11.9141L14.0625-7.96875L10.1172-7.96875Q9.70703-7.96875 9.45312-7.71484Q9.19922-7.46094 9.19922-7.05078Z"/>
  </g>
  <text style="stroke:none;fill:black;font-family:sans-serif;font-size:13;font-weight:bold;" transform="matrix(1 0 0 1 263 1953)">Design Variations</text>
  <text style="stroke:none;fill:black;font-family:sans-serif;font-size:13;" transform="matrix(1 0 0 1 263 1971)">Symbols are supported in up to nine weights and three scales.</text>
  <text style="stroke:none;fill:black;font-family:sans-serif;font-size:13;" transform="matrix(1 0 0 1 263 1989)">For optimal layout with text and other symbols, vertically align</text>
  <text style="stroke:none;fill:black;font-family:sans-serif;font-size:13;" transform="matrix(1 0 0 1 263 2007)">symbols with the adjacent text.</text>
  <line style="fill:none;stroke:#00AEEF;stroke-width:0.5;opacity:1.0;" x1="776" x2="776" y1="1919" y2="1933"/>
  <g transform="matrix(1 0 0 1 776 1933)">
   <path d="M3.31055 0.15625Q3.70117 0.15625 3.91602-0.00976562Q4.13086-0.175781 4.26758-0.585938L5.52734-4.0332L11.2891-4.0332L12.5488-0.585938Q12.6855-0.175781 12.9004-0.00976562Q13.1152 0.15625 13.4961 0.15625Q13.8867 0.15625 14.1162-0.0585938Q14.3457-0.273438 14.3457-0.644531Q14.3457-0.869141 14.2383-1.17188L9.6582-13.3691Q9.48242-13.8184 9.17969-14.043Q8.87695-14.2676 8.4082-14.2676Q7.5-14.2676 7.17773-13.3789L2.59766-1.16211Q2.49023-0.859375 2.49023-0.634766Q2.49023-0.263672 2.70996-0.0537109Q2.92969 0.15625 3.31055 0.15625ZM6.00586-5.51758L8.37891-12.0898L8.42773-12.0898L10.8008-5.51758Z"/>
  </g>
  <line style="fill:none;stroke:#00AEEF;stroke-width:0.5;opacity:1.0;" x1="793.197" x2="793.197" y1="1919" y2="1933"/>
  <text style="stroke:none;fill:black;font-family:sans-serif;font-size:13;font-weight:bold;" transform="matrix(1 0 0 1 776 1953)">Margins</text>
  <text style="stroke:none;fill:black;font-family:sans-serif;font-size:13;" transform="matrix(1 0 0 1 776 1971)">Leading and trailing margins on the left and right side of each symbol</text>
  <text style="stroke:none;fill:black;font-family:sans-serif;font-size:13;" transform="matrix(1 0 0 1 776 1989)">can be adjusted by modifying the x-location of the margin guidelines.</text>
  <text style="stroke:none;fill:black;font-family:sans-serif;font-size:13;" transform="matrix(1 0 0 1 776 2007)">Modifications are automatically applied proportionally to all</text>
  <text style="stroke:none;fill:black;font-family:sans-serif;font-size:13;" transform="matrix(1 0 0 1 776 2025)">scales and weights.</text>
  <g transform="matrix(1 0 0 1 1289 1933)">
   <path d="M2.8418 1.86523L4.54102 3.57422Q5.18555 4.22852 5.90332 4.17969Q6.62109 4.13086 7.31445 3.35938L18.0078-8.42773L17.041-9.4043L6.42578 2.27539Q6.16211 2.57812 5.89355 2.61719Q5.625 2.65625 5.27344 2.30469L4.10156 1.14258Q3.75 0.791016 3.79395 0.522461Q3.83789 0.253906 4.14062-0.0195312L15.6152-10.8203L14.6387-11.7871L3.04688-0.898438Q2.30469-0.214844 2.25098 0.498047Q2.19727 1.21094 2.8418 1.86523ZM9.25781-16.3281Q8.94531-16.0254 8.90625-15.6348Q8.86719-15.2441 9.04297-14.9512Q9.21875-14.6777 9.55566-14.541Q9.89258-14.4043 10.3809-14.5215Q11.4746-14.7754 12.5977-14.7314Q13.7207-14.6875 14.7949-13.9844L14.209-12.5293Q13.9551-11.9043 14.0674-11.4404Q14.1797-10.9766 14.5801-10.5664L16.875-8.25195Q17.2363-7.88086 17.5781-7.82227Q17.9199-7.76367 18.3398-7.8418L19.4043-8.03711L20.0684-7.36328L20.0293-6.80664Q20-6.43555 20.1221-6.12305Q20.2441-5.81055 20.6055-5.44922L21.3672-4.70703Q21.7285-4.3457 22.1533-4.33105Q22.5781-4.31641 22.9297-4.66797L25.8398-7.58789Q26.1914-7.93945 26.1816-8.35449Q26.1719-8.76953 25.8105-9.13086L25.0391-9.89258Q24.6875-10.2539 24.3799-10.3857Q24.0723-10.5176 23.7109-10.4883L23.1348-10.4395L22.4902-11.0742L22.7344-12.1973Q22.832-12.6172 22.6953-12.9834Q22.5586-13.3496 22.1191-13.7891L19.9219-15.9766Q18.6719-17.2168 17.2607-17.8369Q15.8496-18.457 14.4189-18.4814Q12.9883-18.5059 11.665-17.959Q10.3418-17.4121 9.25781-16.3281ZM10.752-15.957Q11.6602-16.6211 12.7002-16.9043Q13.7402-17.1875 14.8047-17.085Q15.8691-16.9824 16.8701-16.5137Q17.8711-16.0449 18.7012-15.2051L21.1328-12.793Q21.3086-12.6172 21.3525-12.4512Q21.3965-12.2852 21.3379-12.0312L21.0156-10.5469L22.5195-9.0625L23.5059-9.12109Q23.6914-9.13086 23.7891-9.09668Q23.8867-9.0625 24.0332-8.91602L24.6094-8.33984L22.168-5.89844L21.5918-6.47461Q21.4453-6.62109 21.4062-6.71875Q21.3672-6.81641 21.377-7.01172L21.4453-7.98828L19.9512-9.47266L18.4277-9.21875Q18.1836-9.16992 18.042-9.2041Q17.9004-9.23828 17.7148-9.41406L15.7129-11.416Q15.5176-11.5918 15.4932-11.7529Q15.4688-11.9141 15.5859-12.1875L16.4648-14.2773Q15.293-15.3711 13.8281-15.791Q12.3633-16.2109 10.8398-15.7617Q10.7227-15.7324 10.6885-15.8057Q10.6543-15.8789 10.752-15.957Z"/>
  </g>
  <text style="stroke:none;fill:black;font-family:sans-serif;font-size:13;font-weight:bold;" transform="matrix(1 0 0 1 1289 1953)">Exporting</text>
  <text style="stroke:none;fill:black;font-family:sans-serif;font-size:13;" transform="matrix(1 0 0 1 1289 1971)">Symbols should be outlined when exporting to ensure the</text>
  <text style="stroke:none;fill:black;font-family:sans-serif;font-size:13;" transform="matrix(1 0 0 1 1289 1989)">design is preserved when submitting to Xcode.</text>
  <text id="template-version" style="stroke:none;fill:black;font-family:sans-serif;font-size:13;text-anchor:end;" transform="matrix(1 0 0 1 3036 1933)">Template v.2.0</text>
  <text style="stroke:none;fill:black;font-family:sans-serif;font-size:13;text-anchor:end;" transform="matrix(1 0 0 1 3036 1951)">Requires Xcode 12 or greater</text>
  <text id="descriptive-name" style="stroke:none;fill:black;font-family:sans-serif;font-size:13;text-anchor:end;" transform="matrix(1 0 0 1 3036 1969)">Generated from chart.bar.fill</text>
  <text style="stroke:none;fill:black;font-family:sans-serif;font-size:13;text-anchor:end;" transform="matrix(1 0 0 1 3036 1987)">Typeset at 100 points</text>
  <text style="stroke:none;fill:black;font-family:sans-serif;font-size:13;" transform="matrix(1 0 0 1 263 726)">Small</text>
  <text style="stroke:none;fill:black;font-family:sans-serif;font-size:13;" transform="matrix(1 0 0 1 263 1156)">Medium</text>
  <text style="stroke:none;fill:black;font-family:sans-serif;font-size:13;" transform="matrix(1 0 0 1 263 1586)">Large</text>
 </g>
 <g id="Guides">
  <g id="H-reference" style="fill:#27AAE1;stroke:none;" transform="matrix(1 0 0 1 339 696)">
   <path d="M0.993347 0L3.6377 0L29.3282-67.1326L30.0301-67.1326L30.0301-70.459L28.1227-70.459ZM11.6882-24.4797L46.9818-24.4797L46.2311-26.7288L12.4382-26.7288ZM55.1193 0L57.7637 0L30.6381-70.459L29.4327-70.459L29.4327-67.1326Z"/>
  </g>
  <line id="Baseline-S" style="fill:none;stroke:#27AAE1;opacity:1;stroke-width:0.5;" x1="263" x2="3036" y1="696" y2="696"/>
  <line id="Capline-S" style="fill:none;stroke:#27AAE1;opacity:1;stroke-width:0.5;" x1="263" x2="3036" y1="625.541" y2="625.541"/>
  <g id="H-reference" style="fill:#27AAE1;stroke:none;" transform="matrix(1 0 0 1 339 1126)">
   <path d="M0.993347 0L3.6377 0L29.3282-67.1326L30.0301-67.1326L30.0301-70.459L28.1227-70.459ZM11.6882-24.4797L46.9818-24.4797L46.2311-26.7288L12.4382-26.7288ZM55.1193 0L57.7637 0L30.6381-70.459L29.4327-70.459L29.4327-67.1326Z"/>
  </g>
  <line id="Baseline-M" style="fill:none;stroke:#27AAE1;opacity:1;stroke-width:0.5;" x1="263" x2="3036" y1="1126" y2="1126"/>
  <line id="Capline-M" style="fill:none;stroke:#27AAE1;opacity:1;stroke-width:0.5;" x1="263" x2="3036" y1="1055.54" y2="1055.54"/>
  <g id="H-reference" style="fill:#27AAE1;stroke:none;" transform="matrix(1 0 0 1 339 1556)">
   <path d="M0.993347 0L3.6377 0L29.3282-67.1326L30.0301-67.1326L30.0301-70.459L28.1227-70.459ZM11.6882-24.4797L46.9818-24.4797L46.2311-26.7288L12.4382-26.7288ZM55.1193 0L57.7637 0L30.6381-70.459L29.4327-70.459L29.4327-67.1326Z"/>
  </g>
  <line id="Baseline-L" style="fill:none;stroke:#27AAE1;opacity:1;stroke-width:0.5;" x1="263" x2="3036" y1="1556" y2="1556"/>
  <line id="Capline-L" style="fill:none;stroke:#27AAE1;opacity:1;stroke-width:0.5;" x1="263" x2="3036" y1="1485.54" y2="1485.54"/>
  <line id="left-margin" style="fill:none;stroke:#00AEEF;stroke-width:0.5;opacity:1.0;" x1="1376.06" x2="1376.06" y1="1030.79" y2="1150.12"/>
  <line id="right-margin" style="fill:none;stroke:#00AEEF;stroke-width:0.5;opacity:1.0;" x1="1523.63" x2="1523.63" y1="1030.79" y2="1150.12"/>
 </g>
 <g id="Symbols">
  <g id="Black-L" transform="matrix(1 0 0 1 2827.43 1556)">
   <path d="M34.9569 25.5091L50.0051 25.5091Q58.9159 25.5091 63.9074 20.4808Q68.8989 15.4526 68.8989 6.93553L68.8989-40.2495Q68.8989-48.7469 63.9074-53.7746Q58.9159-58.8022 50.0051-58.8022L34.9569-58.8022Q26.0669-58.8022 21.0755-53.7746Q16.084-48.7469 16.084-40.1911L16.084 6.93553Q16.084 15.4526 21.0755 20.4808Q26.0669 25.5091 34.9569 25.5091ZM98.4451 25.5091L113.494 25.5091Q122.404 25.5091 127.396 20.4808Q132.388 15.4526 132.388 6.93553L132.388-58.8873Q132.388-67.4056 127.396-72.4234Q122.404-77.4412 113.494-77.4412L98.4451-77.4412Q89.5563-77.4412 84.5538-72.4234Q79.5513-67.4056 79.5513-58.8289L79.5513 6.93553Q79.5513 15.4526 84.5538 20.4808Q89.5563 25.5091 98.4451 25.5091ZM161.914 25.5091L176.962 25.5091Q185.873 25.5091 190.864 20.4808Q195.856 15.4526 195.856 6.93553L195.856-77.2027Q195.856-85.7001 190.864-90.7284Q185.873-95.7566 176.962-95.7566L161.914-95.7566Q153.024-95.7566 148.032-90.7284Q143.041-85.7001 143.041-77.1443L143.041 6.93553Q143.041 15.4526 148.032 20.4808Q153.024 25.5091 161.914 25.5091Z"/>
  </g>
  <g id="Heavy-L" transform="matrix(1 0 0 1 2533.36 1556)">
   <path d="M33.5132 24.9681L49.4601 24.9681Q57.7731 24.9681 62.3464 20.3979Q66.9196 15.8276 66.9196 7.87744L66.9196-41.5211Q66.9196-49.4467 62.3464-54.0142Q57.7731-58.5817 49.4601-58.5817L33.5132-58.5817Q25.2304-58.5817 20.6572-54.0142Q16.084-49.4467 16.084-41.4765L16.084 7.87744Q16.084 15.8276 20.6572 20.3979Q25.2304 24.9681 33.5132 24.9681ZM95.3571 24.9681L111.31 24.9681Q119.617 24.9681 124.193 20.3979Q128.769 15.8276 128.769 7.87744L128.769-60.0596Q128.769-68.0154 124.193-72.5706Q119.617-77.1258 111.31-77.1258L95.3571-77.1258Q87.0799-77.1258 82.4887-72.5706Q77.8976-68.0154 77.8976-60.0149L77.8976 7.87744Q77.8976 15.8276 82.4887 20.3979Q87.0799 24.9681 95.3571 24.9681ZM157.176 24.9681L173.123 24.9681Q181.436 24.9681 186.01 20.3979Q190.583 15.8276 190.583 7.87744L190.583-78.3943Q190.583-86.3199 186.01-90.8902Q181.436-95.4605 173.123-95.4605L157.176-95.4605Q148.893-95.4605 144.32-90.8902Q139.747-86.3199 139.747-78.3496L139.747 7.87744Q139.747 15.8276 144.32 20.3979Q148.893 24.9681 157.176 24.9681Z"/>
  </g>
  <g id="Bold-L" transform="matrix(1 0 0 1 2239.78 1556)">
   <path d="M31.7751 24.3443L48.7541 24.3443Q56.3368 24.3443 60.4101 20.309Q64.4833 16.2738 64.4833 9.00071L64.4833-43.0293Q64.4833-50.2776 60.4101-54.3063Q56.3368-58.335 48.7541-58.335L31.7751-58.335Q24.2305-58.335 20.1572-54.3063Q16.084-50.2776 16.084-43.0001L16.084 9.00071Q16.084 16.2738 20.1572 20.309Q24.2305 24.3443 31.7751 24.3443ZM91.7019 24.3443L108.694 24.3443Q116.264 24.3443 120.343 20.309Q124.423 16.2738 124.423 9.00071L124.423-61.4298Q124.423-68.7164 120.343-72.7326Q116.264-76.7488 108.694-76.7488L91.7019-76.7488Q84.1704-76.7488 80.0716-72.7326Q75.9727-68.7164 75.9727-61.4006L75.9727 9.00071Q75.9727 16.2738 80.0716 20.309Q84.1704 24.3443 91.7019 24.3443ZM151.604 24.3443L168.583 24.3443Q176.166 24.3443 180.239 20.309Q184.312 16.2738 184.312 9.00071L184.312-79.7727Q184.312-87.0213 180.239-91.0565Q176.166-95.0917 168.583-95.0917L151.604-95.0917Q144.059-95.0917 139.986-91.0565Q135.913-87.0213 135.913-79.7435L135.913 9.00071Q135.913 16.2738 139.986 20.309Q144.059 24.3443 151.604 24.3443Z"/>
  </g>
  <g id="Semibold-L" transform="matrix(1 0 0 1 1945.23 1556)">
   <path d="M30.5768 23.9142L48.2674 23.9142Q55.3467 23.9142 59.0752 20.2478Q62.8038 16.5814 62.8038 9.77509L62.8038-44.069Q62.8038-50.8504 59.0752-54.5077Q55.3467-58.1649 48.2674-58.1649L30.5768-58.1649Q23.5411-58.1649 19.8125-54.5077Q16.084-50.8504 16.084-44.0505L16.084 9.77509Q16.084 16.5814 19.8125 20.2478Q23.5411 23.9142 30.5768 23.9142ZM89.1821 23.9142L106.891 23.9142Q113.952 23.9142 117.69 20.2478Q121.427 16.5814 121.427 9.77509L121.427-62.3744Q121.427-69.1997 117.69-72.8443Q113.952-76.4889 106.891-76.4889L89.1821-76.4889Q82.1647-76.4889 78.4052-72.8443Q74.6457-69.1997 74.6457-62.3558L74.6457 9.77509Q74.6457 16.5814 78.4052 20.2478Q82.1647 23.9142 89.1821 23.9142ZM147.762 23.9142L165.453 23.9142Q172.532 23.9142 176.261 20.2478Q179.989 16.5814 179.989 9.77509L179.989-80.7231Q179.989-87.5048 176.261-91.1712Q172.532-94.8375 165.453-94.8375L147.762-94.8375Q140.726-94.8375 136.998-91.1712Q133.27-87.5048 133.27-80.7045L133.27 9.77509Q133.27 16.5814 136.998 20.2478Q140.726 23.9142 147.762 23.9142Z"/>
  </g>
  <g id="Medium-L" transform="matrix(1 0 0 1 1650.16 1556)">
   <path d="M29.6682 23.588L47.8984 23.588Q54.5959 23.588 58.0631 20.2013Q61.5302 16.8146 61.5302 10.3622L61.5302-44.8574Q61.5302-51.2848 58.0631-54.6604Q54.5959-58.0359 47.8984-58.0359L29.6682-58.0359Q23.0184-58.0359 19.5512-54.6604Q16.084-51.2848 16.084-44.8469L16.084 10.3622Q16.084 16.8146 19.5512 20.2013Q23.0184 23.588 29.6682 23.588ZM87.2714 23.588L105.524 23.588Q112.199 23.588 115.677 20.2013Q119.156 16.8146 119.156 10.3622L119.156-63.0907Q119.156-69.5661 115.677-72.929Q112.199-76.2918 105.524-76.2918L87.2714-76.2918Q80.6438-76.2918 77.1417-72.929Q73.6395-69.5661 73.6395-63.0802L73.6395 10.3622Q73.6395 16.8146 77.1417 20.2013Q80.6438 23.588 87.2714 23.588ZM144.85 23.588L163.08 23.588Q169.777 23.588 173.244 20.2013Q176.712 16.8146 176.712 10.3622L176.712-81.4436Q176.712-87.8714 173.244-91.2581Q169.777-94.6448 163.08-94.6448L144.85-94.6448Q138.199-94.6448 134.732-91.2581Q131.265-87.8714 131.265-81.4331L131.265 10.3622Q131.265 16.8146 134.732 20.2013Q138.199 23.588 144.85 23.588Z"/>
  </g>
  <g id="Regular-L" transform="matrix(1 0 0 1 1355.58 1556)">
   <path d="M28.4831 23.1627L47.417 23.1627Q53.6166 23.1627 56.7429 20.1408Q59.8692 17.1189 59.8692 11.1281L59.8692-45.8857Q59.8692-51.8513 56.7429-54.8595Q53.6166-57.8677 47.417-57.8677L28.4831-57.8677Q22.3366-57.8677 19.2103-54.8595Q16.084-51.8513 16.084-45.8857L16.084 11.1281Q16.084 17.1189 19.2103 20.1408Q22.3366 23.1627 28.4831 23.1627ZM84.7792 23.1627L103.741 23.1627Q109.913 23.1627 113.053 20.1408Q116.193 17.1189 116.193 11.1281L116.193-64.0249Q116.193-70.044 113.053-73.0394Q109.913-76.0348 103.741-76.0348L84.7792-76.0348Q78.6601-76.0348 75.4936-73.0394Q72.3271-70.044 72.3271-64.0249L72.3271 11.1281Q72.3271 17.1189 75.4936 20.1408Q78.6601 23.1627 84.7792 23.1627ZM141.05 23.1627L159.984 23.1627Q166.184 23.1627 169.31 20.1408Q172.436 17.1189 172.436 11.1281L172.436-82.3835Q172.436-88.3496 169.31-91.3715Q166.184-94.3934 159.984-94.3934L141.05-94.3934Q134.903-94.3934 131.777-91.3715Q128.651-88.3496 128.651-82.3835L128.651 11.1281Q128.651 17.1189 131.777 20.1408Q134.903 23.1627 141.05 23.1627Z"/>
  </g>
  <g id="Light-L" transform="matrix(1 0 0 1 1060.2 1556)">
   <path d="M27.6052 23.0289L46.7298 23.0289Q52.4904 23.0289 55.3878 20.1693Q58.2851 17.3097 58.2851 11.6245L58.2851-46.4965Q58.2851-52.1948 55.3878-55.0312Q52.4904-57.8677 46.7298-57.8677L27.6052-57.8677Q21.8787-57.8677 18.9813-55.0312Q16.084-52.1948 16.084-46.4965L16.084 11.6245Q16.084 17.3097 18.9813 20.1693Q21.8787 23.0289 27.6052 23.0289ZM83.3478 23.0289L102.52 23.0289Q108.233 23.0289 111.154 20.1693Q114.074 17.3097 114.074 11.6245L114.074-64.4447Q114.074-70.1777 111.154-73.0203Q108.233-75.8629 102.52-75.8629L83.3478-75.8629Q77.6677-75.8629 74.7301-73.0203Q71.7926-70.1777 71.7926-64.4447L71.7926 11.6245Q71.7926 17.3097 74.7301 20.1693Q77.6677 23.0289 83.3478 23.0289ZM139.104 23.0289L158.228 23.0289Q163.989 23.0289 166.886 20.1693Q169.784 17.3097 169.784 11.6245L169.784-82.708Q169.784-88.407 166.886-91.2666Q163.989-94.1263 158.228-94.1263L139.104-94.1263Q133.376-94.1263 130.479-91.2666Q127.582-88.407 127.582-82.708L127.582 11.6245Q127.582 17.3097 130.479 20.1693Q133.376 23.0289 139.104 23.0289Z"/>
  </g>
  <g id="Thin-L" transform="matrix(1 0 0 1 765.243 1556)">
   <path d="M26.444 22.8521L45.821 22.8521Q51.001 22.8521 53.5956 20.2071Q56.1901 17.562 56.1901 12.281L56.1901-47.3044Q56.1901-52.649 53.5956-55.2583Q51.001-57.8677 45.821-57.8677L26.444-57.8677Q21.2731-57.8677 18.6785-55.2583Q16.084-52.649 16.084-47.3044L16.084 12.281Q16.084 17.562 18.6785 20.2071Q21.2731 22.8521 26.444 22.8521ZM81.4547 22.8521L100.904 22.8521Q106.012 22.8521 108.642 20.2071Q111.272 17.562 111.272 12.281L111.272-64.9998Q111.272-70.3546 108.642-72.9951Q106.012-75.6356 100.904-75.6356L81.4547-75.6356Q76.3551-75.6356 73.7204-72.9951Q71.0856-70.3546 71.0856-64.9998L71.0856 12.281Q71.0856 17.562 73.7204 20.2071Q76.3551 22.8521 81.4547 22.8521ZM136.529 22.8521L155.906 22.8521Q161.086 22.8521 163.68 20.2071Q166.275 17.562 166.275 12.281L166.275-83.1372Q166.275-88.4829 163.68-91.128Q161.086-93.773 155.906-93.773L136.529-93.773Q131.357-93.773 128.763-91.128Q126.169-88.4829 126.169-83.1372L126.169 12.281Q126.169 17.562 128.763 20.2071Q131.357 22.8521 136.529 22.8521Z"/>
  </g>
  <g id="Ultralight-L" transform="matrix(1 0 0 1 469.43 1556)">
   <path d="M25.8493 22.7615L45.3555 22.7615Q50.2382 22.7615 52.6776 20.2264Q55.117 17.6913 55.117 12.6172L55.117-47.7182Q55.117-52.8816 52.6776-55.3747Q50.2382-57.8677 45.3555-57.8677L25.8493-57.8677Q20.9629-57.8677 18.5234-55.3747Q16.084-52.8816 16.084-47.7182L16.084 12.6172Q16.084 17.6913 18.5234 20.2264Q20.9629 22.7615 25.8493 22.7615ZM80.485 22.7615L100.077 22.7615Q104.874 22.7615 107.355 20.2264Q109.837 17.6913 109.837 12.6172L109.837-65.2841Q109.837-70.4452 107.355-72.9822Q104.874-75.5192 100.077-75.5192L80.485-75.5192Q75.6828-75.5192 73.2032-72.9822Q70.7235-70.4452 70.7235-65.2841L70.7235 12.6172Q70.7235 17.6913 73.2032 20.2264Q75.6828 22.7615 80.485 22.7615ZM135.21 22.7615L154.716 22.7615Q159.599 22.7615 162.038 20.2264Q164.478 17.6913 164.478 12.6172L164.478-83.357Q164.478-88.5218 162.038-91.0569Q159.599-93.5921 154.716-93.5921L135.21-93.5921Q130.322-93.5921 127.884-91.0569Q125.445-88.5218 125.445-83.357L125.445 12.6172Q125.445 17.6913 127.884 20.2264Q130.322 22.7615 135.21 22.7615Z"/>
  </g>
  <g id="Black-M" transform="matrix(1 0 0 1 2849.21 1126)">
   <path d="M28.2044 12.274L39.1163 12.274Q46.4742 12.274 50.6697 8.00684Q54.8653 3.73965 54.8653-3.30473L54.8653-38.1086Q54.8653-45.1472 50.6697-49.4145Q46.4742-53.6818 39.1163-53.6818L28.2044-53.6818Q20.852-53.6818 16.6565-49.4145Q12.4609-45.1472 12.4609-38.0515L12.4609-3.30473Q12.4609 3.73965 16.6565 8.00684Q20.852 12.274 28.2044 12.274ZM78.7296 12.274L89.6412 12.274Q96.9993 12.274 101.195 8.00684Q105.39 3.73965 105.39-3.30473L105.39-52.6075Q105.39-59.6516 101.195-63.9161Q96.9993-68.1805 89.6412-68.1805L78.7296-68.1805Q71.3769-68.1805 67.1787-63.9161Q62.9806-59.6516 62.9806-52.5504L62.9806-3.30473Q62.9806 3.73965 67.1787 8.00684Q71.3769 12.274 78.7296 12.274ZM129.249 12.274L140.161 12.274Q147.519 12.274 151.714 8.00684Q155.91 3.73965 155.91-3.30473L155.91-66.7677Q155.91-73.8063 151.714-78.0735Q147.519-82.3407 140.161-82.3407L129.249-82.3407Q121.897-82.3407 117.701-78.0735Q113.505-73.8063 113.505-66.7106L113.505-3.30473Q113.505 3.73965 117.701 8.00684Q121.897 12.274 129.249 12.274Z"/>
  </g>
  <g id="Heavy-M" transform="matrix(1 0 0 1 2554.96 1126)">
   <path d="M26.8741 11.7575L38.647 11.7575Q45.4609 11.7575 49.2687 7.92307Q53.0765 4.0886 53.0765-2.42974L53.0765-39.2953Q53.0765-45.7995 49.2687-49.6329Q45.4609-53.4662 38.647-53.4662L26.8741-53.4662Q20.0765-53.4662 16.2687-49.6329Q12.4609-45.7995 12.4609-39.2517L12.4609-2.42974Q12.4609 4.0886 16.2687 7.92307Q20.0765 11.7575 26.8741 11.7575ZM75.8429 11.7575L87.618 11.7575Q94.4297 11.7575 98.2386 7.92307Q102.048 4.0886 102.048-2.42974L102.048-53.7148Q102.048-60.2355 98.2386-64.0617Q94.4297-67.888 87.618-67.888L75.8429-67.888Q69.0476-67.888 65.2304-64.0617Q61.4133-60.2355 61.4133-53.6712L61.4133-2.42974Q61.4133 4.0886 65.2304 7.92307Q69.0476 11.7575 75.8429 11.7575ZM124.797 11.7575L136.57 11.7575Q143.384 11.7575 147.192 7.92307Q151 4.0886 151-2.42974L151-67.9027Q151-74.4069 147.192-78.2414Q143.384-82.0759 136.57-82.0759L124.797-82.0759Q118-82.0759 114.192-78.2414Q110.384-74.4069 110.384-67.8591L110.384-2.42974Q110.384 4.0886 114.192 7.92307Q118 11.7575 124.797 11.7575Z"/>
  </g>
  <g id="Bold-M" transform="matrix(1 0 0 1 2260.99 1126)">
   <path d="M25.3859 11.1798L38.1219 11.1798Q44.3275 11.1798 47.7015 7.82937Q51.0755 4.47896 51.0755-1.45095L51.0755-40.6229Q51.0755-46.5293 47.7015-49.8772Q44.3275-53.225 38.1219-53.225L25.3859-53.225Q19.209-53.225 15.835-49.8772Q12.4609-46.5293 12.4609-40.5943L12.4609-1.45095Q12.4609 4.47896 15.835 7.82937Q19.209 11.1798 25.3859 11.1798ZM72.6136 11.1798L85.3548 11.1798Q91.5552 11.1798 94.9318 7.82937Q98.3084 4.47896 98.3084-1.45095L98.3084-54.9534Q98.3084-60.8886 94.9318-64.2247Q91.5552-67.5608 85.3548-67.5608L72.6136-67.5608Q66.4419-67.5608 63.0509-64.2247Q59.66-60.8886 59.66-54.9249L59.66-1.45095Q59.66 4.47896 63.0509 7.82937Q66.4419 11.1798 72.6136 11.1798ZM119.818 11.1798L132.554 11.1798Q138.759 11.1798 142.134 7.82937Q145.508 4.47896 145.508-1.45095L145.508-69.1723Q145.508-75.0788 142.134-78.4292Q138.759-81.7796 132.554-81.7796L119.818-81.7796Q113.641-81.7796 110.267-78.4292Q106.893-75.0788 106.893-69.1437L106.893-1.45095Q106.893 4.47896 110.267 7.82937Q113.641 11.1798 119.818 11.1798Z"/>
  </g>
  <g id="Semibold-M" transform="matrix(1 0 0 1 1966.18 1126)">
   <path d="M24.36 10.7815L37.76 10.7815Q43.5461 10.7815 46.6211 7.76478Q49.6961 4.74807 49.6961-0.776171L49.6961-41.5381Q49.6961-47.0324 46.6211-50.0456Q43.5461-53.0588 37.76-53.0588L24.36-53.0588Q18.611-53.0588 15.5359-50.0456Q12.4609-47.0324 12.4609-41.5199L12.4609-0.776171Q12.4609 4.74807 15.5359 7.76478Q18.611 10.7815 24.36 10.7815ZM70.3875 10.7815L83.7946 10.7815Q89.5736 10.7815 92.6521 7.76478Q95.7306 4.74807 95.7306-0.776171L95.7306-55.8073Q95.7306-61.3389 92.6521-64.337Q89.5736-67.3352 83.7946-67.3352L70.3875-67.3352Q64.6455-67.3352 61.5484-64.337Q58.4513-61.3389 58.4513-55.7892L58.4513-0.776171Q58.4513 4.74807 61.5484 7.76478Q64.6455 10.7815 70.3875 10.7815ZM116.385 10.7815L129.785 10.7815Q135.571 10.7815 138.646 7.76478Q141.721 4.74807 141.721-0.776171L141.721-70.0475Q141.721-75.5419 138.646-78.5586Q135.571-81.5753 129.785-81.5753L116.385-81.5753Q110.636-81.5753 107.561-78.5586Q104.486-75.5419 104.486-70.0293L104.486-0.776171Q104.486 4.74807 107.561 7.76478Q110.636 10.7815 116.385 10.7815Z"/>
  </g>
  <g id="Medium-M" transform="matrix(1 0 0 1 1670.9 1126)">
   <path d="M23.582 10.4795L37.4855 10.4795Q42.9536 10.4795 45.8018 7.7158Q48.6501 4.95212 48.6501-0.264528L48.6501-42.2321Q48.6501-47.4139 45.8018-50.1733Q42.9536-52.9327 37.4855-52.9327L23.582-52.9327Q18.1575-52.9327 15.3092-50.1733Q12.4609-47.4139 12.4609-42.2218L12.4609-0.264528Q12.4609 4.95212 15.3092 7.7158Q18.1575 10.4795 23.582 10.4795ZM68.6995 10.4795L82.6116 10.4795Q88.071 10.4795 90.9235 7.7158Q93.7761 4.95212 93.7761-0.264528L93.7761-56.4548Q93.7761-61.6803 90.9235-64.4222Q88.071-67.1641 82.6116-67.1641L68.6995-67.1641Q63.2834-67.1641 60.4091-64.4222Q57.5349-61.6803 57.5349-56.4445L57.5349-0.264528Q57.5349 4.95212 60.4091 7.7158Q63.2834 10.4795 68.6995 10.4795ZM113.782 10.4795L127.686 10.4795Q133.154 10.4795 136.002 7.7158Q138.85 4.95212 138.85-0.264528L138.85-70.7111Q138.85-75.8931 136.002-78.6568Q133.154-81.4205 127.686-81.4205L113.782-81.4205Q108.357-81.4205 105.509-78.6568Q102.661-75.8931 102.661-70.7009L102.661-0.264528Q102.661 4.95212 105.509 7.7158Q108.357 10.4795 113.782 10.4795Z"/>
  </g>
  <g id="Regular-M" transform="matrix(1 0 0 1 1376.06 1126)">
   <path d="M22.5674 10.0856L37.1275 10.0856Q42.1807 10.0856 44.7333 7.65191Q47.2858 5.21827 47.2858 0.402832L47.2858-43.1372Q47.2858-47.9114 44.7333-50.3399Q42.1807-52.7683 37.1275-52.7683L22.5674-52.7683Q17.566-52.7683 15.0135-50.3399Q12.4609-47.9114 12.4609-43.1372L12.4609 0.402832Q12.4609 5.21827 15.0135 7.65191Q17.566 10.0856 22.5674 10.0856ZM66.4977 10.0856L81.0685 10.0856Q86.1111 10.0856 88.6689 7.65191Q91.2266 5.21827 91.2266 0.402832L91.2266-57.2993Q91.2266-62.1256 88.6689-64.5333Q86.1111-66.941 81.0685-66.941L66.4977-66.941Q61.5068-66.941 58.9231-64.5333Q56.3395-62.1256 56.3395-57.2993L56.3395 0.402832Q56.3395 5.21827 58.9231 7.65191Q61.5068 10.0856 66.4977 10.0856ZM110.387 10.0856L124.947 10.0856Q130 10.0856 132.553 7.65191Q135.105 5.21827 135.105 0.402832L135.105-71.5768Q135.105-76.3512 132.553-78.7848Q130-81.2184 124.947-81.2184L110.387-81.2184Q105.385-81.2184 102.833-78.7848Q100.28-76.3512 100.28-71.5768L100.28 0.402832Q100.28 5.21827 102.833 7.65191Q105.385 10.0856 110.387 10.0856Z"/>
  </g>
  <g id="Light-M" transform="matrix(1 0 0 1 1080.54 1126)">
   <path d="M21.7802 9.96567L36.5115 9.96567Q41.1711 9.96567 43.5184 7.6775Q45.8656 5.38932 45.8656 0.847858L45.8656-43.6849Q45.8656-48.2193 43.5184-50.4938Q41.1711-52.7683 36.5115-52.7683L21.7802-52.7683Q17.1555-52.7683 14.8082-50.4938Q12.4609-48.2193 12.4609-43.6849L12.4609 0.847858Q12.4609 5.38932 14.8082 7.6775Q17.1555 9.96567 21.7802 9.96567ZM65.2144 9.96567L79.9735 9.96567Q84.6053 9.96567 86.9662 7.6775Q89.3272 5.38932 89.3272 0.847858L89.3272-57.6756Q89.3272-62.2455 86.9662-64.5162Q84.6053-66.7869 79.9735-66.7869L65.2144-66.7869Q60.6171-66.7869 58.2386-64.5162Q55.8602-62.2455 55.8602-57.6756L55.8602 0.847858Q55.8602 5.38932 58.2386 7.6775Q60.6171 9.96567 65.2144 9.96567ZM108.642 9.96567L123.373 9.96567Q128.032 9.96567 130.38 7.6775Q132.727 5.38932 132.727 0.847858L132.727-71.8677Q132.727-76.4026 130.38-78.6908Q128.032-80.979 123.373-80.979L108.642-80.979Q104.016-80.979 101.669-78.6908Q99.3223-76.4026 99.3223-71.8677L99.3223 0.847858Q99.3223 5.38932 101.669 7.6775Q104.016 9.96567 108.642 9.96567Z"/>
  </g>
  <g id="Thin-M" transform="matrix(1 0 0 1 785.401 1126)">
   <path d="M20.7392 9.80712L35.6966 9.80712Q39.8358 9.80712 41.9116 7.71134Q43.9873 5.61555 43.9873 1.43644L43.9873-44.4092Q43.9873-48.6266 41.9116-50.6974Q39.8358-52.7683 35.6966-52.7683L20.7392-52.7683Q16.6125-52.7683 14.5367-50.6974Q12.4609-48.6266 12.4609-44.4092L12.4609 1.43644Q12.4609 5.61555 14.5367 7.71134Q16.6125 9.80712 20.7392 9.80712ZM63.5171 9.80712L78.5252 9.80712Q82.6137 9.80712 84.7144 7.71134Q86.8151 5.61555 86.8151 1.43644L86.8151-58.1734Q86.8151-62.404 84.7144-64.4936Q82.6137-66.5831 78.5252-66.5831L63.5171-66.5831Q59.4403-66.5831 57.3333-64.4936Q55.2264-62.404 55.2264-58.1734L55.2264 1.43644Q55.2264 5.61555 57.3333 7.71134Q59.4403 9.80712 63.5171 9.80712ZM106.333 9.80712L121.291 9.80712Q125.43 9.80712 127.506 7.71134Q129.581 5.61555 129.581 1.43644L129.581-72.2525Q129.581-76.4707 127.506-78.5665Q125.43-80.6622 121.291-80.6622L106.333-80.6622Q102.206-80.6622 100.13-78.5665Q98.055-76.4707 98.055-72.2525L98.055 1.43644Q98.055 5.61555 100.13 7.71134Q102.206 9.80712 106.333 9.80712Z"/>
  </g>
  <g id="Ultralight-M" transform="matrix(1 0 0 1 489.496 1126)">
   <path d="M20.206 9.72591L35.2793 9.72591Q39.1518 9.72591 41.0886 7.72867Q43.0253 5.73143 43.0253 1.73791L43.0253-44.7802Q43.0253-48.8351 41.0886-50.8017Q39.1518-52.7683 35.2793-52.7683L20.206-52.7683Q16.3344-52.7683 14.3977-50.8017Q12.4609-48.8351 12.4609-44.7802L12.4609 1.73791Q12.4609 5.73143 14.3977 7.72867Q16.3344 9.72591 20.206 9.72591ZM62.6477 9.72591L77.7834 9.72591Q81.5936 9.72591 83.561 7.72867Q85.5284 5.73143 85.5284 1.73791L85.5284-58.4283Q85.5284-62.4852 83.561-64.482Q81.5936-66.4787 77.7834-66.4787L62.6477-66.4787Q58.8375-66.4787 56.8696-64.482Q54.9017-62.4852 54.9017-58.4283L54.9017 1.73791Q54.9017 5.73143 56.8696 7.72867Q58.8375 9.72591 62.6477 9.72591ZM105.151 9.72591L120.224 9.72591Q124.097 9.72591 126.034 7.72867Q127.97 5.73143 127.97 1.73791L127.97-72.4496Q127.97-76.5055 126.034-78.5028Q124.097-80.5 120.224-80.5L105.151-80.5Q101.278-80.5 99.3421-78.5028Q97.4059-76.5055 97.4059-72.4496L97.4059 1.73791Q97.4059 5.73143 99.3421 7.72867Q101.278 9.72591 105.151 9.72591Z"/>
  </g>
  <g id="Black-S" transform="matrix(1 0 0 1 2866.75 696)">
   <path d="M22.4609 2.14844L30.7617 2.14844Q36.6699 2.14844 40.0635-1.31836Q43.457-4.78516 43.457-10.4492L43.457-37.1582Q43.457-42.8223 40.0635-46.2891Q36.6699-49.7559 30.7617-49.7559L22.4609-49.7559Q16.5527-49.7559 13.1592-46.2891Q9.76562-42.8223 9.76562-37.1094L9.76562-10.4492Q9.76562-4.78516 13.1592-1.31836Q16.5527 2.14844 22.4609 2.14844ZM62.5 2.14844L70.8008 2.14844Q76.709 2.14844 80.1025-1.31836Q83.4961-4.78516 83.4961-10.4492L83.4961-48.5352Q83.4961-54.1992 80.1025-57.666Q76.709-61.1328 70.8008-61.1328L62.5-61.1328Q56.5918-61.1328 53.1982-57.666Q49.8047-54.1992 49.8047-48.4863L49.8047-10.4492Q49.8047-4.78516 53.1982-1.31836Q56.5918 2.14844 62.5 2.14844ZM102.539 2.14844L110.84 2.14844Q116.748 2.14844 120.142-1.31836Q123.535-4.78516 123.535-10.4492L123.535-59.6191Q123.535-65.2832 120.142-68.75Q116.748-72.2168 110.84-72.2168L102.539-72.2168Q96.6309-72.2168 93.2373-68.75Q89.8438-65.2832 89.8438-59.5703L89.8438-10.4492Q89.8438-4.78516 93.2373-1.31836Q96.6309 2.14844 102.539 2.14844Z"/>
  </g>
  <g id="Heavy-S" transform="matrix(1 0 0 1 2571.99 696)">
   <path d="M21.4237 1.72203L30.439 1.72203Q35.9324 1.72203 39.0205-1.39327Q42.1087-4.50857 42.1087-9.75775L42.1087-38.1032Q42.1087-43.3409 39.0205-46.4562Q35.9324-49.5715 30.439-49.5715L21.4237-49.5715Q15.9419-49.5715 12.8538-46.4562Q9.76562-43.3409 9.76562-38.0659L9.76562-9.75775Q9.76562-4.50857 12.8538-1.39327Q15.9419 1.72203 21.4237 1.72203ZM60.1951 1.72203L69.2104 1.72203Q74.7037 1.72203 77.7919-1.39327Q80.88-4.50857 80.88-9.75775L80.88-49.4341Q80.88-54.6832 77.7919-57.7928Q74.7037-60.9023 69.2104-60.9023L60.1951-60.9023Q54.7133-60.9023 51.6194-57.7928Q48.5255-54.6832 48.5255-49.3968L48.5255-9.75775Q48.5255-4.50857 51.6194-1.39327Q54.7133 1.72203 60.1951 1.72203ZM98.955 1.72203L107.97 1.72203Q113.464 1.72203 116.552-1.39327Q119.64-4.50857 119.64-9.75775L119.64-60.5526Q119.64-65.7903 116.552-68.9056Q113.464-72.0209 107.97-72.0209L98.955-72.0209Q93.4732-72.0209 90.385-68.9056Q87.2968-65.7903 87.2968-60.5153L87.2968-9.75775Q87.2968-4.50857 90.385-1.39327Q93.4732 1.72203 98.955 1.72203Z"/>
  </g>
  <g id="Bold-S" transform="matrix(1 0 0 1 2277.45 696)">
   <path d="M20.2637 1.24512L30.0781 1.24512Q35.1074 1.24512 37.854-1.47705Q40.6006-4.19922 40.6006-8.98438L40.6006-39.1602Q40.6006-43.9209 37.854-46.6431Q35.1074-49.3652 30.0781-49.3652L20.2637-49.3652Q15.2588-49.3652 12.5122-46.6431Q9.76562-43.9209 9.76562-39.1357L9.76562-8.98438Q9.76562-4.19922 12.5122-1.47705Q15.2588 1.24512 20.2637 1.24512ZM57.6172 1.24512L67.4316 1.24512Q72.4609 1.24512 75.2075-1.47705Q77.9541-4.19922 77.9541-8.98438L77.9541-50.4395Q77.9541-55.2246 75.2075-57.9346Q72.4609-60.6445 67.4316-60.6445L57.6172-60.6445Q52.6123-60.6445 49.8535-57.9346Q47.0947-55.2246 47.0947-50.415L47.0947-8.98438Q47.0947-4.19922 49.8535-1.47705Q52.6123 1.24512 57.6172 1.24512ZM94.9463 1.24512L104.761 1.24512Q109.79 1.24512 112.537-1.47705Q115.283-4.19922 115.283-8.98438L115.283-61.5967Q115.283-66.3574 112.537-69.0796Q109.79-71.8018 104.761-71.8018L94.9463-71.8018Q89.9414-71.8018 87.1948-69.0796Q84.4482-66.3574 84.4482-61.5723L84.4482-8.98438Q84.4482-4.19922 87.1948-1.47705Q89.9414 1.24512 94.9463 1.24512Z"/>
  </g>
  <g id="Semibold-S" transform="matrix(1 0 0 1 1982.24 696)">
   <path d="M19.4639 0.916309L29.8293 0.916309Q34.5387 0.916309 37.0498-1.53481Q39.5608-3.98594 39.5608-8.45117L39.5608-39.8889Q39.5608-44.3208 37.0498-46.7719Q34.5387-49.223 29.8293-49.223L19.4639-49.223Q14.7878-49.223 12.2767-46.7719Q9.76562-44.3208 9.76562-39.8733L9.76562-8.45117Q9.76562-3.98594 12.2767-1.53481Q14.7878 0.916309 19.4639 0.916309ZM55.8398 0.916309L66.2053 0.916309Q70.9146 0.916309 73.4257-1.53481Q75.9368-3.98594 75.9368-8.45117L75.9368-51.1326Q75.9368-55.5979 73.4257-58.0323Q70.9146-60.4668 66.2053-60.4668L55.8398-60.4668Q51.1638-60.4668 48.636-58.0323Q46.1083-55.5979 46.1083-51.1171L46.1083-8.45117Q46.1083-3.98594 48.636-1.53481Q51.1638 0.916309 55.8398 0.916309ZM92.1825 0.916309L102.548 0.916309Q107.257 0.916309 109.768-1.53481Q112.279-3.98594 112.279-8.45117L112.279-62.3165Q112.279-66.7484 109.768-69.1996Q107.257-71.6507 102.548-71.6507L92.1825-71.6507Q87.5064-71.6507 84.9954-69.1996Q82.4843-66.7484 82.4843-62.301L82.4843-8.45117Q82.4843-3.98594 84.9954-1.53481Q87.5064 0.916309 92.1825 0.916309Z"/>
  </g>
  <g id="Medium-S" transform="matrix(1 0 0 1 1686.67 696)">
   <path d="M18.8574 0.666992L29.6406 0.666992Q34.1074 0.666992 36.4399-1.57861Q38.7725-3.82422 38.7725-8.04688L38.7725-40.4414Q38.7725-44.624 36.4399-46.8696Q34.1074-49.1152 29.6406-49.1152L18.8574-49.1152Q14.4307-49.1152 12.0981-46.8696Q9.76562-44.624 9.76562-40.4326L9.76562-8.04688Q9.76562-3.82422 12.0981-1.57861Q14.4307 0.666992 18.8574 0.666992ZM54.4922 0.666992L65.2754 0.666992Q69.7422 0.666992 72.0747-1.57861Q74.4072-3.82422 74.4072-8.04688L74.4072-51.6582Q74.4072-55.8809 72.0747-58.1064Q69.7422-60.332 65.2754-60.332L54.4922-60.332Q50.0654-60.332 47.7129-58.1064Q45.3604-55.8809 45.3604-51.6494L45.3604-8.04688Q45.3604-3.82422 47.7129-1.57861Q50.0654 0.666992 54.4922 0.666992ZM90.0869 0.666992L100.87 0.666992Q105.337 0.666992 107.669-1.57861Q110.002-3.82422 110.002-8.04688L110.002-62.8623Q110.002-67.0449 107.669-69.2905Q105.337-71.5361 100.87-71.5361L90.0869-71.5361Q85.6602-71.5361 83.3276-69.2905Q80.9951-67.0449 80.9951-62.8535L80.9951-8.04688Q80.9951-3.82422 83.3276-1.57861Q85.6602 0.666992 90.0869 0.666992Z"/>
  </g>
  <g id="Regular-S" transform="matrix(1 0 0 1 1391.45 696)">
   <path d="M18.0664 0.341797L29.3945 0.341797Q33.5449 0.341797 35.6445-1.63574Q37.7441-3.61328 37.7441-7.51953L37.7441-41.1621Q37.7441-45.0195 35.6445-46.9971Q33.5449-48.9746 29.3945-48.9746L18.0664-48.9746Q13.9648-48.9746 11.8652-46.9971Q9.76562-45.0195 9.76562-41.1621L9.76562-7.51953Q9.76562-3.61328 11.8652-1.63574Q13.9648 0.341797 18.0664 0.341797ZM52.7344 0.341797L64.0625 0.341797Q68.2129 0.341797 70.3125-1.63574Q72.4121-3.61328 72.4121-7.51953L72.4121-52.3438Q72.4121-56.25 70.3125-58.2031Q68.2129-60.1562 64.0625-60.1562L52.7344-60.1562Q48.6328-60.1562 46.5088-58.2031Q44.3848-56.25 44.3848-52.3438L44.3848-7.51953Q44.3848-3.61328 46.5088-1.63574Q48.6328 0.341797 52.7344 0.341797ZM87.3535 0.341797L98.6816 0.341797Q102.832 0.341797 104.932-1.63574Q107.031-3.61328 107.031-7.51953L107.031-63.5742Q107.031-67.4316 104.932-69.4092Q102.832-71.3867 98.6816-71.3867L87.3535-71.3867Q83.252-71.3867 81.1523-69.4092Q79.0527-67.4316 79.0527-63.5742L79.0527-7.51953Q79.0527-3.61328 81.1523-1.63574Q83.252 0.341797 87.3535 0.341797Z"/>
  </g>
  <g id="Light-S" transform="matrix(1 0 0 1 1095.79 696)">
   <path d="M17.3701 0.235748L28.8495 0.235748Q32.6518 0.235748 34.5698-1.61311Q36.4878-3.46196 36.4878-7.12585L36.4878-41.6466Q36.4878-45.2919 34.5698-47.1333Q32.6518-48.9746 28.8495-48.9746L17.3701-48.9746Q13.6017-48.9746 11.6837-47.1333Q9.76562-45.2919 9.76562-41.6466L9.76562-7.12585Q9.76562-3.46196 11.6837-1.61311Q13.6017 0.235748 17.3701 0.235748ZM51.5991 0.235748L63.0938 0.235748Q66.8808 0.235748 68.8063-1.61311Q70.7319-3.46196 70.7319-7.12585L70.7319-52.6766Q70.7319-56.356 68.8063-58.188Q66.8808-60.0199 63.0938-60.0199L51.5991-60.0199Q47.8457-60.0199 45.9033-58.188Q43.9608-56.356 43.9608-52.6766L43.9608-7.12585Q43.9608-3.46196 45.9033-1.61311Q47.8457 0.235748 51.5991 0.235748ZM85.8096 0.235748L97.289 0.235748Q101.091 0.235748 103.009-1.61311Q104.927-3.46196 104.927-7.12585L104.927-63.8316Q104.927-67.4772 103.009-69.326Q101.091-71.1749 97.289-71.1749L85.8096-71.1749Q82.0409-71.1749 80.123-69.326Q78.2051-67.4772 78.2051-63.8316L78.2051-7.12585Q78.2051-3.46196 80.123-1.61311Q82.0409 0.235748 85.8096 0.235748Z"/>
  </g>
  <g id="Thin-S" transform="matrix(1 0 0 1 800.467 696)">
   <path d="M16.4492 0.0954905L28.1287 0.0954905Q31.4705 0.0954905 33.1484-1.58317Q34.8263-3.26184 34.8263-6.60519L34.8263-42.2873Q34.8263-45.6521 33.1484-47.3134Q31.4705-48.9746 28.1287-48.9746L16.4492-48.9746Q13.1214-48.9746 11.4435-47.3134Q9.76562-45.6521 9.76562-42.2873L9.76562-6.60519Q9.76562-3.26184 11.4435-1.58317Q13.1214 0.0954905 16.4492 0.0954905ZM50.0977 0.0954905L61.8127 0.0954905Q65.119 0.0954905 66.8143-1.58317Q68.5096-3.26184 68.5096-6.60519L68.5096-53.1169Q68.5096-56.4963 66.8143-58.168Q65.119-59.8397 61.8127-59.8397L50.0977-59.8397Q46.8047-59.8397 45.1024-58.168Q43.4001-56.4963 43.4001-53.1169L43.4001-6.60519Q43.4001-3.26184 45.1024-1.58317Q46.8047 0.0954905 50.0977 0.0954905ZM83.7676 0.0954905L95.4472 0.0954905Q98.7889 0.0954905 100.467-1.58317Q102.145-3.26184 102.145-6.60519L102.145-64.172Q102.145-67.5374 100.467-69.216Q98.7889-70.8947 95.4472-70.8947L83.7676-70.8947Q80.4392-70.8947 78.7616-69.216Q77.0841-67.5374 77.0841-64.172L77.0841-6.60519Q77.0841-3.26184 78.7616-1.58317Q80.4392 0.0954905 83.7676 0.0954905Z"/>
  </g>
  <g id="Ultralight-S" transform="matrix(1 0 0 1 504.469 696)">
   <path d="M15.9775 0.0236511L27.7596 0.0236511Q30.8655 0.0236511 32.4203-1.56784Q33.9752-3.15933 33.9752-6.3385L33.9752-42.6155Q33.9752-45.8366 32.4203-47.4056Q30.8655-48.9746 27.7596-48.9746L15.9775-48.9746Q12.8754-48.9746 11.3205-47.4056Q9.76562-45.8366 9.76562-42.6155L9.76562-6.3385Q9.76562-3.15933 11.3205-1.56784Q12.8754 0.0236511 15.9775 0.0236511ZM49.3286 0.0236511L61.1565 0.0236511Q64.2166 0.0236511 65.794-1.56784Q67.3714-3.15933 67.3714-6.3385L67.3714-53.3424Q67.3714-56.5681 65.794-58.1577Q64.2166-59.7473 61.1565-59.7473L49.3286-59.7473Q46.2715-59.7473 44.6922-58.1577Q43.1129-56.5681 43.1129-53.3424L43.1129-6.3385Q43.1129-3.15933 44.6922-1.56784Q46.2715 0.0236511 49.3286 0.0236511ZM82.7217 0.0236511L94.5038 0.0236511Q97.6097 0.0236511 99.1646-1.56784Q100.719-3.15933 100.719-6.3385L100.719-64.3463Q100.719-67.5682 99.1646-69.1597Q97.6097-70.7512 94.5038-70.7512L82.7217-70.7512Q79.6188-70.7512 78.0643-69.1597Q76.5099-67.5682 76.5099-64.3463L76.5099-6.3385Q76.5099-3.15933 78.0643-1.56784Q79.6188 0.0236511 82.7217 0.0236511Z"/>
  </g>
 </g>
</svg>
