<?xml version="1.0" encoding="UTF-8"?>
<!--Generator: Apple Native CoreSVG 175.5-->
<!DOCTYPE svg
PUBLIC "-//W3C//DTD SVG 1.1//EN"
       "http://www.w3.org/Graphics/SVG/1.1/DTD/svg11.dtd">
<svg version="1.1" xmlns="http://www.w3.org/2000/svg" xmlns:xlink="http://www.w3.org/1999/xlink" width="3300" height="2200">
 <!--glyph: "uni100309.medium", point size: 100.0, font version: "18.0d9e1", template writer version: "84"-->
 <g id="Notes">
  <rect height="2200" id="artboard" style="fill:white;opacity:1" width="3300" x="0" y="0"/>
  <line style="fill:none;stroke:black;opacity:1;stroke-width:0.5;" x1="263" x2="3036" y1="292" y2="292"/>
  <text style="stroke:none;fill:black;font-family:sans-serif;font-size:13;font-weight:bold;" transform="matrix(1 0 0 1 263 322)">Weight/Scale Variations</text>
  <text style="stroke:none;fill:black;font-family:sans-serif;font-size:13;text-anchor:middle;" transform="matrix(1 0 0 1 559.711 322)">Ultralight</text>
  <text style="stroke:none;fill:black;font-family:sans-serif;font-size:13;text-anchor:middle;" transform="matrix(1 0 0 1 856.422 322)">Thin</text>
  <text style="stroke:none;fill:black;font-family:sans-serif;font-size:13;text-anchor:middle;" transform="matrix(1 0 0 1 1153.13 322)">Light</text>
  <text style="stroke:none;fill:black;font-family:sans-serif;font-size:13;text-anchor:middle;" transform="matrix(1 0 0 1 1449.84 322)">Regular</text>
  <text style="stroke:none;fill:black;font-family:sans-serif;font-size:13;text-anchor:middle;" transform="matrix(1 0 0 1 1746.56 322)">Medium</text>
  <text style="stroke:none;fill:black;font-family:sans-serif;font-size:13;text-anchor:middle;" transform="matrix(1 0 0 1 2043.27 322)">Semibold</text>
  <text style="stroke:none;fill:black;font-family:sans-serif;font-size:13;text-anchor:middle;" transform="matrix(1 0 0 1 2339.98 322)">Bold</text>
  <text style="stroke:none;fill:black;font-family:sans-serif;font-size:13;text-anchor:middle;" transform="matrix(1 0 0 1 2636.69 322)">Heavy</text>
  <text style="stroke:none;fill:black;font-family:sans-serif;font-size:13;text-anchor:middle;" transform="matrix(1 0 0 1 2933.4 322)">Black</text>
  <line style="fill:none;stroke:black;opacity:1;stroke-width:0.5;" x1="263" x2="3036" y1="1903" y2="1903"/>
  <g transform="matrix(1 0 0 1 263 1933)">
   <path d="M9.24805 0.830078Q10.8691 0.830078 12.2949 0.214844Q13.7207-0.400391 14.8096-1.49414Q15.8984-2.58789 16.5186-4.01367Q17.1387-5.43945 17.1387-7.05078Q17.1387-8.66211 16.5186-10.0879Q15.8984-11.5137 14.8047-12.6074Q13.7109-13.7012 12.2852-14.3164Q10.8594-14.9316 9.23828-14.9316Q7.62695-14.9316 6.20117-14.3164Q4.77539-13.7012 3.69141-12.6074Q2.60742-11.5137 1.9873-10.0879Q1.36719-8.66211 1.36719-7.05078Q1.36719-5.43945 1.9873-4.01367Q2.60742-2.58789 3.69629-1.49414Q4.78516-0.400391 6.21094 0.214844Q7.63672 0.830078 9.24805 0.830078ZM9.24805-0.654297Q7.91992-0.654297 6.7627-1.14746Q5.60547-1.64062 4.73145-2.51953Q3.85742-3.39844 3.36426-4.56055Q2.87109-5.72266 2.87109-7.05078Q2.87109-8.37891 3.35938-9.54102Q3.84766-10.7031 4.72168-11.582Q5.5957-12.4609 6.75293-12.9541Q7.91016-13.4473 9.23828-13.4473Q10.5762-13.4473 11.7383-12.9541Q12.9004-12.4609 13.7793-11.582Q14.6582-10.7031 15.1514-9.54102Q15.6445-8.37891 15.6445-7.05078Q15.6445-5.72266 15.1514-4.56055Q14.6582-3.39844 13.7793-2.51953Q12.9004-1.64062 11.7432-1.14746Q10.5859-0.654297 9.24805-0.654297ZM5.6543-7.05078Q5.6543-6.72852 5.85938-6.52832Q6.06445-6.32812 6.40625-6.32812L8.51562-6.32812L8.51562-4.20898Q8.51562-3.88672 8.71094-3.67676Q8.90625-3.4668 9.23828-3.4668Q9.56055-3.4668 9.77051-3.67676Q9.98047-3.88672 9.98047-4.20898L9.98047-6.32812L12.0898-6.32812Q12.4219-6.32812 12.627-6.52832Q12.832-6.72852 12.832-7.05078Q12.832-7.38281 12.627-7.58789Q12.4219-7.79297 12.0898-7.79297L9.98047-7.79297L9.98047-9.90234Q9.98047-10.2344 9.77051-10.4443Q9.56055-10.6543 9.23828-10.6543Q8.90625-10.6543 8.71094-10.4443Q8.51562-10.2344 8.51562-9.90234L8.51562-7.79297L6.40625-7.79297Q6.06445-7.79297 5.85938-7.58789Q5.6543-7.38281 5.6543-7.05078Z"/>
  </g>
  <g transform="matrix(1 0 0 1 281.867 1933)">
   <path d="M11.709 2.91016Q13.75 2.91016 15.5518 2.12891Q17.3535 1.34766 18.7305-0.0292969Q20.1074-1.40625 20.8887-3.20801Q21.6699-5.00977 21.6699-7.05078Q21.6699-9.0918 20.8887-10.8936Q20.1074-12.6953 18.7305-14.0723Q17.3535-15.4492 15.5469-16.2305Q13.7402-17.0117 11.6992-17.0117Q9.6582-17.0117 7.85645-16.2305Q6.05469-15.4492 4.68262-14.0723Q3.31055-12.6953 2.5293-10.8936Q1.74805-9.0918 1.74805-7.05078Q1.74805-5.00977 2.5293-3.20801Q3.31055-1.40625 4.6875-0.0292969Q6.06445 1.34766 7.86621 2.12891Q9.66797 2.91016 11.709 2.91016ZM11.709 1.25Q9.98047 1.25 8.47656 0.605469Q6.97266-0.0390625 5.83496-1.17676Q4.69727-2.31445 4.05762-3.81836Q3.41797-5.32227 3.41797-7.05078Q3.41797-8.7793 4.05762-10.2832Q4.69727-11.7871 5.83008-12.9297Q6.96289-14.0723 8.4668-14.7119Q9.9707-15.3516 11.6992-15.3516Q13.4277-15.3516 14.9365-14.7119Q16.4453-14.0723 17.583-12.9297Q18.7207-11.7871 19.3652-10.2832Q20.0098-8.7793 20.0098-7.05078Q20.0098-5.32227 19.3701-3.81836Q18.7305-2.31445 17.5879-1.17676Q16.4453-0.0390625 14.9414 0.605469Q13.4375 1.25 11.709 1.25ZM7.17773-7.05078Q7.17773-6.69922 7.41211-6.47461Q7.64648-6.25 8.01758-6.25L10.8887-6.25L10.8887-3.36914Q10.8887-2.99805 11.1133-2.76855Q11.3379-2.53906 11.6895-2.53906Q12.0605-2.53906 12.29-2.76855Q12.5195-2.99805 12.5195-3.36914L12.5195-6.25L15.4004-6.25Q15.7715-6.25 16.001-6.47461Q16.2305-6.69922 16.2305-7.05078Q16.2305-7.42188 16.001-7.65137Q15.7715-7.88086 15.4004-7.88086L12.5195-7.88086L12.5195-10.752Q12.5195-11.1328 12.29-11.3623Q12.0605-11.5918 11.6895-11.5918Q11.3379-11.5918 11.1133-11.3574Q10.8887-11.123 10.8887-10.752L10.8887-7.88086L8.01758-7.88086Q7.63672-7.88086 7.40723-7.65137Q7.17773-7.42188 7.17773-7.05078Z"/>
  </g>
  <g transform="matrix(1 0 0 1 305.646 1933)">
   <path d="M14.9707 5.66406Q17.0605 5.66406 18.96 5.01465Q20.8594 4.36523 22.4512 3.19336Q24.043 2.02148 25.2197 0.429688Q26.3965-1.16211 27.0459-3.06641Q27.6953-4.9707 27.6953-7.05078Q27.6953-9.14062 27.0459-11.04Q26.3965-12.9395 25.2197-14.5312Q24.043-16.123 22.4512-17.2998Q20.8594-18.4766 18.9551-19.126Q17.0508-19.7754 14.9609-19.7754Q12.8711-19.7754 10.9717-19.126Q9.07227-18.4766 7.48535-17.2998Q5.89844-16.123 4.72168-14.5312Q3.54492-12.9395 2.90039-11.04Q2.25586-9.14062 2.25586-7.05078Q2.25586-4.9707 2.90527-3.06641Q3.55469-1.16211 4.72656 0.429688Q5.89844 2.02148 7.49023 3.19336Q9.08203 4.36523 10.9814 5.01465Q12.8809 5.66406 14.9707 5.66406ZM14.9707 3.84766Q13.1641 3.84766 11.5283 3.2959Q9.89258 2.74414 8.53516 1.74805Q7.17773 0.751953 6.17676-0.610352Q5.17578-1.97266 4.62891-3.6084Q4.08203-5.24414 4.08203-7.05078Q4.08203-8.86719 4.62891-10.5029Q5.17578-12.1387 6.17188-13.501Q7.16797-14.8633 8.52539-15.8594Q9.88281-16.8555 11.5186-17.4023Q13.1543-17.9492 14.9609-17.9492Q16.7773-17.9492 18.4131-17.4023Q20.0488-16.8555 21.4111-15.8594Q22.7734-14.8633 23.7744-13.501Q24.7754-12.1387 25.3223-10.5029Q25.8691-8.86719 25.8691-7.05078Q25.8691-5.24414 25.3223-3.6084Q24.7754-1.97266 23.7793-0.610352Q22.7832 0.751953 21.4209 1.74805Q20.0586 2.74414 18.4229 3.2959Q16.7871 3.84766 14.9707 3.84766ZM9.19922-7.05078Q9.19922-6.66992 9.45801-6.4209Q9.7168-6.17188 10.1172-6.17188L14.0625-6.17188L14.0625-2.2168Q14.0625-1.81641 14.3115-1.55762Q14.5605-1.29883 14.9512-1.29883Q15.3516-1.29883 15.6104-1.55273Q15.8691-1.80664 15.8691-2.2168L15.8691-6.17188L19.8242-6.17188Q20.2246-6.17188 20.4785-6.4209Q20.7324-6.66992 20.7324-7.05078Q20.7324-7.46094 20.4785-7.71484Q20.2246-7.96875 19.8242-7.96875L15.8691-7.96875L15.8691-11.9141Q15.8691-12.3242 15.6104-12.583Q15.3516-12.8418 14.9512-12.8418Q14.5605-12.8418 14.3115-12.583Q14.0625-12.3242 14.0625-11.9141L14.0625-7.96875L10.1172-7.96875Q9.70703-7.96875 9.45312-7.71484Q9.19922-7.46094 9.19922-7.05078Z"/>
  </g>
  <text style="stroke:none;fill:black;font-family:sans-serif;font-size:13;font-weight:bold;" transform="matrix(1 0 0 1 263 1953)">Design Variations</text>
  <text style="stroke:none;fill:black;font-family:sans-serif;font-size:13;" transform="matrix(1 0 0 1 263 1971)">Symbols are supported in up to nine weights and three scales.</text>
  <text style="stroke:none;fill:black;font-family:sans-serif;font-size:13;" transform="matrix(1 0 0 1 263 1989)">For optimal layout with text and other symbols, vertically align</text>
  <text style="stroke:none;fill:black;font-family:sans-serif;font-size:13;" transform="matrix(1 0 0 1 263 2007)">symbols with the adjacent text.</text>
  <line style="fill:none;stroke:#00AEEF;stroke-width:0.5;opacity:1.0;" x1="776" x2="776" y1="1919" y2="1933"/>
  <g transform="matrix(1 0 0 1 776 1933)">
   <path d="M3.31055 0.15625Q3.70117 0.15625 3.91602-0.00976562Q4.13086-0.175781 4.26758-0.585938L5.52734-4.0332L11.2891-4.0332L12.5488-0.585938Q12.6855-0.175781 12.9004-0.00976562Q13.1152 0.15625 13.4961 0.15625Q13.8867 0.15625 14.1162-0.0585938Q14.3457-0.273438 14.3457-0.644531Q14.3457-0.869141 14.2383-1.17188L9.6582-13.3691Q9.48242-13.8184 9.17969-14.043Q8.87695-14.2676 8.4082-14.2676Q7.5-14.2676 7.17773-13.3789L2.59766-1.16211Q2.49023-0.859375 2.49023-0.634766Q2.49023-0.263672 2.70996-0.0537109Q2.92969 0.15625 3.31055 0.15625ZM6.00586-5.51758L8.37891-12.0898L8.42773-12.0898L10.8008-5.51758Z"/>
  </g>
  <line style="fill:none;stroke:#00AEEF;stroke-width:0.5;opacity:1.0;" x1="793.197" x2="793.197" y1="1919" y2="1933"/>
  <text style="stroke:none;fill:black;font-family:sans-serif;font-size:13;font-weight:bold;" transform="matrix(1 0 0 1 776 1953)">Margins</text>
  <text style="stroke:none;fill:black;font-family:sans-serif;font-size:13;" transform="matrix(1 0 0 1 776 1971)">Leading and trailing margins on the left and right side of each symbol</text>
  <text style="stroke:none;fill:black;font-family:sans-serif;font-size:13;" transform="matrix(1 0 0 1 776 1989)">can be adjusted by modifying the x-location of the margin guidelines.</text>
  <text style="stroke:none;fill:black;font-family:sans-serif;font-size:13;" transform="matrix(1 0 0 1 776 2007)">Modifications are automatically applied proportionally to all</text>
  <text style="stroke:none;fill:black;font-family:sans-serif;font-size:13;" transform="matrix(1 0 0 1 776 2025)">scales and weights.</text>
  <g transform="matrix(1 0 0 1 1289 1933)">
   <path d="M2.8418 1.86523L4.54102 3.57422Q5.18555 4.22852 5.90332 4.17969Q6.62109 4.13086 7.31445 3.35938L18.0078-8.42773L17.041-9.4043L6.42578 2.27539Q6.16211 2.57812 5.89355 2.61719Q5.625 2.65625 5.27344 2.30469L4.10156 1.14258Q3.75 0.791016 3.79395 0.522461Q3.83789 0.253906 4.14062-0.0195312L15.6152-10.8203L14.6387-11.7871L3.04688-0.898438Q2.30469-0.214844 2.25098 0.498047Q2.19727 1.21094 2.8418 1.86523ZM9.25781-16.3281Q8.94531-16.0254 8.90625-15.6348Q8.86719-15.2441 9.04297-14.9512Q9.21875-14.6777 9.55566-14.541Q9.89258-14.4043 10.3809-14.5215Q11.4746-14.7754 12.5977-14.7314Q13.7207-14.6875 14.7949-13.9844L14.209-12.5293Q13.9551-11.9043 14.0674-11.4404Q14.1797-10.9766 14.5801-10.5664L16.875-8.25195Q17.2363-7.88086 17.5781-7.82227Q17.9199-7.76367 18.3398-7.8418L19.4043-8.03711L20.0684-7.36328L20.0293-6.80664Q20-6.43555 20.1221-6.12305Q20.2441-5.81055 20.6055-5.44922L21.3672-4.70703Q21.7285-4.3457 22.1533-4.33105Q22.5781-4.31641 22.9297-4.66797L25.8398-7.58789Q26.1914-7.93945 26.1816-8.35449Q26.1719-8.76953 25.8105-9.13086L25.0391-9.89258Q24.6875-10.2539 24.3799-10.3857Q24.0723-10.5176 23.7109-10.4883L23.1348-10.4395L22.4902-11.0742L22.7344-12.1973Q22.832-12.6172 22.6953-12.9834Q22.5586-13.3496 22.1191-13.7891L19.9219-15.9766Q18.6719-17.2168 17.2607-17.8369Q15.8496-18.457 14.4189-18.4814Q12.9883-18.5059 11.665-17.959Q10.3418-17.4121 9.25781-16.3281ZM10.752-15.957Q11.6602-16.6211 12.7002-16.9043Q13.7402-17.1875 14.8047-17.085Q15.8691-16.9824 16.8701-16.5137Q17.8711-16.0449 18.7012-15.2051L21.1328-12.793Q21.3086-12.6172 21.3525-12.4512Q21.3965-12.2852 21.3379-12.0312L21.0156-10.5469L22.5195-9.0625L23.5059-9.12109Q23.6914-9.13086 23.7891-9.09668Q23.8867-9.0625 24.0332-8.91602L24.6094-8.33984L22.168-5.89844L21.5918-6.47461Q21.4453-6.62109 21.4062-6.71875Q21.3672-6.81641 21.377-7.01172L21.4453-7.98828L19.9512-9.47266L18.4277-9.21875Q18.1836-9.16992 18.042-9.2041Q17.9004-9.23828 17.7148-9.41406L15.7129-11.416Q15.5176-11.5918 15.4932-11.7529Q15.4688-11.9141 15.5859-12.1875L16.4648-14.2773Q15.293-15.3711 13.8281-15.791Q12.3633-16.2109 10.8398-15.7617Q10.7227-15.7324 10.6885-15.8057Q10.6543-15.8789 10.752-15.957Z"/>
  </g>
  <text style="stroke:none;fill:black;font-family:sans-serif;font-size:13;font-weight:bold;" transform="matrix(1 0 0 1 1289 1953)">Exporting</text>
  <text style="stroke:none;fill:black;font-family:sans-serif;font-size:13;" transform="matrix(1 0 0 1 1289 1971)">Symbols should be outlined when exporting to ensure the</text>
  <text style="stroke:none;fill:black;font-family:sans-serif;font-size:13;" transform="matrix(1 0 0 1 1289 1989)">design is preserved when submitting to Xcode.</text>
  <text id="template-version" style="stroke:none;fill:black;font-family:sans-serif;font-size:13;text-anchor:end;" transform="matrix(1 0 0 1 3036 1933)">Template v.2.0</text>
  <text style="stroke:none;fill:black;font-family:sans-serif;font-size:13;text-anchor:end;" transform="matrix(1 0 0 1 3036 1951)">Requires Xcode 12 or greater</text>
  <text id="descriptive-name" style="stroke:none;fill:black;font-family:sans-serif;font-size:13;text-anchor:end;" transform="matrix(1 0 0 1 3036 1969)">Generated from line.3.horizontal.decrease.circle.fill</text>
  <text style="stroke:none;fill:black;font-family:sans-serif;font-size:13;text-anchor:end;" transform="matrix(1 0 0 1 3036 1987)">Typeset at 100 points</text>
  <text style="stroke:none;fill:black;font-family:sans-serif;font-size:13;" transform="matrix(1 0 0 1 263 726)">Small</text>
  <text style="stroke:none;fill:black;font-family:sans-serif;font-size:13;" transform="matrix(1 0 0 1 263 1156)">Medium</text>
  <text style="stroke:none;fill:black;font-family:sans-serif;font-size:13;" transform="matrix(1 0 0 1 263 1586)">Large</text>
 </g>
 <g id="Guides">
  <g id="H-reference" style="fill:#27AAE1;stroke:none;" transform="matrix(1 0 0 1 339 696)">
   <path d="M0.993347 0L3.6377 0L29.3282-67.1326L30.0301-67.1326L30.0301-70.459L28.1227-70.459ZM11.6882-24.4797L46.9818-24.4797L46.2311-26.7288L12.4382-26.7288ZM55.1193 0L57.7637 0L30.6381-70.459L29.4327-70.459L29.4327-67.1326Z"/>
  </g>
  <line id="Baseline-S" style="fill:none;stroke:#27AAE1;opacity:1;stroke-width:0.5;" x1="263" x2="3036" y1="696" y2="696"/>
  <line id="Capline-S" style="fill:none;stroke:#27AAE1;opacity:1;stroke-width:0.5;" x1="263" x2="3036" y1="625.541" y2="625.541"/>
  <g id="H-reference" style="fill:#27AAE1;stroke:none;" transform="matrix(1 0 0 1 339 1126)">
   <path d="M0.993347 0L3.6377 0L29.3282-67.1326L30.0301-67.1326L30.0301-70.459L28.1227-70.459ZM11.6882-24.4797L46.9818-24.4797L46.2311-26.7288L12.4382-26.7288ZM55.1193 0L57.7637 0L30.6381-70.459L29.4327-70.459L29.4327-67.1326Z"/>
  </g>
  <line id="Baseline-M" style="fill:none;stroke:#27AAE1;opacity:1;stroke-width:0.5;" x1="263" x2="3036" y1="1126" y2="1126"/>
  <line id="Capline-M" style="fill:none;stroke:#27AAE1;opacity:1;stroke-width:0.5;" x1="263" x2="3036" y1="1055.54" y2="1055.54"/>
  <g id="H-reference" style="fill:#27AAE1;stroke:none;" transform="matrix(1 0 0 1 339 1556)">
   <path d="M0.993347 0L3.6377 0L29.3282-67.1326L30.0301-67.1326L30.0301-70.459L28.1227-70.459ZM11.6882-24.4797L46.9818-24.4797L46.2311-26.7288L12.4382-26.7288ZM55.1193 0L57.7637 0L30.6381-70.459L29.4327-70.459L29.4327-67.1326Z"/>
  </g>
  <line id="Baseline-L" style="fill:none;stroke:#27AAE1;opacity:1;stroke-width:0.5;" x1="263" x2="3036" y1="1556" y2="1556"/>
  <line id="Capline-L" style="fill:none;stroke:#27AAE1;opacity:1;stroke-width:0.5;" x1="263" x2="3036" y1="1485.54" y2="1485.54"/>
  <line id="left-margin" style="fill:none;stroke:#00AEEF;stroke-width:0.5;opacity:1.0;" x1="1391.32" x2="1391.32" y1="1030.79" y2="1150.12"/>
  <line id="right-margin" style="fill:none;stroke:#00AEEF;stroke-width:0.5;opacity:1.0;" x1="1508.37" x2="1508.37" y1="1030.79" y2="1150.12"/>
 </g>
 <g id="Symbols">
  <g id="Black-L" transform="matrix(1 0 0 1 2854.19 1556)">
   <path d="M79.1953 32.7252Q93.2356 32.7252 105.521 27.4303Q117.806 22.1354 127.174 12.7571Q136.542 3.37874 141.848-8.90649Q147.154-21.1917 147.154-35.2113Q147.154-49.2309 141.848-61.5161Q136.542-73.8013 127.164-83.1796Q117.785-92.558 105.5-97.8529Q93.2149-103.148 79.1746-103.148Q65.1563-103.148 52.8704-97.8529Q40.5846-92.558 31.2276-83.1796Q21.8707-73.8013 16.5647-61.5161Q11.2588-49.2309 11.2588-35.2113Q11.2588-21.1917 16.5647-8.90649Q21.8707 3.37874 31.238 12.7571Q40.6053 22.1354 52.8912 27.4303Q65.177 32.7252 79.1953 32.7252ZM48.7725-46.6792Q45.2746-46.6792 43.1287-48.6564Q40.9828-50.6337 40.9828-53.8759Q40.9828-57.1389 43.1287-59.1259Q45.2746-61.1129 48.7725-61.1129L109.706-61.1129Q113.224-61.1129 115.359-59.1259Q117.495-57.1389 117.495-53.8759Q117.495-50.6337 115.359-48.6564Q113.224-46.6792 109.706-46.6792ZM55.9438-24.6114Q52.4849-24.6114 50.3202-26.5983Q48.1554-28.5853 48.1554-31.8483Q48.1554-35.0529 50.3202-37.0879Q52.4849-39.1229 55.9438-39.1229L102.556-39.1229Q106.013-39.1229 108.178-37.0879Q110.343-35.0529 110.343-31.8483Q110.343-28.5853 108.178-26.5983Q106.013-24.6114 102.556-24.6114ZM63.2058-2.63954Q59.7456-2.63954 57.5809-4.62652Q55.4161-6.61351 55.4161-9.79734Q55.4161-13.0396 57.5809-15.0558Q59.7456-17.072 63.2058-17.072L95.2742-17.072Q98.7318-17.072 100.897-15.0558Q103.063-13.0396 103.063-9.79734Q103.063-6.61351 100.897-4.62652Q98.7318-2.63954 95.2742-2.63954Z"/>
  </g>
  <g id="Heavy-L" transform="matrix(1 0 0 1 2558.42 1556)">
   <path d="M78.2511 31.7672Q92.088 31.7672 104.202 26.5464Q116.316 21.3256 125.559 12.0677Q134.802 2.8099 140.04-9.30402Q145.279-21.4179 145.279-35.2251Q145.279-49.0322 140.04-61.1461Q134.802-73.2601 125.544-82.5179Q116.286-91.7758 104.172-96.9966Q92.0582-102.217 78.2213-102.217Q64.4202-102.217 52.3033-96.9966Q40.1863-91.7758 30.9613-82.5179Q21.7362-73.2601 16.4975-61.1461Q11.2588-49.0322 11.2588-35.2251Q11.2588-21.4179 16.4975-9.30402Q21.7362 2.8099 30.9761 12.0677Q40.2161 21.3256 52.333 26.5464Q64.45 31.7672 78.2511 31.7672ZM46.6737-47.1139Q43.528-47.1139 41.5771-48.9011Q39.6263-50.6883 39.6263-53.6197Q39.6263-56.581 41.5771-58.38Q43.528-60.1791 46.6737-60.1791L109.972-60.1791Q113.141-60.1791 115.077-58.38Q117.013-56.581 117.013-53.6197Q117.013-50.6883 115.077-48.9011Q113.141-47.1139 109.972-47.1139ZM54.4226-25.1815Q51.2977-25.1815 49.3395-26.9805Q47.3812-28.7796 47.3812-31.7408Q47.3812-34.6574 49.3395-36.4862Q51.2977-38.315 54.4226-38.315L102.252-38.315Q105.371-38.315 107.33-36.4862Q109.288-34.6574 109.288-31.7408Q109.288-28.7796 107.33-26.9805Q105.371-25.1815 102.252-25.1815ZM62.3268-3.3351Q59.1959-3.3351 57.2376-5.13415Q55.2793-6.9332 55.2793-9.82004Q55.2793-12.7515 57.2376-14.5729Q59.1959-16.3942 62.3268-16.3942L94.3246-16.3942Q97.4434-16.3942 99.4047-14.5729Q101.366-12.7515 101.366-9.82004Q101.366-6.9332 99.4047-5.13415Q97.4434-3.3351 94.3246-3.3351Z"/>
  </g>
  <g id="Bold-L" transform="matrix(1 0 0 1 2262.89 1556)">
   <path d="M77.0653 30.566Q90.6516 30.566 102.549 25.4396Q114.447 20.3133 123.533 11.2089Q132.619 2.10448 137.771-9.79333Q142.923-21.6912 142.923-35.2405Q142.923-48.7898 137.771-60.6877Q132.619-72.5855 123.515-81.6899Q114.41-90.7942 102.512-95.9206Q90.6146-101.047 77.0283-101.047Q63.4932-101.047 51.5882-95.9206Q39.6833-90.7942 30.623-81.6899Q21.5627-72.5855 16.4108-60.6877Q11.2588-48.7898 11.2588-35.2405Q11.2588-21.6912 16.4108-9.79333Q21.5627 2.10448 30.6415 11.2089Q39.7203 20.3133 51.6252 25.4396Q63.5301 30.566 77.0653 30.566ZM44.1734-47.7383Q41.4763-47.7383 39.7825-49.2812Q38.0887-50.8241 38.0887-53.3533Q38.0887-55.9194 39.7825-57.4737Q41.4763-59.0279 44.1734-59.0279L110.162-59.0279Q112.882-59.0279 114.557-57.4737Q116.232-55.9194 116.232-53.3533Q116.232-50.8241 114.557-49.2812Q112.882-47.7383 110.162-47.7383ZM52.5425-25.9977Q49.8517-25.9977 48.1619-27.552Q46.472-29.1062 46.472-31.6724Q46.472-34.2093 48.1619-35.7743Q49.8517-37.3393 52.5425-37.3393L101.83-37.3393Q104.506-37.3393 106.196-35.7743Q107.886-34.2093 107.886-31.6724Q107.886-29.1062 106.196-27.552Q104.506-25.9977 101.83-25.9977ZM61.1448-4.31754Q58.4399-4.31754 56.75-5.87182Q55.0601-7.42609 55.0601-9.92602Q55.0601-12.4552 56.75-14.024Q58.4399-15.5929 61.1448-15.5929L93.2048-15.5929Q95.8813-15.5929 97.5783-14.024Q99.2753-12.4552 99.2753-9.92602Q99.2753-7.42609 97.5783-5.87182Q95.8813-4.31754 93.2048-4.31754Z"/>
  </g>
  <g id="Semibold-L" transform="matrix(1 0 0 1 1966.99 1556)">
   <path d="M76.2478 29.7379Q89.6614 29.7379 101.41 24.6766Q113.159 19.6153 122.137 10.6168Q131.114 1.61818 136.206-10.1307Q141.299-21.8795 141.299-35.2511Q141.299-48.6228 136.206-60.3716Q131.114-72.1204 122.116-81.119Q113.117-90.1176 101.368-95.1789Q89.6194-100.24 76.2058-100.24Q62.854-100.24 51.0953-95.1789Q39.3365-90.1176 30.3898-81.119Q21.4432-72.1204 16.351-60.3716Q11.2588-48.6228 11.2588-35.2511Q11.2588-21.8795 16.351-10.1307Q21.4432 1.61818 30.4108 10.6168Q39.3785 19.6153 51.1372 24.6766Q62.896 29.7379 76.2478 29.7379ZM42.4497-48.1688Q40.0618-48.1688 38.5453-49.5433Q37.0287-50.9178 37.0287-53.1696Q37.0287-55.4633 38.5453-56.8488Q40.0618-58.2344 42.4497-58.2344L110.293-58.2344Q112.703-58.2344 114.199-56.8488Q115.694-55.4633 115.694-53.1696Q115.694-50.9178 114.199-49.5433Q112.703-48.1688 110.293-48.1688ZM51.2463-26.5604Q48.8549-26.5604 47.35-27.9459Q45.8451-29.3314 45.8451-31.6252Q45.8451-33.9004 47.35-35.2835Q48.8549-36.6666 51.2463-36.6666L101.539-36.6666Q103.91-36.6666 105.415-35.2835Q106.92-33.9004 106.92-31.6252Q106.92-29.3314 105.415-27.9459Q103.91-26.5604 101.539-26.5604ZM60.33-4.99482Q57.9187-4.99482 56.4138-6.38036Q54.909-7.76589 54.909-9.99909Q54.909-12.2509 56.4138-13.6457Q57.9187-15.0405 60.33-15.0405L92.4328-15.0405Q94.8044-15.0405 96.3192-13.6457Q97.834-12.2509 97.834-9.99909Q97.834-7.76589 96.3192-6.38036Q94.8044-4.99482 92.4328-4.99482Z"/>
  </g>
  <g id="Medium-L" transform="matrix(1 0 0 1 1670.9 1556)">
   <path d="M75.6279 29.11Q88.9106 29.11 100.546 24.0981Q112.182 19.0862 121.078 10.1678Q129.973 1.24944 135.02-10.3864Q140.067-22.0223 140.067-35.2592Q140.067-48.4961 135.02-60.1319Q129.973-71.7678 121.055-80.6862Q112.137-89.6045 100.501-94.6164Q88.8648-99.6283 75.5822-99.6283Q62.3695-99.6283 50.7215-94.6164Q39.0736-89.6045 30.213-80.6862Q21.3525-71.7678 16.3056-60.1319Q11.2588-48.4961 11.2588-35.2592Q11.2588-22.0223 16.3056-10.3864Q21.3525 1.24944 30.2359 10.1678Q39.1193 19.0862 50.7673 24.0981Q62.4152 29.11 75.6279 29.11ZM41.1428-48.4952Q38.9893-48.4952 37.6071-49.742Q36.225-50.9888 36.225-53.0303Q36.225-55.1175 37.6071-56.3751Q38.9893-57.6326 41.1428-57.6326L110.393-57.6326Q112.568-57.6326 113.927-56.3751Q115.286-55.1175 115.286-53.0303Q115.286-50.9888 113.927-49.742Q112.568-48.4952 110.393-48.4952ZM50.2635-26.987Q48.099-26.987 46.7344-28.2446Q45.3699-29.5022 45.3699-31.5894Q45.3699-33.6661 46.7344-34.9113Q48.099-36.1565 50.2635-36.1565L101.318-36.1565Q103.458-36.1565 104.823-34.9113Q106.187-33.6661 106.187-31.5894Q106.187-29.5022 104.823-28.2446Q103.458-26.987 101.318-26.987ZM59.7122-5.50837Q57.5235-5.50837 56.159-6.76595Q54.7944-8.02354 54.7944-10.0545Q54.7944-12.0959 56.159-13.3588Q57.5235-14.6216 59.7122-14.6216L91.8474-14.6216Q93.9878-14.6216 95.3644-13.3588Q96.7411-12.0959 96.7411-10.0545Q96.7411-8.02354 95.3644-6.76595Q93.9878-5.50837 91.8474-5.50837Z"/>
  </g>
  <g id="Regular-L" transform="matrix(1 0 0 1 1374.99 1556)">
   <path d="M74.8194 28.2909Q87.9312 28.2909 99.4198 23.3434Q110.908 18.3959 119.697 9.58221Q128.485 0.768476 133.473-10.7201Q138.46-22.2086 138.46-35.2697Q138.46-48.3308 133.473-59.8193Q128.485-71.3079 119.671-80.1216Q110.858-88.9353 99.3691-93.8828Q87.8805-98.8303 74.7687-98.8303Q61.7374-98.8303 50.234-93.8828Q38.7306-88.9353 29.9824-80.1216Q21.2342-71.3079 16.2465-59.8193Q11.2588-48.3308 11.2588-35.2697Q11.2588-22.2086 16.2465-10.7201Q21.2342 0.768476 30.0077 9.58221Q38.7813 18.3959 50.2847 23.3434Q61.7881 28.2909 74.8194 28.2909ZM39.438-48.921Q37.5905-48.921 36.3835-50.0012Q35.1766-51.0814 35.1766-52.8486Q35.1766-54.6664 36.3835-55.7571Q37.5905-56.8478 39.438-56.8478L110.523-56.8478Q112.391-56.8478 113.573-55.7571Q114.754-54.6664 114.754-52.8486Q114.754-51.0814 113.573-50.0012Q112.391-48.921 110.523-48.921ZM48.9816-27.5435Q47.1131-27.5435 45.9315-28.6342Q44.7499-29.7249 44.7499-31.5427Q44.7499-33.3606 45.9315-34.4259Q47.1131-35.4913 48.9816-35.4913L101.03-35.4913Q102.868-35.4913 104.05-34.4259Q105.232-33.3606 105.232-31.5427Q105.232-29.7249 104.05-28.6342Q102.868-27.5435 101.03-27.5435ZM58.9063-6.17821Q57.0081-6.17821 55.8265-7.26891Q54.6449-8.3596 54.6449-10.1267Q54.6449-11.8939 55.8265-12.9846Q57.0081-14.0753 58.9063-14.0753L91.0839-14.0753Q92.9227-14.0753 94.1192-12.9846Q95.3156-11.8939 95.3156-10.1267Q95.3156-8.3596 94.1192-7.26891Q92.9227-6.17821 91.0839-6.17821Z"/>
  </g>
  <g id="Light-L" transform="matrix(1 0 0 1 1079.2 1556)">
   <path d="M73.8959 27.3674Q86.8436 27.3674 98.1577 22.502Q109.472 17.6366 118.137 8.95629Q126.802 0.275949 131.708-11.0381Q136.614-22.3522 136.614-35.2697Q136.614-48.1872 131.708-59.5013Q126.802-70.8154 118.122-79.4957Q109.442-88.176 98.1275-93.0414Q86.8134-97.9069 73.8658-97.9069Q60.9986-97.9069 49.6594-93.0414Q38.3201-88.176 29.6951-79.4957Q21.07-70.8154 16.1644-59.5013Q11.2588-48.1872 11.2588-35.2697Q11.2588-22.3522 16.1644-11.0381Q21.07 0.275949 29.7102 8.95629Q38.3503 17.6366 49.6895 22.502Q61.0287 27.3674 73.8959 27.3674ZM38.3504-49.906Q36.8927-49.906 35.9628-50.7605Q35.0329-51.615 35.0329-52.9922Q35.0329-54.3996 35.9628-55.244Q36.8927-56.0885 38.3504-56.0885L109.763-56.0885Q111.201-56.0885 112.116-55.244Q113.03-54.3996 113.03-52.9922Q113.03-51.615 112.116-50.7605Q111.201-49.906 109.763-49.906ZM47.7092-28.8159Q46.2717-28.8159 45.3569-29.6603Q44.4421-30.5047 44.4421-31.9121Q44.4421-33.3195 45.3569-34.1489Q46.2717-34.9782 47.7092-34.9782L100.434-34.9782Q101.822-34.9782 102.737-34.1489Q103.651-33.3195 103.651-31.9121Q103.651-30.5047 102.737-29.6603Q101.822-28.8159 100.434-28.8159ZM57.4903-7.63527Q56.0025-7.63527 55.0877-8.4797Q54.1729-9.32414 54.1729-10.7014Q54.1729-12.0786 55.0877-12.923Q56.0025-13.7675 57.4903-13.7675L90.6735-13.7675Q92.0608-13.7675 93.0007-12.923Q93.9406-12.0786 93.9406-10.7014Q93.9406-9.32414 93.0007-8.4797Q92.0608-7.63527 90.6735-7.63527Z"/>
  </g>
  <g id="Thin-L" transform="matrix(1 0 0 1 783.716 1556)">
   <path d="M72.6746 26.1461Q85.405 26.1461 96.4884 21.3892Q107.572 16.6324 116.074 8.12846Q124.577-0.375458 129.374-11.4588Q134.171-22.5422 134.171-35.2697Q134.171-47.9972 129.374-59.0806Q124.577-70.1639 116.073-78.6679Q107.569-87.1718 96.4854-91.9286Q85.402-96.6855 72.6715-96.6855Q60.0215-96.6855 48.8994-91.9286Q37.7773-87.1718 29.3151-78.6679Q20.8529-70.1639 16.0558-59.0806Q11.2588-47.9972 11.2588-35.2697Q11.2588-22.5422 16.0558-11.4588Q20.8529-0.375458 29.3166 8.12846Q37.7803 16.6324 48.9024 21.3892Q60.0245 26.1461 72.6746 26.1461ZM36.9118-51.2089Q35.9699-51.2089 35.4064-51.7648Q34.8429-52.3207 34.8429-53.1822Q34.8429-54.0468 35.4064-54.5655Q35.9699-55.0842 36.9118-55.0842L108.759-55.0842Q109.627-55.0842 110.188-54.5655Q110.75-54.0468 110.75-53.1822Q110.75-52.3207 110.188-51.7648Q109.627-51.2089 108.759-51.2089ZM46.0264-30.4987Q45.1589-30.4987 44.5969-31.0174Q44.035-31.5361 44.035-32.4007Q44.035-33.2652 44.5969-33.7825Q45.1589-34.2997 46.0264-34.2997L99.6474-34.2997Q100.438-34.2997 100.999-33.7825Q101.561-33.2652 101.561-32.4007Q101.561-31.5361 100.999-31.0174Q100.438-30.4987 99.6474-30.4987ZM55.6175-9.56235Q54.6726-9.56235 54.1106-10.0811Q53.5486-10.5998 53.5486-11.4613Q53.5486-12.3229 54.1106-12.8416Q54.6726-13.3603 55.6175-13.3603L90.1307-13.3603Q90.9208-13.3603 91.5215-12.8416Q92.1221-12.3229 92.1221-11.4613Q92.1221-10.5998 91.5215-10.0811Q90.9208-9.56235 90.1307-9.56235Z"/>
  </g>
  <g id="Ultralight-L" transform="matrix(1 0 0 1 487.631 1556)">
   <path d="M72.049 25.5205Q84.6682 25.5205 95.6335 20.8192Q106.599 16.118 115.018 7.70445Q123.437-0.709105 128.178-11.6743Q132.92-22.6395 132.92-35.2697Q132.92-47.8999 128.178-58.8651Q123.437-69.8303 115.023-78.2439Q106.61-86.6574 95.6443-91.3586Q84.6791-96.0599 72.0598-96.0599Q59.521-96.0599 48.5101-91.3586Q37.4993-86.6574 29.1205-78.2439Q20.7417-69.8303 16.0002-58.8651Q11.2588-47.8999 11.2588-35.2697Q11.2588-22.6395 16.0002-11.6743Q20.7417-0.709105 29.115 7.70445Q37.4884 16.118 48.4992 20.8192Q59.5101 25.5205 72.049 25.5205ZM36.175-51.8761Q35.4972-51.8761 35.1214-52.2791Q34.7456-52.6821 34.7456-53.2795Q34.7456-53.866 35.1214-54.2179Q35.4972-54.5699 36.175-54.5699L108.245-54.5699Q108.82-54.5699 109.201-54.2179Q109.583-53.866 109.583-53.2795Q109.583-52.6821 109.201-52.2791Q108.82-51.8761 108.245-51.8761ZM45.1645-31.3606Q44.5889-31.3606 44.2077-31.7125Q43.8264-32.0644 43.8264-32.6509Q43.8264-33.2374 44.2077-33.5948Q44.5889-33.9521 45.1645-33.9521L99.2442-33.9521Q99.7285-33.9521 100.11-33.5948Q100.491-33.2374 100.491-32.6509Q100.491-32.0644 100.11-31.7125Q99.7285-31.3606 99.2442-31.3606ZM54.6583-10.5494Q53.9914-10.5494 53.6101-10.9013Q53.2289-11.2532 53.2289-11.8506Q53.2289-12.448 53.6101-12.7999Q53.9914-13.1518 54.6583-13.1518L89.8526-13.1518Q90.3369-13.1518 90.7638-12.7999Q91.1907-12.448 91.1907-11.8506Q91.1907-11.2532 90.7638-10.9013Q90.3369-10.5494 89.8526-10.5494Z"/>
  </g>
  <g id="Black-M" transform="matrix(1 0 0 1 2871.36 1126)">
   <path d="M62.0423 18.1161Q73.0725 18.1161 82.714 13.9613Q92.3555 9.80654 99.704 2.45531Q107.052-4.89592 111.21-14.5374Q115.367-24.1789 115.367-35.2035Q115.367-46.2282 111.21-55.8697Q107.052-65.5112 99.7012-72.8624Q92.35-80.2136 82.7085-84.3684Q73.067-88.5232 62.0368-88.5232Q51.0119-88.5232 41.3705-84.3684Q31.7292-80.2136 24.3833-72.8624Q17.0375-65.5112 12.8801-55.8697Q8.72266-46.2282 8.72266-35.2035Q8.72266-24.1789 12.8801-14.5374Q17.0375-4.89592 24.3861 2.45531Q31.7347 9.80654 41.376 13.9613Q51.0174 18.1161 62.0423 18.1161ZM39.4424-43.8599Q36.4827-43.8599 34.6901-45.5245Q32.8974-47.1892 32.8974-49.9153Q32.8974-52.647 34.6901-54.3146Q36.4827-55.9821 39.4424-55.9821L84.6631-55.9821Q87.6287-55.9821 89.4185-54.3146Q91.2084-52.647 91.2084-49.9153Q91.2084-47.1892 89.4185-45.5245Q87.6287-43.8599 84.6631-43.8599ZM44.477-26.6856Q41.5685-26.6856 39.7501-28.3531Q37.9317-30.0207 37.9317-32.7524Q37.9317-35.4269 39.7501-37.1488Q41.5685-38.8707 44.477-38.8707L79.634-38.8707Q82.5428-38.8707 84.3612-37.1488Q86.1796-35.4269 86.1796-32.7524Q86.1796-30.0207 84.3612-28.3531Q82.5428-26.6856 79.634-26.6856ZM49.5318-9.58031Q46.6236-9.58031 44.8052-11.2479Q42.9868-12.9154 42.9868-15.5845Q42.9868-18.3106 44.8052-20.0067Q46.6236-21.7028 49.5318-21.7028L74.5734-21.7028Q77.4822-21.7028 79.3004-20.0067Q81.1187-18.3106 81.1187-15.5845Q81.1187-12.9154 79.3004-11.2479Q77.4822-9.58031 74.5734-9.58031Z"/>
  </g>
  <g id="Heavy-M" transform="matrix(1 0 0 1 2575.48 1126)">
   <path d="M61.2045 17.2648Q72.0509 17.2648 81.541 13.1749Q91.0312 9.08498 98.2688 1.83921Q105.506-5.40657 109.606-14.8967Q113.705-24.3868 113.705-35.217Q113.705-46.0473 109.606-55.5374Q105.506-65.0275 98.2607-72.2733Q91.0149-79.519 81.5248-83.6089Q72.0347-87.6988 61.1882-87.6988Q50.3604-87.6988 40.8691-83.6089Q31.3778-79.519 24.1495-72.2733Q16.9211-65.0275 12.8219-55.5374Q8.72266-46.0473 8.72266-35.217Q8.72266-24.3868 12.8219-14.8967Q16.9211-5.40657 24.1576 1.83921Q31.394 9.08498 40.8853 13.1749Q50.3767 17.2648 61.2045 17.2648ZM37.4911-44.194Q34.8396-44.194 33.2121-45.6936Q31.5846-47.1933 31.5846-49.6516Q31.5846-52.1262 33.2121-53.6327Q34.8396-55.1393 37.4911-55.1393L84.9926-55.1393Q87.6578-55.1393 89.2772-53.6327Q90.8966-52.1262 90.8966-49.6516Q90.8966-47.1933 89.2772-45.6936Q87.6578-44.194 84.9926-44.194ZM43.1073-27.1255Q40.4856-27.1255 38.8444-28.6321Q37.2033-30.1386 37.2033-32.6132Q37.2033-35.0442 38.8444-36.5862Q40.4856-38.1283 43.1073-38.1283L79.3926-38.1283Q82.0118-38.1283 83.653-36.5862Q85.2942-35.0442 85.2942-32.6132Q85.2942-30.1386 83.653-28.6321Q82.0118-27.1255 79.3926-27.1255ZM48.8031-10.1259Q46.179-10.1259 44.5378-11.6324Q42.8966-13.139 42.8966-15.5537Q42.8966-18.012 44.5378-19.5404Q46.179-21.0687 48.8031-21.0687L73.683-21.0687Q76.3022-21.0687 77.9446-19.5404Q79.587-18.012 79.587-15.5537Q79.587-13.139 77.9446-11.6324Q76.3022-10.1259 73.683-10.1259Z"/>
  </g>
  <g id="Bold-M" transform="matrix(1 0 0 1 2279.69 1126)">
   <path d="M60.2672 16.3124Q70.9082 16.3124 80.2289 12.2951Q89.5497 8.27781 96.6634 1.15Q103.777-5.9778 107.811-15.2986Q111.845-24.6193 111.845-35.2321Q111.845-45.8449 107.811-55.1656Q103.777-64.4864 96.6493-71.6142Q89.5215-78.742 80.2007-82.7593Q70.8799-86.7766 60.2389-86.7766Q49.6317-86.7766 40.3082-82.7593Q30.9846-78.742 23.8878-71.6142Q16.791-64.4864 12.7568-55.1656Q8.72266-45.8449 8.72266-35.2321Q8.72266-24.6193 12.7568-15.2986Q16.791-5.9778 23.902 1.15Q31.0129 8.27781 40.3364 12.2951Q49.6599 16.3124 60.2672 16.3124ZM35.3083-44.5677Q33.0016-44.5677 31.5588-45.8828Q30.116-47.1979 30.116-49.3566Q30.116-51.5436 31.5588-52.87Q33.0016-54.1965 35.3083-54.1965L85.3611-54.1965Q87.6905-54.1965 89.1191-52.87Q90.5478-51.5436 90.5478-49.3566Q90.5478-47.1979 89.1191-45.8828Q87.6905-44.5677 85.3611-44.5677ZM41.5751-27.6177Q39.2742-27.6177 37.8313-28.9441Q36.3884-30.2706 36.3884-32.4575Q36.3884-34.6159 37.8313-35.9568Q39.2742-37.2977 41.5751-37.2977L79.1225-37.2977Q81.4178-37.2977 82.8608-35.9568Q84.3037-34.6159 84.3037-32.4575Q84.3037-30.2706 82.8608-28.9441Q81.4178-27.6177 79.1225-27.6177ZM47.988-10.7361Q45.6816-10.7361 44.2387-12.0626Q42.7958-13.389 42.7958-15.5192Q42.7958-17.6779 44.2387-19.0186Q45.6816-20.3593 47.988-20.3593L72.6869-20.3593Q74.9822-20.3593 76.4279-19.0186Q77.8736-17.6779 77.8736-15.5192Q77.8736-13.389 76.4279-12.0626Q74.9822-10.7361 72.6869-10.7361Z"/>
  </g>
  <g id="Semibold-M" transform="matrix(1 0 0 1 1983.62 1126)">
   <path d="M59.621 15.6559Q70.1203 15.6559 79.3244 11.6886Q88.5284 7.72135 95.5566 0.674869Q102.585-6.37161 106.574-15.5756Q110.564-24.7797 110.564-35.2425Q110.564-45.7053 106.574-54.9093Q102.585-64.1134 95.5384-71.1598Q88.4919-78.2063 79.2879-82.1736Q70.0838-86.1408 59.5845-86.1408Q49.1293-86.1408 39.9215-82.1736Q30.7136-78.2063 23.7075-71.1598Q16.7013-64.1134 12.712-54.9093Q8.72266-45.7053 8.72266-35.2425Q8.72266-24.7797 12.712-15.5756Q16.7013-6.37161 23.7257 0.674869Q30.7501 7.72135 39.958 11.6886Q49.1658 15.6559 59.621 15.6559ZM33.8034-44.8254Q31.7345-44.8254 30.419-46.0132Q29.1036-47.2011 29.1036-49.1532Q29.1036-51.1419 30.419-52.3442Q31.7345-53.5465 33.8034-53.5465L85.6152-53.5465Q87.713-53.5465 89.0102-52.3442Q90.3074-51.1419 90.3074-49.1532Q90.3074-47.2011 89.0102-46.0132Q87.713-44.8254 85.6152-44.8254ZM40.5188-27.957Q38.4391-27.957 37.1329-29.1593Q35.8266-30.3615 35.8266-32.3502Q35.8266-34.3207 37.1329-35.5229Q38.4391-36.7251 40.5188-36.7251L78.9363-36.7251Q81.0084-36.7251 82.3146-35.5229Q83.6209-34.3207 83.6209-32.3502Q83.6209-30.3615 82.3146-29.1593Q81.0084-27.957 78.9363-27.957ZM47.426-11.1568Q45.3387-11.1568 44.0325-12.3591Q42.7262-13.5614 42.7262-15.4954Q42.7262-17.4476 44.0325-18.659Q45.3387-19.8703 47.426-19.8703L72.0002-19.8703Q74.0723-19.8703 75.3823-18.659Q76.6924-17.4476 76.6924-15.4954Q76.6924-13.5614 75.3823-12.3591Q74.0723-11.1568 72.0002-11.1568Z"/>
  </g>
  <g id="Medium-M" transform="matrix(1 0 0 1 1687.4 1126)">
   <path d="M59.1311 15.158Q69.523 15.158 78.6385 11.2287Q87.754 7.29942 94.7174 0.314603Q101.681-6.67021 105.636-15.7857Q109.591-24.9012 109.591-35.2504Q109.591-45.5995 105.636-54.715Q101.681-63.8305 94.696-70.8153Q87.7112-77.8002 78.5957-81.7295Q69.4802-85.6588 59.0883-85.6588Q48.7484-85.6588 39.6283-81.7295Q30.5081-77.8002 23.5707-70.8153Q16.6333-63.8305 12.678-54.715Q8.72266-45.5995 8.72266-35.2504Q8.72266-24.9012 12.678-15.7857Q16.6333-6.67021 23.5921 0.314603Q30.5509 7.29942 39.671 11.2287Q48.7912 15.158 59.1311 15.158ZM32.6624-45.0207Q30.7737-45.0207 29.5548-46.1121Q28.3359-47.2035 28.3359-48.999Q28.3359-50.8374 29.5548-51.9455Q30.7737-53.0536 32.6624-53.0536L85.8078-53.0536Q87.7301-53.0536 88.9276-51.9455Q90.125-50.8374 90.125-48.999Q90.125-47.2035 88.9276-46.1121Q87.7301-45.0207 85.8078-45.0207ZM39.7178-28.2142Q37.8059-28.2142 36.6033-29.3224Q35.4007-30.4305 35.4007-32.2688Q35.4007-34.0969 36.6033-35.1939Q37.8059-36.291 39.7178-36.291L78.7952-36.291Q80.6979-36.291 81.9005-35.1939Q83.1031-34.0969 83.1031-32.2688Q83.1031-30.4305 81.9005-29.3224Q80.6979-28.2142 78.7952-28.2142ZM46.9999-11.4758Q45.0787-11.4758 43.8761-12.584Q42.6735-13.6921 42.6735-15.4774Q42.6735-17.273 43.8761-18.3862Q45.0787-19.4995 46.9999-19.4995L71.4796-19.4995Q73.3823-19.4995 74.5895-18.3862Q75.7968-17.273 75.7968-15.4774Q75.7968-13.6921 74.5895-12.584Q73.3823-11.4758 71.4796-11.4758Z"/>
  </g>
  <g id="Regular-M" transform="matrix(1 0 0 1 1391.32 1126)">
   <path d="M58.492 14.5087Q68.7438 14.5087 77.7439 10.6289Q86.7439 6.74907 93.6228-0.155309Q100.502-7.05969 104.413-16.0597Q108.324-25.0598 108.324-35.2606Q108.324-45.4615 104.413-54.4616Q100.502-63.4616 93.5973-70.366Q86.693-77.2704 77.6929-81.1502Q68.6929-85.03 58.441-85.03Q48.2515-85.03 39.2458-81.1502Q30.2401-77.2704 23.3923-70.366Q16.5446-63.4616 12.6336-54.4616Q8.72266-45.4615 8.72266-35.2606Q8.72266-25.0598 12.6336-16.0597Q16.5446-7.05969 23.4178-0.155309Q30.291 6.74907 39.2968 10.6289Q48.3025 14.5087 58.492 14.5087ZM31.1741-45.2755Q29.5205-45.2755 28.4276-46.2411Q27.3346-47.2066 27.3346-48.7979Q27.3346-50.4401 28.4276-51.4254Q29.5205-52.4108 31.1741-52.4108L86.0591-52.4108Q87.7523-52.4108 88.8198-51.4254Q89.8872-50.4401 89.8872-48.7979Q89.8872-47.2066 88.8198-46.2411Q87.7523-45.2755 86.0591-45.2755ZM38.6732-28.5498Q36.98-28.5498 35.9125-29.5351Q34.8451-30.5205 34.8451-32.1627Q34.8451-33.8049 35.9125-34.7648Q36.98-35.7247 38.6732-35.7247L78.611-35.7247Q80.2929-35.7247 81.3603-34.7648Q82.4278-33.8049 82.4278-32.1627Q82.4278-30.5205 81.3603-29.5351Q80.2929-28.5498 78.611-28.5498ZM46.4441-11.8919Q44.7396-11.8919 43.6721-12.8773Q42.6047-13.8626 42.6047-15.4539Q42.6047-17.0452 43.6721-18.0305Q44.7396-19.0159 46.4441-19.0159L70.8004-19.0159Q72.4823-19.0159 73.5554-18.0305Q74.6285-17.0452 74.6285-15.4539Q74.6285-13.8626 73.5554-12.8773Q72.4823-11.8919 70.8004-11.8919Z"/>
  </g>
  <g id="Light-M" transform="matrix(1 0 0 1 1095.44 1126)">
   <path d="M57.664 13.6807Q67.7687 13.6807 76.6123 9.87453Q85.456 6.06831 92.2245-0.716478Q98.993-7.50127 102.83-16.3449Q106.668-25.1886 106.668-35.2606Q106.668-45.3327 102.83-54.1764Q98.993-63.02 92.2082-69.8048Q85.4234-76.5896 76.5798-80.3958Q67.7361-84.202 57.6315-84.202Q47.5892-84.202 38.7306-80.3958Q29.8721-76.5896 23.1348-69.8048Q16.3974-63.02 12.56-54.1764Q8.72266-45.3327 8.72266-35.2606Q8.72266-25.1886 12.56-16.3449Q16.3974-7.50127 23.151-0.716478Q29.9047 6.06831 38.7632 9.87453Q47.6217 13.6807 57.664 13.6807ZM30.1989-46.1587Q28.8949-46.1587 28.0504-46.9218Q27.2059-47.685 27.2059-48.9267Q27.2059-50.2009 28.0504-50.9655Q28.8949-51.73 30.1989-51.73L85.3784-51.73Q86.6852-51.73 87.5134-50.9655Q88.3417-50.2009 88.3417-48.9267Q88.3417-47.685 87.5134-46.9218Q86.6852-46.1587 85.3784-46.1587ZM37.5324-29.6905Q36.2256-29.6905 35.3973-30.4551Q34.5691-31.2196 34.5691-32.4939Q34.5691-33.7681 35.3973-34.5164Q36.2256-35.2647 37.5324-35.2647L78.0775-35.2647Q79.3545-35.2647 80.1828-34.5164Q81.0111-33.7681 81.0111-32.4939Q81.0111-31.2196 80.1828-30.4551Q79.3545-29.6905 78.0775-29.6905ZM45.1746-13.1983Q43.838-13.1983 43.0098-13.9628Q42.1815-14.7274 42.1815-15.9691Q42.1815-17.2108 43.0098-17.9753Q43.838-18.7399 45.1746-18.7399L70.4325-18.7399Q71.7095-18.7399 72.5527-17.9753Q73.3958-17.2108 73.3958-15.9691Q73.3958-14.7274 72.5527-13.9628Q71.7095-13.1983 70.4325-13.1983Z"/>
  </g>
  <g id="Thin-M" transform="matrix(1 0 0 1 799.828 1126)">
   <path d="M56.569 12.5857Q66.479 12.5857 75.1158 8.87683Q83.7526 5.16794 90.3751-1.45867Q96.9976-8.08529 100.738-16.7221Q104.478-25.3589 104.478-35.2606Q104.478-45.1624 100.738-53.7992Q96.9976-62.436 90.371-69.0626Q83.7444-75.6892 75.1076-79.3981Q66.4707-83.107 56.5608-83.107Q46.7131-83.107 38.0493-79.3981Q29.3854-75.6892 22.7941-69.0626Q16.2027-62.436 12.4627-53.7992Q8.72266-45.1624 8.72266-35.2606Q8.72266-25.3589 12.4627-16.7221Q16.2027-8.08529 22.7982-1.45867Q29.3936 5.16794 38.0575 8.87683Q46.7214 12.5857 56.569 12.5857ZM28.9092-47.3267Q28.0676-47.3267 27.5515-47.8222Q27.0355-48.3177 27.0355-49.097Q27.0355-49.8846 27.5515-50.3571Q28.0676-50.8297 28.9092-50.8297L84.478-50.8297Q85.2738-50.8297 85.7857-50.3571Q86.2976-49.8846 86.2976-49.097Q86.2976-48.3177 85.7857-47.8222Q85.2738-47.3267 84.478-47.3267ZM36.0237-31.1993Q35.2279-31.1993 34.716-31.6718Q34.2041-32.1443 34.2041-32.9319Q34.2041-33.7195 34.716-34.1879Q35.2279-34.6563 36.0237-34.6563L77.3718-34.6563Q78.1135-34.6563 78.6254-34.1879Q79.1373-33.7195 79.1373-32.9319Q79.1373-32.1443 78.6254-31.6718Q78.1135-31.1993 77.3718-31.1993ZM43.4955-14.926Q42.6457-14.926 42.1337-15.3985Q41.6218-15.8711 41.6218-16.6504Q41.6218-17.4298 42.1337-17.9023Q42.6457-18.3749 43.4955-18.3749L69.9458-18.3749Q70.6875-18.3749 71.2265-17.9023Q71.7654-17.4298 71.7654-16.6504Q71.7654-15.8711 71.2265-15.3985Q70.6875-14.926 69.9458-14.926Z"/>
  </g>
  <g id="Ultralight-M" transform="matrix(1 0 0 1 503.679 1126)">
   <path d="M56.0081 12.0248Q65.8184 12.0248 74.3492 8.36581Q82.8801 4.70678 89.4278-1.83882Q95.9756-8.38442 99.6657-16.9153Q103.356-25.4462 103.356-35.2606Q103.356-45.0751 99.6657-53.606Q95.9756-62.1369 89.43-68.6825Q82.8844-75.2281 74.3535-78.8871Q65.8226-82.5461 56.0124-82.5461Q46.2644-82.5461 37.7003-78.8871Q29.1361-75.2281 22.6196-68.6825Q16.103-62.1369 12.4128-53.606Q8.72266-45.0751 8.72266-35.2606Q8.72266-25.4462 12.4128-16.9153Q16.103-8.38442 22.6175-1.83882Q29.1319 4.70678 37.6961 8.36581Q46.2602 12.0248 56.0081 12.0248ZM28.2486-47.925Q27.6438-47.925 27.296-48.2834Q26.9483-48.6417 26.9483-49.1843Q26.9483-49.7225 27.296-50.0455Q27.6438-50.3685 28.2486-50.3685L84.0168-50.3685Q84.5509-50.3685 84.9008-50.0455Q85.2507-49.7225 85.2507-49.1843Q85.2507-48.6417 84.9008-48.2834Q84.5509-47.925 84.0168-47.925ZM35.2509-31.972Q34.7169-31.972 34.367-32.295Q34.0171-32.618 34.0171-33.1563Q34.0171-33.6946 34.367-34.0196Q34.7169-34.3447 35.2509-34.3447L77.0103-34.3447Q77.4778-34.3447 77.8277-34.0196Q78.1776-33.6946 78.1776-33.1563Q78.1776-32.618 77.8277-32.295Q77.4778-31.972 77.0103-31.972ZM42.6355-15.8109Q42.0349-15.8109 41.685-16.1339Q41.3352-16.4569 41.3352-16.9994Q41.3352-17.5419 41.685-17.8649Q42.0349-18.1879 42.6355-18.1879L69.6965-18.1879Q70.164-18.1879 70.5472-17.8649Q70.9303-17.5419 70.9303-16.9994Q70.9303-16.4569 70.5472-16.1339Q70.164-15.8109 69.6965-15.8109Z"/>
  </g>
  <g id="Black-S" transform="matrix(1 0 0 1 2884.57 696)">
   <path d="M48.8281 6.78711Q57.5195 6.78711 65.1123 3.51562Q72.7051 0.244141 78.4912-5.54199Q84.2773-11.3281 87.5488-18.9209Q90.8203-26.5137 90.8203-35.2051Q90.8203-43.8965 87.5488-51.4893Q84.2773-59.082 78.4912-64.8682Q72.7051-70.6543 65.1123-73.9258Q57.5195-77.1973 48.8281-77.1973Q40.1367-77.1973 32.5439-73.9258Q24.9512-70.6543 19.165-64.8682Q13.3789-59.082 10.1074-51.4893Q6.83594-43.8965 6.83594-35.2051Q6.83594-26.5137 10.1074-18.9209Q13.3789-11.3281 19.165-5.54199Q24.9512 0.244141 32.5439 3.51562Q40.1367 6.78711 48.8281 6.78711ZM31.4453-41.9434Q29.0527-41.9434 27.6123-43.2861Q26.1719-44.6289 26.1719-46.8262Q26.1719-49.0234 27.6123-50.3662Q29.0527-51.709 31.4453-51.709L66.2109-51.709Q68.6035-51.709 70.0439-50.3662Q71.4844-49.0234 71.4844-46.8262Q71.4844-44.6289 70.0439-43.2861Q68.6035-41.9434 66.2109-41.9434ZM35.2051-28.4668Q32.8613-28.4668 31.3965-29.8096Q29.9316-31.1523 29.9316-33.3496Q29.9316-35.498 31.3965-36.8896Q32.8613-38.2812 35.2051-38.2812L62.4512-38.2812Q64.7949-38.2812 66.2598-36.8896Q67.7246-35.498 67.7246-33.3496Q67.7246-31.1523 66.2598-29.8096Q64.7949-28.4668 62.4512-28.4668ZM38.9648-15.0391Q36.6211-15.0391 35.1562-16.3818Q33.6914-17.7246 33.6914-19.873Q33.6914-22.0703 35.1562-23.4375Q36.6211-24.8047 38.9648-24.8047L58.6914-24.8047Q61.0352-24.8047 62.5-23.4375Q63.9648-22.0703 63.9648-19.873Q63.9648-17.7246 62.5-16.3818Q61.0352-15.0391 58.6914-15.0391Z"/>
  </g>
  <g id="Heavy-S" transform="matrix(1 0 0 1 2588.47 696)">
   <path d="M48.2173 6.16479Q56.7704 6.16479 64.2537 2.9394Q71.737-0.285985 77.4425-5.99721Q83.1479-11.7084 86.3791-19.1917Q89.6102-26.675 89.6102-35.2166Q89.6102-43.7582 86.3791-51.2415Q83.1479-58.7248 77.4367-64.436Q71.7255-70.1472 64.2422-73.3726Q56.7589-76.598 48.2058-76.598Q39.6642-76.598 32.1809-73.3726Q24.6976-70.1472 18.9979-64.436Q13.2982-58.7248 10.0671-51.2415Q6.83594-43.7582 6.83594-35.2166Q6.83594-26.675 10.0671-19.1917Q13.2982-11.7084 19.0037-5.99721Q24.7092-0.285985 32.1924 2.9394Q39.6757 6.16479 48.2173 6.16479ZM29.901-42.1162Q27.7274-42.1162 26.3965-43.3438Q25.0655-44.5713 25.0655-46.5842Q25.0655-48.6086 26.3965-49.8418Q27.7274-51.0751 29.901-51.0751L66.5797-51.0751Q68.7649-51.0751 70.09-49.8418Q71.4152-48.6086 71.4152-46.5842Q71.4152-44.5713 70.09-43.3438Q68.7649-42.1162 66.5797-42.1162ZM34.1794-28.6973Q32.0316-28.6973 30.6877-29.9306Q29.3439-31.1639 29.3439-33.1883Q29.3439-35.1754 30.6877-36.4402Q32.0316-37.705 34.1794-37.705L62.3129-37.705Q64.4607-37.705 65.8045-36.4402Q67.1484-35.1754 67.1484-33.1883Q67.1484-31.1639 65.8045-29.9306Q64.4607-28.6973 62.3129-28.6973ZM38.5039-15.3387Q36.356-15.3387 35.0122-16.572Q33.6684-17.8053 33.6684-19.7809Q33.6684-21.7937 35.0122-23.0457Q36.356-24.2976 38.5039-24.2976L57.9769-24.2976Q60.1247-24.2976 61.4686-23.0457Q62.8124-21.7937 62.8124-19.7809Q62.8124-17.8053 61.4686-16.572Q60.1247-15.3387 57.9769-15.3387Z"/>
  </g>
  <g id="Bold-S" transform="matrix(1 0 0 1 2292.43 696)">
   <path d="M47.5342 5.46875Q55.9326 5.46875 63.2935 2.29492Q70.6543-0.878906 76.2695-6.50635Q81.8848-12.1338 85.0708-19.4946Q88.2568-26.8555 88.2568-35.2295Q88.2568-43.6035 85.0708-50.9644Q81.8848-58.3252 76.2573-63.9526Q70.6299-69.5801 63.269-72.7539Q55.9082-75.9277 47.5098-75.9277Q39.1357-75.9277 31.7749-72.7539Q24.4141-69.5801 18.811-63.9526Q13.208-58.3252 10.022-50.9644Q6.83594-43.6035 6.83594-35.2295Q6.83594-26.8555 10.022-19.4946Q13.208-12.1338 18.8232-6.50635Q24.4385-0.878906 31.7993 2.29492Q39.1602 5.46875 47.5342 5.46875ZM28.1738-42.3096Q26.2451-42.3096 25.0366-43.4082Q23.8281-44.5068 23.8281-46.3135Q23.8281-48.1445 25.0366-49.2554Q26.2451-50.3662 28.1738-50.3662L66.9922-50.3662Q68.9453-50.3662 70.1416-49.2554Q71.3379-48.1445 71.3379-46.3135Q71.3379-44.5068 70.1416-43.4082Q68.9453-42.3096 66.9922-42.3096ZM33.0322-28.9551Q31.1035-28.9551 29.895-30.0659Q28.6865-31.1768 28.6865-33.0078Q28.6865-34.8145 29.895-35.9375Q31.1035-37.0605 33.0322-37.0605L62.1582-37.0605Q64.0869-37.0605 65.2954-35.9375Q66.5039-34.8145 66.5039-33.0078Q66.5039-31.1768 65.2954-30.0659Q64.0869-28.9551 62.1582-28.9551ZM37.9883-15.6738Q36.0596-15.6738 34.8511-16.7847Q33.6426-17.8955 33.6426-19.6777Q33.6426-21.4844 34.8511-22.6074Q36.0596-23.7305 37.9883-23.7305L57.1777-23.7305Q59.1064-23.7305 60.3149-22.6074Q61.5234-21.4844 61.5234-19.6777Q61.5234-17.8955 60.3149-16.7847Q59.1064-15.6738 57.1777-15.6738Z"/>
  </g>
  <g id="Semibold-S" transform="matrix(1 0 0 1 1996.19 696)">
   <path d="M47.0632 4.98887Q55.355 4.98887 62.6314 1.85059Q69.9078-1.2877 75.4608-6.85737Q81.0139-12.4271 84.1688-19.7035Q87.3237-26.9799 87.3237-35.2384Q87.3237-43.4969 84.1688-50.7733Q81.0139-58.0497 75.4442-63.6194Q69.8745-69.1891 62.5981-72.3273Q55.3217-75.4656 47.0299-75.4656Q38.7714-75.4656 31.495-72.3273Q24.2186-69.1891 18.6822-63.6194Q13.1458-58.0497 9.99087-50.7733Q6.83594-43.4969 6.83594-35.2384Q6.83594-26.9799 9.99087-19.7035Q13.1458-12.4271 18.6988-6.85737Q24.2519-1.2877 31.5283 1.85059Q38.8047 4.98887 47.0632 4.98887ZM26.983-42.4429Q25.2231-42.4429 24.0991-43.4526Q22.975-44.4624 22.975-46.1269Q22.975-47.8246 24.0991-48.851Q25.2231-49.8774 26.983-49.8774L67.2766-49.8774Q69.0697-49.8774 70.1771-48.851Q71.2846-47.8246 71.2846-46.1269Q71.2846-44.4624 70.1771-43.4526Q69.0697-42.4429 67.2766-42.4429ZM32.2413-29.1328Q30.4637-29.1328 29.3485-30.1592Q28.2333-31.1856 28.2333-32.8834Q28.2333-34.5656 29.3485-35.5909Q30.4637-36.6162 32.2413-36.6162L62.0516-36.6162Q63.8292-36.6162 64.9444-35.5909Q66.0596-34.5656 66.0596-32.8834Q66.0596-31.1856 64.9444-30.1592Q63.8292-29.1328 62.0516-29.1328ZM37.6328-15.9049Q35.8552-15.9049 34.74-16.9313Q33.6248-17.9577 33.6248-19.6066Q33.6248-21.2711 34.74-22.3053Q35.8552-23.3395 37.6328-23.3395L56.6268-23.3395Q58.4044-23.3395 59.5196-22.3053Q60.6348-21.2711 60.6348-19.6066Q60.6348-17.9577 59.5196-16.9313Q58.4044-15.9049 56.6268-15.9049Z"/>
  </g>
  <g id="Medium-S" transform="matrix(1 0 0 1 1699.83 696)">
   <path d="M46.7061 4.625Q54.917 4.625 62.1294 1.51367Q69.3418-1.59766 74.8477-7.12354Q80.3535-12.6494 83.4849-19.8618Q86.6162-27.0742 86.6162-35.2451Q86.6162-43.416 83.4849-50.6284Q80.3535-57.8408 74.8276-63.3667Q69.3018-68.8926 62.0894-72.0039Q54.877-75.1152 46.666-75.1152Q38.4951-75.1152 31.2827-72.0039Q24.0703-68.8926 18.5845-63.3667Q13.0986-57.8408 9.96729-50.6284Q6.83594-43.416 6.83594-35.2451Q6.83594-27.0742 9.96729-19.8618Q13.0986-12.6494 18.6045-7.12354Q24.1104-1.59766 31.3228 1.51367Q38.5352 4.625 46.7061 4.625ZM26.0801-42.5439Q24.4482-42.5439 23.3882-43.4863Q22.3281-44.4287 22.3281-45.9854Q22.3281-47.582 23.3882-48.5444Q24.4482-49.5068 26.0801-49.5068L67.4922-49.5068Q69.1641-49.5068 70.2041-48.5444Q71.2441-47.582 71.2441-45.9854Q71.2441-44.4287 70.2041-43.4863Q69.1641-42.5439 67.4922-42.5439ZM31.6416-29.2676Q29.9785-29.2676 28.9341-30.23Q27.8896-31.1924 27.8896-32.7891Q27.8896-34.377 28.9341-35.3281Q29.9785-36.2793 31.6416-36.2793L61.9707-36.2793Q63.6338-36.2793 64.6782-35.3281Q65.7227-34.377 65.7227-32.7891Q65.7227-31.1924 64.6782-30.23Q63.6338-29.2676 61.9707-29.2676ZM37.3633-16.0801Q35.7002-16.0801 34.6558-17.0425Q33.6113-18.0049 33.6113-19.5527Q33.6113-21.1094 34.6558-22.0762Q35.7002-23.043 37.3633-23.043L56.209-23.043Q57.8721-23.043 58.9165-22.0762Q59.9609-21.1094 59.9609-19.5527Q59.9609-18.0049 58.9165-17.0425Q57.8721-16.0801 56.209-16.0801Z"/>
  </g>
  <g id="Regular-S" transform="matrix(1 0 0 1 1403.58 696)">
   <path d="M46.2402 4.15039Q54.3457 4.15039 61.4746 1.07422Q68.6035-2.00195 74.0479-7.4707Q79.4922-12.9395 82.5928-20.0684Q85.6934-27.1973 85.6934-35.2539Q85.6934-43.3105 82.5928-50.4395Q79.4922-57.5684 74.0234-63.0371Q68.5547-68.5059 61.4258-71.582Q54.2969-74.6582 46.1914-74.6582Q38.1348-74.6582 31.0059-71.582Q23.877-68.5059 18.457-63.0371Q13.0371-57.5684 9.93652-50.4395Q6.83594-43.3105 6.83594-35.2539Q6.83594-27.1973 9.93652-20.0684Q13.0371-12.9395 18.4814-7.4707Q23.9258-2.00195 31.0547 1.07422Q38.1836 4.15039 46.2402 4.15039ZM24.9023-42.6758Q23.4375-42.6758 22.4609-43.5303Q21.4844-44.3848 21.4844-45.8008Q21.4844-47.2656 22.4609-48.1445Q23.4375-49.0234 24.9023-49.0234L67.7734-49.0234Q69.2871-49.0234 70.2393-48.1445Q71.1914-47.2656 71.1914-45.8008Q71.1914-44.3848 70.2393-43.5303Q69.2871-42.6758 67.7734-42.6758ZM30.8594-29.4434Q29.3457-29.4434 28.3936-30.3223Q27.4414-31.2012 27.4414-32.666Q27.4414-34.1309 28.3936-34.9854Q29.3457-35.8398 30.8594-35.8398L61.8652-35.8398Q63.3789-35.8398 64.3311-34.9854Q65.2832-34.1309 65.2832-32.666Q65.2832-31.2012 64.3311-30.3223Q63.3789-29.4434 61.8652-29.4434ZM37.0117-16.3086Q35.498-16.3086 34.5459-17.1875Q33.5938-18.0664 33.5938-19.4824Q33.5938-20.8984 34.5459-21.7773Q35.498-22.6562 37.0117-22.6562L55.6641-22.6562Q57.1777-22.6562 58.1299-21.7773Q59.082-20.8984 59.082-19.4824Q59.082-18.0664 58.1299-17.1875Q57.1777-16.3086 55.6641-16.3086Z"/>
  </g>
  <g id="Light-S" transform="matrix(1 0 0 1 1107.6 696)">
   <path d="M45.5078 3.41797Q53.4831 3.41797 60.4736 0.406901Q67.4642-2.60417 72.8109-7.96712Q78.1576-13.3301 81.193-20.3206Q84.2285-27.3112 84.2285-35.2539Q84.2285-43.1966 81.193-50.1872Q78.1576-57.1777 72.7946-62.5407Q67.4316-67.9036 60.4411-70.9147Q53.4505-73.9258 45.4753-73.9258Q37.5488-73.9258 30.5501-70.9147Q23.5514-67.9036 18.2292-62.5407Q12.9069-57.1777 9.87142-50.1872Q6.83594-43.1966 6.83594-35.2539Q6.83594-27.3112 9.87142-20.3206Q12.9069-13.3301 18.2454-7.96712Q23.584-2.60417 30.5827 0.406901Q37.5814 3.41797 45.5078 3.41797ZM24.0397-43.457Q22.8841-43.457 22.1273-44.1325Q21.3704-44.8079 21.3704-45.9147Q21.3704-47.054 22.1273-47.7376Q22.8841-48.4212 24.0397-48.4212L67.1712-48.4212Q68.3431-48.4212 69.0837-47.7376Q69.8242-47.054 69.8242-45.9147Q69.8242-44.8079 69.0837-44.1325Q68.3431-43.457 67.1712-43.457ZM29.8503-30.4525Q28.6784-30.4525 27.9378-31.1361Q27.1973-31.8197 27.1973-32.959Q27.1973-34.0983 27.9378-34.7656Q28.6784-35.4329 29.8503-35.4329L61.3932-35.4329Q62.5488-35.4329 63.2894-34.7656Q64.0299-34.0983 64.0299-32.959Q64.0299-31.8197 63.2894-31.1361Q62.5488-30.4525 61.3932-30.4525ZM35.8887-17.4642Q34.7005-17.4642 33.96-18.1478Q33.2194-18.8314 33.2194-19.9382Q33.2194-21.0449 33.96-21.7285Q34.7005-22.4121 35.8887-22.4121L55.3385-22.4121Q56.4941-22.4121 57.2428-21.7285Q57.9915-21.0449 57.9915-19.9382Q57.9915-18.8314 57.2428-18.1478Q56.4941-17.4642 55.3385-17.4642Z"/>
  </g>
  <g id="Thin-S" transform="matrix(1 0 0 1 811.863 696)">
   <path d="M44.5391 2.44928Q52.3422 2.44928 59.1498-0.47568Q65.9573-3.40064 71.1749-8.62368Q76.3924-13.8467 79.3418-20.6543Q82.2911-27.4619 82.2911-35.2539Q82.2911-43.0459 79.3418-49.8535Q76.3924-56.6611 71.1694-61.8841Q65.9463-67.1072 59.1387-70.0321Q52.3311-72.9571 44.5281-72.9571Q36.7739-72.9571 29.9474-70.0321Q23.1209-67.1072 17.9278-61.8841Q12.7347-56.6611 9.78531-49.8535Q6.83594-43.0459 6.83594-35.2539Q6.83594-27.4619 9.78531-20.6543Q12.7347-13.8467 17.9333-8.62368Q23.1319-3.40064 29.9584-0.47568Q36.7849 2.44928 44.5391 2.44928ZM22.8988-44.4903Q22.1522-44.4903 21.686-44.929Q21.2198-45.3676 21.2198-46.0654Q21.2198-46.7742 21.686-47.1995Q22.1522-47.6247 22.8988-47.6247L66.3747-47.6247Q67.0946-47.6247 67.5553-47.1995Q68.016-46.7742 68.016-46.0654Q68.016-45.3676 67.5553-44.929Q67.0946-44.4903 66.3747-44.4903ZM28.5156-31.7871Q27.7958-31.7871 27.3351-32.2124Q26.8744-32.6377 26.8744-33.3465Q26.8744-34.0553 27.3351-34.475Q27.7958-34.8948 28.5156-34.8948L60.769-34.8948Q61.451-34.8948 61.9117-34.475Q62.3724-34.0553 62.3724-33.3465Q62.3724-32.6377 61.9117-32.2124Q61.451-31.7871 60.769-31.7871ZM34.4034-18.9926Q33.6457-18.9926 33.185-19.4178Q32.7243-19.8431 32.7243-20.5409Q32.7243-21.2387 33.185-21.6639Q33.6457-22.0892 34.4034-22.0892L54.908-22.0892Q55.59-22.0892 56.0697-21.6639Q56.5493-21.2387 56.5493-20.5409Q56.5493-19.8431 56.0697-19.4178Q55.59-18.9926 54.908-18.9926Z"/>
  </g>
  <g id="Ultralight-S" transform="matrix(1 0 0 1 515.649 696)">
   <path d="M44.043 1.95312Q51.7578 1.95312 58.4717-0.927734Q65.1855-3.80859 70.3369-8.95996Q75.4883-14.1113 78.3936-20.8252Q81.2988-27.5391 81.2988-35.2539Q81.2988-42.9688 78.3936-49.6826Q75.4883-56.3965 70.3369-61.5479Q65.1855-66.6992 58.4717-69.5801Q51.7578-72.4609 44.043-72.4609Q36.377-72.4609 29.6387-69.5801Q22.9004-66.6992 17.7734-61.5479Q12.6465-56.3965 9.74121-49.6826Q6.83594-42.9688 6.83594-35.2539Q6.83594-27.5391 9.74121-20.8252Q12.6465-14.1113 17.7734-8.95996Q22.9004-3.80859 29.6387-0.927734Q36.377 1.95312 44.043 1.95312ZM22.3145-45.0195Q21.7773-45.0195 21.46-45.3369Q21.1426-45.6543 21.1426-46.1426Q21.1426-46.6309 21.46-46.9238Q21.7773-47.2168 22.3145-47.2168L65.9668-47.2168Q66.4551-47.2168 66.7725-46.9238Q67.0898-46.6309 67.0898-46.1426Q67.0898-45.6543 66.7725-45.3369Q66.4551-45.0195 65.9668-45.0195ZM27.832-32.4707Q27.3438-32.4707 27.0264-32.7637Q26.709-33.0566 26.709-33.5449Q26.709-34.0332 27.0264-34.3262Q27.3438-34.6191 27.832-34.6191L60.4492-34.6191Q60.8887-34.6191 61.2061-34.3262Q61.5234-34.0332 61.5234-33.5449Q61.5234-33.0566 61.2061-32.7637Q60.8887-32.4707 60.4492-32.4707ZM33.6426-19.7754Q33.1055-19.7754 32.7881-20.0684Q32.4707-20.3613 32.4707-20.8496Q32.4707-21.3379 32.7881-21.6309Q33.1055-21.9238 33.6426-21.9238L54.6875-21.9238Q55.127-21.9238 55.4688-21.6309Q55.8105-21.3379 55.8105-20.8496Q55.8105-20.3613 55.4688-20.0684Q55.127-19.7754 54.6875-19.7754Z"/>
  </g>
 </g>
</svg>
