<?xml version="1.0" encoding="UTF-8"?>
<!--Generator: Apple Native CoreSVG 175.5-->
<!DOCTYPE svg
PUBLIC "-//W3C//DTD SVG 1.1//EN"
       "http://www.w3.org/Graphics/SVG/1.1/DTD/svg11.dtd">
<svg version="1.1" xmlns="http://www.w3.org/2000/svg" xmlns:xlink="http://www.w3.org/1999/xlink" width="3300" height="2200">
 <!--glyph: "uni100370.medium", point size: 100.0, font version: "18.0d9e1", template writer version: "84"-->
 <g id="Notes">
  <rect height="2200" id="artboard" style="fill:white;opacity:1" width="3300" x="0" y="0"/>
  <line style="fill:none;stroke:black;opacity:1;stroke-width:0.5;" x1="263" x2="3036" y1="292" y2="292"/>
  <text style="stroke:none;fill:black;font-family:sans-serif;font-size:13;font-weight:bold;" transform="matrix(1 0 0 1 263 322)">Weight/Scale Variations</text>
  <text style="stroke:none;fill:black;font-family:sans-serif;font-size:13;text-anchor:middle;" transform="matrix(1 0 0 1 559.711 322)">Ultralight</text>
  <text style="stroke:none;fill:black;font-family:sans-serif;font-size:13;text-anchor:middle;" transform="matrix(1 0 0 1 856.422 322)">Thin</text>
  <text style="stroke:none;fill:black;font-family:sans-serif;font-size:13;text-anchor:middle;" transform="matrix(1 0 0 1 1153.13 322)">Light</text>
  <text style="stroke:none;fill:black;font-family:sans-serif;font-size:13;text-anchor:middle;" transform="matrix(1 0 0 1 1449.84 322)">Regular</text>
  <text style="stroke:none;fill:black;font-family:sans-serif;font-size:13;text-anchor:middle;" transform="matrix(1 0 0 1 1746.56 322)">Medium</text>
  <text style="stroke:none;fill:black;font-family:sans-serif;font-size:13;text-anchor:middle;" transform="matrix(1 0 0 1 2043.27 322)">Semibold</text>
  <text style="stroke:none;fill:black;font-family:sans-serif;font-size:13;text-anchor:middle;" transform="matrix(1 0 0 1 2339.98 322)">Bold</text>
  <text style="stroke:none;fill:black;font-family:sans-serif;font-size:13;text-anchor:middle;" transform="matrix(1 0 0 1 2636.69 322)">Heavy</text>
  <text style="stroke:none;fill:black;font-family:sans-serif;font-size:13;text-anchor:middle;" transform="matrix(1 0 0 1 2933.4 322)">Black</text>
  <line style="fill:none;stroke:black;opacity:1;stroke-width:0.5;" x1="263" x2="3036" y1="1903" y2="1903"/>
  <g transform="matrix(1 0 0 1 263 1933)">
   <path d="M9.24805 0.830078Q10.8691 0.830078 12.2949 0.214844Q13.7207-0.400391 14.8096-1.49414Q15.8984-2.58789 16.5186-4.01367Q17.1387-5.43945 17.1387-7.05078Q17.1387-8.66211 16.5186-10.0879Q15.8984-11.5137 14.8047-12.6074Q13.7109-13.7012 12.2852-14.3164Q10.8594-14.9316 9.23828-14.9316Q7.62695-14.9316 6.20117-14.3164Q4.77539-13.7012 3.69141-12.6074Q2.60742-11.5137 1.9873-10.0879Q1.36719-8.66211 1.36719-7.05078Q1.36719-5.43945 1.9873-4.01367Q2.60742-2.58789 3.69629-1.49414Q4.78516-0.400391 6.21094 0.214844Q7.63672 0.830078 9.24805 0.830078ZM9.24805-0.654297Q7.91992-0.654297 6.7627-1.14746Q5.60547-1.64062 4.73145-2.51953Q3.85742-3.39844 3.36426-4.56055Q2.87109-5.72266 2.87109-7.05078Q2.87109-8.37891 3.35938-9.54102Q3.84766-10.7031 4.72168-11.582Q5.5957-12.4609 6.75293-12.9541Q7.91016-13.4473 9.23828-13.4473Q10.5762-13.4473 11.7383-12.9541Q12.9004-12.4609 13.7793-11.582Q14.6582-10.7031 15.1514-9.54102Q15.6445-8.37891 15.6445-7.05078Q15.6445-5.72266 15.1514-4.56055Q14.6582-3.39844 13.7793-2.51953Q12.9004-1.64062 11.7432-1.14746Q10.5859-0.654297 9.24805-0.654297ZM5.6543-7.05078Q5.6543-6.72852 5.85938-6.52832Q6.06445-6.32812 6.40625-6.32812L8.51562-6.32812L8.51562-4.20898Q8.51562-3.88672 8.71094-3.67676Q8.90625-3.4668 9.23828-3.4668Q9.56055-3.4668 9.77051-3.67676Q9.98047-3.88672 9.98047-4.20898L9.98047-6.32812L12.0898-6.32812Q12.4219-6.32812 12.627-6.52832Q12.832-6.72852 12.832-7.05078Q12.832-7.38281 12.627-7.58789Q12.4219-7.79297 12.0898-7.79297L9.98047-7.79297L9.98047-9.90234Q9.98047-10.2344 9.77051-10.4443Q9.56055-10.6543 9.23828-10.6543Q8.90625-10.6543 8.71094-10.4443Q8.51562-10.2344 8.51562-9.90234L8.51562-7.79297L6.40625-7.79297Q6.06445-7.79297 5.85938-7.58789Q5.6543-7.38281 5.6543-7.05078Z"/>
  </g>
  <g transform="matrix(1 0 0 1 281.867 1933)">
   <path d="M11.709 2.91016Q13.75 2.91016 15.5518 2.12891Q17.3535 1.34766 18.7305-0.0292969Q20.1074-1.40625 20.8887-3.20801Q21.6699-5.00977 21.6699-7.05078Q21.6699-9.0918 20.8887-10.8936Q20.1074-12.6953 18.7305-14.0723Q17.3535-15.4492 15.5469-16.2305Q13.7402-17.0117 11.6992-17.0117Q9.6582-17.0117 7.85645-16.2305Q6.05469-15.4492 4.68262-14.0723Q3.31055-12.6953 2.5293-10.8936Q1.74805-9.0918 1.74805-7.05078Q1.74805-5.00977 2.5293-3.20801Q3.31055-1.40625 4.6875-0.0292969Q6.06445 1.34766 7.86621 2.12891Q9.66797 2.91016 11.709 2.91016ZM11.709 1.25Q9.98047 1.25 8.47656 0.605469Q6.97266-0.0390625 5.83496-1.17676Q4.69727-2.31445 4.05762-3.81836Q3.41797-5.32227 3.41797-7.05078Q3.41797-8.7793 4.05762-10.2832Q4.69727-11.7871 5.83008-12.9297Q6.96289-14.0723 8.4668-14.7119Q9.9707-15.3516 11.6992-15.3516Q13.4277-15.3516 14.9365-14.7119Q16.4453-14.0723 17.583-12.9297Q18.7207-11.7871 19.3652-10.2832Q20.0098-8.7793 20.0098-7.05078Q20.0098-5.32227 19.3701-3.81836Q18.7305-2.31445 17.5879-1.17676Q16.4453-0.0390625 14.9414 0.605469Q13.4375 1.25 11.709 1.25ZM7.17773-7.05078Q7.17773-6.69922 7.41211-6.47461Q7.64648-6.25 8.01758-6.25L10.8887-6.25L10.8887-3.36914Q10.8887-2.99805 11.1133-2.76855Q11.3379-2.53906 11.6895-2.53906Q12.0605-2.53906 12.29-2.76855Q12.5195-2.99805 12.5195-3.36914L12.5195-6.25L15.4004-6.25Q15.7715-6.25 16.001-6.47461Q16.2305-6.69922 16.2305-7.05078Q16.2305-7.42188 16.001-7.65137Q15.7715-7.88086 15.4004-7.88086L12.5195-7.88086L12.5195-10.752Q12.5195-11.1328 12.29-11.3623Q12.0605-11.5918 11.6895-11.5918Q11.3379-11.5918 11.1133-11.3574Q10.8887-11.123 10.8887-10.752L10.8887-7.88086L8.01758-7.88086Q7.63672-7.88086 7.40723-7.65137Q7.17773-7.42188 7.17773-7.05078Z"/>
  </g>
  <g transform="matrix(1 0 0 1 305.646 1933)">
   <path d="M14.9707 5.66406Q17.0605 5.66406 18.96 5.01465Q20.8594 4.36523 22.4512 3.19336Q24.043 2.02148 25.2197 0.429688Q26.3965-1.16211 27.0459-3.06641Q27.6953-4.9707 27.6953-7.05078Q27.6953-9.14062 27.0459-11.04Q26.3965-12.9395 25.2197-14.5312Q24.043-16.123 22.4512-17.2998Q20.8594-18.4766 18.9551-19.126Q17.0508-19.7754 14.9609-19.7754Q12.8711-19.7754 10.9717-19.126Q9.07227-18.4766 7.48535-17.2998Q5.89844-16.123 4.72168-14.5312Q3.54492-12.9395 2.90039-11.04Q2.25586-9.14062 2.25586-7.05078Q2.25586-4.9707 2.90527-3.06641Q3.55469-1.16211 4.72656 0.429688Q5.89844 2.02148 7.49023 3.19336Q9.08203 4.36523 10.9814 5.01465Q12.8809 5.66406 14.9707 5.66406ZM14.9707 3.84766Q13.1641 3.84766 11.5283 3.2959Q9.89258 2.74414 8.53516 1.74805Q7.17773 0.751953 6.17676-0.610352Q5.17578-1.97266 4.62891-3.6084Q4.08203-5.24414 4.08203-7.05078Q4.08203-8.86719 4.62891-10.5029Q5.17578-12.1387 6.17188-13.501Q7.16797-14.8633 8.52539-15.8594Q9.88281-16.8555 11.5186-17.4023Q13.1543-17.9492 14.9609-17.9492Q16.7773-17.9492 18.4131-17.4023Q20.0488-16.8555 21.4111-15.8594Q22.7734-14.8633 23.7744-13.501Q24.7754-12.1387 25.3223-10.5029Q25.8691-8.86719 25.8691-7.05078Q25.8691-5.24414 25.3223-3.6084Q24.7754-1.97266 23.7793-0.610352Q22.7832 0.751953 21.4209 1.74805Q20.0586 2.74414 18.4229 3.2959Q16.7871 3.84766 14.9707 3.84766ZM9.19922-7.05078Q9.19922-6.66992 9.45801-6.4209Q9.7168-6.17188 10.1172-6.17188L14.0625-6.17188L14.0625-2.2168Q14.0625-1.81641 14.3115-1.55762Q14.5605-1.29883 14.9512-1.29883Q15.3516-1.29883 15.6104-1.55273Q15.8691-1.80664 15.8691-2.2168L15.8691-6.17188L19.8242-6.17188Q20.2246-6.17188 20.4785-6.4209Q20.7324-6.66992 20.7324-7.05078Q20.7324-7.46094 20.4785-7.71484Q20.2246-7.96875 19.8242-7.96875L15.8691-7.96875L15.8691-11.9141Q15.8691-12.3242 15.6104-12.583Q15.3516-12.8418 14.9512-12.8418Q14.5605-12.8418 14.3115-12.583Q14.0625-12.3242 14.0625-11.9141L14.0625-7.96875L10.1172-7.96875Q9.70703-7.96875 9.45312-7.71484Q9.19922-7.46094 9.19922-7.05078Z"/>
  </g>
  <text style="stroke:none;fill:black;font-family:sans-serif;font-size:13;font-weight:bold;" transform="matrix(1 0 0 1 263 1953)">Design Variations</text>
  <text style="stroke:none;fill:black;font-family:sans-serif;font-size:13;" transform="matrix(1 0 0 1 263 1971)">Symbols are supported in up to nine weights and three scales.</text>
  <text style="stroke:none;fill:black;font-family:sans-serif;font-size:13;" transform="matrix(1 0 0 1 263 1989)">For optimal layout with text and other symbols, vertically align</text>
  <text style="stroke:none;fill:black;font-family:sans-serif;font-size:13;" transform="matrix(1 0 0 1 263 2007)">symbols with the adjacent text.</text>
  <line style="fill:none;stroke:#00AEEF;stroke-width:0.5;opacity:1.0;" x1="776" x2="776" y1="1919" y2="1933"/>
  <g transform="matrix(1 0 0 1 776 1933)">
   <path d="M3.31055 0.15625Q3.70117 0.15625 3.91602-0.00976562Q4.13086-0.175781 4.26758-0.585938L5.52734-4.0332L11.2891-4.0332L12.5488-0.585938Q12.6855-0.175781 12.9004-0.00976562Q13.1152 0.15625 13.4961 0.15625Q13.8867 0.15625 14.1162-0.0585938Q14.3457-0.273438 14.3457-0.644531Q14.3457-0.869141 14.2383-1.17188L9.6582-13.3691Q9.48242-13.8184 9.17969-14.043Q8.87695-14.2676 8.4082-14.2676Q7.5-14.2676 7.17773-13.3789L2.59766-1.16211Q2.49023-0.859375 2.49023-0.634766Q2.49023-0.263672 2.70996-0.0537109Q2.92969 0.15625 3.31055 0.15625ZM6.00586-5.51758L8.37891-12.0898L8.42773-12.0898L10.8008-5.51758Z"/>
  </g>
  <line style="fill:none;stroke:#00AEEF;stroke-width:0.5;opacity:1.0;" x1="793.197" x2="793.197" y1="1919" y2="1933"/>
  <text style="stroke:none;fill:black;font-family:sans-serif;font-size:13;font-weight:bold;" transform="matrix(1 0 0 1 776 1953)">Margins</text>
  <text style="stroke:none;fill:black;font-family:sans-serif;font-size:13;" transform="matrix(1 0 0 1 776 1971)">Leading and trailing margins on the left and right side of each symbol</text>
  <text style="stroke:none;fill:black;font-family:sans-serif;font-size:13;" transform="matrix(1 0 0 1 776 1989)">can be adjusted by modifying the x-location of the margin guidelines.</text>
  <text style="stroke:none;fill:black;font-family:sans-serif;font-size:13;" transform="matrix(1 0 0 1 776 2007)">Modifications are automatically applied proportionally to all</text>
  <text style="stroke:none;fill:black;font-family:sans-serif;font-size:13;" transform="matrix(1 0 0 1 776 2025)">scales and weights.</text>
  <g transform="matrix(1 0 0 1 1289 1933)">
   <path d="M2.8418 1.86523L4.54102 3.57422Q5.18555 4.22852 5.90332 4.17969Q6.62109 4.13086 7.31445 3.35938L18.0078-8.42773L17.041-9.4043L6.42578 2.27539Q6.16211 2.57812 5.89355 2.61719Q5.625 2.65625 5.27344 2.30469L4.10156 1.14258Q3.75 0.791016 3.79395 0.522461Q3.83789 0.253906 4.14062-0.0195312L15.6152-10.8203L14.6387-11.7871L3.04688-0.898438Q2.30469-0.214844 2.25098 0.498047Q2.19727 1.21094 2.8418 1.86523ZM9.25781-16.3281Q8.94531-16.0254 8.90625-15.6348Q8.86719-15.2441 9.04297-14.9512Q9.21875-14.6777 9.55566-14.541Q9.89258-14.4043 10.3809-14.5215Q11.4746-14.7754 12.5977-14.7314Q13.7207-14.6875 14.7949-13.9844L14.209-12.5293Q13.9551-11.9043 14.0674-11.4404Q14.1797-10.9766 14.5801-10.5664L16.875-8.25195Q17.2363-7.88086 17.5781-7.82227Q17.9199-7.76367 18.3398-7.8418L19.4043-8.03711L20.0684-7.36328L20.0293-6.80664Q20-6.43555 20.1221-6.12305Q20.2441-5.81055 20.6055-5.44922L21.3672-4.70703Q21.7285-4.3457 22.1533-4.33105Q22.5781-4.31641 22.9297-4.66797L25.8398-7.58789Q26.1914-7.93945 26.1816-8.35449Q26.1719-8.76953 25.8105-9.13086L25.0391-9.89258Q24.6875-10.2539 24.3799-10.3857Q24.0723-10.5176 23.7109-10.4883L23.1348-10.4395L22.4902-11.0742L22.7344-12.1973Q22.832-12.6172 22.6953-12.9834Q22.5586-13.3496 22.1191-13.7891L19.9219-15.9766Q18.6719-17.2168 17.2607-17.8369Q15.8496-18.457 14.4189-18.4814Q12.9883-18.5059 11.665-17.959Q10.3418-17.4121 9.25781-16.3281ZM10.752-15.957Q11.6602-16.6211 12.7002-16.9043Q13.7402-17.1875 14.8047-17.085Q15.8691-16.9824 16.8701-16.5137Q17.8711-16.0449 18.7012-15.2051L21.1328-12.793Q21.3086-12.6172 21.3525-12.4512Q21.3965-12.2852 21.3379-12.0312L21.0156-10.5469L22.5195-9.0625L23.5059-9.12109Q23.6914-9.13086 23.7891-9.09668Q23.8867-9.0625 24.0332-8.91602L24.6094-8.33984L22.168-5.89844L21.5918-6.47461Q21.4453-6.62109 21.4062-6.71875Q21.3672-6.81641 21.377-7.01172L21.4453-7.98828L19.9512-9.47266L18.4277-9.21875Q18.1836-9.16992 18.042-9.2041Q17.9004-9.23828 17.7148-9.41406L15.7129-11.416Q15.5176-11.5918 15.4932-11.7529Q15.4688-11.9141 15.5859-12.1875L16.4648-14.2773Q15.293-15.3711 13.8281-15.791Q12.3633-16.2109 10.8398-15.7617Q10.7227-15.7324 10.6885-15.8057Q10.6543-15.8789 10.752-15.957Z"/>
  </g>
  <text style="stroke:none;fill:black;font-family:sans-serif;font-size:13;font-weight:bold;" transform="matrix(1 0 0 1 1289 1953)">Exporting</text>
  <text style="stroke:none;fill:black;font-family:sans-serif;font-size:13;" transform="matrix(1 0 0 1 1289 1971)">Symbols should be outlined when exporting to ensure the</text>
  <text style="stroke:none;fill:black;font-family:sans-serif;font-size:13;" transform="matrix(1 0 0 1 1289 1989)">design is preserved when submitting to Xcode.</text>
  <text id="template-version" style="stroke:none;fill:black;font-family:sans-serif;font-size:13;text-anchor:end;" transform="matrix(1 0 0 1 3036 1933)">Template v.2.0</text>
  <text style="stroke:none;fill:black;font-family:sans-serif;font-size:13;text-anchor:end;" transform="matrix(1 0 0 1 3036 1951)">Requires Xcode 12 or greater</text>
  <text id="descriptive-name" style="stroke:none;fill:black;font-family:sans-serif;font-size:13;text-anchor:end;" transform="matrix(1 0 0 1 3036 1969)">Generated from creditcard.fill</text>
  <text style="stroke:none;fill:black;font-family:sans-serif;font-size:13;text-anchor:end;" transform="matrix(1 0 0 1 3036 1987)">Typeset at 100 points</text>
  <text style="stroke:none;fill:black;font-family:sans-serif;font-size:13;" transform="matrix(1 0 0 1 263 726)">Small</text>
  <text style="stroke:none;fill:black;font-family:sans-serif;font-size:13;" transform="matrix(1 0 0 1 263 1156)">Medium</text>
  <text style="stroke:none;fill:black;font-family:sans-serif;font-size:13;" transform="matrix(1 0 0 1 263 1586)">Large</text>
 </g>
 <g id="Guides">
  <g id="H-reference" style="fill:#27AAE1;stroke:none;" transform="matrix(1 0 0 1 339 696)">
   <path d="M0.993347 0L3.6377 0L29.3282-67.1326L30.0301-67.1326L30.0301-70.459L28.1227-70.459ZM11.6882-24.4797L46.9818-24.4797L46.2311-26.7288L12.4382-26.7288ZM55.1193 0L57.7637 0L30.6381-70.459L29.4327-70.459L29.4327-67.1326Z"/>
  </g>
  <line id="Baseline-S" style="fill:none;stroke:#27AAE1;opacity:1;stroke-width:0.5;" x1="263" x2="3036" y1="696" y2="696"/>
  <line id="Capline-S" style="fill:none;stroke:#27AAE1;opacity:1;stroke-width:0.5;" x1="263" x2="3036" y1="625.541" y2="625.541"/>
  <g id="H-reference" style="fill:#27AAE1;stroke:none;" transform="matrix(1 0 0 1 339 1126)">
   <path d="M0.993347 0L3.6377 0L29.3282-67.1326L30.0301-67.1326L30.0301-70.459L28.1227-70.459ZM11.6882-24.4797L46.9818-24.4797L46.2311-26.7288L12.4382-26.7288ZM55.1193 0L57.7637 0L30.6381-70.459L29.4327-70.459L29.4327-67.1326Z"/>
  </g>
  <line id="Baseline-M" style="fill:none;stroke:#27AAE1;opacity:1;stroke-width:0.5;" x1="263" x2="3036" y1="1126" y2="1126"/>
  <line id="Capline-M" style="fill:none;stroke:#27AAE1;opacity:1;stroke-width:0.5;" x1="263" x2="3036" y1="1055.54" y2="1055.54"/>
  <g id="H-reference" style="fill:#27AAE1;stroke:none;" transform="matrix(1 0 0 1 339 1556)">
   <path d="M0.993347 0L3.6377 0L29.3282-67.1326L30.0301-67.1326L30.0301-70.459L28.1227-70.459ZM11.6882-24.4797L46.9818-24.4797L46.2311-26.7288L12.4382-26.7288ZM55.1193 0L57.7637 0L30.6381-70.459L29.4327-70.459L29.4327-67.1326Z"/>
  </g>
  <line id="Baseline-L" style="fill:none;stroke:#27AAE1;opacity:1;stroke-width:0.5;" x1="263" x2="3036" y1="1556" y2="1556"/>
  <line id="Capline-L" style="fill:none;stroke:#27AAE1;opacity:1;stroke-width:0.5;" x1="263" x2="3036" y1="1485.54" y2="1485.54"/>
  <line id="left-margin" style="fill:none;stroke:#00AEEF;stroke-width:0.5;opacity:1.0;" x1="1380.03" x2="1380.03" y1="1030.79" y2="1150.12"/>
  <line id="right-margin" style="fill:none;stroke:#00AEEF;stroke-width:0.5;opacity:1.0;" x1="1519.66" x2="1519.66" y1="1030.79" y2="1150.12"/>
 </g>
 <g id="Symbols">
  <g id="Black-L" transform="matrix(1 0 0 1 2841 1556)">
   <path d="M44.0548 0.0050531Q41.3205 0.0050531 39.5915-1.68377Q37.8624-3.37258 37.8624-6.02644L37.8624-17.6885Q37.8624-20.3424 39.5915-22.0312Q41.3205-23.72 44.0548-23.72L59.4954-23.72Q62.3101-23.72 63.9989-22.0312Q65.6877-20.3424 65.6877-17.6885L65.6877-6.02644Q65.6877-3.37258 63.9989-1.68377Q62.3101 0.0050531 59.4954 0.0050531ZM16.084-47.1604L16.084-63.375L168.713-63.375L168.713-47.1604ZM39.8556 21.7847L144.942 21.7847Q156.31 21.7847 162.511 15.6029Q168.713 9.42107 168.713-1.90369L168.713-68.4725Q168.713-79.7972 162.511-85.9791Q156.31-92.1609 144.942-92.1609L39.8556-92.1609Q28.5077-92.1609 22.2958-85.9796Q16.084-79.7984 16.084-68.4725L16.084-1.90369Q16.084 9.42225 22.2958 15.6035Q28.5077 21.7847 39.8556 21.7847Z"/>
  </g>
  <g id="Heavy-L" transform="matrix(1 0 0 1 2544.89 1556)">
   <path d="M43.4856-0.252534Q40.7513-0.252534 39.0223-1.94135Q37.2933-3.63017 37.2933-6.28403L37.2933-17.9506Q37.2933-20.6044 39.0223-22.2933Q40.7513-23.9821 43.4856-23.9821L58.9262-23.9821Q61.7409-23.9821 63.4298-22.2933Q65.1186-20.6044 65.1186-17.9506L65.1186-6.28403Q65.1186-3.63017 63.4298-1.94135Q61.7409-0.252534 58.9262-0.252534ZM16.084-47.6981L16.084-63.4506L167.523-63.4506L167.523-47.6981ZM38.8315 20.9623L144.781 20.9623Q155.754 20.9623 161.638 15.1026Q167.523 9.24281 167.523-1.66441L167.523-68.7029Q167.523-79.6102 161.638-85.4699Q155.754-91.3297 144.781-91.3297L38.8315-91.3297Q27.8828-91.3297 21.9834-85.4727Q16.084-79.6157 16.084-68.7029L16.084-1.66441Q16.084 9.24837 21.9834 15.1054Q27.8828 20.9623 38.8315 20.9623Z"/>
  </g>
  <g id="Bold-L" transform="matrix(1 0 0 1 2248.94 1556)">
   <path d="M42.7713-0.604899Q40.037-0.604899 38.308-2.29372Q36.579-3.98254 36.579-6.63639L36.579-18.3106Q36.579-20.9645 38.308-22.6533Q40.037-24.3421 42.7713-24.3421L58.2119-24.3421Q61.0266-24.3421 62.7154-22.6533Q64.4043-20.9645 64.4043-18.3106L64.4043-6.63639Q64.4043-3.98254 62.7154-2.29372Q61.0266-0.604899 58.2119-0.604899ZM16.084-48.3665L16.084-63.5726L165.988-63.5726L165.988-48.3665ZM37.5412 19.9032L144.544 19.9032Q154.995 19.9032 160.492 14.4318Q165.988 8.96043 165.988-1.40209L165.988-68.95Q165.988-79.3125 160.492-84.7839Q154.995-90.2553 144.544-90.2553L37.5412-90.2553Q27.1142-90.2553 21.5991-84.7905Q16.084-79.3257 16.084-68.95L16.084-1.40209Q16.084 8.97355 21.5991 14.4384Q27.1142 19.9032 37.5412 19.9032Z"/>
  </g>
  <g id="Semibold-L" transform="matrix(1 0 0 1 1952.76 1556)">
   <path d="M42.2789-0.847818Q39.5446-0.847818 37.8156-2.53664Q36.0865-4.22545 36.0865-6.87931L36.0865-18.5588Q36.0865-21.2127 37.8156-22.9015Q39.5446-24.5903 42.2789-24.5903L57.7195-24.5903Q60.5342-24.5903 62.223-22.9015Q63.9118-21.2127 63.9118-18.5588L63.9118-6.87931Q63.9118-4.22545 62.223-2.53664Q60.5342-0.847818 57.7195-0.847818ZM16.084-48.8274L16.084-63.6568L164.93-63.6568L164.93-48.8274ZM36.6518 19.173L144.38 19.173Q154.473 19.173 159.701 13.9694Q164.93 8.76576 164.93-1.22125L164.93-69.1204Q164.93-79.1074 159.701-84.311Q154.473-89.5147 144.38-89.5147L36.6518-89.5147Q26.5843-89.5147 21.3341-84.3202Q16.084-79.1257 16.084-69.1204L16.084-1.22125Q16.084 8.78408 21.3341 13.9786Q26.5843 19.173 36.6518 19.173Z"/>
  </g>
  <g id="Medium-L" transform="matrix(1 0 0 1 1656.45 1556)">
   <path d="M41.9055-1.03201Q39.1712-1.03201 37.4422-2.72083Q35.7131-4.40965 35.7131-7.0635L35.7131-18.747Q35.7131-21.4009 37.4422-23.0897Q39.1712-24.7785 41.9055-24.7785L57.3461-24.7785Q60.1608-24.7785 61.8496-23.0897Q63.5384-21.4009 63.5384-18.747L63.5384-7.0635Q63.5384-4.40965 61.8496-2.72083Q60.1608-1.03201 57.3461-1.03201ZM16.084-49.1768L16.084-63.7205L164.127-63.7205L164.127-49.1768ZM35.9773 18.6194L144.256 18.6194Q154.076 18.6194 159.102 13.6188Q164.127 8.61816 164.127-1.08412L164.127-69.2495Q164.127-78.9518 159.102-83.9524Q154.076-88.9531 144.256-88.9531L35.9773-88.9531Q26.1825-88.9531 21.1332-83.9636Q16.084-78.9741 16.084-69.2495L16.084-1.08412Q16.084 8.64042 21.1332 13.6299Q26.1825 18.6194 35.9773 18.6194Z"/>
  </g>
  <g id="Regular-L" transform="matrix(1 0 0 1 1360.26 1556)">
   <path d="M41.4184-1.27226Q38.6842-1.27226 36.9551-2.96108Q35.2261-4.64989 35.2261-7.30375L35.2261-18.9925Q35.2261-21.6464 36.9551-23.3352Q38.6842-25.024 41.4184-25.024L56.8591-25.024Q59.6738-25.024 61.3626-23.3352Q63.0514-21.6464 63.0514-18.9925L63.0514-7.30375Q63.0514-4.64989 61.3626-2.96108Q59.6738-1.27226 56.8591-1.27226ZM16.084-49.6325L16.084-63.8037L163.081-63.8037L163.081-49.6325ZM35.0976 17.8973L144.095 17.8973Q153.559 17.8973 158.32 13.1615Q163.081 8.42563 163.081-0.905271L163.081-69.418Q163.081-78.7489 158.32-83.4847Q153.559-88.2206 144.095-88.2206L35.0976-88.2206Q25.6584-88.2206 20.8712-83.4984Q16.084-78.7763 16.084-69.418L16.084-0.905271Q16.084 8.45304 20.8712 13.1752Q25.6584 17.8973 35.0976 17.8973Z"/>
  </g>
  <g id="Light-L" transform="matrix(1 0 0 1 1064.28 1556)">
   <path d="M40.865-1.73015Q38.1307-1.73015 36.4017-3.41897Q34.6727-5.10779 34.6727-7.76165L34.6727-19.4697Q34.6727-22.1235 36.4017-23.8123Q38.1307-25.5012 40.865-25.5012L56.3056-25.5012Q59.1203-25.5012 60.8091-23.8123Q62.498-22.1235 62.498-19.4697L62.498-7.76165Q62.498-5.10779 60.8091-3.41897Q59.1203-1.73015 56.3056-1.73015ZM16.084-50.1096L16.084-64.0708L161.631-64.0708L161.631-50.1096ZM34.067 16.9049L143.694 16.9049Q152.586 16.9049 157.108 12.3694Q161.631 7.83402 161.631-0.943429L161.631-69.3417Q161.631-78.1191 157.108-82.6545Q152.586-87.19 143.694-87.19L34.067-87.19Q25.1621-87.19 20.623-82.6777Q16.084-78.1655 16.084-69.3417L16.084-0.943429Q16.084 7.88035 20.623 12.3926Q25.1621 16.9049 34.067 16.9049Z"/>
  </g>
  <g id="Thin-L" transform="matrix(1 0 0 1 768.524 1556)">
   <path d="M40.133-2.33576Q37.3987-2.33576 35.6697-4.02458Q33.9407-5.7134 33.9407-8.36725L33.9407-20.1007Q33.9407-22.7546 35.6697-24.4434Q37.3987-26.1322 40.133-26.1322L55.5736-26.1322Q58.3883-26.1322 60.0772-24.4434Q61.766-22.7546 61.766-20.1007L61.766-8.36725Q61.766-5.7134 60.0772-4.02458Q58.3883-2.33576 55.5736-2.33576ZM16.084-50.7407L16.084-64.4241L159.712-64.4241L159.712-50.7407ZM32.704 15.5923L143.164 15.5923Q151.299 15.5923 155.505 11.3219Q159.712 7.05157 159.712-0.993896L159.712-69.2407Q159.712-77.2862 155.505-81.5566Q151.299-85.8269 143.164-85.8269L32.704-85.8269Q24.5056-85.8269 20.2948-81.5922Q16.084-77.3576 16.084-69.2407L16.084-0.993896Q16.084 7.12292 20.2948 11.3576Q24.5056 15.5923 32.704 15.5923Z"/>
  </g>
  <g id="Ultralight-L" transform="matrix(1 0 0 1 472.305 1556)">
   <path d="M39.7581-2.64595Q37.0238-2.64595 35.2948-4.33477Q33.5658-6.02358 33.5658-8.67744L33.5658-20.4239Q33.5658-23.0778 35.2948-24.7666Q37.0238-26.4554 39.7581-26.4554L55.1987-26.4554Q58.0134-26.4554 59.7022-24.7666Q61.3911-23.0778 61.3911-20.4239L61.3911-8.67744Q61.3911-6.02358 59.7022-4.33477Q58.0134-2.64595 55.1987-2.64595ZM16.084-51.0639L16.084-64.6051L158.73-64.6051L158.73-51.0639ZM32.0059 14.92L142.892 14.92Q150.639 14.92 154.685 10.7854Q158.73 6.6508 158.73-1.01974L158.73-69.1891Q158.73-76.8596 154.685-80.9942Q150.639-85.1288 142.892-85.1288L32.0059-85.1288Q24.1693-85.1288 20.1266-81.0363Q16.084-76.9438 16.084-69.1891L16.084-1.01974Q16.084 6.73497 20.1266 10.8275Q24.1693 14.92 32.0059 14.92Z"/>
  </g>
  <g id="Black-M" transform="matrix(1 0 0 1 2861.4 1126)">
   <path d="M34.5453-7.77247Q32.4269-7.77247 31.0873-9.08087Q29.7478-10.3893 29.7478-12.4453L29.7478-21.4792Q29.7478-23.5353 31.0873-24.8437Q32.4269-26.1521 34.5453-26.1521L46.5078-26.1521Q48.6884-26.1521 49.9968-24.8437Q51.3052-23.5353 51.3052-21.4792L51.3052-12.4453Q51.3052-10.3893 49.9968-9.08087Q48.6884-7.77247 46.5078-7.77247ZM12.4609-44.0754L12.4609-57.0062L131.535-57.0062L131.535-44.0754ZM31.6184 9.5141L112.378 9.5141Q121.446 9.5141 126.491 4.47516Q131.535-0.563784 131.535-9.62141L131.535-60.7758Q131.535-69.8335 126.491-74.8724Q121.446-79.9113 112.378-79.9113L31.6184-79.9113Q22.5559-79.9113 17.5084-74.8723Q12.4609-69.8332 12.4609-60.7758L12.4609-9.62141Q12.4609-0.564065 17.5084 4.47502Q22.5559 9.5141 31.6184 9.5141Z"/>
  </g>
  <g id="Heavy-M" transform="matrix(1 0 0 1 2565.21 1126)">
   <path d="M34.0399-7.98204Q31.9216-7.98204 30.582-9.29044Q29.2425-10.5988 29.2425-12.6549L29.2425-21.6914Q29.2425-23.7474 30.582-25.0558Q31.9216-26.3642 34.0399-26.3642L46.0024-26.3642Q48.1831-26.3642 49.4915-25.0558Q50.7999-23.7474 50.7999-21.6914L50.7999-12.6549Q50.7999-10.5988 49.4915-9.29044Q48.1831-7.98204 46.0024-7.98204ZM12.4609-44.557L12.4609-57.0555L130.506-57.0555L130.506-44.557ZM30.7123 8.80173L112.256 8.80173Q120.992 8.80173 125.749 4.05913Q130.506-0.683466 130.506-9.38397L130.506-61.0082Q130.506-69.7087 125.749-74.4513Q120.992-79.1939 112.256-79.1939L30.7123-79.1939Q21.9908-79.1939 17.2259-74.4524Q12.4609-69.7109 12.4609-61.0082L12.4609-9.38397Q12.4609-0.681212 17.2259 4.06026Q21.9908 8.80173 30.7123 8.80173Z"/>
  </g>
  <g id="Bold-M" transform="matrix(1 0 0 1 2269.07 1126)">
   <path d="M33.4746-8.21647Q31.3563-8.21647 30.0167-9.52487Q28.6772-10.8333 28.6772-12.8893L28.6772-21.9287Q28.6772-23.9847 30.0167-25.2931Q31.3563-26.6015 33.4746-26.6015L45.4371-26.6015Q47.6178-26.6015 48.9262-25.2931Q50.2346-23.9847 50.2346-21.9287L50.2346-12.8893Q50.2346-10.8333 48.9262-9.52487Q47.6178-8.21647 45.4371-8.21647ZM12.4609-45.0958L12.4609-57.1106L129.354-57.1106L129.354-45.0958ZM29.6986 8.00484L112.121 8.00484Q120.484 8.00484 124.919 3.59375Q129.354-0.817348 129.354-9.11837L129.354-61.268Q129.354-69.5691 124.919-73.9802Q120.484-78.3913 112.121-78.3913L29.6986-78.3913Q21.3587-78.3913 16.9098-73.9827Q12.4609-69.5742 12.4609-61.268L12.4609-9.11837Q12.4609-0.812259 16.9098 3.59629Q21.3587 8.00484 29.6986 8.00484Z"/>
  </g>
  <g id="Semibold-M" transform="matrix(1 0 0 1 1972.76 1126)">
   <path d="M33.0849-8.37808Q30.9666-8.37808 29.627-9.68648Q28.2875-10.9949 28.2875-13.0509L28.2875-22.0923Q28.2875-24.1483 29.627-25.4567Q30.9666-26.7651 33.0849-26.7651L45.0474-26.7651Q47.2281-26.7651 48.5365-25.4567Q49.8449-24.1483 49.8449-22.0923L49.8449-13.0509Q49.8449-10.9949 48.5365-9.68648Q47.2281-8.37808 45.0474-8.37808ZM12.4609-45.4672L12.4609-57.1486L128.56-57.1486L128.56-45.4672ZM28.9999 7.45547L112.028 7.45547Q120.135 7.45547 124.347 3.27291Q128.56-0.909645 128.56-8.93526L128.56-61.4472Q128.56-69.4728 124.347-73.6554Q120.135-77.8379 112.028-77.8379L28.9999-77.8379Q20.9229-77.8379 16.6919-73.6589Q12.4609-69.4799 12.4609-61.4472L12.4609-8.93526Q12.4609-0.902601 16.6919 3.27644Q20.9229 7.45547 28.9999 7.45547Z"/>
  </g>
  <g id="Medium-M" transform="matrix(1 0 0 1 1676.35 1126)">
   <path d="M32.7894-8.50063Q30.6711-8.50063 29.3315-9.80903Q27.992-11.1174 27.992-13.1735L27.992-22.2163Q27.992-24.2724 29.3315-25.5808Q30.6711-26.8892 32.7894-26.8892L44.7519-26.8892Q46.9326-26.8892 48.241-25.5808Q49.5494-24.2724 49.5494-22.2163L49.5494-13.1735Q49.5494-11.1174 48.241-9.80903Q46.9326-8.50063 44.7519-8.50063ZM12.4609-45.7489L12.4609-57.1774L127.957-57.1774L127.957-45.7489ZM28.47 7.03892L111.957 7.03892Q119.869 7.03892 123.913 3.02965Q127.957-0.979628 127.957-8.79643L127.957-61.5831Q127.957-69.3999 123.913-73.4091Q119.869-77.4184 111.957-77.4184L28.47-77.4184Q20.5925-77.4184 16.5267-73.4134Q12.4609-69.4084 12.4609-61.5831L12.4609-8.79643Q12.4609-0.971102 16.5267 3.03391Q20.5925 7.03892 28.47 7.03892Z"/>
  </g>
  <g id="Regular-M" transform="matrix(1 0 0 1 1380.03 1126)">
   <path d="M32.404-8.66047Q30.2856-8.66047 28.9461-9.96886Q27.6065-11.2773 27.6065-13.3333L27.6065-22.3781Q27.6065-24.4342 28.9461-25.7426Q30.2856-27.051 32.404-27.051L44.3665-27.051Q46.5472-27.051 47.8556-25.7426Q49.164-24.4342 49.164-22.3781L49.164-13.3333Q49.164-11.2773 47.8556-9.96886Q46.5472-8.66047 44.3665-8.66047ZM12.4609-46.1162L12.4609-57.215L127.172-57.215L127.172-46.1162ZM27.7789 6.49559L111.865 6.49559Q119.523 6.49559 123.348 2.71234Q127.172-1.07091 127.172-8.61533L127.172-61.7603Q127.172-69.3047 123.348-73.0879Q119.523-76.8712 111.865-76.8712L27.7789-76.8712Q20.1615-76.8712 16.3112-73.0932Q12.4609-69.3151 12.4609-61.7603L12.4609-8.61533Q12.4609-1.06045 16.3112 2.71757Q20.1615 6.49559 27.7789 6.49559Z"/>
  </g>
  <g id="Light-M" transform="matrix(1 0 0 1 1083.97 1126)">
   <path d="M31.9078-9.07099Q29.7894-9.07099 28.4499-10.3794Q27.1103-11.6878 27.1103-13.7438L27.1103-22.8059Q27.1103-24.862 28.4499-26.1704Q29.7894-27.4788 31.9078-27.4788L43.8703-27.4788Q46.051-27.4788 47.3594-26.1704Q48.6678-24.862 48.6678-22.8059L48.6678-13.7438Q48.6678-11.6878 47.3594-10.3794Q46.051-9.07099 43.8703-9.07099ZM12.4609-46.544L12.4609-57.4544L125.872-57.4544L125.872-46.544ZM26.8549 5.60582L111.505 5.60582Q118.651 5.60582 122.261 2.00225Q125.872-1.60132 125.872-8.64954L125.872-61.6918Q125.872-68.7401 122.261-72.3436Q118.651-75.9472 111.505-75.9472L26.8549-75.9472Q19.7165-75.9472 16.0887-72.3573Q12.4609-68.7675 12.4609-61.6918L12.4609-8.64954Q12.4609-1.5739 16.0887 2.01596Q19.7165 5.60582 26.8549 5.60582Z"/>
  </g>
  <g id="Thin-M" transform="matrix(1 0 0 1 788.116 1126)">
   <path d="M31.2515-9.61395Q29.1332-9.61395 27.7936-10.9223Q26.4541-12.2307 26.4541-14.2868L26.4541-23.3717Q26.4541-25.4277 27.7936-26.7361Q29.1332-28.0445 31.2515-28.0445L43.214-28.0445Q45.3947-28.0445 46.7031-26.7361Q48.0115-25.4277 48.0115-23.3717L48.0115-14.2868Q48.0115-12.2307 46.7031-10.9223Q45.3947-9.61395 43.214-9.61395ZM12.4609-47.1098L12.4609-57.7712L124.152-57.7712L124.152-47.1098ZM25.6329 4.42904L111.03 4.42904Q117.497 4.42904 120.824 1.0631Q124.152-2.30283 124.152-8.69479L124.152-61.6013Q124.152-67.9933 120.824-71.3592Q117.497-74.7252 111.03-74.7252L25.6329-74.7252Q19.1279-74.7252 15.7944-71.3842Q12.4609-68.0432 12.4609-61.6013L12.4609-8.69479Q12.4609-2.25297 15.7944 1.08803Q19.1279 4.42904 25.6329 4.42904Z"/>
  </g>
  <g id="Ultralight-M" transform="matrix(1 0 0 1 491.845 1126)">
   <path d="M30.9154-9.89205Q28.797-9.89205 27.4575-11.2004Q26.1179-12.5088 26.1179-14.5649L26.1179-23.6615Q26.1179-25.7175 27.4575-27.0259Q28.797-28.3343 30.9154-28.3343L42.8779-28.3343Q45.0586-28.3343 46.367-27.0259Q47.6754-25.7175 47.6754-23.6615L47.6754-14.5649Q47.6754-12.5088 46.367-11.2004Q45.0586-9.89205 42.8779-9.89205ZM12.4609-47.3995L12.4609-57.9334L123.271-57.9334L123.271-47.3995ZM25.007 3.82629L110.786 3.82629Q116.906 3.82629 120.088 0.582078Q123.271-2.66214 123.271-8.71797L123.271-61.555Q123.271-67.6108 120.088-70.855Q116.906-74.0992 110.786-74.0992L25.007-74.0992Q18.8264-74.0992 15.6437-70.8857Q12.4609-67.6722 12.4609-61.555L12.4609-8.71797Q12.4609-2.60079 15.6437 0.61275Q18.8264 3.82629 25.007 3.82629Z"/>
  </g>
  <g id="Black-S" transform="matrix(1 0 0 1 2876.86 696)">
   <path d="M27.1973-13.6719Q25.5371-13.6719 24.4873-14.6973Q23.4375-15.7227 23.4375-17.334L23.4375-24.4141Q23.4375-26.0254 24.4873-27.0508Q25.5371-28.0762 27.1973-28.0762L36.5723-28.0762Q38.2812-28.0762 39.3066-27.0508Q40.332-26.0254 40.332-24.4141L40.332-17.334Q40.332-15.7227 39.3066-14.6973Q38.2812-13.6719 36.5723-13.6719ZM9.76562-42.041L9.76562-52.2949L103.32-52.2949L103.32-42.041ZM25 0L88.0859 0Q95.2637 0 99.292-4.02832Q103.32-8.05664 103.32-15.2344L103.32-55.1758Q103.32-62.3535 99.292-66.3818Q95.2637-70.4102 88.0859-70.4102L25-70.4102Q17.8223-70.4102 13.7939-66.3818Q9.76562-62.3535 9.76562-55.1758L9.76562-15.2344Q9.76562-8.05664 13.7939-4.02832Q17.8223 0 25 0Z"/>
  </g>
  <g id="Heavy-S" transform="matrix(1 0 0 1 2580.5 696)">
   <path d="M26.8285-13.7986Q25.1683-13.7986 24.1185-14.824Q23.0687-15.8494 23.0687-17.4608L23.0687-24.5408Q23.0687-26.1522 24.1185-27.1776Q25.1683-28.2029 26.8285-28.2029L36.2035-28.2029Q37.9125-28.2029 38.9379-27.1776Q39.9632-26.1522 39.9632-24.5408L39.9632-17.4608Q39.9632-15.8494 38.9379-14.824Q37.9125-13.7986 36.2035-13.7986ZM9.76562-42.3983L9.76562-52.3064L102.606-52.3064L102.606-42.3983ZM24.3431-0.495552L88.0283-0.495552Q94.9871-0.495552 98.7964-4.29338Q102.606-8.09121 102.606-15.0269L102.606-55.3832Q102.606-62.3189 98.7964-66.1168Q94.9871-69.9146 88.0283-69.9146L24.3431-69.9146Q17.3959-69.9146 13.5807-66.1168Q9.76562-62.3189 9.76562-55.3832L9.76562-15.0269Q9.76562-8.09121 13.5807-4.29338Q17.3959-0.495552 24.3431-0.495552Z"/>
  </g>
  <g id="Bold-S" transform="matrix(1 0 0 1 2284.19 696)">
   <path d="M26.416-13.9404Q24.7559-13.9404 23.7061-14.9658Q22.6562-15.9912 22.6562-17.6025L22.6562-24.6826Q22.6562-26.2939 23.7061-27.3193Q24.7559-28.3447 26.416-28.3447L35.791-28.3447Q37.5-28.3447 38.5254-27.3193Q39.5508-26.2939 39.5508-24.6826L39.5508-17.6025Q39.5508-15.9912 38.5254-14.9658Q37.5-13.9404 35.791-13.9404ZM9.76562-42.7979L9.76562-52.3193L101.807-52.3193L101.807-42.7979ZM23.6084-1.0498L87.9639-1.0498Q94.6777-1.0498 98.2422-4.58984Q101.807-8.12988 101.807-14.7949L101.807-55.6152Q101.807-62.2803 98.2422-65.8203Q94.6777-69.3604 87.9639-69.3604L23.6084-69.3604Q16.9189-69.3604 13.3423-65.8203Q9.76562-62.2803 9.76562-55.6152L9.76562-14.7949Q9.76562-8.12988 13.3423-4.58984Q16.9189-1.0498 23.6084-1.0498Z"/>
  </g>
  <g id="Semibold-S" transform="matrix(1 0 0 1 1987.76 696)">
   <path d="M26.1316-14.0382Q24.4715-14.0382 23.4217-15.0636Q22.3719-16.089 22.3719-17.7003L22.3719-24.7804Q22.3719-26.3917 23.4217-27.4171Q24.4715-28.4425 26.1316-28.4425L35.5066-28.4425Q37.2156-28.4425 38.241-27.4171Q39.2664-26.3917 39.2664-24.7804L39.2664-17.7003Q39.2664-16.089 38.241-15.0636Q37.2156-14.0382 35.5066-14.0382ZM9.76562-43.0733L9.76562-52.3282L101.256-52.3282L101.256-43.0733ZM23.1019-1.43193L87.9194-1.43193Q94.4645-1.43193 97.8601-4.79424Q101.256-8.15654 101.256-14.635L101.256-55.7752Q101.256-62.2536 97.8601-65.6159Q94.4645-68.9782 87.9194-68.9782L23.1019-68.9782Q16.5901-68.9782 13.1779-65.6159Q9.76562-62.2536 9.76562-55.7752L9.76562-14.635Q9.76562-8.15654 13.1779-4.79424Q16.5901-1.43193 23.1019-1.43193Z"/>
  </g>
  <g id="Medium-S" transform="matrix(1 0 0 1 1691.25 696)">
   <path d="M25.916-14.1123Q24.2559-14.1123 23.2061-15.1377Q22.1562-16.1631 22.1562-17.7744L22.1562-24.8545Q22.1562-26.4658 23.2061-27.4912Q24.2559-28.5166 25.916-28.5166L35.291-28.5166Q37-28.5166 38.0254-27.4912Q39.0508-26.4658 39.0508-24.8545L39.0508-17.7744Q39.0508-16.1631 38.0254-15.1377Q37-14.1123 35.291-14.1123ZM9.76562-43.2822L9.76562-52.335L100.838-52.335L100.838-43.2822ZM22.7178-1.72168L87.8857-1.72168Q94.3027-1.72168 97.5703-4.94922Q100.838-8.17676 100.838-14.5137L100.838-55.8965Q100.838-62.2334 97.5703-65.4609Q94.3027-68.6885 87.8857-68.6885L22.7178-68.6885Q16.3408-68.6885 13.0532-65.4609Q9.76562-62.2334 9.76562-55.8965L9.76562-14.5137Q9.76562-8.17676 13.0532-4.94922Q16.3408-1.72168 22.7178-1.72168Z"/>
  </g>
  <g id="Regular-S" transform="matrix(1 0 0 1 1394.82 696)">
   <path d="M25.6348-14.209Q23.9746-14.209 22.9248-15.2344Q21.875-16.2598 21.875-17.8711L21.875-24.9512Q21.875-26.5625 22.9248-27.5879Q23.9746-28.6133 25.6348-28.6133L35.0098-28.6133Q36.7188-28.6133 37.7441-27.5879Q38.7695-26.5625 38.7695-24.9512L38.7695-17.8711Q38.7695-16.2598 37.7441-15.2344Q36.7188-14.209 35.0098-14.209ZM9.76562-43.5547L9.76562-52.3438L100.293-52.3438L100.293-43.5547ZM22.2168-2.09961L87.8418-2.09961Q94.0918-2.09961 97.1924-5.15137Q100.293-8.20312 100.293-14.3555L100.293-56.0547Q100.293-62.207 97.1924-65.2588Q94.0918-68.3105 87.8418-68.3105L22.2168-68.3105Q16.0156-68.3105 12.8906-65.2588Q9.76562-62.207 9.76562-56.0547L9.76562-14.3555Q9.76562-8.20312 12.8906-5.15137Q16.0156-2.09961 22.2168-2.09961Z"/>
  </g>
  <g id="Light-S" transform="matrix(1 0 0 1 1098.68 696)">
   <path d="M25.1958-14.5721Q23.5357-14.5721 22.4859-15.5975Q21.4361-16.6229 21.4361-18.2343L21.4361-25.3296Q21.4361-26.9409 22.4859-27.9663Q23.5357-28.9917 25.1958-28.9917L34.5708-28.9917Q36.2798-28.9917 37.3052-27.9663Q38.3306-26.9409 38.3306-25.3296L38.3306-18.2343Q38.3306-16.6229 37.3052-15.5975Q36.2798-14.5721 34.5708-14.5721ZM9.76562-43.9331L9.76562-52.5556L99.1427-52.5556L99.1427-43.9331ZM21.3994-2.88671L87.5239-2.88671Q93.32-2.88671 96.2313-5.77952Q99.1427-8.67233 99.1427-14.3857L99.1427-55.9942Q99.1427-61.7076 96.2313-64.6004Q93.32-67.4932 87.5239-67.4932L21.3994-67.4932Q15.6219-67.4932 12.6938-64.6079Q9.76562-61.7226 9.76562-55.9942L9.76562-14.3857Q9.76562-8.65733 12.6938-5.77202Q15.6219-2.88671 21.3994-2.88671Z"/>
  </g>
  <g id="Thin-S" transform="matrix(1 0 0 1 802.729 696)">
   <path d="M24.6153-15.0525Q22.9551-15.0525 21.9053-16.0778Q20.8555-17.1032 20.8555-18.7146L20.8555-25.8301Q20.8555-27.4414 21.9053-28.4668Q22.9551-29.4922 24.6153-29.4922L33.9903-29.4922Q35.6993-29.4922 36.7247-28.4668Q37.75-27.4414 37.75-25.8301L37.75-18.7146Q37.75-17.1032 36.7247-16.0778Q35.6993-15.0525 33.9903-15.0525ZM9.76562-44.4336L9.76562-52.8358L97.6214-52.8358L97.6214-44.4336ZM20.3184-3.92771L87.1035-3.92771Q92.2991-3.92771 94.9603-6.6103Q97.6214-9.2929 97.6214-14.4258L97.6214-55.9141Q97.6214-61.047 94.9603-63.7296Q92.2991-66.4122 87.1035-66.4122L20.3184-66.4122Q15.1013-66.4122 12.4335-63.747Q9.76562-61.0818 9.76562-55.9141L9.76562-14.4258Q9.76562-9.25805 12.4335-6.59288Q15.1013-3.92771 20.3184-3.92771Z"/>
  </g>
  <g id="Ultralight-S" transform="matrix(1 0 0 1 506.407 696)">
   <path d="M24.3179-15.2985Q22.6578-15.2985 21.608-16.3239Q20.5582-17.3492 20.5582-18.9606L20.5582-26.0864Q20.5582-27.6978 21.608-28.7231Q22.6578-29.7485 24.3179-29.7485L33.6929-29.7485Q35.4019-29.7485 36.4273-28.7231Q37.4527-27.6978 37.4527-26.0864L37.4527-18.9606Q37.4527-17.3492 36.4273-16.3239Q35.4019-15.2985 33.6929-15.2985ZM9.76562-44.6899L9.76562-52.9793L96.8422-52.9793L96.8422-44.6899ZM19.7647-4.46091L86.8881-4.46091Q91.7763-4.46091 94.3092-7.03583Q96.8422-9.61075 96.8422-14.4463L96.8422-55.8731Q96.8422-60.7086 94.3092-63.2835Q91.7763-65.8585 86.8881-65.8585L19.7647-65.8585Q14.8346-65.8585 12.3001-63.306Q9.76562-60.7536 9.76562-55.8731L9.76562-14.4463Q9.76562-9.56573 12.3001-7.01332Q14.8346-4.46091 19.7647-4.46091Z"/>
  </g>
 </g>
</svg>
