<?xml version="1.0" encoding="UTF-8"?>
<!--Generator: Apple Native CoreSVG 175.5-->
<!DOCTYPE svg
PUBLIC "-//W3C//DTD SVG 1.1//EN"
       "http://www.w3.org/Graphics/SVG/1.1/DTD/svg11.dtd">
<svg version="1.1" xmlns="http://www.w3.org/2000/svg" xmlns:xlink="http://www.w3.org/1999/xlink" width="3300" height="2200">
 <!--glyph: "uni1003AA.medium", point size: 100.0, font version: "18.0d9e1", template writer version: "84"-->
 <g id="Notes">
  <rect height="2200" id="artboard" style="fill:white;opacity:1" width="3300" x="0" y="0"/>
  <line style="fill:none;stroke:black;opacity:1;stroke-width:0.5;" x1="263" x2="3036" y1="292" y2="292"/>
  <text style="stroke:none;fill:black;font-family:sans-serif;font-size:13;font-weight:bold;" transform="matrix(1 0 0 1 263 322)">Weight/Scale Variations</text>
  <text style="stroke:none;fill:black;font-family:sans-serif;font-size:13;text-anchor:middle;" transform="matrix(1 0 0 1 559.711 322)">Ultralight</text>
  <text style="stroke:none;fill:black;font-family:sans-serif;font-size:13;text-anchor:middle;" transform="matrix(1 0 0 1 856.422 322)">Thin</text>
  <text style="stroke:none;fill:black;font-family:sans-serif;font-size:13;text-anchor:middle;" transform="matrix(1 0 0 1 1153.13 322)">Light</text>
  <text style="stroke:none;fill:black;font-family:sans-serif;font-size:13;text-anchor:middle;" transform="matrix(1 0 0 1 1449.84 322)">Regular</text>
  <text style="stroke:none;fill:black;font-family:sans-serif;font-size:13;text-anchor:middle;" transform="matrix(1 0 0 1 1746.56 322)">Medium</text>
  <text style="stroke:none;fill:black;font-family:sans-serif;font-size:13;text-anchor:middle;" transform="matrix(1 0 0 1 2043.27 322)">Semibold</text>
  <text style="stroke:none;fill:black;font-family:sans-serif;font-size:13;text-anchor:middle;" transform="matrix(1 0 0 1 2339.98 322)">Bold</text>
  <text style="stroke:none;fill:black;font-family:sans-serif;font-size:13;text-anchor:middle;" transform="matrix(1 0 0 1 2636.69 322)">Heavy</text>
  <text style="stroke:none;fill:black;font-family:sans-serif;font-size:13;text-anchor:middle;" transform="matrix(1 0 0 1 2933.4 322)">Black</text>
  <line style="fill:none;stroke:black;opacity:1;stroke-width:0.5;" x1="263" x2="3036" y1="1903" y2="1903"/>
  <g transform="matrix(1 0 0 1 263 1933)">
   <path d="M9.24805 0.830078Q10.8691 0.830078 12.2949 0.214844Q13.7207-0.400391 14.8096-1.49414Q15.8984-2.58789 16.5186-4.01367Q17.1387-5.43945 17.1387-7.05078Q17.1387-8.66211 16.5186-10.0879Q15.8984-11.5137 14.8047-12.6074Q13.7109-13.7012 12.2852-14.3164Q10.8594-14.9316 9.23828-14.9316Q7.62695-14.9316 6.20117-14.3164Q4.77539-13.7012 3.69141-12.6074Q2.60742-11.5137 1.9873-10.0879Q1.36719-8.66211 1.36719-7.05078Q1.36719-5.43945 1.9873-4.01367Q2.60742-2.58789 3.69629-1.49414Q4.78516-0.400391 6.21094 0.214844Q7.63672 0.830078 9.24805 0.830078ZM9.24805-0.654297Q7.91992-0.654297 6.7627-1.14746Q5.60547-1.64062 4.73145-2.51953Q3.85742-3.39844 3.36426-4.56055Q2.87109-5.72266 2.87109-7.05078Q2.87109-8.37891 3.35938-9.54102Q3.84766-10.7031 4.72168-11.582Q5.5957-12.4609 6.75293-12.9541Q7.91016-13.4473 9.23828-13.4473Q10.5762-13.4473 11.7383-12.9541Q12.9004-12.4609 13.7793-11.582Q14.6582-10.7031 15.1514-9.54102Q15.6445-8.37891 15.6445-7.05078Q15.6445-5.72266 15.1514-4.56055Q14.6582-3.39844 13.7793-2.51953Q12.9004-1.64062 11.7432-1.14746Q10.5859-0.654297 9.24805-0.654297ZM5.6543-7.05078Q5.6543-6.72852 5.85938-6.52832Q6.06445-6.32812 6.40625-6.32812L8.51562-6.32812L8.51562-4.20898Q8.51562-3.88672 8.71094-3.67676Q8.90625-3.4668 9.23828-3.4668Q9.56055-3.4668 9.77051-3.67676Q9.98047-3.88672 9.98047-4.20898L9.98047-6.32812L12.0898-6.32812Q12.4219-6.32812 12.627-6.52832Q12.832-6.72852 12.832-7.05078Q12.832-7.38281 12.627-7.58789Q12.4219-7.79297 12.0898-7.79297L9.98047-7.79297L9.98047-9.90234Q9.98047-10.2344 9.77051-10.4443Q9.56055-10.6543 9.23828-10.6543Q8.90625-10.6543 8.71094-10.4443Q8.51562-10.2344 8.51562-9.90234L8.51562-7.79297L6.40625-7.79297Q6.06445-7.79297 5.85938-7.58789Q5.6543-7.38281 5.6543-7.05078Z"/>
  </g>
  <g transform="matrix(1 0 0 1 281.867 1933)">
   <path d="M11.709 2.91016Q13.75 2.91016 15.5518 2.12891Q17.3535 1.34766 18.7305-0.0292969Q20.1074-1.40625 20.8887-3.20801Q21.6699-5.00977 21.6699-7.05078Q21.6699-9.0918 20.8887-10.8936Q20.1074-12.6953 18.7305-14.0723Q17.3535-15.4492 15.5469-16.2305Q13.7402-17.0117 11.6992-17.0117Q9.6582-17.0117 7.85645-16.2305Q6.05469-15.4492 4.68262-14.0723Q3.31055-12.6953 2.5293-10.8936Q1.74805-9.0918 1.74805-7.05078Q1.74805-5.00977 2.5293-3.20801Q3.31055-1.40625 4.6875-0.0292969Q6.06445 1.34766 7.86621 2.12891Q9.66797 2.91016 11.709 2.91016ZM11.709 1.25Q9.98047 1.25 8.47656 0.605469Q6.97266-0.0390625 5.83496-1.17676Q4.69727-2.31445 4.05762-3.81836Q3.41797-5.32227 3.41797-7.05078Q3.41797-8.7793 4.05762-10.2832Q4.69727-11.7871 5.83008-12.9297Q6.96289-14.0723 8.4668-14.7119Q9.9707-15.3516 11.6992-15.3516Q13.4277-15.3516 14.9365-14.7119Q16.4453-14.0723 17.583-12.9297Q18.7207-11.7871 19.3652-10.2832Q20.0098-8.7793 20.0098-7.05078Q20.0098-5.32227 19.3701-3.81836Q18.7305-2.31445 17.5879-1.17676Q16.4453-0.0390625 14.9414 0.605469Q13.4375 1.25 11.709 1.25ZM7.17773-7.05078Q7.17773-6.69922 7.41211-6.47461Q7.64648-6.25 8.01758-6.25L10.8887-6.25L10.8887-3.36914Q10.8887-2.99805 11.1133-2.76855Q11.3379-2.53906 11.6895-2.53906Q12.0605-2.53906 12.29-2.76855Q12.5195-2.99805 12.5195-3.36914L12.5195-6.25L15.4004-6.25Q15.7715-6.25 16.001-6.47461Q16.2305-6.69922 16.2305-7.05078Q16.2305-7.42188 16.001-7.65137Q15.7715-7.88086 15.4004-7.88086L12.5195-7.88086L12.5195-10.752Q12.5195-11.1328 12.29-11.3623Q12.0605-11.5918 11.6895-11.5918Q11.3379-11.5918 11.1133-11.3574Q10.8887-11.123 10.8887-10.752L10.8887-7.88086L8.01758-7.88086Q7.63672-7.88086 7.40723-7.65137Q7.17773-7.42188 7.17773-7.05078Z"/>
  </g>
  <g transform="matrix(1 0 0 1 305.646 1933)">
   <path d="M14.9707 5.66406Q17.0605 5.66406 18.96 5.01465Q20.8594 4.36523 22.4512 3.19336Q24.043 2.02148 25.2197 0.429688Q26.3965-1.16211 27.0459-3.06641Q27.6953-4.9707 27.6953-7.05078Q27.6953-9.14062 27.0459-11.04Q26.3965-12.9395 25.2197-14.5312Q24.043-16.123 22.4512-17.2998Q20.8594-18.4766 18.9551-19.126Q17.0508-19.7754 14.9609-19.7754Q12.8711-19.7754 10.9717-19.126Q9.07227-18.4766 7.48535-17.2998Q5.89844-16.123 4.72168-14.5312Q3.54492-12.9395 2.90039-11.04Q2.25586-9.14062 2.25586-7.05078Q2.25586-4.9707 2.90527-3.06641Q3.55469-1.16211 4.72656 0.429688Q5.89844 2.02148 7.49023 3.19336Q9.08203 4.36523 10.9814 5.01465Q12.8809 5.66406 14.9707 5.66406ZM14.9707 3.84766Q13.1641 3.84766 11.5283 3.2959Q9.89258 2.74414 8.53516 1.74805Q7.17773 0.751953 6.17676-0.610352Q5.17578-1.97266 4.62891-3.6084Q4.08203-5.24414 4.08203-7.05078Q4.08203-8.86719 4.62891-10.5029Q5.17578-12.1387 6.17188-13.501Q7.16797-14.8633 8.52539-15.8594Q9.88281-16.8555 11.5186-17.4023Q13.1543-17.9492 14.9609-17.9492Q16.7773-17.9492 18.4131-17.4023Q20.0488-16.8555 21.4111-15.8594Q22.7734-14.8633 23.7744-13.501Q24.7754-12.1387 25.3223-10.5029Q25.8691-8.86719 25.8691-7.05078Q25.8691-5.24414 25.3223-3.6084Q24.7754-1.97266 23.7793-0.610352Q22.7832 0.751953 21.4209 1.74805Q20.0586 2.74414 18.4229 3.2959Q16.7871 3.84766 14.9707 3.84766ZM9.19922-7.05078Q9.19922-6.66992 9.45801-6.4209Q9.7168-6.17188 10.1172-6.17188L14.0625-6.17188L14.0625-2.2168Q14.0625-1.81641 14.3115-1.55762Q14.5605-1.29883 14.9512-1.29883Q15.3516-1.29883 15.6104-1.55273Q15.8691-1.80664 15.8691-2.2168L15.8691-6.17188L19.8242-6.17188Q20.2246-6.17188 20.4785-6.4209Q20.7324-6.66992 20.7324-7.05078Q20.7324-7.46094 20.4785-7.71484Q20.2246-7.96875 19.8242-7.96875L15.8691-7.96875L15.8691-11.9141Q15.8691-12.3242 15.6104-12.583Q15.3516-12.8418 14.9512-12.8418Q14.5605-12.8418 14.3115-12.583Q14.0625-12.3242 14.0625-11.9141L14.0625-7.96875L10.1172-7.96875Q9.70703-7.96875 9.45312-7.71484Q9.19922-7.46094 9.19922-7.05078Z"/>
  </g>
  <text style="stroke:none;fill:black;font-family:sans-serif;font-size:13;font-weight:bold;" transform="matrix(1 0 0 1 263 1953)">Design Variations</text>
  <text style="stroke:none;fill:black;font-family:sans-serif;font-size:13;" transform="matrix(1 0 0 1 263 1971)">Symbols are supported in up to nine weights and three scales.</text>
  <text style="stroke:none;fill:black;font-family:sans-serif;font-size:13;" transform="matrix(1 0 0 1 263 1989)">For optimal layout with text and other symbols, vertically align</text>
  <text style="stroke:none;fill:black;font-family:sans-serif;font-size:13;" transform="matrix(1 0 0 1 263 2007)">symbols with the adjacent text.</text>
  <line style="fill:none;stroke:#00AEEF;stroke-width:0.5;opacity:1.0;" x1="776" x2="776" y1="1919" y2="1933"/>
  <g transform="matrix(1 0 0 1 776 1933)">
   <path d="M3.31055 0.15625Q3.70117 0.15625 3.91602-0.00976562Q4.13086-0.175781 4.26758-0.585938L5.52734-4.0332L11.2891-4.0332L12.5488-0.585938Q12.6855-0.175781 12.9004-0.00976562Q13.1152 0.15625 13.4961 0.15625Q13.8867 0.15625 14.1162-0.0585938Q14.3457-0.273438 14.3457-0.644531Q14.3457-0.869141 14.2383-1.17188L9.6582-13.3691Q9.48242-13.8184 9.17969-14.043Q8.87695-14.2676 8.4082-14.2676Q7.5-14.2676 7.17773-13.3789L2.59766-1.16211Q2.49023-0.859375 2.49023-0.634766Q2.49023-0.263672 2.70996-0.0537109Q2.92969 0.15625 3.31055 0.15625ZM6.00586-5.51758L8.37891-12.0898L8.42773-12.0898L10.8008-5.51758Z"/>
  </g>
  <line style="fill:none;stroke:#00AEEF;stroke-width:0.5;opacity:1.0;" x1="793.197" x2="793.197" y1="1919" y2="1933"/>
  <text style="stroke:none;fill:black;font-family:sans-serif;font-size:13;font-weight:bold;" transform="matrix(1 0 0 1 776 1953)">Margins</text>
  <text style="stroke:none;fill:black;font-family:sans-serif;font-size:13;" transform="matrix(1 0 0 1 776 1971)">Leading and trailing margins on the left and right side of each symbol</text>
  <text style="stroke:none;fill:black;font-family:sans-serif;font-size:13;" transform="matrix(1 0 0 1 776 1989)">can be adjusted by modifying the x-location of the margin guidelines.</text>
  <text style="stroke:none;fill:black;font-family:sans-serif;font-size:13;" transform="matrix(1 0 0 1 776 2007)">Modifications are automatically applied proportionally to all</text>
  <text style="stroke:none;fill:black;font-family:sans-serif;font-size:13;" transform="matrix(1 0 0 1 776 2025)">scales and weights.</text>
  <g transform="matrix(1 0 0 1 1289 1933)">
   <path d="M2.8418 1.86523L4.54102 3.57422Q5.18555 4.22852 5.90332 4.17969Q6.62109 4.13086 7.31445 3.35938L18.0078-8.42773L17.041-9.4043L6.42578 2.27539Q6.16211 2.57812 5.89355 2.61719Q5.625 2.65625 5.27344 2.30469L4.10156 1.14258Q3.75 0.791016 3.79395 0.522461Q3.83789 0.253906 4.14062-0.0195312L15.6152-10.8203L14.6387-11.7871L3.04688-0.898438Q2.30469-0.214844 2.25098 0.498047Q2.19727 1.21094 2.8418 1.86523ZM9.25781-16.3281Q8.94531-16.0254 8.90625-15.6348Q8.86719-15.2441 9.04297-14.9512Q9.21875-14.6777 9.55566-14.541Q9.89258-14.4043 10.3809-14.5215Q11.4746-14.7754 12.5977-14.7314Q13.7207-14.6875 14.7949-13.9844L14.209-12.5293Q13.9551-11.9043 14.0674-11.4404Q14.1797-10.9766 14.5801-10.5664L16.875-8.25195Q17.2363-7.88086 17.5781-7.82227Q17.9199-7.76367 18.3398-7.8418L19.4043-8.03711L20.0684-7.36328L20.0293-6.80664Q20-6.43555 20.1221-6.12305Q20.2441-5.81055 20.6055-5.44922L21.3672-4.70703Q21.7285-4.3457 22.1533-4.33105Q22.5781-4.31641 22.9297-4.66797L25.8398-7.58789Q26.1914-7.93945 26.1816-8.35449Q26.1719-8.76953 25.8105-9.13086L25.0391-9.89258Q24.6875-10.2539 24.3799-10.3857Q24.0723-10.5176 23.7109-10.4883L23.1348-10.4395L22.4902-11.0742L22.7344-12.1973Q22.832-12.6172 22.6953-12.9834Q22.5586-13.3496 22.1191-13.7891L19.9219-15.9766Q18.6719-17.2168 17.2607-17.8369Q15.8496-18.457 14.4189-18.4814Q12.9883-18.5059 11.665-17.959Q10.3418-17.4121 9.25781-16.3281ZM10.752-15.957Q11.6602-16.6211 12.7002-16.9043Q13.7402-17.1875 14.8047-17.085Q15.8691-16.9824 16.8701-16.5137Q17.8711-16.0449 18.7012-15.2051L21.1328-12.793Q21.3086-12.6172 21.3525-12.4512Q21.3965-12.2852 21.3379-12.0312L21.0156-10.5469L22.5195-9.0625L23.5059-9.12109Q23.6914-9.13086 23.7891-9.09668Q23.8867-9.0625 24.0332-8.91602L24.6094-8.33984L22.168-5.89844L21.5918-6.47461Q21.4453-6.62109 21.4062-6.71875Q21.3672-6.81641 21.377-7.01172L21.4453-7.98828L19.9512-9.47266L18.4277-9.21875Q18.1836-9.16992 18.042-9.2041Q17.9004-9.23828 17.7148-9.41406L15.7129-11.416Q15.5176-11.5918 15.4932-11.7529Q15.4688-11.9141 15.5859-12.1875L16.4648-14.2773Q15.293-15.3711 13.8281-15.791Q12.3633-16.2109 10.8398-15.7617Q10.7227-15.7324 10.6885-15.8057Q10.6543-15.8789 10.752-15.957Z"/>
  </g>
  <text style="stroke:none;fill:black;font-family:sans-serif;font-size:13;font-weight:bold;" transform="matrix(1 0 0 1 1289 1953)">Exporting</text>
  <text style="stroke:none;fill:black;font-family:sans-serif;font-size:13;" transform="matrix(1 0 0 1 1289 1971)">Symbols should be outlined when exporting to ensure the</text>
  <text style="stroke:none;fill:black;font-family:sans-serif;font-size:13;" transform="matrix(1 0 0 1 1289 1989)">design is preserved when submitting to Xcode.</text>
  <text id="template-version" style="stroke:none;fill:black;font-family:sans-serif;font-size:13;text-anchor:end;" transform="matrix(1 0 0 1 3036 1933)">Template v.2.0</text>
  <text style="stroke:none;fill:black;font-family:sans-serif;font-size:13;text-anchor:end;" transform="matrix(1 0 0 1 3036 1951)">Requires Xcode 12 or greater</text>
  <text id="descriptive-name" style="stroke:none;fill:black;font-family:sans-serif;font-size:13;text-anchor:end;" transform="matrix(1 0 0 1 3036 1969)">Generated from mappin</text>
  <text style="stroke:none;fill:black;font-family:sans-serif;font-size:13;text-anchor:end;" transform="matrix(1 0 0 1 3036 1987)">Typeset at 100 points</text>
  <text style="stroke:none;fill:black;font-family:sans-serif;font-size:13;" transform="matrix(1 0 0 1 263 726)">Small</text>
  <text style="stroke:none;fill:black;font-family:sans-serif;font-size:13;" transform="matrix(1 0 0 1 263 1156)">Medium</text>
  <text style="stroke:none;fill:black;font-family:sans-serif;font-size:13;" transform="matrix(1 0 0 1 263 1586)">Large</text>
 </g>
 <g id="Guides">
  <g id="H-reference" style="fill:#27AAE1;stroke:none;" transform="matrix(1 0 0 1 339 696)">
   <path d="M0.993347 0L3.6377 0L29.3282-67.1326L30.0301-67.1326L30.0301-70.459L28.1227-70.459ZM11.6882-24.4797L46.9818-24.4797L46.2311-26.7288L12.4382-26.7288ZM55.1193 0L57.7637 0L30.6381-70.459L29.4327-70.459L29.4327-67.1326Z"/>
  </g>
  <line id="Baseline-S" style="fill:none;stroke:#27AAE1;opacity:1;stroke-width:0.5;" x1="263" x2="3036" y1="696" y2="696"/>
  <line id="Capline-S" style="fill:none;stroke:#27AAE1;opacity:1;stroke-width:0.5;" x1="263" x2="3036" y1="625.541" y2="625.541"/>
  <g id="H-reference" style="fill:#27AAE1;stroke:none;" transform="matrix(1 0 0 1 339 1126)">
   <path d="M0.993347 0L3.6377 0L29.3282-67.1326L30.0301-67.1326L30.0301-70.459L28.1227-70.459ZM11.6882-24.4797L46.9818-24.4797L46.2311-26.7288L12.4382-26.7288ZM55.1193 0L57.7637 0L30.6381-70.459L29.4327-70.459L29.4327-67.1326Z"/>
  </g>
  <line id="Baseline-M" style="fill:none;stroke:#27AAE1;opacity:1;stroke-width:0.5;" x1="263" x2="3036" y1="1126" y2="1126"/>
  <line id="Capline-M" style="fill:none;stroke:#27AAE1;opacity:1;stroke-width:0.5;" x1="263" x2="3036" y1="1055.54" y2="1055.54"/>
  <g id="H-reference" style="fill:#27AAE1;stroke:none;" transform="matrix(1 0 0 1 339 1556)">
   <path d="M0.993347 0L3.6377 0L29.3282-67.1326L30.0301-67.1326L30.0301-70.459L28.1227-70.459ZM11.6882-24.4797L46.9818-24.4797L46.2311-26.7288L12.4382-26.7288ZM55.1193 0L57.7637 0L30.6381-70.459L29.4327-70.459L29.4327-67.1326Z"/>
  </g>
  <line id="Baseline-L" style="fill:none;stroke:#27AAE1;opacity:1;stroke-width:0.5;" x1="263" x2="3036" y1="1556" y2="1556"/>
  <line id="Capline-L" style="fill:none;stroke:#27AAE1;opacity:1;stroke-width:0.5;" x1="263" x2="3036" y1="1485.54" y2="1485.54"/>
  <line id="left-margin" style="fill:none;stroke:#00AEEF;stroke-width:0.5;opacity:1.0;" x1="1402.79" x2="1402.79" y1="1030.79" y2="1150.12"/>
  <line id="right-margin" style="fill:none;stroke:#00AEEF;stroke-width:0.5;opacity:1.0;" x1="1496.9" x2="1496.9" y1="1030.79" y2="1150.12"/>
 </g>
 <g id="Symbols">
  <g id="Black-L" transform="matrix(1 0 0 1 2868.58 1556)">
   <path d="M35.5162-82.3723Q35.5162-72.6119 41.1863-65.003Q46.8563-57.394 55.6306-54.4464L55.6306 7.06717Q55.6306 13.3408 57.3458 19.0101Q59.0611 24.6794 61.2239 28.2505Q63.3867 31.8216 64.8188 31.8216Q66.2497 31.8216 68.4125 28.2505Q70.5753 24.6794 72.251 19.0205Q73.9267 13.3616 73.9267 7.06717L73.9267-54.4464Q82.7594-57.3149 88.4398-64.9634Q94.1202-72.6119 94.1202-82.3723Q94.1202-90.4789 90.2057-97.1618Q86.2912-103.845 79.6479-107.829Q73.0046-111.812 64.8188-111.812Q56.6902-111.812 50.0469-107.829Q43.4036-103.845 39.4599-97.1618Q35.5162-90.4789 35.5162-82.3723ZM56.5995-80.5728Q52.6351-80.5728 49.6072-83.6104Q46.5794-86.6479 46.5794-90.6721Q46.5794-94.7546 49.6072-97.7233Q52.6351-100.692 56.5995-100.692Q60.7611-100.692 63.6897-97.7233Q66.6183-94.7546 66.6183-90.6721Q66.6183-86.6479 63.6897-83.6104Q60.7611-80.5728 56.5995-80.5728Z"/>
  </g>
  <g id="Heavy-L" transform="matrix(1 0 0 1 2573.11 1556)">
   <path d="M35.7718-81.9213Q35.7718-72.5511 41.2748-65.2788Q46.7778-58.0065 55.2731-55.3102L55.2731 5.91939Q55.2731 12.749 56.7893 18.491Q58.3054 24.2331 60.2546 27.6886Q62.2039 31.1441 63.579 31.1441Q64.9481 31.1441 66.8973 27.6886Q68.8465 24.2331 70.3255 18.5059Q71.8044 12.7788 71.8044 5.91939L71.8044-55.3102Q80.3444-57.9321 85.8623-65.2416Q91.3802-72.5511 91.3802-81.9213Q91.3802-89.6055 87.6631-95.947Q83.9461-102.288 77.6418-106.068Q71.3376-109.848 63.579-109.848Q55.859-109.848 49.5547-106.068Q43.2505-102.288 39.5111-95.947Q35.7718-89.6055 35.7718-81.9213ZM55.7303-80.2668Q51.9612-80.2668 49.0911-83.1487Q46.221-86.0307 46.221-89.8505Q46.221-93.7149 49.0911-96.5373Q51.9612-99.3597 55.7303-99.3597Q59.6691-99.3597 62.4513-96.5373Q65.2335-93.7149 65.2335-89.8505Q65.2335-86.0307 62.4513-83.1487Q59.6691-80.2668 55.7303-80.2668Z"/>
  </g>
  <g id="Bold-L" transform="matrix(1 0 0 1 2278.29 1556)">
   <path d="M35.8532-81.3191Q35.8532-72.4629 41.1392-65.6334Q46.4251-58.8039 54.548-56.4493L54.548 5.25134Q54.548 12.4468 55.8127 18.0845Q57.0773 23.7223 58.7458 26.9492Q60.4144 30.1762 61.6912 30.1762Q62.9539 30.1762 64.6224 26.9492Q66.2909 23.7223 67.5225 18.103Q68.754 12.4838 68.754 5.25134L68.754-56.4493Q76.9061-58.7377 82.2106-65.6003Q87.515-72.4629 87.515-81.3191Q87.515-88.4501 84.0591-94.3406Q80.6032-100.231 74.7458-103.742Q68.8885-107.252 61.6912-107.252Q54.509-107.252 48.6516-103.742Q42.7943-100.231 39.3238-94.3406Q35.8532-88.4501 35.8532-81.3191ZM54.3147-79.8727Q50.8072-79.8727 48.1424-82.5489Q45.4776-85.2251 45.4776-88.776Q45.4776-92.3561 48.1424-94.9846Q50.8072-97.6131 54.3147-97.6131Q57.9611-97.6131 60.5493-94.9846Q63.1376-92.3561 63.1376-88.776Q63.1376-85.2251 60.5493-82.5489Q57.9611-79.8727 54.3147-79.8727Z"/>
  </g>
  <g id="Semibold-L" transform="matrix(1 0 0 1 1982.88 1556)">
   <path d="M35.9094-80.9038Q35.9094-72.4022 41.0457-65.8779Q46.182-59.3537 54.0481-57.2345L54.0481 4.7908Q54.0481 12.2384 55.1394 17.8043Q56.2306 23.3702 57.7057 26.4395Q59.1808 29.5089 60.3898 29.5089Q61.5791 29.5089 63.0541 26.4395Q64.5292 23.3702 65.5901 17.8253Q66.6511 12.2804 66.6511 4.7908L66.6511-57.2345Q74.5358-59.2931 79.6931-65.8476Q84.8504-72.4022 84.8504-80.9038Q84.8504-87.6536 81.5745-93.2331Q78.2986-98.8126 72.7494-102.138Q67.2001-105.463 60.3898-105.463Q53.5783-105.463 48.029-102.138Q42.4797-98.8126 39.1946-93.2331Q35.9094-87.6536 35.9094-80.9038ZM53.3389-79.601Q50.0117-79.601 47.4884-82.1353Q44.9652-84.6697 44.9652-88.0352Q44.9652-91.4194 47.4884-93.9142Q50.0117-96.409 53.3389-96.409Q56.7836-96.409 59.2381-93.9142Q61.6927-91.4194 61.6927-88.0352Q61.6927-84.6697 59.2381-82.1353Q56.7836-79.601 53.3389-79.601Z"/>
  </g>
  <g id="Medium-L" transform="matrix(1 0 0 1 1687.16 1556)">
   <path d="M35.952-80.589Q35.952-72.3561 40.9749-66.0633Q45.9977-59.7705 53.6691-57.8299L53.6691 4.44159Q53.6691 12.0805 54.6289 17.5918Q55.5887 23.1032 56.917 26.053Q58.2454 29.0029 59.4031 29.0029Q60.5366 29.0029 61.865 26.053Q63.1933 23.1032 64.1249 17.6147Q65.0566 12.1262 65.0566 4.44159L65.0566-57.8299Q72.7385-59.7143 77.7842-66.0352Q82.8299-72.3561 82.8299-80.589Q82.8299-87.0496 79.6906-92.3934Q76.5512-97.7372 71.2356-100.922Q65.9199-104.107 59.4031-104.107Q52.8726-104.107 47.5569-100.922Q42.2413-97.7372 39.0966-92.3934Q35.952-87.0496 35.952-80.589ZM52.5989-79.3949Q49.4086-79.3949 46.9926-81.8217Q44.5766-84.2485 44.5766-87.4736Q44.5766-90.7091 46.9926-93.1025Q49.4086-95.4959 52.5989-95.4959Q55.8907-95.4959 58.2439-93.1025Q60.5971-90.7091 60.5971-87.4736Q60.5971-84.2485 58.2439-81.8217Q55.8907-79.3949 52.5989-79.3949Z"/>
  </g>
  <g id="Regular-L" transform="matrix(1 0 0 1 1391.74 1556)">
   <path d="M36.0076-80.1784Q36.0076-72.296 40.8824-66.3051Q45.7573-60.3142 53.1747-58.6066L53.1747 3.9861Q53.1747 11.8744 53.963 17.3147Q54.7513 22.7549 55.8883 25.5489Q57.0253 28.3429 58.116 28.3429Q59.1769 28.3429 60.3139 25.5489Q61.4509 22.7549 62.2138 17.34Q62.9768 11.9251 62.9768 3.9861L62.9768-58.6066Q70.3942-60.2635 75.2944-66.2797Q80.1946-72.296 80.1946-80.1784Q80.1946-86.2618 77.2333-91.2981Q74.272-96.3344 69.261-99.3359Q64.2501-102.337 58.116-102.337Q51.9521-102.337 46.9412-99.3359Q41.9302-96.3344 38.9689-91.2981Q36.0076-86.2618 36.0076-80.1784ZM51.6338-79.1262Q48.6218-79.1262 46.3458-81.4127Q44.0697-83.6993 44.0697-86.741Q44.0697-89.7827 46.3458-92.0439Q48.6218-94.305 51.6338-94.305Q54.7262-94.305 56.9472-92.0439Q59.1681-89.7827 59.1681-86.741Q59.1681-83.6993 56.9472-81.4127Q54.7262-79.1262 51.6338-79.1262Z"/>
  </g>
  <g id="Light-L" transform="matrix(1 0 0 1 1098.61 1556)">
   <path d="M34.5505-79.4806Q34.5505-72.1523 39.2099-66.6334Q43.8692-61.1146 50.8558-59.8379L50.8558 8.3778Q50.8558 14.4396 51.4388 18.5562Q52.0219 22.6729 52.8613 24.7588Q53.7007 26.8448 54.5451 26.8448Q55.3393 26.8448 56.1787 24.7588Q57.0181 22.6729 57.5861 18.5713Q58.1541 14.4698 58.1541 8.3778L58.1541-59.8379Q65.1406-61.0844 69.8151-66.6184Q74.4895-72.1523 74.4895-79.4806Q74.4895-84.9894 71.8155-89.5332Q69.1415-94.077 64.6128-96.7912Q60.0841-99.5054 54.5451-99.5054Q48.9559-99.5054 44.4272-96.7912Q39.8985-94.077 37.2245-89.5332Q34.5505-84.9894 34.5505-79.4806ZM48.4734-78.7568Q45.7693-78.7568 43.6984-80.8176Q41.6276-82.8784 41.6276-85.6328Q41.6276-88.3872 43.6984-90.4329Q45.7693-92.4786 48.4734-92.4786Q51.258-92.4786 53.2635-90.4329Q55.269-88.3872 55.269-85.6328Q55.269-82.8784 53.2635-80.8176Q51.258-78.7568 48.4734-78.7568Z"/>
  </g>
  <g id="Thin-L" transform="matrix(1 0 0 1 806.629 1556)">
   <path d="M32.6235-78.5578Q32.6235-71.9623 36.9978-67.0677Q41.3722-62.1731 47.7887-61.4664L47.7887 14.1862Q47.7887 17.8324 48.1004 20.1983Q48.412 22.5643 48.8579 23.7139Q49.3037 24.8634 49.8224 24.8634Q50.2638 24.8634 50.7096 23.7139Q51.1555 22.5643 51.4656 20.1998Q51.7757 17.8354 51.7757 14.1862L51.7757-61.4664Q58.1923-62.1701 62.5681-67.0662Q66.944-71.9623 66.944-78.5578Q66.944-83.3066 64.65-87.199Q62.356-91.0914 58.4652-93.4256Q54.5743-95.7598 49.8224-95.7598Q44.9932-95.7598 41.1023-93.4256Q37.2115-91.0914 34.9175-87.199Q32.6235-83.3066 32.6235-78.5578ZM44.2935-78.2683Q41.9965-78.2683 40.1971-80.0305Q38.3977-81.7927 38.3977-84.1671Q38.3977-86.5415 40.1971-88.3022Q41.9965-90.063 44.2935-90.063Q46.671-90.063 48.3915-88.3022Q50.112-86.5415 50.112-84.1671Q50.112-81.7927 48.3915-80.0305Q46.671-78.2683 44.2935-78.2683Z"/>
  </g>
  <g id="Ultralight-L" transform="matrix(1 0 0 1 512.342 1556)">
   <path d="M31.6364-78.0851Q31.6364-71.865 35.8648-67.2901Q40.0932-62.7153 46.2178-62.3005L46.2178 17.1612Q46.2178 19.5701 46.3904 21.0394Q46.563 22.5087 46.8073 23.1786Q47.0516 23.8486 47.4035 23.8486Q47.6641 23.8486 47.9084 23.1786Q48.1526 22.5087 48.3307 21.034Q48.5088 19.5592 48.5088 17.1612L48.5088-62.3005Q54.6334-62.7262 58.8563-67.2956Q63.0793-71.865 63.0793-78.0851Q63.0793-82.4447 60.9799-86.0034Q58.8805-89.5621 55.3164-91.7017Q51.7522-93.8413 47.4035-93.8413Q42.9635-93.8413 39.3993-91.7017Q35.8352-89.5621 33.7358-86.0034Q31.6364-82.4447 31.6364-78.0851ZM42.1526-78.018Q40.0641-78.018 38.4038-79.6273Q36.7434-81.2366 36.7434-83.4164Q36.7434-85.5962 38.4038-87.2109Q40.0641-88.8257 42.1526-88.8257Q44.3215-88.8257 45.8961-87.2109Q47.4706-85.5962 47.4706-83.4164Q47.4706-81.2366 45.8961-79.6273Q44.3215-78.018 42.1526-78.018Z"/>
  </g>
  <g id="Black-M" transform="matrix(1 0 0 1 2882.6 1126)">
   <path d="M27.0989-72.046Q27.0989-64.224 31.6061-58.1037Q36.1132-51.9833 43.0923-49.542L43.0923-0.879034Q43.0923 3.25613 44.5646 7.40649Q46.0368 11.5568 47.8556 14.327Q49.6745 17.0971 50.7996 17.0971Q51.9251 17.0971 53.7439 14.327Q55.5628 11.5568 57.0037 7.40924Q58.4446 3.26164 58.4446-0.879034L58.4446-49.542Q65.4808-51.9207 69.9908-58.0724Q74.5007-64.224 74.5007-72.046Q74.5007-78.6117 71.3372-84.0159Q68.1737-89.4201 62.8009-92.6433Q57.428-95.8664 50.7996-95.8664Q44.2287-95.8664 38.8558-92.6433Q33.4829-89.4201 30.2909-84.0159Q27.0989-78.6117 27.0989-72.046ZM44.1688-70.5719Q40.9713-70.5719 38.5177-73.0283Q36.0641-75.4848 36.0641-78.7391Q36.0641-82.0505 38.5177-84.4472Q40.9713-86.8438 44.1688-86.8438Q47.5428-86.8438 49.9083-84.4472Q52.2738-82.0505 52.2738-78.7391Q52.2738-75.4848 49.9083-73.0283Q47.5428-70.5719 44.1688-70.5719Z"/>
  </g>
  <g id="Heavy-M" transform="matrix(1 0 0 1 2586.77 1126)">
   <path d="M27.4831-71.6695Q27.4831-64.1778 31.8469-58.343Q36.2106-52.5082 42.9568-50.2729L42.9568-2.40621Q42.9568 2.44096 44.2533 6.78455Q45.5498 11.1281 47.1874 13.8506Q48.8249 16.573 49.917 16.573Q51.0067 16.573 52.6442 13.8506Q54.2817 11.1281 55.5483 6.79267Q56.8149 2.4572 56.8149-2.40621L56.8149-50.2729Q63.6047-52.4484 67.9766-58.3131Q72.3485-64.1778 72.3485-71.6695Q72.3485-77.8753 69.3515-82.9912Q66.3545-88.1071 61.2686-91.157Q56.1827-94.2069 49.917-94.2069Q43.6925-94.2069 38.6066-91.157Q33.5207-88.1071 30.5019-82.9912Q27.4831-77.8753 27.4831-71.6695ZM43.6107-70.3068Q40.5756-70.3068 38.2574-72.6319Q35.9391-74.9571 35.9391-78.0382Q35.9391-81.1629 38.2574-83.4363Q40.5756-85.7098 43.6107-85.7098Q46.7952-85.7098 49.0375-83.4363Q51.2798-81.1629 51.2798-78.0382Q51.2798-74.9571 49.0375-72.6319Q46.7952-70.3068 43.6107-70.3068Z"/>
  </g>
  <g id="Bold-M" transform="matrix(1 0 0 1 2291.05 1126)">
   <path d="M27.9129-71.2484Q27.9129-64.1262 32.1162-58.6108Q36.3196-53.0954 42.8053-51.0905L42.8053-4.11458Q42.8053 1.52909 43.9052 6.08882Q45.0051 10.6486 46.4398 13.3177Q47.8744 15.9868 48.9297 15.9868Q49.9794 15.9868 51.414 13.3177Q52.8487 10.6486 53.9202 6.10294Q54.9918 1.55732 54.9918-4.11458L54.9918-51.0905Q61.506-53.0387 65.7235-58.5824Q69.9409-64.1262 69.9409-71.2484Q69.9409-77.0516 67.1302-81.8449Q64.3195-86.6383 59.5545-89.4944Q54.7896-92.3505 48.9297-92.3505Q43.0928-92.3505 38.3278-89.4944Q33.5629-86.6383 30.7379-81.8449Q27.9129-77.0516 27.9129-71.2484ZM42.9863-70.0102Q40.1331-70.0102 37.9661-72.1885Q35.7992-74.3668 35.7992-77.2541Q35.7992-80.17 37.9661-82.3056Q40.1331-84.4412 42.9863-84.4412Q45.9589-84.4412 48.0634-82.3056Q50.1679-80.17 50.1679-77.2541Q50.1679-74.3668 48.0634-72.1885Q45.9589-70.0102 42.9863-70.0102Z"/>
  </g>
  <g id="Semibold-M" transform="matrix(1 0 0 1 1995.02 1126)">
   <path d="M28.2092-70.9581Q28.2092-64.0905 32.302-58.7954Q36.3947-53.5003 42.7008-51.6542L42.7008-5.29233Q42.7008 0.900445 43.6652 5.60919Q44.6296 10.3179 45.9244 12.9503Q47.2192 15.5826 48.249 15.5826Q49.2712 15.5826 50.566 12.9503Q51.8608 10.3179 52.7979 5.62745Q53.7349 0.936953 53.7349-5.29233L53.7349-51.6542Q60.0592-53.4456 64.1702-58.7681Q68.2812-64.0905 68.2812-70.9581Q68.2812-76.4837 65.5989-81.0547Q62.9165-85.6257 58.3729-88.3482Q53.8292-91.0708 48.249-91.0708Q42.6793-91.0708 38.1356-88.3482Q33.592-85.6257 30.9006-81.0547Q28.2092-76.4837 28.2092-70.9581ZM42.5559-69.8058Q39.828-69.8058 37.7654-71.8828Q35.7028-73.9599 35.7028-76.7136Q35.7028-79.4854 37.7654-81.526Q39.828-83.5667 42.5559-83.5667Q45.3824-83.5667 47.3919-81.526Q49.4013-79.4854 49.4013-76.7136Q49.4013-73.9599 47.3919-71.8828Q45.3824-69.8058 42.5559-69.8058Z"/>
  </g>
  <g id="Medium-M" transform="matrix(1 0 0 1 1698.83 1126)">
   <path d="M28.4339-70.738Q28.4339-64.0635 32.4428-58.9354Q36.4517-53.8072 42.6215-52.0816L42.6215-6.18534Q42.6215 0.423782 43.4832 5.24552Q44.3449 10.0672 45.5336 12.6717Q46.7224 15.2761 47.7329 15.2761Q48.7342 15.2761 49.9229 12.6717Q51.1117 10.0672 51.9468 5.26691Q52.782 0.466561 52.782-6.18534L52.782-52.0816Q58.9621-53.7542 62.9924-58.9088Q67.0227-64.0635 67.0227-70.738Q67.0227-76.0531 64.4377-80.4555Q61.8528-84.8579 57.4769-87.4791Q53.101-90.1004 47.7329-90.1004Q42.3658-90.1004 37.9899-87.4791Q33.614-84.8579 31.024-80.4555Q28.4339-76.0531 28.4339-70.738ZM42.2295-69.6508Q39.5966-69.6508 37.6131-71.651Q35.6297-73.6513 35.6297-76.3037Q35.6297-78.9664 37.6131-80.935Q39.5966-82.9035 42.2295-82.9035Q44.9452-82.9035 46.8827-80.935Q48.8201-78.9664 48.8201-76.3037Q48.8201-73.6513 46.8827-71.651Q44.9452-69.6508 42.2295-69.6508Z"/>
  </g>
  <g id="Regular-M" transform="matrix(1 0 0 1 1402.79 1126)">
   <path d="M28.7269-70.4509Q28.7269-64.0283 32.6264-59.118Q36.526-54.2076 42.5182-52.639L42.5182-7.35014Q42.5182-0.197952 43.2458 4.77116Q43.9735 9.74026 45.0239 12.3083Q46.0744 14.8764 47.0597 14.8764Q48.0337 14.8764 49.0841 12.3083Q50.1346 9.74026 50.8368 4.79664Q51.5389-0.146992 51.5389-7.35014L51.5389-52.639Q57.5312-54.1566 61.4562-59.0925Q65.3812-64.0283 65.3812-70.4509Q65.3812-75.4914 62.9232-79.6739Q60.4652-83.8564 56.3082-86.3455Q52.1512-88.8346 47.0597-88.8346Q41.9569-88.8346 37.7999-86.3455Q33.6428-83.8564 31.1849-79.6739Q28.7269-75.4914 28.7269-70.4509ZM41.8038-69.4486Q39.2949-69.4486 37.4146-71.3487Q35.5343-73.2488 35.5343-75.7691Q35.5343-78.2894 37.4146-80.164Q39.2949-82.0386 41.8038-82.0386Q44.375-82.0386 46.2185-80.164Q48.062-78.2894 48.062-75.7691Q48.062-73.2488 46.2185-71.3487Q44.375-69.4486 41.8038-69.4486Z"/>
  </g>
  <g id="Light-M" transform="matrix(1 0 0 1 1109.29 1126)">
   <path d="M27.4206-69.8253Q27.4206-63.8995 31.1269-59.4123Q34.8333-54.9252 40.4391-53.743L40.4391-3.41275Q40.4391 2.10192 40.9828 5.8843Q41.5264 9.66667 42.3101 11.6Q43.0937 13.5333 43.8583 13.5333Q44.5931 13.5333 45.3767 11.6Q46.1604 9.66667 46.6878 5.90058Q47.2152 2.13448 47.2152-3.41275L47.2152-53.743Q52.821-54.8926 56.5436-59.3961Q60.2662-63.8995 60.2662-69.8253Q60.2662-74.3507 58.0659-78.0916Q55.8655-81.8325 52.1408-84.0641Q48.4162-86.2956 43.8583-86.2956Q39.2706-86.2956 35.546-84.0641Q31.8213-81.8325 29.621-78.0916Q27.4206-74.3507 27.4206-69.8253ZM38.9704-69.1174Q36.7374-69.1174 35.0411-70.8151Q33.3448-72.5129 33.3448-74.7755Q33.3448-77.0382 35.0411-78.7197Q36.7374-80.4011 38.9704-80.4011Q41.2656-80.4011 42.9159-78.7197Q44.5662-77.0382 44.5662-74.7755Q44.5662-72.5129 42.9159-70.8151Q41.2656-69.1174 38.9704-69.1174Z"/>
  </g>
  <g id="Thin-M" transform="matrix(1 0 0 1 816.818 1126)">
   <path d="M25.6929-68.998Q25.6929-63.7292 29.1437-59.8017Q32.5945-55.8742 37.6893-55.203L37.6893 1.79476Q37.6893 5.14369 37.9897 7.35651Q38.29 9.56933 38.7208 10.6631Q39.1516 11.7569 39.6241 11.7569Q40.0426 11.7569 40.4734 10.6631Q40.9042 9.56933 41.2004 7.36063Q41.4966 5.15192 41.4966 1.79476L41.4966-55.203Q46.5915-55.866 50.0464-59.7976Q53.5013-63.7292 53.5013-68.998Q53.5013-72.842 51.6416-75.9989Q49.7819-79.1558 46.6292-81.0466Q43.4764-82.9375 39.6241-82.9375Q35.7178-82.9375 32.565-81.0466Q29.4122-79.1558 27.5525-75.9989Q25.6929-72.842 25.6929-68.998ZM35.2229-68.6794Q33.355-68.6794 31.902-70.1095Q30.449-71.5395 30.449-73.4615Q30.449-75.3835 31.902-76.8094Q33.355-78.2354 35.2229-78.2354Q37.1531-78.2354 38.5479-76.8094Q39.9427-75.3835 39.9427-73.4615Q39.9427-71.5395 38.5479-70.1095Q37.1531-68.6794 35.2229-68.6794Z"/>
  </g>
  <g id="Ultralight-M" transform="matrix(1 0 0 1 522.281 1126)">
   <path d="M24.8079-68.5742Q24.8079-63.6419 28.1279-60.0011Q31.4478-56.3603 36.2809-55.9508L36.2809 4.46203Q36.2809 6.70167 36.4566 8.11057Q36.6323 9.51948 36.8824 10.1832Q37.1325 10.847 37.4554 10.847Q37.7119 10.847 37.9619 10.1832Q38.212 9.51948 38.3898 8.10846Q38.5676 6.69744 38.5676 4.46203L38.5676-55.9508Q43.4007-56.3645 46.7186-60.0032Q50.0364-63.6419 50.0364-68.5742Q50.0364-72.0692 48.3512-74.927Q46.666-77.7847 43.8061-79.5011Q40.9462-81.2175 37.4554-81.2175Q33.8981-81.2175 31.0382-79.5011Q28.1783-77.7847 26.4931-74.927Q24.8079-72.0692 24.8079-68.5742ZM33.3035-68.4551Q31.6225-68.4551 30.2942-69.748Q28.9658-71.0409 28.9658-72.7885Q28.9658-74.536 30.2942-75.831Q31.6225-77.1261 33.3035-77.1261Q35.0467-77.1261 36.3106-75.831Q37.5745-74.536 37.5745-72.7885Q37.5745-71.0409 36.3106-69.748Q35.0467-68.4551 33.3035-68.4551Z"/>
  </g>
  <g id="Black-S" transform="matrix(1 0 0 1 2893.51 696)">
   <path d="M21.0449-64.1602Q21.0449-57.959 24.6094-53.1006Q28.1738-48.2422 33.6914-46.2891L33.6914-7.61719Q33.6914-4.6875 34.8877-1.5625Q36.084 1.5625 37.5488 3.71094Q39.0137 5.85938 39.8926 5.85938Q40.7715 5.85938 42.2363 3.71094Q43.7012 1.5625 44.873-1.5625Q46.0449-4.6875 46.0449-7.61719L46.0449-46.2891Q51.6113-48.1934 55.1758-53.0762Q58.7402-57.959 58.7402-64.1602Q58.7402-69.3848 56.2256-73.6816Q53.7109-77.9785 49.4385-80.542Q45.166-83.1055 39.8926-83.1055Q34.668-83.1055 30.3955-80.542Q26.123-77.9785 23.584-73.6816Q21.0449-69.3848 21.0449-64.1602ZM34.6191-62.9883Q32.0801-62.9883 30.127-64.9414Q28.1738-66.8945 28.1738-69.4824Q28.1738-72.1191 30.127-74.0234Q32.0801-75.9277 34.6191-75.9277Q37.3047-75.9277 39.1846-74.0234Q41.0645-72.1191 41.0645-69.4824Q41.0645-66.8945 39.1846-64.9414Q37.3047-62.9883 34.6191-62.9883Z"/>
  </g>
  <g id="Heavy-S" transform="matrix(1 0 0 1 2597.14 696)">
   <path d="M21.5405-63.9181Q21.5405-57.9359 25.007-53.2677Q28.4735-48.5994 33.8412-46.7731L33.8412-9.42653Q33.8412-5.6786 34.9107-2.23668Q35.9803 1.20524 37.3241 3.39401Q38.6679 5.58279 39.5468 5.58279Q40.4258 5.58279 41.7696 3.39401Q43.1134 1.20524 44.1585-2.23092Q45.2036-5.66708 45.2036-9.42653L45.2036-46.7731Q50.6087-48.5506 54.081-53.2433Q57.5532-57.9359 57.5532-63.9181Q57.5532-68.9007 55.148-73.0075Q52.7429-77.1142 48.6606-79.5624Q44.5783-82.0106 39.5468-82.0106Q34.5527-82.0106 30.4704-79.5624Q26.3881-77.1142 23.9643-73.0075Q21.5405-68.9007 21.5405-63.9181ZM34.5039-62.8039Q32.0686-62.8039 30.2076-64.6706Q28.3467-66.5373 28.3467-69.0099Q28.3467-71.5199 30.2076-73.3435Q32.0686-75.1671 34.5039-75.1671Q37.0627-75.1671 38.8619-73.3435Q40.6611-71.5199 40.6611-69.0099Q40.6611-66.5373 38.8619-64.6706Q37.0627-62.8039 34.5039-62.8039Z"/>
  </g>
  <g id="Bold-S" transform="matrix(1 0 0 1 2300.82 696)">
   <path d="M22.0947-63.6475Q22.0947-57.9102 25.4517-53.4546Q28.8086-48.999 34.0088-47.3145L34.0088-11.4502Q34.0088-6.78711 34.9365-2.99072Q35.8643 0.805664 37.0728 3.03955Q38.2812 5.27344 39.1602 5.27344Q40.0391 5.27344 41.2476 3.03955Q42.4561 0.805664 43.3594-2.97852Q44.2627-6.7627 44.2627-11.4502L44.2627-47.3145Q49.4873-48.9502 52.8564-53.4302Q56.2256-57.9102 56.2256-63.6475Q56.2256-68.3594 53.9429-72.2534Q51.6602-76.1475 47.7905-78.4668Q43.9209-80.7861 39.1602-80.7861Q34.4238-80.7861 30.5542-78.4668Q26.6846-76.1475 24.3896-72.2534Q22.0947-68.3594 22.0947-63.6475ZM34.375-62.5977Q32.0557-62.5977 30.2979-64.3677Q28.54-66.1377 28.54-68.4814Q28.54-70.8496 30.2979-72.583Q32.0557-74.3164 34.375-74.3164Q36.792-74.3164 38.501-72.583Q40.21-70.8496 40.21-68.4814Q40.21-66.1377 38.501-64.3677Q36.792-62.5977 34.375-62.5977Z"/>
  </g>
  <g id="Semibold-S" transform="matrix(1 0 0 1 2004.37 696)">
   <path d="M22.4769-63.4608Q22.4769-57.8924 25.7583-53.5834Q29.0396-49.2745 34.1243-47.6877L34.1243-12.8454Q34.1243-7.55137 34.9543-3.5106Q35.7843 0.530176 36.8995 2.79517Q38.0146 5.06016 38.8936 5.06016Q39.7725 5.06016 40.8876 2.79517Q42.0028 0.530176 42.8084-3.49395Q43.614-7.51807 43.614-12.8454L43.614-47.6877Q48.7142-49.2257 52.0122-53.559Q55.3103-57.8924 55.3103-63.4608Q55.3103-67.9861 53.112-71.7335Q50.9137-75.481 47.1907-77.7114Q43.4677-79.9419 38.8936-79.9419Q34.335-79.9419 30.612-77.7114Q26.889-75.481 24.6829-71.7335Q22.4769-67.9861 22.4769-63.4608ZM34.2861-62.4555Q32.0468-62.4555 30.3601-64.1588Q28.6733-65.8622 28.6733-68.1171Q28.6733-70.3875 30.3601-72.0587Q32.0468-73.7299 34.2861-73.7299Q36.6054-73.7299 38.2521-72.0587Q39.8989-70.3875 39.8989-68.1171Q39.8989-65.8622 38.2521-64.1588Q36.6054-62.4555 34.2861-62.4555Z"/>
  </g>
  <g id="Medium-S" transform="matrix(1 0 0 1 1707.86 696)">
   <path d="M22.7666-63.3193Q22.7666-57.8789 25.9907-53.6812Q29.2148-49.4834 34.2119-47.9707L34.2119-13.9033Q34.2119-8.13086 34.9678-3.90479Q35.7236 0.321289 36.7681 2.60986Q37.8125 4.89844 38.6914 4.89844Q39.5703 4.89844 40.6147 2.60986Q41.6592 0.321289 42.3906-3.88477Q43.1221-8.09082 43.1221-13.9033L43.1221-47.9707Q48.1279-49.4346 51.3721-53.6567Q54.6162-57.8789 54.6162-63.3193Q54.6162-67.7031 52.4819-71.3394Q50.3477-74.9756 46.7358-77.1387Q43.124-79.3018 38.6914-79.3018Q34.2676-79.3018 30.6558-77.1387Q27.0439-74.9756 24.9053-71.3394Q22.7666-67.7031 22.7666-63.3193ZM34.2188-62.3477Q32.04-62.3477 30.4072-64.0005Q28.7744-65.6533 28.7744-67.8408Q28.7744-70.0371 30.4072-71.6611Q32.04-73.2852 34.2188-73.2852Q36.4639-73.2852 38.0635-71.6611Q39.6631-70.0371 39.6631-67.8408Q39.6631-65.6533 38.0635-64.0005Q36.4639-62.3477 34.2188-62.3477Z"/>
  </g>
  <g id="Regular-S" transform="matrix(1 0 0 1 1411.42 696)">
   <path d="M23.1445-63.1348Q23.1445-57.8613 26.2939-53.8086Q29.4434-49.7559 34.3262-48.3398L34.3262-15.2832Q34.3262-8.88672 34.9854-4.41895Q35.6445 0.0488281 36.5967 2.36816Q37.5488 4.6875 38.4277 4.6875Q39.3066 4.6875 40.2588 2.36816Q41.2109 0.0488281 41.8457-4.39453Q42.4805-8.83789 42.4805-15.2832L42.4805-48.3398Q47.3633-49.707 50.5371-53.7842Q53.7109-57.8613 53.7109-63.1348Q53.7109-67.334 51.6602-70.8252Q49.6094-74.3164 46.1426-76.3916Q42.6758-78.4668 38.4277-78.4668Q34.1797-78.4668 30.7129-76.3916Q27.2461-74.3164 25.1953-70.8252Q23.1445-67.334 23.1445-63.1348ZM34.1309-62.207Q32.0312-62.207 30.4688-63.7939Q28.9062-65.3809 28.9062-67.4805Q28.9062-69.5801 30.4688-71.1426Q32.0312-72.7051 34.1309-72.7051Q36.2793-72.7051 37.8174-71.1426Q39.3555-69.5801 39.3555-67.4805Q39.3555-65.3809 37.8174-63.7939Q36.2793-62.207 34.1309-62.207Z"/>
  </g>
  <g id="Light-S" transform="matrix(1 0 0 1 1117.54 696)">
   <path d="M21.9889-62.5814Q21.9889-57.7474 24.9674-54.069Q27.946-50.3906 32.487-49.3164L32.487-11.8001Q32.487-6.85221 32.9834-3.43424Q33.4798-0.016276 34.196 1.74154Q34.9121 3.49935 35.5957 3.49935Q36.263 3.49935 36.9792 1.74154Q37.6953-0.016276 38.1755-3.41797Q38.6556-6.81966 38.6556-11.8001L38.6556-49.3164Q43.1966-50.3581 46.1914-54.0527Q49.1862-57.7474 49.1862-62.5814Q49.1862-66.3249 47.3633-69.4255Q45.5404-72.526 42.4561-74.3734Q39.3717-76.2207 35.5957-76.2207Q31.8034-76.2207 28.7191-74.3734Q25.6348-72.526 23.8118-69.4255Q21.9889-66.3249 21.9889-62.5814ZM31.6243-61.9141Q29.7689-61.9141 28.3691-63.3219Q26.9694-64.7298 26.9694-66.6016Q26.9694-68.4733 28.3691-69.8649Q29.7689-71.2565 31.6243-71.2565Q33.5286-71.2565 34.8958-69.8649Q36.263-68.4733 36.263-66.6016Q36.263-64.7298 34.8958-63.3219Q33.5286-61.9141 31.6243-61.9141Z"/>
  </g>
  <g id="Thin-S" transform="matrix(1 0 0 1 824.586 696)">
   <path d="M20.4606-61.8495Q20.4606-57.5967 23.213-54.4134Q25.9655-51.2302 30.0545-50.608L30.0545-7.19349Q30.0545-4.16142 30.3357-2.1319Q30.6168-0.102382 31.0208 0.912771Q31.4248 1.92792 31.8501 1.92792Q32.2376 1.92792 32.6416 0.912771Q33.0456-0.102382 33.3213-2.12639Q33.5969-4.15039 33.5969-7.19349L33.5969-50.608Q37.6859-51.2191 40.4439-54.4079Q43.2019-57.5967 43.2019-61.8495Q43.2019-64.9902 41.6803-67.5742Q40.1588-70.1581 37.5803-71.7041Q35.0019-73.2501 31.8501-73.2501Q28.6605-73.2501 26.0821-71.7041Q23.5037-70.1581 21.9821-67.5742Q20.4606-64.9902 20.4606-61.8495ZM28.3093-61.5266Q26.7767-61.5266 25.5922-62.6977Q24.4078-63.8688 24.4078-65.4391Q24.4078-67.0095 25.5922-68.1751Q26.7767-69.3407 28.3093-69.3407Q29.8907-69.3407 31.0318-68.1751Q32.173-67.0095 32.173-65.4391Q32.173-63.8688 31.0318-62.6977Q29.8907-61.5266 28.3093-61.5266Z"/>
  </g>
  <g id="Ultralight-S" transform="matrix(1 0 0 1 529.798 696)">
   <path d="M19.6777-61.4746Q19.6777-57.5195 22.3145-54.5898Q24.9512-51.6602 28.8086-51.2695L28.8086-4.83398Q28.8086-2.7832 28.9795-1.46484Q29.1504-0.146484 29.3945 0.488281Q29.6387 1.12305 29.9316 1.12305Q30.1758 1.12305 30.4199 0.488281Q30.6641-0.146484 30.835-1.46484Q31.0059-2.7832 31.0059-4.83398L31.0059-51.2695Q34.8633-51.6602 37.5-54.5898Q40.1367-57.5195 40.1367-61.4746Q40.1367-64.3066 38.7695-66.626Q37.4023-68.9453 35.083-70.3369Q32.7637-71.7285 29.9316-71.7285Q27.0508-71.7285 24.7314-70.3369Q22.4121-68.9453 21.0449-66.626Q19.6777-64.3066 19.6777-61.4746ZM26.6113-61.3281Q25.2441-61.3281 24.1699-62.3779Q23.0957-63.4277 23.0957-64.8438Q23.0957-66.2598 24.1699-67.3096Q25.2441-68.3594 26.6113-68.3594Q28.0273-68.3594 29.0527-67.3096Q30.0781-66.2598 30.0781-64.8438Q30.0781-63.4277 29.0527-62.3779Q28.0273-61.3281 26.6113-61.3281Z"/>
  </g>
 </g>
</svg>
