<?xml version="1.0" encoding="UTF-8"?>
<!--Generator: Apple Native CoreSVG 175.5-->
<!DOCTYPE svg
PUBLIC "-//W3C//DTD SVG 1.1//EN"
       "http://www.w3.org/Graphics/SVG/1.1/DTD/svg11.dtd">
<svg version="1.1" xmlns="http://www.w3.org/2000/svg" xmlns:xlink="http://www.w3.org/1999/xlink" width="3300" height="2200">
 <!--glyph: "uni100708.medium", point size: 100.0, font version: "18.0d9e1", template writer version: "84"-->
 <g id="Notes">
  <rect height="2200" id="artboard" style="fill:white;opacity:1" width="3300" x="0" y="0"/>
  <line style="fill:none;stroke:black;opacity:1;stroke-width:0.5;" x1="263" x2="3036" y1="292" y2="292"/>
  <text style="stroke:none;fill:black;font-family:sans-serif;font-size:13;font-weight:bold;" transform="matrix(1 0 0 1 263 322)">Weight/Scale Variations</text>
  <text style="stroke:none;fill:black;font-family:sans-serif;font-size:13;text-anchor:middle;" transform="matrix(1 0 0 1 559.711 322)">Ultralight</text>
  <text style="stroke:none;fill:black;font-family:sans-serif;font-size:13;text-anchor:middle;" transform="matrix(1 0 0 1 856.422 322)">Thin</text>
  <text style="stroke:none;fill:black;font-family:sans-serif;font-size:13;text-anchor:middle;" transform="matrix(1 0 0 1 1153.13 322)">Light</text>
  <text style="stroke:none;fill:black;font-family:sans-serif;font-size:13;text-anchor:middle;" transform="matrix(1 0 0 1 1449.84 322)">Regular</text>
  <text style="stroke:none;fill:black;font-family:sans-serif;font-size:13;text-anchor:middle;" transform="matrix(1 0 0 1 1746.56 322)">Medium</text>
  <text style="stroke:none;fill:black;font-family:sans-serif;font-size:13;text-anchor:middle;" transform="matrix(1 0 0 1 2043.27 322)">Semibold</text>
  <text style="stroke:none;fill:black;font-family:sans-serif;font-size:13;text-anchor:middle;" transform="matrix(1 0 0 1 2339.98 322)">Bold</text>
  <text style="stroke:none;fill:black;font-family:sans-serif;font-size:13;text-anchor:middle;" transform="matrix(1 0 0 1 2636.69 322)">Heavy</text>
  <text style="stroke:none;fill:black;font-family:sans-serif;font-size:13;text-anchor:middle;" transform="matrix(1 0 0 1 2933.4 322)">Black</text>
  <line style="fill:none;stroke:black;opacity:1;stroke-width:0.5;" x1="263" x2="3036" y1="1903" y2="1903"/>
  <g transform="matrix(1 0 0 1 263 1933)">
   <path d="M9.24805 0.830078Q10.8691 0.830078 12.2949 0.214844Q13.7207-0.400391 14.8096-1.49414Q15.8984-2.58789 16.5186-4.01367Q17.1387-5.43945 17.1387-7.05078Q17.1387-8.66211 16.5186-10.0879Q15.8984-11.5137 14.8047-12.6074Q13.7109-13.7012 12.2852-14.3164Q10.8594-14.9316 9.23828-14.9316Q7.62695-14.9316 6.20117-14.3164Q4.77539-13.7012 3.69141-12.6074Q2.60742-11.5137 1.9873-10.0879Q1.36719-8.66211 1.36719-7.05078Q1.36719-5.43945 1.9873-4.01367Q2.60742-2.58789 3.69629-1.49414Q4.78516-0.400391 6.21094 0.214844Q7.63672 0.830078 9.24805 0.830078ZM9.24805-0.654297Q7.91992-0.654297 6.7627-1.14746Q5.60547-1.64062 4.73145-2.51953Q3.85742-3.39844 3.36426-4.56055Q2.87109-5.72266 2.87109-7.05078Q2.87109-8.37891 3.35938-9.54102Q3.84766-10.7031 4.72168-11.582Q5.5957-12.4609 6.75293-12.9541Q7.91016-13.4473 9.23828-13.4473Q10.5762-13.4473 11.7383-12.9541Q12.9004-12.4609 13.7793-11.582Q14.6582-10.7031 15.1514-9.54102Q15.6445-8.37891 15.6445-7.05078Q15.6445-5.72266 15.1514-4.56055Q14.6582-3.39844 13.7793-2.51953Q12.9004-1.64062 11.7432-1.14746Q10.5859-0.654297 9.24805-0.654297ZM5.6543-7.05078Q5.6543-6.72852 5.85938-6.52832Q6.06445-6.32812 6.40625-6.32812L8.51562-6.32812L8.51562-4.20898Q8.51562-3.88672 8.71094-3.67676Q8.90625-3.4668 9.23828-3.4668Q9.56055-3.4668 9.77051-3.67676Q9.98047-3.88672 9.98047-4.20898L9.98047-6.32812L12.0898-6.32812Q12.4219-6.32812 12.627-6.52832Q12.832-6.72852 12.832-7.05078Q12.832-7.38281 12.627-7.58789Q12.4219-7.79297 12.0898-7.79297L9.98047-7.79297L9.98047-9.90234Q9.98047-10.2344 9.77051-10.4443Q9.56055-10.6543 9.23828-10.6543Q8.90625-10.6543 8.71094-10.4443Q8.51562-10.2344 8.51562-9.90234L8.51562-7.79297L6.40625-7.79297Q6.06445-7.79297 5.85938-7.58789Q5.6543-7.38281 5.6543-7.05078Z"/>
  </g>
  <g transform="matrix(1 0 0 1 281.867 1933)">
   <path d="M11.709 2.91016Q13.75 2.91016 15.5518 2.12891Q17.3535 1.34766 18.7305-0.0292969Q20.1074-1.40625 20.8887-3.20801Q21.6699-5.00977 21.6699-7.05078Q21.6699-9.0918 20.8887-10.8936Q20.1074-12.6953 18.7305-14.0723Q17.3535-15.4492 15.5469-16.2305Q13.7402-17.0117 11.6992-17.0117Q9.6582-17.0117 7.85645-16.2305Q6.05469-15.4492 4.68262-14.0723Q3.31055-12.6953 2.5293-10.8936Q1.74805-9.0918 1.74805-7.05078Q1.74805-5.00977 2.5293-3.20801Q3.31055-1.40625 4.6875-0.0292969Q6.06445 1.34766 7.86621 2.12891Q9.66797 2.91016 11.709 2.91016ZM11.709 1.25Q9.98047 1.25 8.47656 0.605469Q6.97266-0.0390625 5.83496-1.17676Q4.69727-2.31445 4.05762-3.81836Q3.41797-5.32227 3.41797-7.05078Q3.41797-8.7793 4.05762-10.2832Q4.69727-11.7871 5.83008-12.9297Q6.96289-14.0723 8.4668-14.7119Q9.9707-15.3516 11.6992-15.3516Q13.4277-15.3516 14.9365-14.7119Q16.4453-14.0723 17.583-12.9297Q18.7207-11.7871 19.3652-10.2832Q20.0098-8.7793 20.0098-7.05078Q20.0098-5.32227 19.3701-3.81836Q18.7305-2.31445 17.5879-1.17676Q16.4453-0.0390625 14.9414 0.605469Q13.4375 1.25 11.709 1.25ZM7.17773-7.05078Q7.17773-6.69922 7.41211-6.47461Q7.64648-6.25 8.01758-6.25L10.8887-6.25L10.8887-3.36914Q10.8887-2.99805 11.1133-2.76855Q11.3379-2.53906 11.6895-2.53906Q12.0605-2.53906 12.29-2.76855Q12.5195-2.99805 12.5195-3.36914L12.5195-6.25L15.4004-6.25Q15.7715-6.25 16.001-6.47461Q16.2305-6.69922 16.2305-7.05078Q16.2305-7.42188 16.001-7.65137Q15.7715-7.88086 15.4004-7.88086L12.5195-7.88086L12.5195-10.752Q12.5195-11.1328 12.29-11.3623Q12.0605-11.5918 11.6895-11.5918Q11.3379-11.5918 11.1133-11.3574Q10.8887-11.123 10.8887-10.752L10.8887-7.88086L8.01758-7.88086Q7.63672-7.88086 7.40723-7.65137Q7.17773-7.42188 7.17773-7.05078Z"/>
  </g>
  <g transform="matrix(1 0 0 1 305.646 1933)">
   <path d="M14.9707 5.66406Q17.0605 5.66406 18.96 5.01465Q20.8594 4.36523 22.4512 3.19336Q24.043 2.02148 25.2197 0.429688Q26.3965-1.16211 27.0459-3.06641Q27.6953-4.9707 27.6953-7.05078Q27.6953-9.14062 27.0459-11.04Q26.3965-12.9395 25.2197-14.5312Q24.043-16.123 22.4512-17.2998Q20.8594-18.4766 18.9551-19.126Q17.0508-19.7754 14.9609-19.7754Q12.8711-19.7754 10.9717-19.126Q9.07227-18.4766 7.48535-17.2998Q5.89844-16.123 4.72168-14.5312Q3.54492-12.9395 2.90039-11.04Q2.25586-9.14062 2.25586-7.05078Q2.25586-4.9707 2.90527-3.06641Q3.55469-1.16211 4.72656 0.429688Q5.89844 2.02148 7.49023 3.19336Q9.08203 4.36523 10.9814 5.01465Q12.8809 5.66406 14.9707 5.66406ZM14.9707 3.84766Q13.1641 3.84766 11.5283 3.2959Q9.89258 2.74414 8.53516 1.74805Q7.17773 0.751953 6.17676-0.610352Q5.17578-1.97266 4.62891-3.6084Q4.08203-5.24414 4.08203-7.05078Q4.08203-8.86719 4.62891-10.5029Q5.17578-12.1387 6.17188-13.501Q7.16797-14.8633 8.52539-15.8594Q9.88281-16.8555 11.5186-17.4023Q13.1543-17.9492 14.9609-17.9492Q16.7773-17.9492 18.4131-17.4023Q20.0488-16.8555 21.4111-15.8594Q22.7734-14.8633 23.7744-13.501Q24.7754-12.1387 25.3223-10.5029Q25.8691-8.86719 25.8691-7.05078Q25.8691-5.24414 25.3223-3.6084Q24.7754-1.97266 23.7793-0.610352Q22.7832 0.751953 21.4209 1.74805Q20.0586 2.74414 18.4229 3.2959Q16.7871 3.84766 14.9707 3.84766ZM9.19922-7.05078Q9.19922-6.66992 9.45801-6.4209Q9.7168-6.17188 10.1172-6.17188L14.0625-6.17188L14.0625-2.2168Q14.0625-1.81641 14.3115-1.55762Q14.5605-1.29883 14.9512-1.29883Q15.3516-1.29883 15.6104-1.55273Q15.8691-1.80664 15.8691-2.2168L15.8691-6.17188L19.8242-6.17188Q20.2246-6.17188 20.4785-6.4209Q20.7324-6.66992 20.7324-7.05078Q20.7324-7.46094 20.4785-7.71484Q20.2246-7.96875 19.8242-7.96875L15.8691-7.96875L15.8691-11.9141Q15.8691-12.3242 15.6104-12.583Q15.3516-12.8418 14.9512-12.8418Q14.5605-12.8418 14.3115-12.583Q14.0625-12.3242 14.0625-11.9141L14.0625-7.96875L10.1172-7.96875Q9.70703-7.96875 9.45312-7.71484Q9.19922-7.46094 9.19922-7.05078Z"/>
  </g>
  <text style="stroke:none;fill:black;font-family:sans-serif;font-size:13;font-weight:bold;" transform="matrix(1 0 0 1 263 1953)">Design Variations</text>
  <text style="stroke:none;fill:black;font-family:sans-serif;font-size:13;" transform="matrix(1 0 0 1 263 1971)">Symbols are supported in up to nine weights and three scales.</text>
  <text style="stroke:none;fill:black;font-family:sans-serif;font-size:13;" transform="matrix(1 0 0 1 263 1989)">For optimal layout with text and other symbols, vertically align</text>
  <text style="stroke:none;fill:black;font-family:sans-serif;font-size:13;" transform="matrix(1 0 0 1 263 2007)">symbols with the adjacent text.</text>
  <line style="fill:none;stroke:#00AEEF;stroke-width:0.5;opacity:1.0;" x1="776" x2="776" y1="1919" y2="1933"/>
  <g transform="matrix(1 0 0 1 776 1933)">
   <path d="M3.31055 0.15625Q3.70117 0.15625 3.91602-0.00976562Q4.13086-0.175781 4.26758-0.585938L5.52734-4.0332L11.2891-4.0332L12.5488-0.585938Q12.6855-0.175781 12.9004-0.00976562Q13.1152 0.15625 13.4961 0.15625Q13.8867 0.15625 14.1162-0.0585938Q14.3457-0.273438 14.3457-0.644531Q14.3457-0.869141 14.2383-1.17188L9.6582-13.3691Q9.48242-13.8184 9.17969-14.043Q8.87695-14.2676 8.4082-14.2676Q7.5-14.2676 7.17773-13.3789L2.59766-1.16211Q2.49023-0.859375 2.49023-0.634766Q2.49023-0.263672 2.70996-0.0537109Q2.92969 0.15625 3.31055 0.15625ZM6.00586-5.51758L8.37891-12.0898L8.42773-12.0898L10.8008-5.51758Z"/>
  </g>
  <line style="fill:none;stroke:#00AEEF;stroke-width:0.5;opacity:1.0;" x1="793.197" x2="793.197" y1="1919" y2="1933"/>
  <text style="stroke:none;fill:black;font-family:sans-serif;font-size:13;font-weight:bold;" transform="matrix(1 0 0 1 776 1953)">Margins</text>
  <text style="stroke:none;fill:black;font-family:sans-serif;font-size:13;" transform="matrix(1 0 0 1 776 1971)">Leading and trailing margins on the left and right side of each symbol</text>
  <text style="stroke:none;fill:black;font-family:sans-serif;font-size:13;" transform="matrix(1 0 0 1 776 1989)">can be adjusted by modifying the x-location of the margin guidelines.</text>
  <text style="stroke:none;fill:black;font-family:sans-serif;font-size:13;" transform="matrix(1 0 0 1 776 2007)">Modifications are automatically applied proportionally to all</text>
  <text style="stroke:none;fill:black;font-family:sans-serif;font-size:13;" transform="matrix(1 0 0 1 776 2025)">scales and weights.</text>
  <g transform="matrix(1 0 0 1 1289 1933)">
   <path d="M2.8418 1.86523L4.54102 3.57422Q5.18555 4.22852 5.90332 4.17969Q6.62109 4.13086 7.31445 3.35938L18.0078-8.42773L17.041-9.4043L6.42578 2.27539Q6.16211 2.57812 5.89355 2.61719Q5.625 2.65625 5.27344 2.30469L4.10156 1.14258Q3.75 0.791016 3.79395 0.522461Q3.83789 0.253906 4.14062-0.0195312L15.6152-10.8203L14.6387-11.7871L3.04688-0.898438Q2.30469-0.214844 2.25098 0.498047Q2.19727 1.21094 2.8418 1.86523ZM9.25781-16.3281Q8.94531-16.0254 8.90625-15.6348Q8.86719-15.2441 9.04297-14.9512Q9.21875-14.6777 9.55566-14.541Q9.89258-14.4043 10.3809-14.5215Q11.4746-14.7754 12.5977-14.7314Q13.7207-14.6875 14.7949-13.9844L14.209-12.5293Q13.9551-11.9043 14.0674-11.4404Q14.1797-10.9766 14.5801-10.5664L16.875-8.25195Q17.2363-7.88086 17.5781-7.82227Q17.9199-7.76367 18.3398-7.8418L19.4043-8.03711L20.0684-7.36328L20.0293-6.80664Q20-6.43555 20.1221-6.12305Q20.2441-5.81055 20.6055-5.44922L21.3672-4.70703Q21.7285-4.3457 22.1533-4.33105Q22.5781-4.31641 22.9297-4.66797L25.8398-7.58789Q26.1914-7.93945 26.1816-8.35449Q26.1719-8.76953 25.8105-9.13086L25.0391-9.89258Q24.6875-10.2539 24.3799-10.3857Q24.0723-10.5176 23.7109-10.4883L23.1348-10.4395L22.4902-11.0742L22.7344-12.1973Q22.832-12.6172 22.6953-12.9834Q22.5586-13.3496 22.1191-13.7891L19.9219-15.9766Q18.6719-17.2168 17.2607-17.8369Q15.8496-18.457 14.4189-18.4814Q12.9883-18.5059 11.665-17.959Q10.3418-17.4121 9.25781-16.3281ZM10.752-15.957Q11.6602-16.6211 12.7002-16.9043Q13.7402-17.1875 14.8047-17.085Q15.8691-16.9824 16.8701-16.5137Q17.8711-16.0449 18.7012-15.2051L21.1328-12.793Q21.3086-12.6172 21.3525-12.4512Q21.3965-12.2852 21.3379-12.0312L21.0156-10.5469L22.5195-9.0625L23.5059-9.12109Q23.6914-9.13086 23.7891-9.09668Q23.8867-9.0625 24.0332-8.91602L24.6094-8.33984L22.168-5.89844L21.5918-6.47461Q21.4453-6.62109 21.4062-6.71875Q21.3672-6.81641 21.377-7.01172L21.4453-7.98828L19.9512-9.47266L18.4277-9.21875Q18.1836-9.16992 18.042-9.2041Q17.9004-9.23828 17.7148-9.41406L15.7129-11.416Q15.5176-11.5918 15.4932-11.7529Q15.4688-11.9141 15.5859-12.1875L16.4648-14.2773Q15.293-15.3711 13.8281-15.791Q12.3633-16.2109 10.8398-15.7617Q10.7227-15.7324 10.6885-15.8057Q10.6543-15.8789 10.752-15.957Z"/>
  </g>
  <text style="stroke:none;fill:black;font-family:sans-serif;font-size:13;font-weight:bold;" transform="matrix(1 0 0 1 1289 1953)">Exporting</text>
  <text style="stroke:none;fill:black;font-family:sans-serif;font-size:13;" transform="matrix(1 0 0 1 1289 1971)">Symbols should be outlined when exporting to ensure the</text>
  <text style="stroke:none;fill:black;font-family:sans-serif;font-size:13;" transform="matrix(1 0 0 1 1289 1989)">design is preserved when submitting to Xcode.</text>
  <text id="template-version" style="stroke:none;fill:black;font-family:sans-serif;font-size:13;text-anchor:end;" transform="matrix(1 0 0 1 3036 1933)">Template v.2.0</text>
  <text style="stroke:none;fill:black;font-family:sans-serif;font-size:13;text-anchor:end;" transform="matrix(1 0 0 1 3036 1951)">Requires Xcode 12 or greater</text>
  <text id="descriptive-name" style="stroke:none;fill:black;font-family:sans-serif;font-size:13;text-anchor:end;" transform="matrix(1 0 0 1 3036 1969)">Generated from mappin.circle.fill</text>
  <text style="stroke:none;fill:black;font-family:sans-serif;font-size:13;text-anchor:end;" transform="matrix(1 0 0 1 3036 1987)">Typeset at 100 points</text>
  <text style="stroke:none;fill:black;font-family:sans-serif;font-size:13;" transform="matrix(1 0 0 1 263 726)">Small</text>
  <text style="stroke:none;fill:black;font-family:sans-serif;font-size:13;" transform="matrix(1 0 0 1 263 1156)">Medium</text>
  <text style="stroke:none;fill:black;font-family:sans-serif;font-size:13;" transform="matrix(1 0 0 1 263 1586)">Large</text>
 </g>
 <g id="Guides">
  <g id="H-reference" style="fill:#27AAE1;stroke:none;" transform="matrix(1 0 0 1 339 696)">
   <path d="M0.993347 0L3.6377 0L29.3282-67.1326L30.0301-67.1326L30.0301-70.459L28.1227-70.459ZM11.6882-24.4797L46.9818-24.4797L46.2311-26.7288L12.4382-26.7288ZM55.1193 0L57.7637 0L30.6381-70.459L29.4327-70.459L29.4327-67.1326Z"/>
  </g>
  <line id="Baseline-S" style="fill:none;stroke:#27AAE1;opacity:1;stroke-width:0.5;" x1="263" x2="3036" y1="696" y2="696"/>
  <line id="Capline-S" style="fill:none;stroke:#27AAE1;opacity:1;stroke-width:0.5;" x1="263" x2="3036" y1="625.541" y2="625.541"/>
  <g id="H-reference" style="fill:#27AAE1;stroke:none;" transform="matrix(1 0 0 1 339 1126)">
   <path d="M0.993347 0L3.6377 0L29.3282-67.1326L30.0301-67.1326L30.0301-70.459L28.1227-70.459ZM11.6882-24.4797L46.9818-24.4797L46.2311-26.7288L12.4382-26.7288ZM55.1193 0L57.7637 0L30.6381-70.459L29.4327-70.459L29.4327-67.1326Z"/>
  </g>
  <line id="Baseline-M" style="fill:none;stroke:#27AAE1;opacity:1;stroke-width:0.5;" x1="263" x2="3036" y1="1126" y2="1126"/>
  <line id="Capline-M" style="fill:none;stroke:#27AAE1;opacity:1;stroke-width:0.5;" x1="263" x2="3036" y1="1055.54" y2="1055.54"/>
  <g id="H-reference" style="fill:#27AAE1;stroke:none;" transform="matrix(1 0 0 1 339 1556)">
   <path d="M0.993347 0L3.6377 0L29.3282-67.1326L30.0301-67.1326L30.0301-70.459L28.1227-70.459ZM11.6882-24.4797L46.9818-24.4797L46.2311-26.7288L12.4382-26.7288ZM55.1193 0L57.7637 0L30.6381-70.459L29.4327-70.459L29.4327-67.1326Z"/>
  </g>
  <line id="Baseline-L" style="fill:none;stroke:#27AAE1;opacity:1;stroke-width:0.5;" x1="263" x2="3036" y1="1556" y2="1556"/>
  <line id="Capline-L" style="fill:none;stroke:#27AAE1;opacity:1;stroke-width:0.5;" x1="263" x2="3036" y1="1485.54" y2="1485.54"/>
  <line id="left-margin" style="fill:none;stroke:#00AEEF;stroke-width:0.5;opacity:1.0;" x1="1391.32" x2="1391.32" y1="1030.79" y2="1150.12"/>
  <line id="right-margin" style="fill:none;stroke:#00AEEF;stroke-width:0.5;opacity:1.0;" x1="1508.37" x2="1508.37" y1="1030.79" y2="1150.12"/>
 </g>
 <g id="Symbols">
  <g id="Black-L" transform="matrix(1 0 0 1 2854.19 1556)">
   <path d="M79.1953 32.8057Q93.2356 32.8057 105.521 27.5107Q117.806 22.2158 127.174 12.8375Q136.542 3.45916 141.848-8.82607Q147.154-21.1113 147.154-35.1309Q147.154-49.1504 141.848-61.4357Q136.542-73.7209 127.164-83.0992Q117.785-92.4775 105.5-97.7725Q93.2149-103.067 79.1746-103.067Q65.1563-103.067 52.8704-97.7725Q40.5846-92.4775 31.2276-83.0992Q21.8707-73.7209 16.5647-61.4357Q11.2588-49.1504 11.2588-35.1309Q11.2588-21.1113 16.5647-8.82607Q21.8707 3.45916 31.238 12.8375Q40.6053 22.2158 52.8912 27.5107Q65.177 32.8057 79.1953 32.8057ZM61.3232-55.9612Q61.3232-60.8479 63.7374-64.8973Q66.1515-68.9466 70.2009-71.3796Q74.2502-73.8126 79.1966-73.8126Q84.143-73.871 88.1924-71.4672Q92.2417-69.0634 94.6559-65.0141Q97.07-60.9647 97.07-55.9612Q97.07-50.3976 94.0374-45.9326Q91.0047-41.4676 86.1572-39.4294L86.1572-10.3472Q86.1572-6.96398 85.1607-3.36544Q84.1642 0.233104 82.5833 2.73719Q81.0024 5.24127 79.1966 5.24127Q77.3532 5.24127 75.7314 2.73654Q74.1096 0.231818 73.1436-3.40629Q72.1776-7.0444 72.1776-10.3472L72.1776-39.4878Q67.3859-41.548 64.3546-45.9832Q61.3232-50.4184 61.3232-55.9612ZM69.6584-60.9377Q69.6804-58.6039 71.3863-56.8883Q73.0922-55.1727 75.3092-55.1727Q77.7221-55.1727 79.3975-56.8883Q81.0729-58.6039 81.0741-60.9377Q81.0754-63.2935 79.3987-64.9701Q77.7221-66.6468 75.3092-66.6468Q73.0922-66.6468 71.3753-64.9701Q69.6584-63.2935 69.6584-60.9377Z"/>
  </g>
  <g id="Heavy-L" transform="matrix(1 0 0 1 2558.42 1556)">
   <path d="M78.2511 31.8476Q92.088 31.8476 104.202 26.6268Q116.316 21.406 125.559 12.1482Q134.802 2.89032 140.04-9.2236Q145.279-21.3375 145.279-35.1447Q145.279-48.9518 140.04-61.0657Q134.802-73.1796 125.544-82.4375Q116.286-91.6953 104.172-96.9161Q92.0582-102.137 78.2213-102.137Q64.4202-102.137 52.3033-96.9161Q40.1863-91.6953 30.9613-82.4375Q21.7362-73.1796 16.4975-61.0657Q11.2588-48.9518 11.2588-35.1447Q11.2588-21.3375 16.4975-9.2236Q21.7362 2.89032 30.9761 12.1482Q40.2161 21.406 52.333 26.6268Q64.45 31.8476 78.2511 31.8476ZM61.1725-56.8575Q61.1725-61.5261 63.4845-65.3968Q65.7965-69.2675 69.6672-71.5869Q73.5378-73.9063 78.2571-73.9063Q82.9764-73.9509 86.847-71.6538Q90.7177-69.3567 93.0297-65.486Q95.3417-61.6154 95.3417-56.8575Q95.3417-51.4289 92.3276-47.1261Q89.3135-42.8234 84.5724-40.9662L84.5724-10.7664Q84.5724-7.07936 83.6959-3.41438Q82.8194 0.250594 81.3939 2.72126Q79.9684 5.19193 78.2571 5.19193Q76.531 5.19193 75.0622 2.71824Q73.5935 0.244558 72.7453-3.45761Q71.8972-7.15978 71.8972-10.7664L71.8972-41.0109Q67.1887-42.9038 64.1806-47.1812Q61.1725-51.4586 61.1725-56.8575ZM68.9845-61.5289Q69.0203-59.3106 70.6475-57.6715Q72.2748-56.0324 74.4038-56.0324Q76.6965-56.0324 78.2954-57.6715Q79.8943-59.3106 79.9003-61.5289Q79.9063-63.783 78.3014-65.3879Q76.6965-66.9928 74.4038-66.9928Q72.2748-66.9928 70.6296-65.3879Q68.9845-63.783 68.9845-61.5289Z"/>
  </g>
  <g id="Bold-L" transform="matrix(1 0 0 1 2262.89 1556)">
   <path d="M77.0653 30.6464Q90.6516 30.6464 102.549 25.52Q114.447 20.3937 123.533 11.2893Q132.619 2.1849 137.771-9.71291Q142.923-21.6107 142.923-35.1601Q142.923-48.7094 137.771-60.6072Q132.619-72.5051 123.515-81.6094Q114.41-90.7138 102.512-95.8402Q90.6146-100.967 77.0283-100.967Q63.4932-100.967 51.5882-95.8402Q39.6833-90.7138 30.623-81.6094Q21.5627-72.5051 16.4108-60.6072Q11.2588-48.7094 11.2588-35.1601Q11.2588-21.6107 16.4108-9.71291Q21.5627 2.1849 30.6415 11.2893Q39.7203 20.3937 51.6252 25.52Q63.5301 30.6464 77.0653 30.6464ZM61.0212-57.9523Q61.0212-62.3366 63.1988-65.9743Q65.3763-69.612 69.014-71.7857Q72.6517-73.9593 77.0795-73.9593Q81.5072-73.9885 85.145-71.8295Q88.7827-69.6704 90.9602-66.0327Q93.1378-62.395 93.1378-57.9523Q93.1378-52.7062 90.1473-48.6124Q87.1568-44.5185 82.5492-42.8984L82.5492-10.913Q82.5492-6.9609 81.817-3.31083Q81.0848 0.339233 79.8604 2.70632Q78.6361 5.07341 77.0795 5.07341Q75.5307 5.07341 74.259 2.69921Q72.9873 0.325007 72.284-3.35816Q71.5806-7.04132 71.5806-10.913L71.5806-42.9276Q66.9738-44.5989 63.9975-48.6711Q61.0212-52.7432 61.0212-57.9523ZM68.1731-62.2478Q68.2243-60.1702 69.7535-58.6296Q71.2827-57.0891 73.3018-57.0891Q75.4456-57.0891 76.946-58.6296Q78.4463-60.1702 78.4606-62.2478Q78.4748-64.3766 76.9602-65.8912Q75.4456-67.4058 73.3018-67.4058Q71.2827-67.4058 69.7279-65.8912Q68.1731-64.3766 68.1731-62.2478Z"/>
  </g>
  <g id="Semibold-L" transform="matrix(1 0 0 1 1966.99 1556)">
   <path d="M76.2478 29.8183Q89.6614 29.8183 101.41 24.757Q113.159 19.6958 122.137 10.6972Q131.114 1.6986 136.206-10.0502Q141.299-21.7991 141.299-35.1707Q141.299-48.5423 136.206-60.2912Q131.114-72.04 122.116-81.0386Q113.117-90.0372 101.368-95.0984Q89.6194-100.16 76.2058-100.16Q62.854-100.16 51.0953-95.0984Q39.3365-90.0372 30.3898-81.0386Q21.4432-72.04 16.351-60.2912Q11.2588-48.5423 11.2588-35.1707Q11.2588-21.7991 16.351-10.0502Q21.4432 1.6986 30.4108 10.6972Q39.3785 19.6958 51.1372 24.757Q62.896 29.8183 76.2478 29.8183ZM60.9169-58.707Q60.9169-62.8953 63.0018-66.3724Q65.0867-69.8495 68.5638-71.9227Q72.0409-73.9959 76.2677-73.9959Q80.4944-74.0145 83.9715-71.9506Q87.4486-69.8867 89.5335-66.4096Q91.6184-62.9325 91.6184-58.707Q91.6184-53.5868 88.6442-49.637Q85.6699-45.6871 81.1544-44.2304L81.1544-11.0141Q81.1544-6.87924 80.5217-3.23945Q79.889 0.40034 78.8033 2.69602Q77.7176 4.99171 76.2677 4.99171Q74.8411 4.99171 73.7053 2.68609Q72.5694 0.380467 71.9659-3.28959Q71.3624-6.95966 71.3624-11.0141L71.3624-44.249Q66.8256-45.7675 63.8713-49.6982Q60.9169-53.6288 60.9169-58.707ZM67.6137-62.7434Q67.6755-60.7628 69.1371-59.2902Q70.5987-57.8175 72.5421-57.8175Q74.5833-57.8175 76.0157-59.2902Q77.4481-60.7628 77.468-62.7434Q77.4879-64.7858 76.0356-66.2381Q74.5833-67.6904 72.5421-67.6904Q70.5987-67.6904 69.1062-66.2381Q67.6137-64.7858 67.6137-62.7434Z"/>
  </g>
  <g id="Medium-L" transform="matrix(1 0 0 1 1670.9 1556)">
   <path d="M75.6279 29.1904Q88.9106 29.1904 100.546 24.1785Q112.182 19.1666 121.078 10.2482Q129.973 1.32986 135.02-10.306Q140.067-21.9419 140.067-35.1788Q140.067-48.4156 135.02-60.0515Q129.973-71.6874 121.055-80.6058Q112.137-89.5241 100.501-94.536Q88.8648-99.5479 75.5822-99.5479Q62.3695-99.5479 50.7215-94.536Q39.0736-89.5241 30.213-80.6058Q21.3525-71.6874 16.3056-60.0515Q11.2588-48.4156 11.2588-35.1788Q11.2588-21.9419 16.3056-10.306Q21.3525 1.32986 30.2359 10.2482Q39.1193 19.1666 50.7673 24.1785Q62.4152 29.1904 75.6279 29.1904ZM60.8378-59.2792Q60.8378-63.319 62.8524-66.6743Q64.867-70.0296 68.2224-72.0266Q71.5777-74.0236 75.6521-74.0236Q79.7265-74.0341 83.0818-72.0424Q86.4371-70.0506 88.4518-66.6953Q90.4664-63.34 90.4664-59.2792Q90.4664-54.2545 87.5045-50.4139Q84.5426-46.5732 80.0968-45.2404L80.0968-11.0907Q80.0968-6.81732 79.5395-3.18532Q78.9823 0.446674 78.0017 2.68821Q77.0212 4.92976 75.6521 4.92976Q74.3182 4.92976 73.2854 2.67614Q72.2526 0.42252 71.7247-3.23761Q71.1969-6.89774 71.1969-11.0907L71.1969-45.2509Q66.7133-46.6536 63.7755-50.4769Q60.8378-54.3003 60.8378-59.2792ZM67.1895-63.1192Q67.2594-61.2121 68.6698-59.791Q70.0801-58.3699 71.9661-58.3699Q73.9294-58.3699 75.3104-59.791Q76.6913-61.2121 76.7154-63.1192Q76.7396-65.0961 75.3345-66.5012Q73.9294-67.9063 71.9661-67.9063Q70.0801-67.9063 68.6348-66.5012Q67.1895-65.0961 67.1895-63.1192Z"/>
  </g>
  <g id="Regular-L" transform="matrix(1 0 0 1 1374.99 1556)">
   <path d="M74.8194 28.3714Q87.9312 28.3714 99.4198 23.4239Q110.908 18.4764 119.697 9.66263Q128.485 0.848896 133.473-10.6396Q138.46-22.1282 138.46-35.1893Q138.46-48.2504 133.473-59.7389Q128.485-71.2275 119.671-80.0412Q110.858-88.8549 99.3691-93.8024Q87.8805-98.7499 74.7687-98.7499Q61.7374-98.7499 50.234-93.8024Q38.7306-88.8549 29.9824-80.0412Q21.2342-71.2275 16.2465-59.7389Q11.2588-48.2504 11.2588-35.1893Q11.2588-22.1282 16.2465-10.6396Q21.2342 0.848896 30.0077 9.66263Q38.7813 18.4764 50.2847 23.4239Q61.7881 28.3714 74.8194 28.3714ZM60.7346-60.0256Q60.7346-63.8715 62.6576-67.068Q64.5805-70.2645 67.777-72.1621Q70.9735-74.0597 74.8492-74.0597Q78.7248-74.0597 81.9213-72.1621Q85.1178-70.2645 87.0407-67.068Q88.9637-63.8715 88.9637-60.0256Q88.9637-55.1255 86.0179-51.4272Q83.0721-47.7289 78.7173-46.5578L78.7173-11.1906Q78.7173-6.73655 78.2584-3.11472Q77.7996 0.50711 76.9562 2.67803Q76.1129 4.84895 74.8492 4.84895Q73.6362 4.84895 72.7377 2.66316Q71.8393 0.477371 71.4102-3.1698Q70.9811-6.81697 70.9811-11.1906L70.9811-46.5578Q66.5668-47.8093 63.6507-51.4927Q60.7346-55.1761 60.7346-60.0256ZM66.6363-63.6093Q66.7167-61.7982 68.0602-60.4443Q69.4036-59.0903 71.2148-59.0903Q73.0766-59.0903 74.3903-60.4443Q75.704-61.7982 75.7338-63.6093Q75.7635-65.5009 74.4201-66.8444Q73.0766-68.1878 71.2148-68.1878Q69.4036-68.1878 68.02-66.8444Q66.6363-65.5009 66.6363-63.6093Z"/>
  </g>
  <g id="Light-L" transform="matrix(1 0 0 1 1079.2 1556)">
   <path d="M73.8959 27.4479Q86.8436 27.4479 98.1577 22.5825Q109.472 17.717 118.137 9.03671Q126.802 0.356369 131.708-10.9577Q136.614-22.2718 136.614-35.1893Q136.614-48.1067 131.708-59.4208Q126.802-70.7349 118.122-79.4153Q109.442-88.0956 98.1275-92.961Q86.8134-97.8264 73.8658-97.8264Q60.9986-97.8264 49.6594-92.961Q38.3201-88.0956 29.6951-79.4153Q21.07-70.7349 16.1644-59.4208Q11.2588-48.1067 11.2588-35.1893Q11.2588-22.2718 16.1644-10.9577Q21.07 0.356369 29.7102 9.03671Q38.3503 17.717 49.6895 22.5825Q61.0287 27.4479 73.8959 27.4479ZM60.8578-60.6823Q60.8578-64.2409 62.6371-67.2014Q64.4164-70.1619 67.3769-71.9261Q70.3373-73.6904 73.9462-73.6904Q77.5551-73.6904 80.5156-71.9261Q83.476-70.1619 85.2553-67.2014Q87.0346-64.2409 87.0346-60.6823Q87.0346-56.0079 84.1094-52.5046Q81.1841-49.0013 76.9319-48.0764L76.9319-8.89218Q76.9319-4.97166 76.5448-1.98601Q76.1578 0.999637 75.5094 2.69855Q74.861 4.39747 73.9462 4.39747Q73.0616 4.39747 72.3478 2.67342Q71.6341 0.949377 71.2973-2.05135Q70.9605-5.05208 70.9605-8.89218L70.9605-48.0764Q66.6078-49.0817 63.7328-52.5599Q60.8578-56.0381 60.8578-60.6823ZM66.2258-64.0198Q66.3063-62.2908 67.5779-61.0292Q68.8496-59.7676 70.5786-59.7676Q72.3378-59.7676 73.5592-61.0292Q74.7806-62.2908 74.8308-64.0198Q74.8811-65.8292 73.6094-67.1009Q72.3378-68.3725 70.5786-68.3725Q68.8496-68.3725 67.5377-67.1009Q66.2258-65.8292 66.2258-64.0198Z"/>
  </g>
  <g id="Thin-L" transform="matrix(1 0 0 1 783.716 1556)">
   <path d="M72.6746 26.2265Q85.405 26.2265 96.4884 21.4696Q107.572 16.7128 116.074 8.20888Q124.577-0.295038 129.374-11.3784Q134.171-22.4618 134.171-35.1893Q134.171-47.9168 129.374-59.0001Q124.577-70.0835 116.073-78.5874Q107.569-87.0914 96.4854-91.8482Q85.402-96.605 72.6715-96.605Q60.0215-96.605 48.8994-91.8482Q37.7773-87.0914 29.3151-78.5874Q20.8529-70.0835 16.0558-59.0001Q11.2588-47.9168 11.2588-35.1893Q11.2588-22.4618 16.0558-11.3784Q20.8529-0.295038 29.3166 8.20888Q37.7803 16.7128 48.9024 21.4696Q60.0245 26.2265 72.6746 26.2265ZM61.0206-61.5509Q61.0206-64.7295 62.6099-67.3778Q64.1992-70.0262 66.8476-71.614Q69.4959-73.2018 72.752-73.2018Q76.008-73.2018 78.6563-71.614Q81.3047-70.0262 82.894-67.3778Q84.4833-64.7295 84.4833-61.5509Q84.4833-57.175 81.5852-53.9295Q78.687-50.6841 74.5705-50.0849L74.5705-5.85228Q74.5705-2.63745 74.2785-0.493204Q73.9865 1.65104 73.5959 2.72569Q73.2054 3.80034 72.752 3.80034Q72.3016 3.80034 71.8321 2.68699Q71.3626 1.57364 71.148-0.572115Q70.9334-2.71787 70.9334-5.85228L70.9334-50.0849Q66.6621-50.7645 63.8413-53.9713Q61.0206-57.178 61.0206-61.5509ZM65.683-64.5626Q65.7634-62.9422 66.9401-61.8027Q68.1167-60.6632 69.7372-60.6632Q71.3607-60.6632 72.4599-61.8027Q73.5592-62.9422 73.6366-64.5626Q73.714-66.2635 72.5373-67.4402Q71.3607-68.6168 69.7372-68.6168Q68.1167-68.6168 66.8999-67.4402Q65.683-66.2635 65.683-64.5626Z"/>
  </g>
  <g id="Ultralight-L" transform="matrix(1 0 0 1 487.631 1556)">
   <path d="M72.049 25.6009Q84.6682 25.6009 95.6335 20.8997Q106.599 16.1984 115.018 7.78487Q123.437-0.628686 128.178-11.5939Q132.92-22.5591 132.92-35.1893Q132.92-47.8194 128.178-58.7847Q123.437-69.7499 115.023-78.1634Q106.61-86.577 95.6443-91.2782Q84.6791-95.9795 72.0598-95.9795Q59.521-95.9795 48.5101-91.2782Q37.4993-86.577 29.1205-78.1634Q20.7417-69.7499 16.0002-58.7847Q11.2588-47.8194 11.2588-35.1893Q11.2588-22.5591 16.0002-11.5939Q20.7417-0.628686 29.115 7.78487Q37.4884 16.1984 48.4992 20.8997Q59.5101 25.6009 72.049 25.6009ZM61.104-61.9957Q61.104-64.9797 62.596-67.4682Q64.088-69.9567 66.5765-71.4541Q69.065-72.9516 72.1403-72.9516Q75.2156-72.9516 77.704-71.4541Q80.1925-69.9567 81.6845-67.4682Q83.1765-64.9797 83.1765-61.9957Q83.1765-57.7728 80.2923-54.6594Q77.408-51.546 73.3611-51.1137L73.3611-4.29526Q73.3611-1.44188 73.1177 0.271405Q72.8743 1.98469 72.6158 2.7396Q72.3573 3.4945 72.1403 3.4945Q71.9123 3.4945 71.568 2.69394Q71.2236 1.89339 71.0716 0.185543Q70.9195-1.5223 70.9195-4.29526L70.9195-51.1137Q66.6899-51.6264 63.897-54.6942Q61.104-57.7619 61.104-61.9957ZM65.405-64.8407Q65.4854-63.2758 66.6134-62.1989Q67.7414-61.122 69.3062-61.122Q70.8602-61.122 71.8969-62.1989Q72.9336-63.2758 73.0249-64.8407Q73.1162-66.4859 71.9882-67.6139Q70.8602-68.7419 69.3062-68.7419Q67.7414-68.7419 66.5732-67.6139Q65.405-66.4859 65.405-64.8407Z"/>
  </g>
  <g id="Black-M" transform="matrix(1 0 0 1 2871.36 1126)">
   <path d="M62.0423 18.1784Q73.0725 18.1784 82.714 14.0236Q92.3555 9.86885 99.704 2.51762Q107.052-4.83361 111.21-14.4751Q115.367-24.1166 115.367-35.1412Q115.367-46.1659 111.21-55.8074Q107.052-65.4489 99.7012-72.8001Q92.35-80.1513 82.7085-84.3061Q73.067-88.4609 62.0368-88.4609Q51.0119-88.4609 41.3705-84.3061Q31.7292-80.1513 24.3833-72.8001Q17.0375-65.4489 12.8801-55.8074Q8.72266-46.1659 8.72266-35.1412Q8.72266-24.1166 12.8801-14.4751Q17.0375-4.83361 24.3861 2.51762Q31.7347 9.86885 41.376 14.0236Q51.0174 18.1784 62.0423 18.1784ZM47.6559-50.6099Q47.6559-54.5444 49.5945-57.8031Q51.5332-61.0619 54.792-63.0264Q58.0508-64.9909 62.042-64.9909Q66.0333-65.048 69.2921-63.112Q72.5508-61.1761 74.4895-57.9173Q76.4282-54.6586 76.4282-50.6099Q76.4282-46.2142 74.0655-42.6419Q71.7029-39.0696 67.8697-37.3683L67.8697-15.2805Q67.8697-12.9927 67.0043-10.3481Q66.1389-7.70343 64.8069-5.79864Q63.475-3.89386 62.042-3.89386Q60.5575-3.89386 59.1946-5.79849Q57.8316-7.70313 56.9944-10.3791Q56.1573-13.055 56.1573-15.2805L56.1573-37.4254Q52.3818-39.1319 50.0188-42.6758Q47.6559-46.2197 47.6559-50.6099ZM54.4909-54.6942Q54.4961-52.798 55.8755-51.4156Q57.255-50.0332 59.037-50.0332Q60.9959-50.0332 62.3471-51.4156Q63.6983-52.798 63.698-54.6942Q63.6977-56.5956 62.3468-57.9466Q60.9959-59.2975 59.037-59.2975Q57.255-59.2975 55.8729-57.9466Q54.4909-56.5956 54.4909-54.6942Z"/>
  </g>
  <g id="Heavy-M" transform="matrix(1 0 0 1 2575.48 1126)">
   <path d="M61.2045 17.3271Q72.0509 17.3271 81.541 13.2372Q91.0312 9.14728 98.2688 1.90151Q105.506-5.34426 109.606-14.8344Q113.705-24.3245 113.705-35.1547Q113.705-45.985 109.606-55.4751Q105.506-64.9652 98.2607-72.2109Q91.0149-79.4567 81.5248-83.5466Q72.0347-87.6365 61.1882-87.6365Q50.3604-87.6365 40.8691-83.5466Q31.3778-79.4567 24.1495-72.2109Q16.9211-64.9652 12.8219-55.4751Q8.72266-45.985 8.72266-35.1547Q8.72266-24.3245 12.8219-14.8344Q16.9211-5.34426 24.1576 1.90151Q31.394 9.14728 40.8853 13.2372Q50.3767 17.3271 61.2045 17.3271ZM47.4972-51.4255Q47.4972-55.1733 49.3492-58.2791Q51.2013-61.385 54.3072-63.2508Q57.4131-65.1165 61.2069-65.1165Q65.0007-65.1602 68.1066-63.3162Q71.2125-61.4723 73.0646-58.3664Q74.9166-55.2605 74.9166-51.4255Q74.9166-47.1409 72.5702-43.7092Q70.2237-40.2776 66.4852-38.7305L66.4852-15.9023Q66.4852-13.2683 65.7304-10.5001Q64.9757-7.73177 63.7777-5.81611Q62.5797-3.90044 61.2069-3.90044Q59.8068-3.90044 58.5764-5.81733Q57.346-7.73422 56.6155-10.5324Q55.885-13.3306 55.885-15.9023L55.885-38.7742Q52.1852-40.3399 49.8412-43.7485Q47.4972-47.1571 47.4972-51.4255ZM53.8699-55.2343Q53.8886-53.4434 55.1978-52.1273Q56.5071-50.8112 58.2107-50.8112Q60.0614-50.8112 61.3464-52.1273Q62.6314-53.4434 62.6338-55.2343Q62.6363-57.0438 61.3489-58.3313Q60.0614-59.6187 58.2107-59.6187Q56.5071-59.6187 55.1885-58.3313Q53.8699-57.0438 53.8699-55.2343Z"/>
  </g>
  <g id="Bold-M" transform="matrix(1 0 0 1 2279.69 1126)">
   <path d="M60.2672 16.3747Q70.9082 16.3747 80.2289 12.3574Q89.5497 8.34011 96.6634 1.21231Q103.777-5.9155 107.811-15.2363Q111.845-24.557 111.845-35.1698Q111.845-45.7825 107.811-55.1033Q103.777-64.4241 96.6493-71.5519Q89.5215-78.6797 80.2007-82.697Q70.8799-86.7143 60.2389-86.7143Q49.6317-86.7143 40.3082-82.697Q30.9846-78.6797 23.8878-71.5519Q16.791-64.4241 12.7568-55.1033Q8.72266-45.7825 8.72266-35.1698Q8.72266-24.557 12.7568-15.2363Q16.791-5.9155 23.902 1.21231Q31.0129 8.34011 40.3364 12.3574Q49.6599 16.3747 60.2672 16.3747ZM47.3197-52.3379Q47.3197-55.8768 49.0749-58.8116Q50.83-61.7465 53.7649-63.5018Q56.6997-65.2571 60.2727-65.2571Q63.8457-65.2857 66.7805-63.5446Q69.7154-61.8036 71.4705-58.8687Q73.2257-55.9339 73.2257-52.3379Q73.2257-48.1775 70.8974-44.9032Q68.5691-41.6289 64.9364-40.2544L64.9364-16.5979Q64.9364-13.5766 64.3054-10.6701Q63.6745-7.76347 62.6263-5.83564Q61.5781-3.90781 60.2727-3.90781Q58.967-3.90781 57.8849-5.8384Q56.8027-7.76899 56.1916-10.704Q55.5805-13.6389 55.5805-16.5979L55.5805-40.283Q51.9652-41.6912 49.6425-44.9485Q47.3197-48.2058 47.3197-52.3379ZM53.1753-55.8384Q53.2091-54.1654 54.4397-52.9234Q55.6703-51.6814 57.2863-51.6814Q59.0162-51.6814 60.227-52.9234Q61.4378-54.1654 61.4434-55.8384Q61.4489-57.5453 60.2325-58.7616Q59.0162-59.978 57.2863-59.978Q55.6703-59.978 54.4228-58.7616Q53.1753-57.5453 53.1753-55.8384Z"/>
  </g>
  <g id="Semibold-M" transform="matrix(1 0 0 1 1983.62 1126)">
   <path d="M59.621 15.7182Q70.1203 15.7182 79.3244 11.7509Q88.5284 7.78365 95.5566 0.737173Q102.585-6.30931 106.574-15.5133Q110.564-24.7174 110.564-35.1802Q110.564-45.643 106.574-54.847Q102.585-64.0511 95.5384-71.0975Q88.4919-78.144 79.2879-82.1113Q70.0838-86.0785 59.5845-86.0785Q49.1293-86.0785 39.9215-82.1113Q30.7136-78.144 23.7075-71.0975Q16.7013-64.0511 12.712-54.847Q8.72266-45.643 8.72266-35.1802Q8.72266-24.7174 12.712-15.5133Q16.7013-6.30931 23.7257 0.737173Q30.7501 7.78365 39.958 11.7509Q49.1658 15.7182 59.621 15.7182ZM47.1973-52.9669Q47.1973-56.3618 48.8857-59.1787Q50.5741-61.9957 53.391-63.6749Q56.208-65.3541 59.6287-65.3541Q63.0493-65.3722 65.8663-63.7021Q68.6832-62.032 70.3716-59.215Q72.06-56.3981 72.06-52.9669Q72.06-48.8922 69.7442-45.7264Q67.4284-42.5605 63.8686-41.305L63.8686-17.0775Q63.8686-13.7892 63.323-10.7873Q62.7775-7.78533 61.8326-5.84911Q60.8876-3.91289 59.6287-3.91289Q58.388-3.91289 57.4081-5.85293Q56.4282-7.79297 55.8994-10.8222Q55.3705-13.8515 55.3705-17.0775L55.3705-41.3232Q51.8136-42.6228 49.5055-45.7758Q47.1973-48.9287 47.1973-52.9669ZM52.6965-56.2549Q52.7406-54.6631 53.9171-53.4722Q55.0935-52.2813 56.6491-52.2813Q58.2956-52.2813 59.4553-53.4722Q60.615-54.6631 60.6227-56.2549Q60.6303-57.8909 59.4629-59.0583Q58.2956-60.2257 56.6491-60.2257Q55.0935-60.2257 53.895-59.0583Q52.6965-57.8909 52.6965-56.2549Z"/>
  </g>
  <g id="Medium-M" transform="matrix(1 0 0 1 1687.4 1126)">
   <path d="M59.1311 15.2203Q69.523 15.2203 78.6385 11.291Q87.754 7.36172 94.7174 0.376908Q101.681-6.60791 105.636-15.7234Q109.591-24.8389 109.591-35.1881Q109.591-45.5372 105.636-54.6527Q101.681-63.7682 94.696-70.753Q87.7112-77.7378 78.5957-81.6672Q69.4802-85.5965 59.0883-85.5965Q48.7484-85.5965 39.6283-81.6672Q30.5081-77.7378 23.5707-70.753Q16.6333-63.7682 12.678-54.6527Q8.72266-45.5372 8.72266-35.1881Q8.72266-24.8389 12.678-15.7234Q16.6333-6.60791 23.5921 0.376908Q30.5509 7.36172 39.671 11.291Q48.7912 15.2203 59.1311 15.2203ZM47.1045-53.4438Q47.1045-56.7295 48.7422-59.4571Q50.38-62.1846 53.1075-63.8061Q55.8351-65.4276 59.1403-65.4276Q62.4456-65.4378 65.1731-63.8215Q67.9007-62.2052 69.5384-59.4776Q71.1761-56.7501 71.1761-53.4438Q71.1761-49.4341 68.8698-46.3505Q66.5635-43.2669 63.059-42.1016L63.059-17.4411Q63.059-13.9503 62.5782-10.8761Q62.0973-7.8019 61.2307-5.85932Q60.3641-3.91674 59.1403-3.91674Q57.9491-3.91674 57.0467-5.86394Q56.1443-7.81115 55.6778-10.9119Q55.2113-14.0126 55.2113-17.4411L55.2113-42.1119Q51.6986-43.3292 49.4016-46.403Q47.1045-49.4768 47.1045-53.4438ZM52.3334-56.5707Q52.3854-55.0405 53.5208-53.8884Q54.6562-52.7362 56.1659-52.7362Q57.7492-52.7362 58.8702-53.8884Q59.9911-55.0405 60.0004-56.5707Q60.0096-58.153 58.8794-59.2833Q57.7492-60.4135 56.1659-60.4135Q54.6562-60.4135 53.4948-59.2833Q52.3334-58.153 52.3334-56.5707Z"/>
  </g>
  <g id="Regular-M" transform="matrix(1 0 0 1 1391.32 1126)">
   <path d="M58.492 14.571Q68.7438 14.571 77.7439 10.6912Q86.7439 6.81138 93.6228-0.093004Q100.502-6.99738 104.413-15.9974Q108.324-24.9975 108.324-35.1983Q108.324-45.3992 104.413-54.3992Q100.502-63.3993 93.5973-70.3037Q86.693-77.2081 77.6929-81.0879Q68.6929-84.9677 58.441-84.9677Q48.2515-84.9677 39.2458-81.0879Q30.2401-77.2081 23.3923-70.3037Q16.5446-63.3993 12.6336-54.3992Q8.72266-45.3992 8.72266-35.1983Q8.72266-24.9975 12.6336-15.9974Q16.5446-6.99738 23.4178-0.093004Q30.291 6.81138 39.2968 10.6912Q48.3025 14.571 58.492 14.571ZM46.9835-54.0659Q46.9835-57.2092 48.5552-59.8201Q50.1268-62.4311 52.7378-63.9772Q55.3487-65.5234 58.5033-65.5234Q61.658-65.5234 64.2689-63.9772Q66.8799-62.4311 68.4515-59.8201Q70.0232-57.2092 70.0232-54.0659Q70.0232-50.1409 67.7293-47.1646Q65.4353-44.1883 62.003-43.1406L62.003-17.9154Q62.003-14.1605 61.6066-10.992Q61.2102-7.82351 60.4457-5.87264Q59.6812-3.92176 58.5033-3.92176Q57.3765-3.92176 56.5752-5.87831Q55.7739-7.83486 55.3888-11.0288Q55.0037-14.2228 55.0037-17.9154L55.0037-43.1406Q51.5487-44.2506 49.2661-47.2212Q46.9835-50.1918 46.9835-54.0659ZM51.8598-56.9827Q51.9221-55.5327 53.0039-54.4312Q54.0857-53.3296 55.5356-53.3296Q57.0365-53.3296 58.1069-54.4312Q59.1774-55.5327 59.1887-56.9827Q59.2-58.4949 58.1183-59.5767Q57.0365-60.6585 55.5356-60.6585Q54.0857-60.6585 52.9727-59.5767Q51.8598-58.4949 51.8598-56.9827Z"/>
  </g>
  <g id="Light-M" transform="matrix(1 0 0 1 1095.44 1126)">
   <path d="M57.664 13.743Q67.7687 13.743 76.6123 9.93683Q85.456 6.13061 92.2245-0.654174Q98.993-7.43896 102.83-16.2826Q106.668-25.1263 106.668-35.1983Q106.668-45.2704 102.83-54.1141Q98.993-62.9577 92.2082-69.7425Q85.4234-76.5273 76.5798-80.3335Q67.7361-84.1397 57.6315-84.1397Q47.5892-84.1397 38.7306-80.3335Q29.8721-76.5273 23.1348-69.7425Q16.3974-62.9577 12.56-54.1141Q8.72266-45.2704 8.72266-35.1983Q8.72266-25.1263 12.56-16.2826Q16.3974-7.43896 23.151-0.654174Q29.9047 6.13061 38.7632 9.93683Q47.6217 13.743 57.664 13.743ZM47.0939-54.6546Q47.0939-57.5404 48.5368-59.9397Q49.9796-62.3391 52.379-63.7657Q54.7783-65.1922 57.6938-65.1922Q60.6093-65.1922 63.0086-63.7657Q65.408-62.3391 66.8508-59.9397Q68.2937-57.5404 68.2937-54.6546Q68.2937-50.932 66.0182-48.1305Q63.7426-45.329 60.4023-44.5022L60.4023-15.8547Q60.4023-12.5782 60.0703-9.98008Q59.7382-7.38194 59.1485-5.85424Q58.5588-4.32654 57.6938-4.32654Q56.8613-4.32654 56.2256-5.86911Q55.5899-7.41168 55.2876-10.0261Q54.9853-12.6405 54.9853-15.8547L54.9853-44.5022Q51.5855-45.3913 49.3397-48.178Q47.0939-50.9646 47.0939-54.6546ZM51.4918-57.3506Q51.5541-55.9743 52.5715-54.9555Q53.5889-53.9367 54.9652-53.9367Q56.3741-53.9367 57.3618-54.9555Q58.3494-55.9743 58.3791-57.3506Q58.4089-58.7893 57.3915-59.8067Q56.3741-60.824 54.9652-60.824Q53.5889-60.824 52.5404-59.8067Q51.4918-58.7893 51.4918-57.3506Z"/>
  </g>
  <g id="Thin-M" transform="matrix(1 0 0 1 799.828 1126)">
   <path d="M56.569 12.648Q66.479 12.648 75.1158 8.93913Q83.7526 5.23025 90.3751-1.39637Q96.9976-8.02298 100.738-16.6598Q104.478-25.2966 104.478-35.1983Q104.478-45.1001 100.738-53.7369Q96.9976-62.3737 90.371-69.0003Q83.7444-75.6269 75.1076-79.3358Q66.4707-83.0447 56.5608-83.0447Q46.7131-83.0447 38.0493-79.3358Q29.3854-75.6269 22.7941-69.0003Q16.2027-62.3737 12.4627-53.7369Q8.72266-45.1001 8.72266-35.1983Q8.72266-25.2966 12.4627-16.6598Q16.2027-8.02298 22.7982-1.39637Q29.3936 5.23025 38.0575 8.93913Q46.7214 12.648 56.569 12.648ZM47.2399-55.4333Q47.2399-57.9784 48.5124-60.0979Q49.785-62.2174 51.9045-63.4858Q54.024-64.7542 56.6231-64.7542Q59.2222-64.7542 61.3417-63.4858Q63.4612-62.2174 64.7337-60.0979Q66.0063-57.9784 66.0063-55.4333Q66.0063-51.9784 63.7551-49.4081Q61.5039-46.8377 58.2852-46.3029L58.2852-13.1292Q58.2852-10.4855 58.0384-8.6417Q57.7915-6.79792 57.433-5.82991Q57.0745-4.86189 56.6231-4.86189Q56.1799-4.86189 55.7632-5.85695Q55.3465-6.852 55.1537-8.69989Q54.961-10.5478 54.961-13.1292L54.961-46.3029Q51.6341-46.9 49.437-49.4433Q47.2399-51.9866 47.2399-55.4333ZM51.0051-57.8373Q51.0675-56.5583 51.9997-55.649Q52.9319-54.7398 54.2109-54.7398Q55.4981-54.7398 56.3762-55.649Q57.2544-56.5583 57.3084-57.8373Q57.3625-59.1786 56.4303-60.1108Q55.4981-61.0431 54.2109-61.0431Q52.9319-61.0431 51.9685-60.1108Q51.0051-59.1786 51.0051-57.8373Z"/>
  </g>
  <g id="Ultralight-M" transform="matrix(1 0 0 1 503.679 1126)">
   <path d="M56.0081 12.0871Q65.8184 12.0871 74.3492 8.42811Q82.8801 4.76909 89.4278-1.77651Q95.9756-8.32211 99.6657-16.853Q103.356-25.3839 103.356-35.1983Q103.356-45.0128 99.6657-53.5437Q95.9756-62.0746 89.43-68.6202Q82.8844-75.1658 74.3535-78.8248Q65.8226-82.4838 56.0124-82.4838Q46.2644-82.4838 37.7003-78.8248Q29.1361-75.1658 22.6196-68.6202Q16.103-62.0746 12.4128-53.5437Q8.72266-45.0128 8.72266-35.1983Q8.72266-25.3839 12.4128-16.853Q16.103-8.32211 22.6175-1.77651Q29.1319 4.76909 37.6961 8.42811Q46.2602 12.0871 56.0081 12.0871ZM47.3147-55.8322Q47.3147-58.2027 48.5-60.1789Q49.6852-62.1551 51.6614-63.3425Q53.6376-64.5299 56.0747-64.5299Q58.5118-64.5299 60.4879-63.3425Q62.4641-62.1551 63.6494-60.1789Q64.8347-58.2027 64.8347-55.8322Q64.8347-52.5143 62.5959-50.0624Q60.3572-47.6105 57.2009-47.2252L57.2009-11.7333Q57.2009-9.41359 56.9976-7.95619Q56.7944-6.49879 56.5543-5.81744Q56.3142-5.1361 56.0747-5.1361Q55.831-5.1361 55.5264-5.85071Q55.2219-6.56533 55.0852-8.02061Q54.9485-9.4759 54.9485-11.7333L54.9485-47.2252Q51.6591-47.6728 49.4869-50.0914Q47.3147-52.5101 47.3147-55.8322ZM50.7559-58.0866Q50.8182-56.8575 51.7068-56.0043Q52.5954-55.1511 53.8245-55.1511Q55.0494-55.1511 55.8714-56.0043Q56.6935-56.8575 56.76-58.0866Q56.8266-59.3781 55.938-60.2666Q55.0494-61.1552 53.8245-61.1552Q52.5954-61.1552 51.6756-60.2666Q50.7559-59.3781 50.7559-58.0866Z"/>
  </g>
  <g id="Black-S" transform="matrix(1 0 0 1 2884.57 696)">
   <path d="M48.8281 6.83594Q57.5195 6.83594 65.1123 3.56445Q72.7051 0.292969 78.4912-5.49316Q84.2773-11.2793 87.5488-18.8721Q90.8203-26.4648 90.8203-35.1562Q90.8203-43.8477 87.5488-51.4404Q84.2773-59.0332 78.4912-64.8193Q72.7051-70.6055 65.1123-73.877Q57.5195-77.1484 48.8281-77.1484Q40.1367-77.1484 32.5439-73.877Q24.9512-70.6055 19.165-64.8193Q13.3789-59.0332 10.1074-51.4404Q6.83594-43.8477 6.83594-35.1562Q6.83594-26.4648 10.1074-18.8721Q13.3789-11.2793 19.165-5.49316Q24.9512 0.292969 32.5439 3.56445Q40.1367 6.83594 48.8281 6.83594ZM37.4023-47.0703Q37.4023-50.1953 38.9404-52.7832Q40.4785-55.3711 43.0664-56.9336Q45.6543-58.4961 48.8281-58.4961Q52.002-58.5449 54.5898-57.0068Q57.1777-55.4688 58.7158-52.8809Q60.2539-50.293 60.2539-47.0703Q60.2539-43.6035 58.3984-40.7715Q56.543-37.9395 53.5156-36.5723L53.5156-19.2871Q53.5156-17.627 52.8076-15.625Q52.0996-13.623 51.0254-12.1582Q49.9512-10.6934 48.8281-10.6934Q47.6562-10.6934 46.5576-12.1582Q45.459-13.623 44.7754-15.6494Q44.0918-17.6758 44.0918-19.2871L44.0918-36.6211Q41.1133-37.9883 39.2578-40.7959Q37.4023-43.6035 37.4023-47.0703ZM42.8711-50.3418Q42.8711-48.8281 43.9697-47.7295Q45.0684-46.6309 46.4844-46.6309Q48.0469-46.6309 49.1211-47.7295Q50.1953-48.8281 50.1953-50.3418Q50.1953-51.8555 49.1211-52.9297Q48.0469-54.0039 46.4844-54.0039Q45.0684-54.0039 43.9697-52.9297Q42.8711-51.8555 42.8711-50.3418Z"/>
  </g>
  <g id="Heavy-S" transform="matrix(1 0 0 1 2588.47 696)">
   <path d="M48.2173 6.21362Q56.7704 6.21362 64.2537 2.98823Q71.737-0.237157 77.4425-5.94838Q83.1479-11.6596 86.3791-19.1429Q89.6102-26.6262 89.6102-35.1678Q89.6102-43.7094 86.3791-51.1927Q83.1479-58.6759 77.4367-64.3872Q71.7255-70.0984 64.2422-73.3238Q56.7589-76.5492 48.2058-76.5492Q39.6642-76.5492 32.1809-73.3238Q24.6976-70.0984 18.9979-64.3872Q13.2982-58.6759 10.0671-51.1927Q6.83594-43.7094 6.83594-35.1678Q6.83594-26.6262 10.0671-19.1429Q13.2982-11.6596 19.0037-5.94838Q24.7092-0.237157 32.1924 2.98823Q39.6757 6.21362 48.2173 6.21362ZM37.2525-47.6926Q37.2525-50.6909 38.733-53.175Q40.2135-55.6592 42.6976-57.1526Q45.1818-58.6459 48.2173-58.6459Q51.2529-58.6832 53.737-57.2085Q56.2212-55.7338 57.7017-53.2496Q59.1821-50.7655 59.1821-47.6926Q59.1821-44.295 57.3382-41.5609Q55.4942-38.8268 52.536-37.5634L52.536-20.0823Q52.536-18.0649 51.9145-15.8843Q51.2929-13.7037 50.3109-12.1755Q49.3289-10.6473 48.2173-10.6473Q47.08-10.6473 46.0736-12.1755Q45.0672-13.7037 44.4642-15.9087Q43.8613-18.1137 43.8613-20.0823L43.8613-37.6007Q40.9404-38.8757 39.0965-41.5911Q37.2525-44.3065 37.2525-47.6926ZM42.3871-50.7567Q42.3986-49.3237 43.4454-48.2711Q44.4921-47.2186 45.8505-47.2186Q47.3324-47.2186 48.3605-48.2711Q49.3886-49.3237 49.3886-50.7567Q49.3886-52.2012 48.3605-53.2293Q47.3324-54.2574 45.8505-54.2574Q44.4921-54.2574 43.4396-53.2293Q42.3871-52.2012 42.3871-50.7567Z"/>
  </g>
  <g id="Bold-S" transform="matrix(1 0 0 1 2292.43 696)">
   <path d="M47.5342 5.51758Q55.9326 5.51758 63.2935 2.34375Q70.6543-0.830078 76.2695-6.45752Q81.8848-12.085 85.0708-19.4458Q88.2568-26.8066 88.2568-35.1807Q88.2568-43.5547 85.0708-50.9155Q81.8848-58.2764 76.2573-63.9038Q70.6299-69.5312 63.269-72.7051Q55.9082-75.8789 47.5098-75.8789Q39.1357-75.8789 31.7749-72.7051Q24.4141-69.5312 18.811-63.9038Q13.208-58.2764 10.022-50.9155Q6.83594-43.5547 6.83594-35.1807Q6.83594-26.8066 10.022-19.4458Q13.208-12.085 18.8232-6.45752Q24.4385-0.830078 31.7993 2.34375Q39.1602 5.51758 47.5342 5.51758ZM37.085-48.3887Q37.085-51.2451 38.501-53.6133Q39.917-55.9814 42.2852-57.3975Q44.6533-58.8135 47.5342-58.8135Q50.415-58.8379 52.7832-57.4341Q55.1514-56.0303 56.5674-53.6621Q57.9834-51.2939 57.9834-48.3887Q57.9834-45.0684 56.1523-42.4438Q54.3213-39.8193 51.4404-38.6719L51.4404-20.9717Q51.4404-18.5547 50.9155-16.1743Q50.3906-13.7939 49.5117-12.1948Q48.6328-10.5957 47.5342-10.5957Q46.4355-10.5957 45.5322-12.1948Q44.6289-13.7939 44.1162-16.1987Q43.6035-18.6035 43.6035-20.9717L43.6035-38.6963Q40.7471-39.8682 38.916-42.4805Q37.085-45.0928 37.085-48.3887ZM41.8457-51.2207Q41.8701-49.8779 42.8589-48.877Q43.8477-47.876 45.1416-47.876Q46.5332-47.876 47.5098-48.877Q48.4863-49.8779 48.4863-51.2207Q48.4863-52.5879 47.5098-53.5645Q46.5332-54.541 45.1416-54.541Q43.8477-54.541 42.8467-53.5645Q41.8457-52.5879 41.8457-51.2207Z"/>
  </g>
  <g id="Semibold-S" transform="matrix(1 0 0 1 1996.19 696)">
   <path d="M47.0632 5.0377Q55.355 5.0377 62.6314 1.89941Q69.9078-1.23887 75.4608-6.80854Q81.0139-12.3782 84.1688-19.6546Q87.3237-26.9311 87.3237-35.1896Q87.3237-43.448 84.1688-50.7245Q81.0139-58.0009 75.4442-63.5706Q69.8745-69.1402 62.5981-72.2785Q55.3217-75.4168 47.0299-75.4168Q38.7714-75.4168 31.495-72.2785Q24.2186-69.1402 18.6822-63.5706Q13.1458-58.0009 9.99087-50.7245Q6.83594-43.448 6.83594-35.1896Q6.83594-26.9311 9.99087-19.6546Q13.1458-12.3782 18.6988-6.80854Q24.2519-1.23887 31.5283 1.89941Q38.8047 5.0377 47.0632 5.0377ZM36.9694-48.8686Q36.9694-51.6272 38.341-53.9154Q39.7126-56.2036 42.0008-57.5663Q44.289-58.929 47.0632-58.929Q49.8374-58.9445 52.1256-57.5896Q54.4138-56.2347 55.7854-53.9465Q57.1569-51.6583 57.1569-48.8686Q57.1569-45.6016 55.3348-43.0526Q53.5126-40.5036 50.6851-39.4361L50.6851-21.5849Q50.6851-18.8924 50.2268-16.3743Q49.7686-13.8562 48.9607-12.2082Q48.1529-10.5602 47.0632-10.5602Q45.9912-10.5602 45.159-12.2082Q44.3268-13.8562 43.8763-16.3987Q43.4258-18.9412 43.4258-21.5849L43.4258-39.4517Q40.6138-40.5524 38.7916-43.0937Q36.9694-45.6349 36.9694-48.8686ZM41.4725-51.5406Q41.5058-50.2601 42.4545-49.2946Q43.4033-48.3292 44.6528-48.3292Q45.9822-48.3292 46.9232-49.2946Q47.8643-50.2601 47.8643-51.5406Q47.8643-52.8545 46.9232-53.7955Q45.9822-54.7365 44.6528-54.7365Q43.4033-54.7365 42.4379-53.7955Q41.4725-52.8545 41.4725-51.5406Z"/>
  </g>
  <g id="Medium-S" transform="matrix(1 0 0 1 1699.83 696)">
   <path d="M46.7061 4.67383Q54.917 4.67383 62.1294 1.5625Q69.3418-1.54883 74.8477-7.07471Q80.3535-12.6006 83.4849-19.813Q86.6162-27.0254 86.6162-35.1963Q86.6162-43.3672 83.4849-50.5796Q80.3535-57.792 74.8276-63.3179Q69.3018-68.8438 62.0894-71.9551Q54.877-75.0664 46.666-75.0664Q38.4951-75.0664 31.2827-71.9551Q24.0703-68.8438 18.5845-63.3179Q13.0986-57.792 9.96729-50.5796Q6.83594-43.3672 6.83594-35.1963Q6.83594-27.0254 9.96729-19.813Q13.0986-12.6006 18.6045-7.07471Q24.1104-1.54883 31.3228 1.5625Q38.5352 4.67383 46.7061 4.67383ZM36.8818-49.2324Q36.8818-51.917 38.2197-54.1445Q39.5576-56.3721 41.7852-57.6943Q44.0127-59.0166 46.7061-59.0166Q49.3994-59.0254 51.627-57.7075Q53.8545-56.3896 55.1924-54.1621Q56.5303-51.9346 56.5303-49.2324Q56.5303-46.0059 54.7148-43.5142Q52.8994-41.0225 50.1123-40.0156L50.1123-22.0498Q50.1123-19.1484 49.7046-16.5259Q49.2969-13.9033 48.543-12.2183Q47.7891-10.5332 46.7061-10.5332Q45.6543-10.5332 44.876-12.2183Q44.0977-13.9033 43.6943-16.5503Q43.291-19.1973 43.291-22.0498L43.291-40.0244Q40.5127-41.0713 38.6973-43.5586Q36.8818-46.0459 36.8818-49.2324ZM41.1895-51.7832Q41.2295-50.5498 42.1479-49.6113Q43.0664-48.6729 44.2822-48.6729Q45.5645-48.6729 46.4785-49.6113Q47.3926-50.5498 47.3926-51.7832Q47.3926-53.0566 46.4785-53.9707Q45.5645-54.8848 44.2822-54.8848Q43.0664-54.8848 42.1279-53.9707Q41.1895-53.0566 41.1895-51.7832Z"/>
  </g>
  <g id="Regular-S" transform="matrix(1 0 0 1 1403.58 696)">
   <path d="M46.2402 4.19922Q54.3457 4.19922 61.4746 1.12305Q68.6035-1.95312 74.0479-7.42188Q79.4922-12.8906 82.5928-20.0195Q85.6934-27.1484 85.6934-35.2051Q85.6934-43.2617 82.5928-50.3906Q79.4922-57.5195 74.0234-62.9883Q68.5547-68.457 61.4258-71.5332Q54.2969-74.6094 46.1914-74.6094Q38.1348-74.6094 31.0059-71.5332Q23.877-68.457 18.457-62.9883Q13.0371-57.5195 9.93652-50.3906Q6.83594-43.2617 6.83594-35.2051Q6.83594-27.1484 9.93652-20.0195Q13.0371-12.8906 18.4814-7.42188Q23.9258-1.95312 31.0547 1.12305Q38.1836 4.19922 46.2402 4.19922ZM36.7676-49.707Q36.7676-52.2949 38.0615-54.4434Q39.3555-56.5918 41.5039-57.8613Q43.6523-59.1309 46.2402-59.1309Q48.8281-59.1309 50.9766-57.8613Q53.125-56.5918 54.4189-54.4434Q55.7129-52.2949 55.7129-49.707Q55.7129-46.5332 53.9062-44.1162Q52.0996-41.6992 49.3652-40.7715L49.3652-22.6562Q49.3652-19.4824 49.0234-16.7236Q48.6816-13.9648 47.998-12.2314Q47.3145-10.498 46.2402-10.498Q45.2148-10.498 44.5068-12.2314Q43.7988-13.9648 43.457-16.748Q43.1152-19.5312 43.1152-22.6562L43.1152-40.7715Q40.3809-41.748 38.5742-44.165Q36.7676-46.582 36.7676-49.707ZM40.8203-52.0996Q40.8691-50.9277 41.748-50.0244Q42.627-49.1211 43.7988-49.1211Q45.0195-49.1211 45.8984-50.0244Q46.7773-50.9277 46.7773-52.0996Q46.7773-53.3203 45.8984-54.1992Q45.0195-55.0781 43.7988-55.0781Q42.627-55.0781 41.7236-54.1992Q40.8203-53.3203 40.8203-52.0996Z"/>
  </g>
  <g id="Light-S" transform="matrix(1 0 0 1 1107.6 696)">
   <path d="M45.5078 3.4668Q53.4831 3.4668 60.4736 0.455729Q67.4642-2.55534 72.8109-7.91829Q78.1576-13.2812 81.193-20.2718Q84.2285-27.2624 84.2285-35.2051Q84.2285-43.1478 81.193-50.1383Q78.1576-57.1289 72.7946-62.4919Q67.4316-67.8548 60.4411-70.8659Q53.4505-73.877 45.4753-73.877Q37.5488-73.877 30.5501-70.8659Q23.5514-67.8548 18.2292-62.4919Q12.9069-57.1289 9.87142-50.1383Q6.83594-43.1478 6.83594-35.2051Q6.83594-27.2624 9.87142-20.2718Q12.9069-13.2812 18.2454-7.91829Q23.584-2.55534 30.5827 0.455729Q37.5814 3.4668 45.5078 3.4668ZM36.8652-50.2279Q36.8652-52.5879 38.0452-54.5492Q39.2253-56.5104 41.1865-57.6742Q43.1478-58.8379 45.5241-58.8379Q47.9004-58.8379 49.8617-57.6742Q51.8229-56.5104 53.0029-54.5492Q54.1829-52.5879 54.1829-50.2279Q54.1829-47.2331 52.3926-44.9707Q50.6022-42.7083 47.9492-41.9759L47.9492-20.8333Q47.9492-18.0827 47.6644-15.8285Q47.3796-13.5742 46.8506-12.2152Q46.3216-10.8561 45.5241-10.8561Q44.7591-10.8561 44.1976-12.2233Q43.6361-13.5905 43.3675-15.861Q43.099-18.1315 43.099-20.8333L43.099-41.9759Q40.4134-42.7572 38.6393-45.0114Q36.8652-47.2656 36.8652-50.2279ZM40.4948-52.4251Q40.5436-51.3184 41.3656-50.4883Q42.1875-49.6582 43.2943-49.6582Q44.4336-49.6582 45.2393-50.4883Q46.0449-51.3184 46.0612-52.4251Q46.0775-53.5807 45.2555-54.4027Q44.4336-55.2246 43.2943-55.2246Q42.1875-55.2246 41.3411-54.4027Q40.4948-53.5807 40.4948-52.4251Z"/>
  </g>
  <g id="Thin-S" transform="matrix(1 0 0 1 811.863 696)">
   <path d="M44.5391 2.49811Q52.3422 2.49811 59.1498-0.426852Q65.9573-3.35181 71.1749-8.57485Q76.3924-13.7979 79.3418-20.6055Q82.2911-27.4131 82.2911-35.2051Q82.2911-42.9971 79.3418-49.8047Q76.3924-56.6123 71.1694-61.8353Q65.9463-67.0583 59.1387-69.9833Q52.3311-72.9083 44.5281-72.9083Q36.7739-72.9083 29.9474-69.9833Q23.1209-67.0583 17.9278-61.8353Q12.7347-56.6123 9.78531-49.8047Q6.83594-42.9971 6.83594-35.2051Q6.83594-27.4131 9.78531-20.6055Q12.7347-13.7979 17.9333-8.57485Q23.1319-3.35181 29.9584-0.426852Q36.7849 2.49811 44.5391 2.49811ZM36.9944-50.9167Q36.9944-52.9754 38.0237-54.6891Q39.053-56.4028 40.7668-57.4266Q42.4805-58.4504 44.5769-58.4504Q46.6734-58.4504 48.3871-57.4266Q50.1008-56.4028 51.1301-54.6891Q52.1595-52.9754 52.1595-50.9167Q52.1595-48.1587 50.3906-46.1008Q48.6218-44.043 46.0764-43.5689L46.0764-18.4224Q46.0764-16.2314 45.8669-14.6445Q45.6574-13.0576 45.333-12.1936Q45.0085-11.3297 44.5769-11.3297Q44.1564-11.3297 43.7886-12.2125Q43.4208-13.0954 43.2491-14.6878Q43.0774-16.2802 43.0774-18.4224L43.0774-43.5689Q40.4565-44.0918 38.7254-46.1308Q36.9944-48.1697 36.9944-50.9167ZM40.0643-52.8557Q40.1131-51.835 40.8597-51.1018Q41.6063-50.3686 42.627-50.3686Q43.6586-50.3686 44.3674-51.1018Q45.0762-51.835 45.114-52.8557Q45.1518-53.9252 44.4052-54.6717Q43.6586-55.4183 42.627-55.4183Q41.6063-55.4183 40.8353-54.6717Q40.0643-53.9252 40.0643-52.8557Z"/>
  </g>
  <g id="Ultralight-S" transform="matrix(1 0 0 1 515.649 696)">
   <path d="M44.043 2.00195Q51.7578 2.00195 58.4717-0.878906Q65.1855-3.75977 70.3369-8.91113Q75.4883-14.0625 78.3936-20.7764Q81.2988-27.4902 81.2988-35.2051Q81.2988-42.9199 78.3936-49.6338Q75.4883-56.3477 70.3369-61.499Q65.1855-66.6504 58.4717-69.5312Q51.7578-72.4121 44.043-72.4121Q36.377-72.4121 29.6387-69.5312Q22.9004-66.6504 17.7734-61.499Q12.6465-56.3477 9.74121-49.6338Q6.83594-42.9199 6.83594-35.2051Q6.83594-27.4902 9.74121-20.7764Q12.6465-14.0625 17.7734-8.91113Q22.9004-3.75977 29.6387-0.878906Q36.377 2.00195 44.043 2.00195ZM37.0605-51.2695Q37.0605-53.1738 38.0127-54.7607Q38.9648-56.3477 40.5518-57.2998Q42.1387-58.252 44.0918-58.252Q46.0449-58.252 47.6318-57.2998Q49.2188-56.3477 50.1709-54.7607Q51.123-53.1738 51.123-51.2695Q51.123-48.6328 49.3652-46.6797Q47.6074-44.7266 45.1172-44.3848L45.1172-17.1875Q45.1172-15.2832 44.9463-14.0381Q44.7754-12.793 44.5557-12.1826Q44.3359-11.5723 44.0918-11.5723Q43.8477-11.5723 43.5791-12.207Q43.3105-12.8418 43.1885-14.0869Q43.0664-15.332 43.0664-17.1875L43.0664-44.3848Q40.4785-44.7754 38.7695-46.7041Q37.0605-48.6328 37.0605-51.2695ZM39.8438-53.0762Q39.8926-52.0996 40.6006-51.416Q41.3086-50.7324 42.2852-50.7324Q43.2617-50.7324 43.9209-51.416Q44.5801-52.0996 44.6289-53.0762Q44.6777-54.1016 43.9697-54.8096Q43.2617-55.5176 42.2852-55.5176Q41.3086-55.5176 40.5762-54.8096Q39.8438-54.1016 39.8438-53.0762Z"/>
  </g>
 </g>
</svg>
