<?xml version="1.0" encoding="UTF-8"?>
<!--Generator: Apple Native CoreSVG 175.5-->
<!DOCTYPE svg
PUBLIC "-//W3C//DTD SVG 1.1//EN"
       "http://www.w3.org/Graphics/SVG/1.1/DTD/svg11.dtd">
<svg version="1.1" xmlns="http://www.w3.org/2000/svg" xmlns:xlink="http://www.w3.org/1999/xlink" width="3300" height="2200">
 <!--glyph: "uni100148.medium", point size: 100.0, font version: "18.0d9e1", template writer version: "84"-->
 <g id="Notes">
  <rect height="2200" id="artboard" style="fill:white;opacity:1" width="3300" x="0" y="0"/>
  <line style="fill:none;stroke:black;opacity:1;stroke-width:0.5;" x1="263" x2="3036" y1="292" y2="292"/>
  <text style="stroke:none;fill:black;font-family:sans-serif;font-size:13;font-weight:bold;" transform="matrix(1 0 0 1 263 322)">Weight/Scale Variations</text>
  <text style="stroke:none;fill:black;font-family:sans-serif;font-size:13;text-anchor:middle;" transform="matrix(1 0 0 1 559.711 322)">Ultralight</text>
  <text style="stroke:none;fill:black;font-family:sans-serif;font-size:13;text-anchor:middle;" transform="matrix(1 0 0 1 856.422 322)">Thin</text>
  <text style="stroke:none;fill:black;font-family:sans-serif;font-size:13;text-anchor:middle;" transform="matrix(1 0 0 1 1153.13 322)">Light</text>
  <text style="stroke:none;fill:black;font-family:sans-serif;font-size:13;text-anchor:middle;" transform="matrix(1 0 0 1 1449.84 322)">Regular</text>
  <text style="stroke:none;fill:black;font-family:sans-serif;font-size:13;text-anchor:middle;" transform="matrix(1 0 0 1 1746.56 322)">Medium</text>
  <text style="stroke:none;fill:black;font-family:sans-serif;font-size:13;text-anchor:middle;" transform="matrix(1 0 0 1 2043.27 322)">Semibold</text>
  <text style="stroke:none;fill:black;font-family:sans-serif;font-size:13;text-anchor:middle;" transform="matrix(1 0 0 1 2339.98 322)">Bold</text>
  <text style="stroke:none;fill:black;font-family:sans-serif;font-size:13;text-anchor:middle;" transform="matrix(1 0 0 1 2636.69 322)">Heavy</text>
  <text style="stroke:none;fill:black;font-family:sans-serif;font-size:13;text-anchor:middle;" transform="matrix(1 0 0 1 2933.4 322)">Black</text>
  <line style="fill:none;stroke:black;opacity:1;stroke-width:0.5;" x1="263" x2="3036" y1="1903" y2="1903"/>
  <g transform="matrix(1 0 0 1 263 1933)">
   <path d="M9.24805 0.830078Q10.8691 0.830078 12.2949 0.214844Q13.7207-0.400391 14.8096-1.49414Q15.8984-2.58789 16.5186-4.01367Q17.1387-5.43945 17.1387-7.05078Q17.1387-8.66211 16.5186-10.0879Q15.8984-11.5137 14.8047-12.6074Q13.7109-13.7012 12.2852-14.3164Q10.8594-14.9316 9.23828-14.9316Q7.62695-14.9316 6.20117-14.3164Q4.77539-13.7012 3.69141-12.6074Q2.60742-11.5137 1.9873-10.0879Q1.36719-8.66211 1.36719-7.05078Q1.36719-5.43945 1.9873-4.01367Q2.60742-2.58789 3.69629-1.49414Q4.78516-0.400391 6.21094 0.214844Q7.63672 0.830078 9.24805 0.830078ZM9.24805-0.654297Q7.91992-0.654297 6.7627-1.14746Q5.60547-1.64062 4.73145-2.51953Q3.85742-3.39844 3.36426-4.56055Q2.87109-5.72266 2.87109-7.05078Q2.87109-8.37891 3.35938-9.54102Q3.84766-10.7031 4.72168-11.582Q5.5957-12.4609 6.75293-12.9541Q7.91016-13.4473 9.23828-13.4473Q10.5762-13.4473 11.7383-12.9541Q12.9004-12.4609 13.7793-11.582Q14.6582-10.7031 15.1514-9.54102Q15.6445-8.37891 15.6445-7.05078Q15.6445-5.72266 15.1514-4.56055Q14.6582-3.39844 13.7793-2.51953Q12.9004-1.64062 11.7432-1.14746Q10.5859-0.654297 9.24805-0.654297ZM5.6543-7.05078Q5.6543-6.72852 5.85938-6.52832Q6.06445-6.32812 6.40625-6.32812L8.51562-6.32812L8.51562-4.20898Q8.51562-3.88672 8.71094-3.67676Q8.90625-3.4668 9.23828-3.4668Q9.56055-3.4668 9.77051-3.67676Q9.98047-3.88672 9.98047-4.20898L9.98047-6.32812L12.0898-6.32812Q12.4219-6.32812 12.627-6.52832Q12.832-6.72852 12.832-7.05078Q12.832-7.38281 12.627-7.58789Q12.4219-7.79297 12.0898-7.79297L9.98047-7.79297L9.98047-9.90234Q9.98047-10.2344 9.77051-10.4443Q9.56055-10.6543 9.23828-10.6543Q8.90625-10.6543 8.71094-10.4443Q8.51562-10.2344 8.51562-9.90234L8.51562-7.79297L6.40625-7.79297Q6.06445-7.79297 5.85938-7.58789Q5.6543-7.38281 5.6543-7.05078Z"/>
  </g>
  <g transform="matrix(1 0 0 1 281.867 1933)">
   <path d="M11.709 2.91016Q13.75 2.91016 15.5518 2.12891Q17.3535 1.34766 18.7305-0.0292969Q20.1074-1.40625 20.8887-3.20801Q21.6699-5.00977 21.6699-7.05078Q21.6699-9.0918 20.8887-10.8936Q20.1074-12.6953 18.7305-14.0723Q17.3535-15.4492 15.5469-16.2305Q13.7402-17.0117 11.6992-17.0117Q9.6582-17.0117 7.85645-16.2305Q6.05469-15.4492 4.68262-14.0723Q3.31055-12.6953 2.5293-10.8936Q1.74805-9.0918 1.74805-7.05078Q1.74805-5.00977 2.5293-3.20801Q3.31055-1.40625 4.6875-0.0292969Q6.06445 1.34766 7.86621 2.12891Q9.66797 2.91016 11.709 2.91016ZM11.709 1.25Q9.98047 1.25 8.47656 0.605469Q6.97266-0.0390625 5.83496-1.17676Q4.69727-2.31445 4.05762-3.81836Q3.41797-5.32227 3.41797-7.05078Q3.41797-8.7793 4.05762-10.2832Q4.69727-11.7871 5.83008-12.9297Q6.96289-14.0723 8.4668-14.7119Q9.9707-15.3516 11.6992-15.3516Q13.4277-15.3516 14.9365-14.7119Q16.4453-14.0723 17.583-12.9297Q18.7207-11.7871 19.3652-10.2832Q20.0098-8.7793 20.0098-7.05078Q20.0098-5.32227 19.3701-3.81836Q18.7305-2.31445 17.5879-1.17676Q16.4453-0.0390625 14.9414 0.605469Q13.4375 1.25 11.709 1.25ZM7.17773-7.05078Q7.17773-6.69922 7.41211-6.47461Q7.64648-6.25 8.01758-6.25L10.8887-6.25L10.8887-3.36914Q10.8887-2.99805 11.1133-2.76855Q11.3379-2.53906 11.6895-2.53906Q12.0605-2.53906 12.29-2.76855Q12.5195-2.99805 12.5195-3.36914L12.5195-6.25L15.4004-6.25Q15.7715-6.25 16.001-6.47461Q16.2305-6.69922 16.2305-7.05078Q16.2305-7.42188 16.001-7.65137Q15.7715-7.88086 15.4004-7.88086L12.5195-7.88086L12.5195-10.752Q12.5195-11.1328 12.29-11.3623Q12.0605-11.5918 11.6895-11.5918Q11.3379-11.5918 11.1133-11.3574Q10.8887-11.123 10.8887-10.752L10.8887-7.88086L8.01758-7.88086Q7.63672-7.88086 7.40723-7.65137Q7.17773-7.42188 7.17773-7.05078Z"/>
  </g>
  <g transform="matrix(1 0 0 1 305.646 1933)">
   <path d="M14.9707 5.66406Q17.0605 5.66406 18.96 5.01465Q20.8594 4.36523 22.4512 3.19336Q24.043 2.02148 25.2197 0.429688Q26.3965-1.16211 27.0459-3.06641Q27.6953-4.9707 27.6953-7.05078Q27.6953-9.14062 27.0459-11.04Q26.3965-12.9395 25.2197-14.5312Q24.043-16.123 22.4512-17.2998Q20.8594-18.4766 18.9551-19.126Q17.0508-19.7754 14.9609-19.7754Q12.8711-19.7754 10.9717-19.126Q9.07227-18.4766 7.48535-17.2998Q5.89844-16.123 4.72168-14.5312Q3.54492-12.9395 2.90039-11.04Q2.25586-9.14062 2.25586-7.05078Q2.25586-4.9707 2.90527-3.06641Q3.55469-1.16211 4.72656 0.429688Q5.89844 2.02148 7.49023 3.19336Q9.08203 4.36523 10.9814 5.01465Q12.8809 5.66406 14.9707 5.66406ZM14.9707 3.84766Q13.1641 3.84766 11.5283 3.2959Q9.89258 2.74414 8.53516 1.74805Q7.17773 0.751953 6.17676-0.610352Q5.17578-1.97266 4.62891-3.6084Q4.08203-5.24414 4.08203-7.05078Q4.08203-8.86719 4.62891-10.5029Q5.17578-12.1387 6.17188-13.501Q7.16797-14.8633 8.52539-15.8594Q9.88281-16.8555 11.5186-17.4023Q13.1543-17.9492 14.9609-17.9492Q16.7773-17.9492 18.4131-17.4023Q20.0488-16.8555 21.4111-15.8594Q22.7734-14.8633 23.7744-13.501Q24.7754-12.1387 25.3223-10.5029Q25.8691-8.86719 25.8691-7.05078Q25.8691-5.24414 25.3223-3.6084Q24.7754-1.97266 23.7793-0.610352Q22.7832 0.751953 21.4209 1.74805Q20.0586 2.74414 18.4229 3.2959Q16.7871 3.84766 14.9707 3.84766ZM9.19922-7.05078Q9.19922-6.66992 9.45801-6.4209Q9.7168-6.17188 10.1172-6.17188L14.0625-6.17188L14.0625-2.2168Q14.0625-1.81641 14.3115-1.55762Q14.5605-1.29883 14.9512-1.29883Q15.3516-1.29883 15.6104-1.55273Q15.8691-1.80664 15.8691-2.2168L15.8691-6.17188L19.8242-6.17188Q20.2246-6.17188 20.4785-6.4209Q20.7324-6.66992 20.7324-7.05078Q20.7324-7.46094 20.4785-7.71484Q20.2246-7.96875 19.8242-7.96875L15.8691-7.96875L15.8691-11.9141Q15.8691-12.3242 15.6104-12.583Q15.3516-12.8418 14.9512-12.8418Q14.5605-12.8418 14.3115-12.583Q14.0625-12.3242 14.0625-11.9141L14.0625-7.96875L10.1172-7.96875Q9.70703-7.96875 9.45312-7.71484Q9.19922-7.46094 9.19922-7.05078Z"/>
  </g>
  <text style="stroke:none;fill:black;font-family:sans-serif;font-size:13;font-weight:bold;" transform="matrix(1 0 0 1 263 1953)">Design Variations</text>
  <text style="stroke:none;fill:black;font-family:sans-serif;font-size:13;" transform="matrix(1 0 0 1 263 1971)">Symbols are supported in up to nine weights and three scales.</text>
  <text style="stroke:none;fill:black;font-family:sans-serif;font-size:13;" transform="matrix(1 0 0 1 263 1989)">For optimal layout with text and other symbols, vertically align</text>
  <text style="stroke:none;fill:black;font-family:sans-serif;font-size:13;" transform="matrix(1 0 0 1 263 2007)">symbols with the adjacent text.</text>
  <line style="fill:none;stroke:#00AEEF;stroke-width:0.5;opacity:1.0;" x1="776" x2="776" y1="1919" y2="1933"/>
  <g transform="matrix(1 0 0 1 776 1933)">
   <path d="M3.31055 0.15625Q3.70117 0.15625 3.91602-0.00976562Q4.13086-0.175781 4.26758-0.585938L5.52734-4.0332L11.2891-4.0332L12.5488-0.585938Q12.6855-0.175781 12.9004-0.00976562Q13.1152 0.15625 13.4961 0.15625Q13.8867 0.15625 14.1162-0.0585938Q14.3457-0.273438 14.3457-0.644531Q14.3457-0.869141 14.2383-1.17188L9.6582-13.3691Q9.48242-13.8184 9.17969-14.043Q8.87695-14.2676 8.4082-14.2676Q7.5-14.2676 7.17773-13.3789L2.59766-1.16211Q2.49023-0.859375 2.49023-0.634766Q2.49023-0.263672 2.70996-0.0537109Q2.92969 0.15625 3.31055 0.15625ZM6.00586-5.51758L8.37891-12.0898L8.42773-12.0898L10.8008-5.51758Z"/>
  </g>
  <line style="fill:none;stroke:#00AEEF;stroke-width:0.5;opacity:1.0;" x1="793.197" x2="793.197" y1="1919" y2="1933"/>
  <text style="stroke:none;fill:black;font-family:sans-serif;font-size:13;font-weight:bold;" transform="matrix(1 0 0 1 776 1953)">Margins</text>
  <text style="stroke:none;fill:black;font-family:sans-serif;font-size:13;" transform="matrix(1 0 0 1 776 1971)">Leading and trailing margins on the left and right side of each symbol</text>
  <text style="stroke:none;fill:black;font-family:sans-serif;font-size:13;" transform="matrix(1 0 0 1 776 1989)">can be adjusted by modifying the x-location of the margin guidelines.</text>
  <text style="stroke:none;fill:black;font-family:sans-serif;font-size:13;" transform="matrix(1 0 0 1 776 2007)">Modifications are automatically applied proportionally to all</text>
  <text style="stroke:none;fill:black;font-family:sans-serif;font-size:13;" transform="matrix(1 0 0 1 776 2025)">scales and weights.</text>
  <g transform="matrix(1 0 0 1 1289 1933)">
   <path d="M2.8418 1.86523L4.54102 3.57422Q5.18555 4.22852 5.90332 4.17969Q6.62109 4.13086 7.31445 3.35938L18.0078-8.42773L17.041-9.4043L6.42578 2.27539Q6.16211 2.57812 5.89355 2.61719Q5.625 2.65625 5.27344 2.30469L4.10156 1.14258Q3.75 0.791016 3.79395 0.522461Q3.83789 0.253906 4.14062-0.0195312L15.6152-10.8203L14.6387-11.7871L3.04688-0.898438Q2.30469-0.214844 2.25098 0.498047Q2.19727 1.21094 2.8418 1.86523ZM9.25781-16.3281Q8.94531-16.0254 8.90625-15.6348Q8.86719-15.2441 9.04297-14.9512Q9.21875-14.6777 9.55566-14.541Q9.89258-14.4043 10.3809-14.5215Q11.4746-14.7754 12.5977-14.7314Q13.7207-14.6875 14.7949-13.9844L14.209-12.5293Q13.9551-11.9043 14.0674-11.4404Q14.1797-10.9766 14.5801-10.5664L16.875-8.25195Q17.2363-7.88086 17.5781-7.82227Q17.9199-7.76367 18.3398-7.8418L19.4043-8.03711L20.0684-7.36328L20.0293-6.80664Q20-6.43555 20.1221-6.12305Q20.2441-5.81055 20.6055-5.44922L21.3672-4.70703Q21.7285-4.3457 22.1533-4.33105Q22.5781-4.31641 22.9297-4.66797L25.8398-7.58789Q26.1914-7.93945 26.1816-8.35449Q26.1719-8.76953 25.8105-9.13086L25.0391-9.89258Q24.6875-10.2539 24.3799-10.3857Q24.0723-10.5176 23.7109-10.4883L23.1348-10.4395L22.4902-11.0742L22.7344-12.1973Q22.832-12.6172 22.6953-12.9834Q22.5586-13.3496 22.1191-13.7891L19.9219-15.9766Q18.6719-17.2168 17.2607-17.8369Q15.8496-18.457 14.4189-18.4814Q12.9883-18.5059 11.665-17.959Q10.3418-17.4121 9.25781-16.3281ZM10.752-15.957Q11.6602-16.6211 12.7002-16.9043Q13.7402-17.1875 14.8047-17.085Q15.8691-16.9824 16.8701-16.5137Q17.8711-16.0449 18.7012-15.2051L21.1328-12.793Q21.3086-12.6172 21.3525-12.4512Q21.3965-12.2852 21.3379-12.0312L21.0156-10.5469L22.5195-9.0625L23.5059-9.12109Q23.6914-9.13086 23.7891-9.09668Q23.8867-9.0625 24.0332-8.91602L24.6094-8.33984L22.168-5.89844L21.5918-6.47461Q21.4453-6.62109 21.4062-6.71875Q21.3672-6.81641 21.377-7.01172L21.4453-7.98828L19.9512-9.47266L18.4277-9.21875Q18.1836-9.16992 18.042-9.2041Q17.9004-9.23828 17.7148-9.41406L15.7129-11.416Q15.5176-11.5918 15.4932-11.7529Q15.4688-11.9141 15.5859-12.1875L16.4648-14.2773Q15.293-15.3711 13.8281-15.791Q12.3633-16.2109 10.8398-15.7617Q10.7227-15.7324 10.6885-15.8057Q10.6543-15.8789 10.752-15.957Z"/>
  </g>
  <text style="stroke:none;fill:black;font-family:sans-serif;font-size:13;font-weight:bold;" transform="matrix(1 0 0 1 1289 1953)">Exporting</text>
  <text style="stroke:none;fill:black;font-family:sans-serif;font-size:13;" transform="matrix(1 0 0 1 1289 1971)">Symbols should be outlined when exporting to ensure the</text>
  <text style="stroke:none;fill:black;font-family:sans-serif;font-size:13;" transform="matrix(1 0 0 1 1289 1989)">design is preserved when submitting to Xcode.</text>
  <text id="template-version" style="stroke:none;fill:black;font-family:sans-serif;font-size:13;text-anchor:end;" transform="matrix(1 0 0 1 3036 1933)">Template v.2.0</text>
  <text style="stroke:none;fill:black;font-family:sans-serif;font-size:13;text-anchor:end;" transform="matrix(1 0 0 1 3036 1951)">Requires Xcode 12 or greater</text>
  <text id="descriptive-name" style="stroke:none;fill:black;font-family:sans-serif;font-size:13;text-anchor:end;" transform="matrix(1 0 0 1 3036 1969)">Generated from arrow.clockwise</text>
  <text style="stroke:none;fill:black;font-family:sans-serif;font-size:13;text-anchor:end;" transform="matrix(1 0 0 1 3036 1987)">Typeset at 100 points</text>
  <text style="stroke:none;fill:black;font-family:sans-serif;font-size:13;" transform="matrix(1 0 0 1 263 726)">Small</text>
  <text style="stroke:none;fill:black;font-family:sans-serif;font-size:13;" transform="matrix(1 0 0 1 263 1156)">Medium</text>
  <text style="stroke:none;fill:black;font-family:sans-serif;font-size:13;" transform="matrix(1 0 0 1 263 1586)">Large</text>
 </g>
 <g id="Guides">
  <g id="H-reference" style="fill:#27AAE1;stroke:none;" transform="matrix(1 0 0 1 339 696)">
   <path d="M0.993347 0L3.6377 0L29.3282-67.1326L30.0301-67.1326L30.0301-70.459L28.1227-70.459ZM11.6882-24.4797L46.9818-24.4797L46.2311-26.7288L12.4382-26.7288ZM55.1193 0L57.7637 0L30.6381-70.459L29.4327-70.459L29.4327-67.1326Z"/>
  </g>
  <line id="Baseline-S" style="fill:none;stroke:#27AAE1;opacity:1;stroke-width:0.5;" x1="263" x2="3036" y1="696" y2="696"/>
  <line id="Capline-S" style="fill:none;stroke:#27AAE1;opacity:1;stroke-width:0.5;" x1="263" x2="3036" y1="625.541" y2="625.541"/>
  <g id="H-reference" style="fill:#27AAE1;stroke:none;" transform="matrix(1 0 0 1 339 1126)">
   <path d="M0.993347 0L3.6377 0L29.3282-67.1326L30.0301-67.1326L30.0301-70.459L28.1227-70.459ZM11.6882-24.4797L46.9818-24.4797L46.2311-26.7288L12.4382-26.7288ZM55.1193 0L57.7637 0L30.6381-70.459L29.4327-70.459L29.4327-67.1326Z"/>
  </g>
  <line id="Baseline-M" style="fill:none;stroke:#27AAE1;opacity:1;stroke-width:0.5;" x1="263" x2="3036" y1="1126" y2="1126"/>
  <line id="Capline-M" style="fill:none;stroke:#27AAE1;opacity:1;stroke-width:0.5;" x1="263" x2="3036" y1="1055.54" y2="1055.54"/>
  <g id="H-reference" style="fill:#27AAE1;stroke:none;" transform="matrix(1 0 0 1 339 1556)">
   <path d="M0.993347 0L3.6377 0L29.3282-67.1326L30.0301-67.1326L30.0301-70.459L28.1227-70.459ZM11.6882-24.4797L46.9818-24.4797L46.2311-26.7288L12.4382-26.7288ZM55.1193 0L57.7637 0L30.6381-70.459L29.4327-70.459L29.4327-67.1326Z"/>
  </g>
  <line id="Baseline-L" style="fill:none;stroke:#27AAE1;opacity:1;stroke-width:0.5;" x1="263" x2="3036" y1="1556" y2="1556"/>
  <line id="Capline-L" style="fill:none;stroke:#27AAE1;opacity:1;stroke-width:0.5;" x1="263" x2="3036" y1="1485.54" y2="1485.54"/>
  <line id="left-margin" style="fill:none;stroke:#00AEEF;stroke-width:0.5;opacity:1.0;" x1="1397.99" x2="1397.99" y1="1030.79" y2="1150.12"/>
  <line id="right-margin" style="fill:none;stroke:#00AEEF;stroke-width:0.5;opacity:1.0;" x1="1501.7" x2="1501.7" y1="1030.79" y2="1150.12"/>
 </g>
 <g id="Symbols">
  <g id="Black-L" transform="matrix(1 0 0 1 2863.77 1556)">
   <path d="M11.2588-31.0834Q11.2588-18.9404 15.8023-8.3656Q20.3458 2.20919 28.3516 10.2448Q36.3573 18.2803 46.9321 22.8342Q57.5069 27.3882 69.6291 27.3882Q81.7512 27.3882 92.326 22.8342Q102.901 18.2803 110.907 10.2448Q118.912 2.20919 123.456-8.3656Q127.999-18.9404 127.999-31.0834Q127.999-35.6151 125.161-38.4237Q122.323-41.2323 117.946-41.2323Q113.669-41.2323 110.902-38.4237Q108.135-35.6151 108.135-31.0834Q108.135-23.0789 105.138-16.1194Q102.142-9.16001 96.8652-3.88362Q91.5888 1.39276 84.6008 4.38955Q77.6128 7.38633 69.6291 7.38633Q61.6454 7.38633 54.686 4.38955Q47.7265 1.39276 42.4502-3.88362Q37.1738-9.16001 34.2068-16.1194Q31.2398-23.0789 31.2398-31.0834Q31.2398-39.3579 34.09-46.4329Q36.9402-53.508 42.0705-58.813Q47.2009-64.1179 54.0435-67.0849Q60.8861-70.0519 68.8114-70.0519Q70.1766-70.0519 71.4368-69.9891Q72.697-69.9263 73.8134-69.7626L62.5252-58.6465Q61.2985-57.421 60.5501-55.9294Q59.8018-54.4379 59.8018-52.3883Q59.8018-48.347 62.6006-45.5482Q65.3994-42.7494 69.4222-42.7494Q73.3895-42.7494 75.9897-45.3924L101.529-71.3321Q104.593-74.4179 104.593-78.5188Q104.593-82.6597 101.529-85.6275L75.9909-111.651Q73.3115-114.451 69.4002-114.451Q65.3982-114.451 62.6-111.603Q59.8018-108.754 59.8018-104.655Q59.8018-102.604 60.5501-101.102Q61.2985-99.6011 62.5043-98.3744L72.3717-88.7364Q71.5222-88.8548 70.6285-88.9176Q69.7348-88.9804 68.8114-88.9804Q56.7476-88.9804 46.2897-84.5251Q35.8317-80.0698 27.9719-72.1523Q20.1122-64.2347 15.6855-53.7195Q11.2588-43.2043 11.2588-31.0834Z"/>
  </g>
  <g id="Heavy-L" transform="matrix(1 0 0 1 2567.75 1556)">
   <path d="M11.2588-31.0129Q11.2588-18.9929 15.7408-8.54106Q20.2228 1.91075 28.1354 9.84843Q36.0479 17.7861 46.4997 22.2832Q56.9515 26.7803 68.9413 26.7803Q80.9312 26.7803 91.383 22.2832Q101.835 17.7861 109.747 9.84843Q117.66 1.91075 122.142-8.54106Q126.624-18.9929 126.624-31.0129Q126.624-34.9744 124.13-37.4435Q121.635-39.9126 117.783-39.9126Q114.03-39.9126 111.622-37.4435Q109.213-34.9744 109.213-31.0129Q109.213-22.6206 106.084-15.3328Q102.954-8.04494 97.4363-2.52673Q91.9181 2.99149 84.6107 6.12062Q77.3033 9.24975 68.9413 9.24975Q60.5794 9.24975 53.2915 6.12062Q46.0036 2.99149 40.4854-2.52673Q34.9673-8.04494 31.8632-15.3328Q28.7592-22.6206 28.7592-31.0129Q28.7592-39.5924 31.774-46.9638Q34.7888-54.3353 40.1954-59.873Q45.602-65.4107 52.8006-68.5147Q59.9993-71.6188 68.3166-71.6188Q70.2549-71.6188 72.0512-71.4928Q73.8476-71.3668 75.3875-71.0713L62.129-57.959Q61.016-56.8515 60.3658-55.5147Q59.7155-54.1779 59.7155-52.3885Q59.7155-48.8254 62.1724-46.3686Q64.6293-43.9117 68.1735-43.9117Q71.7133-43.9117 73.9804-46.2447L99.6923-72.295Q102.394-75.0323 102.394-78.6457Q102.394-82.2847 99.6923-84.9271L73.986-111.098Q71.6441-113.575 68.1377-113.575Q64.6237-113.575 62.1696-111.069Q59.7155-108.562 59.7155-104.954Q59.7155-103.159 60.3658-101.81Q61.016-100.461 62.0989-99.3482L73.792-87.8401Q72.546-88.0584 71.1603-88.1844Q69.7746-88.3103 68.3166-88.3103Q56.3714-88.3103 46.0089-83.898Q35.6463-79.4858 27.8453-71.643Q20.0443-63.8001 15.6516-53.3986Q11.2588-42.9971 11.2588-31.0129Z"/>
  </g>
  <g id="Bold-L" transform="matrix(1 0 0 1 2271.9 1556)">
   <path d="M11.2588-30.9581Q11.2588-19.0917 15.664-8.79355Q20.0692 1.50464 27.8627 9.31944Q35.6563 17.1342 45.9545 21.5584Q56.2526 25.9825 68.0809 25.9825Q79.9094 25.9825 90.2076 21.5584Q100.506 17.1342 108.299 9.31944Q116.093 1.50464 120.498-8.79355Q124.903-19.0917 124.903-30.9581Q124.903-34.2202 122.835-36.2667Q120.768-38.3133 117.568-38.3133Q114.461-38.3133 112.49-36.2667Q110.52-34.2202 110.52-30.9581Q110.52-22.0892 107.229-14.3979Q103.939-6.70656 98.1246-0.892395Q92.3105 4.92177 84.6111 8.21233Q76.9117 11.5029 68.0809 11.5029Q59.2504 11.5029 51.5589 8.21233Q43.8675 4.92177 38.0534-0.892395Q32.2394-6.70656 28.97-14.3979Q25.7006-22.0892 25.7006-30.9581Q25.7006-39.9216 28.9116-47.6581Q32.1225-55.3946 37.8636-61.2167Q43.6046-67.0388 51.2377-70.3082Q58.8707-73.5776 67.6721-73.5776Q70.3397-73.5776 72.8268-73.3635Q75.3139-73.1495 77.3839-72.6852L61.5627-56.9571Q60.5956-56.0031 60.0645-54.8621Q59.5334-53.7211 59.5334-52.2468Q59.5334-49.283 61.5677-47.2488Q63.602-45.2146 66.5544-45.2146Q69.5492-45.2146 71.4088-47.1633L97.4178-73.4711Q99.7034-75.8079 99.7034-78.8143Q99.7034-81.8385 97.4178-84.1036L71.4221-110.563Q69.4952-112.633 66.5032-112.633Q63.5887-112.633 61.561-110.553Q59.5334-108.473 59.5334-105.48Q59.5334-103.992 60.0645-102.839Q60.5956-101.686 61.5249-100.719L75.6485-86.7037Q73.9108-87.0525 71.877-87.2664Q69.8432-87.4804 67.6721-87.4804Q55.873-87.4804 45.6332-83.1256Q35.3934-78.7709 27.6729-71.0277Q19.9524-63.2846 15.6056-53.0289Q11.2588-42.7733 11.2588-30.9581Z"/>
  </g>
  <g id="Semibold-L" transform="matrix(1 0 0 1 1975.78 1556)">
   <path d="M11.2588-30.9204Q11.2588-19.1599 15.611-8.96762Q19.9633 1.22467 27.6748 8.95475Q35.3863 16.6848 45.5786 21.0587Q55.7708 25.4326 67.4878 25.4326Q79.205 25.4326 89.3973 21.0587Q99.5896 16.6848 107.301 8.95475Q115.013 1.22467 119.365-8.96762Q123.717-19.1599 123.717-30.9204Q123.717-33.7002 121.943-35.4554Q120.169-37.2107 117.42-37.2107Q114.758-37.2107 113.09-35.4554Q111.421-33.7002 111.421-30.9204Q111.421-21.7229 108.019-13.7534Q104.617-5.78389 98.5992 0.234305Q92.581 6.2525 84.6113 9.65435Q76.6417 13.0562 67.4878 13.0562Q58.3342 13.0562 50.3645 9.65435Q42.3948 6.2525 36.3768 0.234305Q30.3588-5.78389 26.9754-13.7534Q23.592-21.7229 23.592-30.9204Q23.592-40.1485 26.9382-48.1367Q30.2845-56.1249 36.2561-62.1431Q42.2277-68.1612 50.1602-71.5446Q58.0927-74.928 67.2278-74.928Q70.3982-74.928 73.3615-74.6532Q76.3249-74.3785 78.7603-73.7977L61.1723-56.2664Q60.3058-55.4181 59.8568-54.4121Q59.4079-53.4061 59.4079-52.1492Q59.4079-49.5984 61.1508-47.8556Q62.8938-46.1128 65.4383-46.1128Q68.0573-46.1128 69.636-47.7966L95.8498-74.282Q97.8486-76.3426 97.8486-78.9306Q97.8486-81.5309 95.8498-83.5358L69.6546-110.195Q68.0138-111.984 65.3764-111.984Q62.8751-111.984 61.1415-110.198Q59.4079-108.411 59.4079-105.842Q59.4079-104.567 59.8568-103.548Q60.3058-102.53 61.1291-101.663L76.9284-85.9203Q74.8517-86.359 72.3711-86.6336Q69.8905-86.9082 67.2278-86.9082Q55.5294-86.9082 45.3743-82.5932Q35.2191-78.2781 27.5541-70.6036Q19.889-62.9291 15.5739-52.7741Q11.2588-42.619 11.2588-30.9204Z"/>
  </g>
  <g id="Medium-L" transform="matrix(1 0 0 1 1679.52 1556)">
   <path d="M11.2588-30.8917Q11.2588-19.2116 15.5709-9.0996Q19.883 1.01238 27.5323 8.67824Q35.1816 16.3441 45.2935 20.6798Q55.4055 25.0156 67.038 25.0156Q78.6709 25.0156 88.7829 20.6798Q98.8949 16.3441 106.544 8.67824Q114.193 1.01238 118.506-9.0996Q122.818-19.2116 122.818-30.8917Q122.818-33.306 121.267-34.8403Q119.716-36.3746 117.308-36.3746Q114.983-36.3746 113.544-34.8403Q112.104-33.306 112.104-30.8917Q112.104-21.4452 108.618-13.2647Q105.132-5.08428 98.959 1.08862Q92.7861 7.26151 84.6115 10.7477Q76.437 14.234 67.038 14.234Q57.6395 14.234 49.4588 10.7477Q41.2782 7.26151 35.1055 1.08862Q28.9328-5.08428 25.463-13.2647Q21.9931-21.4452 21.9931-30.8917Q21.9931-40.3206 25.4419-48.4996Q28.8907-56.6786 35.0372-62.8455Q41.1836-69.0123 49.3432-72.4821Q57.5028-75.952 66.8909-75.952Q70.4425-75.952 73.767-75.6311Q77.0914-75.3103 79.8038-74.6413L60.8763-55.7427Q60.086-54.9746 59.6993-54.071Q59.3127-53.1673 59.3127-52.0752Q59.3127-49.8376 60.8347-48.3158Q62.3567-46.7939 64.5919-46.7939Q66.926-46.7939 68.2917-48.2768L94.6608-74.8968Q96.4422-76.7481 96.4422-79.0188Q96.4422-81.2977 94.6608-83.1053L68.3144-109.915Q66.8905-111.492 64.522-111.492Q62.3341-111.492 60.8234-109.928Q59.3127-108.365 59.3127-106.117Q59.3127-105.002 59.6993-104.086Q60.086-103.17 60.8291-102.38L77.8988-85.3262Q75.5651-85.8331 72.7457-86.1538Q69.9264-86.4744 66.8909-86.4744Q55.2688-86.4744 45.1779-82.1894Q35.0869-77.9044 27.4639-70.282Q19.8409-62.6596 15.5499-52.5808Q11.2588-42.502 11.2588-30.8917Z"/>
  </g>
  <g id="Regular-L" transform="matrix(1 0 0 1 1383.39 1556)">
   <path d="M11.2588-30.8544Q11.2588-19.279 15.5185-9.27175Q19.7783 0.735485 27.3464 8.31756Q34.9145 15.8996 44.9218 20.1856Q54.929 24.4716 66.4514 24.4716Q77.9743 24.4716 87.9815 20.1856Q97.9888 15.8996 105.557 8.31756Q113.125 0.735485 117.385-9.27175Q121.644-19.279 121.644-30.8544Q121.644-32.7917 120.384-34.0379Q119.124-35.2842 117.162-35.2842Q115.277-35.2842 114.136-34.0379Q112.996-32.7917 112.996-30.8544Q112.996-21.0829 109.399-12.6273Q105.803-4.17175 99.4283 2.20293Q93.0537 8.57762 84.6118 12.1739Q76.1699 15.7702 66.4514 15.7702Q56.7333 15.7702 48.2776 12.1739Q39.8218 8.57762 33.4473 2.20293Q27.0729-4.17175 23.4903-12.6273Q19.9077-21.0829 19.9077-30.8544Q19.9077-40.5451 23.4903-48.973Q27.0729-57.4009 33.4473-63.7616Q39.8218-70.1224 48.2776-73.705Q56.7333-77.2875 66.4514-77.2875Q70.5004-77.2875 74.2958-76.9067Q78.0912-76.5258 81.165-75.7417L60.4902-55.0596Q59.7994-54.3961 59.4939-53.626Q59.1885-52.8559 59.1885-51.9786Q59.1885-50.1496 60.4224-48.9159Q61.6563-47.6823 63.488-47.6823Q65.4505-47.6823 66.5384-48.9031L93.11-75.6987Q94.6078-77.2769 94.6078-79.1338Q94.6078-80.9934 93.11-82.5438L66.5663-109.55Q65.4254-110.849 63.4076-110.849Q61.6284-110.849 60.4084-109.577Q59.1885-108.304 59.1885-106.475Q59.1885-105.57 59.4939-104.788Q59.7994-104.005 60.4377-103.314L79.1646-84.5514Q76.4956-85.1473 73.2344-85.5279Q69.9731-85.9086 66.4514-85.9086Q54.929-85.9086 44.9218-81.6628Q34.9145-77.417 27.3464-69.8625Q19.7783-62.3081 15.5185-52.3288Q11.2588-42.3494 11.2588-30.8544Z"/>
  </g>
  <g id="Light-L" transform="matrix(1 0 0 1 1087.33 1556)">
   <path d="M11.2588-31.0263Q11.2588-19.5653 15.4613-9.67257Q19.6638 0.220191 27.1269 7.70687Q34.59 15.1935 44.4828 19.4127Q54.3755 23.6318 65.8024 23.6318Q77.2301 23.6318 87.1228 19.4127Q97.0156 15.1935 104.479 7.70687Q111.942 0.220191 116.144-9.67257Q120.347-19.5653 120.347-31.0263Q120.347-32.5246 119.382-33.4654Q118.418-34.4062 116.933-34.4062Q115.468-34.4062 114.594-33.4654Q113.721-32.5246 113.721-31.0263Q113.721-20.9492 110.029-12.2359Q106.338-3.52274 99.7815 3.03327Q93.2255 9.58928 84.5355 13.281Q75.8454 16.9727 65.8024 16.9727Q55.7602 16.9727 47.0466 13.281Q38.333 9.58928 31.7773 3.03327Q25.2217-3.52274 21.5532-12.2359Q17.8847-20.9492 17.8847-31.0263Q17.8847-41.0222 21.5532-49.6887Q25.2217-58.3552 31.7773-64.8876Q38.333-71.4201 47.0466-75.0886Q55.7602-78.7571 65.8024-78.7571Q70.4812-78.7571 74.9255-78.2521Q79.3699-77.7472 82.8446-76.8104L59.6123-53.3992Q59.0552-52.8884 58.8164-52.2805Q58.5776-51.6726 58.5776-50.9669Q58.5776-49.5961 59.5254-48.6488Q60.4731-47.7015 61.904-47.7015Q63.3893-47.7015 64.229-48.6549L91.5449-76.4047Q92.9664-77.9067 92.9664-79.3246Q92.9664-80.8026 91.5449-82.2574L64.2761-110.142Q63.4023-111.117 61.8236-111.117Q60.4259-111.117 59.5018-110.159Q58.5776-109.201 58.5776-107.83Q58.5776-107.078 58.8164-106.477Q59.0552-105.875 59.579-105.318L81.0732-83.5971Q78.0607-84.3267 74.1029-84.8313Q70.145-85.3359 65.8024-85.3359Q54.3755-85.3359 44.4828-81.1569Q34.59-76.978 27.1269-69.538Q19.6638-62.0981 15.4613-52.2524Q11.2588-42.4068 11.2588-31.0263Z"/>
  </g>
  <g id="Thin-L" transform="matrix(1 0 0 1 791.478 1556)">
   <path d="M11.2588-31.2536Q11.2588-19.944 15.3856-10.2027Q19.5124-0.461326 26.8366 6.89919Q34.1608 14.2597 43.9022 18.3904Q53.6436 22.5211 64.944 22.5211Q76.2457 22.5211 85.9871 18.3904Q95.7285 14.2597 103.053 6.89919Q110.377-0.461326 114.504-10.2027Q118.631-19.944 118.631-31.2536Q118.631-32.1713 118.057-32.7082Q117.484-33.245 116.63-33.245Q115.72-33.245 115.2-32.7082Q114.68-32.1713 114.68-31.2536Q114.68-20.7723 110.862-11.7183Q107.045-2.66438 100.249 4.13146Q93.4528 10.9273 84.4345 14.7452Q75.4163 18.563 64.944 18.563Q54.473 18.563 45.4185 14.7452Q36.3639 10.9273 29.5687 4.13146Q22.7734-2.66438 18.9912-11.7183Q15.2091-20.7723 15.2091-31.2536Q15.2091-41.6532 18.9912-50.6353Q22.7734-59.6173 29.5687-66.3768Q36.3639-73.1364 45.4185-76.9185Q54.473-80.7007 64.944-80.7007Q70.4557-80.7007 75.7585-80.0316Q81.0612-79.3625 85.066-78.2239L58.4511-51.2033Q58.0708-50.8943 57.9203-50.501Q57.7697-50.1077 57.7697-49.6289Q57.7697-48.8641 58.339-48.2955Q58.9082-47.7269 59.809-47.7269Q60.6632-47.7269 61.1747-48.3267L89.4749-77.3386Q90.7954-78.7396 90.7954-79.5769Q90.7954-80.5503 89.4749-81.8787L61.2473-110.924Q60.7267-111.47 59.7286-111.47Q58.8356-111.47 58.3027-110.928Q57.7697-110.387 57.7697-109.622Q57.7697-109.072 57.9203-108.711Q58.0708-108.349 58.4433-107.969L83.5974-82.335Q80.1307-83.2415 75.2515-83.91Q70.3723-84.5784 64.944-84.5784Q53.6436-84.5784 43.9022-80.4879Q34.1608-76.3974 26.8366-69.1089Q19.5124-61.8203 15.3856-52.1515Q11.2588-42.4827 11.2588-31.2536Z"/>
  </g>
  <g id="Ultralight-L" transform="matrix(1 0 0 1 495.206 1556)">
   <path d="M11.2588-31.37Q11.2588-20.138 15.3468-10.4742Q19.4348-0.810396 26.6879 6.48549Q33.941 13.7814 43.6048 17.8668Q53.2686 21.9522 64.5044 21.9522Q75.7416 21.9522 85.4054 17.8668Q95.0692 13.7814 102.322 6.48549Q109.575-0.810396 113.663-10.4742Q117.751-20.138 117.751-31.37Q117.751-31.9904 117.379-32.3204Q117.006-32.6503 116.475-32.6503Q115.849-32.6503 115.51-32.3204Q115.172-31.9904 115.172-31.37Q115.172-20.6817 111.289-11.4532Q107.407-2.22473 100.488 4.69395Q93.5693 11.6126 84.3828 15.4951Q75.1964 19.3776 64.5044 19.3776Q53.8138 19.3776 44.5846 15.4951Q35.3553 11.6126 28.4374 4.69395Q21.5194-2.22473 17.679-11.4532Q13.8386-20.6817 13.8386-31.37Q13.8386-41.9765 17.679-51.1201Q21.5194-60.2637 28.4374-67.1396Q35.3553-74.0155 44.5846-77.8558Q53.8138-81.6962 64.5044-81.6962Q70.4427-81.6962 76.1851-80.9431Q81.9275-80.1899 86.2038-78.9479L57.8564-50.0785Q57.5667-49.873 57.4613-49.5896Q57.3559-49.3062 57.3559-48.9436Q57.3559-48.4892 57.7313-48.1146Q58.1066-47.74 58.7359-47.74Q59.267-47.74 59.6103-48.1586L88.4146-77.8169Q89.6835-79.1662 89.6835-79.7061Q89.6835-80.4211 88.4146-81.6847L59.6959-111.325Q59.3563-111.651 58.6555-111.651Q58.021-111.651 57.6885-111.323Q57.3559-110.995 57.3559-110.54Q57.3559-110.093 57.4613-109.855Q57.5667-109.616 57.8616-109.326L84.8902-81.6886Q81.191-82.6856 75.8399-83.438Q70.4887-84.1905 64.5044-84.1905Q53.2686-84.1905 43.6048-80.1453Q33.941-76.1 26.6879-68.889Q19.4348-61.678 15.3468-52.0998Q11.2588-42.5216 11.2588-31.37Z"/>
  </g>
  <g id="Black-M" transform="matrix(1 0 0 1 2878.95 1126)">
   <path d="M8.72266-32.1012Q8.72266-22.6033 12.2878-14.3204Q15.8529-6.03751 22.1212 0.259188Q28.3895 6.55588 36.6724 10.1238Q44.9553 13.6917 54.4477 13.6917Q63.9401 13.6917 72.223 10.1238Q80.5059 6.55588 86.7742 0.259188Q93.0425-6.03751 96.6076-14.3204Q100.173-22.6033 100.173-32.1012Q100.173-36.0427 97.718-38.469Q95.2633-40.8953 91.4873-40.8953Q87.7797-40.8953 85.3643-38.469Q82.949-36.0427 82.949-32.1012Q82.949-26.1916 80.7281-21.0472Q78.5072-15.9028 74.6026-11.9982Q70.698-8.09362 65.5249-5.8727Q60.3518-3.65179 54.4477-3.65179Q48.5436-3.65179 43.3992-5.8727Q38.2548-8.09362 34.3502-11.9982Q30.4456-15.9028 28.2531-21.0472Q26.0606-26.1916 26.0606-32.1012Q26.0606-38.2911 28.1389-43.55Q30.2172-48.8089 33.9791-52.7421Q37.7409-56.6754 42.7711-58.8679Q47.8013-61.0604 53.6484-61.0604Q54.2989-61.0604 54.9024-61.0492Q55.5059-61.038 56.0611-61.0038L48.6624-53.7375Q47.6325-52.7073 46.9774-51.4408Q46.3223-50.1742 46.3223-48.3859Q46.3223-44.906 48.7457-42.4826Q51.1691-40.0592 54.6429-40.0592Q58.0192-40.0592 60.2863-42.337L80.0259-62.4679Q82.7005-65.1477 82.7005-68.6844Q82.7005-72.2721 80.0259-74.838L60.286-94.9909Q57.9564-97.3941 54.6377-97.3941Q51.1694-97.3941 48.7458-94.9365Q46.3223-92.4789 46.3223-88.942Q46.3223-87.1539 46.9774-85.8845Q47.6325-84.6151 48.6569-83.5852L55.1073-77.3245Q54.7434-77.3485 54.3795-77.3597Q54.0156-77.3709 53.6484-77.3709Q44.2131-77.3709 36.0444-73.8913Q27.8756-70.4116 21.7501-64.2288Q15.6245-58.0461 12.1736-49.8199Q8.72266-41.5938 8.72266-32.1012Z"/>
  </g>
  <g id="Heavy-M" transform="matrix(1 0 0 1 2582.85 1126)">
   <path d="M8.72266-32.0164Q8.72266-22.6282 12.233-14.455Q15.7433-6.28171 21.9301-0.0719089Q28.117 6.13789 36.2902 9.6564Q44.4635 13.1749 53.8352 13.1749Q63.2071 13.1749 71.3803 9.6564Q79.5536 6.13789 85.7404-0.0719089Q91.9273-6.28171 95.4376-14.455Q98.9479-22.6282 98.9479-32.0164Q98.9479-35.441 96.8023-37.5636Q94.6567-39.6863 91.3488-39.6863Q88.1151-39.6863 86.0253-37.5636Q83.9355-35.441 83.9355-32.0164Q83.9355-25.756 81.594-20.3143Q79.2525-14.8726 75.1283-10.7483Q71.004-6.62409 65.5417-4.28259Q60.0793-1.9411 53.8352-1.9411Q47.5913-1.9411 42.1495-4.28259Q36.7078-6.62409 32.5836-10.7483Q28.4594-14.8726 26.1408-20.3143Q23.8223-25.756 23.8223-32.0164Q23.8223-38.4763 26.0536-44.0029Q28.2849-49.5296 32.3001-53.6745Q36.3152-57.8194 41.6697-60.138Q47.0242-62.4565 53.2245-62.4565Q54.3772-62.4565 55.4449-62.395Q56.5127-62.3335 57.4449-62.1846L48.3561-53.2186Q47.425-52.2897 46.8596-51.1594Q46.2943-50.0292 46.2943-48.4794Q46.2943-45.4248 48.4099-43.3092Q50.5255-41.1936 53.5683-41.1936Q56.5708-41.1936 58.5352-43.1931L78.3744-63.344Q80.7019-65.6902 80.7019-68.7908Q80.7019-71.9231 78.3744-74.1798L58.5374-94.3964Q56.513-96.5136 53.5496-96.5136Q50.5232-96.5136 48.4088-94.361Q46.2943-92.2083 46.2943-89.11Q46.2943-87.558 46.8596-86.4207Q47.425-85.2834 48.3397-84.3522L56.3197-76.5364Q55.5999-76.6457 54.8192-76.7072Q54.0386-76.7687 53.2245-76.7687Q43.8964-76.7687 35.8104-73.3249Q27.7244-69.8812 21.6466-63.7609Q15.5688-57.6406 12.1457-49.5133Q8.72266-41.3859 8.72266-32.0164Z"/>
  </g>
  <g id="Bold-M" transform="matrix(1 0 0 1 2286.83 1126)">
   <path d="M8.72266-31.9216Q8.72266-22.6561 12.1716-14.6055Q15.6206-6.55489 21.7163-0.442288Q27.8121 5.67032 35.8627 9.13358Q43.9133 12.5968 53.1501 12.5968Q62.3871 12.5968 70.4377 9.13358Q78.4882 5.67032 84.584-0.442288Q90.6797-6.55489 94.1287-14.6055Q97.5777-22.6561 97.5777-31.9216Q97.5777-34.7679 95.7779-36.5508Q93.9781-38.3337 91.1939-38.3337Q88.4904-38.3337 86.7647-36.5508Q85.0391-34.7679 85.0391-31.9216Q85.0391-25.2687 82.5627-19.4944Q80.0863-13.7202 75.7163-9.35019Q71.3463-4.9802 65.5604-2.50382Q59.7744-0.0274469 53.1501-0.0274469Q46.5259-0.0274469 40.7517-2.50382Q34.9774-4.9802 30.6074-9.35019Q26.2375-13.7202 23.7779-19.4944Q21.3184-25.2687 21.3184-31.9216Q21.3184-38.6834 23.7208-44.5096Q26.1233-50.3358 30.4219-54.7175Q34.7204-59.0992 40.4376-61.5587Q46.1548-64.0183 52.7504-64.0183Q54.4647-64.0183 56.0518-63.9005Q57.6389-63.7828 58.993-63.5054L48.0135-52.6382Q47.1928-51.8226 46.728-50.8448Q46.2631-49.8669 46.2631-48.584Q46.2631-46.0051 48.0343-44.2339Q49.8055-42.4627 52.3662-42.4627Q54.9505-42.4627 56.5762-44.1507L76.527-64.3241Q78.4663-66.2971 78.4663-68.9098Q78.4663-71.5328 76.527-73.4435L56.5814-93.7314Q54.8985-95.5287 52.3325-95.5287Q49.8004-95.5287 48.0317-93.7171Q46.2631-91.9056 46.2631-89.2981Q46.2631-88.0101 46.728-87.0205Q47.1928-86.0309 47.9849-85.2103L57.6759-75.6548Q56.5579-75.8595 55.3112-75.9772Q54.0644-76.095 52.7504-76.095Q43.5421-76.095 35.5486-72.6914Q27.5552-69.2878 21.5308-63.2375Q15.5064-57.1871 12.1145-49.1702Q8.72266-41.1534 8.72266-31.9216Z"/>
  </g>
  <g id="Semibold-M" transform="matrix(1 0 0 1 1990.59 1126)">
   <path d="M8.72266-31.8562Q8.72266-22.6753 12.1293-14.7092Q15.536-6.74322 21.569-0.697625Q27.6019 5.34797 35.5679 8.77315Q43.5339 12.1983 52.6778 12.1983Q61.8218 12.1983 69.7878 8.77315Q77.7538 5.34797 83.7867-0.697625Q89.8197-6.74322 93.2264-14.7092Q96.6331-22.6753 96.6331-31.8562Q96.6331-34.3039 95.0717-35.8526Q93.5103-37.4013 91.0872-37.4013Q88.7491-37.4013 87.2745-35.8526Q85.7998-34.3039 85.7998-31.8562Q85.7998-24.9327 83.2305-18.9292Q80.6611-12.9257 76.1217-8.38632Q71.5823-3.84692 65.5733-1.27755Q59.5642 1.29181 52.6778 1.29181Q45.7915 1.29181 39.788-1.27755Q33.7844-3.84692 29.2451-8.38632Q24.7057-12.9257 22.149-18.9292Q19.5922-24.9327 19.5922-31.8562Q19.5922-38.8262 22.1126-44.859Q24.6331-50.8917 29.127-55.4365Q33.621-59.9814 39.5882-62.5382Q45.5555-65.095 52.4236-65.095Q54.5251-65.095 56.4702-64.9384Q58.4152-64.7818 60.0602-64.416L47.7773-52.238Q47.0328-51.5005 46.6372-50.6278Q46.2415-49.7551 46.2415-48.6562Q46.2415-46.4051 47.7754-44.8713Q49.3092-43.3376 51.5375-43.3376Q53.8335-43.3376 55.2257-44.8109L75.2534-64.9997Q76.925-66.7155 76.925-68.9919Q76.925-71.2637 75.2534-72.9359L55.2329-93.2729Q53.7854-94.8496 51.4933-94.8496Q49.302-94.8496 47.7718-93.2733Q46.2415-91.6969 46.2415-89.4277Q46.2415-88.3217 46.6372-87.434Q47.0328-86.5463 47.7403-85.8018L58.6109-75.047Q57.2184-75.3175 55.6503-75.474Q54.0822-75.6305 52.4236-75.6305Q43.2979-75.6305 35.3682-72.2547Q27.4385-68.8788 21.451-62.8766Q15.4634-56.8744 12.093-48.9337Q8.72266-40.993 8.72266-31.8562Z"/>
  </g>
  <g id="Medium-M" transform="matrix(1 0 0 1 1694.24 1126)">
   <path d="M8.72266-31.8066Q8.72266-22.6898 12.0973-14.7879Q15.4719-6.88602 21.4572-0.891232Q27.4425 5.10355 35.3444 8.49986Q43.2463 11.8962 52.3197 11.8962Q61.3931 11.8962 69.295 8.49986Q77.1969 5.10355 83.1822-0.891232Q89.1676-6.88602 92.5422-14.7879Q95.9168-22.6898 95.9168-31.8066Q95.9168-33.952 94.5362-35.3232Q93.1555-36.6943 91.0062-36.6943Q88.9453-36.6943 87.661-35.3232Q86.3767-33.952 86.3767-31.8066Q86.3767-24.678 83.7368-18.5006Q81.0969-12.3233 76.4291-7.65547Q71.7612-2.98762 65.583-0.347743Q59.4048 2.29213 52.3197 2.29213Q45.2346 2.29213 39.0572-0.347743Q32.8798-2.98762 28.2121-7.65547Q23.5443-12.3233 20.9138-18.5006Q18.2833-24.678 18.2833-31.8066Q18.2833-38.9345 20.8933-45.1238Q23.5032-51.3131 28.1453-55.9818Q32.7873-60.6504 38.9442-63.2809Q45.101-65.9114 52.1758-65.9114Q54.5709-65.9114 56.7874-65.7254Q59.0039-65.5394 60.8694-65.1064L47.5982-51.9346Q46.9115-51.2564 46.5683-50.4633Q46.2252-49.6703 46.2252-48.7109Q46.2252-46.7084 47.579-45.3547Q48.9329-44.0009 50.9091-44.0009Q52.9865-44.0009 54.2017-45.3115L74.2877-65.5121Q75.7563-67.0327 75.7563-69.0541Q75.7563-71.0596 74.2877-72.551L54.2104-92.9253Q52.9414-94.3348 50.8571-94.3348Q48.9242-94.3348 47.5747-92.9367Q46.2252-91.5387 46.2252-89.5259Q46.2252-88.558 46.5683-87.7476Q46.9115-86.9371 47.5549-86.2503L59.3199-74.5861Q57.7192-74.9065 55.9074-75.0925Q54.0956-75.2784 52.1758-75.2784Q43.1127-75.2784 35.2314-71.9235Q27.35-68.5686 21.3904-62.603Q15.4308-56.6374 12.0767-48.7544Q8.72266-40.8715 8.72266-31.8066Z"/>
  </g>
  <g id="Regular-M" transform="matrix(1 0 0 1 1397.99 1126)">
   <path d="M8.72266-31.742Q8.72266-22.7088 12.0555-14.8905Q15.3883-7.07228 21.3115-1.14376Q27.2347 4.78475 35.0529 8.14339Q42.8712 11.502 51.8525 11.502Q60.8341 11.502 68.6523 8.14339Q76.4706 4.78475 82.3938-1.14376Q88.317-7.07228 91.6498-14.8905Q94.9826-22.7088 94.9826-31.742Q94.9826-33.4931 93.8377-34.6326Q92.6929-35.7722 90.9006-35.7722Q89.2012-35.7722 88.1651-34.6326Q87.1291-33.4931 87.1291-31.742Q87.1291-24.3457 84.3973-17.9416Q81.6654-11.5376 76.83-6.70219Q71.9946-1.86679 65.5958 0.865053Q59.197 3.59689 51.8525 3.59689Q44.5083 3.59689 38.1041 0.865053Q31.7-1.86679 26.8647-6.70219Q22.0294-11.5376 19.3027-17.9416Q16.5761-24.3457 16.5761-31.742Q16.5761-39.0758 19.3027-45.4693Q22.0294-51.8628 26.8647-56.6929Q31.7-61.523 38.1041-64.2496Q44.5083-66.9762 51.8525-66.9762Q54.6306-66.9762 57.2012-66.7518Q59.7718-66.5275 61.9248-66.007L47.3646-51.5388Q46.7532-50.9379 46.4786-50.2488Q46.2039-49.5596 46.2039-48.7822Q46.2039-47.1041 47.3229-45.9851Q48.442-44.8662 50.0895-44.8662Q51.8818-44.8662 52.8661-45.9645L73.0281-66.1803Q74.232-67.4465 74.232-69.1353Q74.232-70.7935 73.0281-72.049L52.8767-92.4719Q51.8406-93.6632 50.0272-93.6632Q48.4313-93.6632 47.3176-92.4977Q46.2039-91.3323 46.2039-89.6541Q46.2039-88.8662 46.4786-88.1565Q46.7532-87.4468 47.313-86.8354L60.2446-73.985Q58.3725-74.3705 56.2428-74.5948Q54.1132-74.819 51.8525-74.819Q42.8712-74.819 35.0529-71.4915Q27.2347-68.1641 21.3115-62.2461Q15.3883-56.3281 12.0555-48.5205Q8.72266-40.7129 8.72266-31.742Z"/>
  </g>
  <g id="Light-M" transform="matrix(1 0 0 1 1101.86 1126)">
   <path d="M8.72266-31.8961Q8.72266-22.9655 12.0042-15.2499Q15.2856-7.53426 21.1147-1.69128Q26.9437 4.15171 34.6594 7.45041Q42.375 10.7491 51.2707 10.7491Q60.1668 10.7491 67.8824 7.45041Q75.5981 4.15171 81.4271-1.69128Q87.2561-7.53426 90.5376-15.2499Q93.8191-22.9655 93.8191-31.8961Q93.8191-33.2536 92.9395-34.1193Q92.0598-34.985 90.6953-34.985Q89.3722-34.985 88.5758-34.1193Q87.7794-33.2536 87.7794-31.8961Q87.7794-24.2258 84.962-17.5908Q82.1447-10.9557 77.1467-5.95775Q72.1487-0.959773 65.5274 1.85759Q58.906 4.67496 51.2707 4.67496Q43.6358 4.67496 37.0005 1.85759Q30.3652-0.959773 25.3674-5.95775Q20.3697-10.9557 17.5661-17.5908Q14.7624-24.2258 14.7624-31.8961Q14.7624-39.5036 17.5661-46.111Q20.3697-52.7184 25.3674-57.7024Q30.3652-62.6864 37.0005-65.4901Q43.6358-68.2937 51.2707-68.2937Q54.6133-68.2937 57.7658-67.9581Q60.9183-67.6225 63.4307-66.9651L46.5775-50.0502Q46.086-49.5861 45.8711-49.0425Q45.6562-48.4988 45.6562-47.8752Q45.6562-46.6079 46.5187-45.7457Q47.3811-44.8835 48.6693-44.8835Q50.0338-44.8835 50.7956-45.7419L71.6249-66.8133Q72.7604-68.0111 72.7604-69.3063Q72.7604-70.6224 71.6249-71.7923L50.8235-93.0023Q50.0268-93.9027 48.607-93.9027Q47.3533-93.9027 46.5048-93.0195Q45.6562-92.1363 45.6562-90.869Q45.6562-90.218 45.8711-89.6708Q46.086-89.1237 46.5431-88.6322L61.9557-73.1295Q59.7757-73.6348 57.0215-73.9702Q54.2673-74.3056 51.2707-74.3056Q42.375-74.3056 34.6594-71.038Q26.9437-67.7705 21.1147-61.9552Q15.2856-56.1398 12.0042-48.4521Q8.72266-40.7643 8.72266-31.8961Z"/>
  </g>
  <g id="Thin-M" transform="matrix(1 0 0 1 805.921 1126)">
   <path d="M8.72266-32.0999Q8.72266-23.3051 11.9363-15.7252Q15.1499-8.14528 20.8544-2.41541Q26.5589 3.31446 34.1388 6.53389Q41.7187 9.75332 50.5011 9.75332Q59.2843 9.75332 66.8642 6.53389Q74.4441 3.31446 80.1486-2.41541Q85.8531-8.14528 89.0668-15.7252Q92.2804-23.3051 92.2804-32.0999Q92.2804-32.9369 91.7515-33.4404Q91.2226-33.944 90.4238-33.944Q89.5985-33.944 89.119-33.4404Q88.6395-32.9369 88.6395-32.0999Q88.6395-24.0673 85.709-17.1267Q82.7785-10.1862 77.5655-4.97317Q72.3525 0.239825 65.4369 3.17031Q58.5213 6.10079 50.5011 6.10079Q42.4818 6.10079 35.5408 3.17031Q28.5998 0.239825 23.3873-4.97317Q18.1747-10.1862 15.2691-17.1267Q12.3636-24.0673 12.3636-32.0999Q12.3636-40.0693 15.2691-46.9596Q18.1747-53.8499 23.3873-59.0375Q28.5998-64.2252 35.5408-67.1307Q42.4818-70.0363 50.5011-70.0363Q54.5905-70.0363 58.5126-69.5535Q62.4346-69.0708 65.4223-68.2324L45.5365-48.0815Q45.2035-47.7983 45.0677-47.4471Q44.9319-47.0958 44.9319-46.6756Q44.9319-45.9516 45.455-45.4289Q45.9781-44.9063 46.7911-44.9063Q47.5898-44.9063 48.0573-45.4476L69.769-67.6506Q70.814-68.7579 70.814-69.5325Q70.814-70.3962 69.769-71.4528L48.108-93.7038Q47.628-94.2194 46.7287-94.2194Q45.9274-94.2194 45.4297-93.7096Q44.9319-93.1998 44.9319-92.4758Q44.9319-92.0058 45.0677-91.6737Q45.2035-91.3415 45.5248-91.0085L64.2187-71.9979Q61.6316-72.6618 58.0513-73.1442Q54.4711-73.6265 50.5011-73.6265Q41.7187-73.6265 34.1388-70.4382Q26.5589-67.25 20.8544-61.5704Q15.1499-55.8908 11.9363-48.3616Q8.72266-40.8324 8.72266-32.0999Z"/>
  </g>
  <g id="Ultralight-M" transform="matrix(1 0 0 1 509.604 1126)">
   <path d="M8.72266-32.2043Q8.72266-23.479 11.9015-15.9686Q15.0804-8.45824 20.7211-2.78631Q26.3619 2.88563 33.8722 6.06445Q41.3826 9.24327 50.1069 9.24327Q58.8323 9.24327 66.3427 6.06445Q73.853 2.88563 79.4938-2.78631Q85.1345-8.45824 88.3134-15.9686Q91.4922-23.479 91.4922-32.2043Q91.4922-32.7746 91.143-33.0927Q90.7937-33.4108 90.2848-33.4108Q89.7143-33.4108 89.3972-33.0927Q89.08-32.7746 89.08-32.2043Q89.08-23.9861 86.0916-16.889Q83.1031-9.79199 77.78-4.46887Q72.4569 0.854253 65.3905 3.84267Q58.3242 6.83109 50.1069 6.83109Q41.8907 6.83109 34.7932 3.84267Q27.6956 0.854253 22.373-4.46887Q17.0504-9.79199 14.0927-16.889Q11.1349-23.9861 11.1349-32.2043Q11.1349-40.3591 14.0927-47.3943Q17.0504-54.4295 22.373-59.7214Q27.6956-65.0133 34.7932-67.9711Q41.8907-70.9288 50.1069-70.9288Q54.5788-70.9288 58.895-70.3707Q63.2113-69.8126 66.4424-68.8815L45.0032-47.0731Q44.7515-46.8826 44.6562-46.6299Q44.5609-46.3772 44.5609-46.0612Q44.5609-45.6155 44.9102-45.2667Q45.2595-44.9179 45.829-44.9179Q46.3379-44.9179 46.6547-45.2969L68.8185-68.0794Q69.8171-69.1404 69.8171-69.6484Q69.8171-70.2803 68.8185-71.2789L46.7171-94.0631Q46.3994-94.3816 45.7667-94.3816Q45.1971-94.3816 44.879-94.0631Q44.5609-93.7445 44.5609-93.2989Q44.5609-92.9215 44.6562-92.6995Q44.7515-92.4775 45.0033-92.2257L65.3779-71.4184Q62.5821-72.1635 58.5788-72.7211Q54.5755-73.2787 50.1069-73.2787Q41.3826-73.2787 33.8722-70.131Q26.3619-66.9834 20.7211-61.3733Q15.0804-55.7632 11.9015-48.3152Q8.72266-40.8673 8.72266-32.2043Z"/>
  </g>
  <g id="Black-S" transform="matrix(1 0 0 1 2890.58 696)">
   <path d="M6.83594-32.8125Q6.83594-25.3418 9.64355-18.8232Q12.4512-12.3047 17.3828-7.34863Q22.3145-2.39258 28.833 0.415039Q35.3516 3.22266 42.8223 3.22266Q50.293 3.22266 56.8115 0.415039Q63.3301-2.39258 68.2617-7.34863Q73.1934-12.3047 76.001-18.8232Q78.8086-25.3418 78.8086-32.8125Q78.8086-36.0352 76.8066-38.0127Q74.8047-39.9902 71.7285-39.9902Q68.7012-39.9902 66.7236-38.0127Q64.7461-36.0352 64.7461-32.8125Q64.7461-28.2715 63.0371-24.3164Q61.3281-20.3613 58.3252-17.3584Q55.3223-14.3555 51.3428-12.6465Q47.3633-10.9375 42.8223-10.9375Q38.2812-10.9375 34.3262-12.6465Q30.3711-14.3555 27.3682-17.3584Q24.3652-20.3613 22.6807-24.3164Q20.9961-28.2715 20.9961-32.8125Q20.9961-37.5977 22.583-41.6504Q24.1699-45.7031 27.0508-48.7305Q29.9316-51.7578 33.7891-53.4424Q37.6465-55.127 42.1387-55.127Q42.5293-55.127 42.8955-55.127Q43.2617-55.127 43.6035-55.127L38.1836-49.8047Q37.3535-48.9746 36.8164-47.9492Q36.2793-46.9238 36.2793-45.459Q36.2793-42.627 38.2568-40.6494Q40.2344-38.6719 43.0664-38.6719Q45.8008-38.6719 47.6562-40.5273L63.1348-56.3477Q65.332-58.5449 65.332-61.4258Q65.332-64.3555 63.1348-66.4551L47.6562-82.2754Q45.752-84.2285 43.0664-84.2285Q40.2344-84.2285 38.2568-82.2266Q36.2793-80.2246 36.2793-77.3438Q36.2793-75.8789 36.8164-74.8535Q37.3535-73.8281 38.1836-72.998L42.9199-68.4082Q42.7246-68.4082 42.5293-68.4082Q42.334-68.4082 42.1387-68.4082Q34.7168-68.4082 28.2959-65.6738Q21.875-62.9395 17.0654-58.0811Q12.2559-53.2227 9.5459-46.7529Q6.83594-40.2832 6.83594-32.8125Z"/>
  </g>
  <g id="Heavy-S" transform="matrix(1 0 0 1 2594.32 696)">
   <path d="M6.83594-32.7203Q6.83594-25.3303 9.60322-18.8924Q12.3705-12.4545 17.2445-7.56184Q22.1185-2.66917 28.5564 0.103878Q34.9943 2.87692 42.3728 2.87692Q49.7513 2.87692 56.1892 0.103878Q62.6271-2.66917 67.5011-7.56184Q72.3751-12.4545 75.1424-18.8924Q77.9097-25.3303 77.9097-32.7203Q77.9097-35.5511 76.1382-37.3039Q74.3668-39.0568 71.6363-39.0568Q68.9662-39.0568 67.2365-37.3039Q65.5067-35.5511 65.5067-32.7203Q65.5067-27.9142 63.7055-23.7344Q61.9043-19.5546 58.7343-16.3846Q55.5643-13.2145 51.3658-11.4134Q47.1674-9.61219 42.3728-9.61219Q37.5783-9.61219 33.3985-11.4134Q29.2186-13.2145 26.0486-16.3846Q22.8786-19.5546 21.0961-23.7344Q19.3135-27.9142 19.3135-32.7203Q19.3135-37.7014 21.0214-41.9558Q22.7294-46.2102 25.8061-49.3989Q28.8829-52.5876 32.9881-54.3701Q37.0933-56.1526 41.8506-56.1526Q42.5984-56.1526 43.2873-56.1238Q43.9762-56.095 44.5946-56.0143L38.0223-49.5511Q37.2613-48.7902 36.7934-47.8628Q36.3254-46.9354 36.3254-45.6549Q36.3254-43.134 38.0724-41.387Q39.8195-39.6399 42.3288-39.6399Q44.7982-39.6399 46.4231-41.288L61.9016-57.0161Q63.8108-58.9368 63.8108-61.4949Q63.8108-64.0789 61.9016-65.925L46.4231-81.6992Q44.7493-83.4449 42.3173-83.4449Q39.8195-83.4449 38.0724-81.6676Q36.3254-79.8904 36.3254-77.3322Q36.3254-76.0518 36.7934-75.1186Q37.2613-74.1854 38.0107-73.4245L43.7382-67.8435Q43.2778-67.9011 42.8059-67.9299Q42.334-67.9587 41.8506-67.9587Q34.5094-67.9587 28.1461-65.2474Q21.7828-62.5361 17.002-57.718Q12.2213-52.9 9.52861-46.4994Q6.83594-40.0988 6.83594-32.7203Z"/>
  </g>
  <g id="Bold-S" transform="matrix(1 0 0 1 2298.11 696)">
   <path d="M6.83594-32.6172Q6.83594-25.3174 9.55811-18.9697Q12.2803-12.6221 17.0898-7.80029Q21.8994-2.97852 28.2471-0.244141Q34.5947 2.49023 41.8701 2.49023Q49.1455 2.49023 55.4932-0.244141Q61.8408-2.97852 66.6504-7.80029Q71.46-12.6221 74.1821-18.9697Q76.9043-25.3174 76.9043-32.6172Q76.9043-35.0098 75.3906-36.5112Q73.877-38.0127 71.5332-38.0127Q69.2627-38.0127 67.8101-36.5112Q66.3574-35.0098 66.3574-32.6172Q66.3574-27.5146 64.4531-23.0835Q62.5488-18.6523 59.1919-15.2954Q55.835-11.9385 51.3916-10.0342Q46.9482-8.12988 41.8701-8.12988Q36.792-8.12988 32.3608-10.0342Q27.9297-11.9385 24.5728-15.2954Q21.2158-18.6523 19.3237-23.0835Q17.4316-27.5146 17.4316-32.6172Q17.4316-37.8174 19.2749-42.2974Q21.1182-46.7773 24.4141-50.1465Q27.71-53.5156 32.0923-55.4077Q36.4746-57.2998 41.5283-57.2998Q42.6758-57.2998 43.7256-57.2388Q44.7754-57.1777 45.7031-57.0068L37.8418-49.2676Q37.1582-48.584 36.7676-47.7661Q36.377-46.9482 36.377-45.874Q36.377-43.7012 37.8662-42.2119Q39.3555-40.7227 41.5039-40.7227Q43.6768-40.7227 45.0439-42.1387L60.5225-57.7637Q62.1094-59.375 62.1094-61.5723Q62.1094-63.7695 60.5225-65.332L45.0439-81.0547Q43.6279-82.5684 41.4795-82.5684Q39.3555-82.5684 37.8662-81.0425Q36.377-79.5166 36.377-77.3193Q36.377-76.2451 36.7676-75.415Q37.1582-74.585 37.8174-73.9014L44.6533-67.2119Q43.8965-67.334 43.1152-67.395Q42.334-67.4561 41.5283-67.4561Q34.2773-67.4561 27.9785-64.7705Q21.6797-62.085 16.9312-57.312Q12.1826-52.5391 9.50928-46.2158Q6.83594-39.8926 6.83594-32.6172Z"/>
  </g>
  <g id="Semibold-S" transform="matrix(1 0 0 1 2001.74 696)">
   <path d="M6.83594-32.5461Q6.83594-25.3085 9.527-19.023Q12.2181-12.7376 16.9832-7.9647Q21.7483-3.1918 28.0338-0.484082Q34.3192 2.22363 41.5235 2.22363Q48.7278 2.22363 55.0133-0.484082Q61.2987-3.1918 66.0639-7.9647Q70.829-12.7376 73.5201-19.023Q76.2111-25.3085 76.2111-32.5461Q76.2111-34.6365 74.8752-35.9647Q73.5393-37.2929 71.4621-37.2929Q69.4671-37.2929 68.2055-35.9647Q66.9439-34.6365 66.9439-32.5461Q66.9439-27.2392 64.9686-22.6347Q62.9932-18.0303 59.5074-14.5445Q56.0216-11.0587 51.4094-9.0833Q46.7972-7.10791 41.5235-7.10791Q36.2499-7.10791 31.6455-9.0833Q27.041-11.0587 23.5552-14.5445Q20.0694-18.0303 18.1018-22.6347Q16.1342-27.2392 16.1342-32.5461Q16.1342-37.8974 18.0708-42.5329Q20.0073-47.1684 23.4543-50.6619Q26.9013-54.1555 31.4747-56.1231Q36.048-58.0907 41.3062-58.0907Q42.7291-58.0907 44.0277-58.0075Q45.3264-57.9242 46.4674-57.6911L37.7174-49.0721Q37.0871-48.4418 36.7498-47.6995Q36.4125-46.9571 36.4125-46.0251Q36.4125-44.0922 37.724-42.7807Q39.0355-41.4691 40.9352-41.4691Q42.9036-41.4691 44.0931-42.7252L59.5716-58.2791Q60.9363-59.6771 60.9363-61.6256Q60.9363-63.5562 59.5716-64.9232L44.0931-80.6104Q42.8548-81.9641 40.9019-81.9641Q39.0355-81.9641 37.724-80.6115Q36.4125-79.2589 36.4125-77.3104Q36.4125-76.3784 36.7498-75.6194Q37.0871-74.8604 37.6841-74.2302L45.2843-66.7765Q44.323-66.943 43.3285-67.0262Q42.334-67.1095 41.3062-67.1095Q34.1174-67.1095 27.863-64.4417Q21.6086-61.7739 16.8823-57.0321Q12.156-52.2902 9.49595-46.0203Q6.83594-39.7504 6.83594-32.5461Z"/>
  </g>
  <g id="Medium-S" transform="matrix(1 0 0 1 1705.29 696)">
   <path d="M6.83594-32.4922Q6.83594-25.3018 9.50342-19.0635Q12.1709-12.8252 16.9023-8.08936Q21.6338-3.35352 27.8721-0.666016Q34.1104 2.02148 41.2607 2.02148Q48.4111 2.02148 54.6494-0.666016Q60.8877-3.35352 65.6191-8.08936Q70.3506-12.8252 73.0181-19.0635Q75.6855-25.3018 75.6855-32.4922Q75.6855-34.3535 74.4844-35.5503Q73.2832-36.7471 71.4082-36.7471Q69.6221-36.7471 68.5054-35.5503Q67.3887-34.3535 67.3887-32.4922Q67.3887-27.0303 65.3594-22.2944Q63.3301-17.5586 59.7466-13.9751Q56.1631-10.3916 51.4229-8.3623Q46.6826-6.33301 41.2607-6.33301Q35.8389-6.33301 31.103-8.3623Q26.3672-10.3916 22.7837-13.9751Q19.2002-17.5586 17.1753-22.2944Q15.1504-27.0303 15.1504-32.4922Q15.1504-37.958 17.1577-42.7114Q19.165-47.4648 22.7266-51.0527Q26.2881-54.6406 31.0063-56.6655Q35.7246-58.6904 41.1377-58.6904Q42.7695-58.6904 44.2568-58.5903Q45.7441-58.4902 47.0469-58.21L37.623-48.9238Q37.0332-48.334 36.7363-47.6489Q36.4395-46.9639 36.4395-46.1396Q36.4395-44.3887 37.6162-43.2119Q38.793-42.0352 40.5039-42.0352Q42.3174-42.0352 43.3721-43.1699L58.8506-58.6699Q60.0469-59.9062 60.0469-61.666Q60.0469-63.3945 58.8506-64.6133L43.3721-80.2734Q42.2686-81.5059 40.4639-81.5059Q38.793-81.5059 37.6162-80.2847Q36.4395-79.0635 36.4395-77.3037Q36.4395-76.4795 36.7363-75.7744Q37.0332-75.0693 37.583-74.4795L45.7627-66.4463Q44.6465-66.6465 43.4902-66.7466Q42.334-66.8467 41.1377-66.8467Q33.9961-66.8467 27.7754-64.1924Q21.5547-61.5381 16.8452-56.8198Q12.1357-52.1016 9.48584-45.8721Q6.83594-39.6426 6.83594-32.4922Z"/>
  </g>
  <g id="Regular-S" transform="matrix(1 0 0 1 1408.93 696)">
   <path d="M6.83594-32.4219Q6.83594-25.293 9.47266-19.1162Q12.1094-12.9395 16.7969-8.25195Q21.4844-3.56445 27.6611-0.90332Q33.8379 1.75781 40.918 1.75781Q47.998 1.75781 54.1748-0.90332Q60.3516-3.56445 65.0391-8.25195Q69.7266-12.9395 72.3633-19.1162Q75-25.293 75-32.4219Q75-33.9844 73.9746-35.0098Q72.9492-36.0352 71.3379-36.0352Q69.8242-36.0352 68.8965-35.0098Q67.9688-33.9844 67.9688-32.4219Q67.9688-26.7578 65.8691-21.8506Q63.7695-16.9434 60.0586-13.2324Q56.3477-9.52148 51.4404-7.42188Q46.5332-5.32227 40.918-5.32227Q35.3027-5.32227 30.3955-7.42188Q25.4883-9.52148 21.7773-13.2324Q18.0664-16.9434 15.9668-21.8506Q13.8672-26.7578 13.8672-32.4219Q13.8672-38.0371 15.9668-42.9443Q18.0664-47.8516 21.7773-51.5625Q25.4883-55.2734 30.3955-57.373Q35.3027-59.4727 40.918-59.4727Q42.8223-59.4727 44.5557-59.3506Q46.2891-59.2285 47.8027-58.8867L37.5-48.7305Q36.9629-48.1934 36.7188-47.583Q36.4746-46.9727 36.4746-46.2891Q36.4746-44.7754 37.4756-43.7744Q38.4766-42.7734 39.9414-42.7734Q41.5527-42.7734 42.4316-43.75L57.9102-59.1797Q58.8867-60.2051 58.8867-61.7188Q58.8867-63.1836 57.9102-64.209L42.4316-79.834Q41.5039-80.9082 39.8926-80.9082Q38.4766-80.9082 37.4756-79.8584Q36.4746-78.8086 36.4746-77.2949Q36.4746-76.6113 36.7188-75.9766Q36.9629-75.3418 37.4512-74.8047L46.3867-66.0156Q45.0684-66.2598 43.7012-66.3818Q42.334-66.5039 40.918-66.5039Q33.8379-66.5039 27.6611-63.8672Q21.4844-61.2305 16.7969-56.543Q12.1094-51.8555 9.47266-45.6787Q6.83594-39.502 6.83594-32.4219Z"/>
  </g>
  <g id="Light-S" transform="matrix(1 0 0 1 1112.73 696)">
   <path d="M6.83594-32.5582Q6.83594-25.5201 9.42726-19.4341Q12.0186-13.3481 16.6228-8.73629Q21.227-4.12445 27.313-1.51634Q33.3989 1.09177 40.4032 1.09177Q47.4078 1.09177 53.4938-1.51634Q59.5797-4.12445 64.1839-8.73629Q68.7881-13.3481 71.3795-19.4341Q73.9708-25.5201 73.9708-32.5582Q73.9708-33.7725 73.18-34.5557Q72.3892-35.3388 71.1563-35.3388Q69.9755-35.3388 69.2598-34.5557Q68.544-33.7725 68.544-32.5582Q68.544-26.6518 66.3687-21.5402Q64.1935-16.4286 60.3387-12.5739Q56.484-8.71913 51.3799-6.54386Q46.2758-4.36859 40.4032-4.36859Q34.5309-4.36859 29.4192-6.54386Q24.3075-8.71913 20.4529-12.5739Q16.5983-16.4286 14.4305-21.5402Q12.2627-26.6518 12.2627-32.5582Q12.2627-38.4155 14.4305-43.512Q16.5983-48.6084 20.4529-52.4555Q24.3075-56.3026 29.4192-58.4704Q34.5309-60.6382 40.4032-60.6382Q42.807-60.6382 45.0551-60.4177Q47.3033-60.1972 49.1348-59.7343L36.8037-47.4136Q36.3726-46.9976 36.1814-46.5159Q35.9901-46.0342 35.9901-45.4867Q35.9901-44.3364 36.7641-43.5626Q37.5381-42.7887 38.6851-42.7887Q39.918-42.7887 40.6001-43.5532L56.6689-59.7397Q57.5849-60.7045 57.5849-61.8701Q57.5849-63.0323 56.6689-63.9819L40.6153-80.3032Q39.8994-81.12 38.6363-81.12Q37.5229-81.12 36.7565-80.32Q35.9901-79.5199 35.9901-78.3696Q35.9901-77.8071 36.1814-77.3162Q36.3726-76.8252 36.7701-76.3941L47.9004-65.2588Q46.3097-65.609 44.39-65.8293Q42.4703-66.0497 40.4032-66.0497Q33.3989-66.0497 27.313-63.466Q21.227-60.8823 16.6228-56.2856Q12.0186-51.6889 9.42726-45.6182Q6.83594-39.5475 6.83594-32.5582Z"/>
  </g>
  <g id="Thin-S" transform="matrix(1 0 0 1 816.7 696)">
   <path d="M6.83594-32.7385Q6.83594-25.8204 9.36722-19.8545Q11.8985-13.8886 16.3926-9.37687Q20.8866-4.86509 26.8525-2.32711Q32.8184 0.210867 39.7225 0.210867Q46.6271 0.210867 52.593-2.32711Q58.5589-4.86509 63.053-9.37687Q67.547-13.8886 70.0783-19.8545Q72.6096-25.8204 72.6096-32.7385Q72.6096-33.4924 72.1291-33.9551Q71.6486-34.4179 70.9162-34.4179Q70.1757-34.4179 69.7402-33.9551Q69.3048-33.4924 69.3048-32.7385Q69.3048-26.5115 67.0295-21.1297Q64.7542-15.7479 60.7092-11.7029Q56.6643-7.65794 51.2999-5.38261Q45.9355-3.10728 39.7225-3.10728Q33.5101-3.10728 28.128-5.38261Q22.7458-7.65794 18.7012-11.7029Q14.6565-15.7479 12.3986-21.1297Q10.1407-26.5115 10.1407-32.7385Q10.1407-38.916 12.3986-44.2627Q14.6565-49.6094 18.7012-53.6366Q22.7458-57.6638 28.128-59.9218Q33.5101-62.1797 39.7225-62.1797Q42.7868-62.1797 45.7157-61.829Q48.6446-61.4784 50.8966-60.8554L35.8828-45.672Q35.592-45.4161 35.4707-45.1046Q35.3494-44.7931 35.3494-44.4255Q35.3494-43.7559 35.8232-43.2824Q36.297-42.8089 37.0235-42.8089Q37.756-42.8089 38.1777-43.2928L55.0271-60.4803Q55.8631-61.3651 55.8631-62.0702Q55.8631-62.8321 55.0271-63.6815L38.2131-80.9238Q37.7774-81.4002 36.9747-81.4002Q36.2616-81.4002 35.8055-80.9305Q35.3494-80.4607 35.3494-79.7911Q35.3494-79.3886 35.4707-79.0879Q35.592-78.7871 35.8694-78.4963L49.9023-64.2578Q47.9514-64.7483 45.301-65.0986Q42.6506-65.449 39.7225-65.449Q32.8184-65.449 26.8525-62.9354Q20.8866-60.4219 16.3926-55.9452Q11.8985-51.4686 9.36722-45.5381Q6.83594-39.6077 6.83594-32.7385Z"/>
  </g>
  <g id="Ultralight-S" transform="matrix(1 0 0 1 520.337 696)">
   <path d="M6.83594-32.8308Q6.83594-25.9743 9.33647-20.0699Q11.837-14.1655 16.2746-9.70497Q20.7123-5.24445 26.6167-2.74239Q32.5211-0.240326 39.3738-0.240326Q46.2273-0.240326 52.1317-2.74239Q58.036-5.24445 62.4737-9.70497Q66.9113-14.1655 69.4118-20.0699Q71.9124-25.9743 71.9124-32.8308Q71.9124-33.3488 71.5908-33.6475Q71.2692-33.9462 70.7932-33.9462Q70.2782-33.9462 69.9863-33.6475Q69.6945-33.3488 69.6945-32.8308Q69.6945-26.4397 67.3679-20.9194Q65.0414-15.3992 60.899-11.2568Q56.7566-7.11441 51.2589-4.78783Q45.7611-2.46124 39.3738-2.46124Q32.9872-2.46124 27.4666-4.78783Q21.946-7.11441 17.804-11.2568Q13.662-15.3992 11.3579-20.9194Q9.0538-26.4397 9.0538-32.8308Q9.0538-39.1724 11.3579-44.6472Q13.662-50.1221 17.804-54.2416Q21.946-58.3611 27.4666-60.6651Q32.9872-62.9692 39.3738-62.9692Q42.7765-62.9692 46.0541-62.5519Q49.3317-62.1346 51.799-61.4296L35.4111-44.78Q35.1921-44.606 35.1067-44.3817Q35.0212-44.1574 35.0212-43.882Q35.0212-43.4586 35.3413-43.1389Q35.6613-42.8192 36.1725-42.8192Q36.6486-42.8192 36.937-43.1595L54.1862-60.8597Q54.9812-61.7035 54.9812-62.1727Q54.9812-62.7296 54.1862-63.5277L36.9827-81.2416Q36.6905-81.5437 36.1237-81.5437Q35.6155-81.5437 35.3184-81.2431Q35.0212-80.9425 35.0212-80.5191Q35.0212-80.1987 35.1067-79.9953Q35.1921-79.792 35.408-79.5731L50.9277-63.7451Q48.7923-64.3074 45.7676-64.7243Q42.7429-65.1413 39.3738-65.1413Q32.5211-65.1413 26.6167-62.6637Q20.7123-60.186 16.2746-55.7709Q11.837-51.3557 9.33647-45.4971Q6.83594-39.6385 6.83594-32.8308Z"/>
  </g>
 </g>
</svg>
