<?xml version="1.0" encoding="UTF-8"?>
<!--Generator: Apple Native CoreSVG 175.5-->
<!DOCTYPE svg
PUBLIC "-//W3C//DTD SVG 1.1//EN"
       "http://www.w3.org/Graphics/SVG/1.1/DTD/svg11.dtd">
<svg version="1.1" xmlns="http://www.w3.org/2000/svg" xmlns:xlink="http://www.w3.org/1999/xlink" width="3300" height="2200">
 <!--glyph: "uni10018A.medium", point size: 100.0, font version: "18.0d9e1", template writer version: "84"-->
 <g id="Notes">
  <rect height="2200" id="artboard" style="fill:white;opacity:1" width="3300" x="0" y="0"/>
  <line style="fill:none;stroke:black;opacity:1;stroke-width:0.5;" x1="263" x2="3036" y1="292" y2="292"/>
  <text style="stroke:none;fill:black;font-family:sans-serif;font-size:13;font-weight:bold;" transform="matrix(1 0 0 1 263 322)">Weight/Scale Variations</text>
  <text style="stroke:none;fill:black;font-family:sans-serif;font-size:13;text-anchor:middle;" transform="matrix(1 0 0 1 559.711 322)">Ultralight</text>
  <text style="stroke:none;fill:black;font-family:sans-serif;font-size:13;text-anchor:middle;" transform="matrix(1 0 0 1 856.422 322)">Thin</text>
  <text style="stroke:none;fill:black;font-family:sans-serif;font-size:13;text-anchor:middle;" transform="matrix(1 0 0 1 1153.13 322)">Light</text>
  <text style="stroke:none;fill:black;font-family:sans-serif;font-size:13;text-anchor:middle;" transform="matrix(1 0 0 1 1449.84 322)">Regular</text>
  <text style="stroke:none;fill:black;font-family:sans-serif;font-size:13;text-anchor:middle;" transform="matrix(1 0 0 1 1746.56 322)">Medium</text>
  <text style="stroke:none;fill:black;font-family:sans-serif;font-size:13;text-anchor:middle;" transform="matrix(1 0 0 1 2043.27 322)">Semibold</text>
  <text style="stroke:none;fill:black;font-family:sans-serif;font-size:13;text-anchor:middle;" transform="matrix(1 0 0 1 2339.98 322)">Bold</text>
  <text style="stroke:none;fill:black;font-family:sans-serif;font-size:13;text-anchor:middle;" transform="matrix(1 0 0 1 2636.69 322)">Heavy</text>
  <text style="stroke:none;fill:black;font-family:sans-serif;font-size:13;text-anchor:middle;" transform="matrix(1 0 0 1 2933.4 322)">Black</text>
  <line style="fill:none;stroke:black;opacity:1;stroke-width:0.5;" x1="263" x2="3036" y1="1903" y2="1903"/>
  <g transform="matrix(1 0 0 1 263 1933)">
   <path d="M9.24805 0.830078Q10.8691 0.830078 12.2949 0.214844Q13.7207-0.400391 14.8096-1.49414Q15.8984-2.58789 16.5186-4.01367Q17.1387-5.43945 17.1387-7.05078Q17.1387-8.66211 16.5186-10.0879Q15.8984-11.5137 14.8047-12.6074Q13.7109-13.7012 12.2852-14.3164Q10.8594-14.9316 9.23828-14.9316Q7.62695-14.9316 6.20117-14.3164Q4.77539-13.7012 3.69141-12.6074Q2.60742-11.5137 1.9873-10.0879Q1.36719-8.66211 1.36719-7.05078Q1.36719-5.43945 1.9873-4.01367Q2.60742-2.58789 3.69629-1.49414Q4.78516-0.400391 6.21094 0.214844Q7.63672 0.830078 9.24805 0.830078ZM9.24805-0.654297Q7.91992-0.654297 6.7627-1.14746Q5.60547-1.64062 4.73145-2.51953Q3.85742-3.39844 3.36426-4.56055Q2.87109-5.72266 2.87109-7.05078Q2.87109-8.37891 3.35938-9.54102Q3.84766-10.7031 4.72168-11.582Q5.5957-12.4609 6.75293-12.9541Q7.91016-13.4473 9.23828-13.4473Q10.5762-13.4473 11.7383-12.9541Q12.9004-12.4609 13.7793-11.582Q14.6582-10.7031 15.1514-9.54102Q15.6445-8.37891 15.6445-7.05078Q15.6445-5.72266 15.1514-4.56055Q14.6582-3.39844 13.7793-2.51953Q12.9004-1.64062 11.7432-1.14746Q10.5859-0.654297 9.24805-0.654297ZM5.6543-7.05078Q5.6543-6.72852 5.85938-6.52832Q6.06445-6.32812 6.40625-6.32812L8.51562-6.32812L8.51562-4.20898Q8.51562-3.88672 8.71094-3.67676Q8.90625-3.4668 9.23828-3.4668Q9.56055-3.4668 9.77051-3.67676Q9.98047-3.88672 9.98047-4.20898L9.98047-6.32812L12.0898-6.32812Q12.4219-6.32812 12.627-6.52832Q12.832-6.72852 12.832-7.05078Q12.832-7.38281 12.627-7.58789Q12.4219-7.79297 12.0898-7.79297L9.98047-7.79297L9.98047-9.90234Q9.98047-10.2344 9.77051-10.4443Q9.56055-10.6543 9.23828-10.6543Q8.90625-10.6543 8.71094-10.4443Q8.51562-10.2344 8.51562-9.90234L8.51562-7.79297L6.40625-7.79297Q6.06445-7.79297 5.85938-7.58789Q5.6543-7.38281 5.6543-7.05078Z"/>
  </g>
  <g transform="matrix(1 0 0 1 281.867 1933)">
   <path d="M11.709 2.91016Q13.75 2.91016 15.5518 2.12891Q17.3535 1.34766 18.7305-0.0292969Q20.1074-1.40625 20.8887-3.20801Q21.6699-5.00977 21.6699-7.05078Q21.6699-9.0918 20.8887-10.8936Q20.1074-12.6953 18.7305-14.0723Q17.3535-15.4492 15.5469-16.2305Q13.7402-17.0117 11.6992-17.0117Q9.6582-17.0117 7.85645-16.2305Q6.05469-15.4492 4.68262-14.0723Q3.31055-12.6953 2.5293-10.8936Q1.74805-9.0918 1.74805-7.05078Q1.74805-5.00977 2.5293-3.20801Q3.31055-1.40625 4.6875-0.0292969Q6.06445 1.34766 7.86621 2.12891Q9.66797 2.91016 11.709 2.91016ZM11.709 1.25Q9.98047 1.25 8.47656 0.605469Q6.97266-0.0390625 5.83496-1.17676Q4.69727-2.31445 4.05762-3.81836Q3.41797-5.32227 3.41797-7.05078Q3.41797-8.7793 4.05762-10.2832Q4.69727-11.7871 5.83008-12.9297Q6.96289-14.0723 8.4668-14.7119Q9.9707-15.3516 11.6992-15.3516Q13.4277-15.3516 14.9365-14.7119Q16.4453-14.0723 17.583-12.9297Q18.7207-11.7871 19.3652-10.2832Q20.0098-8.7793 20.0098-7.05078Q20.0098-5.32227 19.3701-3.81836Q18.7305-2.31445 17.5879-1.17676Q16.4453-0.0390625 14.9414 0.605469Q13.4375 1.25 11.709 1.25ZM7.17773-7.05078Q7.17773-6.69922 7.41211-6.47461Q7.64648-6.25 8.01758-6.25L10.8887-6.25L10.8887-3.36914Q10.8887-2.99805 11.1133-2.76855Q11.3379-2.53906 11.6895-2.53906Q12.0605-2.53906 12.29-2.76855Q12.5195-2.99805 12.5195-3.36914L12.5195-6.25L15.4004-6.25Q15.7715-6.25 16.001-6.47461Q16.2305-6.69922 16.2305-7.05078Q16.2305-7.42188 16.001-7.65137Q15.7715-7.88086 15.4004-7.88086L12.5195-7.88086L12.5195-10.752Q12.5195-11.1328 12.29-11.3623Q12.0605-11.5918 11.6895-11.5918Q11.3379-11.5918 11.1133-11.3574Q10.8887-11.123 10.8887-10.752L10.8887-7.88086L8.01758-7.88086Q7.63672-7.88086 7.40723-7.65137Q7.17773-7.42188 7.17773-7.05078Z"/>
  </g>
  <g transform="matrix(1 0 0 1 305.646 1933)">
   <path d="M14.9707 5.66406Q17.0605 5.66406 18.96 5.01465Q20.8594 4.36523 22.4512 3.19336Q24.043 2.02148 25.2197 0.429688Q26.3965-1.16211 27.0459-3.06641Q27.6953-4.9707 27.6953-7.05078Q27.6953-9.14062 27.0459-11.04Q26.3965-12.9395 25.2197-14.5312Q24.043-16.123 22.4512-17.2998Q20.8594-18.4766 18.9551-19.126Q17.0508-19.7754 14.9609-19.7754Q12.8711-19.7754 10.9717-19.126Q9.07227-18.4766 7.48535-17.2998Q5.89844-16.123 4.72168-14.5312Q3.54492-12.9395 2.90039-11.04Q2.25586-9.14062 2.25586-7.05078Q2.25586-4.9707 2.90527-3.06641Q3.55469-1.16211 4.72656 0.429688Q5.89844 2.02148 7.49023 3.19336Q9.08203 4.36523 10.9814 5.01465Q12.8809 5.66406 14.9707 5.66406ZM14.9707 3.84766Q13.1641 3.84766 11.5283 3.2959Q9.89258 2.74414 8.53516 1.74805Q7.17773 0.751953 6.17676-0.610352Q5.17578-1.97266 4.62891-3.6084Q4.08203-5.24414 4.08203-7.05078Q4.08203-8.86719 4.62891-10.5029Q5.17578-12.1387 6.17188-13.501Q7.16797-14.8633 8.52539-15.8594Q9.88281-16.8555 11.5186-17.4023Q13.1543-17.9492 14.9609-17.9492Q16.7773-17.9492 18.4131-17.4023Q20.0488-16.8555 21.4111-15.8594Q22.7734-14.8633 23.7744-13.501Q24.7754-12.1387 25.3223-10.5029Q25.8691-8.86719 25.8691-7.05078Q25.8691-5.24414 25.3223-3.6084Q24.7754-1.97266 23.7793-0.610352Q22.7832 0.751953 21.4209 1.74805Q20.0586 2.74414 18.4229 3.2959Q16.7871 3.84766 14.9707 3.84766ZM9.19922-7.05078Q9.19922-6.66992 9.45801-6.4209Q9.7168-6.17188 10.1172-6.17188L14.0625-6.17188L14.0625-2.2168Q14.0625-1.81641 14.3115-1.55762Q14.5605-1.29883 14.9512-1.29883Q15.3516-1.29883 15.6104-1.55273Q15.8691-1.80664 15.8691-2.2168L15.8691-6.17188L19.8242-6.17188Q20.2246-6.17188 20.4785-6.4209Q20.7324-6.66992 20.7324-7.05078Q20.7324-7.46094 20.4785-7.71484Q20.2246-7.96875 19.8242-7.96875L15.8691-7.96875L15.8691-11.9141Q15.8691-12.3242 15.6104-12.583Q15.3516-12.8418 14.9512-12.8418Q14.5605-12.8418 14.3115-12.583Q14.0625-12.3242 14.0625-11.9141L14.0625-7.96875L10.1172-7.96875Q9.70703-7.96875 9.45312-7.71484Q9.19922-7.46094 9.19922-7.05078Z"/>
  </g>
  <text style="stroke:none;fill:black;font-family:sans-serif;font-size:13;font-weight:bold;" transform="matrix(1 0 0 1 263 1953)">Design Variations</text>
  <text style="stroke:none;fill:black;font-family:sans-serif;font-size:13;" transform="matrix(1 0 0 1 263 1971)">Symbols are supported in up to nine weights and three scales.</text>
  <text style="stroke:none;fill:black;font-family:sans-serif;font-size:13;" transform="matrix(1 0 0 1 263 1989)">For optimal layout with text and other symbols, vertically align</text>
  <text style="stroke:none;fill:black;font-family:sans-serif;font-size:13;" transform="matrix(1 0 0 1 263 2007)">symbols with the adjacent text.</text>
  <line style="fill:none;stroke:#00AEEF;stroke-width:0.5;opacity:1.0;" x1="776" x2="776" y1="1919" y2="1933"/>
  <g transform="matrix(1 0 0 1 776 1933)">
   <path d="M3.31055 0.15625Q3.70117 0.15625 3.91602-0.00976562Q4.13086-0.175781 4.26758-0.585938L5.52734-4.0332L11.2891-4.0332L12.5488-0.585938Q12.6855-0.175781 12.9004-0.00976562Q13.1152 0.15625 13.4961 0.15625Q13.8867 0.15625 14.1162-0.0585938Q14.3457-0.273438 14.3457-0.644531Q14.3457-0.869141 14.2383-1.17188L9.6582-13.3691Q9.48242-13.8184 9.17969-14.043Q8.87695-14.2676 8.4082-14.2676Q7.5-14.2676 7.17773-13.3789L2.59766-1.16211Q2.49023-0.859375 2.49023-0.634766Q2.49023-0.263672 2.70996-0.0537109Q2.92969 0.15625 3.31055 0.15625ZM6.00586-5.51758L8.37891-12.0898L8.42773-12.0898L10.8008-5.51758Z"/>
  </g>
  <line style="fill:none;stroke:#00AEEF;stroke-width:0.5;opacity:1.0;" x1="793.197" x2="793.197" y1="1919" y2="1933"/>
  <text style="stroke:none;fill:black;font-family:sans-serif;font-size:13;font-weight:bold;" transform="matrix(1 0 0 1 776 1953)">Margins</text>
  <text style="stroke:none;fill:black;font-family:sans-serif;font-size:13;" transform="matrix(1 0 0 1 776 1971)">Leading and trailing margins on the left and right side of each symbol</text>
  <text style="stroke:none;fill:black;font-family:sans-serif;font-size:13;" transform="matrix(1 0 0 1 776 1989)">can be adjusted by modifying the x-location of the margin guidelines.</text>
  <text style="stroke:none;fill:black;font-family:sans-serif;font-size:13;" transform="matrix(1 0 0 1 776 2007)">Modifications are automatically applied proportionally to all</text>
  <text style="stroke:none;fill:black;font-family:sans-serif;font-size:13;" transform="matrix(1 0 0 1 776 2025)">scales and weights.</text>
  <g transform="matrix(1 0 0 1 1289 1933)">
   <path d="M2.8418 1.86523L4.54102 3.57422Q5.18555 4.22852 5.90332 4.17969Q6.62109 4.13086 7.31445 3.35938L18.0078-8.42773L17.041-9.4043L6.42578 2.27539Q6.16211 2.57812 5.89355 2.61719Q5.625 2.65625 5.27344 2.30469L4.10156 1.14258Q3.75 0.791016 3.79395 0.522461Q3.83789 0.253906 4.14062-0.0195312L15.6152-10.8203L14.6387-11.7871L3.04688-0.898438Q2.30469-0.214844 2.25098 0.498047Q2.19727 1.21094 2.8418 1.86523ZM9.25781-16.3281Q8.94531-16.0254 8.90625-15.6348Q8.86719-15.2441 9.04297-14.9512Q9.21875-14.6777 9.55566-14.541Q9.89258-14.4043 10.3809-14.5215Q11.4746-14.7754 12.5977-14.7314Q13.7207-14.6875 14.7949-13.9844L14.209-12.5293Q13.9551-11.9043 14.0674-11.4404Q14.1797-10.9766 14.5801-10.5664L16.875-8.25195Q17.2363-7.88086 17.5781-7.82227Q17.9199-7.76367 18.3398-7.8418L19.4043-8.03711L20.0684-7.36328L20.0293-6.80664Q20-6.43555 20.1221-6.12305Q20.2441-5.81055 20.6055-5.44922L21.3672-4.70703Q21.7285-4.3457 22.1533-4.33105Q22.5781-4.31641 22.9297-4.66797L25.8398-7.58789Q26.1914-7.93945 26.1816-8.35449Q26.1719-8.76953 25.8105-9.13086L25.0391-9.89258Q24.6875-10.2539 24.3799-10.3857Q24.0723-10.5176 23.7109-10.4883L23.1348-10.4395L22.4902-11.0742L22.7344-12.1973Q22.832-12.6172 22.6953-12.9834Q22.5586-13.3496 22.1191-13.7891L19.9219-15.9766Q18.6719-17.2168 17.2607-17.8369Q15.8496-18.457 14.4189-18.4814Q12.9883-18.5059 11.665-17.959Q10.3418-17.4121 9.25781-16.3281ZM10.752-15.957Q11.6602-16.6211 12.7002-16.9043Q13.7402-17.1875 14.8047-17.085Q15.8691-16.9824 16.8701-16.5137Q17.8711-16.0449 18.7012-15.2051L21.1328-12.793Q21.3086-12.6172 21.3525-12.4512Q21.3965-12.2852 21.3379-12.0312L21.0156-10.5469L22.5195-9.0625L23.5059-9.12109Q23.6914-9.13086 23.7891-9.09668Q23.8867-9.0625 24.0332-8.91602L24.6094-8.33984L22.168-5.89844L21.5918-6.47461Q21.4453-6.62109 21.4062-6.71875Q21.3672-6.81641 21.377-7.01172L21.4453-7.98828L19.9512-9.47266L18.4277-9.21875Q18.1836-9.16992 18.042-9.2041Q17.9004-9.23828 17.7148-9.41406L15.7129-11.416Q15.5176-11.5918 15.4932-11.7529Q15.4688-11.9141 15.5859-12.1875L16.4648-14.2773Q15.293-15.3711 13.8281-15.791Q12.3633-16.2109 10.8398-15.7617Q10.7227-15.7324 10.6885-15.8057Q10.6543-15.8789 10.752-15.957Z"/>
  </g>
  <text style="stroke:none;fill:black;font-family:sans-serif;font-size:13;font-weight:bold;" transform="matrix(1 0 0 1 1289 1953)">Exporting</text>
  <text style="stroke:none;fill:black;font-family:sans-serif;font-size:13;" transform="matrix(1 0 0 1 1289 1971)">Symbols should be outlined when exporting to ensure the</text>
  <text style="stroke:none;fill:black;font-family:sans-serif;font-size:13;" transform="matrix(1 0 0 1 1289 1989)">design is preserved when submitting to Xcode.</text>
  <text id="template-version" style="stroke:none;fill:black;font-family:sans-serif;font-size:13;text-anchor:end;" transform="matrix(1 0 0 1 3036 1933)">Template v.2.0</text>
  <text style="stroke:none;fill:black;font-family:sans-serif;font-size:13;text-anchor:end;" transform="matrix(1 0 0 1 3036 1951)">Requires Xcode 12 or greater</text>
  <text id="descriptive-name" style="stroke:none;fill:black;font-family:sans-serif;font-size:13;text-anchor:end;" transform="matrix(1 0 0 1 3036 1969)">Generated from chevron.right</text>
  <text style="stroke:none;fill:black;font-family:sans-serif;font-size:13;text-anchor:end;" transform="matrix(1 0 0 1 3036 1987)">Typeset at 100 points</text>
  <text style="stroke:none;fill:black;font-family:sans-serif;font-size:13;" transform="matrix(1 0 0 1 263 726)">Small</text>
  <text style="stroke:none;fill:black;font-family:sans-serif;font-size:13;" transform="matrix(1 0 0 1 263 1156)">Medium</text>
  <text style="stroke:none;fill:black;font-family:sans-serif;font-size:13;" transform="matrix(1 0 0 1 263 1586)">Large</text>
 </g>
 <g id="Guides">
  <g id="H-reference" style="fill:#27AAE1;stroke:none;" transform="matrix(1 0 0 1 339 696)">
   <path d="M0.993347 0L3.6377 0L29.3282-67.1326L30.0301-67.1326L30.0301-70.459L28.1227-70.459ZM11.6882-24.4797L46.9818-24.4797L46.2311-26.7288L12.4382-26.7288ZM55.1193 0L57.7637 0L30.6381-70.459L29.4327-70.459L29.4327-67.1326Z"/>
  </g>
  <line id="Baseline-S" style="fill:none;stroke:#27AAE1;opacity:1;stroke-width:0.5;" x1="263" x2="3036" y1="696" y2="696"/>
  <line id="Capline-S" style="fill:none;stroke:#27AAE1;opacity:1;stroke-width:0.5;" x1="263" x2="3036" y1="625.541" y2="625.541"/>
  <g id="H-reference" style="fill:#27AAE1;stroke:none;" transform="matrix(1 0 0 1 339 1126)">
   <path d="M0.993347 0L3.6377 0L29.3282-67.1326L30.0301-67.1326L30.0301-70.459L28.1227-70.459ZM11.6882-24.4797L46.9818-24.4797L46.2311-26.7288L12.4382-26.7288ZM55.1193 0L57.7637 0L30.6381-70.459L29.4327-70.459L29.4327-67.1326Z"/>
  </g>
  <line id="Baseline-M" style="fill:none;stroke:#27AAE1;opacity:1;stroke-width:0.5;" x1="263" x2="3036" y1="1126" y2="1126"/>
  <line id="Capline-M" style="fill:none;stroke:#27AAE1;opacity:1;stroke-width:0.5;" x1="263" x2="3036" y1="1055.54" y2="1055.54"/>
  <g id="H-reference" style="fill:#27AAE1;stroke:none;" transform="matrix(1 0 0 1 339 1556)">
   <path d="M0.993347 0L3.6377 0L29.3282-67.1326L30.0301-67.1326L30.0301-70.459L28.1227-70.459ZM11.6882-24.4797L46.9818-24.4797L46.2311-26.7288L12.4382-26.7288ZM55.1193 0L57.7637 0L30.6381-70.459L29.4327-70.459L29.4327-67.1326Z"/>
  </g>
  <line id="Baseline-L" style="fill:none;stroke:#27AAE1;opacity:1;stroke-width:0.5;" x1="263" x2="3036" y1="1556" y2="1556"/>
  <line id="Capline-L" style="fill:none;stroke:#27AAE1;opacity:1;stroke-width:0.5;" x1="263" x2="3036" y1="1485.54" y2="1485.54"/>
  <line id="left-margin" style="fill:none;stroke:#00AEEF;stroke-width:0.5;opacity:1.0;" x1="1413.52" x2="1413.52" y1="1030.79" y2="1150.12"/>
  <line id="right-margin" style="fill:none;stroke:#00AEEF;stroke-width:0.5;opacity:1.0;" x1="1486.17" x2="1486.17" y1="1030.79" y2="1150.12"/>
 </g>
 <g id="Symbols">
  <g id="Black-L" transform="matrix(1 0 0 1 2881.01 1556)">
   <path d="M97.912-35.2697Q97.8536-41.246 93.0587-45.9217L46.7837-91.2788Q43.2397-94.8228 38.0835-94.8228Q32.8284-94.8228 29.0613-91.1152Q25.2941-87.4077 25.2941-82.2294Q25.2941-76.92 29.4793-72.8684L68.3815-35.3281L29.4793 2.32895Q25.2941 6.43897 25.2941 11.7484Q25.2941 16.9267 29.0613 20.6342Q32.8284 24.3418 38.0835 24.3418Q43.2397 24.3418 46.7837 20.7978L93.0587-24.6177Q95.6496-27.1114 96.7808-29.6667Q97.912-32.2219 97.912-35.2697Z"/>
  </g>
  <g id="Heavy-L" transform="matrix(1 0 0 1 2585.67 1556)">
   <path d="M94.88-35.2697Q94.8354-40.3682 90.7728-44.3302L43.605-90.4436Q40.5265-93.5221 36.0641-93.5221Q31.5022-93.5221 28.2603-90.3305Q25.0184-87.1388 25.0184-82.6405Q25.0184-78.08 28.5821-74.5898L69.2276-35.3143L28.5821 4.05036Q25.0184 7.58519 25.0184 12.1457Q25.0184 16.644 28.2603 19.8357Q31.5022 23.0273 36.0641 23.0273Q40.5265 23.0273 43.605 19.9488L90.7728-26.2092Q92.9424-28.3141 93.9112-30.4922Q94.88-32.6703 94.88-35.2697Z"/>
  </g>
  <g id="Bold-L" transform="matrix(1 0 0 1 2290.65 1556)">
   <path d="M91.2046-35.2697Q91.1754-39.3219 87.9748-42.4375L39.7602-89.2871Q37.2505-91.7969 33.6338-91.7969Q29.925-91.7969 27.3175-89.2318Q24.71-86.6668 24.71-82.9986Q24.71-79.3455 27.5276-76.5395L70.3025-35.2989L27.5276 6.00012Q24.71 8.8353 24.71 12.4884Q24.71 16.1566 27.3175 18.7216Q29.925 21.2867 33.6338 21.2867Q37.2505 21.2867 39.7602 18.7769L87.9748-28.1019Q89.6517-29.7452 90.4282-31.4732Q91.2046-33.2013 91.2046-35.2697Z"/>
  </g>
  <g id="Semibold-L" transform="matrix(1 0 0 1 1995.1 1556)">
   <path d="M88.6708-35.2697Q88.6522-38.6007 86.0458-41.1327L37.1096-88.4899Q34.992-90.6075 31.9583-90.6075Q28.8377-90.6075 26.6675-88.4744Q24.4974-86.3413 24.4974-83.2455Q24.4974-80.2179 26.8007-77.8837L71.0435-35.2883L26.8007 7.34427Q24.4974 9.69711 24.4974 12.7247Q24.4974 15.8205 26.6675 17.9536Q28.8377 20.0866 31.9583 20.0866Q34.992 20.0866 37.1096 17.9691L86.0458-29.4067Q87.3831-30.7318 88.027-32.1495Q88.6708-33.5673 88.6708-35.2697Z"/>
  </g>
  <g id="Medium-L" transform="matrix(1 0 0 1 1699.26 1556)">
   <path d="M86.7496-35.2697Q86.7391-38.0538 84.5832-40.1433L35.0998-87.8854Q33.2795-89.7056 30.6879-89.7056Q28.0132-89.7056 26.1747-87.9001Q24.3362-86.0946 24.3362-83.4327Q24.3362-80.8795 26.2495-78.9029L71.6054-35.2802L26.2495 8.36346Q24.3362 10.3506 24.3362 12.9038Q24.3362 15.5657 26.1747 17.3712Q28.0132 19.1767 30.6879 19.1767Q33.2795 19.1767 35.0998 17.3565L84.5832-30.3961Q85.663-31.4798 86.2063-32.6624Q86.7496-33.8449 86.7496-35.2697Z"/>
  </g>
  <g id="Regular-L" transform="matrix(1 0 0 1 1403.7 1556)">
   <path d="M84.2436-35.2697Q84.2436-37.3404 82.6755-38.8528L32.4783-87.0969Q31.0459-88.5293 29.0309-88.5293Q26.9378-88.5293 25.5319-87.151Q24.126-85.7727 24.126-83.6769Q24.126-81.7423 25.5305-80.2322L72.3383-35.2697L25.5305 9.69284Q24.126 11.2029 24.126 13.1375Q24.126 15.2333 25.5319 16.6116Q26.9378 17.9899 29.0309 17.9899Q31.0459 17.9899 32.4783 16.5575L82.6755-31.6866Q83.4193-32.4556 83.8315-33.3312Q84.2436-34.2069 84.2436-35.2697Z"/>
  </g>
  <g id="Light-L" transform="matrix(1 0 0 1 1108 1556)">
   <path d="M82.2206-35.2697Q82.2206-36.8825 80.9577-38.0512L30.4171-85.5128Q29.3281-86.6018 27.8095-86.6018Q26.2699-86.6018 25.1979-85.5766Q24.126-84.5514 24.126-82.9516Q24.126-81.5134 25.1679-80.4041L73.2545-35.2697L25.1679 9.86471Q24.126 10.974 24.126 12.4122Q24.126 14.012 25.1979 15.0372Q26.2699 16.0624 27.8095 16.0624Q29.3281 16.0624 30.4171 14.9734L80.9577-32.4882Q81.549-33.0664 81.8848-33.7417Q82.2206-34.4169 82.2206-35.2697Z"/>
  </g>
  <g id="Thin-L" transform="matrix(1 0 0 1 812.629 1556)">
   <path d="M79.545-35.2697Q79.545-36.2769 78.6859-36.9909L27.6911-83.4178Q27.0563-84.0526 26.1942-84.0526Q25.3865-84.0526 24.7562-83.4943Q24.126-82.936 24.126-81.9923Q24.126-81.2106 24.6882-80.6314L74.4661-35.2697L24.6882 10.092Q24.126 10.6712 24.126 11.4529Q24.126 12.3966 24.7562 12.9549Q25.3865 13.5132 26.1942 13.5132Q27.0563 13.5132 27.6911 12.8784L78.6859-33.5485Q79.0752-33.8743 79.3101-34.2845Q79.545-34.6947 79.545-35.2697Z"/>
  </g>
  <g id="Ultralight-L" transform="matrix(1 0 0 1 516.603 1556)">
   <path d="M78.1746-35.2697Q78.1746-35.9667 77.5222-36.4479L26.2948-82.3447Q25.8926-82.7469 25.3668-82.7469Q24.934-82.7469 24.53-82.4278Q24.126-82.1086 24.126-81.5009Q24.126-81.0555 24.4425-80.7479L75.0867-35.2697L24.4425 10.2084Q24.126 10.5161 24.126 10.9615Q24.126 11.5692 24.53 11.8883Q24.934 12.2075 25.3668 12.2075Q25.8926 12.2075 26.2948 11.8053L77.5222-34.0915Q77.8082-34.2881 77.9914-34.5626Q78.1746-34.837 78.1746-35.2697Z"/>
  </g>
  <g id="Black-M" transform="matrix(1 0 0 1 2891.76 1126)">
   <path d="M78.1882-35.2606Q78.1311-40.5832 73.8283-44.7723L38.6978-79.1565Q35.5987-82.2556 31.075-82.2556Q26.4828-82.2556 23.1581-78.9876Q19.8333-75.7197 19.8333-71.1907Q19.8333-66.5009 23.5608-62.9337L52.375-35.3177L23.5608-7.58754Q19.8333-3.9633 19.8333 0.726545Q19.8333 5.25552 23.1581 8.52345Q26.4828 11.7914 31.075 11.7914Q35.5987 11.7914 38.6978 8.69228L73.8283-25.749Q76.177-27.9891 77.1826-30.2659Q78.1882-32.5426 78.1882-35.2606Z"/>
  </g>
  <g id="Heavy-M" transform="matrix(1 0 0 1 2596.3 1126)">
   <path d="M75.4109-35.2606Q75.3673-39.7673 71.7522-43.2905L35.7806-78.4861Q33.1048-81.1619 29.2135-81.1619Q25.248-81.1619 22.4059-78.3657Q19.5638-75.5696 19.5638-71.6595Q19.5638-67.656 22.7172-64.6007L53.1176-35.3043L22.7172-5.9206Q19.5638-2.82167 19.5638 1.18184Q19.5638 5.09189 22.4059 7.88807Q25.248 10.6842 29.2135 10.6842Q33.1048 10.6842 35.7806 8.00845L71.7522-27.2308Q73.7031-29.1085 74.557-31.035Q75.4109-32.9615 75.4109-35.2606Z"/>
  </g>
  <g id="Bold-M" transform="matrix(1 0 0 1 2301 1126)">
   <path d="M72.304-35.2606Q72.2755-38.8545 69.4297-41.6329L32.5173-77.7362Q30.3151-79.9385 27.1312-79.9385Q23.8666-79.9385 21.5645-77.67Q19.2624-75.4016 19.2624-72.1839Q19.2624-68.9481 21.7735-66.4654L53.9483-35.2892L21.7735-4.05588Q19.2624-1.5446 19.2624 1.69115Q19.2624 4.90885 21.5645 7.17731Q23.8666 9.44577 27.1312 9.44577Q30.3151 9.44577 32.5173 7.24349L69.4297-28.8884Q70.9356-30.3607 71.6198-31.8954Q72.304-33.4301 72.304-35.2606Z"/>
  </g>
  <g id="Semibold-M" transform="matrix(1 0 0 1 2005.25 1126)">
   <path d="M70.1622-35.2606Q70.1441-38.2253 67.8286-40.4901L30.2677-77.2193Q28.3918-79.0951 25.6957-79.0951Q22.9144-79.0951 20.9844-77.1904Q19.0545-75.2858 19.0545-72.5454Q19.0545-69.8389 21.1229-67.7509L54.5209-35.2788L21.1229-2.77036Q19.0545-0.664186 19.0545 2.04227Q19.0545 4.78266 20.9844 6.68731Q22.9144 8.59196 25.6957 8.59196Q28.3918 8.59196 30.2677 6.71613L67.8286-30.0312Q69.0278-31.224 69.595-32.4886Q70.1622-33.7531 70.1622-35.2606Z"/>
  </g>
  <g id="Medium-M" transform="matrix(1 0 0 1 1709.27 1126)">
   <path d="M68.5382-35.2606Q68.5279-37.7482 66.6145-39.6236L28.5618-76.8273Q26.9335-78.4556 24.6072-78.4556Q22.1923-78.4556 20.5446-76.8268Q18.897-75.198 18.897-72.8195Q18.897-70.5144 20.6296-68.7257L54.9551-35.2709L20.6296-1.79562Q18.897 0.00337775 18.897 2.3085Q18.897 4.68698 20.5446 6.31578Q22.1923 7.94457 24.6072 7.94457Q26.9335 7.94457 28.5618 6.31626L66.6145-30.8976Q67.5812-31.8786 68.0597-32.9383Q68.5382-33.9981 68.5382-35.2606Z"/>
  </g>
  <g id="Regular-M" transform="matrix(1 0 0 1 1413.52 1126)">
   <path d="M66.4199-35.2606Q66.4199-37.1259 65.031-38.4934L26.3369-76.316Q25.0314-77.6214 23.1875-77.6214Q21.2505-77.6214 19.9709-76.3525Q18.6914-75.0835 18.6914-73.177Q18.6914-71.3954 19.9862-69.9971L55.5215-35.2606L19.9862-0.524221Q18.6914 0.874113 18.6914 2.65575Q18.6914 4.56218 19.9709 5.83117Q21.2505 7.10015 23.1875 7.10015Q25.0314 7.10015 26.3369 5.7947L65.031-32.0278Q65.6943-32.7323 66.0571-33.525Q66.4199-34.3176 66.4199-35.2606Z"/>
  </g>
  <g id="Light-M" transform="matrix(1 0 0 1 1117.72 1126)">
   <path d="M64.6061-35.2606Q64.6061-36.7153 63.491-37.7747L24.4889-74.8958Q23.4914-75.8934 22.0924-75.8934Q20.6516-75.8934 19.6715-74.9409Q18.6914-73.9884 18.6914-72.5268Q18.6914-71.1901 19.6611-70.1512L56.3428-35.2606L19.6611-0.37013Q18.6914 0.668849 18.6914 2.00546Q18.6914 3.46715 19.6715 4.41962Q20.6516 5.37208 22.0924 5.37208Q23.4914 5.37208 24.4889 4.37452L63.491-32.7466Q64.0174-33.28 64.3118-33.8929Q64.6061-34.5059 64.6061-35.2606Z"/>
  </g>
  <g id="Thin-M" transform="matrix(1 0 0 1 822.203 1126)">
   <path d="M62.2073-35.2606Q62.2073-36.1724 61.4541-36.8242L22.0449-73.0175Q21.4545-73.6079 20.6442-73.6079Q19.8596-73.6079 19.2755-73.074Q18.6914-72.5402 18.6914-71.6667Q18.6914-70.9187 19.2311-70.355L57.4291-35.2606L19.2311-0.166331Q18.6914 0.397371 18.6914 1.1454Q18.6914 2.01889 19.2755 2.55273Q19.8596 3.08657 20.6442 3.08657Q21.4545 3.08657 22.0449 2.49623L61.4541-33.6971Q61.7996-34.0043 62.0035-34.3796Q62.2073-34.7549 62.2073-35.2606Z"/>
  </g>
  <g id="Ultralight-M" transform="matrix(1 0 0 1 526.107 1126)">
   <path d="M60.9787-35.2606Q60.9787-35.8943 60.4109-36.3373L20.793-72.0555Q20.4113-72.4372 19.9024-72.4372Q19.454-72.4372 19.0727-72.1178Q18.6914-71.7984 18.6914-71.2262Q18.6914-70.7796 19.0108-70.4593L57.9855-35.2606L19.0108-0.0619465Q18.6914 0.258321 18.6914 0.704884Q18.6914 1.2771 19.0727 1.59652Q19.454 1.91594 19.9024 1.91594Q20.4113 1.91594 20.793 1.53418L60.4109-34.184Q60.6636-34.3753 60.8211-34.6289Q60.9787-34.8825 60.9787-35.2606Z"/>
  </g>
  <g id="Black-S" transform="matrix(1 0 0 1 2900.44 696)">
   <path d="M62.0117-35.2539Q61.9629-39.6484 58.3984-43.1152L31.1035-69.7754Q28.5645-72.3145 24.8535-72.3145Q21.0938-72.3145 18.3594-69.6289Q15.625-66.9434 15.625-63.2324Q15.625-59.375 18.7012-56.4453L40.8691-35.3027L18.7012-14.0625Q15.625-11.084 15.625-7.22656Q15.625-3.51562 18.3594-0.830078Q21.0938 1.85547 24.8535 1.85547Q28.5645 1.85547 31.1035-0.683594L58.3984-27.3926Q60.3516-29.248 61.1816-31.1279Q62.0117-33.0078 62.0117-35.2539Z"/>
  </g>
  <g id="Heavy-S" transform="matrix(1 0 0 1 2604.69 696)">
   <path d="M59.8682-35.2539Q59.8309-39.0031 56.8196-41.9397L28.8447-69.3836Q26.6283-71.5999 23.4014-71.5999Q20.1142-71.5999 17.7543-69.2774Q15.3945-66.9549 15.3945-63.7164Q15.3945-60.3892 18.0212-57.8513L41.3993-35.2912L18.0212-12.6565Q15.3945-10.0814 15.3945-6.75406Q15.3945-3.51562 17.7543-1.1931Q20.1142 1.12943 23.4014 1.12943Q26.6283 1.12943 28.8447-1.08695L56.8196-28.5681Q58.45-30.1354 59.1591-31.7387Q59.8682-33.342 59.8682-35.2539Z"/>
  </g>
  <g id="Bold-S" transform="matrix(1 0 0 1 2309.05 696)">
   <path d="M57.4707-35.2539Q57.4463-38.2812 55.0537-40.625L26.3184-68.9453Q24.4629-70.8008 21.7773-70.8008Q19.0186-70.8008 17.0776-68.8843Q15.1367-66.9678 15.1367-64.2578Q15.1367-61.5234 17.2607-59.4238L41.9922-35.2783L17.2607-11.084Q15.1367-8.95996 15.1367-6.22559Q15.1367-3.51562 17.0776-1.59912Q19.0186 0.317383 21.7773 0.317383Q24.4629 0.317383 26.3184-1.53809L55.0537-29.8828Q56.3232-31.1279 56.897-32.4219Q57.4707-33.7158 57.4707-35.2539Z"/>
  </g>
  <g id="Semibold-S" transform="matrix(1 0 0 1 2013.07 696)">
   <path d="M55.8178-35.2539Q55.8022-37.7836 53.8362-39.7186L24.5766-68.6432Q22.9699-70.2498 20.6576-70.2498Q18.2632-70.2498 16.6111-68.6132Q14.959-66.9767 14.959-64.6311Q14.959-62.3055 16.7364-60.508L42.401-35.2694L16.7364-9.9998Q14.959-8.18682 14.959-5.86123Q14.959-3.51562 16.6111-1.87905Q18.2632-0.24248 20.6576-0.24248Q22.9699-0.24248 24.5766-1.84912L53.8362-30.7893Q54.8569-31.8122 55.3374-32.8929Q55.8178-33.9735 55.8178-35.2539Z"/>
  </g>
  <g id="Medium-S" transform="matrix(1 0 0 1 1716.92 696)">
   <path d="M54.5645-35.2539Q54.5557-37.4062 52.9131-39.0312L23.2559-68.4141Q21.8379-69.832 19.8086-69.832Q17.6904-69.832 16.2573-68.4077Q14.8242-66.9834 14.8242-64.9141Q14.8242-62.8984 16.3389-61.3301L42.7109-35.2627L16.3389-9.17773Q14.8242-7.60059 14.8242-5.58496Q14.8242-3.51562 16.2573-2.09131Q17.6904-0.666992 19.8086-0.666992Q21.8379-0.666992 23.2559-2.08496L52.9131-31.4766Q53.7451-32.3311 54.1548-33.25Q54.5645-34.1689 54.5645-35.2539Z"/>
  </g>
  <g id="Regular-S" transform="matrix(1 0 0 1 1420.94 696)">
   <path d="M52.9297-35.2539Q52.9297-36.9141 51.709-38.1348L21.5332-68.1152Q20.3613-69.2871 18.7012-69.2871Q16.9434-69.2871 15.7959-68.1396Q14.6484-66.9922 14.6484-65.2832Q14.6484-63.6719 15.8203-62.4023L43.1152-35.2539L15.8203-8.10547Q14.6484-6.83594 14.6484-5.22461Q14.6484-3.51562 15.7959-2.36816Q16.9434-1.2207 18.7012-1.2207Q20.3613-1.2207 21.5332-2.39258L51.709-32.373Q52.2949-33.0078 52.6123-33.7158Q52.9297-34.4238 52.9297-35.2539Z"/>
  </g>
  <g id="Light-S" transform="matrix(1 0 0 1 1125.03 696)">
   <path d="M51.3252-35.2539Q51.3252-36.5509 50.3466-37.499L19.8985-66.8589Q18.999-67.7584 17.7325-67.7584Q16.4136-67.7584 15.531-66.891Q14.6484-66.0235 14.6484-64.7079Q14.6484-63.4903 15.5327-62.5387L43.8418-35.2539L15.5327-7.96916Q14.6484-7.01752 14.6484-5.79987Q14.6484-4.4843 15.531-3.61684Q16.4136-2.74938 17.7325-2.74938Q18.999-2.74938 19.8985-3.64889L50.3466-33.0088Q50.8115-33.4923 51.0684-34.0413Q51.3252-34.5904 51.3252-35.2539Z"/>
  </g>
  <g id="Thin-S" transform="matrix(1 0 0 1 829.379 696)">
   <path d="M49.2032-35.2539Q49.2032-36.0706 48.5448-36.6581L17.7364-65.1974Q17.1971-65.7366 16.4513-65.7366Q15.713-65.7366 15.1807-65.2395Q14.6484-64.7424 14.6484-63.9471Q14.6484-63.2501 15.1523-62.7189L44.8028-35.2539L15.1523-7.78887Q14.6484-7.25767 14.6484-6.56069Q14.6484-5.76546 15.1807-5.26832Q15.713-4.77118 16.4513-4.77118Q17.1971-4.77118 17.7364-5.31045L48.5448-33.8497Q48.8496-34.133 49.0264-34.4719Q49.2032-34.8107 49.2032-35.2539Z"/>
  </g>
  <g id="Ultralight-S" transform="matrix(1 0 0 1 533.212 696)">
   <path d="M48.1163-35.2539Q48.1163-35.8246 47.6219-36.2274L16.629-64.3463Q16.2743-64.7011 15.7951-64.7011Q15.3542-64.7011 15.0013-64.3936Q14.6484-64.0862 14.6484-63.5574Q14.6484-63.1271 14.9574-62.8113L45.295-35.2539L14.9574-7.69653Q14.6484-7.38068 14.6484-6.95038Q14.6484-6.42166 15.0013-6.1142Q15.3542-5.80673 15.7951-5.80673Q16.2743-5.80673 16.629-6.1615L47.6219-34.2804Q47.8447-34.4612 47.9805-34.6924Q48.1163-34.9236 48.1163-35.2539Z"/>
  </g>
 </g>
</svg>
