<?xml version="1.0" encoding="UTF-8"?>
<!--Generator: Apple Native CoreSVG 175.5-->
<!DOCTYPE svg
PUBLIC "-//W3C//DTD SVG 1.1//EN"
       "http://www.w3.org/Graphics/SVG/1.1/DTD/svg11.dtd">
<svg version="1.1" xmlns="http://www.w3.org/2000/svg" xmlns:xlink="http://www.w3.org/1999/xlink" width="3300" height="2200">
 <!--glyph: "uni10070B.medium", point size: 100.0, font version: "18.0d9e1", template writer version: "84"-->
 <g id="Notes">
  <rect height="2200" id="artboard" style="fill:white;opacity:1" width="3300" x="0" y="0"/>
  <line style="fill:none;stroke:black;opacity:1;stroke-width:0.5;" x1="263" x2="3036" y1="292" y2="292"/>
  <text style="stroke:none;fill:black;font-family:sans-serif;font-size:13;font-weight:bold;" transform="matrix(1 0 0 1 263 322)">Weight/Scale Variations</text>
  <text style="stroke:none;fill:black;font-family:sans-serif;font-size:13;text-anchor:middle;" transform="matrix(1 0 0 1 559.711 322)">Ultralight</text>
  <text style="stroke:none;fill:black;font-family:sans-serif;font-size:13;text-anchor:middle;" transform="matrix(1 0 0 1 856.422 322)">Thin</text>
  <text style="stroke:none;fill:black;font-family:sans-serif;font-size:13;text-anchor:middle;" transform="matrix(1 0 0 1 1153.13 322)">Light</text>
  <text style="stroke:none;fill:black;font-family:sans-serif;font-size:13;text-anchor:middle;" transform="matrix(1 0 0 1 1449.84 322)">Regular</text>
  <text style="stroke:none;fill:black;font-family:sans-serif;font-size:13;text-anchor:middle;" transform="matrix(1 0 0 1 1746.56 322)">Medium</text>
  <text style="stroke:none;fill:black;font-family:sans-serif;font-size:13;text-anchor:middle;" transform="matrix(1 0 0 1 2043.27 322)">Semibold</text>
  <text style="stroke:none;fill:black;font-family:sans-serif;font-size:13;text-anchor:middle;" transform="matrix(1 0 0 1 2339.98 322)">Bold</text>
  <text style="stroke:none;fill:black;font-family:sans-serif;font-size:13;text-anchor:middle;" transform="matrix(1 0 0 1 2636.69 322)">Heavy</text>
  <text style="stroke:none;fill:black;font-family:sans-serif;font-size:13;text-anchor:middle;" transform="matrix(1 0 0 1 2933.4 322)">Black</text>
  <line style="fill:none;stroke:black;opacity:1;stroke-width:0.5;" x1="263" x2="3036" y1="1903" y2="1903"/>
  <g transform="matrix(1 0 0 1 263 1933)">
   <path d="M9.24805 0.830078Q10.8691 0.830078 12.2949 0.214844Q13.7207-0.400391 14.8096-1.49414Q15.8984-2.58789 16.5186-4.01367Q17.1387-5.43945 17.1387-7.05078Q17.1387-8.66211 16.5186-10.0879Q15.8984-11.5137 14.8047-12.6074Q13.7109-13.7012 12.2852-14.3164Q10.8594-14.9316 9.23828-14.9316Q7.62695-14.9316 6.20117-14.3164Q4.77539-13.7012 3.69141-12.6074Q2.60742-11.5137 1.9873-10.0879Q1.36719-8.66211 1.36719-7.05078Q1.36719-5.43945 1.9873-4.01367Q2.60742-2.58789 3.69629-1.49414Q4.78516-0.400391 6.21094 0.214844Q7.63672 0.830078 9.24805 0.830078ZM9.24805-0.654297Q7.91992-0.654297 6.7627-1.14746Q5.60547-1.64062 4.73145-2.51953Q3.85742-3.39844 3.36426-4.56055Q2.87109-5.72266 2.87109-7.05078Q2.87109-8.37891 3.35938-9.54102Q3.84766-10.7031 4.72168-11.582Q5.5957-12.4609 6.75293-12.9541Q7.91016-13.4473 9.23828-13.4473Q10.5762-13.4473 11.7383-12.9541Q12.9004-12.4609 13.7793-11.582Q14.6582-10.7031 15.1514-9.54102Q15.6445-8.37891 15.6445-7.05078Q15.6445-5.72266 15.1514-4.56055Q14.6582-3.39844 13.7793-2.51953Q12.9004-1.64062 11.7432-1.14746Q10.5859-0.654297 9.24805-0.654297ZM5.6543-7.05078Q5.6543-6.72852 5.85938-6.52832Q6.06445-6.32812 6.40625-6.32812L8.51562-6.32812L8.51562-4.20898Q8.51562-3.88672 8.71094-3.67676Q8.90625-3.4668 9.23828-3.4668Q9.56055-3.4668 9.77051-3.67676Q9.98047-3.88672 9.98047-4.20898L9.98047-6.32812L12.0898-6.32812Q12.4219-6.32812 12.627-6.52832Q12.832-6.72852 12.832-7.05078Q12.832-7.38281 12.627-7.58789Q12.4219-7.79297 12.0898-7.79297L9.98047-7.79297L9.98047-9.90234Q9.98047-10.2344 9.77051-10.4443Q9.56055-10.6543 9.23828-10.6543Q8.90625-10.6543 8.71094-10.4443Q8.51562-10.2344 8.51562-9.90234L8.51562-7.79297L6.40625-7.79297Q6.06445-7.79297 5.85938-7.58789Q5.6543-7.38281 5.6543-7.05078Z"/>
  </g>
  <g transform="matrix(1 0 0 1 281.867 1933)">
   <path d="M11.709 2.91016Q13.75 2.91016 15.5518 2.12891Q17.3535 1.34766 18.7305-0.0292969Q20.1074-1.40625 20.8887-3.20801Q21.6699-5.00977 21.6699-7.05078Q21.6699-9.0918 20.8887-10.8936Q20.1074-12.6953 18.7305-14.0723Q17.3535-15.4492 15.5469-16.2305Q13.7402-17.0117 11.6992-17.0117Q9.6582-17.0117 7.85645-16.2305Q6.05469-15.4492 4.68262-14.0723Q3.31055-12.6953 2.5293-10.8936Q1.74805-9.0918 1.74805-7.05078Q1.74805-5.00977 2.5293-3.20801Q3.31055-1.40625 4.6875-0.0292969Q6.06445 1.34766 7.86621 2.12891Q9.66797 2.91016 11.709 2.91016ZM11.709 1.25Q9.98047 1.25 8.47656 0.605469Q6.97266-0.0390625 5.83496-1.17676Q4.69727-2.31445 4.05762-3.81836Q3.41797-5.32227 3.41797-7.05078Q3.41797-8.7793 4.05762-10.2832Q4.69727-11.7871 5.83008-12.9297Q6.96289-14.0723 8.4668-14.7119Q9.9707-15.3516 11.6992-15.3516Q13.4277-15.3516 14.9365-14.7119Q16.4453-14.0723 17.583-12.9297Q18.7207-11.7871 19.3652-10.2832Q20.0098-8.7793 20.0098-7.05078Q20.0098-5.32227 19.3701-3.81836Q18.7305-2.31445 17.5879-1.17676Q16.4453-0.0390625 14.9414 0.605469Q13.4375 1.25 11.709 1.25ZM7.17773-7.05078Q7.17773-6.69922 7.41211-6.47461Q7.64648-6.25 8.01758-6.25L10.8887-6.25L10.8887-3.36914Q10.8887-2.99805 11.1133-2.76855Q11.3379-2.53906 11.6895-2.53906Q12.0605-2.53906 12.29-2.76855Q12.5195-2.99805 12.5195-3.36914L12.5195-6.25L15.4004-6.25Q15.7715-6.25 16.001-6.47461Q16.2305-6.69922 16.2305-7.05078Q16.2305-7.42188 16.001-7.65137Q15.7715-7.88086 15.4004-7.88086L12.5195-7.88086L12.5195-10.752Q12.5195-11.1328 12.29-11.3623Q12.0605-11.5918 11.6895-11.5918Q11.3379-11.5918 11.1133-11.3574Q10.8887-11.123 10.8887-10.752L10.8887-7.88086L8.01758-7.88086Q7.63672-7.88086 7.40723-7.65137Q7.17773-7.42188 7.17773-7.05078Z"/>
  </g>
  <g transform="matrix(1 0 0 1 305.646 1933)">
   <path d="M14.9707 5.66406Q17.0605 5.66406 18.96 5.01465Q20.8594 4.36523 22.4512 3.19336Q24.043 2.02148 25.2197 0.429688Q26.3965-1.16211 27.0459-3.06641Q27.6953-4.9707 27.6953-7.05078Q27.6953-9.14062 27.0459-11.04Q26.3965-12.9395 25.2197-14.5312Q24.043-16.123 22.4512-17.2998Q20.8594-18.4766 18.9551-19.126Q17.0508-19.7754 14.9609-19.7754Q12.8711-19.7754 10.9717-19.126Q9.07227-18.4766 7.48535-17.2998Q5.89844-16.123 4.72168-14.5312Q3.54492-12.9395 2.90039-11.04Q2.25586-9.14062 2.25586-7.05078Q2.25586-4.9707 2.90527-3.06641Q3.55469-1.16211 4.72656 0.429688Q5.89844 2.02148 7.49023 3.19336Q9.08203 4.36523 10.9814 5.01465Q12.8809 5.66406 14.9707 5.66406ZM14.9707 3.84766Q13.1641 3.84766 11.5283 3.2959Q9.89258 2.74414 8.53516 1.74805Q7.17773 0.751953 6.17676-0.610352Q5.17578-1.97266 4.62891-3.6084Q4.08203-5.24414 4.08203-7.05078Q4.08203-8.86719 4.62891-10.5029Q5.17578-12.1387 6.17188-13.501Q7.16797-14.8633 8.52539-15.8594Q9.88281-16.8555 11.5186-17.4023Q13.1543-17.9492 14.9609-17.9492Q16.7773-17.9492 18.4131-17.4023Q20.0488-16.8555 21.4111-15.8594Q22.7734-14.8633 23.7744-13.501Q24.7754-12.1387 25.3223-10.5029Q25.8691-8.86719 25.8691-7.05078Q25.8691-5.24414 25.3223-3.6084Q24.7754-1.97266 23.7793-0.610352Q22.7832 0.751953 21.4209 1.74805Q20.0586 2.74414 18.4229 3.2959Q16.7871 3.84766 14.9707 3.84766ZM9.19922-7.05078Q9.19922-6.66992 9.45801-6.4209Q9.7168-6.17188 10.1172-6.17188L14.0625-6.17188L14.0625-2.2168Q14.0625-1.81641 14.3115-1.55762Q14.5605-1.29883 14.9512-1.29883Q15.3516-1.29883 15.6104-1.55273Q15.8691-1.80664 15.8691-2.2168L15.8691-6.17188L19.8242-6.17188Q20.2246-6.17188 20.4785-6.4209Q20.7324-6.66992 20.7324-7.05078Q20.7324-7.46094 20.4785-7.71484Q20.2246-7.96875 19.8242-7.96875L15.8691-7.96875L15.8691-11.9141Q15.8691-12.3242 15.6104-12.583Q15.3516-12.8418 14.9512-12.8418Q14.5605-12.8418 14.3115-12.583Q14.0625-12.3242 14.0625-11.9141L14.0625-7.96875L10.1172-7.96875Q9.70703-7.96875 9.45312-7.71484Q9.19922-7.46094 9.19922-7.05078Z"/>
  </g>
  <text style="stroke:none;fill:black;font-family:sans-serif;font-size:13;font-weight:bold;" transform="matrix(1 0 0 1 263 1953)">Design Variations</text>
  <text style="stroke:none;fill:black;font-family:sans-serif;font-size:13;" transform="matrix(1 0 0 1 263 1971)">Symbols are supported in up to nine weights and three scales.</text>
  <text style="stroke:none;fill:black;font-family:sans-serif;font-size:13;" transform="matrix(1 0 0 1 263 1989)">For optimal layout with text and other symbols, vertically align</text>
  <text style="stroke:none;fill:black;font-family:sans-serif;font-size:13;" transform="matrix(1 0 0 1 263 2007)">symbols with the adjacent text.</text>
  <line style="fill:none;stroke:#00AEEF;stroke-width:0.5;opacity:1.0;" x1="776" x2="776" y1="1919" y2="1933"/>
  <g transform="matrix(1 0 0 1 776 1933)">
   <path d="M3.31055 0.15625Q3.70117 0.15625 3.91602-0.00976562Q4.13086-0.175781 4.26758-0.585938L5.52734-4.0332L11.2891-4.0332L12.5488-0.585938Q12.6855-0.175781 12.9004-0.00976562Q13.1152 0.15625 13.4961 0.15625Q13.8867 0.15625 14.1162-0.0585938Q14.3457-0.273438 14.3457-0.644531Q14.3457-0.869141 14.2383-1.17188L9.6582-13.3691Q9.48242-13.8184 9.17969-14.043Q8.87695-14.2676 8.4082-14.2676Q7.5-14.2676 7.17773-13.3789L2.59766-1.16211Q2.49023-0.859375 2.49023-0.634766Q2.49023-0.263672 2.70996-0.0537109Q2.92969 0.15625 3.31055 0.15625ZM6.00586-5.51758L8.37891-12.0898L8.42773-12.0898L10.8008-5.51758Z"/>
  </g>
  <line style="fill:none;stroke:#00AEEF;stroke-width:0.5;opacity:1.0;" x1="793.197" x2="793.197" y1="1919" y2="1933"/>
  <text style="stroke:none;fill:black;font-family:sans-serif;font-size:13;font-weight:bold;" transform="matrix(1 0 0 1 776 1953)">Margins</text>
  <text style="stroke:none;fill:black;font-family:sans-serif;font-size:13;" transform="matrix(1 0 0 1 776 1971)">Leading and trailing margins on the left and right side of each symbol</text>
  <text style="stroke:none;fill:black;font-family:sans-serif;font-size:13;" transform="matrix(1 0 0 1 776 1989)">can be adjusted by modifying the x-location of the margin guidelines.</text>
  <text style="stroke:none;fill:black;font-family:sans-serif;font-size:13;" transform="matrix(1 0 0 1 776 2007)">Modifications are automatically applied proportionally to all</text>
  <text style="stroke:none;fill:black;font-family:sans-serif;font-size:13;" transform="matrix(1 0 0 1 776 2025)">scales and weights.</text>
  <g transform="matrix(1 0 0 1 1289 1933)">
   <path d="M2.8418 1.86523L4.54102 3.57422Q5.18555 4.22852 5.90332 4.17969Q6.62109 4.13086 7.31445 3.35938L18.0078-8.42773L17.041-9.4043L6.42578 2.27539Q6.16211 2.57812 5.89355 2.61719Q5.625 2.65625 5.27344 2.30469L4.10156 1.14258Q3.75 0.791016 3.79395 0.522461Q3.83789 0.253906 4.14062-0.0195312L15.6152-10.8203L14.6387-11.7871L3.04688-0.898438Q2.30469-0.214844 2.25098 0.498047Q2.19727 1.21094 2.8418 1.86523ZM9.25781-16.3281Q8.94531-16.0254 8.90625-15.6348Q8.86719-15.2441 9.04297-14.9512Q9.21875-14.6777 9.55566-14.541Q9.89258-14.4043 10.3809-14.5215Q11.4746-14.7754 12.5977-14.7314Q13.7207-14.6875 14.7949-13.9844L14.209-12.5293Q13.9551-11.9043 14.0674-11.4404Q14.1797-10.9766 14.5801-10.5664L16.875-8.25195Q17.2363-7.88086 17.5781-7.82227Q17.9199-7.76367 18.3398-7.8418L19.4043-8.03711L20.0684-7.36328L20.0293-6.80664Q20-6.43555 20.1221-6.12305Q20.2441-5.81055 20.6055-5.44922L21.3672-4.70703Q21.7285-4.3457 22.1533-4.33105Q22.5781-4.31641 22.9297-4.66797L25.8398-7.58789Q26.1914-7.93945 26.1816-8.35449Q26.1719-8.76953 25.8105-9.13086L25.0391-9.89258Q24.6875-10.2539 24.3799-10.3857Q24.0723-10.5176 23.7109-10.4883L23.1348-10.4395L22.4902-11.0742L22.7344-12.1973Q22.832-12.6172 22.6953-12.9834Q22.5586-13.3496 22.1191-13.7891L19.9219-15.9766Q18.6719-17.2168 17.2607-17.8369Q15.8496-18.457 14.4189-18.4814Q12.9883-18.5059 11.665-17.959Q10.3418-17.4121 9.25781-16.3281ZM10.752-15.957Q11.6602-16.6211 12.7002-16.9043Q13.7402-17.1875 14.8047-17.085Q15.8691-16.9824 16.8701-16.5137Q17.8711-16.0449 18.7012-15.2051L21.1328-12.793Q21.3086-12.6172 21.3525-12.4512Q21.3965-12.2852 21.3379-12.0312L21.0156-10.5469L22.5195-9.0625L23.5059-9.12109Q23.6914-9.13086 23.7891-9.09668Q23.8867-9.0625 24.0332-8.91602L24.6094-8.33984L22.168-5.89844L21.5918-6.47461Q21.4453-6.62109 21.4062-6.71875Q21.3672-6.81641 21.377-7.01172L21.4453-7.98828L19.9512-9.47266L18.4277-9.21875Q18.1836-9.16992 18.042-9.2041Q17.9004-9.23828 17.7148-9.41406L15.7129-11.416Q15.5176-11.5918 15.4932-11.7529Q15.4688-11.9141 15.5859-12.1875L16.4648-14.2773Q15.293-15.3711 13.8281-15.791Q12.3633-16.2109 10.8398-15.7617Q10.7227-15.7324 10.6885-15.8057Q10.6543-15.8789 10.752-15.957Z"/>
  </g>
  <text style="stroke:none;fill:black;font-family:sans-serif;font-size:13;font-weight:bold;" transform="matrix(1 0 0 1 1289 1953)">Exporting</text>
  <text style="stroke:none;fill:black;font-family:sans-serif;font-size:13;" transform="matrix(1 0 0 1 1289 1971)">Symbols should be outlined when exporting to ensure the</text>
  <text style="stroke:none;fill:black;font-family:sans-serif;font-size:13;" transform="matrix(1 0 0 1 1289 1989)">design is preserved when submitting to Xcode.</text>
  <text id="template-version" style="stroke:none;fill:black;font-family:sans-serif;font-size:13;text-anchor:end;" transform="matrix(1 0 0 1 3036 1933)">Template v.2.0</text>
  <text style="stroke:none;fill:black;font-family:sans-serif;font-size:13;text-anchor:end;" transform="matrix(1 0 0 1 3036 1951)">Requires Xcode 12 or greater</text>
  <text id="descriptive-name" style="stroke:none;fill:black;font-family:sans-serif;font-size:13;text-anchor:end;" transform="matrix(1 0 0 1 3036 1969)">Generated from chart.pie.fill</text>
  <text style="stroke:none;fill:black;font-family:sans-serif;font-size:13;text-anchor:end;" transform="matrix(1 0 0 1 3036 1987)">Typeset at 100 points</text>
  <text style="stroke:none;fill:black;font-family:sans-serif;font-size:13;" transform="matrix(1 0 0 1 263 726)">Small</text>
  <text style="stroke:none;fill:black;font-family:sans-serif;font-size:13;" transform="matrix(1 0 0 1 263 1156)">Medium</text>
  <text style="stroke:none;fill:black;font-family:sans-serif;font-size:13;" transform="matrix(1 0 0 1 263 1586)">Large</text>
 </g>
 <g id="Guides">
  <g id="H-reference" style="fill:#27AAE1;stroke:none;" transform="matrix(1 0 0 1 339 696)">
   <path d="M0.993347 0L3.6377 0L29.3282-67.1326L30.0301-67.1326L30.0301-70.459L28.1227-70.459ZM11.6882-24.4797L46.9818-24.4797L46.2311-26.7288L12.4382-26.7288ZM55.1193 0L57.7637 0L30.6381-70.459L29.4327-70.459L29.4327-67.1326Z"/>
  </g>
  <line id="Baseline-S" style="fill:none;stroke:#27AAE1;opacity:1;stroke-width:0.5;" x1="263" x2="3036" y1="696" y2="696"/>
  <line id="Capline-S" style="fill:none;stroke:#27AAE1;opacity:1;stroke-width:0.5;" x1="263" x2="3036" y1="625.541" y2="625.541"/>
  <g id="H-reference" style="fill:#27AAE1;stroke:none;" transform="matrix(1 0 0 1 339 1126)">
   <path d="M0.993347 0L3.6377 0L29.3282-67.1326L30.0301-67.1326L30.0301-70.459L28.1227-70.459ZM11.6882-24.4797L46.9818-24.4797L46.2311-26.7288L12.4382-26.7288ZM55.1193 0L57.7637 0L30.6381-70.459L29.4327-70.459L29.4327-67.1326Z"/>
  </g>
  <line id="Baseline-M" style="fill:none;stroke:#27AAE1;opacity:1;stroke-width:0.5;" x1="263" x2="3036" y1="1126" y2="1126"/>
  <line id="Capline-M" style="fill:none;stroke:#27AAE1;opacity:1;stroke-width:0.5;" x1="263" x2="3036" y1="1055.54" y2="1055.54"/>
  <g id="H-reference" style="fill:#27AAE1;stroke:none;" transform="matrix(1 0 0 1 339 1556)">
   <path d="M0.993347 0L3.6377 0L29.3282-67.1326L30.0301-67.1326L30.0301-70.459L28.1227-70.459ZM11.6882-24.4797L46.9818-24.4797L46.2311-26.7288L12.4382-26.7288ZM55.1193 0L57.7637 0L30.6381-70.459L29.4327-70.459L29.4327-67.1326Z"/>
  </g>
  <line id="Baseline-L" style="fill:none;stroke:#27AAE1;opacity:1;stroke-width:0.5;" x1="263" x2="3036" y1="1556" y2="1556"/>
  <line id="Capline-L" style="fill:none;stroke:#27AAE1;opacity:1;stroke-width:0.5;" x1="263" x2="3036" y1="1485.54" y2="1485.54"/>
  <line id="left-margin" style="fill:none;stroke:#00AEEF;stroke-width:0.5;opacity:1.0;" x1="1391.32" x2="1391.32" y1="1030.79" y2="1150.12"/>
  <line id="right-margin" style="fill:none;stroke:#00AEEF;stroke-width:0.5;opacity:1.0;" x1="1508.37" x2="1508.37" y1="1030.79" y2="1150.12"/>
 </g>
 <g id="Symbols">
  <g id="Black-L" transform="matrix(1 0 0 1 2854.19 1556)">
   <path d="M79.1958 32.7281Q90.4665 32.7281 100.821 29.1802Q111.175 25.6323 119.799 19.1646L72.2974-26.7936Q71.1815-27.9083 70.569-29.1227Q69.9565-30.3372 69.9565-32.4988L69.9565-102.479Q57.5562-100.76 46.869-94.9101Q36.1818-89.0605 28.1964-79.9795Q20.211-70.8984 15.7349-59.4608Q11.2588-48.0232 11.2588-35.2089Q11.2588-21.1899 16.5645-8.9039Q21.8702 3.3821 31.2375 12.7598Q40.6048 22.1375 52.8908 27.4328Q65.1768 32.7281 79.1958 32.7281ZM147.155-35.2113Q147.155-41.5874 145.972-47.7488Q144.789-53.9103 142.572-59.4942L91.6876-30.4493L131.414 8.11738Q138.769-0.695563 142.962-11.8051Q147.155-22.9147 147.155-35.2113ZM85.4842-44.9076L135.307-73.3615Q129.777-81.5555 122.04-87.8398Q114.302-94.1242 105.021-98.0073Q95.7404-101.89 85.4842-102.833Z"/>
  </g>
  <g id="Heavy-L" transform="matrix(1 0 0 1 2558.42 1556)">
   <path d="M78.2532 31.7806Q89.5681 31.7806 99.9912 28.1238Q110.414 24.4669 119.067 17.7655L72.1216-27.7679Q71.0697-28.8143 70.5305-29.951Q69.9913-31.0877 69.9913-33.0381L69.9913-101.641Q57.6279-100.095 46.9388-94.3636Q36.2496-88.632 28.2438-79.6488Q20.2381-70.6657 15.7484-59.3034Q11.2588-47.941 11.2588-35.2139Q11.2588-21.4094 16.4964-9.29186Q21.7339 2.82565 30.9738 12.0806Q40.2137 21.3356 52.3312 26.5581Q64.4487 31.7806 78.2532 31.7806ZM145.283-35.2251Q145.283-41.7666 143.983-48.1513Q142.683-54.536 140.288-60.2351L89.2655-31.0602L129.31 7.9845Q136.761-0.746247 141.022-11.8649Q145.283-22.9836 145.283-35.2251ZM83.7228-43.8226L133.81-72.4651Q128.286-80.7882 120.458-87.1289Q112.63-93.4695 103.269-97.3094Q93.9078-101.149 83.7228-101.955Z"/>
  </g>
  <g id="Bold-L" transform="matrix(1 0 0 1 2262.88 1556)">
   <path d="M77.0704 30.5975Q88.4614 30.5975 98.9653 26.7988Q109.469 23 118.131 16.029L71.9436-28.9221Q70.9687-29.884 70.5142-30.9284Q70.0597-31.9728 70.0597-33.6842L70.0597-100.582Q57.7349-99.2581 47.0382-93.6799Q36.3415-88.1018 28.309-79.2415Q20.2764-70.3812 15.7676-59.1111Q11.2588-47.841 11.2588-35.214Q11.2588-21.6709 16.4081-9.76466Q21.5574 2.14161 30.6361 11.2392Q39.7147 20.3368 51.621 25.4672Q63.5273 30.5975 77.0704 30.5975ZM142.933-35.2405Q142.933-41.967 141.498-48.5948Q140.064-55.2226 137.468-61.0452L86.291-31.7463L126.668 7.83049Q134.241-0.800245 138.587-11.9305Q142.933-23.0607 142.933-35.2405ZM81.5704-42.411L131.98-71.2616Q126.456-79.7908 118.506-86.2118Q110.555-92.6328 101.098-96.4189Q91.6409-100.205 81.5704-100.842Z"/>
  </g>
  <g id="Semibold-L" transform="matrix(1 0 0 1 1966.98 1556)">
   <path d="M76.2549 29.782Q87.6985 29.782 98.2581 25.8853Q108.818 21.9887 117.485 14.8319L71.821-29.7178Q70.899-30.6214 70.5029-31.6022Q70.1069-32.5829 70.1069-34.1296L70.1069-99.8511Q57.8087-98.681 47.1068-93.2086Q36.4049-87.7362 28.3539-78.9607Q20.3028-70.1851 15.7808-58.9786Q11.2588-47.7721 11.2588-35.2142Q11.2588-21.8512 16.3472-10.0906Q21.4357 1.67003 30.4032 10.6591Q39.3707 19.6483 51.1313 24.7151Q62.892 29.782 76.2549 29.782ZM141.313-35.2511Q141.313-42.1052 139.785-48.9006Q138.258-55.6959 135.524-61.6037L84.2405-32.2194L124.847 7.72433Q132.504-0.837472 136.909-11.9757Q141.313-23.1138 141.313-35.2511ZM80.0866-41.4378L130.719-70.432Q125.195-79.1031 117.16-85.5796Q109.125-92.056 99.6015-95.805Q90.0782-99.554 80.0866-100.074Z"/>
  </g>
  <g id="Medium-L" transform="matrix(1 0 0 1 1670.88 1556)">
   <path d="M75.6366 29.1635Q87.12 29.1635 97.7219 25.1927Q108.324 21.2219 116.996 13.9243L71.728-30.3211Q70.8462-31.1806 70.4944-32.1131Q70.1426-33.0456 70.1426-34.4673L70.1426-99.2972Q57.8646-98.2434 47.1588-92.8513Q36.453-87.4591 28.3879-78.7477Q20.3229-70.0364 15.7908-58.8781Q11.2588-47.7198 11.2588-35.2143Q11.2588-21.988 16.3011-10.3377Q21.3434 1.31247 30.2266 10.2193Q39.1099 19.1262 50.7601 24.1449Q62.4103 29.1635 75.6366 29.1635ZM140.084-35.2592Q140.084-42.21 138.486-49.1324Q136.888-56.0548 134.049-62.0272L82.6857-32.578L123.465 7.64382Q131.188-0.865698 135.636-12.0099Q140.084-23.1541 140.084-35.2592ZM78.9615-40.6998L129.763-69.8029Q124.239-78.5818 116.14-85.1002Q108.04-91.6186 98.4669-95.3395Q88.8932-99.0604 78.9615-99.4923Z"/>
  </g>
  <g id="Regular-L" transform="matrix(1 0 0 1 1374.97 1556)">
   <path d="M74.8301 28.3569Q86.3654 28.3569 97.0224 24.2893Q107.679 20.2217 116.357 12.7403L71.6067-31.108Q70.7773-31.91 70.4833-32.7795Q70.1893-33.649 70.1893-34.9079L70.1893-98.5746Q57.9376-97.6727 47.2266-92.3851Q36.5157-87.0975 28.4323-78.47Q20.349-69.8425 15.8039-58.747Q11.2588-47.6516 11.2588-35.2144Q11.2588-22.1663 16.2409-10.6601Q21.2231 0.846075 29.9963 9.64563Q38.7696 18.4452 50.2758 23.4011Q61.782 28.3569 74.8301 28.3569ZM138.482-35.2697Q138.482-42.3467 136.792-49.4348Q135.102-56.5229 132.126-62.5795L80.6577-33.0458L121.664 7.53882Q129.47-0.902516 133.976-12.0546Q138.482-23.2067 138.482-35.2697ZM77.494-39.7373L128.515-68.9823Q122.992-77.9017 114.809-84.4749Q106.626-91.0481 96.9868-94.7323Q87.3476-98.4166 77.494-98.7332Z"/>
  </g>
  <g id="Light-L" transform="matrix(1 0 0 1 1079.18 1556)">
   <path d="M73.914 27.479Q85.6401 27.479 96.3258 23.2682Q107.011 19.0574 115.517 11.5189L71.7404-31.5659Q70.9492-32.3108 70.6743-33.1422Q70.3993-33.9735 70.3993-35.2131L70.3993-97.6967Q58.1284-97.0048 47.3793-91.8698Q36.6302-86.7349 28.5183-78.2027Q20.4064-69.6706 15.8326-58.6324Q11.2588-47.5942 11.2588-35.1762Q11.2588-22.2808 16.155-10.9368Q21.0512 0.407097 29.6909 9.06348Q38.3307 17.7199 49.6746 22.5994Q61.0185 27.479 73.914 27.479ZM136.65-35.2697Q136.65-42.3467 134.931-49.387Q133.213-56.4274 130.237-62.4458L78.7683-33.0651L119.603 7.50066Q127.523-0.883276 132.086-12.045Q136.65-23.2067 136.65-35.2697ZM76.1963-38.3252L127.409-67.5509Q121.846-76.9093 113.511-83.6066Q105.176-90.3039 95.4887-93.9499Q85.8018-97.596 76.1963-97.7982Z"/>
  </g>
  <g id="Thin-L" transform="matrix(1 0 0 1 783.68 1556)">
   <path d="M72.7024 26.3178Q84.6808 26.3178 95.4044 21.9176Q106.128 17.5175 114.406 9.90357L71.9172-32.1716Q71.1765-32.8409 70.9268-33.6218Q70.6771-34.4027 70.6771-35.6169L70.6771-96.5355Q58.3807-96.1214 47.5811-91.1883Q36.7816-86.2552 28.6319-77.8493Q20.4823-69.4433 15.8705-58.4808Q11.2588-47.5183 11.2588-35.1258Q11.2588-22.4322 16.0413-11.3028Q20.8239-0.173486 29.287 8.29354Q37.7501 16.7606 48.8794 21.5392Q60.0088 26.3178 72.7024 26.3178ZM134.226-35.2697Q134.226-42.3467 132.47-49.3238Q130.714-56.301 127.738-62.269L76.2696-33.0905L116.877 7.4502Q124.948-0.857831 129.587-12.0323Q134.226-23.2067 134.226-35.2697ZM74.48-36.4575L125.945-65.6577Q120.332-75.5967 111.795-82.4581Q103.258-89.3195 93.5074-92.9151Q83.7572-96.5107 74.48-96.5615Z"/>
  </g>
  <g id="Ultralight-L" transform="matrix(1 0 0 1 487.589 1556)">
   <path d="M72.0818 25.7231Q84.1894 25.7231 94.9325 21.2259Q105.676 16.7288 113.838 9.07619L72.0078-32.4817Q71.2929-33.1124 71.0562-33.8675Q70.8194-34.6225 70.8194-35.8237L70.8194-95.9408Q58.5099-95.6689 47.6845-90.8392Q36.8591-86.0095 28.6902-77.6682Q20.5212-69.3269 15.89-58.4031Q11.2588-47.4794 11.2588-35.0999Q11.2588-22.5097 15.9831-11.4903Q20.7074-0.470858 29.0801 7.89918Q37.4527 16.2692 48.4721 20.9961Q59.4916 25.7231 72.0818 25.7231ZM132.985-35.2697Q132.985-42.3467 131.21-49.2915Q129.434-56.2363 126.458-62.1784L74.9897-33.1035L115.48 7.42435Q123.63-0.844798 128.307-12.0258Q132.985-23.2067 132.985-35.2697ZM73.6009-35.5008L125.195-64.6881Q119.556-74.9244 110.916-81.8699Q102.275-88.8154 92.4925-92.3851Q82.71-95.9549 73.6009-95.9281Z"/>
  </g>
  <g id="Black-M" transform="matrix(1 0 0 1 2871.36 1126)">
   <path d="M62.0422 18.1155Q70.7621 18.1155 78.7289 15.441Q86.6958 12.7665 93.3287 7.94888L56.181-27.9185Q55.2667-28.8331 54.7317-29.8356Q54.1968-30.8382 54.1968-32.6918L54.1968-87.9308Q44.5554-86.4792 36.2721-81.8665Q27.9887-77.2538 21.8158-70.1471Q15.6428-63.0405 12.1827-54.1223Q8.72266-45.2042 8.72266-35.2041Q8.72266-24.1793 12.8801-14.538Q17.0376-4.89671 24.3862 2.45466Q31.7348 9.80604 41.3761 13.9608Q51.0174 18.1155 62.0422 18.1155ZM115.367-35.2035Q115.367-40.0012 114.547-44.5764Q113.727-49.1516 112.164-53.3734L72.8599-31.0036L103.34-1.53781Q108.972-8.42844 112.169-17.029Q115.367-25.6295 115.367-35.2035ZM67.5662-43.4686L105.964-65.3484Q101.671-71.6451 95.7333-76.4823Q89.7958-81.3195 82.6677-84.3599Q75.5397-87.4004 67.5662-88.2327Z"/>
  </g>
  <g id="Heavy-M" transform="matrix(1 0 0 1 2575.47 1126)">
   <path d="M61.2053 17.2702Q69.9507 17.2702 77.9821 14.5024Q86.0134 11.7347 92.6906 6.69379L55.9968-28.8288Q55.1415-29.6818 54.6765-30.6119Q54.2114-31.5419 54.2114-33.1908L54.2114-87.1933Q44.6079-85.8912 36.3262-81.3797Q28.0445-76.8683 21.8542-69.8486Q15.664-62.8288 12.1933-53.979Q8.72266-45.1291 8.72266-35.2125Q8.72266-24.3833 12.8214-14.8917Q16.9202-5.40019 24.1566 1.84442Q31.3931 9.08903 40.8846 13.1796Q50.3762 17.2702 61.2053 17.2702ZM113.707-35.217Q113.707-40.1764 112.775-44.9742Q111.843-49.7721 110.105-54.1101L70.6664-31.5991L101.474-1.6642Q107.189-8.47976 110.448-17.0883Q113.707-25.6968 113.707-35.217ZM65.964-42.5383L104.603-64.6042Q100.318-70.9866 94.3063-75.8674Q88.2944-80.7481 81.0926-83.7498Q73.8908-86.7515 65.964-87.4607Z"/>
  </g>
  <g id="Bold-M" transform="matrix(1 0 0 1 2279.69 1126)">
   <path d="M60.2692 16.3247Q69.0431 16.3247 77.1466 13.4525Q85.2501 10.5804 91.9769 5.28981L55.7908-29.847Q55.0015-30.6312 54.6146-31.4802Q54.2278-32.3292 54.2278-33.7491L54.2278-86.3684Q44.6667-85.2333 36.3868-80.8352Q28.1069-76.4371 21.8973-69.5146Q15.6877-62.592 12.2052-53.8186Q8.72266-45.0452 8.72266-35.2218Q8.72266-24.6115 12.7558-15.2874Q16.789-5.9634 23.8998 1.16178Q31.0107 8.28695 40.3348 12.3058Q49.6588 16.3247 60.2692 16.3247ZM111.849-35.2321Q111.849-40.3723 110.793-45.4193Q109.736-50.4662 107.802-54.9342L68.2127-32.2652L99.3865-1.80558Q105.193-8.53717 108.521-17.1547Q111.849-25.7722 111.849-35.2321ZM64.1718-41.4976L103.081-63.7717Q98.805-70.25 92.71-75.1795Q86.615-80.109 79.3306-83.0673Q72.0462-86.0256 64.1718-86.597Z"/>
  </g>
  <g id="Semibold-M" transform="matrix(1 0 0 1 1983.62 1126)">
   <path d="M59.6238 15.6728Q68.4174 15.6728 76.5706 12.7287Q84.7238 9.78468 91.4849 4.3219L55.6487-30.549Q54.9049-31.2857 54.572-32.0788Q54.2391-32.8719 54.2391-34.1339L54.2391-85.7996Q44.7072-84.7799 36.4285-80.4599Q28.1499-76.1399 21.9269-69.2843Q15.704-62.4288 12.2133-53.708Q8.72266-44.9873 8.72266-35.2283Q8.72266-24.7688 12.7106-15.5602Q16.6985-6.35167 23.7228 0.691165Q30.7471 7.734 39.9557 11.7034Q49.1643 15.6728 59.6238 15.6728ZM110.569-35.2425Q110.569-40.5074 109.426-45.7261Q108.284-50.9448 106.215-55.5023L66.5211-32.7244L97.9473-1.90304Q103.818-8.57675 107.194-17.2005Q110.569-25.8242 110.569-35.2425ZM62.9362-40.7802L102.031-63.1977Q97.7619-69.7422 91.6095-74.7053Q85.4571-79.6684 78.1159-82.5968Q70.7746-85.5252 62.9362-86.0016Z"/>
  </g>
  <g id="Medium-M" transform="matrix(1 0 0 1 1687.4 1126)">
   <path d="M59.1344 15.1786Q67.943 15.1786 76.1339 12.1799Q84.3248 9.18132 91.1118 3.588L55.541-31.0812Q54.8317-31.782 54.5397-32.5327Q54.2477-33.2834 54.2477-34.4257L54.2477-85.3684Q44.7379-84.436 36.4602-80.1752Q28.1825-75.9145 21.9494-69.1097Q15.7164-62.305 12.2195-53.6242Q8.72266-44.9434 8.72266-35.2332Q8.72266-24.8881 12.6762-15.7671Q16.6298-6.64608 23.5886 0.334328Q30.5473 7.31473 39.6683 11.2466Q48.7893 15.1786 59.1344 15.1786ZM109.598-35.2504Q109.598-40.6099 108.39-45.9587Q107.182-51.3076 105.011-55.9331L65.2385-33.0726L96.8561-1.97695Q102.775-8.60676 106.187-17.2352Q109.598-25.8636 109.598-35.2504ZM61.9993-40.2362L101.235-62.7625Q96.9709-69.3572 90.7751-74.3458Q84.5792-79.3344 77.1948-82.24Q69.8104-85.1457 61.9993-85.5502Z"/>
  </g>
  <g id="Regular-M" transform="matrix(1 0 0 1 1391.32 1126)">
   <path d="M58.4961 14.5339Q67.3242 14.5339 75.5643 11.4641Q83.8044 8.39432 90.6252 2.63073L55.4005-31.7755Q54.7362-32.4293 54.4976-33.1247Q54.2589-33.8201 54.2589-34.8064L54.2589-84.8059Q44.7779-83.9875 36.5015-79.804Q28.225-75.6205 21.9788-68.882Q15.7325-62.1436 12.2276-53.5148Q8.72266-44.8861 8.72266-35.2395Q8.72266-25.0437 12.6315-16.0369Q16.5403-7.03009 23.4135-0.131111Q30.2866 6.76786 39.2934 10.6509Q48.3002 14.5339 58.4961 14.5339ZM108.332-35.2606Q108.332-40.7435 107.039-46.2622Q105.746-51.7809 103.44-56.4949L63.5655-33.5267L95.4328-2.07334Q101.415-8.64591 104.873-17.2804Q108.332-25.9149 108.332-35.2606ZM60.7773-39.5266L100.197-62.1949Q95.9392-68.855 89.6867-73.8768Q83.4341-78.8986 75.9935-81.7747Q68.5528-84.6508 60.7773-84.9613Z"/>
  </g>
  <g id="Light-M" transform="matrix(1 0 0 1 1095.43 1126)">
   <path d="M57.6747 13.7467Q66.6739 13.7467 74.9397 10.5486Q83.2055 7.35046 89.8723 1.53571L55.5204-32.186Q54.8903-32.7887 54.6688-33.4499Q54.4472-34.1111 54.4472-35.08L54.4472-84.0188Q44.949-83.3887 36.6383-79.342Q28.3276-75.2954 22.0558-68.6424Q15.784-61.9895 12.2533-53.4121Q8.72266-44.8347 8.72266-35.2053Q8.72266-25.1463 12.5544-16.285Q16.3862-7.42365 23.1396-0.653039Q29.893 6.11757 38.7544 9.93216Q47.6157 13.7467 57.6747 13.7467ZM106.689-35.2606Q106.689-40.7435 105.371-46.2193Q104.052-51.6952 101.747-56.375L61.8716-33.544L93.5848-2.10755Q99.6697-8.62866 103.179-17.2718Q106.689-25.9149 106.689-35.2606ZM59.6139-38.2605L99.2047-60.9116Q94.9126-67.9652 88.5232-73.0983Q82.1339-78.2314 74.6503-81.0732Q67.1668-83.9151 59.6139-84.123Z"/>
  </g>
  <g id="Thin-M" transform="matrix(1 0 0 1 799.803 1126)">
   <path d="M56.5884 12.7057Q65.8139 12.7057 74.1137 9.33779Q82.4135 5.96988 88.8765 0.0874436L55.6789-32.729Q55.0941-33.2639 54.8952-33.8799Q54.6962-34.4958 54.6962-35.442L54.6962-82.9778Q45.1752-82.5967 36.8193-78.731Q28.4634-74.8653 22.1577-68.3255Q15.852-61.7857 12.2873-53.2761Q8.72266-44.7666 8.72266-35.1601Q8.72266-25.282 12.4526-16.6131Q16.1824-7.94417 22.7775-1.34333Q29.3725 5.25751 38.0415 8.9816Q46.7104 12.7057 56.5884 12.7057ZM104.517-35.2606Q104.517-40.7435 103.164-46.1627Q101.812-51.5819 99.5064-56.2165L59.6314-33.5668L91.1408-2.1528Q97.3614-8.60584 100.939-17.2604Q104.517-25.9149 104.517-35.2606ZM58.0751-36.5861L97.8921-59.2143Q93.5549-66.7884 86.9845-72.0686Q80.4141-77.3489 72.874-80.1455Q65.3338-82.9421 58.0751-83.0143Z"/>
  </g>
  <g id="Ultralight-M" transform="matrix(1 0 0 1 503.648 1126)">
   <path d="M56.032 12.1725Q65.3733 12.1725 73.6906 8.71761Q82.0079 5.26275 88.3664-0.65435L55.7601-33.0071Q55.1985-33.5074 55.0111-34.1001Q54.8238-34.6929 54.8238-35.6274L54.8238-82.4445Q45.2911-82.191 36.912-78.418Q28.5329-74.6451 22.2099-68.1632Q15.8869-61.6813 12.3048-53.2065Q8.72266-44.7318 8.72266-35.1369Q8.72266-25.3516 12.4004-16.7812Q16.0781-8.21078 22.592-1.6969Q29.1059 4.81699 37.6763 8.49473Q46.2467 12.1725 56.032 12.1725ZM103.404-35.2606Q103.404-40.7435 102.034-46.1337Q100.664-51.5239 98.3589-56.1353L58.4839-33.5785L89.8889-2.17597Q96.179-8.59416 99.7914-17.2546Q103.404-25.9149 103.404-35.2606ZM57.287-35.7284L97.2199-58.3449Q92.8594-66.1857 86.1963-71.5413Q79.5333-76.8969 71.9641-79.6703Q64.3949-82.4437 57.287-82.4464Z"/>
  </g>
  <g id="Black-S" transform="matrix(1 0 0 1 2884.57 696)">
   <path d="M48.8281 6.78711Q55.6641 6.78711 61.8896 4.71191Q68.1152 2.63672 73.291-1.07422L44.0918-29.248Q43.3594-29.9805 42.9199-30.7861Q42.4805-31.5918 42.4805-33.1055L42.4805-76.709Q34.9121-75.5371 28.418-71.8994Q21.9238-68.2617 17.0898-62.6709Q12.2559-57.0801 9.5459-50.0732Q6.83594-43.0664 6.83594-35.2051Q6.83594-26.5137 10.1074-18.9209Q13.3789-11.3281 19.165-5.54199Q24.9512 0.244141 32.5439 3.51562Q40.1367 6.78711 48.8281 6.78711ZM90.8203-35.2051Q90.8203-38.916 90.21-42.4316Q89.5996-45.9473 88.4277-49.2188L57.666-31.7383L81.4453-8.78906Q85.8398-14.209 88.3301-20.9473Q90.8203-27.6855 90.8203-35.2051ZM53.3691-41.8945L83.3984-58.9844Q80.0293-63.916 75.3906-67.7002Q70.752-71.4844 65.1855-73.877Q59.6191-76.2695 53.3691-76.9531Z"/>
  </g>
  <g id="Heavy-S" transform="matrix(1 0 0 1 2588.47 696)">
   <path d="M48.2173 6.16479Q55.0533 6.16479 61.3307 4.02621Q67.6082 1.88763 72.8416-2.0077L43.9189-29.9741Q43.2326-30.6604 42.8508-31.4085Q42.4689-32.1565 42.4689-33.4973L42.4689-76.1789Q34.9352-75.1107 28.4468-71.5422Q21.9584-67.9736 17.1129-62.4462Q12.2674-56.9187 9.55166-49.9638Q6.83594-43.0088 6.83594-35.2166Q6.83594-26.675 10.0671-19.1917Q13.2982-11.7084 19.0037-5.99721Q24.7092-0.285985 32.1924 2.9394Q39.6757 6.16479 48.2173 6.16479ZM89.6102-35.2166Q89.6102-39.0658 88.9077-42.7774Q88.2051-46.4889 86.8835-49.8641L56.0065-32.2454L80.0854-8.89278Q84.5376-14.2551 87.0739-20.9991Q89.6102-27.7432 89.6102-35.2166ZM52.1475-41.2607L82.3612-58.5119Q79.0036-63.4666 74.3188-67.2738Q69.6341-71.081 64.0101-73.4448Q58.386-75.8086 52.1475-76.4Z"/>
  </g>
  <g id="Bold-S" transform="matrix(1 0 0 1 2292.43 696)">
   <path d="M47.5342 5.46875Q54.3701 5.46875 60.7056 3.25928Q67.041 1.0498 72.3389-3.05176L43.7256-30.7861Q43.0908-31.4209 42.7734-32.1045Q42.4561-32.7881 42.4561-33.9355L42.4561-75.5859Q34.9609-74.6338 28.479-71.1426Q21.9971-67.6514 17.1387-62.1948Q12.2803-56.7383 9.55811-49.8413Q6.83594-42.9443 6.83594-35.2295Q6.83594-26.8555 10.022-19.4946Q13.208-12.1338 18.8232-6.50635Q24.4385-0.878906 31.7993 2.29492Q39.1602 5.46875 47.5342 5.46875ZM88.2568-35.2295Q88.2568-39.2334 87.4512-43.1641Q86.6455-47.0947 85.1562-50.5859L54.1504-32.8125L78.5645-9.00879Q83.0811-14.3066 85.6689-21.0571Q88.2568-27.8076 88.2568-35.2295ZM50.7812-40.5518L81.2012-57.9834Q77.8564-62.9639 73.1201-66.7969Q68.3838-70.6299 62.6953-72.9614Q57.0068-75.293 50.7812-75.7812Z"/>
  </g>
  <g id="Semibold-S" transform="matrix(1 0 0 1 1996.19 696)">
   <path d="M47.0632 4.98887Q53.8991 4.98887 60.2746 2.73052Q66.65 0.472168 71.9923-3.77158L43.5923-31.346Q42.9931-31.9452 42.7201-32.5844Q42.4472-33.2235 42.4472-34.2377L42.4472-75.1771Q34.9787-74.305 28.5012-70.8671Q22.0237-67.4292 17.1564-62.0215Q12.2892-56.6139 9.56255-49.7569Q6.83594-42.8999 6.83594-35.2384Q6.83594-26.9799 9.99087-19.7035Q13.1458-12.4271 18.6988-6.85737Q24.2519-1.2877 31.5283 1.85059Q38.8047 4.98887 47.0632 4.98887ZM87.3237-35.2384Q87.3237-39.3489 86.447-43.4307Q85.5702-47.5124 83.9654-51.0836L52.8707-33.2035L77.5158-9.08877Q82.0769-14.3422 84.7003-21.0971Q87.3237-27.8521 87.3237-35.2384ZM49.8393-40.063L80.4014-57.619Q77.0655-62.6173 72.2937-66.4681Q67.5218-70.3188 61.7889-72.6282Q56.056-74.9375 49.8393-75.3547Z"/>
  </g>
  <g id="Medium-S" transform="matrix(1 0 0 1 1699.83 696)">
   <path d="M46.7061 4.625Q53.542 4.625 59.9478 2.32959Q66.3535 0.0341797 71.7295-4.31738L43.4912-31.7705Q42.9189-32.3428 42.6797-32.9482Q42.4404-33.5537 42.4404-34.4668L42.4404-74.8672Q34.9922-74.0557 28.5181-70.6582Q22.0439-67.2607 17.1699-61.8901Q12.2959-56.5195 9.56592-49.6929Q6.83594-42.8662 6.83594-35.2451Q6.83594-27.0742 9.96729-19.8618Q13.0986-12.6494 18.6045-7.12354Q24.1104-1.59766 31.3228 1.51367Q38.5352 4.625 46.7061 4.625ZM86.6162-35.2451Q86.6162-39.4365 85.6855-43.6328Q84.7549-47.8291 83.0625-51.4609L51.9004-33.5L76.7207-9.14941Q81.3154-14.3691 83.9658-21.1274Q86.6162-27.8857 86.6162-35.2451ZM49.125-39.6924L79.7949-57.3428Q76.4658-62.3545 71.667-66.2188Q66.8682-70.083 61.1016-72.3755Q55.335-74.668 49.125-75.0312Z"/>
  </g>
  <g id="Regular-S" transform="matrix(1 0 0 1 1403.58 696)">
   <path d="M46.2402 4.15039Q53.0762 4.15039 59.5215 1.80664Q65.9668-0.537109 71.3867-5.0293L43.3594-32.3242Q42.8223-32.8613 42.627-33.4229Q42.4316-33.9844 42.4316-34.7656L42.4316-74.4629Q35.0098-73.7305 28.54-70.3857Q22.0703-67.041 17.1875-61.7188Q12.3047-56.3965 9.57031-49.6094Q6.83594-42.8223 6.83594-35.2539Q6.83594-27.1973 9.93652-20.0684Q13.0371-12.9395 18.4814-7.4707Q23.9258-2.00195 31.0547 1.07422Q38.1836 4.15039 46.2402 4.15039ZM85.6934-35.2539Q85.6934-39.5508 84.6924-43.8965Q83.6914-48.2422 81.8848-51.9531L50.6348-33.8867L75.6836-9.22852Q80.3223-14.4043 83.0078-21.167Q85.6934-27.9297 85.6934-35.2539ZM48.1934-39.209L79.0039-56.9824Q75.6836-62.0117 70.8496-65.8936Q66.0156-69.7754 60.2051-72.0459Q54.3945-74.3164 48.1934-74.6094Z"/>
  </g>
  <g id="Light-S" transform="matrix(1 0 0 1 1107.6 696)">
   <path d="M45.5137 3.45408Q52.5009 3.45408 58.969 0.99678Q65.4371-1.46052 70.7207-5.99798L43.4654-32.6874Q42.9586-33.1792 42.7784-33.7105Q42.5982-34.2417 42.5982-35.0077L42.5982-73.7666Q35.1611-73.2007 28.6611-69.9771Q22.1611-66.7534 17.2557-61.5068Q12.3502-56.2602 9.59307-49.5185Q6.83594-42.7767 6.83594-35.2236Q6.83594-27.2881 9.86837-20.2878Q12.9008-13.2876 18.2392-7.93241Q23.5776-2.57721 30.5779 0.438436Q37.5781 3.45408 45.5137 3.45408ZM84.2402-35.2539Q84.2402-39.5508 83.2166-43.8586Q82.193-48.1664 80.3864-51.8471L49.1364-33.902L74.0489-9.25878Q78.7783-14.389 81.5093-21.1594Q84.2402-27.9297 84.2402-35.2539ZM47.1642-38.089L78.126-55.8472Q74.7754-61.2246 69.8204-65.2049Q64.8654-69.1851 59.0169-71.4254Q53.1685-73.6656 47.1642-73.8678Z"/>
  </g>
  <g id="Thin-S" transform="matrix(1 0 0 1 811.845 696)">
   <path d="M44.5527 2.53316Q51.7401 2.53316 58.2383-0.0743251Q64.7364-2.68181 69.8398-7.27913L43.6057-33.1677Q43.1389-33.5997 42.9787-34.0909Q42.8185-34.5821 42.8185-35.3279L42.8185-72.8457Q35.3612-72.5001 28.8212-69.4365Q22.2812-66.373 17.3458-61.2264Q12.4104-56.0799 9.62318-49.3982Q6.83594-42.7165 6.83594-35.1836Q6.83594-27.4081 9.77823-20.5781Q12.7205-13.7481 17.9188-8.54305Q23.1172-3.33803 29.9472-0.402438Q36.7772 2.53316 44.5527 2.53316ZM82.3183-35.2539Q82.3183-39.5508 81.2648-43.8085Q80.2112-48.0662 78.4046-51.7068L47.1546-33.9222L71.8868-9.2988Q76.7364-14.3689 79.5273-21.1493Q82.3183-27.9297 82.3183-35.2539ZM45.8029-36.6077L76.9649-54.3457Q73.5743-60.1836 68.4592-64.294Q63.3441-68.4045 57.4455-70.6047Q51.5469-72.8049 45.8029-72.887Z"/>
  </g>
  <g id="Ultralight-S" transform="matrix(1 0 0 1 515.626 696)">
   <path d="M44.0605 2.06146Q51.3504 2.06146 57.864-0.62294Q64.3776-3.30734 69.3886-7.93533L43.6775-33.4137Q43.2312-33.815 43.0813-34.2857Q42.9314-34.7565 42.9314-35.4919L42.9314-72.374Q35.4637-72.1413 28.9032-69.1597Q22.3427-66.1781 17.392-61.0828Q12.4413-55.9875 9.6386-49.3366Q6.83594-42.6857 6.83594-35.1631Q6.83594-27.4696 9.73206-20.7268Q12.6282-13.9839 17.7547-8.85582Q22.8813-3.72772 29.6242-0.83313Q36.367 2.06146 44.0605 2.06146ZM81.3339-35.2539Q81.3339-39.5508 80.265-43.7828Q79.1962-48.0148 77.3895-51.635L46.1395-33.9325L70.7794-9.31931Q75.6905-14.3585 78.5122-21.1441Q81.3339-27.9297 81.3339-35.2539ZM45.1057-35.849L76.3702-53.5767Q72.9591-59.6504 67.762-63.8275Q62.5648-68.0046 56.6406-70.1843Q50.7164-72.364 45.1057-72.3846Z"/>
  </g>
 </g>
</svg>
